<svg width="100" height="101" viewBox="0 0 100 101" fill="none" xmlns="http://www.w3.org/2000/svg">
<rect width="100" height="100" transform="translate(0 0.893066)" fill=""/>
<path fill-rule="evenodd" clip-rule="evenodd" d="M49.0036 18.5087C47.708 18.8703 46.7727 19.7961 46.3908 21.0948L46.1922 21.7702L44.7384 22.0078C42.3102 22.4047 38.838 23.5414 36.5889 24.6754C34.3231 25.818 31.3334 27.9349 29.8333 29.459L28.9575 30.3488L29.4524 30.8432L29.9473 31.3377L31.0044 30.3903C33.8442 27.845 36.8724 25.9761 40.1207 24.764C41.4333 24.2743 44.1272 23.5528 45.2455 23.3916C45.5802 23.3432 45.9482 23.2776 46.0635 23.2456C46.2045 23.2064 46.3672 23.3813 46.5615 23.7807C47.2494 25.195 48.4795 26.0249 49.8877 26.0249C50.9486 26.0249 51.5725 25.8238 52.3632 25.2269C54.6129 23.5284 54.1842 19.884 51.6009 18.7466C50.777 18.3839 49.7785 18.2924 49.0036 18.5087ZM51.2683 20.2395C51.9987 20.7394 52.3402 21.3736 52.3402 22.2304C52.3402 23.4622 51.6512 24.2776 50.3451 24.5914C48.9548 24.9253 47.3539 23.2931 47.6293 21.8222C47.9445 20.1393 49.8874 19.2943 51.2683 20.2395ZM57.2397 22.4788C57.2082 22.5348 57.1407 22.7629 57.0897 22.9858C57.0387 23.2087 56.9677 23.4896 56.9322 23.6101C56.8809 23.783 57.0593 23.8773 57.7801 24.0581C60.9023 24.8416 64.7584 26.8434 67.6421 29.1781C68.8406 30.1485 70.8365 32.1731 71.7807 33.3763L72.409 34.1768L72.074 34.5745C71.5033 35.252 71.302 35.8752 71.302 36.9657C71.302 38.1632 71.5276 38.7578 72.2986 39.5933C74.6219 42.1111 78.9395 40.3994 78.9395 36.9608C78.9395 34.4136 76.7197 32.6686 74.1829 33.2216C73.7148 33.3236 73.6994 33.312 72.7631 32.1577C70.0869 28.8578 66.1532 25.8409 62.2691 24.1097C60.1749 23.1764 57.3604 22.2637 57.2397 22.4788ZM23.8797 32.9046C22.3748 33.3618 21.3113 34.8198 21.3113 36.4254C21.3113 37.2744 21.685 38.2422 22.2689 38.9047L22.8221 39.5325L22.4815 40.444C20.585 45.5175 20.101 50.8191 21.0483 56.1457C21.2735 57.4126 21.6684 59.0842 21.7726 59.2128C21.7851 59.2281 22.0668 59.1596 22.3985 59.0604C23.104 58.8496 23.0917 58.9772 22.617 56.7779C21.5722 51.9387 21.9304 46.4458 23.6057 41.6163C23.8317 40.9647 24.04 40.4082 24.0684 40.3797C24.097 40.3512 24.5692 40.315 25.1178 40.2992C28.625 40.198 30.2475 36.4774 27.9021 33.914C27.3906 33.3549 27.0778 33.1398 26.5483 32.9827C25.8274 32.7689 24.4583 32.7289 23.8797 32.9046ZM47.0165 33.5365C41.6912 34.4278 36.8201 38.0474 34.3391 42.9569C31.446 48.6814 31.8329 55.3006 35.3686 60.5705C37.7848 64.1718 41.3621 66.7149 45.5902 67.8369C47.3986 68.3169 51.1084 68.4515 53.0831 68.109C60.0678 66.8974 65.7028 61.3647 67.2539 54.1954C67.4243 53.4079 67.4895 52.4899 67.4895 50.878C67.4895 47.7519 67.1126 46.1033 65.745 43.2465C63.3164 38.1739 58.3059 34.417 52.7736 33.5208C51.2507 33.274 48.5399 33.2815 47.0165 33.5365ZM26.4497 34.3862C26.9972 34.6634 27.487 35.4431 27.6058 36.2267C27.7865 37.4169 26.8397 38.6061 25.5589 38.798C25.0691 38.8714 24.8277 38.8226 24.2272 38.5291C23.6145 38.2298 23.4364 38.0558 23.1462 37.4741C22.7283 36.6364 22.7101 36.1532 23.0687 35.4132C23.6824 34.147 25.1164 33.7114 26.4497 34.3862ZM75.8982 34.6781C76.7914 35.0151 77.4283 35.9684 77.4283 36.9681C77.4283 37.6528 77.1761 38.1537 76.5591 38.6948C75.0983 39.9761 72.8081 38.882 72.8081 36.9029C72.8081 35.3163 74.4526 34.1324 75.8982 34.6781ZM51.2594 35.073C52.6939 35.7666 54.0862 37.7562 55.0652 40.5119C55.3944 41.4385 56.0597 43.9174 56.062 44.2257C56.063 44.3584 54.7562 44.3946 49.9757 44.3946H43.8881L43.9762 44.0231C44.9657 39.8504 45.8966 37.719 47.4091 36.1632C48.6904 34.845 50.0133 34.4705 51.2594 35.073ZM45.9704 35.5136C45.914 35.6066 45.674 35.956 45.437 36.2903C44.8013 37.1869 44.086 38.68 43.618 40.0869C43.1584 41.4689 42.5442 43.7932 42.5423 44.1582C42.5412 44.3774 42.2764 44.3946 38.8882 44.3946H35.2352L35.6338 43.6059C37.3417 40.2263 40.7633 37.1878 44.4342 35.7911C45.6724 35.32 46.1389 35.2357 45.9704 35.5136ZM55.4319 35.757C56.7169 36.2216 58.6014 37.2589 59.7161 38.1154C61.4931 39.4807 63.8045 42.3293 64.5101 44.0231L64.7211 44.5296H61.1384H57.5558L57.4724 44.1582C56.6546 40.5188 55.8321 38.3111 54.5914 36.4254C54.3225 36.0168 54.0538 35.6066 53.9943 35.5136C53.8228 35.2457 54.1883 35.3077 55.4319 35.757ZM77.676 43.6321C77.4031 43.7172 77.1474 43.8193 77.1077 43.8591C77.0679 43.899 77.1859 44.7195 77.3701 45.6826C77.7907 47.8834 77.9432 51.4788 77.7075 53.64C77.4408 56.0858 76.9229 58.2687 76.0472 60.6368L75.6102 61.8187H74.5571C73.34 61.8187 72.5362 62.1218 71.7979 62.8594C70.9836 63.6728 70.738 64.3078 70.738 65.6007C70.738 66.8928 70.971 67.4982 71.7719 68.2874C72.5693 69.0732 73.1735 69.3102 74.3858 69.3129C75.6912 69.3157 76.5002 68.9672 77.3029 68.0563C78.0488 67.2098 78.2965 66.3578 78.1851 65.0223C78.0857 63.8315 77.9862 63.5672 77.4072 62.9555L77.013 62.5389L77.2755 61.9273C77.7878 60.7334 78.5079 58.3098 78.8388 56.6654C79.6965 52.4041 79.6149 48.6875 78.557 43.8205C78.4689 43.4153 78.4109 43.4029 77.676 43.6321ZM42.0325 47.2648C41.9049 48.8607 41.9034 53.1766 42.0299 54.6283L42.1273 55.7449L38.3789 55.7089L34.6306 55.673L34.3058 54.4574C33.7226 52.2743 33.8575 48.2119 34.5761 46.3193L34.6915 46.0154H38.4119H42.1324L42.0325 47.2648ZM56.4325 46.3869C56.568 46.8711 56.568 54.8848 56.4325 55.3691L56.3285 55.7405H49.9957H43.6629L43.5761 54.6262C43.5283 54.0132 43.4892 52.3266 43.4892 50.878C43.4892 49.4293 43.5283 47.7426 43.5761 47.1297L43.6629 46.0154H49.9957H56.3285L56.4325 46.3869ZM65.6844 47.2648C65.9524 48.3336 65.9977 48.8558 65.9977 50.878C65.9977 52.9001 65.9524 53.4223 65.6844 54.4911L65.371 55.7405H61.5981H57.8253L57.9246 54.8963C57.9792 54.4321 58.024 52.6238 58.024 50.878C58.024 49.1322 57.9792 47.324 57.9246 46.8596L57.8253 46.0154H61.5981H65.371L65.6844 47.2648ZM42.6375 58.1629C43.1953 60.9169 44.2811 63.7054 45.4962 65.5039L46.19 66.5311L45.5285 66.3348C43.7245 65.7997 42.022 64.9524 40.5033 63.8341C38.6359 62.459 36.7292 60.1827 35.6408 58.029L35.233 57.2219L38.8472 57.2579L42.4614 57.2938L42.6375 58.1629ZM56.0632 57.4873C56.0632 57.8048 55.2314 60.7869 54.8572 61.811C53.8576 64.5462 51.9778 66.7258 50.3778 67.0048C50.0898 67.055 49.6057 67.0015 49.1654 66.8709C48.5682 66.6937 48.2551 66.4748 47.4746 65.6881C46.0491 64.2514 45.0836 62.2609 44.2875 59.1173C44.0711 58.263 43.8938 57.5185 43.8937 57.4627C43.8934 57.4069 46.6315 57.3614 49.9783 57.3614C53.6507 57.3614 56.0632 57.4114 56.0632 57.4873ZM64.5389 57.7328C62.8817 61.4521 59.1452 64.758 55.027 66.1484C54.3791 66.3672 53.8301 66.5462 53.8069 66.5462C53.7839 66.5462 54.0476 66.1664 54.3931 65.702C54.7386 65.2378 55.2796 64.3108 55.5954 63.6422C56.1445 62.4796 57.1642 59.3284 57.3489 58.2233C57.3971 57.9349 57.4604 57.6231 57.4894 57.5302C57.5299 57.4007 58.3768 57.3614 61.1232 57.3614H64.7043L64.5389 57.7328ZM23.7574 61.3562C21.8746 62.0417 21.0101 63.4155 21.2149 65.397C21.4086 67.2723 23.0535 68.719 24.9623 68.6926C25.4457 68.6859 25.9907 68.6387 26.1737 68.5878C26.4675 68.506 26.6195 68.6302 27.4841 69.6596C30.1192 72.7967 33.6608 75.5572 37.1885 77.2236C38.6142 77.8972 40.8215 78.7455 41.543 78.8976C41.953 78.9839 41.9691 78.969 42.1238 78.3553C42.2113 78.0082 42.2595 77.701 42.2311 77.6725C42.2026 77.6442 41.6788 77.4713 41.0669 77.2883C36.6403 75.9648 32.2162 73.0181 28.8058 69.1216L27.6906 67.8475L28.0326 67.3997C28.5189 66.763 28.7357 66.0639 28.7425 65.1112C28.7535 63.5869 28.0381 62.3456 26.743 61.6416C25.865 61.1642 24.6134 61.0446 23.7574 61.3562ZM26.2442 63.0731C27.8826 64.0001 27.7156 66.4348 25.9515 67.3402C25.1705 67.7409 23.7547 67.3 23.1096 66.455C22.2158 65.2845 22.7673 63.381 24.1509 62.8617C24.6607 62.6703 25.7215 62.7775 26.2442 63.0731ZM75.4427 63.3652C76.1165 63.6052 76.4639 63.9256 76.7682 64.5877C77.1378 65.3916 77.0944 66.1101 76.6322 66.838C75.6786 68.34 73.5742 68.404 72.6175 66.9599C71.7603 65.6662 72.3748 63.8975 73.8658 63.3665C74.5173 63.1344 74.7946 63.1342 75.4427 63.3652ZM68.9226 71.4279C66.2741 73.9459 62.502 76.1602 58.8353 77.3488C57.4336 77.8033 54.2693 78.5675 53.7895 78.5675C53.7365 78.5675 53.5478 78.2619 53.3702 77.8881C52.2947 75.6255 49.2498 75.0268 47.3433 76.7031C46.5481 77.4023 46.1731 78.1447 46.0896 79.1856C45.8856 81.7222 48.189 83.8429 50.5701 83.3105C51.9645 82.9988 53.2521 81.7606 53.4502 80.5406C53.5197 80.1129 53.5831 80.0498 54.0183 79.9758C57.3523 79.4089 60.1334 78.5332 62.8115 77.2074C65.4621 75.895 67.5308 74.4619 69.9579 72.2569L70.6684 71.6114L70.2284 71.1081L69.7882 70.605L68.9226 71.4279ZM51.2295 77.5236C51.8071 77.8465 52.4141 78.9011 52.4093 79.5733C52.4056 80.0737 52.0054 80.9812 51.6489 81.2976C51.2695 81.6342 50.4583 81.9443 49.9577 81.9443C48.5185 81.9443 47.3074 80.3532 47.6838 78.9568C47.9801 77.8576 49.2157 76.9931 50.2487 77.1624C50.509 77.2049 50.9504 77.3676 51.2295 77.5236Z" fill="#F3012A" stroke="#F3012A"/>
</svg>
