<svg width="101" height="101" viewBox="0 0 101 101" fill="none" xmlns="http://www.w3.org/2000/svg">
<rect width="100" height="100" transform="translate(0.776611 0.893066)" fill=""/>
<path fill-rule="evenodd" clip-rule="evenodd" d="M55.4138 18.571C54.8691 18.9583 55.0849 20.1233 55.7014 20.1233C56.3677 20.1233 59.3557 20.6728 60.9548 21.0895C65.0374 22.1532 68.5307 23.8714 71.9786 26.512C73.4078 27.6067 76.8412 30.9732 76.8412 31.2799C76.8412 31.5369 71.496 32.6822 70.2226 32.698C69.6182 32.7056 69.5753 32.6735 68.8013 31.6327C67.8555 30.3608 67.6071 30.1265 66.8856 29.8249C66.1172 29.5038 65.8073 29.5389 65.2986 30.0043C64.9408 30.3316 64.7794 30.7017 64.4758 31.8917C63.7351 34.7956 63.5564 35.0303 62.4966 34.4895C61.2671 33.8623 60.7685 34.1934 60.5195 35.8025C60.3523 36.8835 60.2415 37.0122 59.8133 36.6247C59.6016 36.4332 59.585 36.2807 59.7046 35.6255C59.7823 35.2002 59.8208 34.4059 59.7903 33.8604C59.7228 32.6524 59.3329 32.1138 58.5263 32.1138C57.791 32.1138 57.2307 32.4664 56.5825 33.3372C55.7426 34.4655 55.6261 34.7446 55.5339 35.8486L55.4508 36.8448L54.507 36.187C53.9878 35.8252 53.3287 35.4517 53.0421 35.3571C52.2905 35.1092 50.9072 35.2773 49.9839 35.729C47.0051 37.1865 45.8497 41.7836 48.179 42.9111C48.9354 43.2773 49.1823 43.2884 49.7734 42.9828C50.0992 42.8143 50.3481 42.475 50.6694 41.7615C51.221 40.5364 51.4647 40.2554 51.9751 40.2554C52.4211 40.2554 53.1563 40.7601 53.1563 41.0662C53.1563 41.1747 52.734 41.7007 52.2178 42.2349C51.0243 43.4704 50.3279 43.7744 48.0876 44.0385C47.1317 44.1512 46.1585 44.3421 45.9251 44.4629C45.2891 44.7917 45.0706 45.4438 45.2984 46.3327L45.4826 47.0509L44.9596 47.5738C44.6444 47.8891 44.3969 48.3089 44.3365 48.6313C44.0239 50.2974 45.7026 51.9312 47.1226 51.3431C47.3836 51.2349 47.9741 50.7517 48.4346 50.2691L49.272 49.3919L50.2957 50.2189C51.4028 51.1135 51.8937 51.3577 52.5836 51.3577C53.184 51.3577 53.5537 51.1376 53.821 50.6205C54.2171 49.8545 54.1091 49.1148 53.4605 48.153C53.0225 47.5035 52.9309 47.2748 53.094 47.2383C53.4887 47.1503 54.2556 47.7337 54.7087 48.4667C55.0695 49.0502 55.1548 49.3509 55.1548 50.04C55.1548 51.2128 54.8677 51.5401 53.0073 52.4894C51.2238 53.3995 51.028 53.3751 50.6856 52.2011C50.538 51.695 50.3677 51.4492 50.0511 51.2855C49.4508 50.9751 48.6148 51.0112 47.8272 51.3814C47.4609 51.5537 46.8041 51.7474 46.3677 51.8116C45.4668 51.9445 44.9965 52.3034 44.5373 53.2081C44.3721 53.5338 43.9417 54.1179 43.5811 54.5061C42.4856 55.6854 42.1346 56.9047 42.4447 58.4554C42.5599 59.0312 43.7996 60.4264 44.7106 61.0055C45.487 61.499 45.8379 61.5135 47.5938 61.1254C48.3202 60.9648 48.9378 60.8566 48.966 60.885C48.9945 60.9133 48.9443 61.2786 48.8546 61.6968C48.6664 62.574 48.8182 63.2362 49.4081 64.1116C49.763 64.6385 49.7666 64.6709 49.5432 65.3289C49.2967 66.0551 49.3611 66.7156 49.8405 68.3749C50.3581 70.1671 51.4185 71.5207 52.4575 71.7155C53.7026 71.9491 55.1183 70.6806 56.5998 68.0041C58.5399 64.4986 59.2256 62.6461 59.2256 60.9097C59.2256 59.8548 59.2105 59.8119 58.419 58.6226C57.5258 57.2803 57.0051 56.0511 57.0051 55.2838C57.0051 54.3172 57.5835 54.4759 58.3362 55.6489C59.5718 57.5744 60.4587 57.4353 63.2004 54.886C63.799 54.3296 64.3791 53.8743 64.4899 53.8743C64.8454 53.8743 65.2396 54.4473 65.4192 55.2252C65.8011 56.8799 66.4455 57.5765 67.5893 57.5712C68.3905 57.5675 68.7446 57.2508 69.3552 55.9921C69.8462 54.98 70.3787 54.4397 70.617 54.7117C70.6772 54.7804 71.0111 55.5207 71.3589 56.3569C72.0741 58.0763 72.4351 58.4632 73.3233 58.4632C73.79 58.4632 74.0103 58.3631 74.3992 57.9743C74.9063 57.4671 75.359 56.2766 75.3632 55.4386C75.3663 54.8122 75.4931 54.6744 76.1637 54.5684C76.9746 54.4403 77.7202 53.7834 78.2845 52.6998C78.8559 51.6026 78.8975 50.8994 78.4654 49.6435C78.3004 49.1636 78.1839 48.6842 78.2064 48.5779C78.229 48.4716 78.7471 48.1376 79.3578 47.8358C80.3448 47.3477 80.5081 47.2061 80.8289 46.5587C81.552 45.0993 81.2229 43.4391 79.916 41.9544C79.4094 41.3789 79.3406 41.2252 79.4663 40.9502C79.651 40.5459 81.1396 38.7751 81.2947 38.7751C81.4962 38.7751 82.3409 41.1605 82.8411 43.142C84.3092 48.9583 84.0771 55.247 82.1937 60.6837C81.51 62.6577 81.6216 62.5287 81.0386 62.017C80.5488 61.5868 80.4832 61.572 79.0935 61.5751C77.3691 61.579 76.8596 61.7712 75.5806 62.9007C74.4538 63.8955 73.9046 64.2352 73.4214 64.2358C72.3849 64.2373 71.6837 65.27 71.3651 67.2645C70.9487 69.871 72.3649 70.9862 74.6948 69.8861C75.9793 69.2795 76.3766 69.2049 76.7107 69.5072C76.8639 69.6459 76.9893 69.8776 76.9893 70.0219C76.9893 70.3527 74.2096 73.2651 72.7137 74.5017C62.0967 83.2785 47.2816 84.0636 35.9108 76.452C35.0152 75.8525 34.0611 75.1736 33.7907 74.9433L33.2991 74.5245L33.5352 73.0442C33.7883 71.4563 34.115 70.308 34.4829 69.7135C34.6087 69.51 35.4892 68.4109 36.4394 67.271C39.2955 63.845 40.0308 62.4287 39.6651 61.0573C39.3592 59.9105 38.5024 59.4149 35.9478 58.9075L35.0966 58.7383V58.1519C35.0966 57.3419 34.7938 56.6935 34.1523 56.1304C33.408 55.4768 32.8201 55.2028 30.5817 54.4664C28.4868 53.7772 27.5471 53.3612 27.5471 53.1233C27.5471 52.7765 28.2949 51.9099 29.0778 51.3492C30.3818 50.4154 30.3487 50.0731 28.7612 48.0781C27.4285 46.4033 24.9324 44.5008 23.5075 44.0739C23.1201 43.9578 22.9708 43.8403 23.0267 43.6951C23.0711 43.5793 23.1476 43.3243 23.1969 43.1283C23.246 42.9323 23.3544 42.772 23.4376 42.772C23.5208 42.772 23.9095 42.5416 24.3015 42.2599L25.0141 41.748L27.0578 43.5154C29.5071 45.6337 29.7332 45.7034 30.5749 44.601C30.8635 44.223 31.0998 43.8285 31.0998 43.7243C31.0998 43.62 30.7426 42.6137 30.3059 41.4881C29.8692 40.3623 29.4654 39.2922 29.4082 39.11C29.3225 38.836 29.5218 38.5381 30.5617 37.3868L31.8188 35.995L34.8872 40.6535C36.5747 43.2156 38.1084 45.4122 38.2953 45.5345C38.4821 45.6569 38.7613 45.717 38.9157 45.668C39.388 45.5181 41.61 42.8099 41.61 42.3841C41.61 42.1781 40.8439 39.0595 39.9076 35.4539C38.9713 31.8485 38.2053 28.8269 38.2053 28.7391C38.2053 28.6515 38.6735 28.0361 39.2459 27.3718C40.3471 26.0931 40.6809 25.5387 41.0697 24.3422C42.2074 20.8406 41.2393 19.1204 38.5678 19.8971C36.5479 20.4842 35.2368 21.3977 33.5096 23.4208L32.9059 24.128L26.0588 23.3838C22.2929 22.9747 19.0602 22.6398 18.8751 22.6398C18.6346 22.6398 18.1767 23.0519 17.2717 24.0831C15.941 25.5991 15.7477 26.0663 16.2597 26.5286C16.4023 26.6571 18.7478 27.803 21.4722 29.0747C24.1965 30.3464 26.4531 31.4146 26.4867 31.4482C26.5203 31.4818 26.1446 31.9765 25.6518 32.5476C25.1592 33.1187 24.6437 33.776 24.5067 34.0081L24.2572 34.4301L21.676 33.8518C19.2498 33.3082 19.0731 33.2878 18.7317 33.5113C18.1822 33.8715 17.585 34.8509 17.698 35.2067C17.7504 35.3718 18.6889 36.2826 19.7836 37.2306C20.8783 38.1786 21.7739 39.0071 21.7739 39.0716C21.7739 39.1362 21.6081 39.4789 21.4056 39.8333C20.9533 40.6243 20.9373 41.0961 21.3483 41.5334L21.6628 41.8682L21.3538 43.1712C19.7497 49.9343 20.1994 56.5302 22.694 62.8301C24.8098 68.1728 28.8906 73.6156 33.0303 76.6164C38.1127 80.3004 42.7038 82.2424 48.4194 83.126C50.4729 83.4435 55.0787 83.4869 57.0792 83.2077C60.685 82.7044 63.8633 81.7423 67.1452 80.1606C75.151 76.3025 81.1738 69.4435 83.9329 61.0423C85.2285 57.0976 85.6584 54.0997 85.5339 49.8785C85.383 44.7668 84.3606 40.6443 82.1373 36.1846C79.6032 31.1015 75.979 26.9804 71.2846 23.8437C66.706 20.7845 62.1668 19.1223 56.487 18.4251C55.9334 18.357 55.6629 18.3938 55.4138 18.571ZM39.7754 22.1821C39.6471 23.1495 39.1667 24.5165 38.7306 25.1562C38.5361 25.4411 36.1568 28.2361 33.4431 31.367L28.5093 37.0595L25.9927 38.8724C23.6518 40.5588 23.1061 40.8819 23.1061 40.5817C23.1061 40.4313 25.7763 35.253 26.0693 34.8353C26.1901 34.6631 28.5346 31.9225 31.2794 28.7452C36.478 22.727 36.7658 22.4496 38.5013 21.7835C39.7907 21.2886 39.8897 21.3197 39.7754 22.1821ZM25.8348 25.1614C28.8416 25.4869 31.3289 25.7801 31.362 25.8133C31.4753 25.9265 27.7867 30.0514 27.6298 29.9867C27.3084 29.8542 18.441 25.7012 18.3883 25.6584C18.3582 25.634 18.5468 25.3446 18.8076 25.0154C19.2406 24.4687 19.3291 24.4233 19.8247 24.4932C20.1233 24.5352 22.8278 24.8358 25.8348 25.1614ZM38.2924 36.3054L39.791 42.1058L39.3506 42.6675C39.1084 42.9763 38.8548 43.2094 38.787 43.1856C38.7192 43.1616 37.393 41.22 35.8397 38.8708L33.0158 34.5995L33.8542 33.6157C36.0042 31.0929 36.6563 30.37 36.7224 30.4348C36.7617 30.4734 37.4682 33.1152 38.2924 36.3054ZM67.4636 32.8036C68.4936 34.247 68.8421 34.4823 69.9498 34.4823C71.0592 34.4823 72.6831 34.2108 75.7642 33.5101C77.0153 33.2256 78.1001 33.0305 78.1746 33.0766C78.3372 33.1772 79.7759 35.4855 80.227 36.3695L80.5476 36.9979L80.1106 37.4054C79.2737 38.1858 78.1334 39.5933 77.8616 40.1814C77.7111 40.5071 77.5864 41.0644 77.5846 41.4199C77.5817 41.9995 77.6649 42.1565 78.3907 42.9404C79.3091 43.9324 79.58 44.6376 79.3551 45.4518C79.2282 45.911 79.0818 46.0362 78.172 46.4631C76.4683 47.2625 76.1126 48.1 76.692 49.9478C77.0614 51.1256 77.0335 51.4726 76.5067 52.2547C76.2133 52.6903 76.0553 52.7774 75.4161 52.856C74.0698 53.0216 73.6097 53.564 73.5974 55C73.5937 55.4157 73.5285 55.9153 73.4522 56.1103C73.3159 56.459 73.3106 56.4565 73.1258 55.9467C73.0225 55.6617 72.6834 54.9197 72.3721 54.2978C71.9318 53.4177 71.6948 53.114 71.3037 52.9285C70.6518 52.6191 70.5424 52.6267 69.6618 53.0419C68.7403 53.4765 68.3791 53.8645 67.8787 54.9574C67.6622 55.4305 67.4604 55.7932 67.4305 55.7631C67.4006 55.7332 67.2671 55.2835 67.134 54.7638C66.7108 53.1121 66.0828 52.4071 64.8238 52.171C64.0489 52.0257 63.2109 52.4573 61.86 53.6977C60.8078 54.6637 60.1432 55.1544 60.051 55.0335C60.0306 55.0065 59.8041 54.6741 59.5477 54.2947C58.9301 53.3806 58.1845 52.9291 57.2922 52.9291C54.7967 52.9291 54.5354 55.938 56.739 59.2991C57.5885 60.5949 57.6171 60.6869 57.4479 61.5785C57.092 63.4554 54.7392 68.1296 53.5442 69.334L52.8191 70.0648L52.4125 69.6096C51.9099 69.0471 51.3801 67.6722 51.2733 66.6531C51.2066 66.0187 51.2471 65.8183 51.5085 65.4859C51.9962 64.8657 51.9244 64.1987 51.3032 63.5772C50.6136 62.8878 50.4771 62.4936 50.6678 61.7424C50.9736 60.5377 50.4819 59.4934 49.4655 59.1889C48.9949 59.0479 48.6578 59.0724 47.4709 59.3333C46.6853 59.5061 45.9738 59.6475 45.8898 59.6475C45.8059 59.6475 45.3747 59.3048 44.9318 58.8858C44.1931 58.1871 44.1265 58.0702 44.1265 57.4698C44.1265 56.6775 44.2758 56.3717 45.0956 55.4866C45.4431 55.1115 45.8681 54.5286 46.0402 54.1913C46.309 53.6644 46.4202 53.578 46.831 53.5767C47.0941 53.576 47.6655 53.4094 48.101 53.2066C48.5365 53.004 48.9144 52.838 48.9407 52.838C48.9669 52.838 49.0643 53.0679 49.1572 53.3488C49.4779 54.3209 51.0038 55.2364 51.8683 54.9755C52.4467 54.8009 55.1401 53.4188 55.6326 53.0438C55.8954 52.8437 56.295 52.3658 56.5208 51.9818C56.8768 51.3761 56.9311 51.1271 56.9311 50.0995C56.9311 49.104 56.8656 48.7816 56.5195 48.0768C55.308 45.61 52.859 44.6936 51.343 46.1398C50.6737 46.7781 50.7827 47.5473 51.7099 48.7302C51.9492 49.0356 52.0953 49.2853 52.0343 49.2853C51.9734 49.2853 51.4593 48.8728 50.8919 48.3684C50.0382 47.6098 49.7734 47.4539 49.3579 47.4656C48.76 47.4826 48.0856 47.9637 47.2188 48.9915C46.8766 49.3974 46.5428 49.7294 46.4771 49.7294C46.4112 49.7294 46.2818 49.5883 46.1894 49.4157C46.041 49.1383 46.1024 49.028 46.7222 48.4589C47.3938 47.8423 47.4194 47.7895 47.3385 47.1812C47.292 46.8323 47.2108 46.4052 47.1582 46.2322C47.067 45.933 47.1263 45.9124 48.3699 45.8113C49.8869 45.688 51.1622 45.3033 52.1583 44.6687C53.039 44.1075 54.7545 42.2092 54.9283 41.6034C55.325 40.2201 53.719 38.4791 52.0461 38.4791C50.7927 38.4791 49.6035 39.4283 49.1552 40.7866C48.939 41.4419 48.715 41.2985 48.7169 40.5058C48.7208 38.8301 50.4231 36.9988 51.9771 36.9988C52.5402 36.9988 52.8154 37.1382 54.0654 38.0569C55.2967 38.9617 55.8324 39.1636 56.3893 38.9329C57.0658 38.6527 57.3012 38.0757 57.3012 36.6974C57.3012 35.7023 57.3606 35.3833 57.6255 34.9546C58.0218 34.3134 58.0935 34.4719 57.9169 35.5987C57.8403 36.0862 57.8365 36.6527 57.908 36.9017C58.1786 37.8457 59.3479 38.6271 60.4893 38.6271C61.3969 38.6271 61.9674 38.0893 62.1168 37.0934L62.2209 36.3997L62.7216 36.4937C64.4421 36.8164 65.4374 35.6906 66.1078 32.664C66.4038 31.328 66.4113 31.3288 67.4636 32.8036ZM23.2403 36.0539C23.3212 36.1261 22.7892 37.2948 22.6755 37.2948C22.6043 37.2948 21.1385 36.0757 20.5369 35.5161C20.4167 35.4043 23.1137 35.9408 23.2403 36.0539ZM28.6666 42.4419C28.5772 42.5313 26.6589 40.8544 26.6589 40.6868C26.6589 40.6183 26.9046 40.3952 27.2048 40.1912L27.7508 39.8202L28.2438 41.0958C28.5152 41.7975 28.7054 42.4032 28.6666 42.4419ZM23.8343 46.1964C25.0372 46.8717 26.4364 48.0247 27.2726 49.0294L28.0034 49.9076L27.4837 50.2996C26.8469 50.78 25.9617 52.0032 25.7806 52.653C25.5044 53.6442 26.0642 54.5323 27.3819 55.1931C27.6763 55.3408 28.7831 55.7466 29.8415 56.0947C32.9332 57.1118 33.2271 57.3201 33.3697 58.5929C33.522 59.9545 33.9957 60.3798 35.695 60.6809C37.0977 60.9294 37.7628 61.1501 37.9039 61.4138C38.2138 61.993 37.0959 63.7951 34.7297 66.5309C32.8307 68.7263 32.3615 69.6912 31.7476 72.6625C31.6737 73.0204 31.6728 73.0201 31.1398 72.487L30.6058 71.9532L30.802 68.9279C30.9097 67.2639 30.954 65.4827 30.9004 64.9693C30.7715 63.7362 30.2249 62.803 29.1014 61.8975L28.2132 61.1818L28.264 59.8978C28.351 57.6977 27.8613 57.0831 25.1118 55.9411C23.3615 55.2139 22.5519 54.7691 22.4286 54.4664C22.2335 53.9871 22.178 49.2681 22.3518 47.92C22.5966 46.0205 22.6618 45.7326 22.8469 45.7326C22.9356 45.7326 23.38 45.9413 23.8343 46.1964ZM26.1408 58.4036C26.4037 58.5994 26.4368 58.7963 26.4368 60.161C26.4368 61.9314 26.5138 62.0951 27.8572 63.1807C29.1154 64.1975 29.2059 64.4849 29.1114 67.1693C29.0675 68.416 28.9745 69.5383 28.9046 69.6632C28.7698 69.9042 28.4808 69.559 27.1256 67.5379C25.3527 64.894 23.4226 60.2756 22.8786 57.3755L22.7811 56.8557L24.3129 57.5195C25.1553 57.8844 25.9779 58.2823 26.1408 58.4036ZM79.9564 63.6073C79.9599 63.7497 80.0568 64.13 80.1716 64.4524C80.3727 65.017 80.3633 65.0683 79.9155 65.8587C79.6597 66.3097 79.1825 67.0928 78.8549 67.5986C78.2702 68.5015 78.2543 68.513 77.9901 68.2294C77.1762 67.3559 75.9809 67.3134 74.3194 68.0993C73.2066 68.6254 72.9303 68.5817 73.0617 67.9003C73.4152 66.0686 73.4251 66.0479 73.9979 65.9404C74.7932 65.7912 75.3256 65.4805 76.3971 64.5397C77.6847 63.4094 77.7954 63.358 78.9507 63.3527C79.8029 63.3488 79.9508 63.3863 79.9564 63.6073Z" fill="#F3012A"/>
</svg>
