<svg width="101" height="101" viewBox="0 0 101 101" fill="none" xmlns="http://www.w3.org/2000/svg">
<rect width="100" height="100" transform="translate(0.553284 0.893066)" fill=""/>
<path fill-rule="evenodd" clip-rule="evenodd" d="M48.9332 18.5263C45.4567 19.1054 42.1879 21.7339 41.0436 24.8701L40.7278 25.7357L36.7962 25.7425C32.2631 25.7503 31.6181 25.7947 30.0797 26.2053C28.4674 26.6355 27.1748 27.4096 25.8579 28.7338C24.0684 30.533 23.0042 32.992 23.0042 35.3276C23.0042 35.8572 23.7494 43.0358 24.6602 51.2797C25.571 59.5238 26.3161 66.3959 26.3161 66.5513C26.3161 66.8227 26.078 66.8335 20.1006 66.8335C13.9508 66.8335 13.878 66.8371 13.2245 67.1722C11.9908 67.8048 12.0147 67.6473 12.0147 75.1133C12.0147 82.5792 11.9908 82.4218 13.2245 83.0544L13.885 83.3931H50.5533H87.2216L87.8821 83.0544C89.1109 82.4243 89.0919 82.5442 89.0919 75.3962V69.1257L87.9458 67.9796L86.7997 66.8335H80.7951C75.1277 66.8335 74.7905 66.8185 74.7905 66.5644C74.7905 66.4162 74.9579 64.7735 75.1623 62.9137C75.3669 61.0539 76.1121 54.2824 76.8182 47.8658C77.5246 41.4492 78.1024 35.7866 78.1024 35.282C78.1024 34.0455 77.6291 32.2755 76.9465 30.9595C76.2363 29.59 74.4936 27.8027 73.1345 27.0498C71.1812 25.9679 70.4827 25.8563 65.1424 25.775L60.387 25.7026L60.1959 25.1546C59.8152 24.0628 58.9348 22.6788 57.9711 21.6573C55.6014 19.1452 52.2296 17.9773 48.9332 18.5263ZM51.589 22.872C54.195 23.3662 56.2252 25.6284 56.3917 28.2234C56.6371 32.0452 53.4756 34.941 49.6112 34.4342C47.8309 34.2007 46.0869 32.8962 45.2448 31.1686C44.7993 30.2545 44.7612 30.0585 44.7602 28.6713C44.7593 27.3507 44.8088 27.0596 45.1641 26.2998C45.9436 24.6332 47.4874 23.3688 49.2737 22.9339C50.2311 22.7007 50.6295 22.69 51.589 22.872ZM40.6219 31.1602C41.5417 34.7882 44.4749 37.6997 48.1446 38.6269C49.4307 38.9519 51.7004 38.9536 52.962 38.6303C53.5001 38.4925 54.5163 38.0974 55.2201 37.7525C56.2486 37.2484 56.7511 36.872 57.7811 35.8339C59.2145 34.389 59.9718 33.1031 60.4251 31.3435L60.6956 30.2935L62.1572 30.1978C62.9611 30.1451 64.9639 30.1451 66.6078 30.1979C69.0077 30.275 69.7511 30.3507 70.3799 30.5821C72.0494 31.1966 73.4975 33.0846 73.6775 34.8814C73.737 35.4747 73.3538 39.461 72.4586 47.5642C71.7405 54.0638 70.9709 61.0414 70.7484 63.07L70.3439 66.7582L69.6388 66.8039L68.9336 66.8495L68.8832 58.5241C68.8271 49.2589 68.8466 49.4552 67.7608 47.2859C66.8024 45.3714 64.7037 43.4194 62.6719 42.5527C62.0244 42.2765 59.5176 41.4964 58.7275 41.3252C58.0795 41.1847 56.9707 41.6794 56.6167 42.267C56.4696 42.511 55.7056 44.4798 54.919 46.6422C54.1324 48.8045 53.4541 50.574 53.4116 50.5743C53.3692 50.5747 53.1873 49.9148 53.0073 49.1076L52.6801 47.6402L53.6867 45.8344C54.8034 43.8308 54.9446 43.1056 54.3682 42.3337C53.6379 41.3556 53.4923 41.3168 50.5537 41.3168C47.6152 41.3168 47.4684 41.3559 46.7384 42.3337C46.1631 43.1043 46.3037 43.8307 47.4154 45.8341L48.4173 47.6395L48.0953 49.1073C47.9181 49.9146 47.7362 50.5751 47.6909 50.5751C47.6457 50.5751 47.0409 49.0001 46.3466 47.075C44.7421 42.6259 44.5134 42.1085 43.9858 41.7354C43.2323 41.2027 42.7687 41.196 41.066 41.6942C40.1983 41.948 39.1159 42.3011 38.6605 42.4789C35.7858 43.6012 33.442 46.2109 32.5385 49.2955C32.3032 50.0987 32.2682 51.12 32.2234 58.5241L32.173 66.8495L31.4659 66.8039L30.7588 66.7582L30.4891 64.2743C30.3409 62.9082 29.5722 55.9306 28.7808 48.7686C27.8779 40.596 27.3713 35.4523 27.4205 34.9559C27.6546 32.592 29.6624 30.5356 32.0048 30.2606C32.4778 30.2052 34.5545 30.1657 36.6198 30.1731L40.3751 30.1865L40.6219 31.1602ZM42.509 49.5213C43.1111 51.3014 44.681 55.925 45.9976 59.7957L48.3915 66.8335H42.4661H36.5406L36.5844 58.7419C36.6281 50.6756 36.6293 50.6476 36.9776 49.7852C37.3575 48.8444 38.5663 47.4053 39.3223 46.9938C40.1136 46.5633 40.9835 46.2209 41.2041 46.2536C41.3349 46.2729 41.8269 47.5046 42.509 49.5213ZM61.339 46.7531C62.3776 47.2445 63.67 48.6474 64.1269 49.7794C64.4779 50.6491 64.4784 50.6615 64.5222 58.7419L64.566 66.8335H58.6201H52.6743L52.9052 66.1937C53.0323 65.8419 54.589 61.2861 56.3645 56.0698C58.14 50.8536 59.6257 46.4939 59.6659 46.3816C59.7566 46.1287 60.2512 46.2386 61.339 46.7531ZM84.7262 75.1133V79.0274H50.5533H16.3804V75.1133V71.1992H50.5533H84.7262V75.1133Z" fill="#F3012A" stroke="white" stroke-width="1.1858"/>
</svg>
