<svg width="100" height="101" viewBox="0 0 100 101" fill="none" xmlns="http://www.w3.org/2000/svg">
<rect width="100" height="100" transform="translate(0 0.967773)" fill=""/>
<path fill-rule="evenodd" clip-rule="evenodd" d="M36.6517 18.5248C34.5078 18.8615 32.6 20.2639 31.6465 22.204C30.4146 24.7106 30.8652 27.7511 32.7672 29.7674C36.0169 33.2121 41.6952 32.3291 43.7369 28.0615C44.5903 26.2775 44.5931 24.0741 43.7442 22.3064C42.8939 20.5358 41.3065 19.217 39.3767 18.6777C38.7071 18.4906 37.3532 18.4147 36.6517 18.5248ZM61.1434 18.5607C58.4167 19.0787 56.3225 21.1131 55.7292 23.8205C55.565 24.5698 55.6035 26.0878 55.8061 26.8488C56.498 29.448 58.6681 31.4084 61.316 31.8262C63.8212 32.2214 66.4754 31.0532 67.882 28.9359C68.3272 28.2658 68.701 27.4228 68.8956 26.6495C69.0411 26.0717 69.0412 24.2796 68.8959 23.701C68.2769 21.2383 66.5429 19.4216 64.1411 18.7197C63.2419 18.4568 62.0289 18.3925 61.1434 18.5607ZM39.1098 20.9556C40.3714 21.3824 41.4193 22.4043 41.8843 23.6611C42.0329 24.0624 42.0617 24.3057 42.0637 25.1752C42.0666 26.3924 41.9428 26.828 41.3452 27.7047C40.7642 28.5567 39.8898 29.1903 38.883 29.4886C38.1434 29.7078 36.9657 29.679 36.2451 29.424C33.667 28.512 32.4704 25.6181 33.6667 23.1882C34.2767 21.949 35.557 21.003 36.9583 20.7562C37.5439 20.653 38.4689 20.7388 39.1098 20.9556ZM63.5473 20.8835C65.1867 21.3404 66.4907 22.8274 66.7437 24.5282C67.1061 26.9645 65.3655 29.2771 62.9219 29.606C60.7511 29.8981 58.7211 28.6028 58.0392 26.4901C57.8009 25.7518 57.8031 24.5699 58.0441 23.8603C58.4949 22.5332 59.3641 21.5792 60.5926 21.063C61.5404 20.6647 62.5439 20.6038 63.5473 20.8835ZM32.5331 33.1418C30.7193 33.454 28.9373 34.3863 27.6346 35.7046C26.2401 37.1158 24.9669 39.6473 24.5034 41.9303C24.211 43.3709 24.1694 44.5831 24.1962 50.8755C24.2216 56.8324 24.2236 56.8974 24.3973 57.4102C24.9574 59.0634 26.3934 60.1226 28.0909 60.1348C28.4336 60.1372 28.8938 60.0812 29.1553 60.0052C29.4088 59.9315 29.6325 59.8875 29.6525 59.9075C29.6725 59.9275 29.6141 61.6061 29.5227 63.6378C29.3596 67.2633 29.136 72.2979 28.9543 76.4331C28.8061 79.8052 28.8777 80.3318 29.6399 81.4784C30.4402 82.6822 31.9111 83.4732 33.3393 83.4677C33.9326 83.4654 34.7794 83.2515 35.3964 82.9478C36.2356 82.5349 36.9088 81.8341 37.3683 80.895C37.5656 80.4918 37.7271 80.2256 37.7273 80.3034C37.7274 80.3812 37.8577 80.7033 38.0168 81.0193C38.8071 82.5886 40.6282 83.6001 42.3716 83.4381C43.3342 83.3486 44.3921 82.8885 45.0293 82.2821L45.2785 82.045L45.6605 82.4008C46.5198 83.201 47.8277 83.598 48.9464 83.3981C49.5996 83.2813 50.3312 82.9557 50.7332 82.6027C50.8893 82.4656 51.0522 82.3534 51.0952 82.3534C51.1382 82.3534 51.3127 82.4657 51.4831 82.6029C52.2789 83.2436 53.4225 83.5588 54.4263 83.4142C54.9685 83.3361 55.7018 83.0469 56.2252 82.7047C56.427 82.5728 56.4427 82.575 56.7033 82.7705C58.0115 83.752 59.6756 83.6734 61.1163 82.5622C61.1744 82.5174 61.3548 82.5982 61.6163 82.7861C62.637 83.5193 64.0119 83.6522 65.1342 83.126C65.7239 82.8497 66.4335 82.1189 66.7237 81.4893C67.0042 80.8807 66.89 81.7812 68.2579 69.3902L68.6817 65.5515L70.4377 65.5252L72.1938 65.4988L72.6188 65.2634C73.0843 65.0055 73.3516 64.7279 73.5966 64.2475C73.8991 63.6546 73.889 63.4049 73.4347 60.2276L73.376 59.8174L73.8552 59.5901C75.2438 58.931 76.3856 57.528 76.7316 56.0555C76.9623 55.074 76.9037 54.457 75.9378 47.6972C75.4328 44.1637 74.9526 41.0038 74.8707 40.6751C74.0574 37.414 71.6035 34.7278 68.4085 33.601C66.9438 33.0845 66.7375 33.0646 62.8301 33.0646C58.9843 33.0646 58.7794 33.0818 57.4172 33.5174C55.8458 34.0199 54.4011 34.9243 53.2311 36.1379C52.5781 36.8153 51.7415 37.9741 51.5208 38.5072L51.415 38.7625L50.6477 38.7634C50.2257 38.7639 49.7549 38.7844 49.6014 38.8088L49.3225 38.8534L48.8842 38.0326C47.5618 35.5559 45.6305 33.9962 43.0007 33.2809L42.23 33.0713L37.6877 33.0539C34.2163 33.0405 33.001 33.0613 32.5331 33.1418ZM42.3894 35.4405C44.3282 35.9899 45.7642 37.1066 46.7525 38.8338C47.0046 39.2742 47.2105 39.6625 47.2102 39.6966C47.2098 39.7308 47.0809 39.8463 46.9236 39.9534C46.4199 40.2966 45.5565 41.3096 45.2284 41.9424C44.6856 42.9893 44.5408 43.5881 44.5425 44.7792C44.5442 45.9414 44.6568 46.4615 45.112 47.409C45.8745 48.9959 47.2874 50.1689 49.0083 50.6438C49.8043 50.8634 51.1259 50.8823 51.9437 50.6858C52.709 50.502 53.6905 50.0217 54.3032 49.5314C55.2669 48.7603 55.8873 47.8684 56.3091 46.6476C56.5521 45.9444 56.5693 45.8241 56.5712 44.819C56.5734 43.6293 56.4386 43.025 55.9582 42.0725C55.5128 41.1891 54.6593 40.2308 53.8755 39.7337L53.5179 39.5069L53.6997 39.1869C54.4918 37.7924 56.0294 36.4639 57.5728 35.8405C58.8234 35.3354 59.0217 35.3119 62.352 35.2768C64.8382 35.2506 65.5746 35.2677 66.2345 35.3674C69.2377 35.8207 71.7617 38.0289 72.6202 40.954C72.7103 41.2608 73.2017 44.4345 73.7124 48.0067C74.7535 55.2899 74.7508 55.2532 74.3052 56.1359C73.9456 56.8484 73.0306 57.7014 73.0306 57.3242C73.0306 57.2434 72.9042 56.2932 72.4271 52.7881C72.1647 50.8603 71.5458 46.2927 71.396 45.1777C70.8434 41.0659 70.8795 41.2174 70.3765 40.9107C69.8547 40.5926 69.1159 40.7923 68.8398 41.3262C68.6763 41.6422 68.6755 41.8874 68.8344 43.0658C68.9499 43.9225 69.0651 44.7715 69.5693 48.4848C69.6795 49.2957 69.8375 50.4612 69.9206 51.0748C70.0037 51.6884 70.2564 53.5532 70.4822 55.2187C71.4517 62.3714 71.5637 63.2335 71.5277 63.2695C71.507 63.2903 68.935 63.3073 65.8125 63.3073H60.1351L60.1012 60.6178C60.0746 58.5003 60.0386 57.7889 59.9321 57.2734C59.5902 55.6194 58.842 54.2864 57.5905 53.1017C56.5002 52.0697 55.2453 51.4211 53.7434 51.1133C52.9817 50.9571 52.7272 50.9452 50.8367 50.9775C48.4463 51.0183 47.9519 51.1057 46.667 51.7144C44.5739 52.7059 43.0788 54.4861 42.419 56.7727C42.1688 57.6395 42.1106 58.7966 42.1119 62.869C42.1134 67.1246 42.1437 67.4897 42.5583 68.2514C42.8304 68.7515 43.4736 69.3643 44.0133 69.6378L44.4286 69.8483L44.4052 74.5269C44.3795 79.6482 44.3932 79.4952 43.8957 80.2131C43.4178 80.9027 42.3983 81.3298 41.6255 81.164C40.5136 80.9256 39.8667 80.176 39.7611 79.004C39.7355 78.7204 39.6075 76.3368 39.4767 73.707C38.744 58.9821 38.8005 59.9187 38.6279 59.6239C38.4047 59.2429 38.1009 59.0572 37.7009 59.0572C37.2547 59.0572 36.8676 59.2804 36.6876 59.6415C36.5435 59.931 36.5373 60.0227 36.1705 67.4114C36.1052 68.7263 36.0176 70.4476 35.9757 71.2366C35.934 72.0255 35.8435 73.8006 35.7749 75.1813C35.5781 79.1414 35.5405 79.5635 35.351 79.9347C34.9268 80.7664 34.2371 81.1943 33.3344 81.186C32.3741 81.1773 31.7106 80.73 31.2853 79.8046L31.0844 79.3676L31.2616 75.2622C31.4687 70.4631 31.6813 65.6015 31.9076 60.4828C32.042 57.4421 32.0695 55.6053 32.0693 49.6449C32.0692 42.9698 32.0595 42.449 31.9298 42.1949C31.5298 41.4103 30.5139 41.3606 30.019 42.1014L29.8381 42.3722V49.3587C29.8381 57.0825 29.8493 56.9022 29.3422 57.3835C28.9086 57.7951 28.6031 57.9095 28.0342 57.8732C27.4123 57.8337 26.9534 57.5435 26.6732 57.0129L26.4845 56.6554L26.5115 49.8407L26.5385 43.026L26.7463 42.1892C27.2522 40.1516 28.1392 38.4089 29.2374 37.2943C30.282 36.2342 31.6026 35.5607 33.0656 35.342C33.3286 35.3027 35.4264 35.2783 37.7275 35.2878C41.3901 35.3028 41.9708 35.3219 42.3894 35.4405ZM51.8662 40.9902C53.4991 41.557 54.5479 43.0427 54.5491 44.7909C54.5501 46.2978 53.7652 47.6288 52.4681 48.3202C49.5592 49.8706 46.1214 47.4783 46.578 44.2214C46.7723 42.8352 47.8472 41.4895 49.1267 41.0304C50.0032 40.7159 51.0324 40.7008 51.8662 40.9902ZM15.8317 49.9985C15.3109 50.3161 15.2553 50.5141 15.255 52.055C15.2548 53.0842 15.2831 53.4881 15.3667 53.6488C15.7866 54.456 16.8664 54.5289 17.3286 53.7812C17.4701 53.5522 17.486 53.3819 17.4857 52.1013C17.4855 50.82 17.4695 50.6501 17.327 50.4166C17.1225 50.081 16.7227 49.8401 16.3704 49.8401C16.217 49.8401 15.9745 49.9114 15.8317 49.9985ZM21.3828 50.0205C20.8988 50.3438 20.8333 50.5883 20.8333 52.0709C20.8333 53.1639 20.8568 53.4326 20.9727 53.6631C21.381 54.4759 22.5368 54.5137 22.9585 53.728C23.0797 53.5021 23.0975 53.2675 23.0864 52.0462C23.0753 50.8283 23.0527 50.5908 22.9268 50.3727C22.6303 49.859 21.8805 49.6879 21.3828 50.0205ZM77.4281 50.0013C77.2657 50.1003 77.1016 50.3027 77.0031 50.5255C76.8587 50.8518 76.8452 51.0237 76.869 52.2206C76.8983 53.6932 76.9431 53.8447 77.4378 54.1464C77.9373 54.451 78.6511 54.2779 78.9831 53.7719C79.104 53.5877 79.1311 53.3408 79.1534 52.2206C79.1773 51.0237 79.1637 50.8518 79.0194 50.5255C78.8261 50.0885 78.4607 49.8401 78.0112 49.8401C77.8315 49.8401 77.5771 49.9105 77.4281 50.0013ZM83.092 49.9707C82.5729 50.2265 82.5138 50.4407 82.5138 52.0644C82.5138 53.6903 82.553 53.847 83.0349 54.1449C83.4123 54.378 84.0148 54.3358 84.3197 54.0547C84.6908 53.7126 84.7451 53.4567 84.7449 52.0535C84.7449 50.9773 84.7211 50.7088 84.6055 50.4787C84.3207 49.9117 83.6608 49.6902 83.092 49.9707ZM53.6657 53.3735C53.9067 53.4433 54.4088 53.6503 54.7813 53.8336C55.3225 54.0998 55.5961 54.3046 56.142 54.8521C56.876 55.5884 57.2128 56.1072 57.5539 57.0272L57.7698 57.6094L57.7932 62.3208L57.8166 67.0322L57.5977 67.2924C57.355 67.5808 56.9749 67.7698 56.6367 67.7703C56.3547 67.7706 55.9474 68.0175 55.7619 68.3005C55.6276 68.5054 55.6155 68.9025 55.5783 74.3142L55.5384 80.1085L55.2958 80.454C54.5804 81.4726 53.1121 81.4333 52.4924 80.3789L52.2711 80.0025L52.2312 74.8191C52.1942 69.9963 52.1814 69.6203 52.0476 69.4162C51.5971 68.7291 50.634 68.7291 50.1835 69.4162C50.0498 69.6203 50.037 69.9963 49.9999 74.8191L49.9601 80.0025L49.7388 80.3789C49.119 81.4333 47.6507 81.4726 46.9353 80.454L46.6927 80.1085L46.6529 74.3142C46.6157 68.9025 46.6036 68.5054 46.4693 68.3005C46.2838 68.0175 45.8765 67.7706 45.5944 67.7703C45.2577 67.7698 44.8765 67.5812 44.6369 67.2966L44.4215 67.0406V62.5569C44.4215 58.3427 44.4311 58.0354 44.5804 57.4429C45.1276 55.2706 46.9467 53.6076 49.1537 53.2621C49.8789 53.1486 53.169 53.2299 53.6657 53.3735ZM66.3868 65.8773C66.3607 66.0636 65.9978 69.3359 65.5806 73.1491C65.1633 76.9623 64.7833 80.2211 64.7363 80.3908C64.5089 81.2112 63.5303 81.4561 62.8309 80.8676C62.3235 80.4405 62.352 80.917 62.352 72.8742V65.5387H64.3932H66.4343L66.3868 65.8773ZM60.0613 73.6074C60.0505 77.1685 60.0231 80.1623 60.0003 80.2601C59.9327 80.5506 59.5002 80.979 59.1327 81.1193C58.7125 81.2798 58.2214 81.1787 57.9105 80.8678C57.7446 80.7018 57.7192 80.6188 57.7594 80.3753C57.786 80.2141 57.8083 77.7788 57.8087 74.9635L57.8096 69.8447L58.2214 69.636C58.8053 69.3401 59.4388 68.7104 59.7213 68.145C59.8533 67.8809 59.9613 67.6018 59.9613 67.5247C59.9613 67.4037 60.036 67.1325 60.0694 67.1325C60.0757 67.1325 60.072 70.0461 60.0613 73.6074Z" fill="#F3012A"/>
</svg>
