<svg width="101" height="101" viewBox="0 0 101 101" fill="none" xmlns="http://www.w3.org/2000/svg">
<rect width="100" height="100" transform="translate(0.776611 0.967773)" fill=""/>
<path fill-rule="evenodd" clip-rule="evenodd" d="M32.1798 18.6153C31.2612 18.9953 30.7984 20.0184 30.7984 21.6689V22.6858H24.5414H18.2844V53.0768V83.4678H42.4185H66.5525V76.1544C66.5525 72.1321 66.5926 68.8411 66.6415 68.8411C66.6905 68.8411 67.1307 69.0971 67.6197 69.4099C68.1089 69.7228 68.5521 69.9787 68.6049 69.9787C68.8011 69.9787 72.4571 67.6425 73.6674 66.7438C76.3641 64.7412 78.8415 61.8159 80.4413 58.7449C81.5287 56.6577 82.0145 55.3975 82.544 53.2916C83.171 50.7973 83.3112 48.8934 83.2588 43.5821L83.2106 38.7192L75.9162 35.3528L68.6215 31.9866L67.7449 32.3742C67.2627 32.5876 66.7972 32.7619 66.7103 32.7619C66.6116 32.7619 66.5525 30.8764 66.5525 27.7258V22.6895L60.2549 22.6471L53.9573 22.6045L53.876 21.1175C53.8113 19.934 53.7285 19.5573 53.4701 19.2724C52.7163 18.4414 52.9671 18.4596 42.3859 18.4705C36.9513 18.4762 32.3585 18.5414 32.1798 18.6153ZM51.8011 24.7579L51.8445 28.9427L56.0294 28.9861L60.2143 29.0295V33.4148C60.2143 35.8267 60.2562 37.8 60.3075 37.8C60.3589 37.8 62.1939 37.0321 64.3851 36.0936C66.5765 35.155 68.466 34.3871 68.5838 34.3871C68.7016 34.3871 71.5655 35.6624 74.948 37.221L81.0979 40.0548L81.0977 45.1438C81.0976 49.4433 81.0518 50.4471 80.8026 51.6141C79.8824 55.9238 77.96 59.6326 75.0873 62.6397C73.5182 64.2824 72.3443 65.2311 70.2473 66.5509C68.4106 67.707 68.8472 67.7707 66.0649 65.9422C61.9228 63.2201 58.6749 58.999 57.1383 54.3407C56.2624 51.6856 56.1248 50.5438 56.0349 45.1886L55.9504 40.1445L57.2575 39.5312L58.5648 38.9177L58.1748 38.0758C57.9603 37.6128 57.7162 37.2111 57.6325 37.1833C57.5488 37.1553 56.6876 37.4951 55.7187 37.9383L53.9573 38.7443L53.9735 44.2447C53.9869 48.6925 54.0442 50.0562 54.2735 51.3703C55 55.5337 56.9237 59.7451 59.5434 62.9062L60.2143 63.7157V70.4227V77.1295H42.4185H24.6227V53.0778V29.026L37.1772 28.9844L49.7318 28.9427L49.7801 27.9285L49.8285 26.9142L41.4103 26.8721L32.9924 26.83L32.9482 23.7015L32.9041 20.573H42.331H51.7578L51.8011 24.7579ZM37.1694 23.7015L37.2179 24.7173L38.2336 24.7657L39.2493 24.814V23.7499V22.6858H38.1852H37.1212L37.1694 23.7015ZM45.5876 23.7499V24.814L46.6033 24.7657L47.6191 24.7173L47.6675 23.7015L47.7157 22.6858H46.6517H45.5876V23.7499ZM30.7984 25.8549V26.9113H26.6541H22.5099V53.0768V79.2423H42.4185H62.327V72.579C62.327 68.9142 62.3634 65.9158 62.4081 65.9158C62.4526 65.9158 62.928 66.2566 63.4645 66.6731L64.4397 67.4306V74.3927V81.355H42.4185H20.3972V53.0768V24.7985H25.5978H30.7984V25.8549ZM64.4397 29.2779V33.757L63.424 34.2183L62.4083 34.6795L62.3647 30.7981L62.3213 26.9168L58.1392 26.8734L53.9573 26.83L53.9088 25.8143L53.8606 24.7985H59.1501H64.4397V29.2779ZM41.3052 33.2542C39.399 33.5818 37.6207 34.9737 36.7436 36.8244L36.2427 37.8813V41.0504C36.2427 44.1347 36.2543 44.2439 36.671 45.1329C36.9066 45.6352 37.3714 46.3475 37.7043 46.7158C38.2459 47.3155 38.2776 47.3967 38.0072 47.4934C34.3006 48.819 31.231 51.7295 29.8179 55.2581C29.0992 57.053 28.8542 58.4053 28.8509 60.5933L28.8481 62.5029H42.4389H56.0297L55.9447 60.187C55.8522 57.6699 55.5903 56.4965 54.6917 54.5762C53.1956 51.3793 50.2678 48.7437 46.8212 47.4917C46.5273 47.3849 46.5321 47.356 46.917 46.9368C48.3382 45.3892 48.6754 44.2466 48.6754 40.98C48.6754 38.9113 48.6208 38.3422 48.3452 37.5413C47.2901 34.4742 44.4104 32.7208 41.3052 33.2542ZM44.2062 35.6746C45.029 36.036 45.9477 37.0492 46.3077 37.992C46.7197 39.0706 46.6228 43.4471 46.1666 44.3663C44.6359 47.4515 40.3145 47.519 38.7281 44.4825C38.2867 43.6374 38.2742 43.5426 38.2742 41.0267C38.2742 38.1215 38.3646 37.753 39.3433 36.6699C40.6197 35.2569 42.4176 34.889 44.2062 35.6746ZM65.5232 42.6215C65.4636 42.6809 65.4148 43.4123 65.4148 44.2466V45.7634H63.8709H62.327V48.8513V51.9391H63.8651H65.4031L65.4496 53.5237L65.4961 55.1083L68.6187 55.1523L71.7412 55.1965L71.7879 53.6084L71.8343 52.0204L73.3376 51.9736L74.8409 51.927V48.8451V45.7634H73.297H71.7531V44.1382V42.5131H68.6924C67.0088 42.5131 65.5827 42.5618 65.5232 42.6215ZM77.0621 42.6215C77.0024 42.6809 76.9537 43.1563 76.9537 43.6778V44.6258H78.01H79.0664V43.5694V42.5131H78.1185C77.5969 42.5131 77.1216 42.5618 77.0621 42.6215ZM69.6751 46.2104L69.7216 47.7949L71.2249 47.8417L72.7282 47.8884V48.9387V49.9889H71.1843H69.6403V51.5328V53.0768H68.584H67.5276V51.5328V49.9889H65.9837H64.4397V48.9326V47.8762H65.9837H67.5276V46.3594C67.5276 45.525 67.5763 44.7937 67.636 44.7342C67.6955 44.6746 68.1682 44.6258 68.6864 44.6258H69.6286L69.6751 46.2104ZM76.9057 48.5669C76.7392 51.7285 75.7514 54.6725 73.939 57.4097C72.884 59.0029 70.8529 61.1114 69.4456 62.0741L68.5282 62.7019L69.0159 63.4947C69.2843 63.9307 69.5579 64.3208 69.6241 64.3617C69.8462 64.4991 72.5148 62.3605 73.6858 61.1067C77.0265 57.5295 79.0664 52.5089 79.0664 47.8645V46.7385H78.0343H77.0019L76.9057 48.5669ZM44.5637 49.1069C46.3256 49.4708 47.3824 49.9033 48.756 50.822C50.3117 51.8624 51.6706 53.3602 52.5375 54.9903C53.3059 56.4347 53.876 58.3998 53.876 59.6035V60.3901H42.4456C36.1587 60.3901 30.9801 60.3552 30.9373 60.3124C30.76 60.1351 31.151 57.7048 31.5325 56.613C32.1343 54.8906 32.8326 53.8071 34.2925 52.3311C37.1038 49.489 40.7985 48.3293 44.5637 49.1069ZM28.8481 65.672V66.7283H42.4185H55.9888V65.672V64.6156H42.4185H28.8481V65.672ZM28.8481 69.8994V70.9577L35.0645 70.9152L41.2808 70.8726L41.3293 69.8568L41.3775 68.8411H35.1129H28.8481V69.8994ZM43.4748 69.8975V70.9538H49.7318H55.9888V69.8975V68.8411H49.7318H43.4748V69.8975ZM28.8481 73.9604V75.0168H40.3057H51.7633V73.9604V72.9041H40.3057H28.8481V73.9604ZM53.9844 73.0125C53.9248 73.0719 53.876 73.5473 53.876 74.0688V75.0168H54.9324H55.9888V73.9604V72.9041H55.0408C54.5193 72.9041 54.0439 72.9528 53.9844 73.0125Z" fill="#F3012A"/>
</svg>
