<svg width="101" height="101" viewBox="0 0 101 101" fill="none" xmlns="http://www.w3.org/2000/svg">
<rect width="100" height="100" transform="translate(0.553284 0.967773)" fill=""/>
<path fill-rule="evenodd" clip-rule="evenodd" d="M48.6625 18.4985C46.4369 18.6346 43.6665 19.1728 41.3784 19.9137C33.3058 22.5274 26.6838 28.5718 23.2572 36.4541C22.1044 39.1057 21.3515 42.0891 21.0189 45.3221C20.8907 46.5678 20.9105 50.0141 21.0531 51.2795C21.6017 56.1509 23.1814 60.5208 25.8302 64.4945C28.1607 67.9905 31.5434 71.2408 35.1788 73.477C36.0181 73.9933 35.976 74.0521 35.7213 72.7186C35.4722 71.4143 35.4482 71.3738 34.5207 70.688C33.106 69.6419 31.6711 68.4212 30.7295 67.4626L30.3104 67.036L30.829 66.8646C31.1143 66.7704 31.9746 66.5259 32.7408 66.3211C33.507 66.1165 34.1897 65.9321 34.2578 65.9114C34.3667 65.8783 34.3766 65.8283 34.339 65.4992C34.3155 65.2932 34.2434 64.9008 34.1788 64.6272L34.0612 64.1296L33.7327 64.1455C33.2023 64.1711 31.731 64.5477 29.9259 65.1198C29.3993 65.2867 28.9629 65.4232 28.9562 65.4232C28.9496 65.4232 28.7656 65.2068 28.5475 64.9423C27.0459 63.1211 25.1869 59.666 24.3445 57.1307C23.5799 54.8296 22.9841 51.8795 22.8538 49.7504L22.8102 49.0372L25.6195 49.0373C27.1645 49.0375 29.0772 49.0571 29.8697 49.081L31.3106 49.1246L31.4455 49.5286C31.6161 50.04 31.864 50.4133 32.3903 50.9516C32.9165 51.4898 33.4616 51.8472 34.0399 52.0335L34.4923 52.1792L34.5281 52.5155C34.7244 54.3536 34.7932 54.9326 34.9347 55.9366C35.1467 57.4398 35.4864 59.2179 35.5883 59.3572C35.6588 59.4537 35.7381 59.4055 36.2657 58.9454C36.5944 58.6589 36.9469 58.3542 37.0491 58.2684C37.2592 58.0922 37.2606 58.1598 37.0197 56.8009C36.8538 55.8653 36.5769 53.7262 36.5165 52.9133C36.4864 52.5079 36.4965 52.2652 36.5475 52.1699C36.5891 52.0921 36.8692 51.902 37.1697 51.7474C38.2139 51.2105 38.9745 50.2299 39.246 49.0704C39.3786 48.504 39.3456 47.3228 39.1826 46.8049C38.9148 45.9536 37.9812 44.9268 37.0273 44.434C36.6948 44.2623 36.4227 44.0975 36.4227 44.0678C36.4227 43.8067 36.6607 41.7444 36.7946 40.8442C37.1162 38.6831 37.7939 35.6231 38.3424 33.855L38.5555 33.1683L39.2305 33.2145C39.6018 33.2399 40.6817 33.3323 41.6304 33.4199C42.5791 33.5074 44.0642 33.6445 44.9307 33.7245L46.5061 33.8701L46.6392 34.2256C46.9452 35.0435 47.4719 35.7367 48.2037 36.2847C48.7738 36.7116 49.2374 36.8906 49.9727 36.9677C51.4037 37.1176 52.3359 36.8223 53.2808 35.9195C53.8891 35.3383 54.2109 34.8797 54.4181 34.2981L54.5677 33.8785L57.1214 33.6357C60.9731 33.2695 62.4326 33.1599 62.5041 33.2314C62.6051 33.3324 63.2523 35.6377 63.5428 36.9314C64.0574 39.2232 64.4877 41.9142 64.5886 43.4732L64.6343 44.1784L64.178 44.4306C63.5599 44.7723 63.0286 45.1364 62.8146 45.3649C62.5644 45.6322 62.1352 46.4584 61.9347 47.0587C61.5707 48.1487 61.8481 49.5722 62.6252 50.6014C62.9156 50.9861 63.5665 51.5042 64.0341 51.7229C64.5425 51.9607 64.551 51.9749 64.5504 52.5779C64.5494 53.3846 64.2346 55.8946 63.9501 57.3629C63.8795 57.7278 63.8215 58.0585 63.8214 58.0979C63.8213 58.1374 63.9517 58.2634 64.1112 58.3779C64.2707 58.4925 64.6329 58.7831 64.9162 59.0238C65.2323 59.2924 65.4548 59.4377 65.4926 59.3999C65.607 59.2856 66.0871 56.4231 66.3406 54.3444C66.5233 52.8459 66.6114 52.274 66.6791 52.1463C66.7107 52.0867 66.8363 52.0193 66.9581 51.9964C67.2083 51.9495 67.9886 51.4865 68.4371 51.1191C68.7741 50.8429 69.4383 49.8882 69.6127 49.4292L69.7284 49.1246L71.2694 49.081C72.1169 49.0571 74.0412 49.0375 75.5456 49.0373L78.2809 49.0372L78.2502 49.3191C78.2334 49.4742 78.1873 49.9593 78.1478 50.3972C77.9257 52.8618 77.3095 55.6369 76.5053 57.7941C75.6023 60.2165 73.6794 63.6194 72.2995 65.2373L72.1469 65.4161L71.0523 65.0852C70.4503 64.9031 69.3194 64.5888 68.5393 64.3867C67.3179 64.0702 67.1078 64.0321 67.0272 64.1127C66.9023 64.2375 66.6634 65.4063 66.7138 65.6455C66.767 65.898 67.0306 66.0088 68.3893 66.3499C69.6869 66.6758 70.7206 66.9995 70.7206 67.08C70.7206 67.1661 69.2115 68.5703 68.3323 69.3023C67.9127 69.6516 67.1171 70.2726 66.5641 70.6822L65.5589 71.427L65.3897 72.3226C65.2967 72.8152 65.2 73.3779 65.1749 73.5731L65.1292 73.9279L65.3542 73.8132C66.0118 73.4777 68.4894 71.7151 69.6369 70.7665C70.52 70.0364 72.2837 68.2858 73.0854 67.3437C74.6684 65.4835 75.8693 63.6786 76.9894 61.476C78.6686 58.1742 79.6274 54.9397 80.0535 51.1389C80.2139 49.7082 80.2127 46.458 80.0513 45.09C79.3954 39.5341 77.5638 34.8356 74.3486 30.4619C73.496 29.3021 72.6334 28.3154 71.3902 27.0781C69.0297 24.7286 67.0084 23.2682 64.0034 21.741C60.1292 19.7721 56.7152 18.8298 52.3443 18.5231C51.4677 18.4616 49.483 18.4484 48.6625 18.4985ZM51.9297 20.6112C54.7652 21.1491 57.5962 23.5487 59.8336 27.3108C60.7895 28.9181 61.7797 31.0042 61.6488 31.135C61.4947 31.2892 59.2411 31.5545 56.3911 31.754C54.3259 31.8987 54.5967 31.9669 54.2254 31.2087C53.4471 29.6192 51.9775 28.776 50.1883 28.8923C49.4538 28.94 48.9571 29.1057 48.3616 29.5015C47.7259 29.9241 47.2292 30.498 46.8538 31.243L46.5396 31.867L45.7435 31.8239C43.8606 31.7219 40.0768 31.3666 39.6494 31.2515C39.4105 31.1872 39.3959 31.1693 39.4327 30.985C39.5201 30.548 40.2471 29.045 41.0387 27.6645C43.328 23.6723 46.3514 21.0749 49.2873 20.5779C49.833 20.4856 51.3695 20.5049 51.9297 20.6112ZM43.3884 21.4267C43.3884 21.4561 43.0545 21.8367 42.6464 22.2726C40.6133 24.4437 39.1405 26.7371 37.813 29.7985C37.5836 30.3276 37.3708 30.7936 37.34 30.8341C37.279 30.9147 37.2409 30.9107 36.2237 30.7176C35.3587 30.5534 31.7396 29.6617 30.9994 29.4304C30.695 29.3353 30.4521 29.2224 30.4521 29.176C30.4521 29.0387 30.8944 28.5638 31.7417 27.7915C34.8169 24.9882 38.1159 23.0572 42.0948 21.7314C43.1479 21.3806 43.3884 21.3239 43.3884 21.4267ZM59.1007 21.7654C62.5038 22.9044 65.6641 24.6537 68.2444 26.8268C69.3629 27.7687 70.6543 29.0372 70.6543 29.194C70.6543 29.3633 65.0166 30.7852 64.0016 30.8718L63.7509 30.8931L63.2994 29.8649C61.8697 26.6086 60.4317 24.374 58.3459 22.1671C57.7749 21.5629 57.659 21.3733 57.8607 21.3733C57.8985 21.3733 58.4565 21.5497 59.1007 21.7654ZM30.3426 31.256C31.9179 31.7226 33.3158 32.0754 35.0959 32.4555C36.5152 32.7586 36.6453 32.8033 36.5929 32.9703C35.6749 35.894 34.9316 39.5538 34.5974 42.7954C34.5394 43.3577 34.4633 43.8714 34.4282 43.937C34.3931 44.0024 34.1083 44.1761 33.7952 44.3229C33.0663 44.6644 32.4421 45.1109 32.1393 45.5072C32.0079 45.6791 31.7484 46.1257 31.5624 46.4997L31.2243 47.1797H27.0236H22.8229L22.824 47.0304C22.8322 45.8555 23.2408 43.1572 23.6952 41.2754C24.4822 38.0163 26.4069 34.0381 28.5638 31.212C28.7084 31.0226 28.8671 30.8658 28.9163 30.8638C28.9656 30.8617 29.6074 31.0382 30.3426 31.256ZM72.3589 31.0756C72.6967 31.431 73.6003 32.717 74.1019 33.5562C74.6544 34.4804 75.8271 36.7797 76.2288 37.7262C76.8378 39.1609 77.5164 41.5577 77.8446 43.4328C77.9843 44.2308 78.0508 44.7974 78.2472 46.8646L78.2771 47.1797H74.0083H69.7396L69.5615 46.7319C69.3049 46.0865 69.0543 45.7263 68.487 45.1875C68.0077 44.7322 67.79 44.6025 66.7568 44.1568C66.5554 44.07 66.5412 44.0423 66.5412 43.7381C66.5412 43.3985 66.3984 41.9577 66.2742 41.0432C66.0031 39.0481 65.5372 36.7854 64.9122 34.4285C64.6783 33.547 64.4981 32.8146 64.5115 32.8012C64.525 32.7877 65.1898 32.6315 65.9889 32.454C67.9448 32.0196 69.8928 31.5191 71.0191 31.1616C71.5299 30.9996 71.9943 30.8653 72.051 30.8634C72.1076 30.8615 72.2462 30.957 72.3589 31.0756ZM48.8283 40.0924C48.2753 40.1708 46.9956 40.5976 46.3657 40.9138C43.7299 42.2369 41.9328 44.574 41.2897 47.5149C41.1161 48.3088 41.1143 50.4203 41.2865 51.2264C41.753 53.4101 42.8965 55.3148 44.5329 56.6338C46.8394 58.4929 49.9142 59.2354 52.6429 58.5923C55.8486 57.8368 58.5089 55.3739 59.5733 52.1761C59.8685 51.2892 59.9266 50.6999 59.8919 48.9463C59.862 47.4301 59.859 47.404 59.6443 46.7485C59.1083 45.1121 58.3652 43.9011 57.1593 42.699C55.686 41.2305 54.0797 40.3941 52.2032 40.1185C51.426 40.0043 49.5521 39.9898 48.8283 40.0924ZM40.8343 58.7936C39.4958 58.8724 38.8264 59.0767 37.9104 59.6862C37.016 60.2813 36.3215 61.168 35.946 62.1942C35.5667 63.2304 35.5987 63.6165 36.4297 68.0392C37.103 71.6227 38.4672 78.6543 38.5863 79.1557C38.7462 79.8284 39.3334 80.9677 39.8502 81.608C40.3993 82.2881 40.9757 82.7638 41.7379 83.1661L42.3099 83.4678L49.8314 83.4657C53.9683 83.4647 57.7239 83.4368 58.1771 83.4038C58.9227 83.3497 59.046 83.3218 59.4707 83.1113C60.5945 82.5543 61.6852 81.2953 62.2274 79.929C62.4998 79.2427 63.2815 75.4884 64.4188 69.4036C65.1984 65.2332 65.4284 63.7761 65.3878 63.2672C65.2926 62.0764 64.6178 60.8251 63.6278 60.0038C63.0879 59.5559 62.1386 59.0839 61.5173 58.9544C61.038 58.8544 59.1248 58.7255 58.1159 58.7253L57.5521 58.7251L56.0353 61.7259C51.8184 70.0685 50.5897 72.4566 50.5248 72.4361C50.4856 72.4238 48.9073 69.3333 47.0172 65.5683L43.5807 58.7229L42.6387 58.7328C42.1207 58.7383 41.3087 58.7657 40.8343 58.7936ZM49.5841 61.1312C48.1432 63.0088 47.5679 63.8035 47.5679 63.916C47.5679 64.1157 48.9955 67.1312 49.9396 68.9261C50.403 69.8067 50.5242 69.9914 50.5931 69.9212C50.6396 69.8737 51.3484 68.509 52.1684 66.8886L53.6591 63.9424L52.9222 62.9745C51.7706 61.4622 50.6225 59.993 50.5639 59.9568C50.5346 59.9387 50.0937 60.4672 49.5841 61.1312Z" fill="#F3012A"/>
<circle cx="50.4283" cy="49.3428" r="7.75" fill="white"/>
<path d="M37.6 64.1639C37.4068 63.105 37.9743 62.0539 38.9656 61.6345C40.0489 61.1762 42.4841 60.6051 43.0533 61.6345C44.4309 64.1255 50.1727 75.9913 50.1727 75.9913C50.1727 75.9913 56.7075 64.534 58.1353 61.6344C58.5533 60.7856 60.6327 60.9521 61.5619 61.1308C62.6876 61.3473 63.4319 62.4265 63.2342 63.5557L60.7915 77.5072C60.3273 80.1586 58.0249 82.0929 55.3332 82.0929H45.4929C42.8162 82.0929 40.5221 80.1795 40.0417 77.5462L37.6 64.1639Z" fill="white"/>
</svg>
