<svg width="101" height="101" viewBox="0 0 101 101" fill="none" xmlns="http://www.w3.org/2000/svg">
<rect width="100" height="100" transform="translate(0.329956 0.0825195)" fill=""/>
<path fill-rule="evenodd" clip-rule="evenodd" d="M49.0331 17.7723C47.9657 18.0592 47.3823 18.4585 45.5468 20.1588L43.874 21.7082L38.2948 21.7485C32.8412 21.7878 32.7037 21.7951 32.1834 22.0735C31.8906 22.2302 31.4691 22.5657 31.2465 22.8192C30.4931 23.6774 30.4408 24.1071 30.4407 29.4495L30.4405 34.2682L25.505 38.8659C21.6999 42.4106 20.5016 43.6015 20.2729 44.0657L19.9763 44.6677V61.372C19.9763 74.9684 20.0089 78.2033 20.1516 78.7586C20.5328 80.2409 21.7625 81.5949 23.2712 82.1933C23.9378 82.4577 24.2744 82.4893 26.8936 82.5336L29.7811 82.5825L30.111 82.2527C30.6571 81.7066 30.5001 81.0079 29.7742 80.7548C29.5288 80.6693 28.3314 80.61 26.8141 80.6083C24.6278 80.6058 24.1918 80.5718 23.7432 80.3679C23.0757 80.0647 22.4077 79.3966 22.1044 78.7291C21.8785 78.2317 21.8668 77.4076 21.864 61.7859L21.8612 45.3654L23.7259 47.0965C24.7515 48.0486 27.248 50.3777 29.2736 52.2724C31.2992 54.167 33.9304 56.6239 35.1207 57.7321C36.3111 58.8403 38.9114 61.268 40.899 63.1269C47.0345 68.8651 47.2171 69.0255 48.1173 69.4704C48.9035 69.8589 49.0504 69.8866 50.3272 69.8866C52.6104 69.8866 52.2084 70.1818 60.5995 62.346C64.5676 58.6407 69.1011 54.4079 70.6741 52.9402C72.247 51.4724 74.6644 49.2154 76.046 47.9246C77.4277 46.6337 78.6122 45.5582 78.6783 45.5344C78.7518 45.5079 78.7976 51.8725 78.7959 61.8487C78.7931 77.4095 78.7814 78.2317 78.5555 78.7291C78.2832 79.3286 77.6566 79.9973 77.0625 80.3224C76.6819 80.5308 75.1524 80.5506 54.7708 80.6112L32.8877 80.6761L32.6393 80.9831C32.2798 81.4269 32.3196 81.9662 32.7356 82.2935L33.0805 82.5647L54.8671 82.5304L76.6538 82.4961L77.3887 82.199C78.9057 81.5856 80.1279 80.2377 80.5083 78.7586C80.651 78.2033 80.6836 74.9684 80.6836 61.372V44.6677L80.3844 44.0601C80.1525 43.5894 78.982 42.4245 75.1846 38.8846L70.2841 34.3168L70.2191 31.9732C70.1562 29.7047 70.1443 29.6219 69.8472 29.3815C69.451 29.0611 68.9867 29.0658 68.6592 29.3934C68.4031 29.6495 68.3992 29.8266 68.3992 41.0767V52.5001L64.7307 55.9286C61.1819 59.2453 56.9941 63.1573 53.7814 66.1571C52.0004 67.8201 51.4558 68.1317 50.3299 68.1317C49.2008 68.1317 48.6496 67.8154 46.8682 66.1452C46.0127 65.3432 43.997 63.4584 42.3891 61.957C40.7812 60.4555 37.8445 57.7121 35.8631 55.8605L32.2607 52.494V38.6646C32.2607 23.8624 32.2481 24.1582 32.8912 23.814C33.2614 23.6159 67.3985 23.6159 67.7687 23.814C68.1682 24.0278 68.3992 24.7368 68.3992 25.7494C68.3992 26.4902 68.4484 26.7128 68.6592 26.9235C68.986 27.2503 69.451 27.2559 69.8439 26.9376C70.103 26.7278 70.1549 26.5484 70.1969 25.7173C70.2854 23.9647 69.7021 22.7293 68.4765 22.0735C67.9561 21.7951 67.8187 21.7878 62.3651 21.7485L56.7859 21.7082L55.1131 20.1588C53.2482 18.4312 52.6974 18.0592 51.5701 17.7656C50.625 17.5196 49.9671 17.5212 49.0331 17.7723ZM51.7124 19.7636C52.008 19.8978 52.6515 20.3918 53.1424 20.8613L54.0348 21.715H50.3299H46.6251L47.5175 20.8613C48.0084 20.3918 48.6519 19.8978 48.9475 19.7636C49.6681 19.4363 50.9918 19.4363 51.7124 19.7636ZM48.315 25.9962C45.3401 26.8509 43.1832 29.618 43.1335 32.6432C43.1184 33.5567 43.1649 33.8411 43.402 34.2843C43.9509 35.3103 44.9497 35.9117 46.1051 35.9117C47.7247 35.9117 48.9251 34.8027 49.1241 33.1224C49.2762 31.8374 50.3175 31.3109 51.1199 32.1132C51.8454 32.8387 51.5787 33.5481 50.3302 34.2136C49.322 34.7508 48.3404 35.8026 47.8231 36.8994C47.4233 37.7473 47.4072 37.8481 47.3601 39.7811C47.3038 42.0946 47.4003 42.5604 48.0952 43.3311C49.2524 44.6148 51.1535 44.6999 52.3932 43.5236C53.1108 42.8428 53.3137 42.2473 53.317 40.8127L53.3198 39.5576L53.9373 39.1962C56.6088 37.6327 58.0316 34.4989 57.4144 31.5383C56.854 28.8509 54.7763 26.6211 52.2094 25.9525C51.1969 25.6888 49.3112 25.71 48.315 25.9962ZM52.6138 28.0881C53.7506 28.6478 54.5871 29.4861 55.1501 30.6299C55.5713 31.4851 55.5947 31.6054 55.5947 32.9072C55.5947 34.2345 55.578 34.3156 55.1052 35.2721C54.568 36.359 53.7198 37.2362 52.754 37.7038C51.6727 38.2273 51.5736 38.4288 51.4999 40.255C51.4414 41.7068 51.4059 41.8956 51.1418 42.1592C50.6942 42.606 49.8804 42.5658 49.4592 42.0761C49.1432 41.7089 49.1371 41.6609 49.1842 39.9342C49.228 38.3259 49.2631 38.1088 49.5778 37.5063C49.9661 36.7625 50.6713 36.0844 51.3522 35.8C52.1106 35.4831 52.6396 34.9973 52.9885 34.297C54.456 31.3521 50.8705 28.5268 48.3756 30.6622C47.7134 31.229 47.4737 31.6963 47.3338 32.6931C47.202 33.6314 46.8122 34.0732 46.1157 34.0732C45.428 34.0732 45.0002 33.5519 45.0002 32.7141C45.0002 31.1436 45.9265 29.4645 47.3121 28.5234C48.442 27.7561 49.1038 27.5693 50.5382 27.6128C51.5795 27.6444 51.8284 27.7015 52.6138 28.0881ZM30.4408 43.8454V50.7578L30.1483 50.4978C29.9875 50.3548 28.6048 49.0723 27.0756 47.6478C25.5465 46.2232 23.9963 44.7843 23.6308 44.4501L22.9661 43.8425L23.3561 43.4459C24.2431 42.544 30.2535 36.9485 30.3433 36.9411C30.3969 36.9367 30.4408 40.0435 30.4408 43.8454ZM74.0375 40.3558C76.0127 42.2026 77.6288 43.7551 77.6288 43.8061C77.6288 43.8959 71.1203 50.018 70.5185 50.4944L70.2191 50.7313V43.8213C70.2191 39.9319 70.2687 36.9303 70.3327 36.9548C70.3952 36.9785 72.0624 38.5091 74.0375 40.3558ZM49.5267 46.864C47.4549 47.4218 46.645 50.0145 48.021 51.6839C48.6071 52.395 49.3281 52.7177 50.3299 52.7177C50.9472 52.7177 51.3204 52.6412 51.7148 52.4338C54.1786 51.1383 53.6809 47.4041 50.9669 46.822C50.2062 46.6588 50.2985 46.6561 49.5267 46.864ZM51.1067 48.8893C51.7137 49.4963 51.5791 50.3677 50.8148 50.7774L50.3299 51.0374L49.8451 50.7774C48.7257 50.1773 49.075 48.6325 50.3299 48.6325C50.6743 48.6325 50.9366 48.7192 51.1067 48.8893ZM64.0104 72.4651C62.9454 72.8513 62.0335 74.1118 62.0307 75.2013C62.0278 76.3662 62.7083 77.4826 63.7658 78.0482C64.2947 78.3311 64.3929 78.3363 69.2441 78.3363C73.8337 78.3363 74.2191 78.3187 74.6805 78.0896C76.1906 77.3396 76.8825 75.5117 76.2137 74.0392C75.9225 73.3982 75.0177 72.5967 74.3874 72.4218C73.7022 72.2313 64.5494 72.2695 64.0104 72.4651ZM74.2589 74.4914C74.5183 74.7507 74.6389 75.0016 74.6389 75.2814C74.6389 75.5611 74.5183 75.812 74.2589 76.0714L73.879 76.4513H69.2717C64.8519 76.4513 64.6509 76.4407 64.3319 76.1898C64.149 76.0459 63.9618 75.7577 63.9161 75.5493C63.8136 75.0824 64.1364 74.405 64.5386 74.243C64.6958 74.1797 66.8616 74.1242 69.3516 74.1196L73.879 74.1114L74.2589 74.4914Z" fill="#F3012A"/>
</svg>
