<svg width="100" height="101" viewBox="0 0 100 101" fill="none" xmlns="http://www.w3.org/2000/svg">
<rect width="100" height="100" transform="translate(0 0.19751)" fill=""/>
<path fill-rule="evenodd" clip-rule="evenodd" d="M48.8915 17.8371C48.0579 18.0616 47.5716 18.3525 46.8899 19.0342C46.1565 19.7676 45.7959 20.4822 45.6445 21.502C45.4784 22.6206 45.8148 23.9033 46.5058 24.787C46.6599 24.9841 46.6983 25.2115 46.6983 25.9278V26.8225L37.2808 28.3911C26.6295 30.1652 27.31 29.9909 26.7537 31.0879C26.3949 31.7954 26.3842 32.4025 26.7178 33.1191C27.0075 33.7411 27.4604 34.1152 28.1728 34.321L28.6889 34.47L28.7173 36.0257L28.7457 37.5812L28.3355 38.4571C28.1098 38.9389 27.8594 39.4879 27.7791 39.6774C27.6987 39.8668 26.187 43.1923 24.4197 47.0674C22.6524 50.9426 21.2064 54.1328 21.2064 54.1568C21.2064 54.181 21.025 54.5865 20.8032 55.0581C20.5815 55.5297 19.7455 57.3529 18.9455 59.1098C17.4068 62.4888 17.3823 62.5713 17.6055 63.6119C18.2765 66.741 21.7224 69.2315 26.5495 70.0759C27.9992 70.3296 31.491 70.3281 33.0042 70.0731C37.7089 69.2806 41.1675 66.8207 41.9023 63.7443C42.1884 62.5466 42.2134 62.6272 40.139 58.064C39.0858 55.7471 38.1269 53.6424 38.0081 53.387C37.8893 53.1316 37.5964 52.4814 37.3573 51.9421C37.1182 51.4029 36.8025 50.7062 36.6557 50.394C36.509 50.0818 35.1325 47.0645 33.5968 43.6889L30.8046 37.5515V35.9743V34.3971H38.7514H46.6983V45.8411V57.2851L46.445 57.451C46.3058 57.5423 46.062 57.8379 45.9032 58.1079L45.6146 58.5989L45.5865 66.6529L45.5582 74.7069L43.2643 75.4143C39.5681 76.5541 38.7212 76.8309 38.3386 77.0241C37.7837 77.3044 37.2027 77.9278 36.9052 78.5624C36.654 79.098 36.6357 79.2371 36.6357 80.6157V82.0946L36.9728 82.396L37.3099 82.6975H50.0009H62.6919L63.029 82.3966L63.3661 82.0957L63.4005 80.8527C63.4265 79.912 63.3926 79.4645 63.2612 79.0121C62.9143 77.8178 62.0733 77.0413 60.6953 76.6429C60.4046 76.5589 59.4236 76.2566 58.5154 75.9713C57.6072 75.6859 56.4229 75.3146 55.8836 75.146C55.3444 74.9775 54.7987 74.7974 54.671 74.7457L54.4388 74.6519V66.8517C54.4388 61.3993 54.4037 58.9122 54.3222 58.5888C54.2443 58.2794 54.0562 57.9721 53.7546 57.6619L53.3035 57.1977V45.7974V34.3971H61.2504H69.1972V35.9745V37.5518L66.1501 44.2568C64.4742 47.9444 63.0375 51.101 62.9574 51.2713C62.8773 51.4416 62.696 51.8363 62.5545 52.1485C62.413 52.4607 61.3186 54.8691 60.1225 57.5005C57.7652 62.6865 57.7854 62.6243 58.0878 63.7597C58.7793 66.3561 61.1086 68.3772 64.7594 69.5488C67.8444 70.5387 72.3796 70.552 75.596 69.5806C79.2334 68.4822 81.8601 66.1817 82.3961 63.6251C82.6212 62.5514 82.6156 62.5333 80.7506 58.4386C78.8419 54.2477 78.831 54.2237 78.4547 53.387C78.3143 53.0748 76.65 49.429 74.7562 45.2853L71.313 37.7513L71.2804 36.0935L71.2479 34.4356L71.7903 34.3104C72.5065 34.145 72.9832 33.7648 73.284 33.1191C73.5872 32.4678 73.5986 31.8191 73.3175 31.1995C73.0518 30.6138 72.8579 30.4011 72.3555 30.1448C71.9706 29.9483 71.0446 29.7841 63.4177 28.5591C62.1973 28.3631 59.4224 27.9152 57.2511 27.5638L53.3035 26.9248V25.979C53.3035 25.2128 53.34 24.9864 53.496 24.787C54.4826 23.5254 54.6709 21.6345 53.9549 20.1776C53.6138 19.4835 52.6997 18.5176 52.0893 18.2061C51.0934 17.698 49.9136 17.5619 48.8915 17.8371ZM50.9823 20.0375C52.5873 20.7667 52.7232 23.055 51.2203 24.0497C50.8449 24.2983 50.6897 24.3345 50.0014 24.3345C49.3132 24.3345 49.1577 24.2982 48.782 24.0497C48.1469 23.6299 47.803 23.0503 47.7495 22.3091C47.6761 21.2956 48.1244 20.4869 49.0204 20.016C49.4492 19.7907 50.4635 19.8018 50.9823 20.0375ZM50.4653 26.4876C50.8059 26.4491 51.1073 26.4134 51.135 26.4082C51.2093 26.3941 51.2052 56.7842 51.131 56.9045C51.0938 56.9647 50.6074 56.9945 49.9441 56.9771L48.8204 56.9476L48.8008 42.9632C48.7901 35.2717 48.8065 28.3938 48.8372 27.6788L48.893 26.3788L49.3696 26.4681C49.6316 26.5172 50.1248 26.526 50.4653 26.4876ZM46.6983 30.6301V32.2298H37.5941C29.9479 32.2298 28.514 32.2075 28.641 32.0905C28.724 32.0139 29.5584 31.8251 30.495 31.671C31.4316 31.5168 32.7087 31.3011 33.3331 31.1916C34.2694 31.0274 38.4824 30.3229 45.047 29.2327C45.643 29.1338 46.2584 29.0477 46.4145 29.0415L46.6983 29.0304V30.6301ZM56.9469 29.6564C58.7178 29.9439 60.724 30.2669 61.4052 30.374C62.0863 30.4811 64.2459 30.8298 66.2043 31.1487C68.1626 31.4677 70.1094 31.7833 70.5304 31.8502C70.955 31.9176 71.3151 32.0292 71.339 32.1007C71.373 32.2033 69.528 32.2298 62.3426 32.2298H53.3035V30.6817C53.3035 29.1893 53.3111 29.1336 53.5153 29.1336C53.6317 29.1336 55.176 29.3688 56.9469 29.6564ZM31.0851 43.247C31.7752 44.7654 32.4936 46.353 32.6817 46.7749C32.8696 47.1968 34.4433 50.6568 36.1786 54.4637L39.3338 61.3855L38.3454 61.4421C36.6462 61.5394 20.2242 61.4809 20.2469 61.3776C20.2584 61.3252 21.4103 58.7743 22.8067 55.7091C24.2032 52.6439 25.4507 49.9038 25.5789 49.62C28.1344 43.9654 29.732 40.4893 29.7757 40.488C29.8059 40.487 30.3951 41.7286 31.0851 43.247ZM72.4931 45.3645C73.7098 48.0456 74.8101 50.4714 74.9383 50.7552C75.0665 51.0391 76.2104 53.5534 77.4803 56.3425L79.7895 61.4137L79.0086 61.4667C77.5484 61.5659 60.6818 61.4884 60.7003 61.3827C60.71 61.3275 61.933 58.6118 63.4182 55.3479C64.9034 52.084 66.2022 49.2278 66.3045 49.0007C66.4066 48.7737 66.6495 48.2396 66.8442 47.8139C67.039 47.3881 67.8662 45.5652 68.6824 43.763C69.4988 41.9608 70.1924 40.4871 70.2238 40.488C70.2552 40.489 71.2764 42.6835 72.4931 45.3645ZM52.2714 66.7522V74.441H50.0009H47.7304V66.7522V59.0633H50.0009H52.2714V66.7522ZM39.6803 63.7128C39.6803 64.1114 38.8049 65.1967 37.9663 65.8377C35.0566 68.0617 29.6712 68.8318 25.4035 67.6343C23.2811 67.0387 21.6307 66.1002 20.5886 64.8961C20.1691 64.4114 19.8647 63.9139 19.8647 63.7128C19.8647 63.6378 22.9237 63.6044 29.7725 63.6044C36.6214 63.6044 39.6803 63.6378 39.6803 63.7128ZM80.1371 63.739C80.1371 64.0205 79.5255 64.8191 78.8093 65.4727C75.5831 68.4173 68.5276 69.0956 63.8629 66.9097C62.7248 66.3763 61.929 65.838 61.2676 65.154C60.7558 64.6248 60.3215 63.9626 60.3215 63.7117C60.3215 63.6381 63.4399 63.6044 70.2293 63.6044C78.3064 63.6044 80.1371 63.6293 80.1371 63.739ZM56.7865 77.6396C58.7801 78.2635 60.5228 78.8248 60.659 78.8868C61.0845 79.0808 61.3313 79.7347 61.2604 80.4805C61.2537 80.5512 57.5577 80.5845 49.9751 80.5822L38.6998 80.5787L38.668 80.356C38.6147 79.9846 38.8371 79.3441 39.1077 79.0899C39.2881 78.9205 40.4467 78.5077 43.0565 77.6829L46.7499 76.5157L49.9558 76.5104L53.1618 76.5051L56.7865 77.6396Z" fill="#F3012A" stroke="#F3012A"/>
</svg>
