<svg width="101" height="101" viewBox="0 0 101 101" fill="none" xmlns="http://www.w3.org/2000/svg">
<rect width="100" height="100" transform="translate(0.666626 0.19751)" fill=""/>
<path fill-rule="evenodd" clip-rule="evenodd" d="M44.0885 17.8757C42.8456 18.4881 42.8559 20.232 44.1061 20.8251C44.4208 20.9745 44.9177 21 47.5221 21H50.5698V24.0278V27.0555L50.1702 27.1138C49.9505 27.1458 49.4589 27.2015 49.0779 27.2375C47.9499 27.3441 46.1327 27.7033 44.7087 28.1011C40.4231 29.2985 36.3249 31.6195 33.2315 34.6015C32.4379 35.3665 32.2379 35.6224 32.1808 35.9459C32.0327 36.7834 32.3777 37.5145 33.0542 37.7971C33.8889 38.1459 34.4776 37.9285 35.639 36.8424C36.5731 35.9687 38.1184 34.7887 39.1809 34.1375C40.3321 33.4318 40.9912 33.042 41.0329 33.042C41.0548 33.042 41.4896 32.8458 41.9991 32.606C45.0045 31.1914 48.0463 30.4992 51.6617 30.4075C54.08 30.3461 55.375 30.4689 57.6936 30.9795C67.5096 33.141 75.0831 41.3827 76.5302 51.4779C76.7706 53.1549 76.7689 56.5353 76.5268 58.2382C75.2257 67.3905 69.0333 74.9657 60.3739 77.9978C57.6174 78.9631 55.3712 79.3335 52.2749 79.3335C49.8448 79.3335 48.7273 79.2099 46.5501 78.7002C42.5462 77.7628 38.6206 75.6732 35.5644 72.8524C34.5925 71.9553 34.3659 71.8321 33.6879 71.8321C32.5645 71.8321 31.8273 73.0233 32.2801 74.1071C32.4302 74.4665 33.638 75.6282 34.9579 76.6826C36.89 78.2262 40.0067 80.0135 42.2044 80.8382C46.1965 82.3363 50.6583 82.9644 54.6726 82.5933C60.0447 82.0967 64.8892 80.1905 69.3786 76.8067C70.4724 75.9823 73.2311 73.2209 74.1476 72.033C76.5227 68.955 78.3224 65.2771 79.2263 61.655C79.8133 59.3028 80.1508 56.0832 80.0355 53.9371C79.951 52.3652 79.6973 50.0432 79.5572 49.5603C79.4978 49.3555 79.3979 48.9052 79.3353 48.5597C79.1816 47.7123 78.5818 45.81 78.0378 44.4446C77.073 42.0232 75.4145 39.2065 73.8497 37.3318C73.4713 36.8787 73.1619 36.4588 73.1619 36.3988C73.1619 36.3388 73.9279 35.5249 74.8642 34.59L76.5664 32.8901L77.6086 33.9139C78.3909 34.6826 78.7568 34.9661 79.0766 35.0514C80.0614 35.3141 81.0001 34.7015 81.1163 33.7205C81.162 33.3341 81.1309 33.0781 81.0061 32.8152C80.9105 32.6136 79.4301 31.0515 77.7164 29.3439C74.347 25.9867 74.2313 25.9011 73.2935 26.0721C72.7744 26.1669 72.1509 26.803 72.0663 27.3241C71.9494 28.0448 72.1589 28.4437 73.2246 29.529L74.2224 30.5451L72.4735 32.2918L70.7245 34.0383L69.7319 33.2384C65.9262 30.1715 61.6391 28.2389 56.9105 27.4589C56.0313 27.3138 54.9883 27.1642 54.5927 27.1263L53.8734 27.0573V24.0331V21.0088L57.0998 20.9777C60.2922 20.947 60.3296 20.9441 60.6408 20.6992C61.144 20.3032 61.3316 19.936 61.3316 19.3482C61.3316 18.7081 61.089 18.2917 60.5129 17.9429L60.1075 17.6975L52.2749 17.6994C45.2403 17.7011 44.4062 17.719 44.0885 17.8757ZM51.4159 34.3893C51.2658 34.4825 51.026 34.7295 50.883 34.9381C50.6292 35.3086 50.6231 35.3665 50.6231 37.4117V39.5059L50.9102 39.8822C51.6453 40.8459 52.954 40.8177 53.6354 39.8233C53.8616 39.4933 53.8734 39.3734 53.8734 37.4027C53.8734 35.3604 53.8693 35.3234 53.6039 34.9328C53.4557 34.7146 53.1943 34.4638 53.0231 34.3752C52.6188 34.1662 51.7632 34.1737 51.4159 34.3893ZM64.3169 40.7294C64.0313 40.8126 62.8933 41.886 59.4599 45.3108L54.9758 49.7838L54.1441 49.5046C53.6866 49.3509 52.9929 49.1985 52.6027 49.1658C50.9983 49.0313 49.0862 49.8036 48.0177 51.0176C45.9611 53.3539 46.0475 56.7426 48.2192 58.9144C49.3321 60.0272 50.691 60.5833 52.2749 60.574C53.8231 60.565 55.0397 60.0895 56.1345 59.0654C57.8675 57.4444 58.4396 54.9184 57.5646 52.752L57.3162 52.1369L61.7293 47.7313C64.1565 45.3082 66.2152 43.1884 66.3042 43.0207C66.5242 42.6059 66.5082 41.8619 66.2706 41.4582C65.9002 40.8291 65.0561 40.5142 64.3169 40.7294ZM21.0962 42.8481C20.494 43.1462 20.1568 43.7598 20.222 44.4386C20.279 45.0326 20.5289 45.411 21.0655 45.7161C21.4476 45.9334 21.5627 45.9365 29.3615 45.9365C38.1632 45.9365 37.7124 45.9732 38.294 45.2105C38.7034 44.6738 38.6986 43.9055 38.2825 43.3616C37.7046 42.6062 38.0328 42.6329 29.3344 42.6331C21.7222 42.6332 21.5199 42.6384 21.0962 42.8481ZM53.3109 52.7087C54.9634 53.5321 55.1462 55.8395 53.6394 56.8566C53.1099 57.214 52.5218 57.3727 51.9948 57.3004C50.3826 57.0795 49.4481 55.5537 49.9879 54.0238C50.2001 53.422 50.5996 53.0044 51.2625 52.691C51.971 52.3562 52.6146 52.3617 53.3109 52.7087ZM25.3267 53.2881C23.8525 53.6431 23.5846 55.676 24.928 56.3136C25.2543 56.4683 26.1286 56.4866 33.2465 56.4866C40.8459 56.4866 41.2181 56.4775 41.5967 56.2844C42.059 56.0486 42.4708 55.3908 42.4708 54.8881C42.4708 54.4141 42.0745 53.752 41.6223 53.4708L41.2453 53.2363L33.4659 53.2189C29.1873 53.2093 25.5246 53.2404 25.3267 53.2881ZM67.8629 53.2813C67.0653 53.4829 66.5558 54.1005 66.5552 54.8667C66.5547 55.459 66.7793 55.8814 67.2733 56.2171C67.6639 56.4824 67.7014 56.4866 69.7373 56.4866C71.6356 56.4866 71.8335 56.4687 72.1582 56.2681C72.9562 55.7748 73.1902 54.7601 72.6792 54.0081C72.2128 53.3218 71.9515 53.2457 69.9649 53.2185C68.9978 53.2053 68.0519 53.2335 67.8629 53.2813ZM21.0088 64.0811C19.8631 64.738 19.9455 66.2923 21.1584 66.9058L21.6371 67.1479L29.523 67.1189L37.4089 67.0899L37.7859 66.8554C38.638 66.3254 38.8504 65.295 38.2655 64.5283C37.7111 63.8014 38.2031 63.8394 29.3951 63.8413L21.424 63.8431L21.0088 64.0811ZM62.7205 64.6657C62.0075 65.0239 61.6634 65.9615 61.9604 66.7366C62.0834 67.0577 64.8282 69.8024 65.1497 69.9257C66.0934 70.288 67.1707 69.7027 67.3536 68.7284C67.4996 67.9497 67.3001 67.6164 65.7847 66.1095C65.0067 65.3357 64.2351 64.6524 64.0702 64.5909C63.6308 64.4271 63.1414 64.4542 62.7205 64.6657ZM51.4638 69.3709C51.2814 69.4821 51.0176 69.7337 50.8777 69.93C50.63 70.2772 50.6231 70.3438 50.6231 72.3838C50.6231 74.3444 50.6376 74.5002 50.846 74.7815C51.6203 75.8263 53.0059 75.8214 53.6549 74.7714C53.8555 74.4467 53.8734 74.2488 53.8734 72.3504C53.8734 70.3346 53.8669 70.2736 53.6135 69.9006C53.1403 69.2043 52.1409 68.958 51.4638 69.3709Z" fill="#F3012A"/>
</svg>
