<svg width="101" height="101" viewBox="0 0 101 101" fill="none" xmlns="http://www.w3.org/2000/svg">
<rect width="100" height="100" transform="translate(0.333313 0.19751)" fill=""/>
<path fill-rule="evenodd" clip-rule="evenodd" d="M47.9634 17.8104C41.0626 18.4771 35.4995 23.4343 34.0036 30.2496C33.7095 31.5892 33.6517 34.4557 33.8894 35.9065C34.7876 41.3862 38.5314 46.0202 43.6772 48.0213C44.8823 48.49 46.8956 48.9926 47.5677 48.9926C48.3427 48.9926 48.2966 48.7083 48.2966 53.4869C48.2966 55.8789 48.2729 57.8361 48.2441 57.8361C48.2152 57.8361 47.7715 57.4177 47.2582 56.9063C46.1706 55.823 45.0321 54.889 43.7062 53.9923L42.7607 53.3529L42.439 52.3977C40.8968 47.8195 37.0366 44.4723 32.2407 43.5548C31.1564 43.3473 28.7018 43.3191 27.674 43.5022C25.6722 43.8589 23.3142 44.8409 22.9999 45.4486C22.7821 45.8697 22.9117 46.7141 23.4047 48.0875C25.1124 52.8435 29.1701 56.1525 34.1955 56.8873C34.801 56.9759 35.754 57.0063 36.6341 56.9653C38.512 56.8777 39.8494 56.542 42.0354 55.6094C42.3808 55.4621 46.273 58.8379 47.0483 59.9573L47.2345 60.2262H40.9478C34.2276 60.2262 34.1528 60.2324 33.84 60.8171C33.7661 60.955 33.7169 62.1099 33.7169 63.7033V66.3595L34.4638 67.0261C36.3588 68.7173 37.5948 70.3559 38.2428 72.0362C38.9518 73.8748 39.3211 76.8505 39.3308 80.8043C39.3334 81.8544 39.3606 81.9942 39.622 82.2981L39.9104 82.6335L49.309 82.6655L58.7076 82.6975L59.0591 82.346C59.3998 82.0052 59.4107 81.9587 59.4134 80.8202C59.4191 78.5078 59.6415 75.4211 59.8905 74.1988C60.479 71.3114 61.683 69.3442 64.2804 67.0261L65.0273 66.3595V63.7033C65.0273 62.1099 64.9781 60.955 64.9042 60.8171C64.5892 60.2284 64.5593 60.2262 57.2654 60.2262H50.4477V58.912V57.5978L50.8958 57.0991C52.0135 55.8555 54.842 53.7732 56.5607 52.9287L57.3557 52.538L57.9377 52.9115C58.9254 53.5452 60.5617 54.253 61.7761 54.5718C63.3317 54.9801 65.7866 55.0798 67.3973 54.7999C71.5725 54.0743 75.1563 51.3653 77.0553 47.4992C78.0453 45.4838 78.0242 45.1234 76.8707 44.3406C73.0429 41.7434 67.9185 41.337 63.7712 43.3015C61.0249 44.6026 58.8317 46.6953 57.5164 49.27L57.039 50.2047L55.5657 50.9456C53.9899 51.7383 52.7854 52.5104 51.4555 53.5809C50.9998 53.9478 50.5866 54.2485 50.5373 54.2493C50.4879 54.2502 50.4477 53.1004 50.4477 51.6943C50.4477 48.893 50.4206 48.9926 51.1795 48.9926C51.7568 48.9926 53.2995 48.6438 54.4511 48.2529C59.8965 46.4043 63.9072 41.6275 64.855 35.8616C65.0965 34.3922 65.0438 31.6347 64.7484 30.29C64.0556 27.1353 62.6334 24.5304 60.3983 22.3226C57.6552 19.6128 54.5447 18.1751 50.6269 17.8062C49.9039 17.7381 49.2317 17.6897 49.1331 17.6986C49.0345 17.7075 48.5081 17.7578 47.9634 17.8104ZM52.6076 20.347C54.1858 20.7586 55.4211 21.2956 56.6575 22.1074C59.4483 23.9399 61.4706 26.7121 62.365 29.9315C62.6749 31.0468 62.6969 31.2781 62.6953 33.3972C62.6936 35.4885 62.6684 35.7582 62.3747 36.8133C61.086 41.4431 57.5674 45.0135 53.017 46.3087C46.3258 48.2132 39.2343 44.6086 36.7647 38.0475C36.0278 36.0897 35.7628 32.9791 36.1573 30.9174C37.0905 26.04 40.7154 21.9731 45.3968 20.5516C46.9769 20.0718 47.8922 19.9561 49.7306 20.0038C51.0862 20.0389 51.7125 20.1136 52.6076 20.347ZM48.2706 24.1654L48.2368 25.5098L47.5156 25.5789C46.0487 25.7194 44.7213 26.6247 43.9812 27.9893C43.5939 28.7037 43.5761 28.7915 43.5761 29.9913C43.5761 31.1015 43.6129 31.3246 43.8952 31.9268C44.5361 33.2941 45.9888 34.3132 47.5329 34.4786L48.2966 34.5603V36.7572V38.9542H47.8563C47.2885 38.9542 46.4648 38.5536 46.1853 38.1417C46.0648 37.9641 45.8798 37.5769 45.7743 37.2811L45.5822 36.7433L44.5278 36.7747C43.9479 36.7921 43.4616 36.819 43.4471 36.8345C43.4327 36.85 43.4646 37.1357 43.5179 37.4691C43.8315 39.4314 45.5075 40.9989 47.4899 41.184L48.2966 41.2593V42.6164V43.9734H49.3721H50.4477V42.6157V41.258L51.1348 41.1936C52.7068 41.0461 54.0209 40.1821 54.7524 38.8147C55.1081 38.1497 55.163 37.9274 55.204 36.9823C55.2567 35.7659 55.0293 34.954 54.3876 34.0683C53.671 33.0789 52.0993 32.2619 50.9131 32.2619H50.4477V30.0638C50.4477 28.3292 50.4817 27.8527 50.609 27.8038C50.6977 27.7698 51.0258 27.7964 51.3382 27.8631C52.0857 28.0225 52.7796 28.6981 52.9691 29.4512L53.1051 29.9913H54.2277H55.3503L55.2725 29.4834C54.9516 27.3894 53.2799 25.7769 51.2244 25.5789L50.5074 25.5098L50.4736 24.1654L50.4398 22.8209H49.3721H48.3044L48.2706 24.1654ZM48.2966 30.0638V32.2619L47.9082 32.2592C46.5432 32.25 45.4334 30.8271 45.7764 29.5258C46.03 28.5635 46.6152 28.0164 47.5795 27.8406C48.3111 27.7073 48.2966 27.6622 48.2966 30.0638ZM51.8456 34.7829C52.4187 35.0603 52.9225 35.7794 53.0366 36.4823C53.2274 37.658 52.0912 38.9542 50.8698 38.9542H50.4477V36.7433V34.5325H50.8879C51.1302 34.5325 51.5611 34.6452 51.8456 34.7829ZM71.3093 44.4575C72.6327 44.6919 75.0089 45.6229 75.2406 45.9979C75.4379 46.317 74.0235 48.4494 72.8781 49.5596C70.6951 51.6755 68.1929 52.6973 65.1937 52.6973C63.1482 52.6973 61.2279 52.2193 59.7172 51.3339L59.1729 51.0149L59.527 50.3134C61.0191 47.3574 63.7875 45.255 67.1784 44.5023C68.0083 44.3181 70.3771 44.2924 71.3093 44.4575ZM31.1475 45.6563C34.4396 46.0501 37.3455 47.8747 39.1967 50.7103C39.7555 51.5664 40.5287 53.3014 40.5287 53.6995C40.5287 53.8101 40.194 53.9812 39.6025 54.1728C38.1909 54.6303 37.5407 54.7289 35.9372 54.7289C32.7886 54.7289 30.1504 53.5935 27.9857 51.3067C26.9553 50.2182 26.3525 49.3067 25.7492 47.925C25.2192 46.711 25.2295 46.5608 25.8594 46.3269C26.7646 45.9908 27.7385 45.7469 28.5554 45.6516C29.7312 45.5145 29.9656 45.5149 31.1475 45.6563ZM62.7781 63.5828C62.7993 64.1801 62.7941 64.691 62.7667 64.7181C62.7016 64.7826 36.0426 64.7826 35.9776 64.7181C35.9502 64.691 35.9449 64.1801 35.9661 63.5828L36.0045 62.4968H49.3721H62.7398L62.7781 63.5828ZM60.8734 67.1874C60.2274 67.9915 59.4716 69.0756 59.1254 69.6946C57.8759 71.929 57.2595 74.8903 57.2595 78.6592V80.4226H49.3891H41.5186L41.4514 77.9429C41.3601 74.5777 40.9892 72.624 40.0446 70.5334C39.7085 69.7898 38.6761 68.1666 38.0683 67.4264L37.7495 67.038H49.3714C58.6534 67.038 60.9693 67.0681 60.8734 67.1874Z" fill="#F3012A" stroke="#F3012A"/>
</svg>
