<svg width="100" height="101" viewBox="0 0 100 101" fill="none" xmlns="http://www.w3.org/2000/svg">
<rect width="100" height="100" transform="translate(0 0.19751)" fill=""/>
<path fill-rule="evenodd" clip-rule="evenodd" d="M27.2772 17.8361C26.9596 17.9839 26.6925 18.2563 26.5637 18.5637C26.4451 18.8467 26.4451 74.6334 26.5637 74.9164C26.6811 75.1967 26.9385 75.4771 27.2134 75.6241L27.4563 75.754L38.0309 75.7835L48.6056 75.813L48.635 78.7927L48.6645 81.7725L48.8412 82.0561C49.1924 82.6196 49.9948 82.8626 50.5649 82.5779C50.726 82.4975 56.1211 78.2366 56.8241 77.6346C56.8996 77.5699 57.3686 77.9229 59.9739 80.0049C61.6576 81.3504 63.1395 82.5044 63.2671 82.5695C63.5457 82.7117 64.0691 82.7274 64.367 82.6026C64.6756 82.4733 64.925 82.2362 65.0795 81.9254L65.2187 81.6452L65.236 78.7144L65.2532 75.7835H68.7933C71.3362 75.7835 72.3985 75.764 72.5645 75.7142C72.8967 75.6147 73.2893 75.2462 73.4176 74.9135C73.5213 74.645 73.5252 73.6059 73.5252 46.7401C73.5252 19.8742 73.5213 18.8351 73.4176 18.5666C73.2904 18.2369 72.8744 17.8438 72.5604 17.7565C72.419 17.7172 64.7979 17.6974 49.9605 17.6975L27.5741 17.6978L27.2772 17.8361ZM70.7858 46.7401V73.0147H68.017H65.2481V70.1528V67.291L65.4518 66.8676C65.9205 65.8931 65.9585 64.9413 65.5689 63.9341L65.4632 63.6608L65.738 63.3466C66.2314 62.7826 66.6031 61.7983 66.6031 61.0556C66.6031 60.6371 66.4252 59.9225 66.2072 59.465C65.9548 58.9354 65.2816 58.2261 64.7768 57.958L64.4528 57.786L64.4164 57.138C64.3921 56.7064 64.3386 56.3754 64.2561 56.1471C63.8442 55.0065 62.7929 54.0844 61.625 53.8392C61.1206 53.7333 60.803 53.7315 60.2848 53.8318L59.8871 53.9088L59.729 53.7016C59.0437 52.8031 58.0544 52.3177 56.9121 52.3195C55.8712 52.3212 55.1781 52.6187 54.4084 53.3944L53.9076 53.8991L53.5247 53.8275C52.7605 53.6849 52.1079 53.7788 51.3582 54.1394C51.0119 54.3059 50.7984 54.4664 50.4342 54.8339C49.7105 55.564 49.401 56.2973 49.4008 57.2829L49.4006 57.786L49.062 57.9601C48.5814 58.2072 47.884 58.9222 47.6474 59.4103C47.3744 59.9737 47.2589 60.4728 47.26 61.085C47.2616 61.9176 47.5816 62.7742 48.1191 63.3849L48.3546 63.6523L48.1937 64.136C47.8753 65.0935 47.9521 66.0192 48.4271 66.9514L48.635 67.3593V70.187V73.0147H38.9441H29.2531V46.7401V20.4655H50.0195H70.7858V46.7401ZM36.1458 28.7426V30.127H48.6056H61.0654V28.7426V27.3581H48.6056H36.1458V28.7426ZM36.1458 37.0491V38.4335H49.99H63.8342V37.0491V35.6647H49.99H36.1458V37.0491ZM36.1458 45.3555V46.7401H46.5447H56.9438L56.9279 45.3704L56.9121 44.0007L46.5289 43.9858L36.1458 43.9709V45.3555ZM36.1458 53.6622V55.0466H40.299H44.4523V53.6622V52.2778H40.299H36.1458V53.6622ZM57.3307 55.1696C57.3765 55.2076 57.5578 55.4298 57.7336 55.6634C57.9094 55.897 58.1531 56.1758 58.275 56.2828C58.8018 56.7453 59.4823 56.8571 60.4331 56.6373C61.0543 56.4938 61.2109 56.5065 61.4603 56.7208L61.625 56.8623L61.6566 57.8249C61.6861 58.7286 61.698 58.8065 61.85 59.0988C62.082 59.5447 62.3827 59.8171 63.0283 60.1661C63.6888 60.5233 63.8342 60.6776 63.8342 61.021C63.8342 61.3044 63.7654 61.4181 63.2759 61.9425C62.4932 62.7811 62.3827 63.5041 62.8633 64.6434C63.1013 65.2079 63.1288 65.558 62.9526 65.7821C62.7983 65.9781 62.6108 66.0435 61.9785 66.1213C60.8532 66.26 60.226 66.7751 59.9113 67.8191C59.7012 68.5157 59.621 68.6719 59.4091 68.7971C59.1458 68.9526 58.8901 68.8884 58.3428 68.5291C57.7813 68.1604 57.3793 68.0117 56.9376 68.0091C56.4573 68.0063 56.093 68.1372 55.4713 68.5358C54.8066 68.962 54.6265 68.9876 54.3227 68.6994C54.1619 68.5469 54.0844 68.3874 53.9417 67.9159C53.7315 67.221 53.5058 66.8527 53.1143 66.5653C52.7513 66.2988 52.4668 66.2003 51.8291 66.1204C51.2127 66.0432 51.0248 65.9768 50.8717 65.7821C50.6944 65.5567 50.7232 65.2166 50.9672 64.6535C51.2629 63.9712 51.3261 63.542 51.2023 63.0584C51.0993 62.6566 50.8598 62.2322 50.6018 61.9948C50.5158 61.9156 50.3431 61.7226 50.2178 61.5658C50.0333 61.3349 49.99 61.2327 49.99 61.0288C49.99 60.6755 50.1378 60.5173 50.7741 60.1894C51.3894 59.8723 51.7808 59.517 51.9936 59.0821C52.1234 58.8169 52.1409 58.6911 52.1685 57.8249L52.1992 56.8623L52.364 56.7207C52.6176 56.5028 52.7818 56.4896 53.4068 56.6372C53.835 56.7383 54.0834 56.7646 54.3973 56.7421C55.1322 56.6896 55.5265 56.4194 56.2477 55.4742C56.4458 55.2146 56.5813 55.095 56.7189 55.0584C56.922 55.0044 57.1905 55.0532 57.3307 55.1696ZM52.3122 70.575C52.9872 71.2505 53.84 71.6008 54.8099 71.6008C55.522 71.6008 56.3001 71.3627 56.7899 70.9949C56.8921 70.9182 56.9356 70.9294 57.2317 71.109C57.7556 71.4267 58.3859 71.6008 59.0127 71.6008C59.6562 71.6008 60.1324 71.4862 60.6782 71.2001C61.3937 70.8249 62.1306 70.0182 62.3125 69.4109C62.3497 69.2868 62.4024 69.1854 62.4297 69.1854C62.4569 69.1854 62.4793 71.2532 62.4793 73.7805C62.4793 76.4742 62.4572 78.3756 62.4261 78.3756C62.3969 78.3756 61.3298 77.5408 60.0549 76.5205C58.78 75.5003 57.6291 74.6122 57.4973 74.547C57.2135 74.4066 56.6797 74.3887 56.3896 74.5099C56.2826 74.5546 55.1303 75.4427 53.829 76.4834C52.5277 77.5241 51.4497 78.3756 51.4334 78.3756C51.4172 78.3756 51.4039 76.3047 51.4039 73.7737V69.1717L51.6494 69.6646C51.8296 70.0264 52.0059 70.2685 52.3122 70.575Z" fill="#F3012A"/>
</svg>
