<svg width="101" height="101" viewBox="0 0 101 101" fill="none" xmlns="http://www.w3.org/2000/svg">
<rect width="100" height="100" transform="translate(0.666626 0.19751)" fill=""/>
<path fill-rule="evenodd" clip-rule="evenodd" d="M47.9258 17.8359C41.981 18.454 36.1863 21.2404 31.911 25.5364C24.5378 32.9453 22.2094 43.7694 25.8762 53.5892C26.4708 55.1817 27.736 57.6323 28.6829 59.026C29.0157 59.5159 29.0095 59.5974 28.6393 59.5974C28.1453 59.5974 26.6652 60.0991 25.6421 60.6135C22.4599 62.2129 20.1946 65.3043 19.5539 68.9215C19.4792 69.3427 19.4204 71.4478 19.4204 73.696C19.4204 77.6713 19.4237 77.7219 19.71 78.1484C19.8693 78.3857 20.1979 78.6805 20.4401 78.8037C20.9175 79.0463 43.9928 82.3097 47.2274 82.5919C53.2439 83.1171 59.8636 81.666 65.3105 78.6282C67.7717 77.2555 71.0655 74.8169 74.4631 71.8519C76.865 69.7557 80.3414 66.3343 80.8634 65.5527C82.5182 63.0744 82.1896 59.8663 80.0641 57.7506C78.747 56.4395 77.1419 55.8281 75.3236 55.9448C74.8154 55.9773 74.3996 55.9821 74.3996 55.9555C74.3996 55.9287 74.5508 55.6087 74.7355 55.2444C75.2008 54.3273 76.0087 52.0268 76.3729 50.5824C78.6223 41.6591 75.9725 32.1403 69.4004 25.5364C63.7602 19.8688 55.8058 17.0165 47.9258 17.8359ZM53.9266 21.8303C63.9467 23.4319 71.5263 30.9948 73.0076 40.8689C74.6199 51.6172 68.3861 61.9232 58.0595 65.5824C57.265 65.8639 55.2317 66.392 54.5284 66.4994L54.0205 66.5771L54.4649 66.3614C54.7093 66.2428 55.3949 65.9205 55.9885 65.6453C57.8559 64.7794 59.3437 63.005 59.8505 61.0393C60.3026 59.2858 59.9884 57.2289 59.0307 55.6724L58.6378 55.034L58.9652 54.0596C59.584 52.2169 59.6116 50.0841 59.0384 48.3732C58.1585 45.7464 55.904 43.51 53.3221 42.7031L52.6238 42.4848L52.5905 37.6455C52.5722 34.9839 52.6038 32.8062 52.6608 32.8062C52.9133 32.8062 53.9434 33.5772 54.4306 34.1306C55.0755 34.8631 55.4638 35.8474 55.6051 37.1071C55.7298 38.2188 55.9623 38.595 56.7772 39.004C57.434 39.3337 57.9638 39.3026 58.6339 38.8952C59.236 38.529 59.4625 37.9711 59.4425 36.9037C59.376 33.38 56.8516 30.0902 53.286 28.881L52.6238 28.6563L52.5603 27.3983C52.4884 25.973 52.2685 25.5065 51.4961 25.14C50.6454 24.7363 49.6346 24.9905 49.0977 25.7431C48.8651 26.0693 48.8033 26.3646 48.7511 27.3983L48.6876 28.6563L48.0253 28.881C44.7151 30.0036 42.2826 32.9346 41.9074 36.2524C41.7952 37.2445 41.8878 38.8933 42.0943 39.5792C42.3044 40.2768 42.9909 41.6964 43.424 42.3291C44.4917 43.8889 46.5056 45.3491 48.1652 45.767L48.7511 45.9145V49.8083V53.7022L47.9024 54.1207L47.0537 54.5392L46.8141 54.2432C46.3027 53.6109 45.8413 52.4213 45.719 51.4194C45.5854 50.3252 45.3833 49.9452 44.6763 49.46C43.8988 48.9264 42.7737 49.2114 42.101 50.1124C41.4847 50.9379 42.0574 54.0618 43.1191 55.6662C43.313 55.9591 43.4092 56.2219 43.3433 56.2782C43.2797 56.3324 41.8246 57.0444 40.1097 57.8602L36.9916 59.3435H35.4022H33.8126L33.1771 58.5499C29.7929 54.3242 28.0546 49.4674 28.0546 44.2384C28.0546 36.3457 32.0402 29.1917 38.7903 24.9684C41.2915 23.4036 43.8304 22.4541 47.037 21.8845C48.7223 21.5852 52.2209 21.5576 53.9266 21.8303ZM48.7511 37.3137C48.7511 39.7929 48.7197 41.8212 48.6813 41.8212C48.4938 41.8212 47.7947 41.3786 47.3558 40.9821C44.9537 38.812 45.2676 34.8859 47.9806 33.1653C48.2921 32.9678 48.5928 32.8062 48.649 32.8062C48.7051 32.8062 48.7511 34.8346 48.7511 37.3137ZM54.1747 47.6573C55.3052 48.7693 55.8816 50.7528 55.4923 52.1917C55.3515 52.7127 55.342 52.7198 54.9415 52.6049C54.7173 52.5407 54.0898 52.451 53.5471 52.4058L52.5603 52.3234V49.4132V46.503L53.0746 46.7921C53.3575 46.9511 53.8526 47.3405 54.1747 47.6573ZM54.3102 56.4931C55.4375 56.9632 56.157 58.0688 56.1654 59.3435C56.1719 60.3287 55.8585 61.0232 55.1334 61.6316C54.8319 61.8844 52.7321 62.869 49.4494 64.2964C46.5862 65.5415 44.0264 66.6825 43.7609 66.8321C42.4519 67.5693 42.4347 69.4348 43.7298 70.2193C44.094 70.4399 44.5466 70.4536 51.481 70.4529C56.7231 70.4524 59.1043 70.4074 59.744 70.2965C61.1586 70.0512 62.8141 69.5376 63.9877 68.9798C65.9842 68.0308 66.9793 67.2471 70.4667 63.8772C74.1346 60.3326 74.4827 60.0341 75.1636 59.8509C76.5831 59.4685 78.089 60.6636 78.079 62.1646C78.0733 63.0107 77.6718 63.5425 75.4039 65.7067C71.9745 68.9797 69.0336 71.4741 66.336 73.3979C61.3502 76.9537 55.7743 78.7608 49.7661 78.7678C47.3195 78.7707 46.598 78.6925 38.0854 77.5004C26.0177 75.8107 23.5469 75.4691 23.3883 75.4691C23.1477 75.469 23.1733 70.4898 23.4199 69.3108C23.9768 66.6494 25.8395 64.5486 28.499 63.5827C29.0501 63.3825 29.7115 63.3431 33.5144 63.2841L37.8949 63.2161L44.2436 60.1796C47.7353 58.5095 50.9905 56.9526 51.4775 56.7196C52.489 56.2357 53.4994 56.1548 54.3102 56.4931Z" fill="#F3012A"/>
</svg>
