<svg width="101" height="101" viewBox="0 0 101 101" fill="none" xmlns="http://www.w3.org/2000/svg">
<rect width="100" height="100" transform="translate(0.333313 0.19751)" fill=""/>
<path fill-rule="evenodd" clip-rule="evenodd" d="M27.1259 17.9047C26.128 18.2248 25.4424 18.663 24.7436 19.4276C24.0447 20.1923 23.7084 20.8246 23.4388 21.8804C23.2707 22.5388 23.2537 25.7139 23.2819 51.0531L23.3136 79.487L23.6346 80.1716C24.2721 81.5312 25.3259 82.3396 26.7853 82.5887C27.3511 82.6853 34.2307 82.7139 50.9028 82.689C73.9055 82.6545 74.237 82.6506 74.8302 82.4104C75.6619 82.0735 76.7476 81.0427 77.1061 80.2495L77.3957 79.6088V52.8723V26.1357L77.0732 25.4478C76.3651 23.9374 75.113 23.1543 73.2504 23.0568L72.1292 22.9981L72.0658 21.9482C71.9516 20.0535 71.2365 18.8494 69.7653 18.0746L69.1129 17.7311L48.4667 17.7065C28.7596 17.683 27.7889 17.692 27.1259 17.9047ZM68.3579 20.4799C68.6691 20.5663 68.8987 20.7359 69.0578 20.9969C69.2905 21.3783 69.2947 21.849 69.2951 47.4275C69.2956 75.5898 69.3343 73.9358 68.6665 74.2848C68.4465 74.3998 63.6463 74.4408 47.4922 74.466C36.0028 74.4839 26.4791 74.5447 26.3283 74.6014L26.0543 74.704V48.6194C26.0543 25.3126 26.0744 22.4864 26.2434 22.0818C26.5744 21.2897 27.3097 20.6771 28.1859 20.4638C28.7933 20.316 67.8238 20.3315 68.3579 20.4799ZM46.1534 25.837C38.9463 26.5667 33.2681 31.6952 31.6983 38.8928C31.3894 40.3089 31.3894 43.7541 31.6983 45.1702C32.6539 49.5516 35.0327 53.1036 38.6428 55.5396C45.8042 60.3719 55.5743 58.6576 60.7588 51.6591C61.6915 50.4002 62.8445 48.0756 63.2684 46.5993C64.8325 41.1528 63.5613 35.5509 59.768 31.1739C58.6229 29.8526 56.5959 28.3158 54.8214 27.4237C52.3799 26.1962 48.899 25.5589 46.1534 25.837ZM73.9627 25.9673C74.109 26.0421 74.3234 26.2203 74.4392 26.3632C74.6372 26.6075 74.6498 28.1845 74.6524 52.854L74.6551 79.0851L74.24 79.5002L73.825 79.9152L50.295 79.8839L26.7651 79.8524L26.4097 79.4546C25.9181 78.9044 25.9181 78.2425 26.4097 77.6923L26.7651 77.2945L47.8781 77.2336L68.9911 77.1727L69.661 76.8514C70.8374 76.2872 71.5852 75.3829 71.9091 74.1324C72.0755 73.49 72.0971 70.6696 72.0971 49.6188V25.8312H72.8969C73.3368 25.8312 73.8163 25.8925 73.9627 25.9673ZM46.2742 35.0885V40.6916H43.637H41L41.0792 39.6258C41.3775 35.6164 43.2312 31.4951 45.4057 30.0071C45.8249 29.7202 46.1918 29.4854 46.221 29.4854C46.2503 29.4854 46.2742 32.0068 46.2742 35.0885ZM50.7263 30.6856C51.9499 31.8995 53.0532 33.9978 53.6498 36.2457C53.9901 37.528 54.3122 39.4362 54.3129 40.174L54.3134 40.6916H51.6945H49.0757V35.0807V29.4698L49.566 29.7454C49.8357 29.8969 50.3577 30.32 50.7263 30.6856ZM40.845 31.112C39.5212 33.3144 38.5407 36.6053 38.2812 39.7164L38.1998 40.6916H36.2061H34.2124L34.2851 40.174C34.8292 36.2964 37.0153 32.9116 40.4155 30.6819C40.9113 30.3568 41.337 30.1107 41.3613 30.135C41.3856 30.1594 41.1533 30.599 40.845 31.112ZM55.1592 30.8338C58.3647 32.978 60.3815 36.1866 61.0682 40.2349L61.1456 40.6916H59.1528H57.1599L57.0143 39.3213C56.6647 36.0272 55.5758 32.6747 54.1871 30.617C53.9932 30.3297 53.8838 30.0945 53.9441 30.0945C54.0045 30.0945 54.5513 30.4272 55.1592 30.8338ZM38.2812 44.3466C38.5407 47.4577 39.5212 50.7486 40.845 52.951C41.1533 53.464 41.3856 53.9036 41.3613 53.928C41.2865 54.0028 39.5571 52.8261 38.769 52.1644C37.4042 51.0182 35.9361 48.9823 35.201 47.2163C34.8323 46.3308 34.4149 44.8147 34.2851 43.8891L34.2124 43.3714H36.2061H38.1998L38.2812 44.3466ZM46.2742 48.9823V54.5932L45.7667 54.3113C43.4541 53.0267 41.3957 48.6907 41.0792 44.4372L41 43.3714H43.637H46.2742V48.9823ZM54.3129 43.8891C54.3116 45.2953 53.6265 48.2732 52.9177 49.9538C52.0949 51.9049 50.7549 53.6494 49.566 54.3176L49.0757 54.5932V48.9823V43.3714H51.6945H54.3134L54.3129 43.8891ZM61.0682 43.8282C60.5371 46.9591 59.2852 49.4693 57.2296 51.5249C56.3755 52.379 54.2384 53.9686 53.9441 53.9686C53.8838 53.9686 53.9932 53.7333 54.1871 53.446C55.5758 51.3883 56.6647 48.0358 57.0143 44.7417L57.1599 43.3714H59.1528H61.1456L61.0682 43.8282ZM33.2123 64.0685L32.8145 64.4239V66.3928V68.3617L33.2123 68.7171C33.5199 68.9921 33.7277 69.0726 34.1292 69.0726C35.2457 69.0726 35.5552 68.4908 35.5552 66.3928C35.5552 64.2948 35.2457 63.7131 34.1292 63.7131C33.7277 63.7131 33.5199 63.7936 33.2123 64.0685ZM38.6818 63.9622C38.2505 64.3015 38.1145 64.8842 38.1145 66.3928C38.1145 67.0963 38.1709 67.8748 38.2398 68.1231C38.4119 68.743 38.8642 69.0726 39.5425 69.0726C39.9987 69.0726 40.1533 69.0057 40.5005 68.6584L40.9147 68.2443V66.3928V64.5414L40.5005 64.1272C40.1533 63.78 39.9987 63.7131 39.5425 63.7131C39.179 63.7131 38.8935 63.7957 38.6818 63.9622ZM44.0086 64.1272L43.5944 64.5414V66.3928V68.2443L44.0086 68.6584C44.3558 69.0057 44.5104 69.0726 44.9666 69.0726C45.6449 69.0726 46.0972 68.743 46.2693 68.1231C46.4313 67.5396 46.4313 65.246 46.2693 64.6626C46.0972 64.0427 45.6449 63.7131 44.9666 63.7131C44.5104 63.7131 44.3558 63.78 44.0086 64.1272ZM49.5772 63.9117C49.0906 64.2526 48.9539 64.7965 48.9539 66.3928C48.9539 68.4908 49.2634 69.0726 50.3799 69.0726C50.7814 69.0726 50.9892 68.9921 51.2967 68.7171L51.6945 68.3617V66.3928V64.4239L51.2967 64.0685C50.8324 63.6536 50.0477 63.5821 49.5772 63.9117ZM54.8493 64.1272L54.4352 64.5414V66.3928V68.2443L54.8493 68.6584C55.1982 69.0073 55.3503 69.0726 55.8144 69.0726C56.2673 69.0726 56.4321 69.0058 56.7401 68.6978L57.1149 68.323V66.3928V64.4627L56.7401 64.0879C56.4321 63.7798 56.2673 63.7131 55.8144 63.7131C55.3503 63.7131 55.1982 63.7784 54.8493 64.1272ZM60.418 63.9117C59.9314 64.2526 59.7947 64.7965 59.7947 66.3928C59.7947 68.4908 60.1042 69.0726 61.2207 69.0726C61.6221 69.0726 61.8299 68.9921 62.1375 68.7171L62.5353 68.3617V66.3928V64.4239L62.1375 64.0685C61.6732 63.6536 60.8885 63.5821 60.418 63.9117Z" fill="#F3012A"/>
</svg>
