<svg width="100" height="101" viewBox="0 0 100 101" fill="none" xmlns="http://www.w3.org/2000/svg">
<rect width="100" height="100" transform="translate(0 0.67334)" fill=""/>
<g clip-path="url(#clip0_314_343)">
<path d="M47.0007 5.67334C50.1166 5.80215 53.2386 5.91869 56.3607 6.01683C61.4149 6.1763 66.3955 6.97982 71.4128 7.63613C73.5412 7.91215 75.7616 8.2311 77.5098 9.47624C79.2333 10.703 80.2822 12.7455 80.5214 14.8494C80.7606 16.9532 80.2393 19.0939 79.2824 20.977C78.4605 22.5963 77.2889 24.1481 77.2031 25.9637C77.0436 29.3372 80.6195 31.8888 80.8772 35.2562C81.006 36.9307 80.2209 38.6543 78.8653 39.648C77.7858 39.3474 76.4793 39.6848 75.4427 40.1264C72.9769 41.1814 70.6032 42.4879 68.0638 43.3527C66.5243 43.8741 64.9356 44.236 63.3531 44.5918C61.1389 45.0947 58.9246 45.5916 56.7042 46.0945C54.8211 46.5177 52.932 46.9471 51.0121 47.1495C46.2094 47.6525 41.376 46.7386 36.6592 45.6958C33.8438 45.0763 30.8567 44.3096 28.9001 42.1935C28.759 42.1567 28.7099 42.2916 28.8019 42.1812C29.8631 40.8993 30.4335 39.2125 30.366 37.5503C30.1575 37.5687 29.9367 37.6729 29.8631 37.8692C28.9185 40.3227 27.1765 41.7764 24.4286 41.5249C25.7903 40.887 27.1274 39.9301 27.3053 38.4335C27.4648 37.0718 26.4036 35.9187 25.6921 34.741C25.0972 33.7596 24.7291 32.6371 24.6126 31.4963C24.5329 30.7173 24.5819 29.8954 24.9745 29.2207C25.7167 27.951 27.4341 27.583 28.3542 26.436C29.4398 25.0865 29.127 23.1483 28.943 21.4309C28.575 18.045 28.9798 14.4262 30.9365 11.6414C32.8256 8.96101 35.9538 7.36011 39.1556 6.66087C42.3758 5.96776 43.8479 5.5936 47.1233 5.70401" fill="#B35867"/>
<path d="M57.1519 7.04736C58.716 7.0719 60.274 7.09643 61.8381 7.1271C64.6718 7.17617 67.5731 7.23137 70.2229 8.24957C72.8726 9.26163 75.2525 11.4452 75.6941 14.2422C76.2032 17.4685 74.1055 20.5477 73.9031 23.8108C73.7191 26.7795 75.1176 29.601 76.6387 32.1527C77.3134 33.2874 78.0249 34.4099 78.4298 35.6673C78.8346 36.9186 78.9082 38.3416 78.3132 39.5193" stroke="#010015" stroke-width="0.3" stroke-miterlimit="10"/>
<path d="M67.1315 7.5564C69.4807 7.5748 71.8851 7.60547 74.0748 8.45192C76.2646 9.29837 78.2212 11.1569 78.4972 13.4877C78.853 16.5178 76.3995 19.143 75.8107 22.1424C75.3875 24.2708 75.9824 26.5832 77.3748 28.2454C78.3132 29.3679 79.5829 30.1898 80.4478 31.3736C82.2081 33.778 81.7665 37.5135 79.497 39.4456" stroke="#010015" stroke-width="0.3" stroke-miterlimit="10"/>
<path d="M57.0231 7.31104C59.9182 7.59319 62.8563 7.88147 65.5919 8.86286C66.8432 9.31063 68.07 9.924 68.9593 10.9115C70.7872 12.9357 70.7688 16.0148 70.2536 18.6952C69.7383 21.3756 68.8367 24.0806 69.2722 26.7733C69.8119 30.1101 72.3574 33.1033 71.9097 36.4523C71.5294 39.3045 69.1004 41.3777 66.8432 43.1626" stroke="#010015" stroke-width="0.3" stroke-miterlimit="10"/>
<path d="M62.9912 43.8925C65.1564 43.0951 66.4016 40.8747 67.4627 38.8261C68.4441 36.9246 69.45 34.6858 68.5913 32.723C67.7939 30.9074 65.5367 29.7298 65.5367 27.7424" stroke="#010015" stroke-width="0.3" stroke-miterlimit="10"/>
<path d="M37.0088 28.0122C34.7823 29.9505 33.807 33.2197 34.6167 36.0596C35.0276 37.5072 35.8495 38.8259 36.1133 40.3042C36.4077 41.9664 35.9354 43.7575 34.8498 45.0517" stroke="#010015" stroke-width="0.3" stroke-miterlimit="10"/>
<path d="M30.8015 43.7759C31.6296 43.3956 32.0712 42.4571 32.1571 41.5555C32.2429 40.6477 32.0405 39.746 31.9117 38.8444C31.1082 33.1829 33.5187 27.178 38.0209 23.645" stroke="#010015" stroke-width="0.3" stroke-miterlimit="10"/>
<path d="M25.5571 41.3592C27.342 40.6539 28.6669 38.8996 28.8509 36.9859C29.0595 34.833 27.9431 32.6616 28.3848 30.5455C28.8632 28.2638 30.9793 26.761 32.9421 25.5097C34.9049 24.2584 37.0456 22.817 37.6221 20.5598" stroke="#010015" stroke-width="0.3" stroke-miterlimit="10"/>
<path d="M54.8088 42.4082C54.8088 42.9357 56.606 54.2401 56.606 54.2401C56.606 54.2401 76.283 48.0512 84.1832 59.7359C89.2558 67.2375 90.5255 85.197 90.5255 85.197C90.5255 85.197 41.1797 108.757 9.48682 85.197C9.48682 85.197 10.4375 73.4693 12.5537 67.8693C14.6698 62.2692 20.2638 55.8226 30.3046 55.6141C40.3394 55.4055 44.5717 55.4055 44.5717 55.4055L46.6878 43.6779L54.8211 42.4082H54.8088Z" fill="#FFB1A5"/>
<path d="M84.1832 59.736C81.9444 56.4176 78.7488 54.5469 75.3323 53.5593C78.2581 66.4647 77.3871 80.4986 71.327 91.9319C82.7173 88.9263 90.5255 85.2032 90.5255 85.2032C90.5255 85.2032 89.2558 67.2436 84.1832 59.7421V59.736Z" fill="#F29F97"/>
<path d="M49.0923 49.5539C52.5885 48.0572 53.8643 44.7021 54.0115 41.1445L46.8596 42.2609L45.6267 49.1061C46.7798 49.6643 47.9391 49.9403 49.0923 49.5539Z" fill="#DA958A"/>
<path d="M68.3337 52.6084C64.8682 52.5716 61.6603 53.0685 59.4828 53.5285C57.4955 58.4048 50.8649 60.6743 46.1972 59.5089C44.2896 58.552 42.3759 57.2701 41.3699 55.4299C39.0637 55.4545 35.4509 55.5097 30.2924 55.6139C30.2311 55.6139 30.1759 55.6201 30.1207 55.6262C29.3417 64.2441 24.5758 71.4083 23.3061 80.3144C22.4413 84.2032 22.1162 88.3619 22.9995 92.2874C44.4981 99.7399 69.2354 93.1645 81.9628 88.6317C81.693 85.7489 81.1777 82.9519 80.1841 80.3083C76.3812 70.7949 70.8486 62.4408 68.3337 52.6023V52.6084Z" fill="#F3012A"/>
<path d="M73.7744 66.5872C75.9457 71.0954 78.2826 75.5608 80.1841 80.3205C81.1716 82.9642 81.693 85.7612 81.9629 88.644" stroke="#010015" stroke-width="0.5" stroke-miterlimit="10"/>
<path d="M22.9995 92.2936C22.1162 88.368 22.4413 84.2093 23.3061 80.3206C23.9072 76.1128 25.2873 72.2915 26.6613 68.5193" stroke="#010015" stroke-width="0.5" stroke-miterlimit="10"/>
<path d="M54.5022 7.83236C49.6811 7.36619 41.4619 7.64834 37.7326 14.9107C34.0033 22.173 29.6361 34.5999 38.665 40.6232C41.4619 42.4878 42.7623 44.3525 46.6756 44.7205C50.5889 45.0947 55.4345 46.9532 61.3965 40.6232C67.3585 34.2871 68.2908 30.3738 68.2908 30.3738C68.2908 30.3738 72.5783 30.7479 72.5783 24.7859C72.5783 18.824 68.665 20.3145 67.5486 24.0376C67.5486 24.0376 69.9714 9.31671 54.5083 7.82622L54.5022 7.83236Z" fill="#FFB1A5"/>
<path d="M37.0886 16.2173C33.5494 23.59 30.1575 34.9497 38.6649 40.6233C41.3638 42.4205 42.6764 44.2116 46.283 44.6716C37.8553 38.2251 34.0953 26.663 37.0886 16.2173Z" fill="#FFB9A9"/>
<path d="M47.3074 23.5103C46.5345 26.5158 43.805 28.6012 42.4801 31.4105C42.4127 31.5577 42.3452 31.7233 42.3881 31.8766C42.4249 32.0054 42.5231 32.1036 42.6212 32.1895C43.7375 33.177 45.1606 33.821 46.6388 34.0112" stroke="#010015" stroke-width="0.5" stroke-miterlimit="10"/>
<path d="M57.1274 10.1142C57.9554 10.8441 58.5872 11.7887 58.9491 12.8314C59.2251 13.6349 59.3416 14.4814 59.4766 15.3155C59.8078 17.4133 60.2556 19.5417 61.378 21.345C62.292 22.8171 63.4696 23.32 64.7945 24.2646C65.9292 25.0682 66.4813 26.3133 66.8616 27.6873C66.5426 26.5464 67.751 23.8414 68.0086 22.6515C68.4073 20.793 68.7569 18.9222 68.9348 17.0269C69.0942 15.3585 69.3887 13.3896 68.6465 11.8132C67.751 9.92401 65.8863 9.86268 64.1873 9.11436C60.3598 7.43372 56.2134 6.83875 52.0916 6.41553C48.2457 6.02297 44.9642 5.21332 41.1552 6.61181C40.0143 7.0289 38.9102 7.5932 38.0147 8.41512C35.2055 11.0097 34.9785 15.7388 31.4823 17.7138C35.5919 18.959 39.8978 18.1984 44.0564 17.1189C48.7794 15.8983 54.1218 13.9416 57.1335 10.108L57.1274 10.1142Z" fill="#B35867"/>
<path d="M68.5607 27.3806C68.5975 25.9391 69.217 24.5223 70.2474 23.5225" stroke="#010015" stroke-width="0.5" stroke-miterlimit="10"/>
<path d="M68.9594 25.1724C69.9039 25.5097 70.4928 26.6322 70.229 27.6013" stroke="#010015" stroke-width="0.5" stroke-miterlimit="10"/>
<path d="M42.1918 36.4647C42.6028 36.0231 43.2775 35.9495 43.8786 35.9985C44.8784 36.0844 45.8598 36.4402 46.6817 37.0229" stroke="#010015" stroke-width="0.5" stroke-miterlimit="10"/>
<path d="M37.3768 24.1296C37.3768 24.1296 42.7438 24.2339 43.1732 24.4547C43.6026 24.6694 43.3879 26.761 43.1732 27.0309C42.9585 27.3008 38.6097 29.5028 37.3768 24.1296Z" fill="#F9F7F2"/>
<path d="M43.5228 24.0684C40.8362 23.823 37.6958 23.2342 35.0276 23.6329C34.9111 23.6513 34.9295 23.8291 35.0276 23.8537C37.6283 24.5836 40.8362 24.3812 43.5228 24.4732C43.7866 24.4793 43.7743 24.0929 43.5228 24.0684Z" fill="#010015"/>
<path d="M43.1732 24.4485C42.9953 24.3627 42.0016 24.2891 40.8853 24.24C40.5848 25.7121 41.1061 27.0922 42.4555 27.3989C42.8542 27.2455 43.1302 27.086 43.1793 27.0247C43.394 26.7548 43.6087 24.6632 43.1793 24.4485H43.1732Z" fill="#010015"/>
<path d="M54.3734 24.1296C54.3734 24.1296 59.7404 24.2339 60.1697 24.4547C60.5991 24.6694 60.3844 26.761 60.1697 27.0309C59.955 27.3008 55.6062 29.5028 54.3734 24.1296Z" fill="#F9F7F2"/>
<path d="M60.5193 24.0684C57.8328 23.823 54.6923 23.2342 52.0241 23.6329C51.9076 23.6513 51.926 23.8291 52.0241 23.8537C54.6248 24.5836 57.8328 24.3812 60.5193 24.4732C60.7831 24.4793 60.7708 24.0929 60.5193 24.0684Z" fill="#010015"/>
<path d="M60.1697 24.4485C59.9918 24.3627 58.9982 24.2891 57.8818 24.24C57.5813 25.7121 58.1026 27.0922 59.4521 27.3989C59.8507 27.2455 60.1268 27.086 60.1758 27.0247C60.3905 26.7548 60.6052 24.6632 60.1758 24.4485H60.1697Z" fill="#010015"/>
<path d="M36.9965 21.2161C39.1924 22.222 42.8849 22.9519 44.6392 20.7193C44.7618 20.5598 44.7005 20.2838 44.4613 20.2899C43.3511 20.3206 42.3329 20.7622 41.2349 20.9033C39.9039 21.075 38.5177 21.0566 37.2174 20.6886C36.9107 20.6027 36.6899 21.075 36.9965 21.2161Z" fill="#010015"/>
<path d="M53.392 20.1917C55.2627 21.6148 58.5197 23.4058 60.8506 21.9951C60.9426 21.9398 60.9548 21.7865 60.8506 21.7374C59.8692 21.2099 58.7406 21.1425 57.6733 20.8787C56.3423 20.5536 55.0542 20.0691 53.8827 19.3637C53.3368 19.0325 52.9197 19.8299 53.3981 20.1979L53.392 20.1917Z" fill="#010015"/>
<path d="M62.8379 32.5452C62.8379 34.6245 61.1511 36.3113 59.0718 36.3113C56.9924 36.3113 55.3057 34.6245 55.3057 32.5452C55.3057 30.4658 56.9924 28.7791 59.0718 28.7791C61.1511 28.7791 62.8379 30.4658 62.8379 32.5452Z" fill="#F4978E"/>
<path d="M41.5232 31.4473C41.5232 33.5266 39.8365 35.2134 37.7571 35.2134C35.6778 35.2134 33.991 33.5266 33.991 31.4473C33.991 29.3679 35.6778 27.6812 37.7571 27.6812C39.8365 27.6812 41.5232 29.3679 41.5232 31.4473Z" fill="#F4978E"/>
<path d="M57.3973 9.8689C58.808 10.4823 59.9673 11.6415 60.5929 13.0523C61.2002 14.4324 61.2861 15.9719 61.5498 17.4563C61.8136 18.9407 62.3165 20.4864 63.5065 21.4187C64.1014 21.8848 64.8252 22.1609 65.3895 22.6638C66.7144 23.8415 66.7819 25.8472 66.7573 27.6199" stroke="#010015" stroke-width="0.3" stroke-miterlimit="10"/>
<path d="M57.1826 9.83203C55.8946 13.1688 52.6314 15.4198 49.2027 16.4135C45.7678 17.4133 42.1305 17.352 38.5607 17.3213C37.3646 17.309 35.9661 17.401 35.2853 18.3886" stroke="#010015" stroke-width="0.3" stroke-miterlimit="10"/>
<path d="M57.1581 7.96728C59.9305 7.61766 63.0219 8.36597 64.7087 10.5925C67.291 14.0029 65.6349 19.2533 67.9841 22.8231" stroke="#010015" stroke-width="0.3" stroke-miterlimit="10"/>
<path d="M57.1336 8.09619C56.9066 9.21866 55.7535 9.8811 54.6862 10.2859C49.2517 12.3469 43.0383 11.4697 37.6161 13.5552C36.3403 14.0459 35.0767 14.7329 34.2732 15.8369C33.4452 16.9717 33.1814 18.4438 33.2673 19.8484C33.3531 21.253 33.7641 22.6147 34.1689 23.958" stroke="#010015" stroke-width="0.3" stroke-miterlimit="10"/>
<path d="M29.5809 14.5794C31.0776 11.8315 33.4084 10.5619 36.236 9.23084C42.8482 6.10878 50.5153 5.2746 57.6488 6.88776" stroke="#010015" stroke-width="0.3" stroke-miterlimit="10"/>
<path d="M44.0503 54.9454C43.6639 57.1228 45.0072 59.4414 47.3012 60.5516C49.5952 61.6557 52.6866 61.4778 54.772 60.1161C56.8575 58.7544 57.8021 56.3009 57.0538 54.1909" stroke="#FCD97F" stroke-miterlimit="10"/>
</g>
<defs>
<clipPath id="clip0_314_343">
<rect width="81.0386" height="90" fill="white" transform="translate(9.48071 5.67334)"/>
</clipPath>
</defs>
</svg>
