<svg width="100" height="101" viewBox="0 0 100 101" fill="none" xmlns="http://www.w3.org/2000/svg">
<rect width="100" height="100" transform="translate(0 0.67334)" fill=""/>
<g clip-path="url(#clip0_314_345)">
<path d="M46.2247 47.3102L43.8976 58.3269C43.8976 58.3269 28.8506 60.8167 25.0536 64.7493C22.5476 67.3421 16.429 86.4682 16.429 86.4682C16.429 86.4682 35.7666 106.001 83.5601 87.1842C83.5601 87.1842 79.5841 66.3278 75.7546 63.4149C71.9196 60.5021 57.5832 58.9128 57.5832 58.9128L55.1748 46.6267L46.2247 47.3047V47.3102Z" fill="#FFB1A5"/>
<path d="M52.0233 53.2391C54.0465 51.6552 54.833 49.5614 55.305 47.2724L55.1802 46.6323L46.2301 47.3104L44.8144 54.0094C47.2065 54.6494 49.6094 54.6549 52.0233 53.2391Z" fill="#010015"/>
<path d="M75.76 63.415C71.925 60.5021 57.5886 58.9128 57.5886 58.9128L56.9811 55.8264C52.9779 57.4211 48.4812 57.1824 44.4509 55.707L43.8977 58.3215C43.8977 58.3215 28.8506 60.8113 25.0536 64.7439C22.553 67.3476 16.4344 86.4682 16.4344 86.4682C16.4344 86.4682 35.7721 106.001 83.5656 87.1843C83.5656 87.1843 79.5896 66.3278 75.76 63.415Z" fill="#010015"/>
<path d="M25.0591 64.7493C22.553 67.3476 16.4344 86.4682 16.4344 86.4682C16.4344 86.4682 25.7208 95.8414 47.315 95.3424C46.9461 83.116 42.6609 70.8462 42.2812 58.6199C38.2944 59.3847 28.0912 61.6032 25.0591 64.7493Z" fill="#86BBD8"/>
<path d="M75.76 63.4151C73.0261 61.3376 64.9602 59.9381 60.5503 59.3035C58.348 70.8735 56.3573 82.8124 57.3174 94.4692C64.8897 93.3572 73.6065 91.1061 83.5656 87.1844C83.5656 87.1844 79.5895 66.3279 75.76 63.4151Z" fill="#86BBD8"/>
<path d="M75.76 63.415C75.76 63.415 75.7383 63.4042 75.7329 63.3933C75.0277 74.9091 69.457 85.2478 61.5809 93.7423C68.1172 92.4784 75.4291 90.3901 83.571 87.1843C83.571 87.1843 79.595 66.3279 75.7654 63.415H75.76Z" fill="#A0C0EF"/>
<path d="M44.6028 54.3619C43.8488 54.1938 42.9647 54.5355 42.3409 54.9911C41.7171 55.4468 41.1855 56.0272 40.5292 56.4449C39.1568 57.3182 37.4373 57.367 35.8426 57.6979C33.0436 58.2837 30.4617 59.8513 28.6445 62.059C29.0893 62.9323 29.4961 64.0497 29.9518 64.9122C31.1126 67.0873 32.3114 69.3167 34.1936 70.9115C35.2947 71.8444 36.705 72.6906 36.96 74.1118C37.1119 74.958 36.8081 75.9018 37.2475 76.6395C37.7574 77.4911 38.9778 77.5942 39.6938 78.2885C40.7841 79.3517 40.3014 81.3315 41.2777 82.5032C42.0643 83.447 43.5559 83.5609 44.2991 84.5427C44.6516 85.0092 44.7764 85.6005 44.8903 86.17C45.5087 89.3161 46.0077 92.4893 46.3766 95.6788C47.1143 95.6137 47.852 95.3317 48.5897 95.3859C49.6583 91.9794 49.2677 88.2801 48.9477 84.7217C48.7687 82.7473 48.5951 80.7674 48.4161 78.793C48.1991 76.3575 47.9659 73.8677 46.9407 71.6492C46.4959 70.6891 45.9047 69.7669 45.7745 68.72C45.5738 67.1416 46.4471 65.4546 45.7962 64.0063C45.3514 63.0083 44.2719 62.3899 43.8705 61.3755C43.5776 60.6378 43.6861 59.8133 43.7946 59.0268C44.0116 57.5026 44.3967 55.8807 44.6137 54.3619H44.6028Z" fill="#3B719F"/>
<path d="M56.9214 54.4922C57.6808 54.3403 58.5595 54.6983 59.1725 55.1702C59.7854 55.6421 60.3062 56.2334 60.9517 56.6619C62.3077 57.5623 64.0218 57.6491 65.6057 58.018C68.3938 58.6634 70.9432 60.2853 72.7061 62.531C72.2451 63.3934 71.8165 64.5 71.3338 65.357C69.7824 68.1288 68.2636 70.0382 65.7847 71.9421C63.5933 73.6291 65.3345 76.7535 63.5716 78.7984C62.8502 79.6338 61.6622 80.046 61.1415 81.0224C60.6154 82.0096 60.9571 83.2247 60.751 84.3258C60.5177 85.5951 59.5902 86.6094 59.0477 87.7811C58.0985 89.8369 58.386 92.2236 58.6952 94.4638C57.9574 94.6808 57.1546 94.6808 56.4115 94.4747C55.6304 87.678 56.2 80.8326 56.8455 74.0522C57.1763 70.5915 57.5289 67.1308 57.7405 63.6538C57.9357 60.3992 57.2957 57.6871 56.9106 54.4922H56.9214Z" fill="#3B719F"/>
<path d="M33.8844 39.5806C36.488 40.264 37.8279 39.2768 37.1607 36.6352C36.6887 34.7638 32.1595 30.6413 31.3404 34.3082C30.9715 35.9626 30.9878 37.8665 32.4958 38.9676C32.908 39.266 33.3908 39.4504 33.8844 39.5752V39.5806Z" fill="#FFB1A5"/>
<path d="M36.2385 37.3404C36.3416 37.1885 36.2385 36.9824 36.1355 36.836C35.4086 35.8379 34.2207 35.187 32.9839 35.1165" stroke="#010015" stroke-width="0.5" stroke-miterlimit="10"/>
<path d="M34.5624 35.7024C33.7596 36.2557 33.5318 37.4924 34.0851 38.3006" stroke="#010015" stroke-width="0.5" stroke-miterlimit="10"/>
<path d="M65.0144 39.3419C62.3999 39.9657 61.0764 38.9567 61.8033 36.326C62.3186 34.4654 66.9292 30.4406 67.6724 34.1237C68.0087 35.789 67.949 37.6875 66.4193 38.756C66.0017 39.049 65.5135 39.2171 65.0144 39.3364V39.3419Z" fill="#FFB1A5"/>
<path d="M62.7145 37.0582C62.6169 36.9064 62.7145 36.7002 62.8285 36.5538C63.577 35.572 64.7812 34.9482 66.0179 34.9048" stroke="#010015" stroke-width="0.5" stroke-miterlimit="10"/>
<path d="M64.4232 35.4526C65.2151 36.0276 65.4158 37.2644 64.8409 38.0563" stroke="#010015" stroke-width="0.5" stroke-miterlimit="10"/>
<path d="M62.362 18.6754C58.7657 11.3092 49.9023 12.79 49.2894 12.9039C47.0546 12.611 40.003 12.253 36.7918 18.5777C32.946 26.1501 36.0216 38.6693 37.1824 42.8515C38.3432 47.0336 40.2905 49.4745 41.6194 50.3099C42.6392 50.95 48.9314 52.5176 49.0887 52.485C49.5281 52.5827 56.021 50.9554 57.0516 50.3316C58.3914 49.5125 60.3767 47.1041 61.6026 42.9437C62.8285 38.7778 66.0939 26.3128 62.3674 18.6754H62.362Z" fill="#FFB1A5"/>
<path d="M34.9367 29.3071C35.1157 34.9104 36.4881 40.3619 37.1769 42.8516C38.3377 47.0337 40.2851 49.4747 41.614 50.31C42.6338 50.9501 48.926 52.5177 49.0833 52.4852C49.208 52.5123 49.7993 52.4038 50.6129 52.2248C41.5706 50.5921 37.4265 39.315 34.9313 29.3071H34.9367Z" fill="#CC785A"/>
<path d="M37.3885 20.5035C37.3885 20.5035 38.4679 37.6117 35.8372 38.1704L35.1971 34.1781C35.1971 34.1781 33.6566 32.8004 33.1684 32.8926C32.6802 32.9848 33.1847 31.3358 32.0456 29.0901C30.901 26.8445 27.4403 23.796 29.9843 22.0711C29.9843 22.0711 24.9235 22.7925 29.827 18.3771C34.7306 13.9618 37.7574 12.6328 37.7574 12.6328C37.7574 12.6328 26.6755 13.0993 29.8162 10.0237C30.5051 9.35111 37.8713 10.6909 37.8713 10.6909C37.8713 10.6909 40.0681 5.27204 42.5904 5.68971C45.1127 6.10738 49.8481 8.58629 52.4626 8.99853C55.0826 9.4162 58.9067 6.05314 59.3678 8.39101C59.8288 10.7289 59.2376 11.3039 59.2376 11.3039C59.2376 11.3039 66.6255 10.7994 66.8804 14.2004C67.1354 17.6015 64.5968 18.6429 64.6836 19.9068C64.7649 21.1707 69.0501 20.4384 64.5426 33.2126C64.5426 33.2126 63.1756 33.7822 62.9478 37.1778C62.9478 37.1778 60.534 26.5624 59.9319 19.5596C59.9319 19.5596 59.026 22.2718 57.67 22.0602C56.3139 21.8541 58.6843 17.7968 58.6843 17.7968C58.6843 17.7968 54.8873 18.3392 52.4681 17.7317C50.0488 17.1241 47.814 16.6143 47.814 16.6143C47.814 16.6143 49.1375 20.1238 48.1666 20.0207C47.1956 19.9122 46.2572 16.9885 46.2572 16.9885C46.2572 16.9885 43.5939 20.9428 42.5307 20.3516C41.4676 19.7549 43.7404 16.4786 43.7404 16.4786C43.7404 16.4786 39.325 20.6065 37.3831 20.4926L37.3885 20.5035Z" fill="#000B07"/>
<path d="M48.9043 27.0396C47.8682 30.4731 46.74 33.8633 45.1995 37.0962C45.1398 37.221 45.0801 37.3674 45.1507 37.4868C45.2049 37.579 45.3134 37.6224 45.411 37.6549C46.7617 38.0943 47.8465 37.9804 49.1918 38.1811" stroke="#010015" stroke-width="0.5" stroke-miterlimit="10"/>
<path d="M46.3711 44.6143C47.7435 44.1749 49.2623 44.1966 50.6238 44.6794" stroke="#010015" stroke-width="0.5" stroke-miterlimit="10"/>
<path d="M59.4112 28.2439C59.3515 28.0215 59.205 27.8208 58.9338 27.6418C58.4402 27.3163 57.7947 27.1807 57.2143 27.1211C56.0969 27.0071 54.9253 27.2295 53.938 27.772C53.1786 28.1896 51.2584 29.7247 52.4409 30.6469C53.2708 31.2923 54.334 31.5256 55.3646 31.5581C56.1349 31.5853 56.9322 31.4713 57.6537 31.2001C58.386 30.9181 58.8362 30.2888 59.1508 29.5837C59.3623 29.1118 59.5251 28.6453 59.4166 28.2439H59.4112Z" fill="#F9F7F2"/>
<path d="M57.1438 29.2961C57.1329 30.1477 56.4386 30.8257 55.587 30.8203C54.7354 30.8094 54.0574 30.1151 54.0628 29.2635C54.0736 28.4119 54.7679 27.7339 55.6195 27.7393C56.4712 27.7501 57.1492 28.4444 57.1438 29.2961Z" fill="#010015"/>
<path d="M59.4112 28.2439C59.3515 28.0215 59.205 27.8208 58.9338 27.6418C58.4402 27.3163 57.7947 27.1807 57.2143 27.1211C56.0969 27.0071 54.9253 27.2295 53.938 27.772C53.3522 28.0974 52.0775 29.0847 52.0721 29.9417C54.4154 28.8677 56.7858 28.6778 59.4329 28.667C59.4491 28.5205 59.4491 28.3795 59.4112 28.2439Z" fill="#DA958A"/>
<path d="M51.3018 31.7371C51.394 31.9649 51.5622 32.1493 51.7303 32.3283C52.0124 32.6321 52.2945 32.9358 52.5765 33.2396" stroke="#010015" stroke-width="0.5" stroke-miterlimit="10"/>
<path d="M42.6989 33.4133C43.1925 33.1258 43.6319 32.7461 43.9844 32.3013" stroke="#010015" stroke-width="0.5" stroke-miterlimit="10"/>
<path d="M51.8714 30.2401C54.6595 29.1064 57.3282 28.9057 60.3008 28.9111C60.5177 28.9111 60.5774 28.5694 60.355 28.526C57.4693 27.9402 54.3449 28.667 51.7412 29.9309C51.5676 30.0123 51.6924 30.316 51.8714 30.2455V30.2401Z" fill="#010015"/>
<path d="M37.3451 28.0052C37.4102 27.7828 37.5621 27.5821 37.8333 27.4139C38.3378 27.0993 38.9832 26.98 39.5636 26.9312C40.6865 26.8444 41.8473 27.0885 42.8237 27.6526C43.5722 28.0865 45.4599 29.6596 44.2611 30.56C43.4203 31.1892 42.3517 31.3954 41.3211 31.4116C40.5509 31.4225 39.7589 31.2923 39.0429 31.0048C38.3161 30.7119 37.8767 30.0664 37.5784 29.3558C37.3777 28.8785 37.2203 28.412 37.3451 28.0106V28.0052Z" fill="#F9F7F2"/>
<path d="M39.5853 29.1064C39.5745 29.958 40.2579 30.6523 41.1096 30.6632C41.9612 30.674 42.6555 29.9905 42.6663 29.1389C42.6772 28.2873 41.9937 27.593 41.1421 27.5822C40.2905 27.5713 39.5962 28.2548 39.5853 29.1064Z" fill="#010015"/>
<path d="M37.3451 28.0052C37.4102 27.7828 37.5621 27.5821 37.8333 27.4139C38.3377 27.0993 38.9832 26.98 39.5636 26.9312C40.6865 26.8444 41.8473 27.0885 42.8236 27.6526C43.404 27.9889 44.6516 29.0032 44.6462 29.8603C42.3246 28.7375 39.9596 28.4988 37.318 28.4283C37.3071 28.2818 37.3071 28.1354 37.3451 28.0052Z" fill="#DA958A"/>
<path d="M44.9717 29.8495C42.3951 28.5314 39.287 27.7449 36.385 28.2656C36.1626 28.3036 36.2223 28.6507 36.4392 28.6507C39.3955 28.7104 42.048 28.9545 44.7981 30.1424C44.9934 30.2292 45.1724 29.9471 44.9717 29.8441V29.8495Z" fill="#010015"/>
<path d="M54.4425 23.9316C55.0771 24.9188 57.3499 25.8355 58.1798 24.6747C58.2829 24.5337 58.272 24.295 58.1798 24.154C57.8327 23.617 57.2794 23.6007 56.6936 23.4976C56.1077 23.3946 55.4894 23.1668 54.8656 23.1939C54.5076 23.2101 54.2309 23.6061 54.4425 23.937V23.9316Z" fill="#010015"/>
<path d="M38.6632 24.897C39.7264 25.4177 41.9612 24.9729 42.5199 23.8555C42.7477 23.3999 42.5958 22.6459 41.9937 22.5537C41.2669 22.4452 40.7515 22.7327 40.1006 23.031C39.5745 23.2751 38.9398 23.4921 38.5384 23.9206C38.2889 24.1918 38.2889 24.7071 38.6632 24.8915V24.897Z" fill="#010015"/>
<path d="M28.2214 92.9449L30.9661 80.865" stroke="#010015" stroke-width="0.5" stroke-miterlimit="10"/>
<path d="M71.963 91.1006L69.8041 80.469" stroke="#010015" stroke-width="0.5" stroke-miterlimit="10"/>
<path d="M60.1814 36.6191C60.1651 38.1542 58.9067 39.3909 57.3662 39.3746C55.8311 39.3584 54.5944 38.0999 54.6106 36.5594C54.6269 35.0243 55.8853 33.7876 57.4258 33.8039C58.9609 33.8201 60.1977 35.0786 60.1814 36.6191Z" fill="#F4978E"/>
<path d="M43.4746 36.4399C43.4583 37.975 42.1999 39.2117 40.6594 39.1954C39.1243 39.1792 37.8875 37.9207 37.9038 36.3802C37.9201 34.8451 39.1785 33.6084 40.719 33.6247C42.2541 33.6409 43.4908 34.8994 43.4746 36.4399Z" fill="#F4978E"/>
</g>
<defs>
<clipPath id="clip0_314_345">
<rect width="67.1311" height="90" fill="white" transform="translate(16.4344 5.67334)"/>
</clipPath>
</defs>
</svg>
