<svg width="100" height="101" viewBox="0 0 100 101" fill="none" xmlns="http://www.w3.org/2000/svg">
<g clip-path="url(#clip0_303_429)">
<path d="M77.5925 42.3974C81.5487 46.5338 86.21 49.9808 89.8529 54.3993C93.4958 58.8099 96.0967 64.615 94.8589 70.2008C93.9423 74.3764 91.0437 77.8077 88.1137 80.9179C88.5916 78.9045 88.6621 76.8363 89.1087 74.8229C89.5474 72.8017 89.5709 70.569 88.5133 68.7906C88.6073 71.7363 87.9179 74.204 86.8368 76.946C85.8027 79.5547 83.899 82.5787 81.2902 83.746C77.5141 85.4382 73.1505 86.2294 69.1238 87.0912C54.1919 90.311 38.508 92.152 23.7406 88.2585C18.8834 86.9815 14.0654 85.0151 10.4617 81.5133C6.86586 78.0114 4.6958 72.739 5.91793 67.8662C6.52899 65.4219 7.9078 62.9698 9.63131 61.1288C11.4097 59.233 12.4124 57.3058 13.329 54.8067C15.3581 49.2836 16.1258 43.3845 16.5175 37.5402C17.0581 29.4241 16.9249 21.2139 18.6171 13.2544C19.7138 8.11519 21.3512 5.13039 26.7176 4.06494C33.9877 2.62346 41.1716 2.27092 48.5357 2.02807C56.5108 1.7617 64.1099 1.37783 72.0616 2.68613C73.8399 2.976 75.6183 3.32853 77.2713 4.04927C80.2248 5.33407 82.6455 7.80183 83.8676 10.7866C85.0898 13.7636 85.1054 17.2263 83.899 20.2111C82.246 24.324 78.5953 27.2227 75.6105 30.4895C74.4432 31.7743 73.3229 33.1923 72.9312 34.8845C72.1321 38.308 75.5321 40.2273 77.5847 42.3739L77.5925 42.3974Z" fill="#422014"/>
<path d="M39.1739 3.14038C34.9199 5.52196 31.6452 7.57451 27.877 10.6612C26.1927 12.04 24.5475 13.5049 23.2862 15.2833C22.0641 17.0068 21.2415 18.981 20.5599 20.9787C19.6747 23.5797 19.0166 26.2746 18.7973 29.0166C18.3115 35.0253 19.9332 41.1438 18.7973 47.0664C17.4498 54.1485 12.4203 59.8909 9.38845 66.4402C7.97831 69.4956 7.00687 73.0758 8.30734 76.1781" stroke="#010015" stroke-width="0.3" stroke-miterlimit="10"/>
<path d="M23.2079 33.6624C23.2079 39.8043 26.1378 45.7739 25.5268 51.8846C25.0646 56.5067 22.636 60.651 20.7793 64.9127C18.9226 69.1745 17.6378 74.1257 19.4788 78.3875" stroke="#010015" stroke-width="0.3" stroke-miterlimit="10"/>
<path d="M31.8646 35.3701C29.7102 39.7416 30.5328 44.9591 31.8489 49.6518C33.1651 54.3444 34.9434 59.0684 34.5517 63.9256C34.2775 67.2786 32.9301 70.5376 30.76 73.1072" stroke="#010015" stroke-width="0.3" stroke-miterlimit="10"/>
<path d="M63.9689 38.0103C62.2454 42.7499 62.1984 47.9674 63.1228 52.9265C64.0473 57.8776 65.9196 62.6095 67.9643 67.2081" stroke="#010015" stroke-width="0.3" stroke-miterlimit="10"/>
<path d="M65.8335 35.0959C65.9588 37.3835 66.1547 39.7338 67.1966 41.7706C68.5519 44.4107 71.145 46.1656 73.7695 47.5444C76.3939 48.9232 79.1907 50.0513 81.4704 51.9394C85.4345 55.2297 87.3617 60.5412 87.3382 65.6961C87.3147 70.851 85.5442 75.857 83.1391 80.4086" stroke="#010015" stroke-width="0.3" stroke-miterlimit="10"/>
<path d="M69.9855 33.9131C70.5574 38.2689 73.7303 41.7551 76.6759 44.9984C79.7547 48.3827 82.7474 51.8376 85.6695 55.363C87.9336 58.1049 90.1819 60.9252 91.6078 64.1764C93.0336 67.4354 93.5663 71.2193 92.3285 74.5566C91.5451 76.6718 90.1114 78.4659 88.7013 80.2207" stroke="#010015" stroke-width="0.3" stroke-miterlimit="10"/>
<path d="M45.7546 43.3062L41.0698 60.3142C41.0698 60.3142 33.4315 60.4865 29.961 60.1418C26.4904 59.7971 21.6333 60.1418 18.6798 64.3096C15.7263 68.4773 7.92352 85.7359 7.92352 85.7359C7.92352 85.7359 21.4609 99.5319 49.3975 99.5319C77.334 99.5319 94.3419 85.7359 94.3419 85.7359C94.3419 85.7359 82.3714 59.6248 76.9893 56.3266C74.6077 54.8616 71.0902 52.6837 61.7206 59.0999C61.7206 59.0999 57.2081 42.4445 57.5528 42.2721C57.8975 42.0998 45.7546 43.3141 45.7546 43.3141V43.3062Z" fill="#EB9F85"/>
<path d="M60.2242 53.4984C58.9472 48.6412 57.3412 42.3739 57.5528 42.2642C57.8583 42.1075 48.2615 43.0555 46.1619 43.267C48.238 49.5813 53.5495 55.1279 60.2242 53.4984Z" fill="#010015"/>
<path d="M76.9893 56.3185C75.7358 55.5508 74.1612 54.595 71.6072 54.783C69.7662 60.6351 65.4731 64.9361 59.8404 66.5421C50.3062 70.0048 36.9098 68.814 30.7287 60.1964C30.4623 60.1807 30.2038 60.1572 29.9688 60.1337C26.4982 59.789 21.6411 60.1337 18.6876 64.3015C15.7341 68.4693 7.93134 85.7279 7.93134 85.7279C7.93134 85.7279 21.4687 99.5238 49.4053 99.5238C77.3418 99.5238 94.3497 85.7279 94.3497 85.7279C94.3497 85.7279 82.3792 59.6167 76.9971 56.3185H76.9893Z" fill="#F1C4CF"/>
<path d="M16.6508 91.682C17.9356 92.2461 23.5056 94.988 24.9941 95.5208C26.9762 90.8516 27.7752 85.9396 29.8513 81.2861C26.8978 85.4852 22.5185 88.3604 16.6508 91.682Z" fill="#F5CCE8"/>
<path d="M82.0188 62.3823C79.6294 72.316 80.5303 83.1272 80.358 93.4761C89.3516 89.7705 94.3419 85.7281 94.3419 85.7281C94.3419 85.7281 87.6437 71.1252 82.0188 62.3745V62.3823Z" fill="#F5CCE8"/>
<path d="M53.4634 2.5293C60.4123 2.5293 74.0593 9.11781 74.9759 16.9285C75.3206 19.8819 77.7492 30.2857 74.6312 35.8401C71.5054 41.3945 66.1312 45.7268 58.8376 47.4659C58.8376 47.4659 40.2707 50.5918 27.4305 34.1087C27.4305 34.1087 21.8761 36.365 21.1867 30.4658C20.4895 24.5667 26.0439 24.9114 26.0439 24.9114C26.0439 24.9114 20.842 2.5293 53.4634 2.5293Z" fill="#EB9F85"/>
<path d="M65.5906 44.8416C69.5155 42.6323 72.563 39.5065 74.6312 35.8401C76.8639 31.8604 76.2607 25.4051 75.6026 20.9709C74.4275 29.847 71.8501 38.966 65.5984 44.8416H65.5906Z" fill="#F2B391"/>
<path d="M33.1416 25.7341C37.1292 22.7728 42.8795 22.4046 47.2039 24.841C45.9818 27.4185 43.561 29.1576 40.7172 29.4005C37.8734 29.6434 35.0453 27.8493 33.1338 25.7341H33.1416Z" fill="#F9F7F2"/>
<path d="M39.4716 27.771C40.3803 29.189 42.2683 29.5964 43.6785 28.6876C45.0965 27.7788 45.5038 25.8908 44.5951 24.4807C43.6863 23.0627 41.7983 22.6553 40.3881 23.5641C38.9702 24.4728 38.5628 26.3609 39.4716 27.771Z" fill="#010015"/>
<path d="M73.0409 18.8478C68.1289 18.1192 62.8879 20.5165 60.2242 24.7078C62.5196 26.3999 65.4731 26.7916 68.0976 25.6635C70.7142 24.5354 72.3593 21.6133 73.0409 18.8478Z" fill="#F9F7F2"/>
<path d="M70.9883 22.483C70.8473 24.2927 69.2648 25.6402 67.4551 25.4992C65.6454 25.3582 64.2979 23.7757 64.439 21.966C64.58 20.1563 66.1625 18.8088 67.9722 18.9498C69.7819 19.0908 71.1293 20.6733 70.9883 22.483Z" fill="#010015"/>
<path d="M26.2945 30.7951C25.7148 29.6199 24.5789 28.7269 23.2941 28.4448" stroke="#010015" stroke-miterlimit="10"/>
<path d="M25.2604 29.3613C24.524 29.8157 24.1402 30.7871 24.3595 31.6254" stroke="#010015" stroke-miterlimit="10"/>
<path d="M66.1468 7.42583C65.4574 6.98712 64.6505 6.66592 63.7026 6.5249C64.5252 6.68942 65.3556 7.00278 66.1468 7.42583Z" stroke="#010015" stroke-miterlimit="10"/>
<path d="M57.8583 1.73031C39.0642 3.2188 33.3845 1.45612 26.083 8.358C18.7816 15.252 22.9729 25.7968 22.9729 25.7968C22.9729 25.7968 26.4904 25.6636 27.2973 28.3664C27.2973 28.3664 29.0757 14.0299 35.2725 10.1128C37.8421 8.49118 41.2186 7.13587 41.2186 7.13587C41.2186 7.13587 54.0588 11.3271 49.1938 19.8428C49.1938 19.8428 60.8196 19.1691 57.7095 7.26905C57.7095 7.26905 65.2773 10.105 64.3372 16.8659L68.6303 16.3253C69.5939 12.9566 68.8653 9.16491 66.139 7.4179C65.3399 7.00269 64.5173 6.68149 63.6948 6.51697C64.6505 6.65015 65.4496 6.97919 66.139 7.4179C69.2883 9.0709 71.9754 12.4631 72.4455 15.8396L75.0151 15.5106C75.0151 15.5106 76.6368 0.233989 57.8427 1.72248L57.8583 1.73031Z" fill="#422014"/>
<path d="M35.0139 17.7824C36.2282 17.7824 37.5365 17.1557 38.696 16.811C39.926 16.4506 41.0697 16.3331 42.0412 15.4165C42.2292 15.2363 42.1587 14.9464 41.9628 14.8132C39.8946 13.4109 35.625 15.1893 34.7476 17.4377C34.6849 17.61 34.8494 17.7824 35.0139 17.7902V17.7824Z" fill="#422014"/>
<path d="M72.2261 14.5312C71.8266 12.8704 68.9044 11.9538 67.5413 12.7999C66.9929 13.1446 66.9537 13.9907 67.5413 14.3197C68.2542 14.7192 69.1316 14.7036 69.9229 14.7741C70.6044 14.8367 71.3957 15.0013 72.0616 14.8132C72.1869 14.7741 72.2496 14.6566 72.2183 14.5312H72.2261Z" fill="#422014"/>
<path d="M54.4269 22.4907L60.3652 30.0193C60.5532 30.2622 60.7569 30.5364 60.7334 30.8419C60.7178 31.0769 60.5689 31.2885 60.4201 31.4686C59.3938 32.7613 58.156 33.8816 56.7693 34.7668" stroke="#010015" stroke-width="0.5" stroke-miterlimit="10"/>
<path d="M62.2924 37.7203C61.4228 37.5714 60.5532 37.5244 59.6758 37.5793C58.8924 37.6263 58.109 37.7673 57.3334 37.9005C55.4297 38.2295 53.526 38.5507 51.6223 38.8797C53.1735 40.3369 54.8343 41.371 56.7067 41.8254C57.1611 41.9351 57.6233 42.0134 58.0776 41.9507C58.8689 41.8489 59.5975 41.3475 60.2555 40.7599C61.1173 39.9922 61.6343 38.7857 62.2924 37.7203Z" fill="#B24C3F"/>
<path d="M66.6325 34.5397C66.2565 34.5084 65.9118 34.5711 65.6141 34.8766C63.7182 36.7803 61.7362 38.7388 59.4095 39.4439C57.0357 40.1646 54.5523 39.5144 52.1629 38.8642C51.0269 38.5508 49.8283 38.1983 48.9666 37.172C48.661 36.796 48.0891 37.1563 47.7288 37.4462" stroke="#010015" stroke-width="0.5" stroke-miterlimit="10"/>
<path d="M39.7458 38.8329C42.2682 38.8329 44.3131 36.788 44.3131 34.2655C44.3131 31.7431 42.2682 29.6982 39.7458 29.6982C37.2233 29.6982 35.1785 31.7431 35.1785 34.2655C35.1785 36.788 37.2233 38.8329 39.7458 38.8329Z" fill="#E58C77"/>
<path d="M70.6672 34.4691C73.1896 34.4691 75.2345 32.4242 75.2345 29.9018C75.2345 27.3793 73.1896 25.3345 70.6672 25.3345C68.1447 25.3345 66.0999 27.3793 66.0999 29.9018C66.0999 32.4242 68.1447 34.4691 70.6672 34.4691Z" fill="#E58C77"/>
<path d="M42.0803 27.3793C41.4928 27.207 40.9679 26.8074 40.6467 26.2825C40.4822 26.0162 40.3647 25.7028 40.396 25.3895C40.4273 25.0761 40.6389 24.7706 40.9444 24.6922C41.1794 24.6295 41.4379 24.7157 41.6338 24.8724C41.8297 25.0291 41.9628 25.2328 42.0882 25.4443C42.2449 25.1858 42.4642 24.9116 42.7149 24.7392C42.9656 24.5669 43.326 24.5199 43.561 24.7157C43.7647 24.8802 43.8195 25.1779 43.8117 25.4443C43.7804 26.4157 43.0126 27.1208 42.0803 27.3872V27.3793Z" fill="#FD525B"/>
<path d="M68.3717 23.9324C67.698 23.901 67.0399 23.6112 66.562 23.1333C66.3192 22.8904 66.1155 22.5849 66.0685 22.248C66.0215 21.9033 66.1703 21.5273 66.4758 21.3628C66.7109 21.2374 67.0086 21.2609 67.2514 21.3785C67.4943 21.4881 67.698 21.6761 67.8782 21.872C67.98 21.5586 68.1367 21.2061 68.3639 20.9632C68.5911 20.7204 68.9593 20.5715 69.257 20.7204C69.5233 20.8457 69.6487 21.1434 69.7113 21.4333C69.9307 22.4752 69.2961 23.4232 68.3717 23.9481V23.9324Z" fill="#FD525B"/>
<path d="M47.3527 24.23C42.3075 22.0208 34.3089 22.1853 30.4702 26.7448C30.2978 26.9485 30.5093 27.2148 30.7522 27.1051C33.4236 25.8595 35.6564 24.3789 38.6647 23.9245C41.673 23.4701 44.3679 23.8461 47.149 24.7314C47.4389 24.8254 47.6504 24.3554 47.3606 24.23H47.3527Z" fill="#010015"/>
<path d="M60.232 24.5825C62.3473 22.389 64.7993 20.6733 67.7136 19.7097C70.6279 18.7461 73.0017 19.1221 75.8063 18.9341C76.0727 18.9184 76.104 18.5816 75.869 18.4797C70.4243 16.2313 63.1855 19.9291 59.8482 24.1908C59.6366 24.465 59.9813 24.8411 60.2399 24.5825H60.232Z" fill="#010015"/>
<path d="M24.8296 95.4344L30.6739 79.1472" stroke="#010015" stroke-width="0.5" stroke-miterlimit="10"/>
<path d="M70.5653 75.387L77.2557 94.6041" stroke="#010015" stroke-width="0.5" stroke-miterlimit="10"/>
<path d="M27.3992 60.1261C27.5324 60.8077 27.8379 60.7059 28.2218 61.2778C35.155 71.6032 50.1887 73.0368 60.8745 68.8847C67.0948 66.981 71.8579 61.9672 73.9731 55.1201" stroke="#E8CB89" stroke-width="0.5" stroke-miterlimit="10"/>
<path d="M48.8412 19.5843C49.6247 17.7198 49.5228 15.5419 48.7707 13.6617C48.0187 11.7815 46.6555 10.1834 45.0495 8.9534C44.1251 8.24832 42.5504 7.3474 41.3988 7.13588C42.9578 6.39163 45.2689 6.50131 46.9375 6.94002C48.473 7.3474 50.0399 7.80961 51.3168 8.75754C52.8837 9.917 53.9099 11.7815 54.0431 13.7244C54.1763 15.6673 53.432 17.6571 52.0376 19.0281" stroke="#010015" stroke-width="0.3" stroke-miterlimit="10"/>
<path d="M41.4223 7.12808C45.8564 5.74144 50.6353 5.46725 55.1947 6.329C56.7929 6.63453 58.4302 7.10458 59.6445 8.18569C60.7883 9.1963 61.4542 10.6299 61.9791 12.0558C62.598 13.7479 63.068 15.6516 62.363 17.3125" stroke="#010015" stroke-width="0.3" stroke-miterlimit="10"/>
<path d="M26.6941 27.301C27.2973 27.6144 28.0651 27.2227 28.4098 26.6351C28.7545 26.0554 28.7936 25.3425 28.8563 24.6687C29.5536 17.2263 34.4734 10.3244 41.2813 7.24561" stroke="#010015" stroke-width="0.3" stroke-miterlimit="10"/>
<path d="M39.7066 2.74097C34.5595 2.78014 29.4439 4.60549 25.4484 7.84883C21.453 11.0843 18.5936 15.7065 17.489 20.736" stroke="#010015" stroke-width="0.3" stroke-miterlimit="10"/>
<path d="M22.6595 25.6637C27.2895 17.5789 35.2176 11.672 39.3775 3.33643" stroke="#010015" stroke-width="0.3" stroke-miterlimit="10"/>
<path d="M77.1459 28.7894C79.7312 25.3502 81.7289 21.3235 81.9874 17.0304C82.246 12.7373 80.5068 8.17778 76.9188 5.80404C74.6468 4.30772 71.8814 3.79066 69.1865 3.40679C61.3131 2.30218 53.3145 2.09849 45.3942 2.80356" stroke="#010015" stroke-width="0.3" stroke-miterlimit="10"/>
<path d="M41.0541 3.06201C46.4753 4.23713 52.0845 3.9316 57.639 3.9316C63.1855 3.9316 68.8966 4.28414 73.9183 6.62655C75.5556 7.39429 77.146 8.4049 78.1644 9.90905C79.8722 12.4316 79.6372 15.7768 78.9321 18.7381C78.2271 21.6994 77.1225 24.6451 77.3027 27.6847" stroke="#010015" stroke-width="0.3" stroke-miterlimit="10"/>
<path d="M40.3098 3.17188C42.472 3.86128 44.7518 4.0963 47.0158 4.32349C51.779 4.80138 56.5422 5.27926 61.3053 5.76498C63.4205 5.9765 65.7003 6.25853 67.2749 7.68434C69.5938 9.78389 69.4685 13.3954 69.163 16.4978" stroke="#010015" stroke-width="0.3" stroke-miterlimit="10"/>
</g>
<defs>
<clipPath id="clip0_303_429">
<rect width="90.8046" height="100" fill="white" transform="translate(4.59772 0.67334)"/>
</clipPath>
</defs>
</svg>
