<svg width="75" height="76" viewBox="0 0 75 76" fill="none" xmlns="http://www.w3.org/2000/svg">
<circle cx="37.5" cy="38.1733" r="36" fill="white" stroke="#F3012A"/>
<g clip-path="url(#clip0_342_813)">
<path d="M58.1944 31.9663C61.1616 35.0686 64.6576 37.6539 67.3897 40.9678C70.1219 44.2757 72.0726 48.6295 71.1442 52.8188C70.4568 55.9505 68.2828 58.5241 66.0853 60.8567C66.4437 59.3466 66.4966 57.7955 66.8315 56.2855C67.1606 54.7696 67.1782 53.095 66.385 51.7612C66.4555 53.9705 65.9384 55.8213 65.1276 57.8777C64.352 59.8343 62.9243 62.1023 60.9677 62.9778C58.1356 64.2469 54.8629 64.8403 51.8429 65.4867C40.644 67.9015 28.881 69.2823 17.8055 66.3621C14.1626 65.4044 10.5491 63.9296 7.84633 61.3032C5.14942 58.6768 3.52188 54.7225 4.43847 51.0679C4.89677 49.2347 5.93088 47.3957 7.22351 46.0149C8.55727 44.593 9.30935 43.1476 9.9968 41.2733C11.5186 37.131 12.0944 32.7066 12.3882 28.3234C12.7936 22.2363 12.6937 16.0787 13.9628 10.1091C14.7854 6.25467 16.0134 4.01606 20.0382 3.21698C25.4908 2.13587 30.8787 1.87147 36.4018 1.68932C42.3831 1.48955 48.0825 1.20165 54.0462 2.18287C55.38 2.40027 56.7137 2.66467 57.9535 3.20523C60.1686 4.16883 61.9842 6.01964 62.9008 8.25825C63.8173 10.491 63.8291 13.088 62.9243 15.3266C61.6845 18.4113 58.9465 20.5853 56.7079 23.0354C55.8324 23.999 54.9922 25.0625 54.6984 26.3316C54.0991 28.8993 56.6491 30.3388 58.1885 31.9487L58.1944 31.9663Z" fill="#422014"/>
<path d="M29.3804 2.52368C26.19 4.30987 23.734 5.84928 20.9078 8.16426C19.6445 9.19837 18.4107 10.2971 17.4647 11.6309C16.5481 12.9235 15.9311 14.4042 15.42 15.9024C14.756 17.8531 14.2625 19.8743 14.098 21.9308C13.7337 26.4374 14.9499 31.0262 14.098 35.4682C13.0874 40.7798 9.31521 45.0866 7.04135 49.9986C5.98375 52.2901 5.25517 54.9752 6.23052 57.302" stroke="#010015" stroke-width="0.225" stroke-miterlimit="10"/>
<path d="M17.4059 25.415C17.4059 30.0215 19.6034 34.4987 19.1451 39.0817C18.7985 42.5483 16.977 45.6565 15.5845 48.8528C14.192 52.0492 13.2284 55.7625 14.6091 58.9589" stroke="#010015" stroke-width="0.225" stroke-miterlimit="10"/>
<path d="M23.8985 26.6958C22.2827 29.9744 22.8996 33.8875 23.8867 37.407C24.8738 40.9265 26.2076 44.4695 25.9138 48.1124C25.7082 50.6271 24.6975 53.0714 23.07 54.9986" stroke="#010015" stroke-width="0.225" stroke-miterlimit="10"/>
<path d="M47.9767 28.676C46.6841 32.2308 46.6488 36.1439 47.3421 39.8632C48.0355 43.5766 49.4397 47.1254 50.9733 50.5744" stroke="#010015" stroke-width="0.225" stroke-miterlimit="10"/>
<path d="M49.3751 26.4902C49.4691 28.2059 49.616 29.9686 50.3974 31.4962C51.4139 33.4763 53.3588 34.7925 55.3271 35.8266C57.2954 36.8607 59.393 37.7068 61.1028 39.1228C64.0759 41.5905 65.5213 45.5742 65.5036 49.4404C65.486 53.3065 64.1581 57.061 62.3543 60.4747" stroke="#010015" stroke-width="0.225" stroke-miterlimit="10"/>
<path d="M52.4892 25.603C52.9181 28.8699 55.2977 31.4845 57.5069 33.917C59.816 36.4553 62.0605 39.0464 64.2521 41.6904C65.9502 43.7469 67.6365 45.8621 68.7058 48.3005C69.7752 50.7447 70.1747 53.5827 69.2464 56.0857C68.6588 57.6721 67.5836 59.0176 66.526 60.3337" stroke="#010015" stroke-width="0.225" stroke-miterlimit="10"/>
<path d="M34.3159 32.648L30.8023 45.4039C30.8023 45.4039 25.0736 45.5332 22.4707 45.2747C19.8678 45.0162 16.2249 45.2747 14.0098 48.4005C11.7947 51.5263 5.94263 64.4703 5.94263 64.4703C5.94263 64.4703 16.0957 74.8172 37.0481 74.8172C58.0005 74.8172 70.7564 64.4703 70.7564 64.4703C70.7564 64.4703 61.7785 44.8869 57.742 42.4133C55.9558 41.3145 53.3176 39.6811 46.2904 44.4932C46.2904 44.4932 42.9061 32.0017 43.1646 31.8724C43.4231 31.7432 34.3159 32.6539 34.3159 32.6539V32.648Z" fill="#EB9F85"/>
<path d="M45.1682 40.2922C44.2104 36.6493 43.0059 31.9488 43.1646 31.8666C43.3937 31.749 36.1961 32.46 34.6215 32.6186C36.1785 37.3544 40.1622 41.5143 45.1682 40.2922Z" fill="#010015"/>
<path d="M57.742 42.4072C56.8019 41.8313 55.6209 41.1145 53.7054 41.2555C52.3246 45.6446 49.1048 48.8703 44.8803 50.0748C37.7296 52.6718 27.6824 51.7787 23.0465 45.3156C22.8467 45.3038 22.6528 45.2862 22.4766 45.2686C19.8737 45.01 16.2308 45.2686 14.0157 48.3944C11.8006 51.5202 5.94849 64.4642 5.94849 64.4642C5.94849 64.4642 16.1015 74.8111 37.0539 74.8111C58.0064 74.8111 70.7623 64.4642 70.7623 64.4642C70.7623 64.4642 61.7844 44.8808 57.7478 42.4072H57.742Z" fill="#F1C4CF"/>
<path d="M12.488 68.9297C13.4516 69.3528 17.6292 71.4092 18.7456 71.8088C20.2321 68.3069 20.8314 64.6229 22.3884 61.1328C20.1733 64.2821 16.8889 66.4385 12.488 68.9297Z" fill="#F5CCE8"/>
<path d="M61.5141 46.9551C59.7221 54.4054 60.3977 62.5137 60.2685 70.2754C67.0137 67.4962 70.7564 64.4644 70.7564 64.4644C70.7564 64.4644 65.7328 53.5123 61.5141 46.9492V46.9551Z" fill="#F5CCE8"/>
<path d="M40.0975 2.06543C45.3092 2.06543 55.5445 7.00681 56.2319 12.8648C56.4905 15.0799 58.3119 22.8827 55.9734 27.0485C53.629 31.2143 49.5984 34.4635 44.1282 35.7679C44.1282 35.7679 30.203 38.1123 20.5729 25.75C20.5729 25.75 16.4071 27.4422 15.89 23.0178C15.3671 18.5935 19.5329 18.852 19.5329 18.852C19.5329 18.852 15.6315 2.06543 40.0975 2.06543Z" fill="#EB9F85"/>
<path d="M49.193 33.7995C52.1366 32.1425 54.4223 29.7982 55.9734 27.0484C57.648 24.0636 57.1955 19.2221 56.702 15.8965C55.8206 22.5535 53.8876 29.3928 49.1988 33.7995H49.193Z" fill="#F2B391"/>
<path d="M24.8562 19.4689C27.8469 17.2479 32.1596 16.9718 35.4029 18.7991C34.4863 20.7322 32.6707 22.0366 30.5379 22.2187C28.4051 22.4009 26.284 21.0553 24.8503 19.4689H24.8562Z" fill="#F9F7F2"/>
<path d="M29.6037 20.9967C30.2853 22.0602 31.7013 22.3657 32.7589 21.6842C33.8224 21.0026 34.1279 19.5866 33.4463 18.529C32.7648 17.4655 31.3488 17.1599 30.2911 17.8415C29.2277 18.5231 28.9221 19.9391 29.6037 20.9967Z" fill="#010015"/>
<path d="M54.7806 14.3042C51.0966 13.7578 47.1659 15.5557 45.1682 18.6992C46.8897 19.9683 49.1048 20.2621 51.0731 19.416C53.0356 18.5699 54.2695 16.3783 54.7806 14.3042Z" fill="#F9F7F2"/>
<path d="M53.2413 17.0305C53.1355 18.3878 51.9486 19.3984 50.5914 19.2927C49.2341 19.1869 48.2235 18 48.3293 16.6428C48.435 15.2855 49.6219 14.2749 50.9792 14.3806C52.3364 14.4864 53.347 15.6733 53.2413 17.0305Z" fill="#010015"/>
<path d="M19.7209 23.2646C19.2861 22.3833 18.4342 21.7135 17.4706 21.502" stroke="#010015" stroke-width="0.75" stroke-miterlimit="10"/>
<path d="M18.9453 22.1895C18.393 22.5302 18.1051 23.2588 18.2696 23.8875" stroke="#010015" stroke-width="0.75" stroke-miterlimit="10"/>
<path d="M49.6101 5.73771C49.093 5.40867 48.4879 5.16777 47.7769 5.06201C48.3939 5.1854 49.0167 5.42042 49.6101 5.73771Z" stroke="#010015" stroke-width="0.75" stroke-miterlimit="10"/>
<path d="M43.3937 1.46601C29.2982 2.58237 25.0383 1.26036 19.5623 6.43677C14.0862 11.6073 17.2297 19.5159 17.2297 19.5159C17.2297 19.5159 19.8678 19.416 20.473 21.4431C20.473 21.4431 21.8068 10.6907 26.4544 7.75291C28.3816 6.53666 30.9139 5.52018 30.9139 5.52018C30.9139 5.52018 40.5441 8.66362 36.8953 15.0504C36.8953 15.0504 45.6147 14.5451 43.2821 5.62006C43.2821 5.62006 48.9579 7.74703 48.2529 12.8177L51.4727 12.4123C52.1954 9.88575 51.649 7.04196 49.6043 5.7317C49.0049 5.42029 48.388 5.17939 47.7711 5.056C48.4879 5.15589 49.0872 5.40266 49.6043 5.7317C51.9662 6.97145 53.9816 9.51559 54.3341 12.048L56.2613 11.8012C56.2613 11.8012 57.4776 0.343766 43.382 1.46013L43.3937 1.46601Z" fill="#422014"/>
<path d="M26.2605 13.505C27.1712 13.505 28.1524 13.035 29.022 12.7764C29.9445 12.5061 30.8023 12.418 31.5309 11.7306C31.6719 11.5954 31.619 11.378 31.4721 11.2781C29.921 10.2264 26.7188 11.5602 26.0607 13.2465C26.0137 13.3757 26.1371 13.505 26.2605 13.5109V13.505Z" fill="#422014"/>
<path d="M54.1696 11.0666C53.8699 9.821 51.6783 9.13355 50.6559 9.76812C50.2447 10.0266 50.2153 10.6612 50.6559 10.908C51.1906 11.2076 51.8487 11.1959 52.4421 11.2488C52.9533 11.2958 53.5467 11.4192 54.0462 11.2781C54.1402 11.2488 54.1872 11.1606 54.1637 11.0666H54.1696Z" fill="#422014"/>
<path d="M40.8202 17.0364L45.2739 22.6828C45.4149 22.865 45.5677 23.0706 45.5501 23.2998C45.5383 23.476 45.4267 23.6347 45.315 23.7698C44.5453 24.7393 43.617 25.5795 42.577 26.2435" stroke="#010015" stroke-width="0.375" stroke-miterlimit="10"/>
<path d="M46.7193 28.4586C46.0671 28.3469 45.415 28.3117 44.7569 28.3528C44.1693 28.388 43.5818 28.4938 43.0001 28.5937C41.5723 28.8405 40.1445 29.0814 38.7168 29.3281C39.8801 30.421 41.1258 31.1966 42.53 31.5374C42.8708 31.6196 43.2175 31.6784 43.5583 31.6314C44.1517 31.555 44.6981 31.179 45.1917 30.7383C45.838 30.1625 46.2258 29.2576 46.7193 28.4586Z" fill="#B24C3F"/>
<path d="M49.9744 26.0731C49.6924 26.0496 49.4339 26.0966 49.2106 26.3257C47.7887 27.7535 46.3022 29.2224 44.5571 29.7512C42.7768 30.2918 40.9142 29.8041 39.1222 29.3164C38.2702 29.0814 37.3712 28.817 36.7249 28.0473C36.4958 27.7652 36.0668 28.0355 35.7966 28.2529" stroke="#010015" stroke-width="0.375" stroke-miterlimit="10"/>
<path d="M29.8093 29.2929C31.7012 29.2929 33.2348 27.7592 33.2348 25.8674C33.2348 23.9755 31.7012 22.4419 29.8093 22.4419C27.9175 22.4419 26.3839 23.9755 26.3839 25.8674C26.3839 27.7592 27.9175 29.2929 29.8093 29.2929Z" fill="#E58C77"/>
<path d="M53.0003 26.0201C54.8922 26.0201 56.4258 24.4865 56.4258 22.5947C56.4258 20.7028 54.8922 19.1692 53.0003 19.1692C51.1085 19.1692 49.5749 20.7028 49.5749 22.5947C49.5749 24.4865 51.1085 26.0201 53.0003 26.0201Z" fill="#E58C77"/>
<path d="M31.5603 20.7028C31.1196 20.5735 30.7259 20.2738 30.485 19.8802C30.3616 19.6804 30.2735 19.4454 30.297 19.2104C30.3205 18.9753 30.4792 18.7462 30.7083 18.6874C30.8846 18.6404 31.0785 18.7051 31.2254 18.8226C31.3723 18.9401 31.4721 19.0928 31.5661 19.2515C31.6837 19.0576 31.8482 18.8519 32.0362 18.7227C32.2242 18.5934 32.4945 18.5582 32.6708 18.7051C32.8235 18.8284 32.8647 19.0517 32.8588 19.2515C32.8353 19.9801 32.2595 20.5089 31.5603 20.7086V20.7028Z" fill="#FD525B"/>
<path d="M51.2788 18.1177C50.7735 18.0942 50.28 17.8768 49.9215 17.5184C49.7394 17.3362 49.5866 17.1071 49.5514 16.8544C49.5161 16.5959 49.6278 16.3139 49.8569 16.1905C50.0332 16.0965 50.2565 16.1141 50.4386 16.2022C50.6207 16.2845 50.7735 16.4255 50.9086 16.5724C50.985 16.3374 51.1025 16.073 51.2729 15.8908C51.4433 15.7087 51.7195 15.597 51.9428 15.7087C52.1425 15.8027 52.2365 16.026 52.2835 16.2434C52.4481 17.0248 51.9721 17.7358 51.2788 18.1294V18.1177Z" fill="#FD525B"/>
<path d="M35.5146 18.341C31.7307 16.684 25.7317 16.8074 22.8526 20.227C22.7234 20.3798 22.882 20.5796 23.0641 20.4973C25.0677 19.5631 26.7423 18.4526 28.9985 18.1118C31.2547 17.771 33.2759 18.0531 35.3618 18.717C35.5792 18.7875 35.7378 18.435 35.5204 18.341H35.5146Z" fill="#010015"/>
<path d="M45.1741 18.6052C46.7605 16.96 48.5995 15.6732 50.7853 14.9505C52.971 14.2278 54.7513 14.5099 56.8548 14.3689C57.0545 14.3571 57.078 14.1045 56.9018 14.0281C52.8182 12.3418 47.3892 15.1151 44.8862 18.3114C44.7275 18.517 44.986 18.7991 45.1799 18.6052H45.1741Z" fill="#010015"/>
<path d="M18.6222 71.7442L23.0054 59.5288" stroke="#010015" stroke-width="0.375" stroke-miterlimit="10"/>
<path d="M52.924 56.7085L57.9417 71.1214" stroke="#010015" stroke-width="0.375" stroke-miterlimit="10"/>
<path d="M20.5494 45.2628C20.6493 45.774 20.8784 45.6976 21.1663 46.1265C26.3662 53.8706 37.6415 54.9458 45.6558 51.8317C50.3211 50.404 53.8934 46.6436 55.4799 41.5083" stroke="#E8CB89" stroke-width="0.375" stroke-miterlimit="10"/>
<path d="M36.6309 14.8567C37.2185 13.4583 37.1421 11.8249 36.578 10.4147C36.014 9.0046 34.9916 7.80598 33.7871 6.88351C33.0938 6.3547 31.9128 5.67901 31.0491 5.52036C32.2183 4.96218 33.9516 5.04444 35.2031 5.37347C36.3547 5.67901 37.5299 6.02567 38.4876 6.73662C39.6627 7.6062 40.4324 9.0046 40.5323 10.4617C40.6322 11.9189 40.074 13.4113 39.0281 14.4395" stroke="#010015" stroke-width="0.225" stroke-miterlimit="10"/>
<path d="M31.0667 5.5144C34.3923 4.47442 37.9764 4.26877 41.396 4.91509C42.5947 5.14423 43.8227 5.49677 44.7334 6.3076C45.5912 7.06556 46.0906 8.14079 46.4843 9.21015C46.9485 10.4793 47.301 11.9071 46.7722 13.1527" stroke="#010015" stroke-width="0.225" stroke-miterlimit="10"/>
<path d="M20.0206 20.6441C20.473 20.8791 21.0488 20.5853 21.3073 20.1447C21.5659 19.7099 21.5952 19.1752 21.6422 18.6699C22.1652 13.0881 25.855 7.91165 30.9609 5.60254" stroke="#010015" stroke-width="0.225" stroke-miterlimit="10"/>
<path d="M29.7799 2.22412C25.9197 2.2535 22.0829 3.62252 19.0863 6.05502C16.0898 8.48164 13.9452 11.9482 13.1167 15.7204" stroke="#010015" stroke-width="0.225" stroke-miterlimit="10"/>
<path d="M16.9946 19.4161C20.4671 13.3525 26.4132 8.9223 29.5332 2.67065" stroke="#010015" stroke-width="0.225" stroke-miterlimit="10"/>
<path d="M57.8595 21.7603C59.7984 19.1809 61.2967 16.1609 61.4906 12.941C61.6845 9.72121 60.3801 6.30161 57.6891 4.5213C55.9852 3.39906 53.9111 3.01127 51.8899 2.72337C45.9849 1.89491 39.9859 1.74214 34.0457 2.27094" stroke="#010015" stroke-width="0.225" stroke-miterlimit="10"/>
<path d="M30.7906 2.46484C34.8565 3.34618 39.0634 3.11704 43.2292 3.11704C47.3891 3.11704 51.6725 3.38144 55.4387 5.13824C56.6667 5.71405 57.8595 6.47201 58.6233 7.60012C59.9042 9.49207 59.7279 12.001 59.1991 14.2219C58.6703 16.4429 57.8419 18.6521 57.977 20.9319" stroke="#010015" stroke-width="0.225" stroke-miterlimit="10"/>
<path d="M30.2324 2.54736C31.8541 3.06442 33.5639 3.24069 35.2619 3.41108C38.8343 3.76949 42.4066 4.1279 45.979 4.49219C47.5654 4.65083 49.2752 4.86235 50.4562 5.93171C52.1954 7.50638 52.1014 10.215 51.8722 12.5418" stroke="#010015" stroke-width="0.225" stroke-miterlimit="10"/>
</g>
<defs>
<clipPath id="clip0_342_813">
<rect width="68.1034" height="75" fill="white" transform="translate(3.4483 0.67334)"/>
</clipPath>
</defs>
</svg>
