<svg width="100" height="101" viewBox="0 0 100 101" fill="none" xmlns="http://www.w3.org/2000/svg">
<rect width="100" height="100" transform="translate(0 0.67334)" fill=""/>
<path fill-rule="evenodd" clip-rule="evenodd" d="M26.3208 18.2469C26.2033 18.3015 26.0372 18.4224 25.9516 18.5156C25.866 18.6087 25.6708 18.9573 25.5177 19.2902C25.3647 19.6232 25.0853 20.136 24.8968 20.4297C24.7085 20.7235 24.2903 21.3164 23.9675 21.7473C23.6447 22.1782 23.1039 22.8512 22.7656 23.2429C22.3182 23.7609 22.0462 24.1616 21.7678 24.7124C21.5115 25.2199 21.3331 25.6951 21.2274 26.1526C21.094 26.7297 21.0745 26.9816 21.1012 27.781C21.1241 28.471 21.1769 28.8867 21.2964 29.3185C21.3865 29.6439 21.6004 30.185 21.7718 30.5208C21.9431 30.8566 22.0833 31.146 22.0833 31.1639C22.0833 31.1818 21.7869 31.181 21.4246 31.1621C20.9459 31.1371 20.6976 31.1559 20.5165 31.2308C20.3794 31.2874 20.178 31.4193 20.0688 31.5238C19.9578 31.6302 19.826 31.8718 19.7698 32.072C19.6912 32.3518 19.6734 32.8969 19.6883 34.5666C19.7042 36.3542 19.7258 36.7381 19.8203 36.9169C19.8824 37.0344 20.0088 37.2011 20.1013 37.2873C20.1936 37.3737 20.3879 37.4938 20.5331 37.5544C20.7085 37.6278 21.024 37.6646 21.4757 37.6646H22.1546V38.2194C22.1546 38.5245 22.204 38.9652 22.2644 39.1987C22.3248 39.4322 22.4419 39.7636 22.5246 39.9352C22.6073 40.1069 22.8334 40.4378 23.0271 40.6706C23.2208 40.9033 23.5764 41.2394 23.8174 41.4174C24.0584 41.5953 24.5485 41.8869 24.9065 42.0652L25.5575 42.3895L25.6386 43.0361C25.6833 43.3917 25.8331 44.4037 25.9717 45.285C26.1102 46.1664 26.3674 47.6406 26.5431 48.5611C26.719 49.4816 26.9878 50.8116 27.1406 51.5167C27.2934 52.2217 27.5013 53.1511 27.6026 53.582C27.7038 54.0129 27.882 54.75 27.9984 55.22C28.1149 55.6901 28.5036 56.9566 28.8623 58.0347L29.5144 59.9947L28.9722 61.3463C28.674 62.0897 28.3291 62.9704 28.2058 63.3033C28.0825 63.6363 27.8359 64.3253 27.6578 64.8345C27.4797 65.3438 27.2122 66.1651 27.0633 66.6598C26.9145 67.1545 26.7128 67.9397 26.615 68.4047C26.5173 68.8697 26.4046 69.6057 26.3645 70.0403C26.3167 70.5581 26.315 71.0613 26.3596 71.5003C26.3971 71.8687 26.463 72.3433 26.5062 72.555C26.5494 72.7667 26.6621 73.1453 26.7566 73.3963C26.8511 73.6474 27.0118 74.019 27.1139 74.2221C27.2158 74.4253 27.4357 74.7838 27.6024 75.0188C27.769 75.2538 28.1599 75.6893 28.4711 75.9865C28.7823 76.2836 29.3068 76.6929 29.6367 76.8959C29.9667 77.099 30.4868 77.3615 30.7926 77.4795C31.0983 77.5974 31.6755 77.7722 32.0751 77.868C32.4748 77.9637 33.0902 78.0746 33.4427 78.1145C33.7952 78.1543 34.2493 78.1871 34.4519 78.1875L34.82 78.188L34.9325 78.5263C34.9944 78.7124 35.273 79.2649 35.5518 79.7543C35.8305 80.2435 36.3776 81.1312 36.7677 81.7267C37.4174 82.7189 37.5075 82.8249 37.8418 82.9915L38.2067 83.1733L56.8698 83.1729C69.879 83.1727 75.6159 83.1495 75.8067 83.0965C75.9573 83.0547 76.1895 82.9187 76.3229 82.7942C76.4877 82.6403 77.0458 81.6568 78.0679 79.7192C78.8944 78.1524 79.7238 76.566 79.911 76.1939C80.109 75.8004 80.2722 75.3649 80.3012 75.153C80.3286 74.9526 80.3182 74.6113 80.2781 74.3946C80.238 74.1779 80.1361 73.8535 80.0517 73.6738C79.9672 73.4942 79.7734 73.2186 79.621 73.0616C79.3982 72.8321 78.5507 72.3794 75.3017 70.7547C72.579 69.3933 71.1295 68.7064 70.8612 68.6507C70.5719 68.5906 70.3702 68.5888 70.1248 68.6437C69.9389 68.6854 69.6795 68.7643 69.5483 68.8191C69.4172 68.8739 69.1588 69.0574 68.9742 69.2269C68.7895 69.3963 68.5848 69.6224 68.5193 69.7293L68.4002 69.9236L68.1597 69.302C68.0275 68.9601 67.7231 68.2919 67.4834 67.817C67.2438 67.3421 66.86 66.6746 66.6308 66.3335C66.4015 65.9924 65.9848 65.4515 65.7047 65.1315C65.4247 64.8115 64.9683 64.3639 64.6903 64.1368C64.4124 63.9097 63.9259 63.5681 63.6091 63.3778C63.2924 63.1874 62.753 62.9298 62.4104 62.8054C62.068 62.681 61.5526 62.5338 61.2651 62.4784C60.8408 62.3965 59.6481 62.3775 54.9218 62.3775C49.8102 62.3775 49.0539 62.3637 48.7143 62.2642C48.5015 62.202 48.0069 61.9965 47.6152 61.8076C47.2235 61.6188 46.4926 61.1893 45.9909 60.8533C45.4893 60.5172 44.7031 59.9559 44.2437 59.6057C43.7844 59.2557 42.9016 58.546 42.2819 58.0286C41.6621 57.5113 40.7541 56.7158 40.264 56.2608C39.7739 55.8059 39.2405 55.3308 39.0785 55.2051C38.9166 55.0794 38.695 54.9565 38.586 54.9319C38.4296 54.8966 38.3373 54.7865 38.1468 54.4084C38.0142 54.1449 37.5975 53.2461 37.2208 52.4109C36.8441 51.5757 36.545 50.8852 36.5561 50.8763C36.5672 50.8676 37.2493 50.965 38.0719 51.0929C38.8945 51.2209 40.1711 51.4006 40.9088 51.4923L42.2502 51.6591L42.633 52.4069C42.8436 52.8182 43.1574 53.3489 43.3303 53.5864C43.5032 53.8238 43.7646 54.3205 43.9112 54.6902C44.0578 55.0599 44.3085 55.6162 44.4683 55.9262C44.6282 56.2363 44.9643 56.7971 45.2153 57.1726C45.4663 57.548 45.8958 58.1214 46.1698 58.4469C46.4439 58.7724 46.9252 59.2578 47.2395 59.5254C47.5538 59.7931 48.0456 60.1462 48.3322 60.3103C48.619 60.4743 49.0877 60.6911 49.3739 60.7919C49.7639 60.9293 50.0839 60.9836 50.6523 61.0086C51.2088 61.0332 51.5554 61.0098 51.9564 60.9205C52.2568 60.8537 52.7895 60.6554 53.1401 60.4798C53.4907 60.3043 54.0096 59.9759 54.2929 59.75C54.5764 59.5241 55.0647 59.0668 55.378 58.7337C55.6914 58.4007 56.1372 57.8638 56.3685 57.5407C56.6 57.2176 56.9562 56.6513 57.16 56.2823C57.3639 55.9133 57.6671 55.267 57.8339 54.846C58.0006 54.425 58.2409 53.9523 58.3679 53.7957C58.4949 53.639 58.727 53.3123 58.8838 53.0697C59.0405 52.827 59.2595 52.4104 59.3703 52.1438C59.481 51.8773 59.5745 51.6528 59.578 51.645C59.5815 51.6372 60.4647 51.5162 61.5407 51.3759C62.6166 51.2356 63.9456 51.056 64.494 50.9766C65.0424 50.8973 65.8757 50.7684 66.3457 50.6904C66.8158 50.6123 67.4787 50.4836 67.8188 50.4045C68.1589 50.3254 68.4719 50.2189 68.5143 50.1678C68.5734 50.0967 68.5452 50.0568 68.3944 49.9974C68.2861 49.9548 68.0051 49.8736 67.7701 49.817C67.5351 49.7603 67.0543 49.6635 66.7018 49.6017C66.3493 49.5399 65.7243 49.4395 65.313 49.3785C64.9017 49.3175 63.8762 49.1747 63.034 49.0612C62.1919 48.9476 61.1824 48.8166 60.7907 48.77C60.399 48.7233 60.0429 48.6571 59.9996 48.6228C59.9562 48.5885 59.9013 48.375 59.8776 48.1483C59.8538 47.9216 59.7705 47.5306 59.6923 47.2792C59.6141 47.028 59.5568 46.8186 59.565 46.814C59.5732 46.8095 60.1248 46.3928 60.7907 45.8881C61.4565 45.3833 62.386 44.6666 62.856 44.2952C63.326 43.924 64.0792 43.3154 64.5296 42.9429C64.9801 42.5704 65.549 42.0746 65.7938 41.8411C66.0386 41.6077 66.2389 41.3853 66.2389 41.3468C66.2389 41.3053 66.1017 41.2934 65.9006 41.3175C65.7146 41.3397 65.2578 41.4597 64.8857 41.5842C64.5136 41.7086 63.5201 42.0779 62.6779 42.4048C61.8358 42.7318 60.4291 43.3003 59.5521 43.6683L57.9575 44.3373L57.296 43.8083L56.6344 43.2792L56.7785 42.9468C56.8577 42.764 57.3158 41.6689 57.7966 40.5134C58.2773 39.3579 58.8705 37.8839 59.1149 37.2378C59.3592 36.5918 59.62 35.8245 59.6947 35.5327C59.7869 35.1722 59.8071 34.979 59.7578 34.9296C59.7084 34.8803 59.5075 35.0387 59.1308 35.424C58.826 35.7358 58.1934 36.4733 57.7251 37.0628C57.2568 37.6523 56.2166 39.0051 55.4136 40.069C54.3729 41.4479 53.923 41.992 53.8468 41.9636C53.7881 41.9417 53.456 41.8646 53.1089 41.7923C52.7618 41.7199 52.4685 41.651 52.4573 41.639C52.446 41.627 52.3357 40.8321 52.2122 39.8724C52.0887 38.9128 51.8909 37.4546 51.7727 36.632C51.6546 35.8094 51.481 34.7198 51.387 34.2105C51.293 33.7013 51.1662 33.1178 51.1053 32.9139C51.0443 32.7099 50.9625 32.5233 50.9235 32.4992C50.8846 32.4752 50.8078 32.5628 50.753 32.694C50.6982 32.8252 50.5724 33.3483 50.4736 33.8564C50.3747 34.3646 50.1649 35.6777 50.0074 36.7744C49.8498 37.8712 49.6393 39.4084 49.5395 40.1903C49.4398 40.9723 49.3346 41.6327 49.3057 41.658C49.2768 41.6833 49.0289 41.7405 48.7547 41.7851C48.4805 41.8297 48.1902 41.8844 48.1096 41.9067C47.9868 41.9407 47.8264 41.7652 47.1176 40.8208C46.6525 40.2012 45.8211 39.1203 45.2701 38.4186C44.7189 37.7169 43.8756 36.6857 43.3961 36.127C42.9166 35.5684 42.4309 35.0448 42.3168 34.9636C42.2027 34.8824 42.0903 34.8159 42.067 34.8159C42.0436 34.8159 42.0245 34.9179 42.0245 35.0426C42.0245 35.1672 42.156 35.656 42.3168 36.1287C42.4774 36.6014 42.891 37.6931 43.2358 38.5549C43.5807 39.4166 44.1543 40.8038 44.5105 41.6376C44.8667 42.4713 45.1582 43.1775 45.1582 43.207C45.1582 43.2365 44.8604 43.5017 44.4964 43.7965L43.8346 44.3324L42.5913 43.8055C41.9075 43.5158 40.6429 42.9971 39.7812 42.6527C38.9194 42.3085 37.9319 41.9237 37.5867 41.7979C37.2415 41.6721 36.7448 41.5078 36.483 41.4329C36.2212 41.358 35.9027 41.2968 35.7753 41.2968C35.6479 41.2968 35.5437 41.3208 35.5439 41.3502C35.5439 41.3796 35.6642 41.5355 35.8109 41.6966C35.9577 41.8578 36.3182 42.1965 36.6119 42.4494C36.9057 42.7023 37.4666 43.1656 37.8583 43.4789C38.25 43.7923 39.3877 44.6693 40.3865 45.4278C41.3854 46.1864 42.2069 46.809 42.2121 46.8116C42.2173 46.8142 42.1469 47.1047 42.0555 47.4572C41.9642 47.8097 41.8878 48.2034 41.8858 48.3318C41.8837 48.4604 41.8421 48.5795 41.7931 48.5966C41.7442 48.6137 40.7907 48.741 39.6743 48.8794C38.558 49.018 37.249 49.1976 36.7654 49.2786C36.2818 49.3596 35.8762 49.4156 35.8639 49.403C35.8517 49.3904 35.5384 48.659 35.1678 47.7777C34.7971 46.8964 34.2177 45.4498 33.8803 44.5632C33.5428 43.6765 33.0744 42.3746 32.8392 41.6701C32.5918 40.9287 32.3364 39.9877 32.2331 39.4364C32.1349 38.9124 32.0114 38.3031 31.9587 38.0823L31.8628 37.681L32.4857 37.6512C33.0138 37.626 33.1526 37.5922 33.3988 37.4293C33.5585 37.3237 33.7539 37.1103 33.833 36.9552C33.9683 36.69 33.9768 36.54 33.9768 34.4317C33.9768 33.0211 33.9488 32.1158 33.9011 31.9896C33.8594 31.8793 33.7393 31.6981 33.634 31.5869C33.5288 31.4757 33.3607 31.3419 33.2606 31.2895C33.1605 31.2372 32.8 31.1856 32.4594 31.1749C32.1189 31.1643 31.8403 31.1479 31.8403 31.1386C31.8403 31.1293 31.9358 30.8736 32.0525 30.5705C32.1692 30.2673 32.3113 29.8567 32.3683 29.6579C32.4253 29.4591 32.5221 29.0285 32.5834 28.7011C32.6476 28.3586 32.6949 27.721 32.6949 27.2002C32.6949 26.6924 32.6445 25.9999 32.5801 25.6234C32.5169 25.2542 32.3874 24.6797 32.2922 24.3468C32.1971 24.0138 31.9626 23.4186 31.7711 23.0242C31.5386 22.5452 31.3284 22.2215 31.1381 22.0497C30.9815 21.9082 30.7308 21.7584 30.5812 21.7168C30.4315 21.6753 30.2433 21.6411 30.1629 21.6409C30.0452 21.6405 29.9863 21.5464 29.8615 21.1597C29.7762 20.8953 29.5856 20.475 29.438 20.2256C29.2904 19.9761 28.9669 19.5693 28.7193 19.3215C28.4716 19.0737 28.0527 18.7232 27.7884 18.5427C27.4004 18.2776 27.2334 18.2079 26.9212 18.1809C26.6743 18.1597 26.4573 18.1835 26.3208 18.2469ZM27.4011 22.0707C27.565 22.3726 27.5712 22.4291 27.5263 23.2134C27.489 23.8635 27.5029 24.1207 27.5917 24.426C27.6551 24.6441 27.8145 24.9422 27.9564 25.108C28.095 25.27 28.3749 25.4854 28.5784 25.5868C28.7818 25.6882 29.0395 25.7711 29.1509 25.7711C29.2622 25.7711 29.4499 25.6998 29.5678 25.6126C29.751 25.4772 29.7921 25.4694 29.8499 25.5592C29.887 25.617 29.9475 25.7765 29.9843 25.9136C30.0211 26.0507 30.0722 26.4192 30.0979 26.7326C30.1243 27.0557 30.109 27.5644 30.0625 27.9077C30.0173 28.2406 29.915 28.7374 29.8351 29.0116C29.7551 29.2858 29.5807 29.7184 29.4473 29.973C29.314 30.2276 29.0835 30.5962 28.935 30.7921L28.6651 31.1481L27.0417 31.1542L25.4184 31.1603L25.015 30.7111C24.7931 30.4642 24.4582 29.9967 24.2707 29.6724C24.0833 29.3482 23.8469 28.8172 23.7452 28.4927C23.5936 28.0083 23.567 27.8105 23.5964 27.3888C23.6161 27.1062 23.7035 26.6887 23.7905 26.4609C23.8775 26.2331 24.0899 25.8362 24.2623 25.579C24.4348 25.3218 24.576 25.0976 24.576 25.0809C24.576 25.0642 24.794 24.788 25.0603 24.4671C25.3268 24.1464 25.7383 23.6275 25.9748 23.3141C26.2113 23.0007 26.5595 22.5111 26.7485 22.226C26.9375 21.9409 27.1229 21.7179 27.1604 21.7304C27.198 21.7429 27.3062 21.8961 27.4011 22.0707ZM28.8847 33.8078C28.9239 33.8102 29.5087 33.7943 30.1845 33.7726L31.413 33.7332V34.3825V35.0318L26.855 35.0258L22.297 35.0197V34.3797V33.7396L25.5552 33.7716C27.3473 33.7892 28.8455 33.8055 28.8847 33.8078ZM29.3972 38.3274C29.4854 38.6724 29.6257 39.3935 29.709 39.9298C29.8279 40.6966 29.9818 41.2704 30.4285 42.6143C30.741 43.5544 31.2534 44.9966 31.5672 45.8192C31.8811 46.6418 32.444 48.0519 32.8182 48.9528C33.1923 49.8537 33.8915 51.4561 34.3718 52.5137C34.8521 53.5713 35.5945 55.1577 36.0216 56.0391L36.7982 57.6415L36.7069 58.2468C36.6566 58.5798 36.5476 59.2688 36.4646 59.778C36.3816 60.2872 36.2031 61.2487 36.068 61.9146C35.933 62.5805 35.6787 63.6861 35.5029 64.3716C35.3272 65.0571 35.0814 65.9305 34.9567 66.3123C34.832 66.6942 34.7125 67.0067 34.691 67.0067C34.6696 67.0067 34.4488 66.4219 34.2004 65.707C33.952 64.9921 33.4186 63.4446 33.0151 62.2681C32.5275 60.8463 32.2936 60.066 32.3175 59.941C32.3372 59.8377 32.3141 59.6305 32.266 59.4807C32.218 59.3308 32.1076 59.1121 32.0208 58.9946C31.9339 58.8771 31.6187 58.0599 31.3204 57.1785C31.0221 56.2972 30.5856 54.807 30.3503 53.8669C30.115 52.9268 29.8091 51.6382 29.6703 51.0035C29.5316 50.3687 29.2895 49.1829 29.1324 48.3684C28.9753 47.5539 28.7364 46.2144 28.6016 45.3919C28.4667 44.5693 28.2893 43.3675 28.2071 42.7212C28.125 42.0749 28.0104 41.3791 27.9523 41.1751C27.8772 40.9115 27.774 40.7443 27.5956 40.5972C27.4494 40.4768 27.1157 40.3241 26.7971 40.232C26.496 40.1449 26.0631 39.9746 25.8351 39.8536C25.6071 39.7326 25.2989 39.4953 25.1502 39.3264C25.0014 39.1575 24.8399 38.8766 24.791 38.7022C24.7208 38.4515 24.7203 38.3095 24.7889 38.0239L24.8755 37.6626L27.0562 37.6815L29.2368 37.7003L29.3972 38.3274ZM52.6773 44.3536C52.9936 44.4306 53.4744 44.5769 53.7456 44.6787C54.0167 44.7805 54.4511 44.9898 54.7109 45.1438C54.9707 45.2979 55.3743 45.5836 55.6079 45.7787C55.8415 45.9739 56.1615 46.3033 56.3191 46.5106C56.4767 46.7178 56.66 46.9732 56.7265 47.078C56.8296 47.2404 56.7618 47.2121 56.2656 46.8857C55.9456 46.6752 55.453 46.4068 55.1708 46.2894C54.8887 46.1719 54.3788 45.9949 54.0377 45.8961C53.6966 45.7972 53.1375 45.6698 52.7954 45.6127C52.4532 45.5557 51.8848 45.49 51.5322 45.4667C51.1797 45.4434 50.5003 45.4567 50.0226 45.4961C49.5448 45.5357 48.8718 45.6312 48.527 45.7085C48.1822 45.7859 47.6757 45.927 47.4016 46.0222C47.1274 46.1174 46.749 46.2625 46.5608 46.3447C46.3726 46.4268 46.004 46.624 45.7418 46.7829C45.4796 46.9418 45.1879 47.1257 45.0936 47.1916C44.9227 47.311 44.9225 47.3109 45.0155 47.1349C45.0669 47.038 45.2508 46.7733 45.4244 46.5468C45.5979 46.3202 45.9293 45.9772 46.1608 45.7846C46.3923 45.592 46.7982 45.306 47.0628 45.1491C47.3275 44.9922 47.7552 44.7845 48.0133 44.6876C48.2714 44.5907 48.6872 44.4585 48.9372 44.3937C49.1871 44.3289 49.5849 44.2483 49.821 44.2146C50.0571 44.1809 50.6669 44.167 51.1761 44.1836C51.7559 44.2024 52.317 44.266 52.6773 44.3536ZM52.7924 48.2679C53.1329 48.3464 53.6538 48.5077 53.9498 48.6263C54.2459 48.7448 54.6723 48.9584 54.8975 49.1008C55.1226 49.2432 55.3978 49.4445 55.509 49.548C55.6203 49.6515 55.7965 49.8804 55.9007 50.0567C56.0701 50.3433 56.0887 50.4412 56.0764 50.9825C56.0689 51.3155 56.0123 51.8283 55.9507 52.122C55.8892 52.4158 55.7872 52.8164 55.7242 53.0123C55.6611 53.2081 55.5614 53.5126 55.5025 53.6888C55.4436 53.8651 55.2414 54.3203 55.0533 54.7005C54.8651 55.0807 54.5832 55.5774 54.427 55.8044C54.2707 56.0314 53.9881 56.3997 53.799 56.623C53.6099 56.8462 53.2261 57.2189 52.9461 57.4512C52.6662 57.6835 52.209 57.9877 51.9301 58.1273C51.6512 58.2668 51.2808 58.4022 51.1068 58.4283C50.8873 58.4612 50.6666 58.4367 50.3847 58.348C50.1613 58.2777 49.7513 58.0715 49.4735 57.8897C49.1957 57.7078 48.7832 57.3893 48.5569 57.1818C48.3306 56.9744 47.9373 56.5282 47.6828 56.1904C47.4283 55.8525 47.0475 55.2396 46.8366 54.8283C46.6257 54.417 46.3377 53.7425 46.1967 53.3295C46.0557 52.9163 45.8925 52.3286 45.8341 52.0235C45.7757 51.7182 45.7279 51.2213 45.7279 50.919C45.7279 50.4338 45.7523 50.331 45.9363 50.0408C46.051 49.8601 46.3153 49.5763 46.5239 49.4102C46.7324 49.2442 47.1915 48.9712 47.544 48.8037C47.8965 48.6361 48.4574 48.4285 48.7903 48.3423C49.1233 48.2561 49.5559 48.1599 49.7518 48.1284C49.9476 48.097 50.5726 48.0833 51.1405 48.0981C51.8348 48.1162 52.3761 48.1719 52.7924 48.2679ZM40.1103 59.5822C40.545 59.9641 41.3432 60.6307 41.8842 61.0635C42.4252 61.4962 43.2468 62.1212 43.7101 62.4522C44.1735 62.7832 44.9693 63.3048 45.4786 63.6112C45.9878 63.9175 46.6409 64.2805 46.9297 64.4176C47.2187 64.5547 47.6965 64.7286 47.9916 64.8041C48.5 64.9342 48.8361 64.9414 54.3746 64.9419C58.1294 64.9422 60.3865 64.9693 60.6838 65.0175C60.9384 65.0588 61.3319 65.1674 61.5583 65.2588C61.7847 65.3502 62.1476 65.5325 62.3648 65.6639C62.582 65.7953 62.9393 66.0626 63.1587 66.258C63.3782 66.4533 63.7451 66.849 63.9741 67.1371C64.203 67.4253 64.5684 67.9635 64.786 68.3332C65.0036 68.703 65.3232 69.3291 65.4962 69.7247C65.6692 70.1203 65.9221 70.7682 66.0583 71.1645C66.1944 71.5609 66.3862 72.1879 66.4846 72.5579L66.6633 73.2306L64.7597 76.8836L62.856 80.5366L50.9625 80.5197L39.069 80.5026L38.2678 79.1899C37.8271 78.468 37.4666 77.8419 37.4666 77.7988C37.4666 77.7555 37.5707 77.6604 37.698 77.5872C37.8254 77.514 38.1471 77.2803 38.4131 77.0678C38.6792 76.8554 39.1341 76.3965 39.4241 76.048C39.7142 75.6995 40.2009 75.037 40.5058 74.5756C40.8106 74.1143 41.2931 73.2809 41.5779 72.7235C41.954 71.9875 42.0953 71.6366 42.0942 71.4416C42.0933 71.2939 42.0338 71.0435 41.9619 70.8852C41.89 70.7269 41.728 70.5105 41.6019 70.4044C41.4758 70.2983 41.2935 70.1917 41.1968 70.1674C41.1001 70.1431 40.8484 70.1376 40.6376 70.155C40.3642 70.1777 40.1818 70.2422 40.0012 70.3799C39.8186 70.5191 39.6189 70.827 39.2852 71.4832C39.0307 71.9838 38.5917 72.7437 38.3096 73.1719C37.9941 73.6511 37.5617 74.1833 37.1852 74.5559C36.8488 74.8888 36.3979 75.2574 36.1832 75.3749C35.7993 75.585 35.7776 75.5883 34.8671 75.5699C34.3579 75.5596 33.6532 75.5022 33.3013 75.4424C32.9493 75.3825 32.4846 75.2831 32.2686 75.2215C32.0526 75.1599 31.7177 75.0425 31.5244 74.9607L31.1729 74.8118L31.6312 74.7262C31.8833 74.6792 32.2756 74.5706 32.5029 74.4849C32.7302 74.3992 33.1469 74.1742 33.4287 73.9848C33.7106 73.7954 34.0817 73.4964 34.2534 73.3202C34.425 73.1441 34.785 72.7011 35.0533 72.3358C35.3254 71.9652 35.7481 71.2464 36.0093 70.7101C36.2668 70.1813 36.618 69.394 36.7898 68.9604C36.9615 68.5269 37.2653 67.6455 37.4647 67.0019C37.6641 66.3583 37.9685 65.2547 38.1412 64.5497C38.3138 63.8446 38.5513 62.771 38.6688 62.1638C38.7862 61.5567 38.952 60.6113 39.0371 60.0629C39.1221 59.5145 39.2032 59.0258 39.2171 58.9768C39.2311 58.9279 39.26 58.8878 39.2813 58.8878C39.3026 58.8878 39.6757 59.2003 40.1103 59.5822ZM31.898 67.0423C32.29 68.1783 32.723 69.4265 32.8601 69.8161L33.1096 70.5247L32.8877 70.8488C32.7656 71.0271 32.504 71.3344 32.3064 71.5317C32.1088 71.7289 31.8189 71.9505 31.6622 72.0242C31.4905 72.1049 31.2205 72.1582 30.9824 72.1582C30.7103 72.1582 30.4666 72.1023 30.199 71.9786C29.9853 71.8798 29.6351 71.6661 29.4208 71.5038C29.2064 71.3414 29.0012 71.2086 28.9649 71.2086C28.9259 71.2086 28.9168 70.9361 28.9425 70.543C28.9666 70.1769 29.0655 69.5119 29.1623 69.0652C29.2591 68.6185 29.4833 67.7532 29.6605 67.1422C29.8377 66.5311 30.1323 65.6177 30.3152 65.1124C30.4981 64.6071 30.6794 64.1135 30.7181 64.0155C30.7826 63.8522 30.8048 63.8845 30.9869 64.4072C31.0961 64.7206 31.5061 65.9064 31.898 67.0423ZM74.1622 73.1037C76.0912 74.0678 77.6799 74.866 77.6926 74.8777C77.7053 74.8893 77.2582 75.7591 76.699 76.8105C76.1398 77.8619 75.4673 79.1228 75.2047 79.6124L74.7271 80.5026L70.2694 80.521C67.8176 80.5311 65.8116 80.5217 65.8116 80.5002C65.8116 80.4786 66.601 78.9482 67.5658 77.099C68.5307 75.2498 69.6071 73.2 69.9579 72.544C70.3087 71.8879 70.6091 71.3511 70.6254 71.3511C70.6417 71.3511 72.2333 72.1398 74.1622 73.1037Z" fill="#F3012A"/>
</svg>
