<svg width="101" height="101" viewBox="0 0 101 101" fill="none" xmlns="http://www.w3.org/2000/svg">
<rect width="100" height="100" transform="translate(0.666626 0.67334)" fill=""/>
<path fill-rule="evenodd" clip-rule="evenodd" d="M49.7823 18.3485C49.5502 18.4668 49.2072 18.7643 49.02 19.0098L48.6795 19.4559L48.6442 24.0399C48.6093 28.592 48.6109 28.6277 48.8983 29.1955C49.1101 29.614 49.3397 29.8438 49.7546 30.0531C50.0664 30.2104 50.4688 30.339 50.6488 30.339C50.8288 30.339 51.2312 30.2103 51.543 30.0531C51.9572 29.8442 52.1869 29.6145 52.3958 29.2003C52.6759 28.6447 52.6816 28.545 52.6816 24.201C52.6816 20.3553 52.6541 19.7105 52.4731 19.3293C52.3585 19.0877 52.0703 18.7417 51.8325 18.5604C51.5491 18.3442 51.1946 18.2141 50.8023 18.182C50.4077 18.15 50.0606 18.2066 49.7823 18.3485ZM28.3106 27.2493C28.0785 27.3637 27.747 27.6429 27.574 27.8698C27.4008 28.0968 27.2257 28.4885 27.1849 28.7401C27.1386 29.0259 27.1889 29.4027 27.3189 29.743C27.4801 30.1653 28.2498 31.0071 30.7343 33.4785C33.4788 36.2087 34.0103 36.6819 34.418 36.758C34.6801 36.8069 35.106 36.8071 35.3646 36.7586C35.6597 36.7034 36.0106 36.4946 36.307 36.1983C36.6033 35.9019 36.812 35.551 36.8673 35.256C36.9158 34.9973 36.9162 34.5714 36.8682 34.3093C36.7932 33.9005 36.3282 33.3783 33.5877 30.6267C31.8313 28.8633 30.2119 27.3339 29.9888 27.2281C29.7659 27.1223 29.392 27.0369 29.1579 27.0385C28.9239 27.0401 28.5426 27.135 28.3106 27.2493ZM71.2873 27.2332C71.0736 27.3386 69.4628 28.8667 67.7078 30.6289C64.9692 33.3785 64.5044 33.9005 64.4294 34.3093C64.3814 34.5714 64.3818 34.9973 64.4303 35.256C64.4856 35.551 64.6943 35.9019 64.9906 36.1983C65.287 36.4946 65.638 36.7034 65.933 36.7586C66.1917 36.8071 66.6177 36.8069 66.8796 36.758C67.2873 36.6819 67.8188 36.2087 70.5634 33.4785C73.035 31.0198 73.8179 30.164 73.9771 29.7473C74.1176 29.3792 74.1551 29.0524 74.0943 28.7245C74.0451 28.4595 73.87 28.0649 73.7051 27.8476C73.5403 27.6304 73.2077 27.3587 72.966 27.2441C72.7245 27.1294 72.3354 27.0369 72.1013 27.0385C71.8673 27.0401 71.501 27.1277 71.2873 27.2332ZM47.9488 34.0856C47.3373 34.1854 46.2253 34.4718 45.4776 34.7221C44.7299 34.9723 43.57 35.4636 42.9001 35.8139C42.2301 36.1643 41.284 36.7439 40.7975 37.1022C40.311 37.4603 39.3984 38.2735 38.7695 38.9092C38.1406 39.545 37.3036 40.5496 36.9093 41.1416C36.5152 41.7338 35.9929 42.6185 35.7487 43.1076C35.5045 43.5968 35.1334 44.483 34.9239 45.0769C34.7143 45.6709 34.4377 46.6428 34.3092 47.2368C34.1364 48.0347 34.0746 48.8643 34.072 50.4131C34.0699 51.6969 34.1366 52.8541 34.2442 53.3988C34.3406 53.888 34.6119 54.8805 34.8469 55.6045C35.082 56.3285 35.5912 57.5291 35.9787 58.2726C36.3662 59.016 37.0552 60.1459 37.5099 60.7833C37.9645 61.4208 38.9429 62.5929 39.684 63.3878C40.4251 64.1829 41.2716 65.2051 41.5653 65.6593C41.8589 66.1135 42.3717 67.0161 42.7048 67.6649C43.1407 68.5144 43.4154 68.8991 43.6855 69.0388C43.9193 69.1598 44.2002 69.2022 44.431 69.1515C44.6347 69.1068 44.9164 68.9239 45.057 68.7451C45.1977 68.5663 45.3126 68.2839 45.3126 68.1173C45.3126 67.9508 45.0207 67.2328 44.6639 66.5217C44.307 65.8107 43.7613 64.8437 43.4511 64.3727C43.1408 63.9019 42.2718 62.8578 41.5199 62.0527C40.7679 61.2475 39.8266 60.1357 39.4279 59.582C39.0292 59.0285 38.4229 58.0396 38.0804 57.3847C37.738 56.7297 37.2832 55.6951 37.0701 55.0854C36.857 54.4757 36.5879 53.4752 36.4722 52.862C36.3124 52.0152 36.2779 51.3195 36.3285 49.9684C36.3784 48.6354 36.4774 47.8713 36.7236 46.9192C36.9279 46.1287 37.3384 45.0726 37.81 44.124C38.2718 43.1953 38.8982 42.1877 39.4128 41.5457C39.8774 40.9661 40.643 40.16 41.1144 39.7544C41.5856 39.3488 42.2286 38.8398 42.5432 38.6234C42.8579 38.4069 43.624 37.9754 44.2458 37.6646C44.8675 37.3539 45.7592 36.9818 46.2274 36.8382C46.6956 36.6943 47.5452 36.4883 48.1154 36.38C48.6895 36.2711 49.8316 36.1833 50.6746 36.1833C51.7045 36.1833 52.6068 36.2668 53.4634 36.4414C54.1599 36.5833 55.0898 36.835 55.5299 37.0007C55.97 37.1663 56.69 37.4804 57.13 37.6987C57.5698 37.9169 58.3354 38.3648 58.8313 38.6939C59.3273 39.0229 60.219 39.7798 60.8129 40.3756C61.4069 40.9715 62.1681 41.8729 62.5044 42.3786C62.8408 42.8844 63.3725 43.8398 63.6861 44.5018C63.9996 45.1637 64.4063 46.2642 64.5898 46.9475C64.8909 48.0685 64.9238 48.4128 64.9261 50.4766C64.9284 52.417 64.8882 52.9085 64.6618 53.7204C64.5151 54.2466 64.2193 55.1329 64.0045 55.6899C63.7896 56.2469 63.3207 57.2139 62.9624 57.8389C62.604 58.4638 62.009 59.3833 61.64 59.8821C61.2712 60.381 60.394 61.401 59.6909 62.1488C58.9877 62.8967 58.1586 63.8924 57.8484 64.3616C57.5382 64.8308 56.992 65.7995 56.6347 66.5146C56.2773 67.2295 55.985 67.9508 55.985 68.1173C55.985 68.2839 56.1 68.5663 56.2406 68.7451C56.3812 68.9239 56.6629 69.1068 56.8666 69.1515C57.0974 69.2022 57.3783 69.1598 57.6121 69.0388C57.8822 68.8991 58.1569 68.5144 58.5928 67.6649C58.926 67.0161 59.4372 66.1131 59.729 65.6585C60.0208 65.2038 60.8626 64.1885 61.5996 63.4022C62.3367 62.6159 63.3165 61.4442 63.777 60.7984C64.2376 60.1527 64.9314 59.016 65.3189 58.2726C65.7064 57.5291 66.2157 56.3285 66.4507 55.6045C66.6858 54.8805 66.957 53.888 67.0534 53.3988C67.1611 52.8541 67.2278 51.6969 67.2256 50.4131C67.2231 48.8643 67.1612 48.0347 66.9884 47.2368C66.8599 46.6428 66.5841 45.6709 66.3756 45.0769C66.1671 44.483 65.7321 43.4824 65.4089 42.8535C65.0857 42.2246 64.4048 41.157 63.8961 40.4811C63.3872 39.8051 62.5308 38.8465 61.9929 38.3508C61.455 37.8552 60.5549 37.1423 59.9928 36.7667C59.4306 36.3912 58.5133 35.8571 57.9543 35.5798C57.3952 35.3026 56.4805 34.9259 55.9214 34.7427C55.3624 34.5595 54.5048 34.3204 54.0157 34.2114C53.5043 34.0973 52.2622 33.9899 51.0935 33.9585C49.6941 33.921 48.7142 33.9606 47.9488 34.0856ZM50.0852 41.9206C49.7403 41.9717 49.315 42.1202 49.1402 42.2508C48.9654 42.3813 48.7044 42.6458 48.5603 42.8385C48.3175 43.1633 48.2957 43.3911 48.262 45.9434C48.227 48.5947 48.247 48.8584 48.7975 52.9859C49.112 55.3442 49.4299 57.3869 49.5038 57.5251C49.5778 57.6632 49.7475 57.8347 49.881 57.9062C50.0146 57.9777 50.3527 58.0362 50.6322 58.0362C50.9118 58.0362 51.2881 57.98 51.4687 57.9114C51.6492 57.8428 51.8568 57.6289 51.9301 57.436C52.0036 57.243 52.3169 55.1782 52.6266 52.8473C53.1302 49.0573 53.1898 48.3448 53.1898 46.1077C53.1898 43.764 53.1718 43.5709 52.904 43.0466C52.7467 42.7391 52.474 42.3824 52.2978 42.2545C52.1217 42.1264 51.6929 41.978 51.3449 41.9247C50.9971 41.8714 50.4302 41.8695 50.0852 41.9206ZM19.417 48.721C19.1849 48.8354 18.8419 49.1297 18.6547 49.3752C18.3795 49.736 18.3142 49.9574 18.3142 50.5302C18.3142 51.0749 18.3848 51.3379 18.6193 51.6667C18.7871 51.9019 19.1587 52.2008 19.4451 52.3309C19.9204 52.5467 20.3494 52.5676 24.354 52.5702C28.6548 52.573 28.7534 52.5672 29.309 52.2871C29.7232 52.0782 29.9529 51.8485 30.1618 51.4343C30.319 51.1225 30.4476 50.7202 30.4476 50.5401C30.4476 50.3601 30.3189 49.9577 30.1618 49.646C29.9529 49.2318 29.7232 49.0021 29.309 48.7932C28.7529 48.5128 28.6572 48.5073 24.2905 48.5102C20.4292 48.5128 19.7829 48.5407 19.417 48.721ZM71.9886 48.7932C71.5744 49.0021 71.3447 49.2318 71.1359 49.646C70.9786 49.9577 70.85 50.3601 70.85 50.5401C70.85 50.7202 70.9786 51.1225 71.1359 51.4343C71.3447 51.8485 71.5744 52.0782 71.9886 52.2871C72.5438 52.5671 72.6455 52.573 76.9485 52.573C81.2514 52.573 81.3531 52.5671 81.9083 52.2871C82.3204 52.0792 82.5555 51.8451 82.7693 51.4295C82.9851 51.01 83.0485 50.7142 83.0073 50.3186C82.9748 50.0053 82.8147 49.6003 82.6251 49.3518C82.4457 49.1167 82.1013 48.8304 81.8596 48.7158C81.4785 48.5349 80.8337 48.5073 76.988 48.5073C72.644 48.5073 72.5442 48.513 71.9886 48.7932ZM49.3665 60.5527C49.0454 60.7589 48.6452 61.1489 48.4771 61.4194C48.2339 61.8106 48.1713 62.0845 48.1713 62.7579C48.1713 63.496 48.2209 63.6751 48.5578 64.1543C48.7702 64.4569 49.1704 64.8356 49.4472 64.9962C49.8616 65.2368 50.0977 65.2812 50.79 65.2483C51.4541 65.2166 51.7418 65.1342 52.1653 64.8539C52.5346 64.6094 52.7961 64.2949 53.0076 63.8407C53.1764 63.4783 53.3144 62.9817 53.3144 62.7371C53.3144 62.4925 53.1764 61.9959 53.0076 61.6335C52.7961 61.1793 52.5346 60.8647 52.1653 60.6203C51.7449 60.342 51.4494 60.2564 50.79 60.2218C50.0365 60.1823 49.8899 60.2164 49.3665 60.5527ZM34.0686 64.4438C33.859 64.5383 32.2759 66.0369 30.5507 67.7738C28.8256 69.5108 27.3533 71.0929 27.2791 71.2896C27.205 71.4862 27.1443 71.8173 27.1443 72.0252C27.1443 72.233 27.2609 72.6317 27.4035 72.9112C27.5462 73.1908 27.8462 73.5313 28.0705 73.6681C28.2949 73.8049 28.6666 73.9524 28.8967 73.9959C29.1564 74.045 29.5201 73.9966 29.8559 73.8684C30.2727 73.7093 31.1285 72.9264 33.5872 70.4547C36.3174 67.7101 36.7905 67.1787 36.8666 66.771C36.9156 66.509 36.9184 66.0961 36.8729 65.8535C36.8273 65.6111 36.6427 65.2373 36.4624 65.0232C36.2821 64.809 35.9728 64.55 35.775 64.4477C35.5771 64.3454 35.198 64.264 34.9325 64.2667C34.667 64.2695 34.2782 64.3491 34.0686 64.4438ZM65.3769 64.5506C65.1411 64.7094 64.8181 65.0324 64.6593 65.2682C64.4851 65.5266 64.3704 65.888 64.3704 66.178C64.3704 66.4427 64.4311 66.8201 64.5052 67.0168C64.5794 67.2135 66.0504 68.7897 67.7739 70.5195C70.172 72.9262 71.034 73.7128 71.4452 73.8698C71.778 73.9969 72.1417 74.0449 72.4009 73.9959C72.631 73.9524 73.009 73.8011 73.2408 73.6597C73.5005 73.5014 73.7614 73.1788 73.9202 72.82C74.1194 72.3695 74.158 72.1037 74.0903 71.6481C74.0063 71.0837 73.8681 70.9233 70.8064 67.8364C69.0485 66.0639 67.4262 64.5346 67.2013 64.4378C66.9764 64.341 66.5704 64.2617 66.299 64.2617C65.9961 64.2617 65.64 64.3733 65.3769 64.5506ZM44.0561 70.4105C43.8892 70.503 43.6767 70.7154 43.5842 70.8824C43.4916 71.0494 43.4139 71.3476 43.4113 71.5452C43.4085 71.7769 43.5386 72.0361 43.7782 72.2757L44.1496 72.6471H50.6488H57.148L57.5194 72.2757C57.7413 72.0538 57.8907 71.7701 57.8907 71.5706C57.8907 71.3871 57.8093 71.0794 57.7097 70.8868C57.6101 70.6942 57.3787 70.4684 57.1955 70.3849C56.9512 70.2737 55.1956 70.2343 50.6111 70.2376C45.6664 70.2411 44.2962 70.2773 44.0561 70.4105ZM43.7358 74.3086C43.547 74.5329 43.4069 74.8568 43.4069 75.0688C43.4069 75.2975 43.5482 75.5963 43.7776 75.8531L44.1483 76.2681H50.6488H57.1493L57.52 75.8531C57.7495 75.5963 57.8907 75.2975 57.8907 75.0688C57.8907 74.8568 57.7506 74.5329 57.5618 74.3086L57.2329 73.9176H50.6488H44.0647L43.7358 74.3086ZM43.8734 77.7346C43.6919 77.8774 43.5089 78.1782 43.4667 78.403C43.4245 78.6278 43.4485 78.9656 43.5201 79.1538C43.5916 79.3418 43.8212 79.5842 44.0303 79.6924C44.3585 79.8621 45.2665 79.889 50.6488 79.889C55.8554 79.889 56.946 79.8585 57.2439 79.7044C57.4402 79.6029 57.6715 79.3494 57.7577 79.1411C57.8473 78.9248 57.878 78.5959 57.8294 78.3743C57.7825 78.161 57.5979 77.8713 57.4191 77.7307C57.1031 77.4822 56.9147 77.4751 50.6488 77.4751C44.3502 77.4751 44.196 77.481 43.8734 77.7346ZM46.8373 81.1977C46.8373 81.3046 47.0964 81.6202 47.4133 81.8991C47.7301 82.178 48.2558 82.5313 48.5816 82.6845C48.9073 82.8376 49.5057 83.0247 49.9114 83.1001C50.4505 83.2004 50.86 83.198 51.4344 83.0911C51.8665 83.0108 52.519 82.7937 52.8845 82.6087C53.2502 82.4238 53.7649 82.0517 54.0283 81.7818C54.2918 81.512 54.4825 81.2682 54.4521 81.2398C54.4217 81.2116 52.696 81.1468 50.617 81.0959C47.2691 81.0139 46.8373 81.0256 46.8373 81.1977Z" fill="#F3012A"/>
</svg>
