<svg width="101" height="101" viewBox="0 0 101 101" fill="none" xmlns="http://www.w3.org/2000/svg">
<rect width="100" height="100" transform="translate(0.333313 0.67334)" fill=""/>
<path fill-rule="evenodd" clip-rule="evenodd" d="M30.4488 18.3131C30.2997 18.3914 25.743 22.9754 20.3226 28.4996C11.8077 37.1776 10.4599 38.5836 10.4122 38.8378C10.3778 39.0216 10.399 39.2362 10.4687 39.4094C10.5417 39.5909 11.9195 41.0086 14.457 43.5134C17.4507 46.4683 18.3934 47.353 18.595 47.3973C18.7387 47.4289 18.9645 47.4309 19.0969 47.4019C19.2763 47.3624 20.9084 45.7602 25.5196 41.0967C28.9198 37.658 33.4334 33.0904 35.55 30.9465C38.5038 27.9546 39.4162 26.9835 39.4758 26.7678C39.5251 26.5892 39.5247 26.3832 39.4747 26.202C39.4115 25.9731 38.619 25.176 35.442 22.1456C33.2674 20.0712 31.3886 18.3299 31.2671 18.2758C31.1454 18.2217 30.9726 18.176 30.8829 18.174C30.7932 18.1721 30.5978 18.2346 30.4488 18.3131ZM69.0011 18.2994C68.8224 18.3762 67.3045 19.83 64.9391 22.1895C62.8618 24.2616 61.1099 26.056 61.0457 26.1771C60.9815 26.2982 60.9303 26.5184 60.9319 26.6663C60.9335 26.8143 60.9793 27.0139 61.0338 27.1099C61.0882 27.2058 65.6549 31.8216 71.1819 37.367C77.975 44.183 81.3244 47.4889 81.5196 47.5704C81.7443 47.6643 81.8784 47.6722 82.1244 47.606C82.3913 47.5341 83.0351 46.9174 86.2593 43.646C89.0917 40.7722 90.1083 39.6902 90.1949 39.4576C90.2959 39.1855 90.2959 39.1043 90.1949 38.8473C90.1117 38.6357 87.2034 35.6607 80.0511 28.4709C73.8553 22.2425 69.923 18.3488 69.7597 18.2806C69.6144 18.2199 69.4485 18.1717 69.391 18.1734C69.3335 18.1752 69.1581 18.2318 69.0011 18.2994ZM34.0162 23.6206L37.0433 26.5025L35.1095 28.472C34.046 29.5552 29.9645 33.6978 26.0397 37.6778C22.1149 41.6578 18.8737 44.9141 18.8371 44.9141C18.8005 44.9141 17.4417 43.5971 15.8175 41.9873L12.8645 39.0606L13.5963 38.2978C13.9988 37.8783 18.0494 33.7455 22.5975 29.1138C27.1457 24.4821 30.8944 20.7029 30.9281 20.7155C30.9617 20.7282 32.3514 22.0355 34.0162 23.6206ZM78.5816 29.8853C83.6043 34.9373 87.7137 39.1167 87.7137 39.1731C87.7137 39.2294 86.3958 40.6022 84.785 42.2236L81.8562 45.1718L72.6124 35.928L63.3687 26.6843L66.3684 23.692C68.0182 22.0463 69.3864 20.6998 69.4088 20.6999C69.4312 20.7 73.559 24.8334 78.5816 29.8853ZM38.1396 30.7563C38.0051 30.8175 37.8297 30.9409 37.7499 31.0306C37.67 31.1202 37.5719 31.308 37.5317 31.4478C37.4877 31.6014 37.4896 31.8136 37.5366 31.9839C37.5794 32.1388 37.7194 32.3538 37.8476 32.4617C38.0441 32.6272 38.2288 32.673 39.0234 32.7536C39.5419 32.8061 40.3853 32.9549 40.8976 33.0843C41.4101 33.2137 42.1732 33.4554 42.5936 33.6213C43.014 33.7873 43.6698 34.0896 44.051 34.2932C44.4322 34.4967 45.0192 34.8481 45.3556 35.0738C45.6919 35.2996 46.2703 35.7333 46.6409 36.0374C47.0648 36.3853 47.4197 36.6101 47.5974 36.6435C47.7986 36.6812 47.9666 36.6516 48.18 36.5409C48.3449 36.4554 48.5473 36.2594 48.6299 36.1054C48.7125 35.9513 48.7799 35.7331 48.7798 35.6203C48.7796 35.5074 48.7083 35.2984 48.6213 35.1557C48.5343 35.0131 48.2134 34.6891 47.9081 34.4359C47.603 34.1826 47.0773 33.78 46.7401 33.541C46.4028 33.302 45.724 32.8824 45.2316 32.6083C44.7392 32.3343 43.9511 31.9587 43.4802 31.7737C43.0094 31.5887 42.2755 31.3366 41.8495 31.2135C41.4235 31.0904 40.7263 30.9328 40.3003 30.8633C39.8743 30.7937 39.2689 30.7162 38.955 30.6909C38.5593 30.6591 38.3091 30.6791 38.1396 30.7563ZM59.7498 30.7705C59.3479 30.8352 58.6875 30.9834 58.2822 31.0998C57.8769 31.2162 57.2334 31.4394 56.8522 31.5958C56.471 31.7522 55.8473 32.0478 55.4661 32.2525C55.0849 32.4573 54.4978 32.8087 54.1615 33.0333C53.8252 33.2579 53.2197 33.7057 52.8161 34.0283C52.4125 34.3509 51.2384 35.4229 50.207 36.4105C49.1755 37.398 46.992 39.5594 45.3546 41.2135C43.7172 42.8677 41.3056 45.3343 39.9954 46.695C38.2403 48.5176 37.5929 49.2424 37.536 49.4484C37.4895 49.6167 37.4878 49.8291 37.5317 49.9822C37.5719 50.122 37.67 50.3104 37.7499 50.4007C37.8297 50.4911 38.2252 50.7834 38.6288 51.0503C39.0324 51.3173 39.6745 51.6927 40.0557 51.8846C40.4369 52.0765 41.0668 52.3457 41.4554 52.4828C41.844 52.62 42.4386 52.7893 42.7769 52.8592C43.1151 52.9291 43.7327 52.9857 44.1495 52.985C44.5662 52.9844 45.1419 52.9285 45.4287 52.8609C45.7155 52.7932 46.2103 52.6013 46.5281 52.4343C47.0024 52.185 47.5067 51.7472 49.3426 49.99C50.5727 48.8127 51.6032 47.8494 51.6326 47.8494C51.6619 47.8494 51.8799 47.9941 52.1168 48.1709C52.3537 48.3477 52.8292 48.6388 53.1734 48.8178C53.5174 48.9969 54.0732 49.2208 54.4083 49.3154C54.7434 49.41 55.3369 49.5094 55.7272 49.5364C56.1482 49.5655 56.6894 49.5446 57.0581 49.4851C57.3999 49.4299 57.9245 49.3014 58.2239 49.1994C58.5233 49.0975 59.0251 48.8838 59.3391 48.7246C59.653 48.5654 60.1666 48.2523 60.4806 48.029C60.7945 47.8056 61.3308 47.3817 61.6725 47.087C62.014 46.7923 62.3569 46.4178 62.4343 46.2548C62.5296 46.0538 62.5579 45.8677 62.5222 45.6772C62.4932 45.5226 62.3705 45.2864 62.2496 45.1523C62.1108 44.9984 61.9187 44.8908 61.7284 44.8606C61.5627 44.8342 61.3374 44.8352 61.2278 44.8627C61.1183 44.8902 60.7817 45.1365 60.4799 45.41C60.1781 45.6833 59.7063 46.0738 59.4314 46.2776C59.1563 46.4813 58.6432 46.7883 58.291 46.9597C57.9388 47.1311 57.3739 47.3329 57.0356 47.4082C56.6073 47.5035 56.2326 47.531 55.8007 47.4989C55.4597 47.4736 54.9524 47.3739 54.6733 47.2775C54.3943 47.181 53.9376 46.9546 53.6586 46.7742C53.3796 46.5939 52.9227 46.2269 52.6434 45.9587C52.2462 45.5773 52.0661 45.4617 51.8164 45.4282C51.6144 45.4011 51.41 45.4307 51.2591 45.5086C51.128 45.5764 50.5626 46.0481 50.0024 46.5568C49.4422 47.0655 48.2994 48.152 47.4627 48.9712C46.2477 50.1609 45.8458 50.5044 45.4666 50.6781C45.1258 50.8342 44.813 50.9058 44.3578 50.9322C44.0092 50.9523 43.4947 50.9239 43.2147 50.8691C42.9347 50.8143 42.4855 50.6948 42.2164 50.6037C41.9473 50.5125 41.3695 50.2557 40.9322 50.033C40.495 49.8103 40.1372 49.5976 40.1372 49.5602C40.1372 49.5229 40.8769 48.7282 41.781 47.7944C42.6852 46.8605 45.0792 44.4322 47.1013 42.3983C49.1234 40.3643 51.4565 38.0558 52.2862 37.2681C53.1158 36.4804 54.1516 35.5695 54.588 35.2438C55.0243 34.9181 55.7398 34.4494 56.178 34.2024C56.6161 33.9553 57.2889 33.6271 57.6733 33.4731C58.0575 33.3191 58.5712 33.1351 58.8148 33.0645C59.0582 32.9938 59.5833 32.8792 59.9816 32.8098C60.3799 32.7404 61.0715 32.6837 61.5186 32.6837C62.3305 32.6837 62.3318 32.6834 62.6022 32.4129C62.7597 32.2554 62.8959 32.0199 62.9278 31.85C62.9655 31.6492 62.9399 31.4679 62.8457 31.2695C62.7703 31.1108 62.611 30.9156 62.4916 30.8356C62.3214 30.7217 62.0801 30.6861 61.3775 30.6715C60.8842 30.6612 60.1517 30.7058 59.7498 30.7705ZM23.5116 45.5065C23.4039 45.5619 23.2387 45.711 23.1447 45.8379C22.986 46.0521 22.9741 46.1711 22.9773 47.5094C22.9799 48.5515 23.021 49.1532 23.1263 49.684C23.2063 50.0876 23.3964 50.8034 23.5486 51.2746C23.7008 51.7458 23.9909 52.4558 24.1933 52.8523C24.3956 53.2489 24.7335 53.8173 24.9442 54.1155C25.1548 54.4138 25.638 54.9778 26.0181 55.369C26.4368 55.8 26.8166 56.1158 26.9821 56.1704C27.1322 56.22 27.3651 56.2364 27.4997 56.2068C27.6342 56.1772 27.8528 56.0445 27.9855 55.9118C28.1182 55.7792 28.25 55.5468 28.2783 55.3955C28.3067 55.2441 28.3038 55.0379 28.2718 54.9372C28.2399 54.8365 27.927 54.4497 27.5766 54.0778C27.2262 53.7057 26.7857 53.1748 26.5976 52.898C26.4097 52.6212 26.0977 52.06 25.9043 51.6509C25.7109 51.2418 25.4762 50.6319 25.3827 50.2955C25.2891 49.9592 25.1585 49.3538 25.0924 48.9502C25.0263 48.5466 24.972 47.7259 24.9718 47.1264L24.9715 46.0365L24.655 45.7199C24.3955 45.4605 24.2814 45.4036 24.023 45.4046C23.8495 45.4052 23.6194 45.451 23.5116 45.5065ZM76.1355 45.4811C76.0459 45.5182 75.8809 45.6471 75.769 45.7676C75.5738 45.9775 75.5632 46.0439 75.5098 47.3868C75.4668 48.4715 75.408 48.9724 75.2491 49.6093C75.1362 50.0615 74.9288 50.722 74.7882 51.077C74.6476 51.432 74.4196 51.9242 74.2816 52.1709C74.1436 52.4175 73.8635 52.8578 73.6594 53.1493C73.4551 53.4408 72.9418 54.0368 72.5188 54.4739C71.7982 55.2181 71.7471 55.2935 71.7115 55.6633C71.6775 56.0178 71.7002 56.0885 71.9336 56.3543C72.0983 56.5419 72.2956 56.6695 72.4721 56.7026C72.6253 56.7314 72.8378 56.733 72.9443 56.7062C73.0508 56.6795 73.3371 56.4937 73.5805 56.2933C73.8239 56.0929 74.2782 55.6306 74.5901 55.266C74.902 54.9014 75.3547 54.3035 75.5961 53.9373C75.8375 53.5712 76.1909 52.9414 76.3814 52.5378C76.5718 52.1342 76.8437 51.4411 76.9853 50.9976C77.127 50.5541 77.3148 49.7708 77.4027 49.2568C77.5027 48.6721 77.5624 47.9431 77.5624 47.3088C77.5624 46.6109 77.5258 46.2075 77.445 46.0141C77.3804 45.8595 77.2062 45.659 77.0577 45.5685C76.9093 45.478 76.6778 45.4061 76.5432 45.4088C76.4087 45.4115 76.2252 45.444 76.1355 45.4811ZM62.1675 50.2113C62.0191 50.3044 61.8418 50.5142 61.7736 50.6774C61.6929 50.8707 61.6687 51.0759 61.7043 51.2659C61.7511 51.5153 62.4227 52.2253 66.3381 56.1653C69.8412 59.6902 70.9738 60.8783 71.1579 61.2214C71.3573 61.593 71.4041 61.7885 71.4307 62.3629C71.4568 62.9268 71.4303 63.1422 71.2884 63.5186C71.1886 63.7835 70.9728 64.1268 70.7837 64.3216C70.6021 64.5087 70.2826 64.7384 70.0738 64.8318C69.8155 64.9475 69.4639 65.0134 68.9735 65.038L68.2528 65.0742L64.3667 61.1969C61.0323 57.8699 60.4391 57.3119 60.188 57.2662C59.9994 57.2318 59.7899 57.257 59.5987 57.3369C59.4354 57.4051 59.2256 57.5824 59.1325 57.7308C59.0087 57.9282 58.9725 58.0929 58.9981 58.344C59.0317 58.6747 59.1941 58.8501 63.4556 63.1546C65.8881 65.6116 68.0175 67.8055 68.1879 68.0297C68.3582 68.2539 68.5605 68.6315 68.6375 68.8689C68.7382 69.1792 68.7668 69.4677 68.7392 69.8966C68.7148 70.2767 68.6363 70.6265 68.5225 70.8616C68.4243 71.0644 68.2145 71.3636 68.0564 71.5265C67.8983 71.6893 67.615 71.9048 67.427 72.0052C67.1283 72.1649 66.9634 72.188 66.1246 72.188H65.1641L64.9448 71.9027C64.8242 71.7457 63.7829 70.645 62.6308 69.4566C61.4786 68.2682 59.4227 66.189 58.0622 64.8362C55.923 62.7094 55.5468 62.3689 55.2812 62.3197C55.0926 62.2847 54.8797 62.3018 54.7292 62.3641C54.5945 62.42 54.3934 62.5738 54.2822 62.7059C54.136 62.8796 54.08 63.0427 54.08 63.2946C54.08 63.5482 54.1432 63.7303 54.3122 63.9636C54.4399 64.1399 54.8448 64.5554 55.2118 64.8869C55.5789 65.2183 57.5694 67.2109 59.635 69.3149C62.7813 72.5194 63.4259 73.2151 63.6072 73.6018C63.7888 73.9893 63.8233 74.1746 63.8219 74.7564C63.8206 75.3071 63.7807 75.538 63.6274 75.8799C63.5117 76.1382 63.2755 76.4533 63.0374 76.6674C62.819 76.8638 62.4689 77.0828 62.2594 77.1543C62.0498 77.2257 61.6372 77.2837 61.3426 77.2833C61.0478 77.283 60.6232 77.2599 60.399 77.2322L59.9913 77.1817L59.7141 76.5815C59.5198 76.1608 59.225 75.7434 58.7282 75.1854C58.3384 74.7477 57.8333 74.2168 57.6059 74.0056C57.3785 73.7944 57.0973 73.5977 56.981 73.5685C56.8647 73.5393 56.6442 73.5389 56.491 73.5677C56.3171 73.6003 56.1181 73.7274 55.9615 73.9057C55.764 74.1306 55.7107 74.2665 55.7107 74.5444C55.7107 74.7804 55.7695 74.9755 55.8879 75.1327C55.9853 75.2621 56.4249 75.738 56.8646 76.1902C57.4295 76.771 57.7299 77.154 57.8878 77.4948C58.0733 77.8949 58.1112 78.0883 58.1103 78.6294C58.1094 79.1297 58.0663 79.3767 57.9252 79.6894C57.824 79.9136 57.5908 80.2509 57.4067 80.4389C57.2227 80.6268 56.8851 80.8632 56.6564 80.964C56.3424 81.1025 56.0796 81.1486 55.5823 81.1522C54.9397 81.157 54.9115 81.1487 54.4076 80.8105C54.0321 80.5585 53.8093 80.464 53.5901 80.464C53.4113 80.464 53.176 80.5398 53.0117 80.6505C52.8359 80.7687 52.6959 80.9543 52.6287 81.1582C52.5385 81.4319 52.5418 81.5292 52.6506 81.8142C52.7477 82.0683 52.9104 82.2438 53.327 82.5435C53.6287 82.7605 54.0408 82.9905 54.2428 83.0545C54.4698 83.1265 54.9678 83.1718 55.5476 83.1733C56.2807 83.1751 56.6009 83.1384 57.0153 83.0051C57.3068 82.9112 57.7654 82.7045 58.0345 82.5458C58.3035 82.387 58.7173 82.0485 58.9539 81.7934C59.1905 81.5384 59.5108 81.0764 59.6658 80.7668C59.8207 80.4571 59.9902 79.9964 60.0426 79.7428L60.1379 79.2817L61.0838 79.3098C61.7809 79.3306 62.1692 79.302 62.5597 79.2011C62.8512 79.1257 63.3099 78.948 63.5789 78.806C63.848 78.6641 64.2912 78.3225 64.5637 78.0471C64.885 77.7224 65.1653 77.3317 65.3608 76.9358C65.5268 76.6001 65.7159 76.0732 65.7812 75.7651C65.8465 75.457 65.9005 74.994 65.9013 74.7361L65.9027 74.2672L66.4123 74.266C66.6927 74.2653 67.157 74.2094 67.4443 74.1417C67.7317 74.074 68.1903 73.9015 68.4635 73.7585C68.7407 73.6135 69.1989 73.2589 69.5 72.9567C69.8408 72.6145 70.133 72.2229 70.2931 71.8938C70.4326 71.6072 70.6026 71.154 70.6708 70.8867C70.7391 70.6194 70.7949 70.086 70.7949 69.7012C70.7949 69.3164 70.7381 68.7829 70.6685 68.5156C70.5991 68.2484 70.4339 67.8129 70.3016 67.5478C70.1694 67.2828 70.0611 67.0563 70.0611 67.0446C70.0611 67.0327 70.1987 66.9792 70.3668 66.9254C70.5351 66.8716 70.9204 66.6991 71.2231 66.542C71.5827 66.3554 71.9423 66.0761 72.2594 65.737C72.5584 65.4174 72.8526 64.9904 73.0249 64.6261C73.1788 64.3007 73.3521 63.8326 73.4099 63.586C73.4678 63.3393 73.5134 62.844 73.5115 62.4852C73.5094 62.1265 73.4488 61.6045 73.3766 61.3254C73.3044 61.0463 73.137 60.606 73.0044 60.3469C72.8718 60.088 72.6106 59.6926 72.4242 59.4684C72.2376 59.2441 70.161 57.116 67.8095 54.7393C65.4581 52.3625 63.439 50.3486 63.3227 50.2641C63.2063 50.1794 62.9596 50.0949 62.7743 50.0761C62.5302 50.0514 62.3631 50.0886 62.1675 50.2113ZM33.8013 53.2723C33.5229 53.3328 33.0459 53.4996 32.7413 53.6431C32.2383 53.88 31.9176 54.1726 29.248 56.8305C27.3087 58.7613 26.2143 59.9126 26.0316 60.2139C25.8793 60.4652 25.6839 60.8772 25.5974 61.1295C25.5094 61.3864 25.4231 61.9112 25.4013 62.3221C25.3745 62.8293 25.4025 63.226 25.492 63.6063C25.5632 63.9091 25.7371 64.3861 25.8786 64.6663C26.0387 64.9837 26.3583 65.3987 26.726 65.7664C27.162 66.2025 27.4772 66.4333 27.932 66.6492C28.2706 66.8101 28.7979 66.9824 29.1037 67.0323C29.4096 67.0823 29.6663 67.1256 29.6741 67.1286C29.6819 67.1316 29.6367 67.354 29.5735 67.6227C29.5102 67.8914 29.4586 68.313 29.4587 68.5597C29.4587 68.8063 29.5113 69.2561 29.5756 69.5591C29.6398 69.8621 29.8234 70.3594 29.9835 70.6641C30.1437 70.9689 30.4482 71.3961 30.6603 71.6134C30.8724 71.8308 31.2635 72.1504 31.5293 72.3237C31.7951 72.4971 32.2522 72.7129 32.5449 72.8033C32.8667 72.9027 33.3366 72.9723 33.7331 72.9792C34.0938 72.9855 34.5449 72.9628 34.7355 72.9287L35.082 72.8667V73.183C35.082 73.3569 35.1382 73.7148 35.2068 73.9784C35.2755 74.2421 35.4491 74.6781 35.5926 74.9473C35.7361 75.2165 36.0296 75.6294 36.2447 75.8649C36.4599 76.1003 36.8453 76.4319 37.1012 76.6018C37.357 76.7716 37.8044 76.997 38.0954 77.1026C38.4002 77.2132 38.9018 77.3136 39.2789 77.3394C39.6394 77.3641 40.1349 77.3432 40.3818 77.293C40.6285 77.2427 40.9312 77.1792 41.0545 77.1518C41.2386 77.1109 41.2787 77.13 41.2787 77.2587C41.2787 77.345 41.3551 77.6418 41.4486 77.9183C41.5419 78.1948 41.7556 78.6331 41.9232 78.8922C42.0909 79.1512 42.4089 79.5441 42.63 79.7651C42.8509 79.9861 43.2491 80.3075 43.5146 80.4794C43.7801 80.6513 44.2865 80.8832 44.6399 80.9949C45.1111 81.1437 45.4643 81.1978 45.9641 81.1978C46.4027 81.1978 46.8216 81.143 47.1392 81.0442C47.4106 80.9597 47.79 80.7972 47.9822 80.6831C48.1744 80.5689 49.4762 79.3264 50.875 77.9218C52.9672 75.8209 53.455 75.2884 53.6252 74.9195C53.739 74.6729 53.874 74.2693 53.9253 74.0226C53.977 73.774 54 73.2652 53.9771 72.8811C53.9493 72.419 53.8663 72.0061 53.7276 71.642C53.6133 71.3417 53.3943 70.9014 53.2409 70.6636C53.0877 70.4258 52.7649 70.0354 52.5239 69.796C52.2829 69.5567 51.8709 69.235 51.6083 69.0812C51.3459 68.9273 50.9071 68.726 50.6333 68.6338C50.3595 68.5416 49.8856 68.4451 49.5801 68.4195L49.0247 68.373L49.0237 67.7936C49.0232 67.475 48.9692 67.0128 48.9036 66.7665C48.8381 66.5202 48.6706 66.0944 48.5316 65.8205C48.3925 65.5464 48.117 65.1373 47.9193 64.9114C47.7217 64.6855 47.3489 64.3606 47.0909 64.1893C46.8329 64.0181 46.3828 63.7908 46.0906 63.6842C45.7439 63.5578 45.2974 63.4746 44.8052 63.4447L44.051 63.3989V62.7264C44.051 62.2749 43.9947 61.8702 43.8797 61.495C43.7855 61.1876 43.5831 60.7284 43.43 60.4748C43.2768 60.2211 42.9286 59.8072 42.6561 59.5549C42.3837 59.3027 41.9443 58.9871 41.6798 58.8535C41.4153 58.72 40.9692 58.5565 40.6884 58.4904C40.4077 58.4242 39.9853 58.3695 39.7499 58.3689L39.3219 58.3676V57.638C39.3219 57.0873 39.2724 56.7524 39.12 56.2723C39.0089 55.9224 38.7817 55.4344 38.615 55.1877C38.4484 54.9411 38.1348 54.5666 37.9183 54.3556C37.7017 54.1445 37.2593 53.8413 36.9352 53.6818C36.611 53.5223 36.089 53.3379 35.775 53.2719C35.4611 53.2061 35.0025 53.1544 34.7558 53.1572C34.5092 53.16 34.0797 53.2118 33.8013 53.2723ZM35.6785 55.3175C35.8881 55.3889 36.2449 55.6141 36.4717 55.8179C36.6984 56.0217 36.951 56.3211 37.033 56.4831C37.1149 56.6451 37.2084 56.8996 37.2405 57.0486C37.2727 57.1976 37.2976 57.5029 37.2959 57.7271C37.2941 57.9512 37.231 58.3247 37.1555 58.5569C37.0303 58.9418 36.7721 59.2265 34.2359 61.7753C32.0032 64.0191 31.3651 64.6149 31.0052 64.7921C30.6309 64.9763 30.4488 65.0128 29.9044 65.0128C29.3556 65.0128 29.1787 64.9767 28.7888 64.7854C28.5341 64.6602 28.2133 64.4299 28.076 64.2735C27.9386 64.1171 27.7437 63.8342 27.6429 63.6448C27.4918 63.3612 27.4595 63.1713 27.4595 62.5668C27.4595 61.9554 27.4914 61.7717 27.6508 61.466C27.7744 61.2291 28.7999 60.1374 30.5448 58.385C32.7707 56.1498 33.3325 55.6283 33.7293 55.4293C34.119 55.2339 34.3151 55.1877 34.7544 55.1877C35.0531 55.1877 35.469 55.2461 35.6785 55.3175ZM40.3634 60.5305C40.5938 60.5989 40.9396 60.7748 41.1319 60.9214C41.3562 61.0925 41.5792 61.3766 41.7543 61.7143C42.0083 62.2044 42.0251 62.2855 41.9994 62.8929C41.978 63.3992 41.9224 63.6455 41.751 63.9936C41.5727 64.3556 40.9359 65.0337 38.4488 67.5099C35.5858 70.3601 35.3339 70.5899 34.8954 70.751C34.5846 70.8651 34.2322 70.9242 33.863 70.9242C33.3897 70.9242 33.2226 70.8829 32.7894 70.6587C32.4628 70.4896 32.179 70.2654 32.0084 70.0417C31.861 69.8484 31.6806 69.4845 31.6075 69.2331C31.5201 68.9325 31.4901 68.6251 31.5198 68.3367C31.5448 68.0952 31.6796 67.6529 31.8196 67.3539C32.0463 66.8694 32.3066 66.5792 34.21 64.6885C35.3848 63.5215 36.7709 62.1572 37.2903 61.6566C38.1412 60.8366 38.2864 60.7301 38.7579 60.5809C39.0456 60.4897 39.4304 60.4131 39.6128 60.4106C39.7953 60.4081 40.1331 60.4621 40.3634 60.5305ZM45.6647 65.6946C45.8571 65.7943 46.1582 66.0237 46.3338 66.2047C46.5094 66.3856 46.7281 66.734 46.8196 66.9789C46.9186 67.2434 46.9863 67.6205 46.9863 67.9074C46.9863 68.1967 46.917 68.5798 46.8135 68.8623C46.6532 69.3003 46.442 69.5328 43.8838 72.0881C41.5324 74.4368 41.0578 74.8735 40.657 75.057C40.3248 75.209 40.0422 75.2743 39.6933 75.2793C39.4218 75.2832 39.0309 75.2373 38.8246 75.1773C38.6184 75.1174 38.2703 74.9328 38.0512 74.7672C37.7742 74.5578 37.5694 74.3053 37.3794 73.9385C37.1243 73.4466 37.1078 73.3672 37.1343 72.7588C37.1546 72.2958 37.2151 71.9999 37.3429 71.7395C37.469 71.4827 38.3743 70.5252 40.3589 68.5496C42.7109 66.2087 43.2575 65.7045 43.5618 65.5958C43.8179 65.5043 44.138 65.4721 44.6217 65.4892C45.1436 65.5076 45.4012 65.5583 45.6647 65.6946ZM50.1422 70.6114C50.4746 70.7357 50.7472 70.9219 51.067 71.2433C51.3164 71.4938 51.6062 71.8771 51.711 72.0948C51.8291 72.3404 51.9166 72.702 51.9413 73.0463C51.9736 73.4992 51.9493 73.667 51.8095 73.9559C51.6936 74.1954 50.8779 75.0667 49.2917 76.6456C47.2115 78.7163 46.9039 78.9922 46.5786 79.0793C46.3768 79.1333 45.9986 79.1584 45.7382 79.135C45.4696 79.1109 45.0749 78.9996 44.8258 78.8777C44.5731 78.7541 44.2143 78.4741 43.9801 78.2178C43.7379 77.9528 43.5049 77.5902 43.4045 77.3215C43.3089 77.0662 43.2356 76.6757 43.2356 76.4222C43.2356 76.1758 43.2925 75.8379 43.3619 75.6711C43.4452 75.4713 44.2714 74.5827 45.7869 73.0633C47.1834 71.6634 48.214 70.6952 48.4125 70.5969C48.6232 70.4927 48.9048 70.4351 49.2051 70.4351C49.483 70.435 49.8609 70.5061 50.1422 70.6114Z" fill="#F3012A" stroke="#F3012A"/>
</svg>
