<svg width="100" height="101" viewBox="0 0 100 101" fill="none" xmlns="http://www.w3.org/2000/svg">
<rect width="100" height="100" transform="translate(0 0.67334)" fill=""/>
<path fill-rule="evenodd" clip-rule="evenodd" d="M47.5426 18.2622C47.0303 18.3341 46.1517 18.4973 45.5905 18.625C45.0292 18.7526 43.9541 19.0878 43.2014 19.3697C42.4488 19.6516 41.2877 20.1811 40.6214 20.5461C39.9551 20.9112 38.8681 21.6169 38.2058 22.1143C37.5436 22.6115 36.4439 23.5979 35.7622 24.3061C35.0806 25.0144 34.089 26.2473 33.5589 27.046C33.0289 27.8448 32.3253 29.1133 31.9955 29.8648C31.6656 30.6165 31.2325 31.7928 31.0328 32.4788C30.8331 33.165 30.5753 34.3471 30.4602 35.1059C30.3448 35.8647 30.2502 37.0853 30.2497 37.8184C30.2493 38.5513 30.3186 39.6623 30.4037 40.2872C30.4889 40.9119 30.6915 41.9693 30.854 42.6368C31.0165 43.3043 31.339 44.3099 31.5705 44.8715C31.802 45.433 31.9915 45.916 31.9915 45.9451C31.9915 45.974 29.8841 45.9982 27.3081 45.9991C22.6874 46.0004 22.6149 46.0051 21.8985 46.3437C21.4992 46.5325 20.9965 46.8749 20.7816 47.1048C20.5667 47.3346 20.2576 47.8166 20.095 48.176C19.8032 48.8204 19.7992 49.0488 19.796 64.4968C19.7937 75.9749 19.8378 80.3145 19.9614 80.7266C20.054 81.0359 20.3608 81.5589 20.6431 81.8887C20.9254 82.2183 21.4867 82.6421 21.8904 82.83L22.6246 83.1719L49.8259 83.1733C70.2572 83.1745 77.1967 83.1321 77.7082 83.0033C78.2076 82.8776 78.5855 82.6354 79.1259 82.095C79.6662 81.5547 79.9085 81.1768 80.0341 80.6774C80.1607 80.1749 80.2052 75.9142 80.2041 64.413L80.2027 48.8295L79.8608 48.0953C79.6729 47.6915 79.2449 47.1265 78.9099 46.8397C78.5749 46.553 78.0142 46.2461 77.6641 46.158C77.2673 46.0581 75.3216 45.9977 72.5015 45.9977C68.2463 45.9977 67.9823 45.9824 68.0856 45.7435C68.146 45.6038 68.3866 44.9666 68.6203 44.3276C68.8539 43.6886 69.1824 42.545 69.3505 41.7862C69.5917 40.6959 69.6575 39.889 69.6641 37.9378C69.6704 36.0875 69.6071 35.1598 69.411 34.2346C69.2673 33.5557 68.9546 32.412 68.7163 31.6932C68.478 30.9743 67.9708 29.7653 67.5893 29.0066C67.2078 28.2478 66.4986 27.0715 66.0134 26.3925C65.528 25.7136 64.6181 24.6561 63.9911 24.0424C63.3644 23.4287 62.56 22.6872 62.2037 22.3945C61.8475 22.1019 61.2807 21.6732 60.9444 21.4417C60.608 21.2104 59.7061 20.6991 58.94 20.3054C58.1738 19.9118 56.9433 19.3918 56.2056 19.1497C55.4679 18.9076 54.3414 18.6028 53.7024 18.4721C53.0634 18.3415 51.6257 18.2114 50.5075 18.1831C49.3893 18.1548 48.0551 18.1903 47.5426 18.2622ZM48.8079 21.7595C48.7668 22.7852 48.7481 22.8365 48.4017 22.8755C48.2021 22.898 47.5159 23.0173 46.8769 23.1404C46.2379 23.2637 45.2363 23.5556 44.6512 23.7893C44.0661 24.0229 43.5433 24.2139 43.4894 24.2136C43.4355 24.2133 43.1708 23.7861 42.9008 23.2641C42.631 22.7424 42.435 22.2932 42.4652 22.266C42.4955 22.2389 42.7816 22.0855 43.1011 21.9252C43.4206 21.7649 44.2375 21.4581 44.9164 21.2437C45.5953 21.0292 46.7063 20.7698 47.3852 20.6673C48.0641 20.5647 48.6717 20.5267 48.7353 20.5826C48.7989 20.6387 48.8316 21.1681 48.8079 21.7595ZM54.1137 20.9621C54.5795 21.0811 55.5159 21.3796 56.1946 21.6252C56.8732 21.8707 57.4631 22.1619 57.5055 22.2723C57.5477 22.3828 57.3578 22.8485 57.083 23.3073C56.8084 23.7662 56.4908 24.13 56.3774 24.1157C56.264 24.1015 55.6023 23.8895 54.907 23.6445C54.2118 23.3995 53.1662 23.1252 52.5834 23.035C52.0008 22.9448 51.4424 22.8485 51.3425 22.8211C51.2182 22.7868 51.161 22.4338 51.161 21.7015C51.161 21.1132 51.1934 20.5996 51.233 20.5599C51.2727 20.5203 51.7465 20.5459 52.2859 20.6166C52.8254 20.6874 53.6479 20.8428 54.1137 20.9621ZM40.9178 24.4518L41.4816 25.4153L41.0569 25.7117C40.8234 25.8748 40.072 26.5684 39.3873 27.2533C38.7024 27.938 38.0112 28.686 37.8511 28.9156L37.56 29.3332L36.591 28.7758C36.0581 28.4694 35.6221 28.1714 35.6221 28.1139C35.6221 28.0562 36.0062 27.5309 36.4756 26.9467C36.9451 26.3623 37.6149 25.6154 37.9641 25.2871C38.3134 24.9586 38.9482 24.4194 39.3747 24.089C39.8012 23.7585 40.1961 23.4881 40.2521 23.4881C40.3082 23.4881 40.6078 23.9217 40.9178 24.4518ZM60.2766 23.8317C60.5745 24.0206 61.3003 24.6226 61.8893 25.169C62.4784 25.7157 63.279 26.5837 63.6683 27.098C64.0577 27.6124 64.3763 28.0754 64.3763 28.1266C64.3763 28.1781 63.9448 28.4726 63.4174 28.781L62.4583 29.342L62.0847 28.8475C61.879 28.5755 61.1833 27.8256 60.5385 27.1808C59.8937 26.5362 59.1773 25.8769 58.9465 25.7157L58.527 25.4227L59.0679 24.4554C59.3655 23.9233 59.6372 23.4881 59.6719 23.4881C59.7066 23.4881 59.9786 23.6427 60.2766 23.8317ZM52.2247 25.2939C52.8239 25.4087 53.7866 25.6667 54.3642 25.8676C54.9417 26.0684 55.9291 26.544 56.5583 26.9243C57.1876 27.3047 58.1568 28.0307 58.7121 28.5376C59.2676 29.0445 60.083 30.0018 60.5241 30.6647C60.9653 31.3278 61.5142 32.3261 61.744 32.8831C61.9737 33.4402 62.2812 34.348 62.4272 34.9003C62.6205 35.6305 62.6942 36.4398 62.6972 37.8652C62.7004 39.33 62.6333 40.0797 62.4316 40.83C62.2832 41.3823 61.9784 42.2786 61.7544 42.8216C61.5305 43.3648 61.0515 44.2662 60.6902 44.8248C60.3288 45.3835 59.589 46.2919 59.0462 46.8436C58.5033 47.3951 57.5536 48.176 56.9356 48.5787C56.3176 48.9814 55.37 49.4787 54.8299 49.6836C54.2897 49.8885 53.4228 50.1706 52.9037 50.3103C52.2382 50.4894 51.4026 50.5655 50.0718 50.5683C48.6777 50.5712 47.8991 50.4994 47.0947 50.2941C46.4957 50.1412 45.5554 49.8308 45.0051 49.6043C44.455 49.3777 43.4643 48.8291 42.8037 48.385C42.1429 47.9407 41.2521 47.2042 40.8239 46.7482C40.3956 46.292 39.7347 45.4516 39.3551 44.8806C38.9755 44.3096 38.4785 43.3906 38.2508 42.8383C38.0231 42.286 37.7156 41.3823 37.5677 40.83C37.3693 40.0891 37.2983 39.3113 37.2971 37.8652C37.2958 36.2671 37.3575 35.6768 37.6305 34.672C37.8148 33.9941 38.235 32.8881 38.564 32.2144C38.8931 31.5407 39.5321 30.5243 39.984 29.9557C40.4358 29.3872 41.1586 28.6223 41.5902 28.2559C42.0218 27.8896 42.7447 27.3551 43.1967 27.068C43.6486 26.7809 44.4001 26.377 44.8667 26.1705C45.3333 25.9641 46.2052 25.6715 46.8043 25.5205C47.4033 25.3693 48.0568 25.2186 48.2565 25.1854C48.4562 25.1522 49.1857 25.1162 49.8775 25.1053C50.5693 25.0944 51.6255 25.1793 52.2247 25.2939ZM35.4403 30.7855C36.0745 31.1113 36.3383 31.325 36.2919 31.4753C36.2547 31.5952 36.0238 32.262 35.7787 32.9573C35.5335 33.6525 35.2592 34.6981 35.169 35.2809C35.0788 35.8636 34.9825 36.4221 34.9551 36.5218C34.9204 36.6478 34.5502 36.7034 33.7479 36.7034H32.5907L32.6657 36.1588C32.7069 35.8593 32.8383 35.1048 32.9578 34.482C33.0774 33.8593 33.3271 32.9117 33.5127 32.3763C33.6985 31.8409 33.9558 31.1577 34.0846 30.8581C34.2136 30.5587 34.3646 30.3136 34.4202 30.3136C34.4759 30.3136 34.9349 30.526 35.4403 30.7855ZM65.9705 30.9936C66.1359 31.3677 66.4324 32.201 66.6291 32.8452C66.826 33.4896 67.0754 34.5946 67.1834 35.3008C67.3342 36.2861 67.3397 36.6004 67.207 36.6512C67.1119 36.6878 66.5869 36.6981 66.0404 36.6742L65.0466 36.6308L64.8438 35.3964C64.7321 34.7175 64.4588 33.6392 64.2364 33.0002C64.0141 32.3612 63.7864 31.7298 63.7305 31.5969C63.6525 31.4116 63.8252 31.2372 64.4746 30.8459C64.9396 30.5658 65.3988 30.3313 65.4949 30.325C65.5911 30.3186 65.8051 30.6195 65.9705 30.9936ZM35.1464 40.3247C35.2506 40.9984 35.5353 42.1093 35.7788 42.7935C36.0223 43.4775 36.2336 44.1289 36.2486 44.2412C36.2634 44.3534 35.8956 44.6692 35.4311 44.9429C34.9667 45.2166 34.501 45.4078 34.3961 45.3675C34.2914 45.3273 34.0048 44.7392 33.7592 44.0605C33.5136 43.3819 33.2131 42.4427 33.0916 41.9734C32.97 41.5042 32.8264 40.6462 32.7725 40.067L32.6747 39.014L33.8157 39.0567L34.9567 39.0996L35.1464 40.3247ZM67.3252 39.1359C67.3592 39.1957 67.269 39.9333 67.1251 40.7747C66.981 41.6161 66.6323 42.9506 66.35 43.7403C66.0678 44.5299 65.7723 45.2406 65.6933 45.3196C65.5986 45.4143 65.3247 45.344 64.8896 45.1132C64.5267 44.9208 64.0999 44.6652 63.9412 44.5454C63.6555 44.3298 63.657 44.3166 64.0755 43.2384C64.3082 42.6394 64.6049 41.5938 64.7348 40.9148C64.865 40.2359 65.002 39.5335 65.0397 39.3537C65.103 39.0503 65.185 39.0269 66.1858 39.0269C66.7786 39.0269 67.2913 39.076 67.3252 39.1359ZM37.8614 46.7991C37.9933 47.0003 38.5334 47.623 39.0617 48.183C39.5899 48.7431 40.4425 49.5097 40.9563 49.8867L41.8905 50.5722L40.0386 50.613L38.1866 50.6538L37.6869 50.1773C37.412 49.9153 36.8349 49.2633 36.4046 48.7283C35.9743 48.1934 35.6221 47.7011 35.6221 47.6342C35.6221 47.5672 36.0306 47.2729 36.5298 46.9799C37.029 46.687 37.4789 46.4442 37.5296 46.4403C37.5803 46.4365 37.7297 46.5979 37.8614 46.7991ZM63.4387 46.9725C63.9544 47.2691 64.3763 47.5727 64.3763 47.6474C64.3763 47.722 64.1326 48.0838 63.8347 48.4515C63.537 48.8192 62.972 49.4631 62.5793 49.8824L61.8654 50.6448H60.0711C59.0844 50.6448 58.2769 50.5935 58.2769 50.5309C58.2769 50.4682 58.4657 50.3054 58.6965 50.1692C58.9272 50.0328 59.6061 49.4637 60.205 48.9043C60.8039 48.3449 61.5436 47.5601 61.8484 47.1603C62.1534 46.7605 62.4249 46.4333 62.4521 46.4333C62.4791 46.4333 62.9232 46.676 63.4387 46.9725ZM33.7802 49.0836C34.0678 49.5029 34.4419 50.0259 34.6116 50.2454L34.9202 50.6448H33.5916C32.8608 50.6448 32.1455 50.7077 32.0018 50.7845C31.8584 50.8613 31.6587 51.1227 31.5582 51.3654C31.4114 51.7199 31.4114 51.8933 31.5582 52.2478C31.6587 52.4904 31.8584 52.7518 32.0018 52.8287C32.1651 52.9159 38.9229 52.9666 50.0259 52.9637C63.7602 52.9602 67.8413 52.919 68.0195 52.7822C68.1461 52.6849 68.3259 52.4626 68.4189 52.2881C68.5117 52.1136 68.5878 51.8455 68.5878 51.6921C68.5878 51.5388 68.4274 51.2404 68.2317 51.0291C67.8947 50.6656 67.8011 50.6448 66.498 50.6448H65.1204L65.9454 49.483L66.7706 48.3212H71.9434H77.1163L77.4992 48.704L77.882 49.087V52.1894V55.2919H49.9992H22.1164V52.1908C22.1164 49.1003 22.1175 49.0884 22.4724 48.7055L22.8287 48.3212H28.0431H33.2574L33.7802 49.0836ZM26.1826 57.6537C26.1826 57.6748 25.2677 58.6052 24.1495 59.7212L22.1164 61.7504V59.683V57.6155H24.1495C25.2677 57.6155 26.1826 57.6328 26.1826 57.6537ZM33.1533 57.6613C33.1533 57.6864 32.124 58.7314 30.8661 59.9837L28.5788 62.2602L26.7652 62.2613L24.9516 62.2626L27.2718 59.9391L29.592 57.6155H31.3726C32.352 57.6155 33.1533 57.6361 33.1533 57.6613ZM40.002 57.6872C40.0415 57.7266 39.0533 58.7722 37.806 60.0108L35.5382 62.2626L33.7285 62.2615L31.9189 62.2602L34.2515 59.9379L36.5841 57.6155H38.2572C39.1775 57.6155 39.9627 57.6477 40.002 57.6872ZM44.8438 59.9391L42.5235 62.2626H40.7083H38.893L41.2132 59.9391L43.5334 57.6155H45.3487H47.164L44.8438 59.9391ZM54.0654 57.6613C54.0654 57.6864 53.0362 58.7314 51.7782 59.9837L49.4909 62.2602L47.6774 62.2613L45.8637 62.2626L48.1839 59.9391L50.5041 57.6155H52.2847C53.2641 57.6155 54.0654 57.6361 54.0654 57.6613ZM60.8909 57.7227C60.8909 57.7816 59.8951 58.8272 58.678 60.0462L56.4651 62.2626H54.6498H52.8344L55.1546 59.9391L57.4748 57.6155H59.1828C60.1223 57.6155 60.8909 57.6637 60.8909 57.7227ZM65.7559 59.9391L63.4357 62.2626H61.6204H59.8051L62.1253 59.9391L64.4456 57.6155H66.2608H68.0761L65.7559 59.9391ZM74.9776 57.6613C74.9776 57.6864 73.9484 58.7314 72.6903 59.9837L70.403 62.2602L68.5895 62.2613L66.7758 62.2626L69.096 59.9391L71.4163 57.6155H73.1968C74.1762 57.6155 74.9776 57.6361 74.9776 57.6613ZM77.882 60.2295V62.2626H75.8145H73.7471L75.7763 60.2295C76.8923 59.1113 77.8228 58.1964 77.8438 58.1964C77.8647 58.1964 77.882 59.1113 77.882 60.2295ZM77.882 72.3622V80.1383L77.5255 80.4947L77.1691 80.8512H50.0256H22.8821L22.4992 80.4684L22.1164 80.0854V72.4326C22.1164 68.2236 22.1599 64.7362 22.2132 64.6831C22.2664 64.6298 34.8136 64.5862 50.0961 64.5862H77.882V72.3622ZM24.796 69.6176C24.6003 69.8289 24.4399 70.1789 24.4399 70.3951C24.4399 70.6114 24.6003 70.9614 24.796 71.1727L25.1522 71.5569H27.925C30.6752 71.5569 30.7006 71.554 31.0541 71.2004C31.2688 70.9859 31.4106 70.6764 31.4106 70.4229C31.4106 70.1773 31.2624 69.8418 31.0546 69.6176L30.6983 69.2334H27.9253H25.1522L24.796 69.6176ZM34.0771 69.6318C33.7785 69.9541 33.7233 70.1281 33.7891 70.5395C33.834 70.8195 34.0106 71.1631 34.1815 71.3028C34.4534 71.525 34.8388 71.5569 37.2422 71.5569C39.9681 71.5569 39.9951 71.5539 40.3484 71.2004C40.563 70.9859 40.7049 70.6764 40.7049 70.4229C40.7049 70.1773 40.5566 69.8418 40.3488 69.6176L39.9926 69.2334H37.2196H34.4465L34.0771 69.6318ZM43.3846 69.6176C43.1888 69.8289 43.0285 70.1789 43.0285 70.3951C43.0285 70.6114 43.1888 70.9614 43.3846 71.1727L43.7408 71.5569H46.5135C49.2638 71.5569 49.2892 71.554 49.6427 71.2004C49.8573 70.9859 49.9992 70.6764 49.9992 70.4229C49.9992 70.1773 49.8509 69.8418 49.6431 69.6176L49.2869 69.2334H46.5138H43.7408L43.3846 69.6176ZM52.6788 69.6176C52.4831 69.8289 52.3228 70.1789 52.3228 70.3951C52.3228 70.6114 52.4831 70.9614 52.6788 71.1727L53.0351 71.5569H55.8078C58.5581 71.5569 58.5835 71.554 58.937 71.2004C59.1516 70.9859 59.2935 70.6764 59.2935 70.4229C59.2935 70.1773 59.1452 69.8418 58.9374 69.6176L58.5812 69.2334H55.8081H53.0351L52.6788 69.6176ZM64.651 69.5752C64.2032 69.7595 63.6248 70.0613 63.3655 70.2458C63.1063 70.4304 62.675 70.924 62.4072 71.3427C62.1393 71.7614 61.8433 72.4095 61.7492 72.783C61.6552 73.1564 61.6134 73.8493 61.6563 74.3227C61.6992 74.796 61.8845 75.4936 62.0681 75.873C62.2518 76.2523 62.6978 76.85 63.0594 77.2015C63.421 77.5529 64.0122 77.9679 64.3734 78.1239C64.7344 78.2797 65.3652 78.4428 65.7752 78.4861C66.1852 78.5294 66.8714 78.481 67.3001 78.3785C67.7288 78.2761 68.1898 78.1239 68.3246 78.0401C68.4974 77.9329 68.6689 77.9366 68.9055 78.0525C69.0902 78.1429 69.4967 78.2953 69.8088 78.3911C70.155 78.4974 70.7423 78.5311 71.314 78.4778C71.9883 78.4148 72.5018 78.2534 73.1427 77.9029C73.7147 77.5899 74.2297 77.1598 74.5813 76.7009C74.8824 76.3079 75.2336 75.6314 75.3615 75.198C75.5143 74.6799 75.5696 74.1044 75.5226 73.519C75.4832 73.0292 75.3171 72.3254 75.1533 71.9551C74.9896 71.5849 74.5709 70.9974 74.223 70.6494C73.875 70.3015 73.2774 69.8654 72.8951 69.6802C72.4919 69.485 71.8073 69.3122 71.266 69.2686C70.5314 69.2097 70.1456 69.2618 69.4565 69.5131L68.5806 69.8324L67.78 69.5329C67.3385 69.3677 66.6399 69.2349 66.2224 69.2368C65.7713 69.2389 65.1365 69.3755 64.651 69.5752ZM67.1791 71.7923C67.4347 71.9217 67.7636 72.1327 67.91 72.2613C68.0562 72.3898 68.2687 72.7167 68.382 72.9877C68.4951 73.2586 68.5878 73.6705 68.5878 73.9029C68.5878 74.1354 68.4986 74.5388 68.3897 74.7996C68.2808 75.0603 67.9848 75.4477 67.732 75.6605C67.4791 75.8732 67.0453 76.0898 66.7683 76.1419C66.491 76.1939 66.0224 76.191 65.7267 76.1355C65.3895 76.0723 64.9884 75.8337 64.6496 75.4951C64.3109 75.1563 64.0723 74.7552 64.0092 74.418C63.9537 74.1223 63.9508 73.6536 64.0028 73.3764C64.0549 73.0993 64.2713 72.6658 64.4837 72.4133C64.6964 72.1608 65.0694 71.8673 65.313 71.7613C65.5567 71.6551 65.9716 71.5658 66.2351 71.5626C66.4986 71.5595 66.9233 71.6628 67.1791 71.7923ZM71.8201 71.7694C72.1 71.8863 72.4975 72.1824 72.7035 72.4272C72.9094 72.6721 73.1206 73.0993 73.1727 73.3764C73.2247 73.6536 73.2247 74.1073 73.1727 74.3846C73.1206 74.6616 72.9094 75.0889 72.7035 75.3337C72.4975 75.5786 72.1 75.8747 71.8201 75.9916C71.5404 76.1084 71.0838 76.2041 70.8055 76.2041C70.3789 76.2041 70.3165 76.1641 70.408 75.9499C70.4677 75.8102 70.6053 75.3711 70.714 74.9743C70.8224 74.5776 70.9106 74.0221 70.9097 73.7399C70.9089 73.4577 70.8108 72.9062 70.6919 72.5141C70.573 72.122 70.4757 71.7463 70.4757 71.6791C70.4757 71.6118 70.6637 71.5569 70.8936 71.5569C71.1235 71.5569 71.5404 71.6526 71.8201 71.7694ZM24.796 76.5883C24.6003 76.7996 24.4399 77.1496 24.4399 77.3658C24.4399 77.5821 24.6003 77.9321 24.796 78.1434L25.1522 78.5276H41.8664H58.5806L58.937 78.1711C59.1516 77.9566 59.2935 77.6471 59.2935 77.3936C59.2935 77.148 59.1452 76.8125 58.9374 76.5883L58.5812 76.2041H41.8667H25.1522L24.796 76.5883Z" fill="#F3012A"/>
</svg>
