<svg width="101" height="101" viewBox="0 0 101 101" fill="none" xmlns="http://www.w3.org/2000/svg">
<rect width="100" height="100" transform="translate(0.666626 0.67334)" fill=""/>
<path fill-rule="evenodd" clip-rule="evenodd" d="M50.1306 18.2594C49.7108 18.2996 48.9834 18.3968 48.5143 18.4756C48.0451 18.5542 47.1938 18.7363 46.6225 18.8801C46.0513 19.0239 45.1624 19.2893 44.647 19.4699C44.1318 19.6504 43.0637 20.113 42.2735 20.4979C41.4833 20.8827 40.3519 21.5172 39.7592 21.9077C39.1666 22.2982 38.2978 22.9354 37.8286 23.3238C37.3594 23.7121 36.5627 24.4489 36.0581 24.9612C35.5535 25.4736 34.8734 26.2242 34.5468 26.6294C34.2202 27.0345 33.6169 27.871 33.2062 28.4884C32.7955 29.1057 32.2344 30.0359 31.9594 30.5554C31.6843 31.0749 31.2734 31.9437 31.0462 32.486C30.8189 33.0284 30.4572 34.0378 30.2424 34.7294C30.0276 35.4209 29.7497 36.512 29.6247 37.1539C29.4998 37.7958 29.3502 38.7748 29.2923 39.3295C29.227 39.9546 29.2044 41.1151 29.2327 42.3825C29.2609 43.6469 29.3338 44.7526 29.4237 45.2801C29.5038 45.7493 29.6532 46.4969 29.7557 46.9413C29.8582 47.3858 30.0645 48.1334 30.2143 48.6026C30.364 49.0717 30.6437 49.8513 30.836 50.335C31.0281 50.8187 31.3313 51.5056 31.5095 51.8615C31.6878 52.2174 32.0814 52.9272 32.3842 53.4387C32.687 53.9502 33.306 54.8635 33.7596 55.468C34.2133 56.0725 34.9945 56.9966 35.4956 57.5214C36.1539 58.2109 36.4945 58.5 36.7232 58.5631C36.963 58.6293 37.1241 58.6167 37.3875 58.5113C37.5906 58.43 37.8108 58.25 37.9167 58.0788C38.0164 57.9174 38.098 57.6764 38.098 57.5431C38.098 57.4099 38.0517 57.2127 37.995 57.1047C37.9383 56.9969 37.6376 56.6375 37.3266 56.3063C37.0157 55.9749 36.4581 55.3396 36.0876 54.8944C35.7171 54.4492 35.1132 53.6293 34.7457 53.0723C34.3781 52.5154 33.7914 51.4738 33.4419 50.7576C33.0924 50.0415 32.625 48.9101 32.4032 48.2434C32.1815 47.5766 31.899 46.526 31.7754 45.9087C31.6519 45.2914 31.5087 44.3678 31.4571 43.8563C31.4055 43.3449 31.3633 42.4096 31.3633 41.7781C31.3633 41.1466 31.4039 40.2114 31.4535 39.6999C31.5031 39.1884 31.6486 38.2245 31.7768 37.5577C31.9052 36.891 32.2077 35.7492 32.4491 35.0202C32.6907 34.2913 33.0868 33.2609 33.3294 32.7304C33.572 32.2 33.9421 31.4629 34.1519 31.0925C34.3617 30.722 34.7767 30.0553 35.0742 29.6108C35.3717 29.1663 35.9257 28.4188 36.3052 27.9496C36.6848 27.4804 37.4425 26.6651 37.9892 26.1378C38.5357 25.6105 39.3597 24.8964 39.8201 24.5509C40.2805 24.2055 41.019 23.6962 41.4613 23.419C41.9035 23.1419 42.7117 22.6986 43.2572 22.4338C43.8027 22.1691 44.6434 21.806 45.1253 21.6268C45.6073 21.4477 46.4559 21.1849 47.011 21.0426C47.5662 20.9004 48.4001 20.7196 48.8643 20.6408C49.3284 20.562 50.3423 20.4493 51.1172 20.3903C52.1986 20.3081 52.848 20.3075 53.9101 20.3879C54.6711 20.4454 55.7585 20.5756 56.3265 20.6774C56.8944 20.779 57.7869 20.9824 58.3097 21.1294C58.8325 21.2764 59.664 21.5539 60.1576 21.7463C60.6511 21.9386 61.5164 22.3273 62.0805 22.6099C62.6445 22.8926 63.4293 23.3287 63.8244 23.5791C64.2195 23.8294 64.9468 24.3392 65.4407 24.7119C65.9346 25.0845 66.8473 25.8947 67.4692 26.5123C68.0909 27.13 68.8552 27.9586 69.1676 28.3537C69.48 28.7488 70.0137 29.4963 70.3535 30.0149C70.6934 30.5335 71.2496 31.5235 71.5895 32.2149C71.9296 32.9063 72.4111 34.0781 72.6597 34.819C72.9083 35.5598 73.2117 36.671 73.3339 37.2883C73.4561 37.9057 73.6043 38.8933 73.6634 39.483C73.7298 40.1456 73.7515 41.2092 73.7205 42.2667C73.6874 43.3898 73.6055 44.3485 73.482 45.0556C73.3786 45.6483 73.1723 46.5905 73.0236 47.1494C72.875 47.7084 72.5582 48.658 72.3197 49.2596C72.0812 49.8613 71.7022 50.7172 71.4775 51.1617C71.2529 51.6062 70.8454 52.3242 70.572 52.7574C70.2987 53.1905 69.7941 53.9178 69.4506 54.3737C69.1072 54.8295 68.4319 55.6196 67.95 56.1294C67.4681 56.6392 66.6457 57.4064 66.1226 57.8342C65.5994 58.2621 65.1227 58.6734 65.0633 58.7482C65.0039 58.823 64.9313 58.9896 64.9018 59.1184C64.8716 59.2509 64.9127 59.5135 64.9964 59.7228C65.0862 59.9471 65.2601 60.1643 65.4379 60.2743C65.5993 60.3739 65.8477 60.4554 65.9901 60.4552C66.1324 60.455 66.3903 60.3689 66.5631 60.2639C66.736 60.1589 67.1805 59.8185 67.5509 59.5076C67.9213 59.1967 68.6735 58.4847 69.2224 57.9255C69.7714 57.3662 70.4392 56.6459 70.7066 56.3248C70.974 56.0037 71.4598 55.3571 71.7863 54.8881C72.1128 54.419 72.5016 53.828 72.6504 53.5749C72.7991 53.3218 73.0415 52.8975 73.189 52.632C73.3364 52.3666 73.6609 51.6974 73.91 51.145C74.1591 50.5926 74.5304 49.6447 74.7352 49.0387C74.94 48.4327 75.2039 47.5102 75.3216 46.9887C75.4393 46.4672 75.597 45.6573 75.672 45.1889C75.747 44.7205 75.8517 43.7568 75.9047 43.0474C75.9726 42.1386 75.9733 41.3131 75.9072 40.2534C75.8554 39.4261 75.7324 38.277 75.6337 37.6999C75.5351 37.1228 75.3713 36.3193 75.2699 35.9144C75.1684 35.5095 74.9824 34.8551 74.8566 34.4604C74.7308 34.0657 74.4853 33.3787 74.311 32.9339C74.1368 32.489 73.776 31.6886 73.5094 31.1551C73.2427 30.6217 72.837 29.8741 72.6076 29.4939C72.3783 29.1137 71.9187 28.4173 71.5864 27.9462C71.2539 27.4751 70.588 26.6468 70.1065 26.1054C69.6251 25.564 68.9285 24.8382 68.5586 24.4925C68.1886 24.1468 67.5379 23.584 67.1123 23.2419C66.6868 22.8998 65.8942 22.3273 65.3509 21.9699C64.8076 21.6124 63.8985 21.0779 63.3305 20.7821C62.7625 20.4864 61.8332 20.0603 61.2652 19.8352C60.6972 19.6102 59.8285 19.3014 59.3346 19.1489C58.8407 18.9966 57.8507 18.755 57.1346 18.6121C56.4185 18.4693 55.3911 18.3095 54.8517 18.2572C54.3122 18.2047 53.2009 18.1674 52.3823 18.1741C51.5636 18.1809 50.5504 18.2192 50.1306 18.2594ZM51.4326 23.7432C51.0375 23.7874 50.4139 23.9053 50.0469 24.0051C49.6798 24.1049 49.0821 24.3104 48.7187 24.4617C48.3553 24.613 47.7498 24.938 47.373 25.1839C46.9964 25.4298 46.4466 25.8597 46.1514 26.1393C45.8561 26.4189 45.394 26.9442 45.1243 27.3068C44.8546 27.6693 44.4589 28.336 44.245 28.7884C44.031 29.2407 43.7566 29.9546 43.6352 30.3747C43.5137 30.7948 43.3641 31.5378 43.3027 32.0258C43.2357 32.5581 43.2117 33.3302 43.2428 33.9558C43.2714 34.5293 43.3565 35.342 43.4322 35.7618C43.5078 36.1816 43.6964 36.9089 43.8512 37.3781C44.006 37.8473 44.2886 38.5668 44.4791 38.9768C44.6697 39.387 44.976 39.9729 45.1598 40.2789C45.3436 40.5849 45.6741 41.0719 45.8942 41.361C46.1886 41.7478 46.2642 41.9054 46.18 41.9574C46.1172 41.9962 45.1519 42.2562 44.0349 42.5351C42.9179 42.8139 41.6202 43.1633 41.151 43.3115C40.6818 43.4597 40.0199 43.746 39.68 43.9477C39.3402 44.1494 38.7918 44.5822 38.4614 44.9095C38.131 45.2368 37.7272 45.701 37.5641 45.9411C37.401 46.1812 37.1326 46.6888 36.9677 47.0693C36.8029 47.4497 36.6059 48.1172 36.53 48.5527C36.4361 49.091 36.3919 49.9313 36.3919 51.178C36.3919 52.6576 36.4187 53.0633 36.531 53.2804C36.6074 53.4283 36.7994 53.6281 36.9575 53.7245C37.2396 53.8966 37.53 53.8999 52.7167 53.9001C66.3708 53.9005 68.2193 53.8845 68.4518 53.7643C68.5966 53.6894 68.7866 53.4974 68.8738 53.3377C69.012 53.0848 69.0323 52.7929 69.0311 51.0719C69.0301 49.8343 68.9858 48.862 68.9124 48.4688C68.848 48.1235 68.6745 47.551 68.5269 47.1964C68.3792 46.8418 68.0954 46.3161 67.8961 46.0281C67.6968 45.7402 67.3255 45.2887 67.0709 45.025C66.8164 44.7612 66.3727 44.3839 66.085 44.1864C65.7973 43.989 65.3326 43.725 65.0523 43.5997C64.7721 43.4744 63.3776 43.0773 61.9536 42.7171C60.5295 42.357 59.342 42.0399 59.3145 42.0124C59.287 41.9849 59.4236 41.7493 59.6179 41.4887C59.8123 41.228 60.1355 40.7522 60.336 40.4312C60.5366 40.1102 60.8026 39.6455 60.9271 39.3985C61.0516 39.1516 61.2754 38.6438 61.4245 38.2702C61.5736 37.8964 61.7792 37.2903 61.8815 36.9232C61.9837 36.5561 62.1293 35.8969 62.205 35.4582C62.2841 35.0002 62.3427 34.1272 62.3427 33.407C62.3427 32.5008 62.2922 31.9054 62.1605 31.259C62.0602 30.7671 61.8593 30.0388 61.7139 29.6404C61.5685 29.242 61.3063 28.6555 61.1313 28.3371C60.9562 28.0186 60.6443 27.5284 60.4381 27.2477C60.2318 26.967 59.8183 26.4982 59.5192 26.2057C59.2201 25.9133 58.6522 25.4638 58.2571 25.2067C57.862 24.9497 57.2558 24.6164 56.9101 24.466C56.5644 24.3156 55.9573 24.11 55.561 24.009C55.1648 23.9081 54.4778 23.784 54.0345 23.7333C53.5912 23.6824 52.9861 23.6459 52.6897 23.6519C52.3934 23.6579 51.8277 23.6991 51.4326 23.7432ZM54.6991 26.0717C55.1128 26.1674 55.7795 26.4006 56.1807 26.59C56.5819 26.7796 57.1677 27.1298 57.4827 27.3685C57.7976 27.607 58.2683 28.0606 58.5287 28.3763C58.7892 28.692 59.1245 29.1798 59.2739 29.4602C59.4232 29.7406 59.6476 30.2744 59.7724 30.6465C59.8974 31.0186 60.0364 31.5585 60.0815 31.8461L60.1635 32.3692L59.8475 32.3179C59.6737 32.2897 59.2344 32.1255 58.8713 31.9531C58.5082 31.7806 58.0599 31.5291 57.8749 31.3942C57.69 31.2592 57.3436 30.9643 57.1052 30.7389C56.8667 30.5135 56.6141 30.2201 56.5439 30.0867C56.4737 29.9533 56.4163 29.7443 56.4163 29.6221C56.4163 29.5 56.3126 29.277 56.186 29.1265C56.0593 28.976 55.8169 28.8145 55.6472 28.7676C55.4527 28.714 55.2248 28.714 55.0302 28.7676C54.8605 28.8145 54.6181 28.976 54.4914 29.1265C54.3415 29.3046 54.2612 29.5084 54.2612 29.7104C54.2612 29.881 54.2004 30.1661 54.1261 30.344C54.0518 30.5218 53.728 30.9214 53.4065 31.2319C52.9739 31.6499 52.5832 31.9143 51.9029 32.2494C51.3973 32.4984 50.6806 32.8021 50.3102 32.9242C49.9398 33.0462 49.2269 33.2294 48.7259 33.3312C48.225 33.4331 47.4371 33.5563 46.9749 33.6049C46.5128 33.6536 45.9629 33.6941 45.753 33.695L45.3714 33.6965V33.3126C45.3714 33.1014 45.4138 32.5906 45.4656 32.1775C45.5174 31.7644 45.6788 31.0583 45.8242 30.6085C45.9696 30.1585 46.2653 29.5121 46.4813 29.1719C46.6973 28.8318 47.1422 28.2841 47.4698 27.955C47.7976 27.6258 48.3788 27.1684 48.7614 26.9384C49.1441 26.7085 49.822 26.399 50.268 26.2508C50.7141 26.1024 51.401 25.9428 51.7946 25.8959C52.1881 25.849 52.8334 25.8304 53.2285 25.8543C53.6236 25.8782 54.2854 25.9761 54.6991 26.0717ZM57.0336 33.4597C57.4209 33.6938 58.0247 34.0021 58.3755 34.1449C58.7263 34.2876 59.2582 34.4526 59.5574 34.5115L60.1015 34.6185L60.0477 34.9432C60.018 35.1218 59.9127 35.605 59.8135 36.017C59.7143 36.429 59.4965 37.105 59.3295 37.5192C59.1626 37.9333 58.9388 38.4448 58.8323 38.6558C58.7258 38.8668 58.4164 39.3819 58.1447 39.8006C57.873 40.2193 57.3831 40.8406 57.056 41.1813C56.7288 41.5219 56.2441 41.9621 55.9789 42.1595C55.7136 42.3567 55.2085 42.6497 54.8564 42.8104C54.5043 42.9711 53.9986 43.1534 53.7326 43.2155C53.4356 43.2849 52.9678 43.3093 52.5204 43.2789C52.1196 43.2517 51.5497 43.1443 51.2539 43.04C50.958 42.9357 50.4438 42.6888 50.1112 42.4912C49.7786 42.2935 49.2611 41.9048 48.9613 41.6272C48.6614 41.3496 48.1545 40.775 47.8349 40.3503C47.5151 39.9256 47.0524 39.1878 46.8066 38.7107C46.5608 38.2336 46.2151 37.4116 46.0386 36.8839C45.862 36.3563 45.7306 35.9149 45.7465 35.9031C45.7625 35.8913 46.321 35.8349 46.9877 35.7779C47.6545 35.7208 48.604 35.5906 49.0979 35.4886C49.5918 35.3865 50.4735 35.144 51.0573 34.9497C51.641 34.7554 52.484 34.4077 52.9308 34.177C53.3774 33.9463 53.9706 33.5854 54.249 33.375C54.5273 33.1646 54.9126 32.8297 55.1052 32.6309L55.4555 32.2695L55.8926 32.6517C56.1329 32.8621 56.6464 33.2256 57.0336 33.4597ZM48.6931 44.1572C49.0271 44.3792 49.5578 44.6814 49.8726 44.8286C50.1873 44.9759 50.7644 45.1782 51.1551 45.2781C51.6397 45.402 52.1559 45.4597 52.7795 45.4597C53.3998 45.4597 53.922 45.4017 54.4039 45.2792C54.7946 45.1799 55.4503 44.938 55.861 44.7417C56.2719 44.5453 56.785 44.2574 57.0015 44.102L57.3952 43.8193L60.562 44.6104C62.9116 45.1974 63.8901 45.4823 64.3536 45.7141C64.7447 45.9098 65.1823 46.2316 65.5238 46.5747C65.8238 46.8761 66.1793 47.3445 66.3138 47.6157C66.4483 47.8868 66.6212 48.3567 66.698 48.6598C66.7992 49.0588 66.8308 49.5545 66.8127 50.4557L66.7876 51.7005H52.6897H38.5919L38.5991 50.4434C38.6032 49.7481 38.6588 48.9655 38.7238 48.6924C38.7883 48.4207 38.9564 47.968 39.0973 47.6863C39.2382 47.4046 39.6011 46.9095 39.9037 46.5859C40.3022 46.16 40.6305 45.912 41.0943 45.6865C41.5426 45.4687 42.6776 45.134 44.8775 44.5709C46.6061 44.1285 48.0351 43.7636 48.0532 43.7601C48.0713 43.7565 48.3593 43.9353 48.6931 44.1572ZM43.5306 57.0986C43.1355 57.1695 42.5092 57.311 42.1388 57.413C41.7684 57.5149 41.0861 57.7766 40.6226 57.9944C39.9034 58.3322 39.6562 58.5116 38.938 59.2159C38.475 59.6699 37.8727 60.3332 37.5995 60.6898C37.3264 61.0464 36.902 61.6751 36.6564 62.0867C36.4108 62.4983 36.1619 62.9664 36.1033 63.127C36.0446 63.2875 35.9744 63.42 35.9473 63.4214C35.9202 63.4229 34.9686 63.5197 33.8327 63.6366C32.6968 63.7536 31.7609 63.8433 31.7528 63.8361C31.7447 63.8288 31.6492 63.3178 31.5407 62.7004C31.4321 62.0831 31.2922 61.4536 31.2297 61.3016C31.158 61.1273 30.9877 60.9636 30.7683 60.8582L30.4205 60.6911L25.976 61.4372C23.5315 61.8476 21.337 62.2338 21.0994 62.2954C20.8617 62.3571 20.5443 62.5239 20.3942 62.6662C20.1258 62.9204 20.1221 62.9361 20.1783 63.5723C20.2098 63.9283 20.5148 65.8477 20.856 67.8375C21.1973 69.8274 21.9023 73.9169 22.4227 76.9252C22.9429 79.9335 23.3917 82.4674 23.4198 82.5559C23.448 82.6444 23.5931 82.8197 23.7424 82.9454C23.9386 83.1105 24.1178 83.1737 24.3887 83.1733C24.5947 83.1732 25.9352 82.9711 27.3674 82.7244C28.7997 82.4776 30.8079 82.1341 31.8303 81.961C32.8525 81.7879 33.7819 81.6107 33.8956 81.5673C34.0092 81.5238 34.1676 81.4129 34.2477 81.3209C34.3277 81.2287 34.4436 81.0563 34.5052 80.9376C34.5975 80.7595 34.5816 80.505 34.4139 79.4766C34.3021 78.7916 34.2297 78.2122 34.2529 78.189C34.2762 78.1657 35.565 77.7193 37.117 77.197L39.9388 76.2474L44.7428 75.902C47.3851 75.7121 51.5067 75.4308 53.902 75.277C56.2973 75.1232 58.7015 74.9413 59.2448 74.8727C59.8435 74.7973 60.5863 74.6275 61.1305 74.4419C61.6244 74.2734 62.4932 73.938 63.0611 73.6966C63.6291 73.4551 65.6293 72.4845 67.506 71.5396C69.3827 70.5948 72.9992 68.7622 75.5427 67.4671C79.5296 65.4372 80.225 65.0535 80.5863 64.6841C80.8631 64.4013 81.0419 64.121 81.1127 63.8597C81.172 63.6403 81.1996 63.2098 81.1746 62.8945C81.1422 62.4869 81.0386 62.1426 80.8096 61.6822C80.6338 61.3285 80.2961 60.8343 80.0591 60.5839C79.8222 60.3334 79.4667 60.0054 79.2692 59.855C79.0716 59.7046 78.7301 59.4903 78.5102 59.3789C78.2904 59.2675 77.8863 59.0981 77.6123 59.0026C77.3383 58.907 76.7706 58.8064 76.3508 58.7788C75.931 58.7513 75.3588 58.7719 75.0791 58.8244C74.7993 58.877 73.8296 59.1818 72.924 59.5017C72.0184 59.8215 70.0652 60.5143 68.5835 61.0411C67.1019 61.5679 65.5058 62.1362 65.0366 62.3038C64.5674 62.4715 64.1331 62.6091 64.0713 62.6097C64.0096 62.6102 63.9591 62.5644 63.9591 62.5078C63.9591 62.4513 63.8198 62.1154 63.6495 61.7615C63.4794 61.4077 63.1561 60.878 62.9314 60.5848C62.7065 60.2915 62.27 59.8364 61.9612 59.5736C61.6525 59.3107 61.0362 58.9202 60.5917 58.7057C60.1473 58.4911 59.4927 58.2516 59.1373 58.1733C58.6046 58.056 57.8307 58.0311 54.7345 58.0311H50.9781L49.4868 57.5883C48.6667 57.3448 47.6852 57.1023 47.3056 57.0495C46.926 56.9967 46.083 56.9571 45.4323 56.9616C44.7815 56.966 43.9257 57.0277 43.5306 57.0986ZM47.6612 59.3329C47.9575 59.4133 48.7051 59.6431 49.3224 59.8434L50.4449 60.2078L54.2255 60.193C57.2427 60.1812 58.1336 60.2048 58.6368 60.3097C58.9837 60.3821 59.4835 60.5507 59.7475 60.6845C60.0115 60.8183 60.4816 61.1818 60.7922 61.4924C61.1821 61.8824 61.4533 62.2607 61.6688 62.7155C61.8404 63.0776 62.0198 63.5807 62.0674 63.8334C62.115 64.0862 62.1229 64.4094 62.0849 64.5518L62.0157 64.8106L57.667 64.8675C55.2752 64.8987 52.8132 64.9716 52.1959 65.0296C51.5785 65.0876 50.6693 65.1941 50.1755 65.2664C49.6816 65.3388 48.7757 65.5193 48.1624 65.6675C47.5492 65.8158 46.772 66.0207 46.4355 66.1229C46.0989 66.2251 45.7232 66.3877 45.6006 66.4841C45.4779 66.5807 45.3391 66.7992 45.2919 66.9698C45.2393 67.1604 45.2379 67.3945 45.2883 67.577C45.3333 67.7403 45.4817 67.9775 45.6178 68.1041C45.7539 68.2308 45.9697 68.3589 46.0973 68.3889C46.2431 68.423 46.7941 68.3092 47.578 68.083C48.2646 67.885 49.2714 67.644 49.8153 67.5479C50.3591 67.4516 51.1677 67.3263 51.6122 67.2695C52.0775 67.2101 54.5348 67.1427 57.404 67.1108L62.3876 67.0555L62.9002 66.8038C63.2047 66.6543 63.5311 66.4027 63.7044 66.1839C63.8648 65.9814 64.0655 65.6097 64.1503 65.358C64.2972 64.9225 64.33 64.8909 64.8277 64.7032C65.1155 64.5948 66.2803 64.1769 67.4162 63.7748C68.5521 63.3726 70.7223 62.6017 72.2387 62.0615C73.7552 61.5214 75.22 61.0381 75.4938 60.9874C75.83 60.9253 76.1502 60.9247 76.48 60.9857C76.7486 61.0354 77.2039 61.1948 77.4917 61.3401C77.7795 61.4854 78.1977 61.8004 78.4209 62.0401C78.6442 62.2798 78.882 62.6102 78.9493 62.7742C79.06 63.0435 79.0553 63.088 78.9011 63.2333C78.8072 63.3217 77.1141 64.2139 75.1386 65.2161C73.1631 66.2181 69.5264 68.0546 67.057 69.2973C64.5876 70.5399 62.0823 71.7462 61.4897 71.9779C60.897 72.2096 60.0889 72.4813 59.6938 72.5818C59.205 72.706 58.4444 72.7914 57.3142 72.8488C56.4005 72.8954 53.8952 73.0556 51.7469 73.2052C49.5985 73.3547 46.1437 73.5976 44.0694 73.7449C41.9951 73.8924 40.107 74.0372 39.8736 74.0668C39.6402 74.0965 38.1886 74.5409 36.6477 75.0547C35.1068 75.5684 33.8375 75.9788 33.8268 75.967C33.8162 75.955 33.4254 73.7228 32.9584 71.0065C32.4914 68.2902 32.1191 66.0551 32.1311 66.0397C32.143 66.0243 33.2687 65.8973 34.6325 65.7575C36.4379 65.5725 37.1733 65.4634 37.3363 65.3566C37.4776 65.2641 37.7788 64.7609 38.1514 63.995C38.4765 63.3268 38.9797 62.4654 39.2696 62.0805C39.5597 61.6957 40.0631 61.1319 40.3883 60.8276C40.7135 60.5233 41.2184 60.1538 41.5101 60.0066C41.802 59.8593 42.396 59.6353 42.8305 59.5087C43.265 59.382 43.8426 59.2426 44.1143 59.1987C44.3859 59.1548 45.1739 59.1341 45.8653 59.1528C46.643 59.1737 47.3279 59.2425 47.6612 59.3329ZM29.5106 63.8453C29.5883 64.2775 30.019 66.7727 30.4675 69.3902C30.9161 72.0077 31.4231 74.9575 31.5943 75.9453C31.7655 76.933 31.9732 78.1542 32.056 78.6591C32.1387 79.1639 32.18 79.6033 32.1479 79.6356C32.1156 79.6677 30.5861 79.9535 28.7488 80.2704C26.9116 80.5873 25.3809 80.8147 25.3472 80.7755C25.3135 80.7364 25.074 79.4518 24.8149 77.9208C24.5559 76.3897 24.0613 73.5006 23.7159 71.5004C23.3706 69.5002 22.9536 67.0757 22.7894 66.1127C22.6252 65.1496 22.5172 64.3349 22.5496 64.3021C22.5819 64.2694 23.4568 64.0958 24.494 63.9162C25.5311 63.7367 27.0262 63.4749 27.8164 63.3346C28.6066 63.1942 29.2793 63.0749 29.3111 63.0695C29.343 63.064 29.4328 63.4132 29.5106 63.8453Z" fill="#F3012A"/>
</svg>
