<svg width="101" height="101" viewBox="0 0 101 101" fill="none" xmlns="http://www.w3.org/2000/svg">
<rect width="100" height="100" transform="translate(0.333313 0.67334)" fill=""/>
<path fill-rule="evenodd" clip-rule="evenodd" d="M32.7754 35.2652C32.7754 35.2972 32.8767 35.4386 33.0005 35.5796C33.1242 35.7206 33.2935 35.9692 33.3767 36.1322C33.4598 36.2951 33.5783 36.6226 33.6402 36.86C33.702 37.0972 33.7525 37.4518 33.7525 37.6477C33.7525 37.8437 33.7146 38.1833 33.6681 38.4024C33.6217 38.6214 33.5202 38.9262 33.4426 39.0795C33.3651 39.2329 33.3016 39.3766 33.3016 39.3989C33.3016 39.4212 33.472 39.4395 33.6803 39.4395C33.8887 39.4395 34.3876 39.4754 34.789 39.5191C35.1904 39.5629 35.8339 39.6637 36.2189 39.7431C36.6039 39.8225 37.2682 40.0044 37.6949 40.1472C38.1218 40.29 38.8076 40.5757 39.219 40.7822C39.6304 40.9887 40.3191 41.3931 40.7494 41.681C41.1797 41.9689 41.9066 42.5267 42.3648 42.9206C42.8229 43.3145 43.5384 44.0109 43.9548 44.4684C44.3712 44.9257 44.9682 45.6186 45.2815 46.0081C45.5948 46.3976 46.1814 47.1704 46.5852 47.7256C46.9889 48.2807 47.8882 49.5944 48.5836 50.645C49.2789 51.6957 50.4289 53.4354 51.1391 54.5111C51.8492 55.5868 52.7263 56.8639 53.088 57.349C53.4497 57.8342 53.7456 58.2743 53.7456 58.3269C53.7456 58.3796 53.5408 58.6245 53.2905 58.8712C53.0402 59.118 52.7358 59.4694 52.6141 59.6521C52.4495 59.8994 52.3928 60.0727 52.393 60.3286C52.3932 60.537 52.451 60.7675 52.5397 60.913C52.6203 61.045 52.7684 61.207 52.8688 61.2728C52.9692 61.3386 54.7042 61.8778 56.7244 62.4709C58.7446 63.0642 60.7254 63.642 61.1263 63.7551C61.627 63.8962 61.9363 63.9453 62.1145 63.9119C62.2573 63.8851 62.4629 63.7933 62.5716 63.7077C62.6804 63.6223 62.8359 63.4215 62.9175 63.2617C62.999 63.1019 63.0657 62.8934 63.0657 62.7982C63.0657 62.703 62.3587 60.7446 61.4945 58.4461C60.6304 56.1476 59.8687 54.1612 59.8018 54.0319C59.735 53.9026 59.6006 53.7446 59.5032 53.6808C59.4058 53.617 59.2138 53.5326 59.0767 53.4932C58.9123 53.4461 58.7235 53.4492 58.5225 53.5022C58.2794 53.5664 58.0647 53.7433 57.4611 54.3766L56.7045 55.1705L56.0978 54.3138C55.7641 53.8427 54.9581 52.6455 54.3069 51.6533C53.6556 50.6612 52.5397 48.9701 51.8272 47.8952C51.1146 46.8204 50.1669 45.4506 49.7212 44.8512C49.2755 44.2518 48.5893 43.375 48.1963 42.9028C47.8033 42.4307 47.126 41.6762 46.6911 41.2261C46.2563 40.776 45.5772 40.1273 45.1818 39.7847C44.7865 39.4419 44.1418 38.9262 43.7491 38.6387C43.3564 38.3512 42.7983 37.968 42.5089 37.7873C42.2195 37.6066 41.5892 37.2614 41.1081 37.0203C40.6271 36.7791 39.883 36.452 39.4546 36.2934C39.0261 36.1347 38.3374 35.9161 37.924 35.8074C37.5106 35.6987 36.7665 35.5399 36.2705 35.4544C35.7452 35.3639 34.827 35.2797 34.072 35.253C33.3588 35.2277 32.7754 35.2332 32.7754 35.2652ZM65.5636 35.3135C65.2631 35.3484 64.6244 35.4651 64.1442 35.5728C63.6641 35.6805 62.9325 35.8865 62.5187 36.0305C62.1048 36.1746 61.3737 36.49 60.8939 36.7315C60.4141 36.973 59.6665 37.4066 59.2325 37.695L58.4433 38.2194L57.7668 37.6002C57.3947 37.2597 56.9821 36.9254 56.8498 36.8574C56.7175 36.7894 56.4976 36.7338 56.3613 36.7338C56.2248 36.7338 55.9973 36.7931 55.8555 36.8654C55.7137 36.9376 55.5335 37.0845 55.455 37.1917C55.3764 37.299 55.1153 38.0769 54.8746 38.9204C54.634 39.7641 54.0787 41.7238 53.6405 43.2755C53.2022 44.8271 52.8437 46.1975 52.8437 46.3207C52.8437 46.4439 52.9063 46.6625 52.9829 46.8066C53.0594 46.9506 53.2335 47.1446 53.3697 47.2376C53.5347 47.3502 53.7287 47.4067 53.9503 47.4067C54.158 47.4067 54.5704 47.2955 55.0478 47.1108C55.4684 46.948 57.3177 46.234 59.1573 45.5241C60.9969 44.8143 62.5923 44.1869 62.7028 44.1301C62.8132 44.0732 62.9784 43.9216 63.0698 43.7932C63.1612 43.6647 63.2522 43.4163 63.272 43.2411C63.2968 43.0203 63.265 42.8391 63.168 42.6509C63.091 42.5015 62.7406 42.1196 62.3893 41.8022C62.0379 41.4848 61.7504 41.19 61.7504 41.1471C61.7504 41.1042 62.0873 40.8904 62.4992 40.6719C62.911 40.4534 63.5321 40.1712 63.8793 40.0447C64.2267 39.9182 64.8536 39.7411 65.2727 39.651C65.8892 39.5185 66.2928 39.4864 67.3875 39.483C68.4094 39.4797 68.8968 39.5114 69.3793 39.6125C69.7307 39.6862 70.3442 39.8463 70.7428 39.9684C71.1412 40.0905 71.7638 40.3287 72.1263 40.4977C72.4888 40.6668 73.1099 41.0176 73.5064 41.2774C73.9029 41.5371 74.4903 41.9793 74.8119 42.26C75.1335 42.5406 75.6011 43.0102 75.8511 43.3034C76.1011 43.5966 76.493 44.1168 76.7222 44.4595C76.9513 44.8021 77.2743 45.359 77.44 45.6971C77.6057 46.0351 77.8239 46.5313 77.9249 46.7995C78.0259 47.0678 78.1891 47.6271 78.2875 48.0423C78.386 48.4574 78.5064 49.1508 78.5551 49.583C78.6093 50.0637 78.6233 50.6911 78.5912 51.199C78.5625 51.6556 78.4889 52.3166 78.428 52.668C78.367 53.0194 78.1857 53.7004 78.0252 54.1813C77.8647 54.6621 77.6256 55.271 77.494 55.5342C77.3623 55.7974 77.1335 56.2157 76.9854 56.4637C76.8374 56.7117 76.5532 57.1318 76.3537 57.3972C76.1543 57.6627 75.8282 58.0516 75.6292 58.2616C75.4301 58.4716 75.0501 58.844 74.7848 59.0892C74.5195 59.3344 73.998 59.7353 73.626 59.9802C73.2539 60.225 72.6942 60.5541 72.3822 60.7114C72.0701 60.8687 71.4106 61.1346 70.9165 61.3024C70.4224 61.4702 69.68 61.6646 69.2666 61.7346C68.8109 61.8117 68.0859 61.8632 67.4251 61.8653C66.8257 61.8673 66.0854 61.827 65.7801 61.7759C65.4747 61.7247 65.2115 61.6963 65.1952 61.7126C65.1788 61.7289 65.2046 61.9793 65.2524 62.2689C65.319 62.6718 65.3183 62.9167 65.2495 63.3116C65.1971 63.6126 65.048 64.0402 64.892 64.3371C64.7233 64.6582 64.4597 64.9989 64.1785 65.2592C63.9035 65.5138 63.7704 65.6846 63.8313 65.7049C63.8857 65.723 64.2007 65.789 64.5314 65.8516C64.8621 65.9142 65.5385 66.0054 66.0346 66.0544C66.5796 66.1081 67.3562 66.1243 67.9969 66.0953C68.5801 66.0689 69.4764 65.9763 69.9887 65.8894C70.501 65.8026 71.3091 65.6138 71.7845 65.4699C72.2599 65.326 72.9722 65.0741 73.3675 64.9101C73.7628 64.7461 74.4624 64.3985 74.9223 64.1377C75.3822 63.8769 76.0369 63.4641 76.3773 63.2204C76.7175 62.9767 77.3418 62.4661 77.7645 62.0856C78.1872 61.7052 78.8108 61.0626 79.1501 60.6575C79.4894 60.2525 80.0025 59.566 80.2903 59.132C80.578 58.6979 81.0123 57.9369 81.2553 57.4408C81.4982 56.9447 81.8331 56.1411 81.9995 55.655C82.1658 55.1688 82.3857 54.374 82.488 53.8887C82.5903 53.4033 82.7099 52.656 82.7537 52.2279C82.7975 51.7998 82.8333 51.1038 82.8333 50.6813C82.8333 50.2589 82.7973 49.5437 82.7533 49.0921C82.7094 48.6405 82.5887 47.8821 82.4851 47.4067C82.3815 46.9313 82.1784 46.1872 82.0338 45.7531C81.8892 45.3191 81.5543 44.514 81.2896 43.9642C81.0249 43.4143 80.6171 42.6702 80.3833 42.3106C80.1494 41.951 79.7291 41.3693 79.4493 41.0179C79.1694 40.6665 78.5734 40.0237 78.1246 39.5893C77.676 39.155 77.0552 38.6078 76.7452 38.3733C76.4352 38.1389 75.8771 37.7561 75.505 37.5226C75.133 37.2891 74.4734 36.9274 74.0394 36.7188C73.6053 36.5102 72.8105 36.1948 72.2731 36.0179C71.7356 35.841 70.9577 35.6273 70.5443 35.5431C70.1309 35.4589 69.4643 35.3542 69.0628 35.3103C68.6614 35.2664 67.8328 35.2348 67.2213 35.2402C66.61 35.2456 65.864 35.2785 65.5636 35.3135ZM21.1253 36.6754C20.8776 36.8007 20.7419 36.9362 20.618 37.1818C20.525 37.3662 20.4489 37.6079 20.4489 37.7188C20.4489 37.8298 20.7195 38.4667 21.0502 39.1342C21.3809 39.8018 21.6515 40.3806 21.6515 40.4206C21.6515 40.4606 21.4531 40.7382 21.2107 41.0375C20.9682 41.3368 20.5814 41.8711 20.351 42.2249C20.1206 42.5787 19.7965 43.1198 19.6307 43.4275C19.4649 43.7351 19.1958 44.3081 19.0325 44.7009C18.8693 45.0936 18.6321 45.7531 18.5052 46.1665C18.3784 46.5799 18.2066 47.257 18.1237 47.6712C18.0407 48.0853 17.9337 48.8463 17.8859 49.3623C17.8362 49.8994 17.8191 50.7182 17.8459 51.2775C17.8717 51.8149 17.944 52.5929 18.0067 53.0063C18.0694 53.4196 18.2242 54.1468 18.3509 54.6222C18.4775 55.0976 18.7142 55.8278 18.8769 56.2447C19.0397 56.6617 19.3233 57.2976 19.5071 57.6578C19.6909 58.0181 20.067 58.6578 20.3427 59.0794C20.6185 59.501 20.9823 60.0151 21.1511 60.2218C21.3199 60.4285 21.6601 60.8292 21.9072 61.1122C22.1542 61.3954 22.7211 61.9404 23.1669 62.3235C23.6127 62.7066 24.3205 63.2477 24.7399 63.5261C25.1592 63.8043 25.9296 64.2457 26.4518 64.5069C26.9741 64.768 27.701 65.0864 28.0671 65.2144C28.4333 65.3424 29.0697 65.5324 29.4815 65.6368C29.8933 65.7412 30.5576 65.8765 30.9579 65.9374C31.3581 65.9984 32.1422 66.0693 32.7003 66.095C33.2747 66.1215 34.1616 66.1042 34.7442 66.0551C35.3103 66.0075 36.1389 65.9026 36.5857 65.8221C37.0324 65.7417 37.7535 65.5739 38.1881 65.4492C38.6227 65.3246 39.329 65.086 39.7576 64.9189C40.1863 64.7518 40.8792 64.4394 41.2975 64.2246C41.7157 64.0097 42.4469 63.5768 42.9223 63.2626C43.3977 62.9484 44.1418 62.4069 44.5759 62.0594C45.0099 61.7118 45.8749 60.9195 46.498 60.2985C47.1211 59.6776 47.9587 58.7839 48.3593 58.3125C48.76 57.8412 49.0727 57.4404 49.0543 57.422C49.0359 57.4036 48.5784 57.561 48.0377 57.7717C47.3118 58.0546 46.9537 58.1548 46.6697 58.1548C46.3155 58.1548 46.2587 58.1287 45.9564 57.8265C45.7351 57.6051 45.6243 57.4276 45.6164 57.2816C45.61 57.1625 45.612 56.9804 45.621 56.8771C45.63 56.7737 45.8078 56.0866 46.016 55.3501C46.2244 54.6136 46.3813 53.9974 46.3647 53.9808C46.3481 53.9643 46.1579 54.1867 45.9421 54.4752C45.7261 54.7638 45.2159 55.3968 44.8082 55.8821C44.4004 56.3673 43.6318 57.1885 43.1 57.7068C42.5682 58.2252 41.8118 58.8878 41.4191 59.1794C41.0263 59.4709 40.4396 59.8694 40.1151 60.0649C39.7907 60.2603 39.2664 60.5397 38.9501 60.6858C38.6338 60.8318 38.1382 61.0335 37.8489 61.1341C37.5595 61.2348 37.0014 61.397 36.6087 61.4947C36.216 61.5925 35.6241 61.7086 35.2934 61.7528C34.9627 61.797 34.3698 61.8552 33.9761 61.8821C33.5761 61.9095 32.8556 61.892 32.3438 61.8427C31.8398 61.7941 31.0884 61.6722 30.6738 61.5719C30.2593 61.4714 29.6071 61.2685 29.2245 61.1207C28.8418 60.973 28.2582 60.7044 27.9275 60.5239C27.5968 60.3433 27.0861 60.0266 26.7926 59.8201C26.4991 59.6136 25.9625 59.1639 25.5999 58.8208C25.2374 58.4776 24.7299 57.9253 24.4721 57.5934C24.2143 57.2614 23.8632 56.7665 23.692 56.4936C23.5208 56.2206 23.2493 55.713 23.0888 55.3654C22.9282 55.0179 22.712 54.4633 22.6082 54.1329C22.5045 53.8027 22.3651 53.2787 22.2985 52.9687C22.2319 52.6586 22.1477 52.1005 22.1113 51.7285C22.0749 51.3564 22.0589 50.6969 22.0758 50.2628C22.0927 49.8288 22.1589 49.1523 22.223 48.7596C22.2871 48.3669 22.4694 47.6531 22.6281 47.1733C22.7869 46.6935 23.0689 46.0002 23.255 45.6325C23.441 45.2648 23.6427 44.898 23.7033 44.8174C23.8079 44.6784 23.8236 44.691 24.0128 45.0644C24.1294 45.2943 24.3127 45.5191 24.4539 45.6053C24.5868 45.6864 24.8069 45.7737 24.943 45.7994C25.0981 45.8287 25.3132 45.7994 25.519 45.7208C25.8248 45.604 26.0334 45.3482 28.541 42.0161C30.0225 40.0475 31.2975 38.3185 31.3745 38.1738C31.4745 37.9859 31.5036 37.8154 31.4767 37.5767C31.456 37.393 31.3726 37.1535 31.2914 37.0446C31.2102 36.9356 31.0289 36.7788 30.8885 36.6961C30.642 36.5509 30.4784 36.5451 26.0484 36.5251L21.4636 36.5045L21.1253 36.6754Z" fill="#F3012A"/>
</svg>
