<svg width="66" height="66" viewBox="0 0 66 66" fill="none" xmlns="http://www.w3.org/2000/svg">
<rect width="65" height="65" transform="translate(0.5 0.225098)" fill=""/>
<path fill-rule="evenodd" clip-rule="evenodd" d="M32.3523 11.6753C31.5102 11.9103 30.9022 12.5121 30.654 13.3562L30.5249 13.7952L29.5799 13.9496C28.0016 14.2077 25.7447 14.9465 24.2827 15.6836C22.81 16.4263 20.8666 17.8023 19.8916 18.7929L19.3223 19.3713L19.644 19.6927L19.9657 20.0141L20.6528 19.3983C22.4986 17.7438 24.467 16.5291 26.5784 15.7412C27.4316 15.4229 29.1826 14.9539 29.9095 14.8491C30.1271 14.8177 30.3663 14.775 30.4412 14.7542C30.5329 14.7288 30.6386 14.8424 30.7649 15.1021C31.212 16.0214 32.0116 16.5608 32.9269 16.5608C33.6165 16.5608 34.0221 16.4301 34.536 16.0421C35.9983 14.9381 35.7197 12.5692 34.0405 11.8299C33.505 11.5942 32.856 11.5346 32.3523 11.6753ZM33.8243 12.8003C34.2991 13.1252 34.5211 13.5374 34.5211 14.0943C34.5211 14.895 34.0732 15.4251 33.2243 15.629C32.3205 15.846 31.28 14.7851 31.459 13.829C31.6639 12.7352 32.9267 12.1859 33.8243 12.8003ZM37.7057 14.2558C37.6852 14.2922 37.6414 14.4405 37.6082 14.5854C37.5751 14.7302 37.529 14.9129 37.5059 14.9912C37.4725 15.1036 37.5885 15.1648 38.057 15.2824C40.0864 15.7916 42.5929 17.0928 44.4673 18.6104C45.2463 19.2411 46.5436 20.5571 47.1574 21.3392L47.5658 21.8596L47.3481 22.118C46.9771 22.5584 46.8463 22.9635 46.8463 23.6723C46.8463 24.4507 46.9929 24.8372 47.494 25.3803C49.0042 27.0168 51.8106 25.9042 51.8106 23.6691C51.8106 22.0135 50.3677 20.8792 48.7189 21.2387C48.4146 21.3049 48.4045 21.2974 47.796 20.5471C46.0565 18.4021 43.4995 16.4412 40.9749 15.3159C39.6136 14.7093 37.7842 14.116 37.7057 14.2558ZM16.0217 21.0326C15.0436 21.3298 14.3523 22.2775 14.3523 23.3211C14.3523 23.873 14.5952 24.502 14.9747 24.9327L15.3343 25.3408L15.1129 25.9332C13.8802 29.231 13.5656 32.677 14.1813 36.1393C14.3277 36.9628 14.5844 38.0493 14.6522 38.1329C14.6602 38.1428 14.8433 38.0983 15.0589 38.0339C15.5176 37.8968 15.5096 37.9798 15.201 36.5502C14.5219 33.4047 14.7547 29.8343 15.8436 26.6952C15.9905 26.2717 16.126 25.9099 16.1444 25.8914C16.163 25.8729 16.4699 25.8494 16.8265 25.8391C19.1062 25.7733 20.1608 23.3549 18.6363 21.6887C18.3038 21.3253 18.1005 21.1855 17.7563 21.0833C17.2877 20.9444 16.3978 20.9184 16.0217 21.0326ZM31.0607 21.4433C27.5992 22.0227 24.433 24.3754 22.8203 27.5666C20.9398 31.2875 21.1913 35.59 23.4896 39.0155C25.06 41.3563 27.3853 43.0093 30.1336 43.7386C31.3091 44.0506 33.7204 44.1381 35.0039 43.9154C39.544 43.1279 43.2068 39.5317 44.215 34.8716C44.3257 34.3597 44.3681 33.763 44.3681 32.7153C44.3681 30.6833 44.1231 29.6118 43.2342 27.7548C41.6556 24.4576 38.3988 22.0157 34.8028 21.4331C33.8129 21.2727 32.0509 21.2776 31.0607 21.4433ZM17.6922 21.9956C18.0481 22.1758 18.3665 22.6826 18.4437 23.192C18.5612 23.9656 17.9457 24.7386 17.1132 24.8633C16.7948 24.911 16.6379 24.8793 16.2476 24.6885C15.8494 24.494 15.7336 24.3809 15.545 24.0027C15.2733 23.4582 15.2615 23.1442 15.4946 22.6632C15.8935 21.8402 16.8256 21.557 17.6922 21.9956ZM49.8338 22.1854C50.4143 22.4044 50.8283 23.0241 50.8283 23.6739C50.8283 24.1189 50.6644 24.4445 50.2633 24.7962C49.3138 25.6291 47.8252 24.9179 47.8252 23.6315C47.8252 22.6002 48.8941 21.8307 49.8338 22.1854ZM33.8185 22.4421C34.751 22.8929 35.6559 24.1862 36.2923 25.9774C36.5063 26.5797 36.9388 28.1909 36.9403 28.3913C36.9409 28.4775 36.0915 28.5011 32.9841 28.5011H29.0272L29.0845 28.2596C29.7277 25.5473 30.3327 24.1619 31.3158 23.1507C32.1487 22.2939 33.0086 22.0504 33.8185 22.4421ZM30.3807 22.7285C30.3441 22.7889 30.1881 23.016 30.034 23.2333C29.6208 23.8161 29.1558 24.7866 28.8516 25.7011C28.5529 26.5994 28.1537 28.1102 28.1524 28.3474C28.1517 28.4899 27.9796 28.5011 25.7773 28.5011H23.4028L23.6619 27.9884C24.772 25.7917 26.9961 23.8167 29.3822 22.9088C30.187 22.6026 30.4902 22.5478 30.3807 22.7285ZM36.5307 22.8867C37.3659 23.1886 38.5908 23.8629 39.3154 24.4196C40.4704 25.307 41.9729 27.1587 42.4315 28.2596L42.5686 28.5889H40.2399H37.9112L37.857 28.3474C37.3254 25.9818 36.7908 24.5468 35.9843 23.3211C35.8096 23.0555 35.6349 22.7889 35.5963 22.7285C35.4847 22.5543 35.7223 22.5946 36.5307 22.8867ZM50.9893 28.0055C50.812 28.0608 50.6458 28.1271 50.6199 28.153C50.5941 28.1789 50.6708 28.7123 50.7905 29.3383C51.0639 30.7688 51.163 33.1058 51.0098 34.5106C50.8365 36.1004 50.4999 37.5192 49.9306 39.0586L49.6466 39.8268H48.9621C48.1709 39.8268 47.6485 40.0238 47.1686 40.5032C46.6393 41.032 46.4797 41.4447 46.4797 42.2851C46.4797 43.1249 46.6311 43.5184 47.1517 44.0314C47.67 44.5422 48.0627 44.6962 48.8507 44.698C49.6992 44.6998 50.2251 44.4733 50.7468 43.8812C51.2317 43.331 51.3927 42.7772 51.3203 41.9091C51.2556 41.1351 51.191 40.9633 50.8146 40.5657L50.5584 40.2949L50.729 39.8974C51.062 39.1213 51.5301 37.546 51.7451 36.4771C52.3026 33.7073 52.2496 31.2915 51.562 28.1279C51.5047 27.8645 51.467 27.8565 50.9893 28.0055ZM27.8211 30.3667C27.7381 31.4041 27.7371 34.2094 27.8194 35.153L27.8827 35.8788L25.4463 35.8554L23.0098 35.8321L22.7987 35.0419C22.4196 33.6229 22.5073 30.9824 22.9744 29.7522L23.0494 29.5546H25.4677H27.886L27.8211 30.3667ZM37.1811 29.7961C37.2692 30.1108 37.2692 35.3198 37.1811 35.6345L37.1135 35.8759H32.9971H28.8808L28.8244 35.1516C28.7934 34.7532 28.7679 33.6569 28.7679 32.7153C28.7679 31.7737 28.7934 30.6773 28.8244 30.2789L28.8808 29.5546H32.9971H37.1135L37.1811 29.7961ZM43.1948 30.3667C43.369 31.0615 43.3984 31.4009 43.3984 32.7153C43.3984 34.0297 43.369 34.3691 43.1948 35.0638L42.9911 35.8759H40.5387H38.0864L38.1509 35.3272C38.1864 35.0255 38.2155 33.8501 38.2155 32.7153C38.2155 31.5805 38.1864 30.4052 38.1509 30.1034L38.0864 29.5546H40.5387H42.9911L43.1948 30.3667ZM28.2143 37.4505C28.5769 39.2406 29.2827 41.0531 30.0725 42.2221L30.5235 42.8898L30.0935 42.7622C28.9209 42.4144 27.8142 41.8636 26.8271 41.1368C25.6133 40.2429 24.3739 38.7634 23.6665 37.3635L23.4014 36.8388L25.7506 36.8623L28.0999 36.8856L28.2143 37.4505ZM36.941 37.0113C36.941 37.2177 36.4003 39.1561 36.1571 39.8218C35.5074 41.5996 34.2855 43.0164 33.2455 43.1977C33.0583 43.2304 32.7437 43.1956 32.4575 43.1107C32.0693 42.9955 31.8658 42.8532 31.3585 42.3419C30.4319 41.408 29.8043 40.1142 29.2868 38.0709C29.1462 37.5155 29.0309 37.0316 29.0308 36.9953C29.0307 36.9591 30.8104 36.9295 32.9858 36.9295C35.3729 36.9295 36.941 36.962 36.941 37.0113ZM42.4502 37.1709C41.373 39.5885 38.9443 41.7373 36.2675 42.6411C35.8463 42.7833 35.4895 42.8996 35.4744 42.8996C35.4595 42.8996 35.6309 42.6528 35.8555 42.3509C36.08 42.0492 36.4317 41.4466 36.6369 41.012C36.9939 40.2564 37.6567 38.2081 37.7767 37.4897C37.808 37.3023 37.8492 37.0997 37.8681 37.0392C37.8943 36.955 38.4448 36.9295 40.23 36.9295H42.5577L42.4502 37.1709ZM15.9423 39.5262C14.7184 39.9717 14.1565 40.8647 14.2896 42.1527C14.4155 43.3716 15.4847 44.3119 16.7254 44.2948C17.0396 44.2904 17.3939 44.2598 17.5128 44.2267C17.7038 44.1735 17.8026 44.2542 18.3646 44.9233C20.0774 46.9625 22.3795 48.7568 24.6724 49.8399C25.5992 50.2778 27.0339 50.8292 27.5029 50.9281C27.7694 50.9842 27.7798 50.9744 27.8804 50.5756C27.9373 50.3499 27.9686 50.1503 27.9502 50.1318C27.9316 50.1133 27.5911 50.0009 27.1934 49.882C24.3161 49.0218 21.4405 47.1064 19.2237 44.5736L18.4988 43.7455L18.7211 43.4544C19.0372 43.0406 19.1782 42.5861 19.1826 41.9669C19.1897 40.9761 18.7247 40.1693 17.8829 39.7117C17.3122 39.4013 16.4986 39.3236 15.9423 39.5262ZM17.5586 40.6421C18.6237 41.2447 18.5151 42.8272 17.3684 43.4157C16.8608 43.6762 15.9405 43.3896 15.5212 42.8404C14.9402 42.0795 15.2987 40.8422 16.198 40.5047C16.5294 40.3803 17.2189 40.45 17.5586 40.6421ZM49.5377 40.832C49.9757 40.988 50.2015 41.1962 50.3993 41.6266C50.6395 42.1492 50.6113 42.6161 50.3109 43.0893C49.6911 44.0656 48.3232 44.1072 47.7013 43.1686C47.1441 42.3276 47.5435 41.178 48.5127 40.8328C48.9362 40.682 49.1164 40.6818 49.5377 40.832ZM45.2996 46.0728C43.5781 47.7095 41.1262 49.1487 38.7429 49.9213C37.8318 50.2167 35.775 50.7135 35.4631 50.7135C35.4286 50.7135 35.306 50.5148 35.1905 50.2719C34.4915 48.8012 32.5123 48.412 31.2731 49.5016C30.7562 49.9561 30.5125 50.4387 30.4582 51.1153C30.3256 52.7641 31.8228 54.1425 33.3705 53.7965C34.2769 53.5938 35.1138 52.789 35.2426 51.996C35.2878 51.718 35.329 51.677 35.6118 51.6289C37.7789 51.2604 39.5867 50.6912 41.3274 49.8294C43.0503 48.9764 44.395 48.0448 45.9726 46.6116L46.4344 46.192L46.1484 45.8649L45.8623 45.5378L45.2996 46.0728ZM33.7991 50.0349C34.1746 50.2448 34.5691 50.9304 34.566 51.3672C34.5636 51.6925 34.3034 52.2824 34.0717 52.488C33.8251 52.7068 33.2978 52.9084 32.9725 52.9084C32.037 52.9084 31.2497 51.8742 31.4944 50.9665C31.687 50.252 32.4902 49.6901 33.1616 49.8002C33.3308 49.8278 33.6177 49.9335 33.7991 50.0349Z" fill="#D6B556" stroke="#D6B556" stroke-width="0.65"/>
</svg>
