<svg width="66" height="66" viewBox="0 0 66 66" fill="none" xmlns="http://www.w3.org/2000/svg">
<rect width="65" height="65" transform="translate(0.166504 0.225098)" fill="white"/>
<path fill-rule="evenodd" clip-rule="evenodd" d="M35.4833 13.0917C35.1524 13.327 35.2835 14.0346 35.658 14.0346C36.0627 14.0346 37.8777 14.3684 38.849 14.6215C41.3289 15.2677 43.4508 16.3113 45.5452 17.9153C46.4133 18.5802 48.4989 20.6252 48.4989 20.8115C48.4989 20.9676 45.252 21.6633 44.4786 21.6729C44.1114 21.6775 44.0854 21.6579 43.6152 21.0257C43.0407 20.2532 42.8898 20.1108 42.4515 19.9277C41.9848 19.7326 41.7966 19.7539 41.4875 20.0366C41.2702 20.2354 41.1722 20.4602 40.9878 21.1831C40.5378 22.947 40.4293 23.0895 39.7856 22.7611C39.0387 22.3801 38.7359 22.5812 38.5846 23.5586C38.483 24.2152 38.4158 24.2934 38.1556 24.058C38.027 23.9417 38.017 23.8491 38.0896 23.4511C38.1368 23.1928 38.1602 22.7103 38.1417 22.3789C38.1007 21.6452 37.8638 21.318 37.3739 21.318C36.9273 21.318 36.5869 21.5322 36.1932 22.0611C35.683 22.7465 35.6122 22.916 35.5562 23.5866L35.5058 24.1917L34.9324 23.7921C34.6171 23.5724 34.2167 23.3455 34.0426 23.2881C33.5861 23.1375 32.7458 23.2396 32.185 23.5139C30.3756 24.3993 29.6738 27.1917 31.0886 27.8766C31.5481 28.099 31.6981 28.1058 32.0571 27.9201C32.255 27.8178 32.4062 27.6117 32.6014 27.1783C32.9364 26.4341 33.0844 26.2634 33.3945 26.2634C33.6654 26.2634 34.112 26.57 34.112 26.7559C34.112 26.8218 33.8555 27.1413 33.5419 27.4658C32.8169 28.2163 32.394 28.401 31.0331 28.5614C30.4525 28.6298 29.8613 28.7458 29.7195 28.8192C29.3333 29.0189 29.2005 29.415 29.3389 29.9549L29.4508 30.3912L29.1331 30.7088C28.9417 30.9003 28.7913 31.1553 28.7546 31.3512C28.5647 32.3632 29.5844 33.3556 30.447 32.9984C30.6055 32.9327 30.9642 32.6392 31.2439 32.346L31.7526 31.8132L32.3744 32.3155C33.0469 32.8589 33.345 33.0073 33.7641 33.0073C34.1288 33.0073 34.3534 32.8736 34.5158 32.5595C34.7564 32.0942 34.6907 31.6448 34.2968 31.0607C34.0307 30.6661 33.9751 30.5272 34.0742 30.5051C34.3139 30.4515 34.7798 30.8059 35.055 31.2512C35.2741 31.6056 35.3259 31.7883 35.3259 32.2068C35.3259 32.9193 35.1516 33.1181 34.0215 33.6947C32.9381 34.2475 32.8192 34.2327 32.6112 33.5195C32.5216 33.2121 32.4182 33.0629 32.2258 32.9634C31.8612 32.7748 31.3533 32.7968 30.875 33.0217C30.6524 33.1263 30.2535 33.2439 29.9884 33.283C29.4412 33.3637 29.1555 33.5817 28.8766 34.1313C28.7762 34.3291 28.5148 34.6839 28.2958 34.9197C27.6303 35.636 27.4171 36.3767 27.6055 37.3186C27.6754 37.6684 28.4285 38.5158 28.9819 38.8676C29.4535 39.1674 29.6666 39.1762 30.7332 38.9404C31.1744 38.8429 31.5495 38.7771 31.5667 38.7944C31.584 38.8116 31.5535 39.0335 31.499 39.2875C31.3847 39.8204 31.4769 40.2226 31.8352 40.7543C32.0508 41.0744 32.053 41.094 31.9173 41.4937C31.7676 41.9349 31.8067 42.3361 32.0979 43.344C32.4123 44.4326 33.0564 45.2548 33.6875 45.3731C34.4438 45.515 35.3038 44.7445 36.2037 43.1187C37.3822 40.9894 37.7987 39.8641 37.7987 38.8094C37.7987 38.1687 37.7895 38.1426 37.3087 37.4202C36.7661 36.6048 36.4499 35.8581 36.4499 35.3921C36.4499 34.8049 36.8012 34.9013 37.2584 35.6138C38.009 36.7835 38.5477 36.6989 40.213 35.1505C40.5767 34.8125 40.9291 34.5359 40.9963 34.5359C41.2123 34.5359 41.4517 34.884 41.5608 35.3565C41.7928 36.3616 42.1842 36.7847 42.879 36.7815C43.3656 36.7792 43.5807 36.5869 43.9516 35.8223C44.2499 35.2076 44.5733 34.8794 44.7181 35.0446C44.7547 35.0863 44.9575 35.536 45.1688 36.0439C45.6032 37.0883 45.8225 37.3233 46.362 37.3233C46.6455 37.3233 46.7793 37.2626 47.0155 37.0263C47.3236 36.7183 47.5985 35.9952 47.601 35.4861C47.6029 35.1056 47.68 35.0219 48.0873 34.9575C48.5799 34.8797 49.0328 34.4807 49.3756 33.8225C49.7227 33.156 49.7479 32.7289 49.4855 31.966C49.3852 31.6745 49.3144 31.3833 49.3281 31.3187C49.3419 31.2542 49.6566 31.0513 50.0275 30.868C50.627 30.5715 50.7262 30.4854 50.9211 30.0922C51.3603 29.2057 51.1604 28.1973 50.3666 27.2954C50.0589 26.9458 50.017 26.8525 50.0934 26.6854C50.2056 26.4399 51.1098 25.3643 51.2041 25.3643C51.3264 25.3643 51.8395 26.8132 52.1433 28.0168C53.0351 31.5498 52.8941 35.3697 51.7501 38.6721C51.3348 39.8712 51.4026 39.7928 51.0485 39.482C50.751 39.2207 50.7111 39.2117 49.867 39.2136C48.8195 39.2159 48.51 39.3327 47.7331 40.0188C47.0487 40.6231 46.7151 40.8294 46.4216 40.8298C45.792 40.8307 45.366 41.4579 45.1725 42.6695C44.9196 44.2528 45.7799 44.9301 47.1951 44.2619C47.9753 43.8935 48.2166 43.8481 48.4196 44.0317C48.5126 44.116 48.5888 44.2567 48.5888 44.3444C48.5888 44.5454 46.9003 46.3144 45.9917 47.0656C39.5426 52.3968 30.5435 52.8737 23.6366 48.2502C23.0926 47.8861 22.5131 47.4737 22.3488 47.3338L22.0502 47.0794L22.1936 46.1802C22.3474 45.2157 22.5458 44.5182 22.7693 44.1571C22.8457 44.0335 23.3805 43.3658 23.9577 42.6734C25.6926 40.5924 26.1392 39.7321 25.9171 38.8991C25.7312 38.2025 25.2108 37.9014 23.6591 37.5932L23.1421 37.4904V37.1342C23.1421 36.6422 22.9581 36.2484 22.5685 35.9063C22.1164 35.5093 21.7592 35.3429 20.3996 34.8956C19.127 34.4769 18.5562 34.2242 18.5562 34.0797C18.5562 33.8691 19.0105 33.3427 19.4861 33.0021C20.2782 32.4349 20.258 32.227 19.2938 31.0152C18.4842 29.9978 16.968 28.8422 16.1025 28.5829C15.8672 28.5124 15.7765 28.441 15.8104 28.3528C15.8374 28.2825 15.8839 28.1275 15.9138 28.0085C15.9437 27.8894 16.0095 27.7921 16.06 27.7921C16.1106 27.7921 16.3467 27.6521 16.5848 27.481L17.0177 27.1701L18.2591 28.2436C19.7468 29.5303 19.8842 29.5727 20.3954 28.9031C20.5708 28.6734 20.7143 28.4338 20.7143 28.3705C20.7143 28.3072 20.4973 27.6959 20.232 27.0122C19.9668 26.3284 19.7215 25.6784 19.6868 25.5677C19.6347 25.4012 19.7557 25.2203 20.3874 24.5209L21.151 23.6755L23.0148 26.5052C24.0399 28.0615 24.9715 29.3958 25.085 29.4701C25.1985 29.5445 25.3681 29.581 25.4618 29.5512C25.7488 29.4601 27.0984 27.8151 27.0984 27.5565C27.0984 27.4313 26.6331 25.537 26.0644 23.3469C25.4957 21.1568 25.0303 19.3214 25.0303 19.2681C25.0303 19.2149 25.3147 18.8411 25.6624 18.4375C26.3313 17.6608 26.5341 17.3241 26.7702 16.5973C27.4613 14.4704 26.8733 13.4254 25.2505 13.8972C24.0236 14.2538 23.2272 14.8087 22.178 16.0376L21.8114 16.4672L17.6522 16.0152C15.3647 15.7666 13.4011 15.5632 13.2887 15.5632C13.1426 15.5632 12.8644 15.8136 12.3147 16.4399C11.5064 17.3608 11.389 17.6446 11.7 17.9254C11.7866 18.0034 13.2114 18.6995 14.8662 19.472C16.521 20.2444 17.8918 20.8933 17.9122 20.9137C17.9326 20.9341 17.7044 21.2346 17.405 21.5815C17.1058 21.9284 16.7927 22.3277 16.7094 22.4686L16.5579 22.725L14.99 22.3737C13.5163 22.0435 13.4089 22.0311 13.2016 22.1669C12.8678 22.3857 12.505 22.9805 12.5737 23.1967C12.6055 23.297 13.1756 23.8502 13.8405 24.4261C14.5054 25.0019 15.0495 25.5052 15.0495 25.5444C15.0495 25.5836 14.9487 25.7917 14.8257 26.007C14.551 26.4875 14.5413 26.7741 14.7909 27.0397L14.982 27.2431L14.7943 28.0346C13.8199 32.1426 14.0931 36.1492 15.6084 39.9759C16.8936 43.2212 19.3723 46.5273 21.8869 48.35C24.9741 50.5878 27.7628 51.7675 31.2347 52.3042C32.482 52.4971 35.2797 52.5234 36.4948 52.3538C38.6852 52.0481 40.6157 51.4637 42.6093 50.5029C47.4722 48.1594 51.1306 43.9931 52.8066 38.89C53.5935 36.4938 53.8546 34.6728 53.779 32.1087C53.6874 29.0038 53.0663 26.4997 51.7159 23.7907C50.1766 20.7031 47.9751 18.1998 45.1236 16.2945C42.3425 14.4363 39.5852 13.4266 36.1352 13.0031C35.7989 12.9617 35.6346 12.9841 35.4833 13.0917ZM25.9841 15.2852C25.9061 15.8728 25.6143 16.7032 25.3494 17.0917C25.2313 17.2648 23.786 18.9626 22.1377 20.8643L19.1407 24.3221L17.6121 25.4233C16.1901 26.4477 15.8587 26.644 15.8587 26.4616C15.8587 26.3703 17.4806 23.2249 17.6586 22.9711C17.732 22.8665 19.1561 21.2018 20.8233 19.2718C23.9812 15.6162 24.156 15.4477 25.2102 15.0431C25.9933 14.7425 26.0535 14.7613 25.9841 15.2852ZM17.5162 17.0949C19.3426 17.2926 20.8535 17.4707 20.8735 17.4909C20.9424 17.5597 18.7018 20.0652 18.6065 20.0259C18.4113 19.9455 13.025 17.4228 12.9929 17.3968C12.9747 17.382 13.0892 17.2062 13.2477 17.0062C13.5107 16.6742 13.5645 16.6466 13.8655 16.689C14.0469 16.7145 15.6897 16.8972 17.5162 17.0949ZM25.0833 23.8641L25.9935 27.3874L25.726 27.7286C25.5789 27.9161 25.4249 28.0578 25.3837 28.0433C25.3425 28.0287 24.5369 26.8494 23.5934 25.4224L21.8781 22.8279L22.3874 22.2303C23.6933 20.6979 24.0894 20.2587 24.1296 20.2981C24.1534 20.3216 24.5826 21.9263 25.0833 23.8641ZM42.8027 21.737C43.4283 22.6138 43.64 22.7567 44.3128 22.7567C44.9867 22.7567 45.9731 22.5917 47.8446 22.1662C48.6046 21.9933 49.2635 21.8748 49.3088 21.9028C49.4076 21.9639 50.2815 23.366 50.5555 23.903L50.7502 24.2847L50.4848 24.5323C49.9764 25.0063 49.2838 25.8612 49.1187 26.2185C49.0272 26.4163 48.9515 26.7548 48.9504 26.9707C48.9486 27.3229 48.9992 27.4182 49.44 27.8944C49.9979 28.4969 50.1624 28.9253 50.0259 29.4198C49.9488 29.6988 49.8599 29.7748 49.3072 30.0342C48.2724 30.5197 48.0563 31.0285 48.4082 32.1508C48.6326 32.8663 48.6157 33.0771 48.2957 33.5521C48.1174 33.8167 48.0215 33.8696 47.6332 33.9173C46.8154 34.018 46.536 34.3474 46.5285 35.2197C46.5263 35.4722 46.4866 35.7757 46.4403 35.8941C46.3575 36.1059 46.3542 36.1044 46.242 35.7947C46.1793 35.6216 45.9733 35.1709 45.7842 34.7931C45.5168 34.2586 45.3728 34.0741 45.1352 33.9614C44.7392 33.7735 44.6728 33.7781 44.1379 34.0303C43.5781 34.2943 43.3587 34.5299 43.0548 35.1938C42.9233 35.4812 42.8007 35.7015 42.7825 35.6832C42.7644 35.6651 42.6833 35.3919 42.6024 35.0762C42.3453 34.0729 41.9639 33.6447 41.1992 33.5013C40.7284 33.413 40.2194 33.6752 39.3988 34.4286C38.7597 35.0154 38.3561 35.3135 38.3 35.24C38.2876 35.2237 38.1501 35.0217 37.9943 34.7913C37.6192 34.236 37.1663 33.9618 36.6242 33.9618C35.1084 33.9618 34.9497 35.7894 36.2882 37.8311C36.8043 38.6182 36.8216 38.6741 36.7188 39.2157C36.5027 40.3557 35.0735 43.195 34.3476 43.9265L33.9072 44.3705L33.6602 44.094C33.3549 43.7523 33.0331 42.9171 32.9682 42.2981C32.9277 41.9127 32.9523 41.791 33.1111 41.5891C33.4073 41.2124 33.3637 40.8072 32.9863 40.4297C32.5675 40.011 32.4846 39.7715 32.6004 39.3152C32.7862 38.5834 32.4875 37.9491 31.8701 37.7641C31.5843 37.6785 31.3795 37.6933 30.6586 37.8519C30.1814 37.9568 29.7491 38.0427 29.6981 38.0427C29.6472 38.0427 29.3852 37.8345 29.1162 37.5801C28.6675 37.1556 28.627 37.0846 28.627 36.7199C28.627 36.2387 28.7178 36.0529 29.2157 35.5153C29.4268 35.2874 29.6849 34.9333 29.7895 34.7285C29.9528 34.4084 30.0203 34.356 30.2698 34.3552C30.4296 34.3547 30.7767 34.2535 31.0412 34.1304C31.3058 34.0073 31.5353 33.9065 31.5513 33.9065C31.5673 33.9065 31.6264 34.0461 31.6828 34.2167C31.8777 34.8072 32.8045 35.3633 33.3297 35.2048C33.681 35.0988 35.317 34.2592 35.6162 34.0314C35.7758 33.9099 36.0186 33.6196 36.1557 33.3864C36.3719 33.0184 36.4049 32.8672 36.4049 32.243C36.4049 31.6383 36.3651 31.4424 36.1549 31.0143C35.419 29.516 33.9314 28.9593 33.0105 29.8378C32.604 30.2255 32.6702 30.6927 33.2334 31.4112C33.3787 31.5967 33.4675 31.7484 33.4304 31.7484C33.3935 31.7484 33.0812 31.4978 32.7366 31.1915C32.218 30.7307 32.0571 30.636 31.8047 30.6431C31.4416 30.6534 31.0319 30.9456 30.5054 31.5699C30.2975 31.8165 30.0948 32.0182 30.0548 32.0182C30.0148 32.0182 29.9362 31.9325 29.8801 31.8277C29.7899 31.6591 29.8273 31.5922 30.2037 31.2464C30.6117 30.8719 30.6273 30.8398 30.5781 30.4703C30.5498 30.2584 30.5006 29.999 30.4686 29.8939C30.4132 29.7122 30.4492 29.6997 31.2046 29.6382C32.1261 29.5633 32.9007 29.3296 33.5058 28.9442C34.0407 28.6033 35.0828 27.4502 35.1883 27.0822C35.4293 26.242 34.4538 25.1844 33.4376 25.1844C32.6763 25.1844 31.9539 25.761 31.6816 26.5861C31.5503 26.9841 31.4142 26.897 31.4154 26.4155C31.4177 25.3976 32.4518 24.2853 33.3957 24.2853C33.7378 24.2853 33.9049 24.37 34.6642 24.928C35.4121 25.4776 35.7376 25.6002 36.0758 25.4601C36.4868 25.2899 36.6297 24.9394 36.6297 24.1022C36.6297 23.4978 36.6658 23.304 36.8267 23.0436C37.0674 22.6541 37.111 22.7504 37.0037 23.4348C36.9572 23.7309 36.9549 24.075 36.9983 24.2263C37.1627 24.7997 37.8729 25.2744 38.5663 25.2744C39.1176 25.2744 39.4641 24.9477 39.5548 24.3427L39.6181 23.9214L39.9222 23.9785C40.9673 24.1745 41.5719 23.4907 41.9791 21.6522C42.1589 20.8407 42.1634 20.8411 42.8027 21.737ZM15.9402 23.7113C15.9894 23.7552 15.6662 24.4651 15.5971 24.4651C15.5539 24.4651 14.6635 23.7245 14.2981 23.3846C14.2251 23.3168 15.8633 23.6426 15.9402 23.7113ZM19.2363 27.5915C19.182 27.6458 18.0167 26.6273 18.0167 26.5255C18.0167 26.4838 18.166 26.3483 18.3484 26.2244L18.68 25.9991L18.9795 26.7739C19.1443 27.2001 19.2599 27.5681 19.2363 27.5915ZM16.301 29.8721C17.0317 30.2823 17.8816 30.9827 18.3895 31.593L18.8335 32.1264L18.5178 32.3645C18.1309 32.6563 17.5932 33.3993 17.4833 33.7941C17.3155 34.3962 17.6555 34.9356 18.4559 35.337C18.6347 35.4267 19.3071 35.6732 19.95 35.8847C21.8279 36.5025 22.0065 36.629 22.0931 37.4021C22.1856 38.2292 22.4733 38.4875 23.5055 38.6704C24.3576 38.8214 24.7616 38.9554 24.8473 39.1156C25.0355 39.4674 24.3565 40.5621 22.9191 42.2239C21.7657 43.5574 21.4806 44.1435 21.1078 45.9483C21.0629 46.1658 21.0623 46.1656 20.7385 45.8418L20.4142 45.5175L20.5334 43.6799C20.5988 42.6691 20.6257 41.5872 20.5932 41.2753C20.5148 40.5263 20.1829 39.9595 19.5004 39.4094L18.9609 38.9747L18.9917 38.1947C19.0446 36.8584 18.7471 36.485 17.077 35.7913C16.0138 35.3496 15.5221 35.0794 15.4472 34.8956C15.3286 34.6044 15.2949 31.738 15.4005 30.9191C15.5492 29.7653 15.5888 29.5904 15.7013 29.5904C15.7551 29.5904 16.0251 29.7172 16.301 29.8721ZM17.702 37.2871C17.8617 37.4061 17.8819 37.5257 17.8819 38.3546C17.8819 39.43 17.9286 39.5295 18.7446 40.1888C19.5089 40.8065 19.5639 40.9811 19.5065 42.6117C19.4798 43.369 19.4233 44.0506 19.3809 44.1265C19.299 44.2729 19.1234 44.0632 18.3003 42.8356C17.2233 41.2295 16.051 38.4242 15.7205 36.6626L15.6613 36.3469L16.5917 36.7501C17.1034 36.9718 17.6031 37.2135 17.702 37.2871ZM50.3911 40.448C50.3933 40.5345 50.4521 40.7655 50.5218 40.9613C50.644 41.3043 50.6383 41.3355 50.3663 41.8155C50.2109 42.0895 49.921 42.5652 49.722 42.8724C49.3669 43.4208 49.3572 43.4279 49.1967 43.2556C48.7024 42.725 47.9763 42.6992 46.967 43.1765C46.2911 43.4961 46.1232 43.4696 46.2031 43.0557C46.4178 41.943 46.4238 41.9305 46.7717 41.8652C47.2549 41.7745 47.5782 41.5858 48.2291 41.0144C49.0112 40.3278 49.0785 40.2966 49.7802 40.2933C50.2979 40.291 50.3877 40.3137 50.3911 40.448Z" fill="#D6B556"/>
</svg>
