<svg width="66" height="66" viewBox="0 0 66 66" fill="none" xmlns="http://www.w3.org/2000/svg">
<rect width="65" height="65" transform="translate(0.833496 0.225098)" fill=""/>
<path fill-rule="evenodd" clip-rule="evenodd" d="M32.4454 14.9832C30.5398 15.3006 28.748 16.7414 28.1207 18.4606L27.9476 18.935L25.7925 18.9388C23.3077 18.9431 22.9541 18.9674 22.1109 19.1924C21.2271 19.4283 20.5186 19.8526 19.7967 20.5784C18.8158 21.5647 18.2324 22.9126 18.2324 24.1929C18.2324 24.4832 18.6409 28.4181 19.1402 32.937C19.6394 37.4561 20.0479 41.223 20.0479 41.3081C20.0479 41.4569 19.9173 41.4629 16.6408 41.4629C13.2698 41.4629 13.2299 41.4648 12.8716 41.6485C12.1954 41.9953 12.2085 41.909 12.2085 46.0014C12.2085 50.0939 12.1954 50.0076 12.8716 50.3543L13.2337 50.54H33.3335H53.4333L53.7954 50.3543C54.4689 50.009 54.4585 50.0747 54.4585 46.1565V42.7193L53.8303 42.0911L53.202 41.4629H49.9106C46.804 41.4629 46.6191 41.4546 46.6191 41.3153C46.6191 41.2341 46.7109 40.3337 46.823 39.3142C46.9351 38.2948 47.3436 34.583 47.7307 31.0657C48.1179 27.5484 48.4346 24.4445 48.4346 24.1679C48.4346 23.49 48.1751 22.5199 47.801 21.7985C47.4117 21.0478 46.4564 20.068 45.7114 19.6554C44.6407 19.0623 44.2578 19.0011 41.3305 18.9566L38.7238 18.9169L38.6191 18.6165C38.4104 18.018 37.9279 17.2594 37.3996 16.6994C36.1006 15.3224 34.2524 14.6822 32.4454 14.9832ZM33.9012 17.3653C35.3297 17.6362 36.4426 18.8762 36.5339 20.2987C36.6684 22.3936 34.9354 23.9809 32.8171 23.7031C31.8412 23.5751 30.8852 22.8601 30.4236 21.9131C30.1794 21.412 30.1586 21.3046 30.158 20.5442C30.1575 19.8203 30.1846 19.6607 30.3794 19.2442C30.8067 18.3307 31.6529 17.6376 32.6321 17.3992C33.1569 17.2714 33.3753 17.2655 33.9012 17.3653ZM27.8896 21.9085C28.3938 23.8972 30.0016 25.4931 32.0132 26.0014C32.7182 26.1795 33.9623 26.1804 34.6538 26.0033C34.9488 25.9277 35.5058 25.7111 35.8916 25.5221C36.4554 25.2457 36.7308 25.0394 37.2954 24.4704C38.0812 23.6783 38.4963 22.9735 38.7447 22.009L38.893 21.4334L39.6942 21.3809C40.1348 21.352 41.2327 21.352 42.1338 21.381C43.4493 21.4233 43.8568 21.4648 44.2015 21.5916C45.1166 21.9284 45.9104 22.9633 46.0091 23.9483C46.0417 24.2735 45.8317 26.4586 45.3409 30.9004C44.9473 34.4632 44.5255 38.2879 44.4035 39.3999L44.1818 41.4216L43.7952 41.4466L43.4087 41.4716L43.3811 36.908C43.3503 31.8293 43.361 31.9369 42.7658 30.7478C42.2405 29.6984 41.0901 28.6284 39.9763 28.1533C39.6214 28.0019 38.2473 27.5743 37.8142 27.4804C37.459 27.4034 36.8512 27.6746 36.6571 27.9967C36.5765 28.1304 36.1577 29.2096 35.7266 30.3949C35.2954 31.5803 34.9236 32.5502 34.9003 32.5504C34.877 32.5506 34.7773 32.1888 34.6786 31.7464L34.4993 30.942L35.0511 29.9521C35.6632 28.8539 35.7406 28.4564 35.4246 28.0332C35.0243 27.4971 34.9445 27.4758 33.3337 27.4758C31.723 27.4758 31.6425 27.4973 31.2424 28.0332C30.927 28.4557 31.0041 28.8538 31.6135 29.952L32.1626 30.9416L31.9861 31.7462C31.889 32.1887 31.7893 32.5508 31.7645 32.5508C31.7397 32.5508 31.4082 31.6874 31.0276 30.6322C30.1481 28.1934 30.0227 27.9098 29.7335 27.7053C29.3205 27.4133 29.0663 27.4096 28.133 27.6827C27.6574 27.8218 27.0641 28.0154 26.8145 28.1129C25.2387 28.728 23.9539 30.1585 23.4586 31.8493C23.3297 32.2897 23.3105 32.8495 23.2859 36.908L23.2583 41.4716L22.8707 41.4466L22.4831 41.4216L22.3353 40.06C22.254 39.3112 21.8327 35.4864 21.3989 31.5605C20.9039 27.0807 20.6262 24.2612 20.6532 23.9891C20.7815 22.6933 21.8821 21.5661 23.1661 21.4153C23.4254 21.385 24.5637 21.3633 25.6958 21.3674L27.7543 21.3747L27.8896 21.9085ZM28.924 31.9731C29.2541 32.9489 30.1146 35.4833 30.8363 37.6051L32.1485 41.4629H28.9005H25.6524L25.6764 37.0274C25.7004 32.6059 25.701 32.5905 25.892 32.1178C26.1002 31.6021 26.7628 30.8132 27.1772 30.5877C27.6109 30.3517 28.0878 30.1641 28.2087 30.182C28.2804 30.1925 28.5501 30.8677 28.924 31.9731ZM39.2457 30.4558C39.815 30.7251 40.5234 31.4941 40.7739 32.1146C40.9663 32.5914 40.9666 32.5981 40.9906 37.0274L41.0146 41.4629H37.7553H34.4961L34.6227 41.1122C34.6923 40.9193 35.5457 38.422 36.5189 35.5627C37.4922 32.7034 38.3065 30.3137 38.3286 30.2521C38.3783 30.1135 38.6494 30.1737 39.2457 30.4558ZM52.0654 46.0014V48.1469H33.3335H14.6016V46.0014V43.8559H33.3335H52.0654V46.0014Z" fill="#D6B556" stroke="white" stroke-width="0.65"/>
</svg>
