<svg width="66" height="66" viewBox="0 0 66 66" fill="none" xmlns="http://www.w3.org/2000/svg">
<rect width="65" height="65" transform="translate(0.5 0.299561)" fill="white"/>
<path fill-rule="evenodd" clip-rule="evenodd" d="M24.8842 13.0742C23.5808 13.2789 22.4208 14.1316 21.841 15.3112C21.0921 16.8352 21.366 18.6838 22.5225 19.9097C24.4982 22.0042 27.9507 21.4673 29.192 18.8725C29.7109 17.7879 29.7126 16.4482 29.1965 15.3734C28.6795 14.2969 27.7144 13.4951 26.541 13.1672C26.1339 13.0534 25.3107 13.0073 24.8842 13.0742ZM39.7752 13.096C38.1174 13.411 36.8441 14.6479 36.4834 16.294C36.3835 16.7496 36.407 17.6725 36.5301 18.1352C36.9508 19.7156 38.2702 20.9075 39.8802 21.1615C41.4034 21.4018 43.0171 20.6915 43.8723 19.4042C44.143 18.9968 44.3702 18.4842 44.4886 18.0141C44.5771 17.6627 44.5771 16.5732 44.4887 16.2213C44.1124 14.724 43.0581 13.6195 41.5978 13.1927C41.0511 13.0329 40.3136 12.9938 39.7752 13.096ZM26.3788 14.5522C27.1458 14.8117 27.783 15.433 28.0657 16.1971C28.156 16.4411 28.1735 16.589 28.1747 17.1177C28.1765 17.8577 28.1012 18.1226 27.7379 18.6556C27.3846 19.1736 26.853 19.5589 26.2409 19.7402C25.7912 19.8735 25.0752 19.856 24.637 19.701C23.0695 19.1464 22.342 17.387 23.0693 15.9096C23.4402 15.1562 24.2187 14.581 25.0706 14.4309C25.4267 14.3682 25.9891 14.4203 26.3788 14.5522ZM41.2368 14.5083C42.2335 14.7861 43.0264 15.6902 43.1802 16.7243C43.4005 18.2056 42.3423 19.6116 40.8566 19.8116C39.5367 19.9892 38.3025 19.2016 37.8879 17.9172C37.743 17.4683 37.7443 16.7497 37.8909 16.3182C38.1649 15.5113 38.6934 14.9313 39.4404 14.6174C40.0166 14.3753 40.6267 14.3382 41.2368 14.5083ZM22.3801 21.9614C21.2773 22.1512 20.1939 22.718 19.4018 23.5196C18.5539 24.3776 17.7799 25.9167 17.4981 27.3048C17.3202 28.1807 17.295 28.9177 17.3113 32.7435C17.3267 36.3653 17.3279 36.4048 17.4335 36.7166C17.7741 37.7217 18.6472 38.3658 19.6792 38.3732C19.8876 38.3746 20.1674 38.3406 20.3264 38.2944C20.4805 38.2495 20.6165 38.2228 20.6287 38.235C20.6409 38.2471 20.6054 39.2677 20.5498 40.503C20.4506 42.7073 20.3147 45.7683 20.2042 48.2826C20.1141 50.3328 20.1576 50.653 20.6211 51.3501C21.1076 52.082 22.0019 52.5629 22.8703 52.5596C23.231 52.5582 23.7459 52.4281 24.121 52.2435C24.6312 51.9925 25.0405 51.5664 25.3199 50.9954C25.4399 50.7503 25.5381 50.5884 25.5382 50.6357C25.5382 50.683 25.6175 50.8789 25.7142 51.071C26.1947 52.0251 27.3019 52.6401 28.3619 52.5416C28.9472 52.4872 29.5904 52.2074 29.9778 51.8388L30.1293 51.6946L30.3616 51.911C30.884 52.3975 31.6792 52.6388 32.3594 52.5173C32.7566 52.4463 33.2014 52.2483 33.4458 52.0337C33.5407 51.9503 33.6398 51.8821 33.6659 51.8821C33.692 51.8821 33.7982 51.9504 33.9017 52.0338C34.3856 52.4233 35.0809 52.615 35.6912 52.5271C36.0209 52.4796 36.4667 52.3038 36.7849 52.0957C36.9076 52.0155 36.9172 52.0168 37.0757 52.1357C37.871 52.7325 38.8828 52.6847 39.7587 52.0091C39.7941 51.9818 39.9038 52.031 40.0627 52.1452C40.6833 52.591 41.5193 52.6718 42.2017 52.3519C42.5601 52.1838 42.9916 51.7395 43.1681 51.3567C43.3386 50.9867 43.2691 51.5342 44.1008 44.0005L44.3585 41.6665L45.4262 41.6505L46.4939 41.6345L46.7523 41.4914C47.0353 41.3346 47.1978 41.1658 47.3468 40.8737C47.5307 40.5132 47.5246 40.3614 47.2483 38.4296L47.2127 38.1802L47.504 38.042C48.3483 37.6413 49.0425 36.7882 49.2529 35.8929C49.3931 35.2962 49.3575 34.9211 48.7702 30.8111C48.4632 28.6627 48.1712 26.7415 48.1214 26.5417C47.6269 24.5589 46.135 22.9257 44.1924 22.2406C43.3019 21.9265 43.1765 21.9145 40.8008 21.9145C38.4625 21.9145 38.3379 21.9249 37.5097 22.1897C36.5543 22.4953 35.6759 23.0451 34.9645 23.783C34.5675 24.1949 34.0589 24.8994 33.9247 25.2236L33.8603 25.3788L33.3938 25.3793C33.1372 25.3796 32.851 25.3921 32.7577 25.4069L32.5881 25.434L32.3216 24.935C31.5176 23.4292 30.3434 22.4809 28.7444 22.046L28.2759 21.9185L25.5141 21.9079C23.4035 21.8998 22.6646 21.9124 22.3801 21.9614ZM28.3728 23.359C29.5516 23.693 30.4246 24.372 31.0255 25.4221C31.1788 25.6899 31.304 25.926 31.3038 25.9467C31.3036 25.9675 31.2252 26.0378 31.1296 26.1029C30.8233 26.3115 30.2984 26.9274 30.0989 27.3122C29.7689 27.9487 29.6808 28.3127 29.6819 29.0369C29.6829 29.7436 29.7513 30.0598 30.0281 30.6359C30.4917 31.6007 31.3507 32.3139 32.3971 32.6026C32.881 32.7362 33.6845 32.7476 34.1818 32.6282C34.6471 32.5164 35.2439 32.2244 35.6164 31.9263C36.2023 31.4575 36.5795 30.9152 36.836 30.1729C36.9837 29.7454 36.9942 29.6722 36.9953 29.0612C36.9967 28.3378 36.9147 27.9704 36.6226 27.3913C36.3518 26.8542 35.8329 26.2715 35.3563 25.9693L35.1389 25.8314L35.2494 25.6368C35.7311 24.7889 36.6659 23.9812 37.6043 23.6022C38.3646 23.2951 38.4852 23.2808 40.51 23.2595C42.0217 23.2435 42.4694 23.2539 42.8706 23.3145C44.6966 23.5901 46.2312 24.9327 46.7532 26.7112C46.8079 26.8978 47.1067 28.8274 47.4172 30.9993C48.0502 35.4275 48.0486 35.4052 47.7776 35.9418C47.559 36.375 47.0026 36.8937 47.0026 36.6643C47.0026 36.6152 46.9258 36.0375 46.6357 33.9064C46.4762 32.7343 46.0999 29.9571 46.0088 29.2792C45.6728 26.7793 45.6948 26.8714 45.389 26.6849C45.0717 26.4915 44.6225 26.6129 44.4546 26.9375C44.3553 27.1297 44.3548 27.2787 44.4514 27.9952C44.5216 28.5161 44.5916 29.0322 44.8982 31.29C44.9652 31.783 45.0612 32.4916 45.1118 32.8647C45.1623 33.2377 45.316 34.3715 45.4532 35.3842C46.0427 39.733 46.1108 40.2572 46.0889 40.2791C46.0763 40.2917 44.5125 40.3021 42.614 40.3021H39.1621L39.1416 38.6668C39.1254 37.3794 39.1035 36.9469 39.0387 36.6335C38.8309 35.6278 38.376 34.8173 37.615 34.097C36.9521 33.4696 36.1892 33.0752 35.276 32.8881C34.8129 32.7931 34.6582 32.7859 33.5087 32.8055C32.0554 32.8303 31.7548 32.8835 30.9735 33.2535C29.7009 33.8564 28.7919 34.9388 28.3907 36.329C28.2387 36.8561 28.2032 37.5595 28.2041 40.0356C28.2049 42.623 28.2233 42.8449 28.4754 43.3081C28.6409 43.6121 29.032 43.9847 29.3601 44.151L29.6126 44.279L29.5984 47.1236C29.5827 50.2374 29.5911 50.1444 29.2886 50.5808C28.998 51.0001 28.3781 51.2598 27.9083 51.159C27.2323 51.014 26.8389 50.5583 26.7747 49.8457C26.7592 49.6732 26.6814 48.224 26.6018 46.6251C26.1564 37.6723 26.1907 38.2418 26.0857 38.0626C25.9501 37.8309 25.7653 37.718 25.5221 37.718C25.2509 37.718 25.0155 37.8537 24.9061 38.0733C24.8184 38.2492 24.8147 38.305 24.5917 42.7974C24.552 43.5968 24.4987 44.6434 24.4732 45.1231C24.4479 45.6027 24.3929 46.682 24.3511 47.5214C24.2315 49.9292 24.2086 50.1858 24.0934 50.4115C23.8355 50.9172 23.4162 51.1774 22.8673 51.1724C22.2834 51.167 21.88 50.8951 21.6214 50.3324L21.4993 50.0667L21.6071 47.5707C21.733 44.6528 21.8622 41.697 21.9998 38.5848C22.0815 36.736 22.0982 35.6192 22.0981 31.9953C22.0981 27.9368 22.0922 27.6202 22.0133 27.4657C21.7701 26.9886 21.1524 26.9584 20.8515 27.4088L20.7416 27.5735V31.8213C20.7416 36.5174 20.7483 36.4078 20.44 36.7004C20.1764 36.9506 19.9907 37.0202 19.6448 36.9981C19.2667 36.9741 18.9876 36.7977 18.8173 36.475L18.7025 36.2577L18.719 32.1143L18.7354 27.971L18.8617 27.4622C19.1693 26.2234 19.7086 25.1638 20.3763 24.4861C21.0114 23.8416 21.8144 23.4321 22.7039 23.2991C22.8638 23.2752 24.1393 23.2604 25.5383 23.2661C27.7652 23.2753 28.1183 23.2869 28.3728 23.359ZM34.1347 26.7332C35.1275 27.0778 35.7651 27.9811 35.7658 29.0441C35.7665 29.9602 35.2893 30.7695 34.5006 31.1899C32.732 32.1325 30.6418 30.678 30.9194 28.6978C31.0376 27.855 31.6911 27.0368 32.4691 26.7577C33.002 26.5665 33.6277 26.5573 34.1347 26.7332ZM12.2256 32.2103C11.909 32.4034 11.8752 32.5238 11.875 33.4606C11.8749 34.0864 11.8921 34.332 11.9429 34.4297C12.1982 34.9204 12.8548 34.9648 13.1357 34.5102C13.2218 34.3709 13.2315 34.2674 13.2313 33.4888C13.2311 32.7098 13.2214 32.6065 13.1348 32.4645C13.0104 32.2605 12.7673 32.114 12.5531 32.114C12.4599 32.114 12.3125 32.1574 12.2256 32.2103ZM15.6007 32.2236C15.3064 32.4202 15.2666 32.5689 15.2666 33.4703C15.2666 34.1348 15.2809 34.2982 15.3513 34.4384C15.5996 34.9326 16.3024 34.9555 16.5587 34.4778C16.6324 34.3405 16.6433 34.1979 16.6365 33.4553C16.6298 32.7148 16.616 32.5704 16.5394 32.4378C16.3592 32.1255 15.9033 32.0214 15.6007 32.2236ZM49.6763 32.212C49.5776 32.2722 49.4779 32.3953 49.4179 32.5307C49.3302 32.7291 49.3219 32.8336 49.3364 33.5614C49.3543 34.4567 49.3815 34.5488 49.6822 34.7322C49.9859 34.9174 50.42 34.8122 50.6218 34.5045C50.6953 34.3925 50.7118 34.2424 50.7254 33.5614C50.7398 32.8336 50.7316 32.7291 50.6439 32.5307C50.5263 32.265 50.3042 32.114 50.0309 32.114C49.9216 32.114 49.7669 32.1568 49.6763 32.212ZM53.12 32.1934C52.8044 32.3489 52.7684 32.4791 52.7684 33.4663C52.7684 34.4549 52.7923 34.5502 53.0853 34.7313C53.3147 34.8731 53.6811 34.8474 53.8665 34.6765C54.0921 34.4685 54.1251 34.3129 54.125 33.4598C54.125 32.8054 54.1105 32.6421 54.0402 32.5022C53.867 32.1575 53.4659 32.0229 53.12 32.1934ZM35.2288 34.2623C35.3753 34.3047 35.6806 34.4306 35.9071 34.542C36.2361 34.7039 36.4025 34.8284 36.7344 35.1613C37.1806 35.6089 37.3854 35.9244 37.5928 36.4837L37.724 36.8377L37.7383 39.7023L37.7525 42.5668L37.6194 42.725C37.4718 42.9004 37.2408 43.0153 37.0351 43.0156C36.8637 43.0158 36.616 43.1659 36.5032 43.3379C36.4216 43.4625 36.4142 43.7039 36.3916 46.9943L36.3674 50.5172L36.2199 50.7273C35.7849 51.3466 34.8922 51.3227 34.5154 50.6816L34.3808 50.4528L34.3566 47.3012C34.3341 44.3689 34.3263 44.1404 34.245 44.0163C33.9711 43.5985 33.3855 43.5985 33.1116 44.0163C33.0303 44.1404 33.0225 44.3689 33 47.3012L32.9757 50.4528L32.8412 50.6816C32.4644 51.3227 31.5716 51.3466 31.1367 50.7273L30.9892 50.5172L30.965 46.9943C30.9423 43.7039 30.935 43.4625 30.8533 43.3379C30.7405 43.1659 30.4929 43.0158 30.3214 43.0156C30.1167 43.0153 29.8849 42.9006 29.7393 42.7275L29.6083 42.5719V39.8458C29.6083 37.2835 29.6141 37.0967 29.7049 36.7365C30.0376 35.4157 31.1436 34.4046 32.4854 34.1946C32.9264 34.1256 34.9268 34.175 35.2288 34.2623ZM42.9632 41.8647C42.9473 41.9779 42.7267 43.9675 42.473 46.2859C42.2193 48.6043 41.9883 50.5857 41.9597 50.6889C41.8214 51.1877 41.2265 51.3366 40.8012 50.9787C40.4927 50.7191 40.51 51.0088 40.51 46.1187V41.6587H41.7511H42.9921L42.9632 41.8647ZM39.1173 46.5645C39.1107 48.7297 39.0941 50.5499 39.0802 50.6094C39.0391 50.786 38.7761 51.0465 38.5527 51.1318C38.2972 51.2294 37.9987 51.1679 37.8096 50.9788C37.7087 50.878 37.6933 50.8275 37.7177 50.6794C37.7339 50.5814 37.7474 49.1007 37.7477 47.389L37.7483 44.2768L37.9986 44.1499C38.3537 43.97 38.7388 43.5872 38.9106 43.2434C38.9908 43.0828 39.0565 42.9131 39.0565 42.8663C39.0565 42.7927 39.1019 42.6278 39.1222 42.6278C39.1261 42.6278 39.1238 44.3993 39.1173 46.5645Z" fill="#D6B556"/>
</svg>
