<svg width="66" height="66" viewBox="0 0 66 66" fill="none" xmlns="http://www.w3.org/2000/svg">
<rect width="65" height="65" transform="translate(0.25 0.299561)" fill="white"/>
<path fill-rule="evenodd" clip-rule="evenodd" d="M20.6621 11.7705C20.065 12.0175 19.7642 12.6824 19.7642 13.7553V14.4163H15.6972H11.6301V34.1704V53.9246H27.3172H43.0044V49.1709C43.0044 46.5564 43.0305 44.4172 43.0623 44.4172C43.0941 44.4172 43.3802 44.5836 43.6981 44.7869C44.016 44.9903 44.3041 45.1567 44.3385 45.1567C44.466 45.1567 46.8424 43.6381 47.6291 43.054C49.3819 41.7523 50.9922 39.8508 52.0321 37.8547C52.7389 36.498 53.0547 35.6789 53.3988 34.3101C53.8064 32.6887 53.8976 31.4512 53.8634 27.9989L53.8322 24.838L49.0908 22.6498L44.3492 20.4618L43.7794 20.7137C43.466 20.8524 43.1635 20.9658 43.1069 20.9658C43.0428 20.9658 43.0044 19.7402 43.0044 17.6923V14.4187L38.9109 14.3911L34.8175 14.3634L34.7647 13.3969C34.7226 12.6276 34.6687 12.3827 34.5008 12.1976C34.0108 11.6574 34.1738 11.6693 27.2961 11.6764C23.7636 11.68 20.7783 11.7224 20.6621 11.7705ZM33.416 15.7631L33.4442 18.4833L36.1644 18.5115L38.8845 18.5397V21.3901C38.8845 22.9579 38.9118 24.2405 38.9452 24.2405C38.9785 24.2405 40.1713 23.7414 41.5956 23.1313C43.02 22.5213 44.2481 22.0221 44.3247 22.0221C44.4013 22.0221 46.2628 22.8511 48.4615 23.8641L52.4589 25.7061L52.4588 29.0139C52.4587 31.8087 52.4289 32.4611 52.2669 33.2197C51.6688 36.021 50.4192 38.4317 48.552 40.3863C47.5321 41.4541 46.7691 42.0707 45.406 42.9286C44.2121 43.6801 44.496 43.7215 42.6875 42.533C39.9951 40.7635 37.8839 38.0198 36.8851 34.992C36.3158 33.2662 36.2264 32.524 36.1679 29.0431L36.113 25.7644L36.9627 25.3658L37.8124 24.967L37.5589 24.4198C37.4194 24.1188 37.2608 23.8577 37.2064 23.8396C37.152 23.8215 36.5922 24.0423 35.9624 24.3304L34.8175 24.8543L34.828 28.4296C34.8367 31.3206 34.874 32.207 35.0231 33.0612C35.4953 35.7674 36.7457 38.5048 38.4484 40.5596L38.8845 41.0857V45.4453V49.8047H27.3172H15.75V34.171V18.5374L23.9104 18.5103L32.0709 18.4833L32.1023 17.824L32.1338 17.1647L26.662 17.1374L21.1903 17.11L21.1616 15.0765L21.1329 13.043H27.2604H33.3878L33.416 15.7631ZM23.9054 15.0765L23.9369 15.7367L24.5971 15.7682L25.2573 15.7996V15.108V14.4163H24.5656H23.874L23.9054 15.0765ZM29.3772 15.108V15.7996L30.0374 15.7682L30.6976 15.7367L30.7291 15.0765L30.7605 14.4163H30.0689H29.3772V15.108ZM19.7642 16.4762V17.1628H17.0704H14.3767V34.1704V51.178H27.3172H40.2578V46.8469C40.2578 44.4648 40.2815 42.5157 40.3105 42.5157C40.3395 42.5157 40.6484 42.7373 40.9972 43.008L41.6311 43.5004V48.0258V52.5513H27.3172H13.0034V34.1704V15.7895H16.3838H19.7642V16.4762ZM41.6311 18.7011V21.6126L40.9708 21.9124L40.3106 22.2122L40.2823 19.6892L40.2541 17.1664L37.5357 17.1382L34.8175 17.11L34.786 16.4498L34.7546 15.7895H38.1928H41.6311V18.7011ZM26.5936 21.2857C25.3546 21.4987 24.1987 22.4034 23.6286 23.6064L23.303 24.2933V26.3533C23.303 28.358 23.3105 28.429 23.5814 29.0069C23.7346 29.3334 24.0367 29.7964 24.253 30.0358C24.6051 30.4256 24.6257 30.4784 24.4499 30.5412C22.0407 31.4028 20.0454 33.2947 19.1269 35.5883C18.6598 36.7549 18.5005 37.6339 18.4983 39.0561L18.4965 40.2974H27.3306H36.1646L36.1093 38.792C36.0492 37.1559 35.8789 36.3932 35.2949 35.145C34.3224 33.067 32.4193 31.3539 30.1791 30.5401C29.988 30.4707 29.9911 30.4519 30.2413 30.1794C31.1651 29.1735 31.3843 28.4308 31.3843 26.3075C31.3843 24.9629 31.3488 24.5929 31.1696 24.0723C30.4838 22.0788 28.612 20.939 26.5936 21.2857ZM28.4793 22.859C29.0141 23.0939 29.6113 23.7525 29.8452 24.3653C30.113 25.0664 30.0501 27.9111 29.7536 28.5086C28.7586 30.514 25.9497 30.5578 24.9185 28.5841C24.6316 28.0348 24.6235 27.9732 24.6235 26.3378C24.6235 24.4495 24.6822 24.21 25.3184 23.5059C26.1481 22.5875 27.3167 22.3483 28.4793 22.859ZM42.3354 27.3745C42.2966 27.4131 42.2649 27.8885 42.2649 28.4308V29.4167H41.2614H40.2578V31.4238V33.431H41.2575H42.2573L42.2875 34.4609L42.3177 35.4909L44.3474 35.5195L46.377 35.5482L46.4074 34.516L46.4376 33.4838L47.4147 33.4533L48.3919 33.423V31.4198V29.4167H47.3883H46.3848V28.3604V27.304H44.3953C43.301 27.304 42.374 27.3357 42.3354 27.3745ZM49.8356 27.3745C49.7968 27.4131 49.7651 27.7221 49.7651 28.0611V28.6773H50.4518H51.1384V27.9906V27.304H50.5222C50.1833 27.304 49.8743 27.3357 49.8356 27.3745ZM45.0341 29.7072L45.0643 30.7372L46.0414 30.7676L47.0186 30.7979V31.4807V32.1633H46.015H45.0115V33.1669V34.1704H44.3248H43.6382V33.1669V32.1633H42.6346H41.6311V31.4767V30.79H42.6346H43.6382V29.8041C43.6382 29.2618 43.6699 28.7864 43.7086 28.7477C43.7473 28.709 44.0546 28.6773 44.3914 28.6773H45.0039L45.0341 29.7072ZM49.734 31.239C49.6257 33.294 48.9836 35.2077 47.8056 36.9868C47.1199 38.0224 45.7996 39.3929 44.8849 40.0187L44.2886 40.4268L44.6056 40.9421C44.78 41.2255 44.9579 41.479 45.0009 41.5056C45.1453 41.5949 46.8799 40.2048 47.641 39.3898C49.8125 37.0647 51.1384 33.8013 51.1384 30.7824V30.0506H50.4675H49.7965L49.734 31.239ZM28.7117 31.59C29.8569 31.8265 30.5438 32.1076 31.4367 32.7048C32.4478 33.3811 33.3312 34.3546 33.8946 35.4142C34.3941 36.3531 34.7647 37.6303 34.7647 38.4128V38.9241H27.3349C23.2484 38.9241 19.8823 38.9014 19.8545 38.8736C19.7393 38.7583 19.9934 37.1786 20.2414 36.469C20.6325 35.3494 21.0864 34.6451 22.0354 33.6858C23.8627 31.8384 26.2643 31.0845 28.7117 31.59ZM18.4965 42.3573V43.0439H27.3172H36.1379V42.3573V41.6707H27.3172H18.4965V42.3573ZM18.4965 45.1051V45.793L22.5372 45.7654L26.5778 45.7377L26.6093 45.0774L26.6406 44.4172H22.5686H18.4965V45.1051ZM28.0039 45.1039V45.7905H32.0709H36.1379V45.1039V44.4172H32.0709H28.0039V45.1039ZM18.4965 47.7448V48.4314H25.944H33.3914V47.7448V47.0581H25.944H18.4965V47.7448ZM34.8351 47.1286C34.7964 47.1673 34.7647 47.4763 34.7647 47.8152V48.4314H35.4513H36.1379V47.7448V47.0581H35.5218C35.1828 47.0581 34.8738 47.0898 34.8351 47.1286Z" fill="#D6B556"/>
</svg>
