<svg width="66" height="66" viewBox="0 0 66 66" fill="none" xmlns="http://www.w3.org/2000/svg">
<rect width="65" height="65" transform="translate(0.333496 0.299561)" fill=""/>
<path fill-rule="evenodd" clip-rule="evenodd" d="M31.6044 11.6946C30.1578 11.783 28.3571 12.1328 26.8698 12.6144C21.6226 14.3133 17.3183 18.2422 15.091 23.3657C14.3417 25.0892 13.8523 27.0284 13.6361 29.1299C13.5528 29.9396 13.5656 32.1797 13.6583 33.0022C14.0149 36.1686 15.0417 39.009 16.7635 41.5919C18.2783 43.8644 20.4771 45.977 22.8401 47.4306C23.3856 47.7661 23.3582 47.8044 23.1927 46.9376C23.0307 46.0898 23.0152 46.0635 22.4123 45.6177C21.4927 44.9377 20.56 44.1443 19.948 43.5212L19.6756 43.2439L20.0127 43.1325C20.1981 43.0713 20.7573 42.9123 21.2554 42.7793C21.7534 42.6462 22.1971 42.5263 22.2414 42.5129C22.3122 42.4914 22.3186 42.4589 22.2942 42.245C22.2789 42.1111 22.232 41.856 22.19 41.6782L22.1136 41.3547L21.9001 41.3651C21.5553 41.3817 20.599 41.6265 19.4256 41.9984C19.0833 42.1069 18.7997 42.1956 18.7954 42.1956C18.7911 42.1956 18.6715 42.0549 18.5297 41.883C17.5537 40.6992 16.3453 38.4534 15.7978 36.8055C15.3008 35.3098 14.9135 33.3922 14.8288 32.0082L14.8005 31.5447L16.6265 31.5448C17.6308 31.5449 18.874 31.5576 19.3891 31.5732L20.3257 31.6015L20.4134 31.8641C20.5243 32.1965 20.6854 32.4391 21.0275 32.789C21.3696 33.1389 21.7239 33.3712 22.0998 33.4923L22.3938 33.587L22.4171 33.8056C22.5447 35.0004 22.5894 35.3767 22.6814 36.0293C22.8192 37.0064 23.04 38.1621 23.1062 38.2527C23.152 38.3154 23.2036 38.2841 23.5466 37.985C23.7602 37.7988 23.9893 37.6007 24.0558 37.545C24.1923 37.4305 24.1932 37.4744 24.0366 36.5911C23.9288 35.983 23.7488 34.5925 23.7096 34.0641C23.69 33.8007 23.6965 33.6429 23.7297 33.5809C23.7568 33.5304 23.9388 33.4068 24.1342 33.3063C24.8129 32.9573 25.3073 32.3199 25.4837 31.5662C25.5699 31.1981 25.5485 30.4303 25.4425 30.0937C25.2684 29.5403 24.6616 28.8729 24.0415 28.5526C23.8254 28.441 23.6486 28.3339 23.6486 28.3146C23.6486 28.1449 23.8033 26.8044 23.8903 26.2192C24.0994 24.8146 24.5399 22.8255 24.8964 21.6763L25.0349 21.2299L25.4737 21.2599C25.715 21.2765 26.417 21.3365 27.0336 21.3934C27.6502 21.4503 28.6156 21.5395 29.1788 21.5915L30.2028 21.6861L30.2893 21.9172C30.4882 22.4488 30.8305 22.8994 31.3062 23.2556C31.6768 23.5331 31.9781 23.6494 32.4561 23.6995C33.3862 23.797 33.9921 23.605 34.6064 23.0182C35.0018 22.6404 35.2109 22.3423 35.3456 21.9643L35.4429 21.6915L37.1027 21.5337C39.6063 21.2957 40.555 21.2244 40.6015 21.2709C40.6672 21.3366 41.0878 22.835 41.2767 23.6759C41.6112 25.1656 41.8908 26.9148 41.9564 27.9281L41.9861 28.3864L41.6895 28.5504C41.2878 28.7725 40.9424 29.0092 40.8033 29.1577C40.6407 29.3314 40.3617 29.8684 40.2314 30.2586C39.9948 30.9672 40.1751 31.8925 40.6802 32.5614C40.869 32.8115 41.2921 33.1482 41.596 33.2904C41.9264 33.445 41.932 33.4542 41.9316 33.8461C41.931 34.3705 41.7263 36.002 41.5414 36.9564C41.4955 37.1936 41.4578 37.4086 41.4577 37.4342C41.4577 37.4598 41.5424 37.5417 41.6461 37.6161C41.7498 37.6906 41.9852 37.8795 42.1693 38.036C42.3748 38.2106 42.5195 38.305 42.544 38.2805C42.6183 38.2061 42.9305 36.3455 43.0952 34.9944C43.214 34.0204 43.2712 33.6486 43.3153 33.5656C43.3358 33.5269 43.4174 33.483 43.4966 33.4681C43.6592 33.4377 44.1664 33.1368 44.4579 32.8979C44.677 32.7184 45.1087 32.0978 45.2221 31.7995L45.2973 31.6015L46.2989 31.5732C46.8498 31.5576 48.1006 31.5449 49.0785 31.5448L50.8564 31.5447L50.8365 31.7279C50.8256 31.8287 50.7956 32.1441 50.7699 32.4287C50.6256 34.0307 50.225 35.8345 49.7023 37.2367C49.1153 38.8112 47.8655 41.0231 46.9685 42.0747L46.8693 42.191L46.1578 41.9759C45.7665 41.8575 45.0314 41.6532 44.5243 41.5218C43.7305 41.3161 43.5939 41.2914 43.5415 41.3438C43.4603 41.4249 43.3051 42.1846 43.3378 42.3401C43.3724 42.5042 43.5437 42.5762 44.4269 42.798C45.2703 43.0098 45.9422 43.2202 45.9422 43.2725C45.9422 43.3284 44.9613 44.2412 44.3899 44.717C44.1171 44.9441 43.5999 45.3477 43.2405 45.614L42.5871 46.0981L42.4771 46.6802C42.4167 47.0004 42.3538 47.3661 42.3375 47.493L42.3078 47.7237L42.4541 47.6491C42.8815 47.431 44.492 46.2853 45.2378 45.6687C45.8118 45.1942 46.9582 44.0563 47.4794 43.4439C48.5083 42.2348 49.2888 41.0616 50.0169 39.6299C51.1084 37.4838 51.7316 35.3813 52.0086 32.9108C52.1129 31.9808 52.1121 29.8682 52.0072 28.979C51.5809 25.3677 50.3903 22.3137 48.3004 19.4708C47.7462 18.7169 47.1856 18.0755 46.3775 17.2713C44.8431 15.7441 43.5293 14.7948 41.5761 13.8022C39.0578 12.5224 36.8387 11.9099 33.9977 11.7106C33.4278 11.6706 32.1378 11.662 31.6044 11.6946ZM33.7281 13.0678C35.5712 13.4174 37.4114 14.9772 38.8656 17.4225C39.487 18.4673 40.1306 19.8232 40.0456 19.9083C39.9454 20.0085 38.4805 20.1809 36.628 20.3106C35.2856 20.4046 35.4617 20.449 35.2204 19.9562C34.7144 18.923 33.7592 18.3749 32.5962 18.4505C32.1188 18.4815 31.7959 18.5892 31.4089 18.8465C30.9957 19.1212 30.6728 19.4942 30.4288 19.9785L30.2246 20.384L29.7071 20.356C28.4832 20.2898 26.0238 20.0588 25.7459 19.984C25.5906 19.9422 25.5812 19.9305 25.6051 19.8108C25.6619 19.5267 26.1344 18.5497 26.649 17.6524C28.137 15.0575 30.1022 13.3692 32.0106 13.0461C32.3653 12.9861 33.364 12.9987 33.7281 13.0678ZM28.1763 13.5979C28.1763 13.617 27.9593 13.8644 27.694 14.1477C26.3725 15.5589 25.4152 17.0496 24.5523 19.0396C24.4032 19.3834 24.2648 19.6864 24.2449 19.7127C24.2052 19.7651 24.1804 19.7625 23.5192 19.637C22.957 19.5302 20.6046 18.9506 20.1234 18.8003C19.9256 18.7384 19.7677 18.665 19.7677 18.6349C19.7677 18.5457 20.0552 18.237 20.6059 17.735C22.6048 15.9128 24.7492 14.6577 27.3354 13.7959C28.0199 13.5679 28.1763 13.531 28.1763 13.5979ZM38.3893 13.818C40.6013 14.5584 42.6555 15.6954 44.3327 17.1079C45.0597 17.7202 45.8991 18.5447 45.8991 18.6466C45.8991 18.7567 42.2346 19.6809 41.5749 19.7372L41.4119 19.751L41.1185 19.0827C40.1892 16.9661 39.2544 15.5136 37.8987 14.0791C37.5275 13.6864 37.4522 13.5632 37.5833 13.5632C37.6078 13.5632 37.9705 13.6778 38.3893 13.818ZM19.6965 19.9869C20.7204 20.2902 21.6291 20.5195 22.7862 20.7666C23.7087 20.9636 23.7933 20.9927 23.7592 21.1012C23.1625 23.0016 22.6793 25.3805 22.4621 27.4875C22.4245 27.853 22.375 28.1869 22.3522 28.2295C22.3294 28.2721 22.1442 28.385 21.9407 28.4804C21.4669 28.7024 21.0612 28.9926 20.8644 29.2502C20.779 29.3619 20.6103 29.6522 20.4894 29.8953L20.2696 30.3373H17.5392H14.8087L14.8094 30.2403C14.8148 29.4766 15.0803 27.7227 15.3757 26.4995C15.8873 24.3811 17.1383 21.7953 18.5403 19.9583C18.6343 19.8352 18.7374 19.7333 18.7694 19.7319C18.8015 19.7306 19.2187 19.8453 19.6965 19.9869ZM47.0071 19.8696C47.2267 20.1007 47.814 20.9366 48.1401 21.4821C48.4992 22.0828 49.2615 23.5773 49.5226 24.1925C49.9184 25.1251 50.3595 26.683 50.5728 27.9018C50.6636 28.4206 50.7068 28.7888 50.8345 30.1325L50.854 30.3373H48.0793H45.3046L45.1888 30.0462C45.022 29.6267 44.8591 29.3926 44.4904 29.0424C44.1789 28.7464 44.0373 28.6621 43.3657 28.3724C43.2348 28.316 43.2256 28.298 43.2256 28.1003C43.2256 27.8796 43.1328 26.943 43.0521 26.3486C42.8759 25.0518 42.573 23.581 42.1667 22.0491C42.0147 21.476 41.8976 21 41.9063 20.9913C41.9151 20.9825 42.3472 20.881 42.8666 20.7656C44.1379 20.4832 45.4041 20.1579 46.1363 19.9256C46.4683 19.8202 46.7701 19.733 46.807 19.7317C46.8438 19.7305 46.9339 19.7926 47.0071 19.8696ZM31.7122 25.7306C31.3528 25.7815 30.521 26.0589 30.1115 26.2645C28.3983 27.1245 27.2302 28.6436 26.8122 30.5552C26.6993 31.0712 26.6981 32.4437 26.8101 32.9677C27.1133 34.3871 27.8566 35.6252 28.9202 36.4825C30.4194 37.6909 32.418 38.1735 34.1917 37.7555C36.2754 37.2644 38.0046 35.6636 38.6965 33.585C38.8883 33.0085 38.9261 32.6255 38.9036 31.4856C38.8841 30.5001 38.8822 30.4831 38.7426 30.057C38.3942 28.9934 37.9112 28.2062 37.1273 27.4249C36.1698 26.4703 35.1257 25.9267 33.9059 25.7475C33.4007 25.6733 32.1827 25.6639 31.7122 25.7306ZM26.5161 37.8863C25.6461 37.9376 25.211 38.0704 24.6156 38.4665C24.0342 38.8534 23.5828 39.4297 23.3387 40.0967C23.0922 40.7703 23.113 41.0212 23.6531 43.896C24.0908 46.2252 24.9775 50.7958 25.0549 51.1217C25.1589 51.559 25.5405 52.2995 25.8765 52.7157C26.2333 53.1578 26.608 53.467 27.1035 53.7284L27.4752 53.9246L32.3643 53.9232C35.0532 53.9225 37.4943 53.9044 37.789 53.883C38.2736 53.8478 38.3537 53.8296 38.6298 53.6928C39.3602 53.3308 40.0692 52.5124 40.4217 51.6243C40.5987 51.1783 41.1068 48.7379 41.846 44.7829C42.3528 42.0721 42.5023 41.125 42.4759 40.7942C42.414 40.0201 41.9754 39.2068 41.3319 38.673C40.981 38.3818 40.3639 38.075 39.9601 37.9909C39.6486 37.9259 38.4049 37.8421 37.7492 37.8419L37.3827 37.8418L36.3967 39.7923C33.6558 45.215 32.8571 46.7673 32.8149 46.754C32.7895 46.746 31.7635 44.7371 30.535 42.2899L28.3013 37.8404L27.689 37.8468C27.3523 37.8504 26.8245 37.8682 26.5161 37.8863ZM32.2035 39.4058C31.2669 40.6262 30.8929 41.1428 30.8929 41.2159C30.8929 41.3457 31.8209 43.3058 32.4346 44.4725C32.7358 45.0449 32.8146 45.1649 32.8593 45.1193C32.8896 45.0884 33.3503 44.2014 33.8833 43.1481L34.8523 41.2331L34.3732 40.604C33.6247 39.6209 32.8784 38.666 32.8404 38.6424C32.8213 38.6307 32.5347 38.9742 32.2035 39.4058Z" fill="#D6B556"/>
<circle cx="32.7523" cy="31.7433" r="5.0375" fill="white"/>
<path d="M24.4138 41.377C24.2882 40.6887 24.6571 40.0054 25.3014 39.7328C26.0056 39.4349 27.5884 39.0638 27.9585 39.7328C28.8539 41.352 32.5861 49.0648 32.5861 49.0648C32.5861 49.0648 36.8337 41.6175 37.7618 39.7328C38.0335 39.181 39.3851 39.2893 39.989 39.4054C40.7208 39.5462 41.2045 40.2476 41.076 40.9816L39.4883 50.0501C39.1865 51.7735 37.69 53.0308 35.9404 53.0308H29.5442C27.8043 53.0308 26.3132 51.7871 26.0009 50.0754L24.4138 41.377Z" fill="white"/>
</svg>
