<svg width="66" height="66" viewBox="0 0 66 66" fill="none" xmlns="http://www.w3.org/2000/svg">
<rect width="65" height="65" transform="translate(0.416748 0.299561)" fill="white"/>
<path fill-rule="evenodd" clip-rule="evenodd" d="M32.0737 11.7979C31.3799 11.9844 31.0007 12.2439 29.8076 13.3492L28.7203 14.3563L25.0938 14.3825C21.5489 14.408 21.4596 14.4127 21.1214 14.5937C20.9311 14.6955 20.6571 14.9136 20.5124 15.0784C20.0227 15.6362 19.9887 15.9156 19.9886 19.3881L19.9886 22.5202L16.7805 25.5088C14.3071 27.8128 13.5282 28.5869 13.3796 28.8886L13.1868 29.2799V40.1377C13.1868 48.9754 13.208 51.078 13.3008 51.439C13.5485 52.4025 14.3478 53.2826 15.3285 53.6716C15.7618 53.8434 15.9806 53.864 17.6831 53.8928L19.5599 53.9246L19.7744 53.7102C20.1293 53.3552 20.0273 52.9011 19.5554 52.7365C19.3959 52.6809 18.6176 52.6424 17.6314 52.6413C16.2103 52.6397 15.9269 52.6176 15.6353 52.4851C15.2014 52.2879 14.7672 51.8537 14.5701 51.4198C14.4232 51.0966 14.4156 50.5608 14.4138 40.4067L14.412 29.7334L15.6241 30.8587C16.2907 31.4775 17.9134 32.9914 19.23 34.223C20.5467 35.4545 22.2569 37.0515 23.0307 37.7718C23.8044 38.4921 25.4946 40.0701 26.7865 41.2784C30.7746 45.0083 30.8933 45.1125 31.4785 45.4017C31.9895 45.6542 32.085 45.6722 32.9149 45.6722C34.399 45.6722 34.1376 45.8641 39.5919 40.7708C42.1711 38.3624 45.1179 35.6111 46.1403 34.657C47.1628 33.703 48.734 32.236 49.6321 31.3969C50.5302 30.5579 51.3001 29.8587 51.3431 29.8433C51.3909 29.826 51.4206 33.9631 51.4195 40.4476C51.4177 50.5621 51.4101 51.0966 51.2633 51.4198C51.0863 51.8095 50.679 52.2442 50.2928 52.4555C50.0454 52.591 49.0512 52.6038 35.8032 52.6432L21.5792 52.6854L21.4177 52.8849C21.1841 53.1734 21.21 53.524 21.4803 53.7367L21.7045 53.913L35.8658 53.8907L50.0272 53.8684L50.5048 53.6753C51.4909 53.2766 52.2853 52.4004 52.5326 51.439C52.6254 51.078 52.6466 48.9754 52.6466 40.1377V29.2799L52.4521 28.885C52.3013 28.579 51.5405 27.8219 49.0722 25.5209L45.8869 22.5518L45.8446 21.0285C45.8037 19.554 45.796 19.5002 45.6029 19.3439C45.3453 19.1356 45.0436 19.1387 44.8307 19.3516C44.6642 19.5181 44.6617 19.6332 44.6617 26.9458V34.371L42.2772 36.5995C39.9704 38.7554 37.2484 41.2982 35.1601 43.248C34.0024 44.329 33.6485 44.5315 32.9167 44.5315C32.1827 44.5315 31.8245 44.3259 30.6665 43.2403C30.1105 42.719 28.8003 41.4939 27.7551 40.5179C26.71 39.542 24.8011 37.7588 23.5132 36.5552L21.1717 34.367V25.3779C21.1717 15.7565 21.1635 15.9488 21.5815 15.725C21.8221 15.5963 44.0112 15.5963 44.2519 15.725C44.5115 15.864 44.6617 16.3249 44.6617 16.983C44.6617 17.4646 44.6937 17.6092 44.8307 17.7462C45.0431 17.9586 45.3453 17.9622 45.6008 17.7554C45.7692 17.619 45.8029 17.5024 45.8302 16.9621C45.8877 15.823 45.5086 15.02 44.7119 14.5937C44.3737 14.4127 44.2844 14.408 40.7395 14.3825L37.113 14.3563L36.0257 13.3492C34.8135 12.2262 34.4555 11.9844 33.7228 11.7936C33.1085 11.6336 32.6808 11.6347 32.0737 11.7979ZM33.8153 13.0923C34.0074 13.1795 34.4257 13.5006 34.7447 13.8058L35.3248 14.3607H32.9167H30.5085L31.0886 13.8058C31.4076 13.5006 31.8259 13.1795 32.018 13.0923C32.4865 12.8795 33.3468 12.8795 33.8153 13.0923ZM31.607 17.1435C29.6733 17.699 28.2713 19.4976 28.2389 21.464C28.2291 22.0578 28.2594 22.2427 28.4135 22.5307C28.7703 23.1976 29.4195 23.5885 30.1705 23.5885C31.2233 23.5885 32.0035 22.8677 32.1329 21.7755C32.2317 20.9402 32.9086 20.598 33.4302 21.1195C33.9017 21.5911 33.7283 22.0522 32.9168 22.4847C32.2615 22.834 31.6235 23.5176 31.2872 24.2305C31.0273 24.7817 31.0169 24.8472 30.9863 26.1036C30.9497 27.6074 31.0124 27.9102 31.4641 28.4111C32.2163 29.2455 33.452 29.3009 34.2578 28.5363C34.7242 28.0938 34.8561 27.7067 34.8582 26.7742L34.8601 25.9584L35.2614 25.7235C36.9979 24.7072 37.9227 22.6702 37.5215 20.7458C37.1573 18.999 35.8068 17.5496 34.1383 17.1151C33.4802 16.9436 32.2545 16.9574 31.607 17.1435ZM34.4012 18.5032C35.1401 18.867 35.6838 19.4119 36.0498 20.1553C36.3236 20.7112 36.3388 20.7894 36.3388 21.6356C36.3388 22.4983 36.3279 22.5511 36.0206 23.1728C35.6714 23.8793 35.1201 24.4494 34.4923 24.7534C33.7894 25.0936 33.725 25.2246 33.6771 26.4117C33.6391 27.3554 33.616 27.478 33.4443 27.6494C33.1534 27.9398 32.6245 27.9137 32.3507 27.5954C32.1453 27.3567 32.1413 27.3255 32.1719 26.2032C32.2004 25.1578 32.2232 25.0167 32.4278 24.625C32.6802 24.1415 33.1386 23.7008 33.5811 23.5159C34.0741 23.3099 34.4179 22.9942 34.6447 22.539C35.5986 20.6248 33.268 18.7884 31.6463 20.1764C31.2159 20.5448 31.0601 20.8485 30.9692 21.4965C30.8835 22.1064 30.6301 22.3935 30.1774 22.3935C29.7304 22.3935 29.4523 22.0546 29.4523 21.5101C29.4523 20.4893 30.0544 19.3978 30.9551 18.7862C31.6895 18.2874 32.1197 18.166 33.052 18.1943C33.7288 18.2148 33.8907 18.2519 34.4012 18.5032ZM19.9887 28.7454V33.2385L19.7986 33.0695C19.6941 32.9766 18.7953 32.1429 17.8014 31.217C16.8074 30.291 15.7998 29.3557 15.5622 29.1385L15.1302 28.7435L15.3837 28.4858C15.9602 27.8995 19.867 24.2625 19.9254 24.2576C19.9602 24.2548 19.9887 26.2742 19.9887 28.7454ZM48.3266 26.4772C49.6104 27.6776 50.6609 28.6868 50.6609 28.7199C50.6609 28.7783 46.4304 32.7576 46.0392 33.0673L45.8446 33.2213V28.7298C45.8446 26.2016 45.8769 24.2506 45.9185 24.2665C45.9591 24.282 47.0428 25.2768 48.3266 26.4772ZM32.3946 30.7075C31.0479 31.0701 30.5215 32.7554 31.4158 33.8405C31.7968 34.3026 32.2655 34.5125 32.9167 34.5125C33.3179 34.5125 33.5604 34.4627 33.8168 34.3279C35.4183 33.4858 35.0948 31.0586 33.3307 30.6802C32.8362 30.5742 32.8962 30.5724 32.3946 30.7075ZM33.4215 32.024C33.8161 32.4186 33.7286 32.9849 33.2318 33.2513L32.9167 33.4203L32.6015 33.2513C31.8739 32.8611 32.1009 31.8571 32.9167 31.8571C33.1405 31.8571 33.311 31.9134 33.4215 32.024ZM41.809 47.3482C41.1167 47.5992 40.524 48.4186 40.5222 49.1268C40.5202 49.8839 40.9626 50.6096 41.65 50.9772C41.9938 51.1611 42.0576 51.1645 45.2109 51.1645C48.1941 51.1645 48.4446 51.1531 48.7445 51.0042C49.7261 50.5167 50.1758 49.3285 49.7411 48.3714C49.5518 47.9547 48.9637 47.4338 48.554 47.3201C48.1086 47.1963 42.1593 47.2211 41.809 47.3482ZM48.4705 48.6653C48.6391 48.8339 48.7175 48.997 48.7175 49.1788C48.7175 49.3607 48.6391 49.5237 48.4705 49.6923L48.2235 49.9393H45.2288C42.3559 49.9393 42.2253 49.9324 42.0179 49.7693C41.8991 49.6757 41.7774 49.4884 41.7476 49.353C41.6811 49.0495 41.8909 48.6091 42.1523 48.5039C42.2544 48.4627 43.6622 48.4266 45.2808 48.4237L48.2235 48.4184L48.4705 48.6653Z" fill="#D6B556"/>
</svg>
