<svg width="101" height="101" viewBox="0 0 101 101" fill="none" xmlns="http://www.w3.org/2000/svg">
<rect width="100" height="100" transform="translate(0.5 0.649902)" fill="#12252D"/>
<path fill-rule="evenodd" clip-rule="evenodd" d="M49.3915 18.2895C48.5579 18.514 48.0716 18.8048 47.3899 19.4866C46.6565 20.22 46.2959 20.9346 46.1445 21.9544C45.9784 23.073 46.3148 24.3557 47.0058 25.2394C47.1599 25.4365 47.1983 25.6639 47.1983 26.3802V27.2749L37.7808 28.8435C27.1295 30.6176 27.81 30.4433 27.2537 31.5403C26.8949 32.2477 26.8842 32.8549 27.2178 33.5715C27.5075 34.1935 27.9604 34.5676 28.6728 34.7734L29.1889 34.9224L29.2173 36.4781L29.2457 38.0336L28.8355 38.9095C28.6098 39.3913 28.3594 39.9403 28.2791 40.1298C28.1987 40.3192 26.687 43.6447 24.9197 47.5198C23.1524 51.395 21.7064 54.5852 21.7064 54.6092C21.7064 54.6334 21.525 55.0388 21.3032 55.5105C21.0815 55.982 20.2455 57.8053 19.4455 59.5622C17.9068 62.9412 17.8823 63.0237 18.1055 64.0643C18.7765 67.1934 22.2224 69.6839 27.0495 70.5283C28.4992 70.782 31.991 70.7805 33.5042 70.5255C38.2089 69.733 41.6675 67.2731 42.4023 64.1967C42.6884 62.999 42.7134 63.0796 40.639 58.5164C39.5858 56.1995 38.6269 54.0948 38.5081 53.8394C38.3893 53.584 38.0964 52.9338 37.8573 52.3945C37.6182 51.8552 37.3025 51.1586 37.1557 50.8464C37.009 50.5342 35.6325 47.5169 34.0968 44.1413L31.3046 38.0039V36.4267V34.8495H39.2514H47.1983V46.2935V57.7375L46.945 57.9034C46.8058 57.9947 46.562 58.2903 46.4032 58.5603L46.1146 59.0513L46.0865 67.1053L46.0582 75.1593L43.7643 75.8666C40.0681 77.0065 39.2212 77.2833 38.8386 77.4765C38.2837 77.7568 37.7027 78.3802 37.4052 79.0147C37.154 79.5504 37.1357 79.6895 37.1357 81.0681V82.547L37.4728 82.8484L37.8099 83.1499H50.5009H63.1919L63.529 82.849L63.8661 82.5481L63.9005 81.3051C63.9265 80.3644 63.8926 79.9169 63.7612 79.4645C63.4143 78.2702 62.5733 77.4937 61.1953 77.0953C60.9046 77.0113 59.9236 76.709 59.0154 76.4237C58.1072 76.1383 56.9229 75.767 56.3836 75.5984C55.8444 75.4299 55.2987 75.2498 55.171 75.1981L54.9388 75.1043V67.3041C54.9388 61.8517 54.9037 59.3646 54.8222 59.0412C54.7443 58.7318 54.5562 58.4245 54.2546 58.1143L53.8035 57.6501V46.2498V34.8495H61.7504H69.6972V36.4269V38.0042L66.6501 44.7092C64.9742 48.3968 63.5375 51.5534 63.4574 51.7237C63.3773 51.894 63.196 52.2887 63.0545 52.6009C62.913 52.9131 61.8186 55.3215 60.6225 57.9529C58.2652 63.1389 58.2854 63.0767 58.5878 64.2121C59.2793 66.8085 61.6086 68.8295 65.2594 70.0011C68.3444 70.9911 72.8796 71.0044 76.096 70.033C79.7334 68.9346 82.3601 66.634 82.8961 64.0775C83.1212 63.0038 83.1156 62.9857 81.2506 58.891C79.3419 54.7001 79.331 54.6761 78.9547 53.8394C78.8143 53.5272 77.15 49.8814 75.2562 45.7377L71.813 38.2037L71.7804 36.5459L71.7479 34.888L72.2903 34.7628C73.0065 34.5974 73.4832 34.2172 73.784 33.5715C74.0872 32.9202 74.0986 32.2715 73.8175 31.6519C73.5518 31.0661 73.3579 30.8535 72.8555 30.5972C72.4706 30.4007 71.5446 30.2365 63.9177 29.0115C62.6973 28.8155 59.9224 28.3676 57.7511 28.0162L53.8035 27.3771V26.4314C53.8035 25.6652 53.84 25.4388 53.996 25.2394C54.9826 23.9777 55.1709 22.0869 54.4549 20.6299C54.1138 19.9359 53.1997 18.97 52.5893 18.6585C51.5934 18.1504 50.4136 18.0143 49.3915 18.2895ZM51.4823 20.4899C53.0873 21.219 53.2232 23.5074 51.7203 24.5021C51.3449 24.7507 51.1897 24.7869 50.5014 24.7869C49.8132 24.7869 49.6577 24.7505 49.282 24.5021C48.6469 24.0823 48.303 23.5027 48.2495 22.7615C48.1761 21.748 48.6244 20.9393 49.5204 20.4684C49.9492 20.2431 50.9635 20.2542 51.4823 20.4899ZM50.9653 26.94C51.3059 26.9015 51.6073 26.8658 51.635 26.8606C51.7093 26.8465 51.7052 57.2366 51.631 57.3569C51.5938 57.4171 51.1074 57.4468 50.4441 57.4295L49.3204 57.4L49.3008 43.4156C49.2901 35.7241 49.3065 28.8462 49.3372 28.1312L49.393 26.8312L49.8696 26.9205C50.1316 26.9696 50.6248 26.9784 50.9653 26.94ZM47.1983 31.0824V32.6821H38.0941C30.4479 32.6821 29.014 32.6599 29.141 32.5429C29.224 32.4663 30.0584 32.2775 30.995 32.1234C31.9316 31.9692 33.2087 31.7535 33.8331 31.644C34.7694 31.4798 38.9824 30.7753 45.547 29.6851C46.143 29.5862 46.7584 29.5001 46.9145 29.4939L47.1983 29.4828V31.0824ZM57.4469 30.1088C59.2178 30.3963 61.224 30.7193 61.9052 30.8264C62.5863 30.9335 64.7459 31.2822 66.7043 31.6011C68.6626 31.9201 70.6094 32.2357 71.0304 32.3026C71.455 32.3699 71.8151 32.4816 71.839 32.5531C71.873 32.6557 70.028 32.6821 62.8426 32.6821H53.8035V31.1341C53.8035 29.6417 53.8111 29.586 54.0153 29.586C54.1317 29.586 55.676 29.8212 57.4469 30.1088ZM31.5851 43.6994C32.2752 45.2178 32.9936 46.8054 33.1817 47.2273C33.3696 47.6492 34.9433 51.1092 36.6786 54.9161L39.8338 61.8379L38.8454 61.8945C37.1462 61.9918 20.7242 61.9333 20.7469 61.83C20.7584 61.7776 21.9103 59.2267 23.3067 56.1615C24.7032 53.0963 25.9507 50.3562 26.0789 50.0724C28.6344 44.4178 30.232 40.9417 30.2757 40.9404C30.3059 40.9394 30.8951 42.181 31.5851 43.6994ZM72.9931 45.8169C74.2098 48.498 75.3101 50.9238 75.4383 51.2076C75.5665 51.4914 76.7104 54.0058 77.9803 56.7949L80.2895 61.8661L79.5086 61.9191C78.0484 62.0183 61.1818 61.9408 61.2003 61.8351C61.21 61.7799 62.433 59.0642 63.9182 55.8003C65.4034 52.5364 66.7022 49.6802 66.8045 49.4531C66.9066 49.2261 67.1495 48.692 67.3442 48.2663C67.539 47.8405 68.3662 46.0176 69.1824 44.2154C69.9988 42.4132 70.6924 40.9395 70.7238 40.9404C70.7552 40.9414 71.7764 43.1359 72.9931 45.8169ZM52.7714 67.2046V74.8934H50.5009H48.2304V67.2046V59.5157H50.5009H52.7714V67.2046ZM40.1803 64.1651C40.1803 64.5638 39.3049 65.649 38.4663 66.2901C35.5566 68.514 30.1712 69.2842 25.9035 68.0867C23.7811 67.4911 22.1307 66.5526 21.0886 65.3485C20.6691 64.8638 20.3647 64.3663 20.3647 64.1651C20.3647 64.0902 23.4237 64.0568 30.2725 64.0568C37.1214 64.0568 40.1803 64.0902 40.1803 64.1651ZM80.6371 64.1914C80.6371 64.4729 80.0255 65.2715 79.3093 65.9251C76.0831 68.8697 69.0276 69.548 64.3629 67.3621C63.2248 66.8287 62.429 66.2904 61.7676 65.6064C61.2558 65.0772 60.8215 64.415 60.8215 64.1641C60.8215 64.0905 63.9399 64.0568 70.7293 64.0568C78.8064 64.0568 80.6371 64.0817 80.6371 64.1914ZM57.2865 78.092C59.2801 78.7159 61.0228 79.2772 61.159 79.3392C61.5845 79.5332 61.8313 80.1871 61.7604 80.9329C61.7537 81.0036 58.0577 81.0369 50.4751 81.0346L39.1998 81.0311L39.168 80.8084C39.1147 80.437 39.3371 79.7965 39.6077 79.5423C39.7881 79.3729 40.9467 78.96 43.5565 78.1353L47.2499 76.9681L50.4558 76.9628L53.6618 76.9575L57.2865 78.092Z" fill="url(#paint0_linear_453_7246)" stroke="url(#paint1_linear_453_7246)"/>
<defs>
<linearGradient id="paint0_linear_453_7246" x1="7.01913" y1="5.39289" x2="101.096" y2="62.8882" gradientUnits="userSpaceOnUse">
<stop stop-color="#B98300"/>
<stop offset="0.546875" stop-color="#FFF5A4"/>
<stop offset="0.9999" stop-color="#FFFADF"/>
<stop offset="1" stop-color="#785500"/>
</linearGradient>
<linearGradient id="paint1_linear_453_7246" x1="7.01913" y1="5.39289" x2="101.096" y2="62.8882" gradientUnits="userSpaceOnUse">
<stop stop-color="#B98300"/>
<stop offset="0.546875" stop-color="#FFF5A4"/>
<stop offset="0.9999" stop-color="#FFFADF"/>
<stop offset="1" stop-color="#785500"/>
</linearGradient>
</defs>
</svg>
