<svg width="101" height="101" viewBox="0 0 101 101" fill="none" xmlns="http://www.w3.org/2000/svg">
<rect width="100" height="100" transform="translate(0.166748 0.649902)" fill="#12252D"/>
<path fill-rule="evenodd" clip-rule="evenodd" d="M43.5885 18.3281C42.3456 18.9405 42.356 20.6844 43.6061 21.2775C43.9209 21.4269 44.4177 21.4524 47.0222 21.4524H50.0699V24.4802V27.5079L49.6703 27.5662C49.4505 27.5982 48.9589 27.6539 48.578 27.6899C47.45 27.7965 45.6328 28.1557 44.2087 28.5535C39.9232 29.7509 35.825 32.0719 32.7316 35.0539C31.938 35.8189 31.7379 36.0748 31.6808 36.3983C31.5328 37.2358 31.8778 37.9669 32.5542 38.2495C33.389 38.5983 33.9776 38.3809 35.1391 37.2947C36.0732 36.4211 37.6185 35.2411 38.6809 34.5899C39.8322 33.8842 40.4913 33.4944 40.533 33.4944C40.5549 33.4944 40.9897 33.2982 41.4992 33.0584C44.5046 31.6437 47.5464 30.9516 51.1618 30.8598C53.5801 30.7985 54.8751 30.9213 57.1936 31.4319C67.0097 33.5934 74.5832 41.8351 76.0303 51.9303C76.2707 53.6073 76.269 56.9877 76.0269 58.6906C74.7258 67.8429 68.5333 75.4181 59.874 78.4502C57.1174 79.4155 54.8712 79.7859 51.7749 79.7859C49.3448 79.7859 48.2274 79.6623 46.0502 79.1526C42.0463 78.2152 38.1206 76.1256 35.0645 73.3048C34.0925 72.4077 33.866 72.2845 33.188 72.2845C32.0646 72.2845 31.3273 73.4757 31.7801 74.5595C31.9303 74.9189 33.1381 76.0806 34.4579 77.135C36.3901 78.6786 39.5067 80.4659 41.7044 81.2906C45.6965 82.7887 50.1583 83.4168 54.1727 83.0457C59.5448 82.5491 64.3893 80.6429 68.8786 77.2591C69.9724 76.4347 72.7312 73.6733 73.6477 72.4854C76.0227 69.4074 77.8225 65.7295 78.7264 62.1074C79.3134 59.7552 79.6509 56.5356 79.5356 54.3895C79.451 52.8176 79.1973 50.4956 79.0573 50.0127C78.9978 49.8079 78.898 49.3576 78.8353 49.0121C78.6816 48.1647 78.0819 46.2624 77.5379 44.897C76.573 42.4756 74.9145 39.6589 73.3497 37.7842C72.9714 37.3311 72.6619 36.9112 72.6619 36.8512C72.6619 36.7912 73.4279 35.9773 74.3642 35.0424L76.0665 33.3425L77.1086 34.3663C77.8909 35.135 78.2569 35.4185 78.5767 35.5038C79.5615 35.7665 80.5002 35.1539 80.6164 34.1729C80.6621 33.7865 80.631 33.5305 80.5062 33.2676C80.4106 33.066 78.9302 31.5039 77.2165 29.7963C73.8471 26.4391 73.7313 26.3535 72.7935 26.5245C72.2745 26.6193 71.6509 27.2553 71.5663 27.7765C71.4494 28.4972 71.6589 28.896 72.7247 29.9814L73.7225 30.9975L71.9735 32.7442L70.2245 34.4907L69.232 33.6908C65.4263 30.6239 61.1391 28.6913 56.4106 27.9113C55.5314 27.7662 54.4883 27.6166 54.0928 27.5787L53.3734 27.5097V24.4855V21.4612L56.5998 21.4301C59.7922 21.3994 59.8297 21.3964 60.1408 21.1516C60.644 20.7556 60.8317 20.3884 60.8317 19.8006C60.8317 19.1605 60.589 18.7441 60.0129 18.3953L59.6076 18.1499L51.7749 18.1518C44.7404 18.1535 43.9063 18.1714 43.5885 18.3281ZM50.9159 34.8417C50.7659 34.9349 50.5261 35.1819 50.3831 35.3905C50.1292 35.761 50.1232 35.8189 50.1232 37.8641V39.9583L50.4103 40.3345C51.1454 41.2983 52.4541 41.2701 53.1355 40.2757C53.3616 39.9457 53.3734 39.8258 53.3734 37.8551C53.3734 35.8128 53.3694 35.7757 53.1039 35.3852C52.9558 35.167 52.6944 34.9162 52.5232 34.8276C52.1188 34.6185 51.2632 34.6261 50.9159 34.8417ZM63.8169 41.1817C63.5313 41.265 62.3933 42.3384 58.96 45.7632L54.4759 50.2361L53.6441 49.9569C53.1866 49.8033 52.493 49.6509 52.1027 49.6182C50.4984 49.4837 48.5863 50.256 47.5177 51.47C45.4611 53.8063 45.5475 57.195 47.7192 59.3667C48.8321 60.4796 50.1911 61.0357 51.7749 61.0264C53.3231 61.0173 54.5398 60.5419 55.6346 59.5177C57.3675 57.8968 57.9397 55.3708 57.0647 53.2044L56.8163 52.5893L61.2294 48.1837C63.6566 45.7606 65.7153 43.6408 65.8043 43.4731C66.0242 43.0583 66.0083 42.3143 65.7706 41.9106C65.4003 41.2815 64.5562 40.9666 63.8169 41.1817ZM20.5962 43.3005C19.994 43.5986 19.6568 44.2122 19.7221 44.891C19.7791 45.485 20.029 45.8634 20.5655 46.1685C20.9477 46.3858 21.0628 46.3889 28.8616 46.3889C37.6632 46.3889 37.2125 46.4256 37.7941 45.6629C38.2034 45.1262 38.1986 44.3578 37.7826 43.814C37.2047 43.0586 37.5329 43.0853 28.8344 43.0854C21.2223 43.0856 21.0199 43.0908 20.5962 43.3005ZM52.811 53.1611C54.4635 53.9845 54.6463 56.2919 53.1394 57.3089C52.61 57.6664 52.0219 57.825 51.4949 57.7528C49.8827 57.5319 48.9482 56.0061 49.4879 54.4762C49.7002 53.8744 50.0996 53.4568 50.7626 53.1434C51.471 52.8085 52.1147 52.8141 52.811 53.1611ZM24.8268 53.7405C23.3526 54.0954 23.0846 56.1284 24.428 56.766C24.7543 56.9207 25.6287 56.9389 32.7466 56.9389C40.3459 56.9389 40.7182 56.9299 41.0968 56.7368C41.5591 56.501 41.9709 55.8432 41.9709 55.3405C41.9709 54.8665 41.5745 54.2044 41.1224 53.9232L40.7453 53.6887L32.966 53.6713C28.6874 53.6617 25.0247 53.6928 24.8268 53.7405ZM67.3629 53.7337C66.5654 53.9353 66.0559 54.5529 66.0553 55.3191C66.0547 55.9114 66.2794 56.3338 66.7734 56.6694C67.164 56.9348 67.2015 56.9389 69.2373 56.9389C71.1357 56.9389 71.3336 56.921 71.6583 56.7205C72.4563 56.2272 72.6903 55.2125 72.1793 54.4605C71.7129 53.7741 71.4516 53.6981 69.4649 53.6709C68.4979 53.6577 67.552 53.6859 67.3629 53.7337ZM20.5088 64.5335C19.3631 65.1904 19.4455 66.7446 20.6585 67.3581L21.1372 67.6003L29.0231 67.5713L36.909 67.5423L37.286 67.3077C38.1381 66.7778 38.3505 65.7474 37.7655 64.9807C37.2112 64.2538 37.7032 64.2918 28.8952 64.2937L20.924 64.2955L20.5088 64.5335ZM62.2206 65.1181C61.5075 65.4763 61.1634 66.4139 61.4604 67.189C61.5834 67.5101 64.3282 70.2548 64.6497 70.3781C65.5935 70.7403 66.6708 70.1551 66.8536 69.1807C66.9996 68.4021 66.8001 68.0688 65.2848 66.5619C64.5067 65.7881 63.7352 65.1048 63.5702 65.0433C63.1309 64.8795 62.6415 64.9066 62.2206 65.1181ZM50.9639 69.8233C50.7814 69.9345 50.5177 70.1861 50.3778 70.3824C50.1301 70.7296 50.1232 70.7962 50.1232 72.8362C50.1232 74.7968 50.1377 74.9526 50.3461 75.2339C51.1203 76.2787 52.506 76.2738 53.155 75.2238C53.3555 74.8991 53.3734 74.7012 53.3734 72.8028C53.3734 70.787 53.3669 70.726 53.1135 70.353C52.6404 69.6567 51.641 69.4104 50.9639 69.8233Z" fill="url(#paint0_linear_453_7251)"/>
<defs>
<linearGradient id="paint0_linear_453_7251" x1="9.39742" y1="5.39289" x2="100.604" y2="57.658" gradientUnits="userSpaceOnUse">
<stop stop-color="#B98300"/>
<stop offset="0.546875" stop-color="#FFF5A4"/>
<stop offset="0.9999" stop-color="#FFFADF"/>
<stop offset="1" stop-color="#785500"/>
</linearGradient>
</defs>
</svg>
