<svg width="101" height="101" viewBox="0 0 101 101" fill="none" xmlns="http://www.w3.org/2000/svg">
<rect width="100" height="100" transform="translate(0.833252 0.649902)" fill="#12252D"/>
<path fill-rule="evenodd" clip-rule="evenodd" d="M48.4634 18.2628C41.5626 18.9295 35.9995 23.8867 34.5036 30.702C34.2095 32.0416 34.1517 34.9081 34.3894 36.3589C35.2876 41.8386 39.0314 46.4726 44.1772 48.4737C45.3823 48.9424 47.3956 49.445 48.0677 49.445C48.8427 49.445 48.7965 49.1607 48.7965 53.9393C48.7965 56.3313 48.7729 58.2884 48.7441 58.2884C48.7152 58.2884 48.2714 57.8701 47.7582 57.3587C46.6705 56.2754 45.5321 55.3414 44.2062 54.4447L43.2607 53.8053L42.939 52.8501C41.3968 48.2718 37.5366 44.9247 32.7407 44.0072C31.6563 43.7997 29.2018 43.7715 28.1739 43.9546C26.1722 44.3113 23.8141 45.2933 23.4998 45.901C23.2821 46.3221 23.4116 47.1665 23.9047 48.5399C25.6123 53.2959 29.67 56.6049 34.6955 57.3397C35.301 57.4282 36.254 57.4587 37.1341 57.4177C39.012 57.3301 40.3494 56.9944 42.5354 56.0618C42.8808 55.9145 46.773 59.2903 47.5483 60.4097L47.7345 60.6786H41.4478C34.7276 60.6786 34.6528 60.6848 34.34 61.2695C34.2661 61.4074 34.2169 62.5623 34.2169 64.1557V66.8119L34.9638 67.4785C36.8588 69.1697 38.0948 70.8083 38.7428 72.4886C39.4518 74.3272 39.8211 77.3028 39.8308 81.2567C39.8334 82.3068 39.8606 82.4466 40.122 82.7505L40.4104 83.0858L49.809 83.1179L59.2076 83.1499L59.5591 82.7984C59.8998 82.4576 59.9107 82.4111 59.9134 81.2726C59.919 78.9602 60.1414 75.8735 60.3905 74.6511C60.9789 71.7638 62.183 69.7966 64.7804 67.4785L65.5273 66.8119V64.1557C65.5273 62.5623 65.4781 61.4074 65.4042 61.2695C65.0892 60.6808 65.0593 60.6786 57.7654 60.6786H50.9476V59.3644V58.0502L51.3958 57.5515C52.5135 56.3079 55.342 54.2256 57.0607 53.3811L57.8557 52.9904L58.4377 53.3639C59.4254 53.9976 61.0616 54.7054 62.2761 55.0242C63.8317 55.4325 66.2865 55.5322 67.8972 55.2523C72.0725 54.5266 75.6563 51.8177 77.5553 47.9516C78.5453 45.9362 78.5242 45.5758 77.3707 44.793C73.5429 42.1958 68.4185 41.7894 64.2712 43.7539C61.5248 45.055 59.3317 47.1477 58.0164 49.7224L57.539 50.6571L56.0657 51.398C54.4899 52.1907 53.2854 52.9628 51.9554 54.0333C51.4998 54.4002 51.0866 54.7009 51.0373 54.7017C50.9879 54.7026 50.9476 53.5528 50.9476 52.1467C50.9476 49.3454 50.9206 49.445 51.6795 49.445C52.2568 49.445 53.7995 49.0962 54.9511 48.7053C60.3965 46.8567 64.4072 42.0799 65.355 36.314C65.5965 34.8446 65.5438 32.0871 65.2484 30.7424C64.5556 27.5877 63.1334 24.9828 60.8983 22.775C58.1551 20.0652 55.0447 18.6275 51.1269 18.2586C50.4039 18.1905 49.7317 18.1421 49.6331 18.1509C49.5345 18.1599 49.0081 18.2102 48.4634 18.2628ZM53.1076 20.7994C54.6858 21.211 55.9211 21.7479 57.1575 22.5597C59.9483 24.3922 61.9706 27.1645 62.865 30.3839C63.1749 31.4992 63.1968 31.7305 63.1953 33.8496C63.1936 35.9409 63.1684 36.2106 62.8747 37.2657C61.586 41.8955 58.0674 45.4659 53.517 46.7611C46.8258 48.6656 39.7343 45.061 37.2647 38.4999C36.5277 36.5421 36.2628 33.4315 36.6573 31.3698C37.5905 26.4924 41.2153 22.4255 45.8967 21.004C47.4768 20.5242 48.3921 20.4085 50.2306 20.4562C51.5862 20.4913 52.2125 20.566 53.1076 20.7994ZM48.7706 24.6178L48.7368 25.9622L48.0156 26.0313C46.5486 26.1718 45.2213 27.0771 44.4812 28.4417C44.0939 29.1561 44.0761 29.2439 44.0761 30.4436C44.0761 31.5539 44.1129 31.777 44.3952 32.3792C45.0361 33.7465 46.4888 34.7656 48.0329 34.931L48.7965 35.0127V37.2096V39.4066H48.3563C47.7885 39.4066 46.9648 39.006 46.6852 38.594C46.5648 38.4165 46.3798 38.0293 46.2743 37.7335L46.0822 37.1957L45.0278 37.2271C44.4479 37.2445 43.9616 37.2714 43.9471 37.2869C43.9327 37.3024 43.9646 37.588 44.0179 37.9215C44.3315 39.8837 46.0075 41.4513 47.9899 41.6364L48.7965 41.7117V43.0688V44.4258H49.8721H50.9476V43.0681V41.7104L51.6348 41.646C53.2068 41.4985 54.5209 40.6345 55.2523 39.2671C55.6081 38.6021 55.663 38.3798 55.704 37.4347C55.7567 36.2183 55.5292 35.4064 54.8876 34.5207C54.1709 33.5313 52.5993 32.7143 51.4131 32.7143H50.9476V30.5162C50.9476 28.7816 50.9817 28.3051 51.109 28.2562C51.1976 28.2222 51.5258 28.2488 51.8382 28.3155C52.5857 28.4749 53.2796 29.1505 53.4691 29.9036L53.6051 30.4436H54.7277H55.8502L55.7724 29.9357C55.4516 27.8418 53.7799 26.2293 51.7244 26.0313L51.0074 25.9622L50.9736 24.6178L50.9398 23.2733H49.8721H48.8044L48.7706 24.6178ZM48.7965 30.5162V32.7143L48.4081 32.7116C47.0432 32.7024 45.9334 31.2795 46.2764 29.9782C46.53 29.0159 47.1152 28.4688 48.0795 28.293C48.8111 28.1597 48.7965 28.1146 48.7965 30.5162ZM52.3456 35.2353C52.9186 35.5127 53.4225 36.2318 53.5366 36.9347C53.7273 38.1104 52.5912 39.4066 51.3697 39.4066H50.9476V37.1957V34.9849H51.3879C51.6301 34.9849 52.0611 35.0975 52.3456 35.2353ZM71.8092 44.9099C73.1327 45.1443 75.5089 46.0753 75.7406 46.4503C75.9379 46.7694 74.5235 48.9018 73.3781 50.012C71.1951 52.1279 68.6929 53.1497 65.6937 53.1497C63.6482 53.1497 61.7279 52.6717 60.2172 51.7863L59.6729 51.4673L60.027 50.7658C61.5191 47.8098 64.2874 45.7074 67.6784 44.9547C68.5083 44.7705 70.8771 44.7448 71.8092 44.9099ZM31.6475 46.1087C34.9396 46.5024 37.8455 48.3271 39.6967 51.1627C40.2555 52.0188 41.0287 53.7538 41.0287 54.1519C41.0287 54.2625 40.6939 54.4336 40.1025 54.6252C38.6909 55.0827 38.0407 55.1813 36.4372 55.1813C33.2885 55.1813 30.6503 54.0459 28.4857 51.7591C27.4552 50.6706 26.8525 49.7591 26.2492 48.3774C25.7192 47.1634 25.7295 47.0132 26.3594 46.7793C27.2646 46.4432 28.2385 46.1993 29.0554 46.104C30.2312 45.9669 30.4656 45.9673 31.6475 46.1087ZM63.2781 64.0352C63.2993 64.6325 63.2941 65.1434 63.2666 65.1705C63.2016 65.2349 36.5426 65.2349 36.4776 65.1705C36.4502 65.1434 36.4449 64.6325 36.4661 64.0352L36.5044 62.9492H49.8721H63.2397L63.2781 64.0352ZM61.3734 67.6398C60.7274 68.4439 59.9716 69.5279 59.6254 70.147C58.3759 72.3814 57.7595 75.3427 57.7595 79.1116V80.875H49.8891H42.0185L41.9514 78.3953C41.8601 75.0301 41.4891 73.0764 40.5446 70.9858C40.2085 70.2422 39.1761 68.619 38.5683 67.8788L38.2495 67.4904H49.8714C59.1534 67.4904 61.4693 67.5205 61.3734 67.6398Z" fill="url(#paint0_linear_453_7256)" stroke="url(#paint1_linear_453_7256)"/>
<defs>
<linearGradient id="paint0_linear_453_7256" x1="14.124" y1="5.39289" x2="100.278" y2="49.8464" gradientUnits="userSpaceOnUse">
<stop stop-color="#B98300"/>
<stop offset="0.546875" stop-color="#FFF5A4"/>
<stop offset="0.9999" stop-color="#FFFADF"/>
<stop offset="1" stop-color="#785500"/>
</linearGradient>
<linearGradient id="paint1_linear_453_7256" x1="14.124" y1="5.39289" x2="100.278" y2="49.8464" gradientUnits="userSpaceOnUse">
<stop stop-color="#B98300"/>
<stop offset="0.546875" stop-color="#FFF5A4"/>
<stop offset="0.9999" stop-color="#FFFADF"/>
<stop offset="1" stop-color="#785500"/>
</linearGradient>
</defs>
</svg>
