<svg width="101" height="101" viewBox="0 0 101 101" fill="none" xmlns="http://www.w3.org/2000/svg">
<rect width="100" height="100" transform="translate(0.5 0.649902)" fill="#12252D"/>
<path fill-rule="evenodd" clip-rule="evenodd" d="M27.7772 18.2885C27.4596 18.4363 27.1925 18.7087 27.0637 19.0161C26.9451 19.2991 26.9451 75.0858 27.0637 75.3688C27.1811 75.6491 27.4385 75.9295 27.7134 76.0765L27.9563 76.2064L38.5309 76.2359L49.1056 76.2653L49.135 79.2451L49.1645 82.2249L49.3412 82.5084C49.6924 83.072 50.4948 83.3149 51.0649 83.0303C51.226 82.9499 56.6211 78.689 57.3241 78.087C57.3996 78.0223 57.8686 78.3753 60.4739 80.4573C62.1576 81.8027 63.6395 82.9568 63.7671 83.0219C64.0457 83.1641 64.5691 83.1798 64.867 83.055C65.1756 82.9257 65.425 82.6886 65.5795 82.3778L65.7187 82.0976L65.736 79.1667L65.7532 76.2359H69.2933C71.8362 76.2359 72.8985 76.2164 73.0645 76.1666C73.3967 76.0671 73.7893 75.6986 73.9176 75.3659C74.0213 75.0974 74.0252 74.0583 74.0252 47.1925C74.0252 20.3266 74.0213 19.2875 73.9176 19.019C73.7904 18.6893 73.3744 18.2962 73.0604 18.2089C72.919 18.1696 65.2979 18.1498 50.4605 18.1499L28.0741 18.1502L27.7772 18.2885ZM71.2858 47.1925V73.467H68.517H65.7481V70.6052V67.7434L65.9518 67.32C66.4205 66.3455 66.4585 65.3937 66.0689 64.3865L65.9632 64.1132L66.238 63.799C66.7314 63.235 67.1031 62.2507 67.1031 61.508C67.1031 61.0895 66.9252 60.3749 66.7072 59.9174C66.4548 59.3878 65.7816 58.6785 65.2768 58.4104L64.9528 58.2384L64.9164 57.5904C64.8921 57.1588 64.8386 56.8278 64.7561 56.5995C64.3442 55.4589 63.2929 54.5368 62.125 54.2915C61.6206 54.1857 61.303 54.1839 60.7848 54.2842L60.3871 54.3612L60.229 54.154C59.5437 53.2555 58.5544 52.7701 57.4121 52.7719C56.3712 52.7736 55.6781 53.0711 54.9084 53.8468L54.4076 54.3515L54.0247 54.2799C53.2605 54.1373 52.6079 54.2312 51.8582 54.5918C51.5119 54.7583 51.2984 54.9188 50.9342 55.2863C50.2105 56.0164 49.901 56.7497 49.9008 57.7353L49.9006 58.2384L49.562 58.4125C49.0814 58.6595 48.384 59.3746 48.1474 59.8627C47.8744 60.4261 47.7589 60.9252 47.76 61.5374C47.7616 62.37 48.0816 63.2266 48.6191 63.8373L48.8546 64.1047L48.6937 64.5884C48.3753 65.5458 48.4521 66.4716 48.9271 67.4038L49.135 67.8116V70.6393V73.467H39.4441H29.7531V47.1925V20.9179H50.5195H71.2858V47.1925ZM36.6458 29.195V30.5794H49.1056H61.5654V29.195V27.8105H49.1056H36.6458V29.195ZM36.6458 37.5015V38.8859H50.49H64.3342V37.5015V36.1171H50.49H36.6458V37.5015ZM36.6458 45.8079V47.1925H47.0447H57.4438L57.4279 45.8228L57.4121 44.4531L47.0289 44.4382L36.6458 44.4233V45.8079ZM36.6458 54.1146V55.499H40.799H44.9523V54.1146V52.7301H40.799H36.6458V54.1146ZM57.8307 55.622C57.8765 55.66 58.0578 55.8822 58.2336 56.1158C58.4094 56.3494 58.6531 56.6282 58.775 56.7352C59.3018 57.1977 59.9823 57.3095 60.9331 57.0897C61.5543 56.9462 61.7109 56.9589 61.9603 57.1731L62.125 57.3147L62.1566 58.2773C62.1861 59.181 62.198 59.2589 62.35 59.5512C62.582 59.9971 62.8827 60.2695 63.5283 60.6185C64.1888 60.9757 64.3342 61.1299 64.3342 61.4733C64.3342 61.7568 64.2654 61.8705 63.7759 62.3949C62.9932 63.2334 62.8827 63.9565 63.3633 65.0958C63.6013 65.6603 63.6288 66.0104 63.4526 66.2345C63.2983 66.4305 63.1108 66.4959 62.4785 66.5737C61.3532 66.7124 60.726 67.2275 60.4113 68.2715C60.2012 68.9681 60.121 69.1243 59.9091 69.2495C59.6458 69.405 59.3901 69.3408 58.8428 68.9815C58.2813 68.6128 57.8793 68.4641 57.4376 68.4615C56.9573 68.4587 56.593 68.5896 55.9713 68.9882C55.3066 69.4144 55.1265 69.44 54.8227 69.1518C54.6619 68.9993 54.5844 68.8398 54.4417 68.3682C54.2315 67.6734 54.0058 67.3051 53.6143 67.0177C53.2513 66.7512 52.9668 66.6527 52.3291 66.5728C51.7127 66.4956 51.5248 66.4292 51.3717 66.2345C51.1944 66.0091 51.2232 65.669 51.4672 65.1059C51.7629 64.4236 51.8261 63.9943 51.7023 63.5108C51.5993 63.109 51.3598 62.6846 51.1018 62.4472C51.0158 62.368 50.8431 62.175 50.7178 62.0182C50.5333 61.7873 50.49 61.6851 50.49 61.4812C50.49 61.1279 50.6378 60.9696 51.2741 60.6418C51.8894 60.3247 52.2808 59.9694 52.4936 59.5344C52.6234 59.2693 52.6409 59.1435 52.6685 58.2773L52.6992 57.3147L52.864 57.1731C53.1176 56.9552 53.2818 56.942 53.9068 57.0896C54.335 57.1907 54.5834 57.217 54.8973 57.1945C55.6322 57.142 56.0265 56.8718 56.7477 55.9266C56.9458 55.667 57.0813 55.5474 57.2189 55.5108C57.422 55.4568 57.6905 55.5056 57.8307 55.622ZM52.8122 71.0274C53.4872 71.7029 54.34 72.0532 55.3099 72.0532C56.022 72.0532 56.8001 71.8151 57.2899 71.4473C57.3921 71.3706 57.4356 71.3818 57.7317 71.5614C58.2556 71.8791 58.8859 72.0532 59.5127 72.0532C60.1562 72.0532 60.6324 71.9386 61.1782 71.6524C61.8937 71.2773 62.6306 70.4706 62.8125 69.8632C62.8497 69.7392 62.9024 69.6378 62.9297 69.6378C62.9569 69.6378 62.9793 71.7056 62.9793 74.2329C62.9793 76.9266 62.9572 78.828 62.9261 78.828C62.8969 78.828 61.8298 77.9932 60.5549 76.9729C59.28 75.9526 58.1291 75.0646 57.9973 74.9994C57.7135 74.8589 57.1797 74.8411 56.8896 74.9623C56.7826 75.007 55.6303 75.8951 54.329 76.9358C53.0277 77.9765 51.9497 78.828 51.9334 78.828C51.9172 78.828 51.9039 76.7571 51.9039 74.2261V69.6241L52.1494 70.117C52.3296 70.4787 52.5059 70.7209 52.8122 71.0274Z" fill="url(#paint0_linear_453_7262)"/>
<defs>
<linearGradient id="paint0_linear_453_7262" x1="19.0225" y1="5.39289" x2="97.2524" y2="40.0047" gradientUnits="userSpaceOnUse">
<stop stop-color="#B98300"/>
<stop offset="0.546875" stop-color="#FFF5A4"/>
<stop offset="0.9999" stop-color="#FFFADF"/>
<stop offset="1" stop-color="#785500"/>
</linearGradient>
</defs>
</svg>
