<svg width="101" height="101" viewBox="0 0 101 101" fill="none" xmlns="http://www.w3.org/2000/svg">
<rect width="100" height="100" transform="translate(0.166748 0.649902)" fill="#12252D"/>
<path fill-rule="evenodd" clip-rule="evenodd" d="M47.426 18.2882C41.4813 18.9064 35.6865 21.6928 31.4112 25.9888C24.038 33.3977 21.7096 44.2218 25.3765 54.0416C25.9711 55.6341 27.2362 58.0847 28.1832 59.4784C28.516 59.9683 28.5098 60.0498 28.1395 60.0498C27.6456 60.0498 26.1655 60.5515 25.1423 61.0658C21.9601 62.6653 19.6948 65.7567 19.0541 69.3739C18.9794 69.7951 18.9207 71.9002 18.9207 74.1483C18.9207 78.1237 18.924 78.1743 19.2103 78.6008C19.3695 78.8381 19.6981 79.1329 19.9404 79.2561C20.4178 79.4987 43.493 82.762 46.7277 83.0443C52.7441 83.5695 59.3639 82.1184 64.8107 79.0806C67.272 77.7079 70.5658 75.2693 73.9633 72.3043C76.3652 70.2081 79.8416 66.7867 80.3636 66.0051C82.0184 63.5268 81.6898 60.3187 79.5643 58.203C78.2472 56.8919 76.6422 56.2805 74.8238 56.3972C74.3156 56.4297 73.8998 56.4345 73.8998 56.4079C73.8998 56.3811 74.051 56.0611 74.2358 55.6968C74.701 54.7797 75.5089 52.4792 75.8731 51.0348C78.1225 42.1115 75.4728 32.5927 68.9006 25.9888C63.2604 20.3212 55.3061 17.4689 47.426 18.2882ZM53.4269 22.2827C63.4469 23.8843 71.0266 31.4472 72.5078 41.3213C74.1201 52.0696 67.8864 62.3756 57.5597 66.0348C56.7652 66.3163 54.7319 66.8444 54.0286 66.9518L53.5207 67.0295L53.9651 66.8138C54.2095 66.6952 54.8952 66.3729 55.4888 66.0976C57.3562 65.2318 58.8439 63.4574 59.3508 61.4917C59.8028 59.7382 59.4887 57.6813 58.5309 56.1248L58.1381 55.4864L58.4654 54.512C59.0843 52.6693 59.1118 50.5365 58.5387 48.8256C57.6587 46.1987 55.4042 43.9624 52.8224 43.1555L52.124 42.9372L52.0907 38.0979C52.0725 35.4363 52.1041 33.2586 52.1611 33.2586C52.4135 33.2586 53.4436 34.0296 53.9308 34.583C54.5757 35.3155 54.964 36.2998 55.1053 37.5595C55.23 38.6712 55.4625 39.0474 56.2774 39.4564C56.9342 39.7861 57.4641 39.755 58.1341 39.3476C58.7362 38.9814 58.9628 38.4234 58.9427 37.3561C58.8763 33.8324 56.3518 30.5426 52.7863 29.3333L52.124 29.1087L52.0605 27.8507C51.9887 26.4254 51.7687 25.9589 50.9964 25.5924C50.1456 25.1887 49.1348 25.4429 48.598 26.1955C48.3654 26.5217 48.3035 26.817 48.2513 27.8507L48.1879 29.1087L47.5256 29.3333C44.2154 30.456 41.7828 33.3869 41.4076 36.7047C41.2954 37.6969 41.3881 39.3456 41.5945 40.0316C41.8047 40.7291 42.4911 42.1488 42.9242 42.7815C43.9919 44.3413 46.0058 45.8014 47.6655 46.2194L48.2513 46.3669V50.2607V54.1546L47.4027 54.5731L46.554 54.9916L46.3144 54.6956C45.8029 54.0633 45.3415 52.8737 45.2192 51.8718C45.0857 50.7776 44.8835 50.3976 44.1765 49.9124C43.3991 49.3788 42.274 49.6638 41.6013 50.5648C40.9849 51.3903 41.5576 54.5142 42.6193 56.1186C42.8132 56.4115 42.9095 56.6742 42.8436 56.7306C42.78 56.7848 41.3249 57.4968 39.61 58.3126L36.4919 59.7959H34.9025H33.3129L32.6774 59.0023C29.2932 54.7766 27.5548 49.9198 27.5548 44.6908C27.5548 36.7981 31.5405 29.644 38.2906 25.4208C40.7917 23.856 43.3306 22.9065 46.5372 22.3369C48.2225 22.0376 51.7211 22.0099 53.4269 22.2827ZM48.2513 37.7661C48.2513 40.2453 48.22 42.2736 48.1815 42.2736C47.9941 42.2736 47.295 41.831 46.856 41.4345C44.454 39.2644 44.7678 35.3383 47.4809 33.6177C47.7923 33.4202 48.093 33.2586 48.1493 33.2586C48.2054 33.2586 48.2513 35.287 48.2513 37.7661ZM53.675 48.1097C54.8054 49.2217 55.3819 51.2051 54.9926 52.6441C54.8518 53.1651 54.8422 53.1722 54.4418 53.0573C54.2175 52.993 53.59 52.9034 53.0474 52.8582L52.0605 52.7758V49.8656V46.9554L52.5749 47.2445C52.8578 47.4035 53.3528 47.7929 53.675 48.1097ZM53.8105 56.9455C54.9377 57.4156 55.6573 58.5212 55.6657 59.7959C55.6721 60.781 55.3588 61.4756 54.6336 62.084C54.3322 62.3368 52.2323 63.3214 48.9497 64.7488C46.0865 65.9939 43.5267 67.1349 43.2612 67.2845C41.9521 68.0217 41.935 69.8871 43.2301 70.6717C43.5942 70.8923 44.0469 70.906 50.9813 70.9053C56.2233 70.9048 58.6046 70.8598 59.2443 70.7489C60.6589 70.5036 62.3143 69.99 63.4879 69.4322C65.4845 68.4832 66.4795 67.6995 69.967 64.3296C73.6348 60.785 73.983 60.4865 74.6638 60.3032C76.0834 59.9209 77.5893 61.116 77.5792 62.6169C77.5735 63.4631 77.172 63.9949 74.9042 66.1591C71.4748 69.4321 68.5338 71.9265 65.8363 73.8503C60.8505 77.4061 55.2746 79.2132 49.2664 79.2201C46.8197 79.2231 46.0983 79.1448 37.5856 77.9528C25.5179 76.2631 23.0471 75.9215 22.8886 75.9215C22.6479 75.9214 22.6736 70.9422 22.9202 69.7632C23.4771 67.1017 25.3398 65.001 27.9992 64.0351C28.5504 63.8349 29.2118 63.7955 33.0146 63.7365L37.3952 63.6685L43.7438 60.632C47.2356 58.9619 50.4908 57.405 50.9777 57.172C51.9893 56.6881 52.9996 56.6072 53.8105 56.9455Z" fill="url(#paint0_linear_453_7267)"/>
<defs>
<linearGradient id="paint0_linear_453_7267" x1="8.35856" y1="5.39289" x2="100.711" y2="59.6635" gradientUnits="userSpaceOnUse">
<stop stop-color="#B98300"/>
<stop offset="0.546875" stop-color="#FFF5A4"/>
<stop offset="0.9999" stop-color="#FFFADF"/>
<stop offset="1" stop-color="#785500"/>
</linearGradient>
</defs>
</svg>
