<svg width="101" height="101" viewBox="0 0 101 101" fill="none" xmlns="http://www.w3.org/2000/svg">
<rect width="100" height="100" transform="translate(0.833252 0.649902)" fill="#12252D"/>
<path fill-rule="evenodd" clip-rule="evenodd" d="M27.6258 18.3571C26.6278 18.6772 25.9423 19.1154 25.2435 19.88C24.5446 20.6447 24.2083 21.277 23.9387 22.3328C23.7706 22.9912 23.7535 26.1663 23.7818 51.5055L23.8135 79.9394L24.1344 80.624C24.772 81.9836 25.8257 82.792 27.2852 83.0411C27.851 83.1377 34.7305 83.1663 51.4027 83.1413C74.4053 83.1069 74.7369 83.103 75.3301 82.8628C76.1618 82.5259 77.2475 81.4951 77.6059 80.7019L77.8956 80.0612V53.3247V26.5881L77.5731 25.9002C76.865 24.3898 75.6128 23.6067 73.7503 23.5092L72.629 23.4505L72.5657 22.4006C72.4514 20.5059 71.7363 19.3018 70.2651 18.527L69.6127 18.1835L48.9665 18.1589C29.2595 18.1354 28.2888 18.1444 27.6258 18.3571ZM68.8578 20.9323C69.169 21.0187 69.3986 21.1883 69.5577 21.4492C69.7903 21.8307 69.7946 22.3014 69.795 47.8799C69.7955 76.0422 69.8342 74.3882 69.1663 74.7372C68.9463 74.8522 64.1462 74.8932 47.9921 74.9184C36.5027 74.9363 26.979 74.9971 26.8282 75.0538L26.5541 75.1564V49.0718C26.5541 25.765 26.5742 22.9388 26.7433 22.5342C27.0742 21.7421 27.8096 21.1295 28.6857 20.9162C29.2932 20.7683 68.3237 20.7839 68.8578 20.9323ZM46.6533 26.2893C39.4461 27.0191 33.768 32.1476 32.1982 39.3452C31.8893 40.7613 31.8893 44.2065 32.1982 45.6226C33.1537 50.004 35.5326 53.556 39.1427 55.992C46.3041 60.8243 56.0742 59.11 61.2586 52.1115C62.1913 50.8526 63.3443 48.5279 63.7682 47.0516C65.3323 41.6052 64.0612 36.0033 60.2679 31.6263C59.1228 30.3049 57.0958 28.7682 55.3213 27.8761C52.8798 26.6486 49.3988 26.0113 46.6533 26.2893ZM74.4626 26.4197C74.6089 26.4945 74.8233 26.6727 74.9391 26.8156C75.137 27.0599 75.1497 28.6369 75.1523 53.3064L75.1549 79.5375L74.7398 79.9526L74.3248 80.3676L50.7949 80.3363L27.265 80.3048L26.9096 79.907C26.4179 79.3568 26.4179 78.6949 26.9096 78.1447L27.265 77.7469L48.378 77.686L69.4909 77.6251L70.1609 77.3038C71.3373 76.7396 72.0851 75.8353 72.4089 74.5848C72.5753 73.9424 72.597 71.122 72.597 50.0712V26.2836H73.3968C73.8366 26.2836 74.3162 26.3449 74.4626 26.4197ZM46.774 35.5409V41.144H44.1369H41.4999L41.5791 40.0782C41.8774 36.0688 43.731 31.9475 45.9055 30.4595C46.3248 30.1725 46.6917 29.9378 46.7209 29.9378C46.7501 29.9378 46.774 32.4592 46.774 35.5409ZM51.2262 31.138C52.4497 32.3519 53.553 34.4501 54.1496 36.6981C54.49 37.9803 54.812 39.8886 54.8128 40.6263L54.8132 41.144H52.1944H49.5756V35.5331V29.9222L50.0658 30.1978C50.3355 30.3493 50.8576 30.7724 51.2262 31.138ZM41.3449 31.5644C40.0211 33.7668 39.0405 37.0577 38.7811 40.1688L38.6997 41.144H36.706H34.7122L34.785 40.6263C35.3291 36.7488 37.5151 33.364 40.9154 31.1343C41.4111 30.8092 41.8368 30.5631 41.8612 30.5874C41.8854 30.6118 41.6531 31.0514 41.3449 31.5644ZM55.6591 31.2862C58.8645 33.4304 60.8814 36.639 61.568 40.6873L61.6455 41.144H59.6526H57.6597L57.5142 39.7737C57.1646 36.4796 56.0757 33.1271 54.6869 31.0694C54.493 30.7821 54.3836 30.5469 54.4439 30.5469C54.5043 30.5469 55.0511 30.8796 55.6591 31.2862ZM38.7811 44.799C39.0405 47.9101 40.0211 51.201 41.3449 53.4034C41.6531 53.9164 41.8854 54.356 41.8612 54.3804C41.7864 54.4552 40.057 53.2785 39.2689 52.6167C37.9041 51.4705 36.4359 49.4347 35.7008 47.6687C35.3321 46.7832 34.9148 45.2671 34.785 44.3414L34.7122 43.8238H36.706H38.6997L38.7811 44.799ZM46.774 49.4347V55.0456L46.2666 54.7637C43.954 53.4791 41.8955 49.1431 41.5791 44.8896L41.4999 43.8238H44.1369H46.774V49.4347ZM54.8128 44.3414C54.8114 45.7477 54.1264 48.7256 53.4176 50.4062C52.5948 52.3573 51.2548 54.1018 50.0658 54.77L49.5756 55.0456V49.4347V43.8238H52.1944H54.8132L54.8128 44.3414ZM61.568 44.2805C61.037 47.4115 59.785 49.9217 57.7294 51.9773C56.8753 52.8314 54.7382 54.4209 54.4439 54.4209C54.3836 54.4209 54.493 54.1857 54.6869 53.8984C56.0757 51.8407 57.1646 48.4882 57.5142 45.1941L57.6597 43.8238H59.6526H61.6455L61.568 44.2805ZM33.7122 64.5209L33.3144 64.8763V66.8452V68.8141L33.7122 69.1695C34.0198 69.4444 34.2276 69.525 34.629 69.525C35.7455 69.525 36.055 68.9432 36.055 66.8452C36.055 64.7472 35.7455 64.1655 34.629 64.1655C34.2276 64.1655 34.0198 64.246 33.7122 64.5209ZM39.1817 64.4146C38.7504 64.7539 38.6143 65.3366 38.6143 66.8452C38.6143 67.5486 38.6707 68.3272 38.7397 68.5755C38.9118 69.1954 39.364 69.525 40.0424 69.525C40.4985 69.525 40.6531 69.4581 41.0004 69.1108L41.4145 68.6967V66.8452V64.9938L41.0004 64.5796C40.6531 64.2323 40.4985 64.1655 40.0424 64.1655C39.6789 64.1655 39.3934 64.2481 39.1817 64.4146ZM44.5084 64.5796L44.0943 64.9938V66.8452V68.6967L44.5084 69.1108C44.8557 69.4581 45.0103 69.525 45.4664 69.525C46.1448 69.525 46.597 69.1954 46.7691 68.5755C46.9311 67.992 46.9311 65.6984 46.7691 65.115C46.597 64.4951 46.1448 64.1655 45.4664 64.1655C45.0103 64.1655 44.8557 64.2323 44.5084 64.5796ZM50.077 64.3641C49.5904 64.7049 49.4538 65.2489 49.4538 66.8452C49.4538 68.9432 49.7633 69.525 50.8798 69.525C51.2812 69.525 51.489 69.4444 51.7966 69.1695L52.1944 68.8141V66.8452V64.8763L51.7966 64.5209C51.3323 64.106 50.5476 64.0345 50.077 64.3641ZM55.3492 64.5796L54.9351 64.9938V66.8452V68.6967L55.3492 69.1108C55.6981 69.4597 55.8502 69.525 56.3143 69.525C56.7671 69.525 56.932 69.4582 57.24 69.1502L57.6148 68.7754V66.8452V64.9151L57.24 64.5403C56.932 64.2322 56.7671 64.1655 56.3143 64.1655C55.8502 64.1655 55.6981 64.2308 55.3492 64.5796ZM60.9178 64.3641C60.4312 64.7049 60.2945 65.2489 60.2945 66.8452C60.2945 68.9432 60.6041 69.525 61.7205 69.525C62.122 69.525 62.3298 69.4444 62.6374 69.1695L63.0352 68.8141V66.8452V64.8763L62.6374 64.5209C62.173 64.106 61.3884 64.0345 60.9178 64.3641Z" fill="url(#paint0_linear_453_7272)"/>
<defs>
<linearGradient id="paint0_linear_453_7272" x1="14.6229" y1="5.39289" x2="100.091" y2="48.8931" gradientUnits="userSpaceOnUse">
<stop stop-color="#B98300"/>
<stop offset="0.546875" stop-color="#FFF5A4"/>
<stop offset="0.9999" stop-color="#FFFADF"/>
<stop offset="1" stop-color="#785500"/>
</linearGradient>
</defs>
</svg>
