<svg width="101" height="101" viewBox="0 0 101 101" fill="none" xmlns="http://www.w3.org/2000/svg">
<rect width="100" height="100" transform="translate(0.5 0.667725)" fill="#12252D"/>
<path fill-rule="evenodd" clip-rule="evenodd" d="M21.491 18.3194C20.6465 18.6595 20.6965 16.7053 20.6965 49.3335C20.6965 82.1353 20.639 80.0142 21.5376 80.3558C21.9433 80.5101 54.5593 80.5656 54.5593 80.412C54.5593 80.364 54.3325 80.0438 54.0553 79.7003C53.7779 79.3569 53.3644 78.7891 53.1363 78.439L52.7214 77.8022H38.0575H23.3936V49.783C23.3936 34.3724 23.4442 21.7662 23.506 21.769C23.5677 21.772 23.7869 21.8708 23.9929 21.9885C24.59 22.3298 25.1876 22.2389 26.3898 21.6235L27.5131 21.0485L28.6715 21.6309C29.3086 21.9512 30.0167 22.21 30.2452 22.2059C30.4737 22.2017 31.1661 21.9397 31.7839 21.6235L32.9072 21.0485L34.0656 21.6309C34.7027 21.9512 35.4108 22.21 35.6393 22.2059C35.8678 22.2017 36.5572 21.9412 37.1715 21.6267L38.2884 21.0549L39.486 21.6342C40.1447 21.9527 40.8404 22.2133 41.032 22.2133C41.2237 22.2133 41.9095 21.9473 42.556 21.6222L43.7316 21.0311L44.9502 21.6222C45.6204 21.9473 46.3241 22.2133 46.5138 22.2133C46.7034 22.2133 47.3976 21.9527 48.0563 21.6342L49.2539 21.0549L50.3708 21.6267C50.9851 21.9412 51.6599 22.2017 51.8702 22.2059C52.0806 22.21 52.7917 21.9527 53.4504 21.6342L54.648 21.0549L55.7649 21.6267C56.3792 21.9412 57.084 22.1984 57.3313 22.1984C57.5785 22.1984 58.2863 21.9397 58.9041 21.6235L60.0274 21.0485L61.1858 21.6309C61.8229 21.9512 62.531 22.21 62.7595 22.2059C62.988 22.2017 63.6804 21.9397 64.2982 21.6235L65.4215 21.0485L66.5798 21.6309C67.8143 22.2516 68.3433 22.3316 68.9435 21.9885C69.1495 21.8708 69.3686 21.772 69.4305 21.769C69.4923 21.7662 69.5428 28.9316 69.5428 37.6923V53.6207L70.5542 53.8711C71.1104 54.0088 71.7173 54.1644 71.9027 54.2172L72.2399 54.3129L72.2393 36.8023C72.2388 19.7098 72.2318 19.2801 71.9468 18.8126C71.4712 18.0326 70.8816 18.0186 69.4219 18.7525L68.2087 19.3625L66.9733 18.7651C66.2938 18.4365 65.6173 18.1677 65.47 18.1677C65.3226 18.1677 64.6422 18.4454 63.958 18.7847L62.714 19.4016L61.4868 18.7847C60.8119 18.4454 60.1366 18.1677 59.9862 18.1677C59.8358 18.1677 59.1569 18.4365 58.4774 18.7651L57.242 19.3625L56.0538 18.7651C55.4003 18.4365 54.7426 18.1677 54.5921 18.1677C54.4417 18.1677 53.7628 18.4365 53.0833 18.7651L51.8479 19.3625L50.6597 18.7651C50.0063 18.4365 49.3337 18.1677 49.1652 18.1677C48.9968 18.1677 48.3242 18.4365 47.6708 18.7651L46.4826 19.3625L45.2472 18.7651C44.5677 18.4365 43.8888 18.1677 43.7384 18.1677C43.5879 18.1677 42.9301 18.4365 42.2767 18.7651L41.0885 19.3625L39.8531 18.7651C39.1736 18.4365 38.4947 18.1677 38.3443 18.1677C38.1939 18.1677 37.5361 18.4365 36.8826 18.7651L35.6945 19.3625L34.4591 18.7651C33.7796 18.4365 33.1007 18.1677 32.9502 18.1677C32.7998 18.1677 32.1299 18.4427 31.4613 18.7788L30.246 19.3899L29.0013 18.7788C28.3167 18.4427 27.6395 18.1677 27.4964 18.1677C27.3533 18.1677 26.6763 18.4388 25.9919 18.7701L24.7473 19.3724L23.5494 18.7701C22.3149 18.1494 22.0545 18.0924 21.491 18.3194ZM29.7616 30.446C28.8287 30.8279 28.5845 31.9674 29.2854 32.6683L29.6933 33.0763L39.7664 33.1216C45.3067 33.1463 50.1345 33.1241 50.4952 33.072C51.6261 32.9088 52.1922 31.9502 51.7005 31.0311C51.3145 30.3099 51.2169 30.3038 40.2923 30.3138C34.6652 30.3191 29.9264 30.3786 29.7616 30.446ZM58.0629 30.5362C57.185 30.9795 57.0293 31.8436 57.6936 32.587L58.1308 33.0763H60.6868H63.243L63.6509 32.6683C64.2089 32.1103 64.209 31.3456 63.6513 30.7873C63.2462 30.3817 63.2295 30.379 60.8869 30.3399C58.9826 30.308 58.4402 30.3457 58.0629 30.5362ZM29.4108 38.7852C28.9149 39.1327 28.7446 39.6841 28.9454 40.2926C29.2683 41.271 29.1095 41.2546 37.8657 41.2088L45.7451 41.1674L46.1067 40.747C46.6004 40.1728 46.587 39.4542 46.0732 38.9403L45.6781 38.5453H37.7157C30.6574 38.5453 29.7144 38.5726 29.4108 38.7852ZM57.6443 39.0064C57.2042 39.5293 57.1628 39.8777 57.4699 40.4715C57.8136 41.1363 58.2605 41.2424 60.7171 41.2424C63.2851 41.2424 63.719 41.1165 63.991 40.2926C64.1918 39.6841 64.0216 39.1327 63.5256 38.7852C63.2438 38.5879 62.7265 38.5453 60.6076 38.5453H58.0322L57.6443 39.0064ZM29.4409 46.8552C28.9325 47.2113 28.7154 47.8983 28.9399 48.4404C29.329 49.3798 28.7383 49.3335 40.3468 49.3335H50.9403L51.4012 48.9455C52.1347 48.3284 52.0148 47.2659 51.1605 46.8107C50.9206 46.683 48.019 46.6364 40.2932 46.6364C31.2947 46.6364 29.7076 46.6685 29.4409 46.8552ZM57.755 46.9951C57.4218 47.2818 57.338 47.4804 57.338 47.9849C57.338 48.4894 57.4218 48.6881 57.755 48.9748C58.157 49.3206 58.2575 49.3335 60.5514 49.3335C61.8599 49.3335 63.1068 49.2665 63.3221 49.1845C63.8803 48.9724 64.23 48.0933 63.9884 47.51C63.6522 46.6982 63.4179 46.6364 60.6775 46.6364C58.2507 46.6364 58.159 46.6477 57.755 46.9951ZM29.5115 54.9545C29.0142 55.2272 28.7208 56.0303 28.9235 56.5638C29.2599 57.4484 29.0199 57.425 37.6988 57.4198C43.7082 57.4162 45.7021 57.3706 45.8819 57.2325C46.5397 56.7274 46.6389 55.8417 46.1067 55.2229L45.7451 54.8024L37.8283 54.7689C31.1156 54.7404 29.8506 54.7686 29.5115 54.9545ZM64.8472 56.2353C62.7769 56.5221 60.2625 57.6071 58.4676 58.9881C56.1951 60.7368 54.4221 63.45 53.6341 66.385C53.1861 68.0536 53.1891 71.2557 53.6404 72.9325C55.081 78.2854 59.4403 82.2037 64.9074 83.0596C66.338 83.2836 68.684 83.1484 70.1572 82.7572C72.4745 82.1417 74.2674 81.1342 76.0371 79.4532C78.6423 76.9785 80.076 73.9156 80.2815 70.3853C80.7156 62.9298 74.8532 56.4688 67.3702 56.1561C66.5461 56.1216 65.4107 56.1573 64.8472 56.2353ZM69.4577 59.1606C73.1223 60.0942 76.0337 62.9328 77.2054 66.7144C77.7024 68.3183 77.7024 70.9539 77.2054 72.5579C76.2695 75.5786 74.4432 77.8228 71.7904 79.2124C70.0623 80.1174 68.8085 80.4189 66.7709 80.4189C65.3116 80.4189 64.7611 80.3533 63.8491 80.0707C60.7853 79.1213 58.4213 77.1438 57.1074 74.4309C56.264 72.6893 56.0087 71.5752 56.0087 69.6361C56.0087 67.6714 56.2649 66.5731 57.1452 64.7665C57.657 63.716 58.0163 63.2422 59.1967 62.0618C60.3837 60.8745 60.8448 60.5257 61.9012 60.0152C63.9053 59.0468 65.2836 58.7511 67.2851 58.8601C67.9801 58.8979 68.9577 59.033 69.4577 59.1606ZM29.8365 62.9213C28.8814 63.2837 28.5867 64.6186 29.3323 65.2051C30.2572 65.9327 31.5146 65.3736 31.5146 64.2349C31.5146 63.3808 30.5714 62.6424 29.8365 62.9213ZM33.9225 62.9258C33.4421 63.016 32.983 63.6724 32.983 64.269C32.983 65.403 34.4525 65.9694 35.2345 65.137C36.1245 64.1896 35.2292 62.6806 33.9225 62.9258ZM37.8271 63.0371C36.4874 63.6198 36.8928 65.5157 38.357 65.5157C38.835 65.5157 39.0248 65.4264 39.3377 65.0546C39.9549 64.3212 39.7656 63.4635 38.8955 63.0506C38.3209 62.7779 38.42 62.7791 37.8271 63.0371ZM41.8726 63.0371C40.5424 63.6156 40.9372 65.5157 42.3876 65.5157C43.8462 65.5157 44.2638 63.5838 42.9261 63.025C42.3455 62.7824 42.461 62.781 41.8726 63.0371ZM45.8689 63.0822C44.608 63.7133 45.0518 65.5157 46.4682 65.5157C47.1365 65.5157 47.5981 65.1675 47.7542 64.5455C48.0401 63.4063 46.9351 62.5485 45.8689 63.0822ZM49.9775 63.0313C48.6733 63.5991 49.114 65.5157 50.5488 65.5157C52.0214 65.5157 52.393 63.5999 51.031 63.0307C50.4354 62.7819 50.5503 62.7818 49.9775 63.0313ZM61.1405 64.0058C60.8362 64.3101 60.7026 64.5922 60.7026 64.9307C60.7026 65.3559 60.9673 65.6845 62.795 67.528L64.8875 69.6384L62.795 71.7455C60.9646 73.5886 60.7026 73.9138 60.7026 74.3405C60.7026 75.0085 61.3978 75.7045 62.065 75.7045C62.4889 75.7045 62.814 75.4444 64.5929 73.6817C65.7157 72.5692 66.6958 71.6589 66.7709 71.6589C66.846 71.6589 67.826 72.5692 68.9489 73.6817C70.7961 75.5121 71.0406 75.7045 71.5198 75.7045C71.892 75.7045 72.1665 75.5872 72.4443 75.3095C72.7219 75.0317 72.8392 74.7572 72.8392 74.385C72.8392 73.9058 72.6468 73.6613 70.8164 71.8141C69.7039 70.6913 68.7937 69.7112 68.7937 69.6361C68.7937 69.5611 69.7039 68.581 70.8164 67.4581C72.657 65.6006 72.8392 65.3684 72.8392 64.8802C72.8392 64.2094 72.1611 63.5678 71.4523 63.5678C71.0551 63.5678 70.6805 63.8726 68.8803 65.6603L66.7731 67.7527L64.6627 65.6603C62.8193 63.8326 62.4907 63.5678 62.0655 63.5678C61.727 63.5678 61.4448 63.7015 61.1405 64.0058Z" fill="url(#paint0_linear_324_1466)"/>
<defs>
<linearGradient id="paint0_linear_324_1466" x1="10.6211" y1="5.41072" x2="100.799" y2="55.9576" gradientUnits="userSpaceOnUse">
<stop stop-color="#B98300"/>
<stop offset="0.546875" stop-color="#FFF5A4"/>
<stop offset="0.9999" stop-color="#FFFADF"/>
<stop offset="1" stop-color="#785500"/>
</linearGradient>
</defs>
</svg>
