<svg width="101" height="101" viewBox="0 0 101 101" fill="none" xmlns="http://www.w3.org/2000/svg">
<rect width="100" height="100" transform="translate(0.5 0.667725)" fill="#12252D"/>
<path fill-rule="evenodd" clip-rule="evenodd" d="M49.2299 25.2651C44.4352 25.6461 40.2376 28.0248 37.3105 32.0196L36.7754 32.7499H28.8646C20.0649 32.7499 20.1356 32.7438 19.1515 33.5862C18.8552 33.8397 18.4862 34.284 18.3315 34.5733L18.0501 35.0995L18.0167 54.2079C17.9797 75.3844 17.9259 73.9729 18.8108 75.0068C19.0532 75.29 19.5432 75.6492 19.9178 75.8185L20.5902 76.1223H50.5H80.4098L81.0822 75.8185C81.4568 75.6492 81.9468 75.29 82.1892 75.0068C83.0741 73.9729 83.0203 75.3844 82.9833 54.2079L82.9499 35.0995L82.6685 34.5733C82.5138 34.284 82.1448 33.8397 81.8485 33.5862C80.8645 32.7439 80.9343 32.7499 72.1423 32.7499H64.2382L63.7511 32.0852C60.2641 27.3259 54.9146 24.8133 49.2299 25.2651ZM53.2869 27.6682C60.936 29.227 65.8376 36.657 64.2636 44.3074C63.1119 49.9052 58.5692 54.3096 52.9282 55.2975C46.977 56.3398 40.9403 53.3953 38.1062 48.0678C34.491 41.2717 36.9704 32.8735 43.6964 29.1328C46.5083 27.569 50.1049 27.0198 53.2869 27.6682ZM42.8478 33.4802C41.8759 34.4407 40.9966 35.3872 40.8934 35.5835C40.5576 36.2234 40.8104 36.5892 43.3224 39.0984L45.6709 41.4443L43.2686 43.8602C41.8255 45.3114 40.8331 46.41 40.7831 46.6115C40.6521 47.1398 40.9469 47.5406 42.8478 49.4194C45.2697 51.8132 44.8778 51.8654 48.0417 48.728L50.5 46.2902L52.9583 48.728C56.1222 51.8654 55.7303 51.8132 58.1522 49.4194C60.0531 47.5406 60.3479 47.1398 60.2169 46.6115C60.1669 46.41 59.1745 45.3114 57.7314 43.8602L55.3291 41.4443L57.6776 39.0984C60.0832 36.6955 60.402 36.2551 60.168 35.6576C60.1025 35.4903 59.2248 34.5392 58.2175 33.5437C55.7203 31.076 56.1293 31.0271 52.9583 34.1716L50.5 36.6094L48.0417 34.1716C44.8778 31.0342 45.2697 31.0864 42.8478 33.4802ZM47.6021 36.8141C49.8825 39.0753 50.0653 39.2272 50.5065 39.2272C50.9481 39.2272 51.1273 39.0776 53.398 36.8141C54.7294 35.4869 55.8667 34.401 55.9254 34.401C55.9841 34.401 56.3873 34.7594 56.8214 35.1974L57.6109 35.994L55.2127 38.4183C53.8937 39.7517 52.7744 40.9691 52.7254 41.1236C52.6762 41.2782 52.6701 41.5402 52.7118 41.7058C52.7533 41.8716 53.882 43.0998 55.2199 44.4353L57.6526 46.8637L56.8414 47.6821C56.3952 48.1322 55.9875 48.4858 55.9352 48.4677C55.8829 48.4498 54.7596 47.3636 53.4392 46.0537C50.2429 42.8838 50.7605 42.881 47.5425 46.0855C46.2098 47.4127 45.0851 48.4986 45.0436 48.4986C45.0019 48.4986 44.6029 48.1303 44.1568 47.6802L43.3458 46.8619L45.7819 44.4236C47.1593 43.0451 48.2529 41.8469 48.2981 41.6667C48.4301 41.1408 48.0723 40.6799 45.669 38.2795L43.3849 35.9982L44.1764 35.1996C44.6118 34.7604 45.0131 34.401 45.0682 34.401C45.1233 34.401 46.2636 35.4869 47.6021 36.8141ZM35.5133 35.0053C35.5133 35.0582 35.3458 35.5941 35.141 36.1962C34.9362 36.7982 34.7299 37.4979 34.6824 37.751L34.596 38.2111H27.3593H20.1226L20.1659 36.8905C20.2122 35.478 20.3643 35.112 20.9527 34.9969C21.4515 34.8994 35.5133 34.9074 35.5133 35.0053ZM80.1606 35.0934C80.7329 35.3324 80.8543 35.6797 80.8543 37.0764V38.2111H73.615C67.0202 38.2111 66.3757 38.1927 66.3757 38.005C66.3757 37.8916 66.1757 37.2009 65.9312 36.4704C65.6867 35.7397 65.4867 35.0895 65.4867 35.0255C65.4867 34.9563 68.3726 34.909 72.603 34.909C78.536 34.909 79.7928 34.9396 80.1606 35.0934ZM34.2438 41.4815C34.2444 42.969 34.502 44.5325 35.0805 46.5618L35.1619 46.8475H27.6539H20.1457V43.6089V40.3702H27.1945H34.2433L34.2438 41.4815ZM80.8543 43.6089V46.8475H73.3461H65.8381L65.9195 46.5618C66.498 44.5325 66.7556 42.969 66.7562 41.4815L66.7567 40.3702H73.8055H80.8543V43.6089ZM36.5022 49.6734C38.8047 53.7345 43.3122 56.7923 48.0478 57.5055C49.338 57.6998 52.0261 57.6758 53.2581 57.459C57.7618 56.6665 61.9125 53.8702 64.2492 50.0544L64.8909 49.0066H72.8727H80.8543V61.015C80.8543 73.7694 80.8621 73.5963 80.2771 73.8208C80.0083 73.924 20.9917 73.924 20.7229 73.8208C20.1379 73.5963 20.1457 73.7694 20.1457 61.015V49.0066H28.135H36.1241L36.5022 49.6734ZM62.7219 60.2381C59.7276 61.3505 58.3874 64.6951 59.7604 67.6292C61.1631 70.6266 64.948 71.5763 67.7663 69.6377L68.399 69.2023L69.1143 69.7033C70.7339 70.8379 72.7045 70.9857 74.5518 70.1114C76.5015 69.1887 77.6459 67.2042 77.5277 64.9517C77.4248 62.9925 76.3312 61.3601 74.5225 60.4658C73.693 60.0557 73.4231 59.9865 72.4998 59.9474C71.0335 59.8852 69.7999 60.2522 68.8743 61.026C68.4595 61.3728 68.2472 61.4013 68.0301 61.1397C67.8126 60.8777 66.8958 60.3814 66.1763 60.1362C65.264 59.8253 63.7095 59.8712 62.7219 60.2381ZM24.8704 62.3458C24.4697 62.7189 24.4435 62.9387 24.4875 65.5551C24.5257 67.8241 24.5396 67.9362 24.8166 68.213L25.1058 68.502L30.8166 68.5375C37.243 68.5774 37.1604 68.5878 37.4245 67.7063C37.5148 67.4046 37.5517 66.4055 37.5246 64.9863C37.4833 62.8153 37.472 62.7326 37.1741 62.4156L36.8661 62.0882H31.0064C25.2956 62.0882 25.1398 62.0948 24.8704 62.3458ZM42.1754 62.4C41.8648 62.7105 41.8636 62.7214 41.8636 65.2971C41.8636 67.7187 41.8799 67.9001 42.1212 68.1589C42.2628 68.311 42.5056 68.4668 42.661 68.5053C42.8162 68.5436 45.4772 68.5586 48.5742 68.5385L54.2054 68.502L54.5117 68.1456C54.8136 67.7947 54.8182 67.7509 54.8182 65.2505C54.8182 62.7242 54.8167 62.7101 54.5064 62.4L54.1947 62.0882H48.3409H42.4871L42.1754 62.4ZM65.9848 62.4008C66.3307 62.576 66.8624 63.0185 67.1955 63.4085C67.8754 64.2044 68.3099 64.3701 68.9065 64.0616C69.1212 63.9506 69.2968 63.8156 69.2968 63.7616C69.2968 63.5251 70.394 62.5524 70.9103 62.3312C72.0757 61.8315 73.684 62.154 74.5283 63.0565C75.3002 63.8815 75.5832 65.171 75.2421 66.3093C75.0265 67.0287 74.1174 67.99 73.3892 68.2685C72.6493 68.5516 71.5687 68.5429 70.8844 68.2482C70.605 68.1279 70.0262 67.6644 69.5982 67.2179C68.9189 66.5095 68.7609 66.4064 68.3541 66.4064C67.8769 66.4064 67.8675 66.4134 66.9139 67.4684C66.2873 68.1617 65.5735 68.4744 64.598 68.4828C62.7845 68.4985 61.3788 67.0868 61.392 65.2633C61.399 64.2966 61.7208 63.583 62.4428 62.9339C63.1525 62.2958 63.6176 62.1191 64.6336 62.1011C65.1807 62.0915 65.5254 62.168 65.9848 62.4008ZM35.3123 65.2951L35.3018 66.3429L30.9624 66.3763L26.623 66.4097V65.3285V64.2473H30.9729H35.3228L35.3123 65.2951ZM52.6591 65.3268V66.4064H48.3409H44.0227V65.3268V64.2473H48.3409H52.6591V65.3268Z" fill="url(#paint0_linear_324_1471)"/>
<defs>
<linearGradient id="paint0_linear_324_1471" x1="7.01408" y1="15.2216" x2="87.3296" y2="77.9" gradientUnits="userSpaceOnUse">
<stop stop-color="#B98300"/>
<stop offset="0.546875" stop-color="#FFF5A4"/>
<stop offset="0.9999" stop-color="#FFFADF"/>
<stop offset="1" stop-color="#785500"/>
</linearGradient>
</defs>
</svg>
