<svg width="101" height="101" viewBox="0 0 101 101" fill="none" xmlns="http://www.w3.org/2000/svg">
<rect width="100" height="100" transform="translate(0.5 0.667725)" fill="#12252D"/>
<path fill-rule="evenodd" clip-rule="evenodd" d="M19.8611 58.0404C20.8848 58.0404 21.7223 58.0514 21.7223 58.0648C21.7223 58.0783 21.6478 58.2372 21.5567 58.418C21.3271 58.8738 21.0878 59.6176 21.0212 60.0827C20.9448 60.6153 20.9893 61.5883 21.1111 62.051C21.5213 63.6087 22.5297 64.829 23.968 65.5083C24.6482 65.8295 25.5502 66.0235 26.2041 65.9891L26.5029 65.9735L26.5279 66.4853C26.5727 67.4014 26.8989 68.3427 27.4456 69.1335C27.7444 69.5658 28.4059 70.2084 28.8433 70.4914C30.1779 71.3547 31.8246 71.568 33.3052 71.0692C33.4586 71.0175 33.595 70.9752 33.6083 70.9752C33.6216 70.9752 33.6956 71.1143 33.7726 71.2841C34.1221 72.0548 34.8753 72.9419 35.5775 73.4095C36.0414 73.7186 36.6241 73.9832 37.1601 74.1282C37.569 74.2389 37.6907 74.2504 38.4492 74.2504C39.209 74.2504 39.3288 74.239 39.7416 74.1273C40.2413 73.9922 40.9165 73.6884 41.3037 73.4247C41.4406 73.3314 41.5576 73.2551 41.5636 73.2551C41.5695 73.2551 41.712 73.4392 41.88 73.6643C43.413 75.7172 46.13 76.3522 48.3804 75.1838C49.1265 74.7964 49.8285 74.1645 50.2765 73.477C50.3977 73.291 50.5033 73.1296 50.5111 73.1184C50.5189 73.1071 50.8756 73.4443 51.3037 73.8676C52.1415 74.6962 52.4397 74.9233 53.0999 75.2355C54.542 75.9175 56.1967 75.9366 57.5676 75.2872C58.159 75.0071 58.5214 74.7542 59.0031 74.2857C59.4803 73.8215 59.8091 73.3644 60.0713 72.8004C60.1752 72.5771 60.2678 72.3857 60.277 72.3751C60.2863 72.3645 60.4458 72.5114 60.6314 72.7014C61.6448 73.7392 62.9142 74.2788 64.3422 74.2788C66.8425 74.2788 68.9257 72.5337 69.4155 70.0287C69.4637 69.7821 69.478 69.7596 69.5691 69.7858C69.6244 69.8017 69.891 69.8275 70.1615 69.8432C72.4531 69.9757 74.6394 68.3833 75.3022 66.0988C75.4621 65.5477 75.5363 64.8062 75.4814 64.3068L75.4371 63.9032L75.601 63.8753C76.6402 63.6981 77.458 63.3312 78.2137 62.7029C79.1178 61.9513 79.7372 60.894 79.9553 59.7303C80.0345 59.3078 80.06 58.4579 80.0015 58.1916L79.9683 58.0404H81.4842H83V56.5747V55.1091H80.7508H78.5016L76.2957 52.8683C72.8826 49.4012 69.5134 46.1289 66.5737 43.4259C64.225 41.2664 61.712 38.9815 61.3823 38.7057C60.735 38.1641 59.9941 37.792 59.0379 37.5284L58.5959 37.4065L55.7344 37.4058L52.8729 37.4051L52.5263 37.5186C52.115 37.6533 51.5852 37.9949 51.3058 38.3057C51.1953 38.4287 50.174 39.9932 49.0364 41.7825C47.2025 44.6667 46.928 45.0754 46.6169 45.3855C45.7277 46.2718 44.4419 46.4707 43.2881 45.9003C41.9114 45.2197 41.2696 43.498 41.8885 42.146C42.0841 41.7189 46.1007 34.5945 46.412 34.1226C47.1833 32.9533 48.3062 31.8655 49.5159 31.1157C50.0372 30.7925 51.2441 30.2052 51.9656 29.9236C54.1657 29.0647 56.9046 28.5337 59.1775 28.5254C59.9769 28.5224 60.2293 28.5391 60.7362 28.6287C62.1976 28.887 63.9115 29.4206 66.1335 30.3092C67.7332 30.9488 68.4386 31.2616 73.5315 33.5892C76.0551 34.7426 77.2878 35.2473 78.4177 35.5897C79.3151 35.8618 79.6187 35.8925 81.4064 35.8927L83 35.8929V34.4066V32.9204L81.2901 32.9052L79.5802 32.89L79.0882 32.721C77.9687 32.3366 76.5826 31.7387 73.0662 30.1231C67.678 27.6476 65.1561 26.6544 62.6781 26.0318C61.1164 25.6395 60.2719 25.5407 58.7894 25.5771C56.552 25.632 54.1944 26.0528 51.9295 26.8018L51.3118 27.006L47.2767 27.0072C43.1147 27.0085 41.755 27.0419 40.7231 27.1682C38.0709 27.4928 35.5117 28.2245 32.0981 29.6341C30.0395 30.4842 28.599 31.0542 28.1664 31.1898C27.2469 31.4779 27.3512 31.4727 22.4606 31.4727H18V32.9384V34.404L22.6412 34.4038C26.5024 34.4037 27.3528 34.3922 27.7011 34.3352C28.7547 34.1632 29.6291 33.8577 32.5634 32.6365C36.3179 31.0738 38.4574 30.4352 41.078 30.0953C41.5164 30.0384 42.2147 30.0143 43.9133 29.9973L46.167 29.9748L45.7846 30.3344C45.1375 30.9432 44.4031 31.8154 43.876 32.6012C43.6342 32.9616 39.6054 40.0991 39.2884 40.7284C38.6425 42.0109 38.5224 43.6083 38.9655 45.0204C39.2492 45.9246 39.7635 46.7682 40.4462 47.4493C42.028 49.0273 44.249 49.5648 46.3997 48.8901C47.5299 48.5355 48.6698 47.7131 49.3427 46.7666C49.493 46.5552 50.4826 45.0156 51.5417 43.3453L53.4674 40.3084L55.8223 40.3231L58.1772 40.3377L58.5601 40.4667C58.7748 40.5391 59.0851 40.6922 59.266 40.8151C59.6574 41.0808 63.9601 45.0044 66.8314 47.7138C69.7114 50.4314 76.4148 57.1154 76.7287 57.5824C77.0442 58.0519 77.1662 58.7455 77.028 59.2843C76.6732 60.6674 75.2387 61.3654 73.9611 60.7766C73.6556 60.6358 73.4804 60.4663 69.9806 56.9281C67.967 54.8924 66.2637 53.1788 66.1955 53.1202C65.8224 52.7995 65.1513 52.7081 64.6911 52.9152C64.0451 53.206 63.679 53.9301 63.8469 54.5852C63.8866 54.7402 63.9617 54.9373 64.0139 55.023C64.066 55.1087 65.7472 56.8406 67.7499 58.8715C69.7526 60.9024 71.5378 62.7278 71.7169 62.928C72.3132 63.5943 72.5271 64.0538 72.5296 64.6738C72.5323 65.3337 72.3185 65.8325 71.8354 66.2933C71.2152 66.8848 70.365 67.0496 69.535 66.739C68.9313 66.5132 68.892 66.4761 64.735 62.2174C63.71 61.1673 63.1765 60.6546 63.0161 60.5657C62.8053 60.4487 62.7398 60.4366 62.3182 60.4366C61.7919 60.4366 61.6807 60.4774 61.3316 60.7993C61.0076 61.0979 60.8824 61.3836 60.8788 61.8324C60.8767 62.0898 60.9025 62.2738 60.9623 62.4287C61.0554 62.6701 61.3067 62.9383 64.5803 66.2891C66.3374 68.0877 66.4253 68.2019 66.5354 68.8287C66.6889 69.7033 66.1513 70.7075 65.3167 71.1052C64.6751 71.4109 64.0181 71.4074 63.3855 71.0947C63.0831 70.9452 62.8855 70.7603 60.9194 68.7862C59.3775 67.238 58.7172 66.6057 58.5494 66.5166C58.3473 66.4093 58.2618 66.393 57.898 66.393C57.5336 66.393 57.4484 66.4093 57.2416 66.518C56.9401 66.6765 56.6022 67.0504 56.5064 67.3313C56.4123 67.6077 56.4115 68.0591 56.5047 68.3326C56.5462 68.4546 56.7152 68.7102 56.9023 68.9341C57.6626 69.844 57.8267 70.728 57.3961 71.5933C57.1347 72.1187 56.5577 72.5843 55.9729 72.7417C55.4552 72.8811 54.7102 72.7698 54.199 72.4767C53.9642 72.342 53.3467 71.7535 52.5191 70.8757L51.9647 70.2876L52.1732 69.8521C52.5747 69.0132 52.7332 68.1406 52.6559 67.1943C52.4719 64.943 50.8022 63.0612 48.5691 62.5884C48.1004 62.4892 47.2382 62.4566 46.8359 62.5229C46.6359 62.5559 46.6149 62.5508 46.6149 62.4694C46.6149 62.2902 46.3869 61.4865 46.2433 61.1591C45.3828 59.1986 43.3976 57.9498 41.3107 58.0562C40.7525 58.0846 40.4617 58.1375 39.9468 58.3044C39.7468 58.3692 39.5775 58.4148 39.5705 58.4058C39.5635 58.3967 39.4929 58.2485 39.4135 58.0763C38.9774 57.1297 38.1182 56.2204 37.1696 55.7015C36.7732 55.4846 36.1551 55.2709 35.647 55.1752C35.042 55.0611 33.9974 55.1048 33.4058 55.2688C32.8927 55.4111 32.3169 55.6716 31.9206 55.9407C31.7651 56.0463 31.6195 56.1327 31.597 56.1327C31.5745 56.1327 31.4593 55.991 31.341 55.8178C30.9446 55.2376 30.3142 54.6647 29.6553 54.2856C28.9475 53.8784 28.2268 53.6748 27.3506 53.6345C26.0676 53.5754 24.9203 53.9588 23.8779 54.795L23.4864 55.1091H20.7432H18V56.5747V58.0404H19.8611ZM24.0416 60.1232C24.0897 59.9885 24.3883 59.3561 24.7053 58.7179C25.1944 57.7332 25.323 57.5132 25.5547 57.2638C26.7287 56.0002 28.8326 56.5557 29.2891 58.2498C29.3691 58.5466 29.3694 59.0215 29.2897 59.3199C29.2117 59.6121 28.8476 60.3997 28.3367 61.3813C27.8689 62.2802 27.6363 62.5472 27.0822 62.8211C26.7308 62.9948 26.7262 62.9956 26.1449 62.9956C25.5687 62.9956 25.5561 62.9934 25.2119 62.8269C24.7935 62.6246 24.5332 62.4068 24.3156 62.0773C24.1623 61.8452 23.9841 61.4121 23.9373 61.1578C23.8969 60.9381 23.9544 60.368 24.0416 60.1232ZM29.4925 65.8053C29.5496 65.4982 29.7482 65.0852 30.9663 62.7409C31.4918 61.7294 32.1435 60.4746 32.4146 59.9525C32.9981 58.8282 33.2176 58.5548 33.7468 58.2933C34.8827 57.7318 36.1966 58.1864 36.7394 59.3288C36.896 59.6584 36.9137 59.7354 36.9292 60.1574C36.9427 60.5229 36.9277 60.6778 36.8594 60.8796C36.7387 61.2366 33.6139 67.2726 33.4104 67.5421C33.2006 67.8199 32.82 68.103 32.4792 68.2348C32.0834 68.3879 31.4544 68.4094 31.0425 68.284C30.2624 68.0464 29.688 67.424 29.515 66.629C29.438 66.2749 29.4338 66.1216 29.4925 65.8053ZM36.2894 68.6514C36.3171 68.5224 36.4393 68.223 36.561 67.9861C36.7871 67.546 38.0556 65.0913 39.0918 63.0887C39.707 61.8998 39.8996 61.6279 40.314 61.3627C41.0339 60.9022 42.0032 60.8969 42.7136 61.3494C43.3336 61.7444 43.729 62.467 43.729 63.205C43.729 63.7837 43.8747 63.4723 41.0894 68.8475C40.1639 70.6335 40.0489 70.7897 39.4409 71.0871C38.9789 71.3131 38.5448 71.3836 38.1026 71.3046C36.8347 71.078 36.0236 69.891 36.2894 68.6514ZM43.901 69.9311C43.9424 69.8046 44.1794 69.3126 44.4277 68.8376C44.676 68.3627 45.0623 67.6115 45.2861 67.1683C45.7536 66.2426 46.0102 65.9314 46.5116 65.6825C47.9274 64.9797 49.5709 65.8921 49.7175 67.4624C49.7698 68.0228 49.685 68.2773 48.9889 69.6492C48.0107 71.577 47.8293 71.8968 47.5601 72.1672C46.9093 72.821 45.8781 72.9895 45.0435 72.5782C44.0561 72.0917 43.5661 70.9562 43.901 69.9311Z" fill="url(#paint0_linear_324_1478)"/>
<defs>
<linearGradient id="paint0_linear_324_1478" x1="5.24299" y1="84.2491" x2="43.7651" y2="2.63605" gradientUnits="userSpaceOnUse">
<stop stop-color="#B98300"/>
<stop offset="0.546875" stop-color="#FFF5A4"/>
<stop offset="0.9999" stop-color="#FFFADF"/>
<stop offset="1" stop-color="#785500"/>
</linearGradient>
</defs>
</svg>
