<svg width="101" height="100" viewBox="0 0 101 100" fill="none" xmlns="http://www.w3.org/2000/svg">
<rect width="100" height="100" transform="translate(0.5)" fill="#12252D"/>
<path fill-rule="evenodd" clip-rule="evenodd" d="M26.8208 17.5736C26.7033 17.6282 26.5372 17.7491 26.4516 17.8423C26.366 17.9353 26.1708 18.284 26.0177 18.6169C25.8647 18.9499 25.5853 19.4626 25.3968 19.7564C25.2085 20.0502 24.7903 20.6431 24.4675 21.074C24.1447 21.5048 23.6039 22.1778 23.2656 22.5695C22.8182 23.0875 22.5462 23.4883 22.2678 24.0391C22.0115 24.5466 21.8331 25.0217 21.7274 25.4792C21.594 26.0563 21.5745 26.3083 21.6012 27.1077C21.6241 27.7977 21.6769 28.2134 21.7964 28.6451C21.8865 28.9706 22.1004 29.5116 22.2718 29.8474C22.4431 30.1832 22.5833 30.4727 22.5833 30.4905C22.5833 30.5085 22.2869 30.5076 21.9246 30.4888C21.4459 30.4638 21.1976 30.4826 21.0165 30.5574C20.8794 30.614 20.678 30.7459 20.5688 30.8505C20.4578 30.9568 20.326 31.1985 20.2698 31.3987C20.1912 31.6785 20.1734 32.2236 20.1883 33.8933C20.2042 35.6808 20.2258 36.0648 20.3203 36.2435C20.3824 36.361 20.5088 36.5277 20.6013 36.614C20.6936 36.7003 20.8879 36.8205 21.0331 36.8811C21.2085 36.9544 21.524 36.9913 21.9757 36.9913H22.6546V37.5461C22.6546 37.8512 22.704 38.2919 22.7644 38.5254C22.8248 38.7588 22.9419 39.0903 23.0246 39.2619C23.1073 39.4335 23.3334 39.7644 23.5271 39.9972C23.7208 40.23 24.0764 40.5661 24.3174 40.744C24.5584 40.922 25.0485 41.2136 25.4065 41.3919L26.0575 41.7162L26.1386 42.3628C26.1833 42.7184 26.3331 43.7304 26.4717 44.6117C26.6102 45.493 26.8674 46.9673 27.0431 47.8878C27.219 48.8083 27.4878 50.1383 27.6406 50.8433C27.7934 51.5484 28.0013 52.4778 28.1026 52.9087C28.2038 53.3395 28.382 54.0767 28.4984 54.5467C28.6149 55.0167 29.0036 56.2833 29.3623 57.3613L30.0144 59.3213L29.4722 60.673C29.174 61.4164 28.8291 62.2971 28.7058 62.63C28.5825 62.963 28.3359 63.652 28.1578 64.1612C27.9797 64.6704 27.7122 65.4918 27.5633 65.9865C27.4145 66.4812 27.2128 67.2663 27.115 67.7313C27.0173 68.1963 26.9046 68.9324 26.8645 69.3669C26.8167 69.8848 26.815 70.388 26.8596 70.8269C26.8971 71.1953 26.963 71.6699 27.0062 71.8817C27.0494 72.0933 27.1621 72.4719 27.2566 72.723C27.3511 72.974 27.5118 73.3456 27.6139 73.5487C27.7158 73.7519 27.9357 74.1104 28.1024 74.3455C28.269 74.5805 28.6599 75.0159 28.9711 75.3131C29.2823 75.6102 29.8068 76.0195 30.1367 76.2226C30.4667 76.4256 30.9868 76.6882 31.2926 76.8061C31.5983 76.9241 32.1755 77.0989 32.5751 77.1946C32.9748 77.2904 33.5902 77.4012 33.9427 77.4411C34.2952 77.4809 34.7493 77.5138 34.9519 77.5141L35.32 77.5147L35.4325 77.853C35.4944 78.0391 35.773 78.5916 36.0518 79.0809C36.3305 79.5702 36.8776 80.4579 37.2677 81.0534C37.9174 82.0456 38.0075 82.1515 38.3418 82.3182L38.7067 82.5L57.3698 82.4996C70.379 82.4994 76.1159 82.4761 76.3067 82.4232C76.4573 82.3814 76.6895 82.2453 76.8229 82.1209C76.9877 81.967 77.5458 80.9835 78.5679 79.0459C79.3944 77.4791 80.2238 75.8927 80.411 75.5206C80.609 75.1271 80.7722 74.6915 80.8012 74.4796C80.8286 74.2792 80.8182 73.938 80.7781 73.7212C80.738 73.5045 80.6361 73.1802 80.5517 73.0005C80.4672 72.8208 80.2734 72.5453 80.121 72.3882C79.8982 72.1588 79.0507 71.706 75.8017 70.0814C73.079 68.7199 71.6295 68.0331 71.3612 67.9774C71.0719 67.9173 70.8702 67.9154 70.6248 67.9704C70.4389 68.0121 70.1795 68.091 70.0483 68.1457C69.9172 68.2006 69.6588 68.384 69.4742 68.5535C69.2895 68.723 69.0848 68.9491 69.0193 69.056L68.9002 69.2503L68.6597 68.6287C68.5275 68.2868 68.2231 67.6185 67.9834 67.1436C67.7438 66.6687 67.36 66.0012 67.1308 65.6601C66.9015 65.3191 66.4848 64.7782 66.2047 64.4582C65.9247 64.1381 65.4683 63.6905 65.1903 63.4635C64.9124 63.2364 64.4259 62.8948 64.1091 62.7044C63.7924 62.5141 63.253 62.2565 62.9104 62.132C62.568 62.0076 62.0526 61.8604 61.7651 61.805C61.3408 61.7231 60.1481 61.7042 55.4218 61.7042C50.3102 61.7042 49.5539 61.6903 49.2143 61.5909C49.0015 61.5286 48.5069 61.3231 48.1152 61.1343C47.7235 60.9455 46.9926 60.516 46.4909 60.1799C45.9893 59.8439 45.2031 59.2825 44.7437 58.9324C44.2844 58.5824 43.4016 57.8727 42.7819 57.3553C42.1621 56.8379 41.2541 56.0424 40.764 55.5875C40.2739 55.1325 39.7405 54.6575 39.5785 54.5317C39.4166 54.406 39.195 54.2831 39.086 54.2585C38.9296 54.2233 38.8373 54.1132 38.6468 53.735C38.5142 53.4716 38.0975 52.5727 37.7208 51.7376C37.3441 50.9024 37.045 50.2118 37.0561 50.203C37.0672 50.1942 37.7493 50.2917 38.5719 50.4196C39.3945 50.5476 40.6711 50.7272 41.4088 50.819L42.7502 50.9858L43.133 51.7336C43.3436 52.1449 43.6574 52.6756 43.8303 52.913C44.0032 53.1505 44.2646 53.6472 44.4112 54.0169C44.5578 54.3866 44.8085 54.9428 44.9683 55.2529C45.1282 55.5629 45.4643 56.1238 45.7153 56.4992C45.9663 56.8746 46.3958 57.4481 46.6698 57.7736C46.9439 58.0991 47.4252 58.5844 47.7395 58.8521C48.0538 59.1197 48.5456 59.4729 48.8322 59.637C49.119 59.801 49.5877 60.0177 49.8739 60.1186C50.2639 60.256 50.5839 60.3103 51.1523 60.3353C51.7088 60.3598 52.0554 60.3364 52.4564 60.2472C52.7568 60.1804 53.2895 59.982 53.6401 59.8065C53.9907 59.631 54.5096 59.3025 54.7929 59.0767C55.0764 58.8508 55.5647 58.3935 55.878 58.0604C56.1914 57.7273 56.6372 57.1905 56.8685 56.8674C57.1 56.5442 57.4562 55.978 57.66 55.609C57.8639 55.24 58.1671 54.5936 58.3339 54.1727C58.5006 53.7517 58.7409 53.279 58.8679 53.1223C58.9949 52.9656 59.227 52.639 59.3838 52.3963C59.5405 52.1537 59.7595 51.7371 59.8703 51.4705C59.981 51.2039 60.0745 50.9794 60.078 50.9717C60.0815 50.9639 60.9647 50.8428 62.0407 50.7026C63.1166 50.5623 64.4456 50.3826 64.994 50.3033C65.5424 50.2239 66.3757 50.0951 66.8457 50.0171C67.3158 49.9389 67.9787 49.8103 68.3188 49.7312C68.6589 49.6521 68.9719 49.5456 69.0143 49.4944C69.0734 49.4234 69.0452 49.3834 68.8944 49.3241C68.7861 49.2814 68.5051 49.2002 68.2701 49.1436C68.0351 49.087 67.5543 48.9902 67.2018 48.9284C66.8493 48.8666 66.2243 48.7662 65.813 48.7051C65.4017 48.6442 64.3762 48.5014 63.534 48.3879C62.6919 48.2743 61.6824 48.1432 61.2907 48.0966C60.899 48.05 60.5429 47.9838 60.4996 47.9495C60.4562 47.9152 60.4013 47.7017 60.3776 47.475C60.3538 47.2483 60.2705 46.8572 60.1923 46.6059C60.1141 46.3546 60.0568 46.1453 60.065 46.1407C60.0732 46.1361 60.6248 45.7195 61.2907 45.2148C61.9565 44.71 62.886 43.9932 63.356 43.6219C63.826 43.2506 64.5792 42.6421 65.0296 42.2695C65.4801 41.8971 66.049 41.4013 66.2938 41.1678C66.5386 40.9343 66.7389 40.7119 66.7389 40.6735C66.7389 40.6319 66.6017 40.62 66.4006 40.6441C66.2146 40.6663 65.7578 40.7863 65.3857 40.9108C65.0136 41.0352 64.0201 41.4045 63.1779 41.7315C62.3358 42.0584 60.9291 42.627 60.0521 42.995L58.4575 43.664L57.796 43.1349L57.1344 42.6059L57.2785 42.2735C57.3577 42.0906 57.8158 40.9956 58.2966 39.8401C58.7773 38.6845 59.3705 37.2105 59.6149 36.5645C59.8592 35.9185 60.12 35.1512 60.1947 34.8594C60.2869 34.4989 60.3071 34.3057 60.2578 34.2563C60.2084 34.2069 60.0075 34.3653 59.6308 34.7506C59.326 35.0625 58.6934 35.8 58.2251 36.3894C57.7568 36.9789 56.7166 38.3317 55.9136 39.3957C54.8729 40.7745 54.423 41.3187 54.3468 41.2903C54.2881 41.2683 53.956 41.1912 53.6089 41.1189C53.2618 41.0466 52.9685 40.9776 52.9573 40.9657C52.946 40.9537 52.8357 40.1588 52.7122 39.1991C52.5887 38.2394 52.3909 36.7812 52.2727 35.9586C52.1546 35.1361 51.981 34.0464 51.887 33.5372C51.793 33.028 51.6662 32.4445 51.6053 32.2405C51.5443 32.0366 51.4625 31.85 51.4235 31.8259C51.3846 31.8018 51.3078 31.8895 51.253 32.0207C51.1982 32.1519 51.0724 32.675 50.9736 33.1831C50.8747 33.6913 50.6649 35.0043 50.5074 36.1011C50.3498 37.1978 50.1393 38.735 50.0395 39.5169C49.9398 40.2989 49.8346 40.9594 49.8057 40.9847C49.7768 41.01 49.5289 41.0672 49.2547 41.1118C48.9805 41.1564 48.6902 41.2111 48.6096 41.2334C48.4868 41.2673 48.3264 41.0919 47.6176 40.1474C47.1525 39.5279 46.3211 38.4469 45.7701 37.7453C45.2189 37.0436 44.3756 36.0124 43.8961 35.4537C43.4166 34.8951 42.9309 34.3715 42.8168 34.2903C42.7027 34.209 42.5903 34.1426 42.567 34.1426C42.5436 34.1426 42.5245 34.2446 42.5245 34.3693C42.5245 34.4939 42.656 34.9827 42.8168 35.4553C42.9774 35.928 43.391 37.0198 43.7358 37.8815C44.0807 38.7433 44.6543 40.1305 45.0105 40.9642C45.3667 41.798 45.6582 42.5042 45.6582 42.5337C45.6582 42.5632 45.3604 42.8284 44.9964 43.1232L44.3346 43.6591L43.0913 43.1322C42.4075 42.8425 41.1429 42.3237 40.2812 41.9794C39.4194 41.6351 38.4319 41.2504 38.0867 41.1246C37.7415 40.9987 37.2448 40.8345 36.983 40.7596C36.7212 40.6847 36.4027 40.6235 36.2753 40.6235C36.1479 40.6235 36.0437 40.6475 36.0439 40.6769C36.0439 40.7063 36.1642 40.8621 36.3109 41.0233C36.4577 41.1845 36.8182 41.5232 37.1119 41.7761C37.4057 42.029 37.9666 42.4923 38.3583 42.8056C38.75 43.119 39.8877 43.9959 40.8865 44.7545C41.8854 45.513 42.7069 46.1357 42.7121 46.1383C42.7173 46.1408 42.6469 46.4313 42.5555 46.7839C42.4642 47.1364 42.3878 47.53 42.3858 47.6585C42.3837 47.7871 42.3421 47.9062 42.2931 47.9233C42.2442 47.9403 41.2907 48.0677 40.1743 48.2061C39.058 48.3446 37.749 48.5242 37.2654 48.6052C36.7818 48.6863 36.3762 48.7422 36.3639 48.7297C36.3517 48.7171 36.0384 47.9857 35.6678 47.1044C35.2971 46.223 34.7177 44.7765 34.3803 43.8898C34.0428 43.0032 33.5744 41.7013 33.3392 40.9967C33.0918 40.2554 32.8364 39.3143 32.7331 38.763C32.6349 38.2391 32.5114 37.6297 32.4587 37.409L32.3628 37.0077L32.9857 36.9778C33.5138 36.9526 33.6526 36.9189 33.8988 36.756C34.0585 36.6503 34.2539 36.4369 34.333 36.2819C34.4683 36.0167 34.4768 35.8667 34.4768 33.7583C34.4768 32.3477 34.4488 31.4425 34.4011 31.3163C34.3594 31.206 34.2393 31.0248 34.134 30.9136C34.0288 30.8023 33.8607 30.6685 33.7606 30.6162C33.6605 30.5638 33.3 30.5123 32.9594 30.5016C32.6189 30.491 32.3403 30.4746 32.3403 30.4653C32.3403 30.4559 32.4358 30.2003 32.5525 29.8972C32.6692 29.594 32.8113 29.1833 32.8683 28.9846C32.9253 28.7858 33.0221 28.3552 33.0834 28.0277C33.1476 27.6852 33.1949 27.0476 33.1949 26.5269C33.1949 26.0191 33.1445 25.3266 33.0801 24.9501C33.0169 24.5809 32.8874 24.0064 32.7922 23.6734C32.6971 23.3405 32.4626 22.7453 32.2711 22.3509C32.0386 21.8719 31.8284 21.5482 31.6381 21.3763C31.4815 21.2348 31.2308 21.0851 31.0812 21.0435C30.9315 21.0019 30.7433 20.9678 30.6629 20.9676C30.5452 20.9672 30.4863 20.873 30.3615 20.4864C30.2762 20.222 30.0856 19.8016 29.938 19.5522C29.7904 19.3027 29.4669 18.8959 29.2193 18.6482C28.9716 18.4003 28.5527 18.0499 28.2884 17.8693C27.9004 17.6043 27.7334 17.5345 27.4212 17.5076C27.1743 17.4863 26.9573 17.5102 26.8208 17.5736ZM27.9011 21.3974C28.065 21.6993 28.0712 21.7557 28.0263 22.5401C27.989 23.1901 28.0029 23.4474 28.0917 23.7527C28.1551 23.9708 28.3145 24.2689 28.4564 24.4347C28.595 24.5966 28.8749 24.8121 29.0784 24.9135C29.2818 25.0148 29.5395 25.0978 29.6509 25.0978C29.7622 25.0978 29.9499 25.0264 30.0678 24.9393C30.251 24.8038 30.2921 24.796 30.3499 24.8859C30.387 24.9437 30.4475 25.1031 30.4843 25.2402C30.5211 25.3773 30.5722 25.7459 30.5979 26.0593C30.6243 26.3824 30.609 26.891 30.5625 27.2344C30.5173 27.5673 30.415 28.0641 30.3351 28.3382C30.2551 28.6124 30.0807 29.0451 29.9473 29.2997C29.814 29.5543 29.5835 29.9229 29.435 30.1187L29.1651 30.4748L27.5417 30.4809L25.9184 30.4869L25.515 30.0378C25.2931 29.7908 24.9582 29.3233 24.7707 28.9991C24.5833 28.6748 24.3469 28.1439 24.2452 27.8194C24.0936 27.3349 24.067 27.1371 24.0964 26.7155C24.1161 26.4329 24.2035 26.0153 24.2905 25.7876C24.3775 25.5597 24.5899 25.1629 24.7623 24.9057C24.9348 24.6484 25.076 24.4243 25.076 24.4076C25.076 24.3908 25.294 24.1146 25.5603 23.7938C25.8268 23.473 26.2383 22.9541 26.4748 22.6408C26.7113 22.3274 27.0595 21.8378 27.2485 21.5527C27.4375 21.2676 27.6229 21.0445 27.6604 21.0571C27.698 21.0696 27.8062 21.2227 27.9011 21.3974ZM29.3847 33.1345C29.4239 33.1368 30.0087 33.1209 30.6845 33.0993L31.913 33.0599V33.7092V34.3585L27.355 34.3524L22.797 34.3464V33.7064V33.0663L26.0552 33.0983C27.8473 33.1159 29.3455 33.1322 29.3847 33.1345ZM29.8972 37.6541C29.9854 37.9991 30.1257 38.7201 30.209 39.2565C30.3279 40.0233 30.4818 40.597 30.9285 41.941C31.241 42.8811 31.7534 44.3233 32.0672 45.1458C32.3811 45.9684 32.944 47.3785 33.3182 48.2795C33.6923 49.1804 34.3915 50.7828 34.8718 51.8404C35.3521 52.898 36.0945 54.4844 36.5216 55.3657L37.2982 56.9681L37.2069 57.5735C37.1566 57.9064 37.0476 58.5955 36.9646 59.1047C36.8816 59.6139 36.7031 60.5754 36.568 61.2412C36.433 61.9071 36.1787 63.0128 36.0029 63.6983C35.8272 64.3838 35.5814 65.2571 35.4567 65.639C35.332 66.0209 35.2125 66.3334 35.191 66.3334C35.1696 66.3334 34.9488 65.7485 34.7004 65.0336C34.452 64.3187 33.9186 62.7713 33.5151 61.5948C33.0275 60.173 32.7936 59.3927 32.8175 59.2677C32.8372 59.1644 32.8141 58.9572 32.766 58.8074C32.718 58.6575 32.6076 58.4388 32.5208 58.3213C32.4339 58.2038 32.1187 57.3865 31.8204 56.5052C31.5221 55.6239 31.0856 54.1336 30.8503 53.1935C30.615 52.2535 30.3091 50.9649 30.1703 50.3301C30.0316 49.6954 29.7895 48.5096 29.6324 47.695C29.4753 46.8805 29.2364 45.5411 29.1016 44.7185C28.9667 43.896 28.7893 42.6941 28.7071 42.0478C28.625 41.4015 28.5104 40.7058 28.4523 40.5017C28.3772 40.2382 28.274 40.0709 28.0956 39.9239C27.9494 39.8034 27.6157 39.6508 27.2971 39.5587C26.996 39.4716 26.5631 39.3013 26.3351 39.1803C26.1071 39.0592 25.7989 38.822 25.6502 38.6531C25.5014 38.4841 25.3399 38.2032 25.291 38.0288C25.2208 37.7781 25.2203 37.6362 25.2889 37.3505L25.3755 36.9892L27.5562 37.0081L29.7368 37.0269L29.8972 37.6541ZM53.1773 43.6803C53.4936 43.7573 53.9744 43.9036 54.2456 44.0053C54.5167 44.1072 54.9511 44.3165 55.2109 44.4705C55.4707 44.6245 55.8743 44.9103 56.1079 45.1054C56.3415 45.3006 56.6615 45.6299 56.8191 45.8372C56.9767 46.0445 57.16 46.2999 57.2265 46.4046C57.3296 46.5671 57.2618 46.5388 56.7656 46.2123C56.4456 46.0018 55.953 45.7335 55.6708 45.616C55.3887 45.4986 54.8788 45.3216 54.5377 45.2228C54.1966 45.1239 53.6375 44.9964 53.2954 44.9394C52.9532 44.8823 52.3848 44.8167 52.0322 44.7934C51.6797 44.7701 51.0003 44.7833 50.5226 44.8228C50.0448 44.8623 49.3718 44.9578 49.027 45.0352C48.6822 45.1125 48.1757 45.2537 47.9016 45.3489C47.6274 45.4441 47.249 45.5892 47.0608 45.6714C46.8726 45.7535 46.504 45.9507 46.2418 46.1096C45.9796 46.2685 45.6879 46.4523 45.5936 46.5182C45.4227 46.6377 45.4225 46.6375 45.5155 46.4616C45.5669 46.3647 45.7508 46.1 45.9244 45.8734C46.0979 45.6469 46.4293 45.3039 46.6608 45.1112C46.8923 44.9187 47.2982 44.6326 47.5628 44.4757C47.8275 44.3189 48.2552 44.1112 48.5133 44.0142C48.7714 43.9174 49.1872 43.7851 49.4372 43.7203C49.6871 43.6555 50.0849 43.575 50.321 43.5413C50.5571 43.5076 51.1669 43.4936 51.6761 43.5102C52.2559 43.5291 52.817 43.5927 53.1773 43.6803ZM53.2924 47.5946C53.6329 47.6731 54.1538 47.8343 54.4498 47.9529C54.7459 48.0714 55.1723 48.285 55.3975 48.4275C55.6226 48.5699 55.8978 48.7712 56.009 48.8746C56.1203 48.9782 56.2965 49.2071 56.4007 49.3833C56.5701 49.6699 56.5887 49.7679 56.5764 50.3092C56.5689 50.6421 56.5123 51.1549 56.4507 51.4487C56.3892 51.7425 56.2872 52.1431 56.2242 52.3389C56.1611 52.5348 56.0614 52.8392 56.0025 53.0155C55.9436 53.1918 55.7414 53.647 55.5533 54.0272C55.3651 54.4073 55.0832 54.9041 54.927 55.131C54.7707 55.358 54.4881 55.7264 54.299 55.9496C54.1099 56.1728 53.7261 56.5455 53.4461 56.7778C53.1662 57.0101 52.709 57.3144 52.4301 57.4539C52.1512 57.5934 51.7808 57.7289 51.6068 57.755C51.3873 57.7879 51.1666 57.7634 50.8847 57.6747C50.6613 57.6044 50.2513 57.3981 49.9735 57.2163C49.6957 57.0344 49.2832 56.7159 49.0569 56.5085C48.8306 56.301 48.4373 55.8548 48.1828 55.517C47.9283 55.1792 47.5475 54.5663 47.3366 54.155C47.1257 53.7437 46.8377 53.0692 46.6967 52.6561C46.5557 52.243 46.3925 51.6553 46.3341 51.3501C46.2757 51.0449 46.2279 50.5479 46.2279 50.2457C46.2279 49.7605 46.2523 49.6576 46.4363 49.3675C46.551 49.1867 46.8153 48.903 47.0239 48.7369C47.2324 48.5709 47.6915 48.2979 48.044 48.1303C48.3965 47.9628 48.9574 47.7551 49.2903 47.669C49.6233 47.5828 50.0559 47.4866 50.2518 47.4551C50.4476 47.4236 51.0726 47.41 51.6405 47.4248C52.3348 47.4429 52.8761 47.4985 53.2924 47.5946ZM40.6103 58.9088C41.045 59.2907 41.8432 59.9573 42.3842 60.3901C42.9252 60.8229 43.7468 61.4479 44.2101 61.7789C44.6735 62.1099 45.4693 62.6314 45.9786 62.9378C46.4878 63.2442 47.1409 63.6071 47.4297 63.7442C47.7187 63.8814 48.1965 64.0553 48.4916 64.1308C49 64.2608 49.3361 64.268 54.8746 64.2686C58.6294 64.2689 60.8865 64.296 61.1838 64.3442C61.4384 64.3855 61.8319 64.4941 62.0583 64.5855C62.2847 64.6769 62.6476 64.8592 62.8648 64.9906C63.082 65.1219 63.4393 65.3893 63.6587 65.5847C63.8782 65.78 64.2451 66.1756 64.4741 66.4638C64.703 66.7519 65.0684 67.2902 65.286 67.6599C65.5036 68.0297 65.8232 68.6557 65.9962 69.0514C66.1692 69.4469 66.4221 70.0949 66.5583 70.4912C66.6944 70.8876 66.8862 71.5146 66.9846 71.8846L67.1633 72.5572L65.2597 76.2103L63.356 79.8633L51.4625 79.8463L39.569 79.8293L38.7678 78.5166C38.3271 77.7947 37.9666 77.1686 37.9666 77.1254C37.9666 77.0822 38.0707 76.987 38.198 76.9138C38.3254 76.8406 38.6471 76.6069 38.9131 76.3945C39.1792 76.1821 39.6341 75.7231 39.9241 75.3746C40.2142 75.0262 40.7009 74.3636 41.0058 73.9023C41.3106 73.441 41.7931 72.6075 42.0779 72.0502C42.454 71.3141 42.5953 70.9633 42.5942 70.7682C42.5933 70.6205 42.5338 70.3701 42.4619 70.2119C42.39 70.0536 42.228 69.8372 42.1019 69.7311C41.9758 69.625 41.7935 69.5183 41.6968 69.4941C41.6001 69.4698 41.3484 69.4642 41.1376 69.4817C40.8642 69.5044 40.6818 69.5688 40.5012 69.7066C40.3186 69.8458 40.1189 70.1536 39.7852 70.8098C39.5307 71.3104 39.0917 72.0703 38.8096 72.4986C38.4941 72.9777 38.0617 73.51 37.6852 73.8825C37.3488 74.2155 36.8979 74.5841 36.6832 74.7016C36.2993 74.9117 36.2776 74.9149 35.3671 74.8966C34.8579 74.8863 34.1532 74.8289 33.8013 74.7691C33.4493 74.7092 32.9846 74.6098 32.7686 74.5482C32.5526 74.4866 32.2177 74.3692 32.0244 74.2874L31.6729 74.1385L32.1312 74.0529C32.3833 74.0058 32.7756 73.8972 33.0029 73.8115C33.2302 73.7259 33.6469 73.5008 33.9287 73.3114C34.2106 73.1221 34.5817 72.823 34.7534 72.6469C34.925 72.4708 35.285 72.0278 35.5533 71.6625C35.8254 71.2919 36.2481 70.5731 36.5093 70.0367C36.7668 69.5079 37.118 68.7206 37.2898 68.287C37.4615 67.8535 37.7653 66.9722 37.9647 66.3285C38.1641 65.6849 38.4685 64.5814 38.6412 63.8763C38.8138 63.1713 39.0513 62.0976 39.1688 61.4905C39.2862 60.8834 39.452 59.9379 39.5371 59.3896C39.6221 58.8412 39.7032 58.3525 39.7171 58.3035C39.7311 58.2546 39.76 58.2145 39.7813 58.2145C39.8026 58.2145 40.1757 58.527 40.6103 58.9088ZM32.398 66.369C32.79 67.5049 33.223 68.7532 33.3601 69.1428L33.6096 69.8514L33.3877 70.1755C33.2656 70.3538 33.004 70.661 32.8064 70.8583C32.6088 71.0555 32.3189 71.2772 32.1622 71.3509C31.9905 71.4316 31.7205 71.4848 31.4824 71.4848C31.2103 71.4848 30.9666 71.429 30.699 71.3052C30.4853 71.2064 30.1351 70.9928 29.9208 70.8305C29.7064 70.6681 29.5012 70.5353 29.4649 70.5353C29.4259 70.5353 29.4168 70.2628 29.4425 69.8697C29.4666 69.5035 29.5655 68.8386 29.6623 68.3919C29.7591 67.9452 29.9833 67.0798 30.1605 66.4688C30.3377 65.8578 30.6323 64.9444 30.8152 64.4391C30.9981 63.9337 31.1794 63.4401 31.2181 63.3422C31.2826 63.1788 31.3048 63.2112 31.4869 63.7339C31.5961 64.0473 32.0061 65.233 32.398 66.369ZM74.6622 72.4304C76.5912 73.3944 78.1799 74.1927 78.1926 74.2043C78.2053 74.216 77.7582 75.0858 77.199 76.1372C76.6398 77.1886 75.9673 78.4494 75.7047 78.9391L75.2271 79.8293L70.7694 79.8477C68.3176 79.8577 66.3116 79.8484 66.3116 79.8269C66.3116 79.8053 67.101 78.2748 68.0658 76.4256C69.0307 74.5765 70.1071 72.5267 70.4579 71.8706C70.8087 71.2146 71.1091 70.6777 71.1254 70.6777C71.1417 70.6777 72.7333 71.4665 74.6622 72.4304Z" fill="url(#paint0_linear_453_7286)"/>
<defs>
<linearGradient id="paint0_linear_453_7286" x1="9.93564" y1="4.74299" x2="100.909" y2="56.6126" gradientUnits="userSpaceOnUse">
<stop stop-color="#B98300"/>
<stop offset="0.546875" stop-color="#FFF5A4"/>
<stop offset="0.9999" stop-color="#FFFADF"/>
<stop offset="1" stop-color="#785500"/>
</linearGradient>
</defs>
</svg>
