<svg width="101" height="100" viewBox="0 0 101 100" fill="none" xmlns="http://www.w3.org/2000/svg">
<rect width="100" height="100" transform="translate(0.166748)" fill="#12252D"/>
<path fill-rule="evenodd" clip-rule="evenodd" d="M49.2823 17.6751C49.0502 17.7934 48.7072 18.091 48.52 18.3364L48.1795 18.7825L48.1442 23.3665C48.1093 27.9187 48.1109 27.9544 48.3983 28.5222C48.6101 28.9407 48.8397 29.1705 49.2546 29.3798C49.5664 29.537 49.9688 29.6656 50.1488 29.6656C50.3288 29.6656 50.7312 29.5369 51.043 29.3798C51.4572 29.1709 51.6869 28.9412 51.8958 28.527C52.1759 27.9714 52.1816 27.8717 52.1816 23.5276C52.1816 19.6819 52.1541 19.0371 51.9731 18.656C51.8585 18.4143 51.5703 18.0684 51.3325 17.8871C51.0491 17.6708 50.6946 17.5407 50.3023 17.5087C49.9077 17.4767 49.5606 17.5332 49.2823 17.6751ZM27.8106 26.576C27.5785 26.6903 27.247 26.9696 27.074 27.1965C26.9008 27.4234 26.7257 27.8151 26.6849 28.0668C26.6386 28.3525 26.6889 28.7294 26.8189 29.0696C26.9801 29.4919 27.7498 30.3338 30.2343 32.8052C32.9788 35.5354 33.5103 36.0085 33.918 36.0846C34.1801 36.1336 34.606 36.1338 34.8646 36.0853C35.1597 36.03 35.5106 35.8213 35.807 35.525C36.1033 35.2286 36.312 34.8777 36.3673 34.5826C36.4158 34.324 36.4162 33.8981 36.3682 33.636C36.2932 33.2271 35.8282 32.7049 33.0877 29.9534C31.3313 28.1899 29.7119 26.6606 29.4888 26.5548C29.2659 26.4489 28.892 26.3636 28.6579 26.3652C28.4239 26.3667 28.0426 26.4616 27.8106 26.576ZM70.7873 26.5598C70.5736 26.6653 68.9628 28.1933 67.2078 29.9556C64.4692 32.7052 64.0044 33.2271 63.9294 33.636C63.8814 33.8981 63.8818 34.324 63.9303 34.5826C63.9856 34.8777 64.1943 35.2286 64.4906 35.525C64.787 35.8213 65.138 36.03 65.433 36.0853C65.6917 36.1338 66.1177 36.1336 66.3796 36.0846C66.7873 36.0085 67.3188 35.5354 70.0634 32.8052C72.535 30.3465 73.3179 29.4907 73.4771 29.0739C73.6176 28.7059 73.6551 28.3791 73.5943 28.0512C73.5451 27.7861 73.37 27.3915 73.2051 27.1743C73.0403 26.957 72.7077 26.6854 72.466 26.5708C72.2245 26.456 71.8354 26.3636 71.6013 26.3652C71.3673 26.3667 71.001 26.4544 70.7873 26.5598ZM47.4488 33.4122C46.8373 33.5121 45.7253 33.7985 44.9776 34.0488C44.2299 34.2989 43.07 34.7902 42.4001 35.1405C41.7301 35.4909 40.784 36.0705 40.2975 36.4288C39.811 36.787 38.8984 37.6001 38.2695 38.2359C37.6406 38.8716 36.8036 39.8762 36.4093 40.4683C36.0152 41.0605 35.4929 41.9451 35.2487 42.4343C35.0045 42.9234 34.6334 43.8096 34.4239 44.4036C34.2143 44.9976 33.9377 45.9695 33.8092 46.5635C33.6364 47.3613 33.5746 48.191 33.572 49.7398C33.5699 51.0236 33.6366 52.1808 33.7442 52.7255C33.8406 53.2146 34.1119 54.2071 34.3469 54.9312C34.582 55.6551 35.0912 56.8558 35.4787 57.5993C35.8662 58.3427 36.5552 59.4725 37.0099 60.11C37.4645 60.7475 38.4429 61.9195 39.184 62.7145C39.9251 63.5096 40.7716 64.5317 41.0653 64.9859C41.3589 65.4401 41.8717 66.3427 42.2048 66.9916C42.6407 67.841 42.9154 68.2257 43.1855 68.3655C43.4193 68.4865 43.7002 68.5289 43.931 68.4782C44.1347 68.4335 44.4164 68.2505 44.557 68.0718C44.6977 67.893 44.8126 67.6106 44.8126 67.444C44.8126 67.2774 44.5207 66.5595 44.1639 65.8484C43.807 65.1374 43.2613 64.1704 42.9511 63.6994C42.6408 63.2286 41.7718 62.1844 41.0199 61.3793C40.2679 60.5742 39.3266 59.4624 38.9279 58.9087C38.5292 58.3551 37.9229 57.3663 37.5804 56.7113C37.238 56.0564 36.7832 55.0218 36.5701 54.4121C36.357 53.8023 36.0879 52.8018 35.9722 52.1887C35.8124 51.3419 35.7779 50.6461 35.8285 49.2951C35.8784 47.962 35.9774 47.198 36.2236 46.2458C36.4279 45.4553 36.8384 44.3993 37.31 43.4507C37.7718 42.522 38.3982 41.5143 38.9128 40.8723C39.3774 40.2927 40.143 39.4867 40.6144 39.081C41.0856 38.6755 41.7286 38.1665 42.0432 37.95C42.3579 37.7335 43.124 37.302 43.7458 36.9913C44.3675 36.6805 45.2592 36.3085 45.7274 36.1648C46.1956 36.021 47.0452 35.8149 47.6154 35.7067C48.1895 35.5978 49.3316 35.51 50.1746 35.51C51.2045 35.51 52.1068 35.5935 52.9634 35.768C53.6599 35.9099 54.5898 36.1616 55.0299 36.3273C55.47 36.493 56.19 36.8071 56.63 37.0253C57.0698 37.2436 57.8354 37.6915 58.3313 38.0205C58.8273 38.3496 59.719 39.1064 60.3129 39.7023C60.9069 40.2982 61.6681 41.1996 62.0044 41.7053C62.3408 42.2111 62.8725 43.1665 63.1861 43.8284C63.4996 44.4904 63.9063 45.5909 64.0898 46.2742C64.3909 47.3951 64.4238 47.7395 64.4261 49.8033C64.4284 51.7436 64.3882 52.2352 64.1618 53.047C64.0151 53.5733 63.7193 54.4596 63.5045 55.0166C63.2896 55.5736 62.8207 56.5406 62.4624 57.1655C62.104 57.7905 61.509 58.71 61.14 59.2088C60.7712 59.7077 59.894 60.7277 59.1909 61.4755C58.4877 62.2233 57.6586 63.219 57.3484 63.6882C57.0382 64.1574 56.492 65.1262 56.1347 65.8412C55.7773 66.5562 55.485 67.2774 55.485 67.444C55.485 67.6106 55.6 67.893 55.7406 68.0718C55.8812 68.2505 56.1629 68.4335 56.3666 68.4782C56.5974 68.5289 56.8783 68.4865 57.1121 68.3655C57.3822 68.2257 57.6569 67.841 58.0928 66.9916C58.426 66.3427 58.9372 65.4398 59.229 64.9852C59.5208 64.5304 60.3626 63.5152 61.0996 62.7289C61.8367 61.9425 62.8165 60.7709 63.277 60.1251C63.7376 59.4794 64.4314 58.3427 64.8189 57.5993C65.2064 56.8558 65.7157 55.6551 65.9507 54.9312C66.1858 54.2071 66.457 53.2146 66.5534 52.7255C66.6611 52.1808 66.7278 51.0236 66.7256 49.7398C66.7231 48.191 66.6612 47.3613 66.4884 46.5635C66.3599 45.9695 66.0841 44.9976 65.8756 44.4036C65.6671 43.8096 65.2321 42.8091 64.9089 42.1802C64.5857 41.5513 63.9048 40.4837 63.3961 39.8078C62.8872 39.1317 62.0308 38.1731 61.4929 37.6775C60.955 37.1819 60.0549 36.469 59.4928 36.0934C58.9306 35.7178 58.0133 35.1837 57.4543 34.9065C56.8952 34.6293 55.9805 34.2526 55.4214 34.0694C54.8624 33.8861 54.0048 33.647 53.5157 33.538C53.0043 33.4239 51.7622 33.3166 50.5935 33.2852C49.1941 33.2477 48.2142 33.2872 47.4488 33.4122ZM49.5852 41.2473C49.2403 41.2983 48.815 41.4468 48.6402 41.5775C48.4654 41.7079 48.2044 41.9725 48.0603 42.1652C47.8175 42.4899 47.7957 42.7177 47.762 45.2701C47.727 47.9214 47.747 48.185 48.2975 52.3125C48.612 54.6709 48.9299 56.7136 49.0038 56.8517C49.0778 56.9898 49.2475 57.1613 49.381 57.2329C49.5146 57.3044 49.8527 57.3628 50.1322 57.3628C50.4118 57.3628 50.7881 57.3067 50.9687 57.2381C51.1492 57.1695 51.3568 56.9555 51.4301 56.7626C51.5036 56.5697 51.8169 54.5048 52.1266 52.1739C52.6302 48.384 52.6898 47.6715 52.6898 45.4344C52.6898 43.0906 52.6718 42.8975 52.404 42.3733C52.2467 42.0657 51.974 41.7091 51.7978 41.5811C51.6217 41.4531 51.1929 41.3047 50.8449 41.2513C50.4971 41.1981 49.9302 41.1962 49.5852 41.2473ZM18.917 48.0477C18.6849 48.162 18.3419 48.4564 18.1547 48.7019C17.8795 49.0627 17.8142 49.284 17.8142 49.8569C17.8142 50.4016 17.8848 50.6646 18.1193 50.9934C18.2871 51.2285 18.6587 51.5275 18.9451 51.6576C19.4204 51.8733 19.8494 51.8943 23.854 51.8968C28.1548 51.8996 28.2534 51.8939 28.809 51.6138C29.2232 51.4049 29.4529 51.1752 29.6618 50.761C29.819 50.4492 29.9476 50.0468 29.9476 49.8668C29.9476 49.6868 29.8189 49.2844 29.6618 48.9726C29.4529 48.5584 29.2232 48.3287 28.809 48.1198C28.2529 47.8394 28.1572 47.834 23.7905 47.8369C19.9292 47.8394 19.2829 47.8674 18.917 48.0477ZM71.4886 48.1198C71.0744 48.3287 70.8447 48.5584 70.6359 48.9726C70.4786 49.2844 70.35 49.6868 70.35 49.8668C70.35 50.0468 70.4786 50.4492 70.6359 50.761C70.8447 51.1752 71.0744 51.4049 71.4886 51.6138C72.0438 51.8938 72.1455 51.8996 76.4485 51.8996C80.7514 51.8996 80.8531 51.8938 81.4083 51.6138C81.8204 51.4059 82.0555 51.1717 82.2693 50.7562C82.4851 50.3366 82.5485 50.0409 82.5073 49.6452C82.4748 49.3319 82.3147 48.927 82.1251 48.6785C81.9457 48.4433 81.6013 48.1571 81.3596 48.0425C80.9785 47.8616 80.3337 47.834 76.488 47.834C72.144 47.834 72.0442 47.8397 71.4886 48.1198ZM48.8665 59.8794C48.5454 60.0856 48.1452 60.4756 47.9771 60.7461C47.7339 61.1373 47.6713 61.4112 47.6713 62.0846C47.6713 62.8226 47.7209 63.0018 48.0578 63.481C48.2702 63.7835 48.6704 64.1623 48.9472 64.3228C49.3616 64.5635 49.5977 64.6078 50.29 64.5749C50.9541 64.5433 51.2418 64.4608 51.6653 64.1806C52.0346 63.9361 52.2961 63.6215 52.5076 63.1673C52.6764 62.805 52.8144 62.3083 52.8144 62.0637C52.8144 61.8192 52.6764 61.3225 52.5076 60.9602C52.2961 60.506 52.0346 60.1914 51.6653 59.9469C51.2449 59.6687 50.9494 59.5831 50.29 59.5485C49.5365 59.509 49.3899 59.543 48.8665 59.8794ZM33.5686 63.7704C33.359 63.865 31.7759 65.3635 30.0507 67.1004C28.3256 68.8375 26.8533 70.4195 26.7791 70.6162C26.705 70.8129 26.6443 71.144 26.6443 71.3518C26.6443 71.5597 26.7609 71.9584 26.9035 72.2379C27.0462 72.5174 27.3462 72.8579 27.5705 72.9947C27.7949 73.1316 28.1666 73.2791 28.3967 73.3225C28.6564 73.3717 29.0201 73.3233 29.3559 73.1951C29.7727 73.0359 30.6285 72.253 33.0872 69.7814C35.8174 67.0368 36.2905 66.5053 36.3666 66.0976C36.4156 65.8357 36.4184 65.4227 36.3729 65.1802C36.3273 64.9378 36.1427 64.564 35.9624 64.3499C35.7821 64.1357 35.4728 63.8766 35.275 63.7744C35.0771 63.6721 34.698 63.5907 34.4325 63.5933C34.167 63.5961 33.7782 63.6758 33.5686 63.7704ZM64.8769 63.8773C64.6411 64.0361 64.3181 64.3591 64.1593 64.5949C63.9851 64.8533 63.8704 65.2146 63.8704 65.5047C63.8704 65.7693 63.9311 66.1468 64.0052 66.3435C64.0794 66.5401 65.5504 68.1164 67.2739 69.8462C69.672 72.2529 70.534 73.0395 70.9452 73.1965C71.278 73.3236 71.6417 73.3716 71.9009 73.3225C72.131 73.2791 72.509 73.1278 72.7408 72.9864C73.0005 72.8281 73.2614 72.5055 73.4202 72.1467C73.6194 71.6962 73.658 71.4304 73.5903 70.9748C73.5063 70.4104 73.3681 70.2499 70.3064 67.1631C68.5485 65.3906 66.9262 63.8613 66.7013 63.7645C66.4764 63.6676 66.0704 63.5884 65.799 63.5884C65.4961 63.5884 65.14 63.6999 64.8769 63.8773ZM43.5561 69.7371C43.3892 69.8296 43.1767 70.0421 43.0842 70.209C42.9916 70.3761 42.9139 70.6743 42.9113 70.8718C42.9085 71.1036 43.0386 71.3628 43.2782 71.6024L43.6496 71.9738H50.1488H56.648L57.0194 71.6024C57.2413 71.3804 57.3907 71.0967 57.3907 70.8973C57.3907 70.7138 57.3093 70.4061 57.2097 70.2135C57.1101 70.0209 56.8787 69.7951 56.6955 69.7116C56.4512 69.6003 54.6956 69.5609 50.1111 69.5642C45.1664 69.5678 43.7962 69.604 43.5561 69.7371ZM43.2358 73.6352C43.047 73.8596 42.9069 74.1834 42.9069 74.3955C42.9069 74.6242 43.0482 74.923 43.2776 75.1798L43.6483 75.5947H50.1488H56.6493L57.02 75.1798C57.2495 74.923 57.3907 74.6242 57.3907 74.3955C57.3907 74.1834 57.2506 73.8596 57.0618 73.6352L56.7329 73.2443H50.1488H43.5647L43.2358 73.6352ZM43.3734 77.0613C43.1919 77.2041 43.0089 77.5048 42.9667 77.7297C42.9245 77.9545 42.9485 78.2923 43.0201 78.4804C43.0916 78.6685 43.3212 78.9109 43.5303 79.019C43.8585 79.1888 44.7665 79.2157 50.1488 79.2157C55.3554 79.2157 56.446 79.1852 56.7439 79.0311C56.9402 78.9296 57.1715 78.6761 57.2577 78.4677C57.3473 78.2515 57.378 77.9226 57.3294 77.701C57.2825 77.4877 57.0979 77.198 56.9191 77.0573C56.6031 76.8088 56.4147 76.8017 50.1488 76.8017C43.8502 76.8017 43.696 76.8077 43.3734 77.0613ZM46.3373 80.5243C46.3373 80.6313 46.5964 80.9469 46.9133 81.2258C47.2301 81.5047 47.7558 81.858 48.0816 82.0112C48.4073 82.1643 49.0057 82.3513 49.4114 82.4268C49.9505 82.527 50.36 82.5246 50.9344 82.4178C51.3665 82.3375 52.019 82.1203 52.3845 81.9354C52.7502 81.7505 53.2649 81.3784 53.5283 81.1085C53.7918 80.8387 53.9825 80.5948 53.9521 80.5665C53.9217 80.5383 52.196 80.4735 50.117 80.4226C46.7691 80.3406 46.3373 80.3523 46.3373 80.5243Z" fill="url(#paint0_linear_453_7290)"/>
<defs>
<linearGradient id="paint0_linear_453_7290" x1="6.87817" y1="4.74299" x2="100.764" y2="61.8677" gradientUnits="userSpaceOnUse">
<stop stop-color="#B98300"/>
<stop offset="0.546875" stop-color="#FFF5A4"/>
<stop offset="0.9999" stop-color="#FFFADF"/>
<stop offset="1" stop-color="#785500"/>
</linearGradient>
</defs>
</svg>
