<svg width="101" height="100" viewBox="0 0 101 100" fill="none" xmlns="http://www.w3.org/2000/svg">
<rect width="100" height="100" transform="translate(0.833252)" fill="#12252D"/>
<path fill-rule="evenodd" clip-rule="evenodd" d="M30.9488 17.6397C30.7997 17.7181 26.243 22.302 20.8226 27.8263C12.3077 36.5043 10.9599 37.9103 10.9122 38.1645C10.8778 38.3482 10.899 38.5628 10.9687 38.7361C11.0417 38.9176 12.4195 40.3353 14.957 42.8401C17.9507 45.795 18.8934 46.6797 19.095 46.724C19.2387 46.7555 19.4645 46.7576 19.5969 46.7285C19.7763 46.6891 21.4084 45.0869 26.0196 40.4233C29.4198 36.9846 33.9334 32.417 36.05 30.2732C39.0038 27.2813 39.9162 26.3101 39.9758 26.0945C40.0251 25.9158 40.0247 25.7099 39.9747 25.5287C39.9115 25.2997 39.119 24.5026 35.942 21.4723C33.7674 19.3979 31.8886 17.6565 31.7671 17.6025C31.6454 17.5484 31.4726 17.5027 31.3829 17.5007C31.2932 17.4987 31.0978 17.5613 30.9488 17.6397ZM69.5011 17.626C69.3224 17.7029 67.8045 19.1566 65.4391 21.5162C63.3618 23.5883 61.6099 25.3827 61.5457 25.5037C61.4815 25.6249 61.4303 25.845 61.4319 25.993C61.4335 26.1409 61.4793 26.3405 61.5338 26.4365C61.5882 26.5325 66.1549 31.1483 71.6819 36.6937C78.475 43.5097 81.8244 46.8155 82.0196 46.8971C82.2443 46.9909 82.3784 46.9988 82.6244 46.9326C82.8913 46.8607 83.5351 46.2441 86.7593 42.9727C89.5917 40.0989 90.6083 39.0168 90.6949 38.7842C90.7959 38.5122 90.7959 38.431 90.6949 38.1739C90.6117 37.9623 87.7034 34.9873 80.5511 27.7975C74.3553 21.5691 70.423 17.6754 70.2597 17.6073C70.1144 17.5465 69.9485 17.4983 69.891 17.5C69.8335 17.5018 69.6581 17.5585 69.5011 17.626ZM34.5162 22.9472L37.5433 25.8291L35.6095 27.7987C34.546 28.8819 30.4645 33.0245 26.5397 37.0044C22.6149 40.9845 19.3737 44.2408 19.3371 44.2408C19.3005 44.2408 17.9417 42.9237 16.3175 41.314L13.3645 38.3872L14.0963 37.6244C14.4988 37.2049 18.5494 33.0722 23.0975 28.4404C27.6457 23.8088 31.3944 20.0295 31.4281 20.0422C31.4617 20.0549 32.8514 21.3622 34.5162 22.9472ZM79.0816 29.212C84.1043 34.2639 88.2137 38.4434 88.2137 38.4997C88.2137 38.5561 86.8958 39.9288 85.285 41.5503L82.3562 44.4984L73.1124 35.2547L63.8687 26.011L66.8684 23.0187C68.5182 21.3729 69.8864 20.0264 69.9088 20.0265C69.9312 20.0267 74.059 24.1601 79.0816 29.212ZM38.6396 30.083C38.5051 30.1441 38.3297 30.2676 38.2499 30.3573C38.17 30.4469 38.0719 30.6347 38.0317 30.7745C37.9877 30.9281 37.9896 31.1403 38.0366 31.3105C38.0794 31.4654 38.2194 31.6804 38.3476 31.7884C38.5441 31.9538 38.7288 31.9997 39.5234 32.0802C40.0419 32.1327 40.8853 32.2816 41.3976 32.411C41.9101 32.5404 42.6732 32.7821 43.0936 32.948C43.514 33.1139 44.1698 33.4163 44.551 33.6199C44.9322 33.8234 45.5192 34.1747 45.8556 34.4005C46.1919 34.6263 46.7703 35.06 47.1409 35.3641C47.5648 35.712 47.9197 35.9368 48.0974 35.9701C48.2986 36.0079 48.4666 35.9783 48.68 35.8676C48.8449 35.782 49.0473 35.586 49.1299 35.432C49.2125 35.278 49.2799 35.0597 49.2798 34.947C49.2796 34.8341 49.2083 34.625 49.1213 34.4824C49.0343 34.3397 48.7134 34.0158 48.4081 33.7626C48.103 33.5093 47.5773 33.1067 47.2401 32.8677C46.9028 32.6287 46.224 32.209 45.7316 31.935C45.2392 31.661 44.4511 31.2854 43.9802 31.1004C43.5094 30.9154 42.7755 30.6633 42.3495 30.5402C41.9235 30.417 41.2263 30.2594 40.8003 30.19C40.3743 30.1204 39.7689 30.0429 39.455 30.0176C39.0593 29.9858 38.8091 30.0058 38.6396 30.083ZM60.2498 30.0972C59.8479 30.1619 59.1875 30.3101 58.7822 30.4265C58.3769 30.5428 57.7334 30.7661 57.3522 30.9225C56.971 31.0789 56.3473 31.3744 55.9661 31.5792C55.5849 31.784 54.9978 32.1353 54.6615 32.36C54.3252 32.5846 53.7197 33.0324 53.3161 33.355C52.9125 33.6776 51.7384 34.7496 50.707 35.7371C49.6755 36.7247 47.492 38.8861 45.8546 40.5402C44.2172 42.1944 41.8056 44.6609 40.4954 46.0216C38.7403 47.8443 38.0929 48.5691 38.036 48.775C37.9895 48.9434 37.9878 49.1557 38.0317 49.3088C38.0719 49.4487 38.17 49.637 38.2499 49.7274C38.3297 49.8177 38.7252 50.11 39.1288 50.377C39.5324 50.6439 40.1745 51.0193 40.5557 51.2113C40.9369 51.4031 41.5668 51.6723 41.9554 51.8095C42.344 51.9466 42.9386 52.116 43.2769 52.1859C43.6151 52.2557 44.2327 52.3123 44.6495 52.3117C45.0662 52.311 45.6419 52.2552 45.9287 52.1876C46.2155 52.1199 46.7103 51.928 47.0281 51.761C47.5024 51.5116 48.0067 51.0739 49.8426 49.3167C51.0727 48.1394 52.1032 47.1761 52.1326 47.1761C52.1619 47.1761 52.3799 47.3207 52.6168 47.4975C52.8537 47.6744 53.3292 47.9655 53.6734 48.1445C54.0174 48.3236 54.5732 48.5475 54.9083 48.642C55.2434 48.7367 55.8369 48.8361 56.2272 48.8631C56.6482 48.8921 57.1894 48.8712 57.5581 48.8117C57.8999 48.7566 58.4245 48.6281 58.7239 48.5261C59.0233 48.4242 59.5251 48.2105 59.8391 48.0512C60.153 47.8921 60.6666 47.579 60.9806 47.3556C61.2945 47.1322 61.8308 46.7083 62.1725 46.4137C62.514 46.119 62.8569 45.7445 62.9343 45.5814C63.0296 45.3805 63.0579 45.1944 63.0222 45.0039C62.9932 44.8493 62.8705 44.6131 62.7496 44.479C62.6108 44.325 62.4187 44.2175 62.2284 44.1872C62.0627 44.1609 61.8374 44.1619 61.7278 44.1893C61.6183 44.2169 61.2817 44.4631 60.9799 44.7366C60.6781 45.01 60.2063 45.4005 59.9314 45.6042C59.6563 45.808 59.1432 46.115 58.791 46.2864C58.4388 46.4578 57.8739 46.6596 57.5356 46.7348C57.1073 46.8301 56.7326 46.8576 56.3007 46.8256C55.9597 46.8002 55.4524 46.7006 55.1733 46.6041C54.8943 46.5077 54.4376 46.2812 54.1586 46.1009C53.8796 45.9205 53.4227 45.5535 53.1434 45.2854C52.7462 44.9039 52.5661 44.7884 52.3164 44.7549C52.1144 44.7278 51.91 44.7573 51.7591 44.8353C51.628 44.903 51.0626 45.3747 50.5024 45.8835C49.9422 46.3922 48.7994 47.4787 47.9627 48.2979C46.7477 49.4876 46.3458 49.8311 45.9666 50.0048C45.6258 50.1608 45.313 50.2324 44.8578 50.2588C44.5092 50.279 43.9947 50.2506 43.7147 50.1958C43.4347 50.1409 42.9855 50.0215 42.7164 49.9303C42.4473 49.8392 41.8695 49.5824 41.4322 49.3596C40.995 49.137 40.6372 48.9242 40.6372 48.8869C40.6372 48.8496 41.3769 48.0549 42.281 47.1211C43.1852 46.1871 45.5792 43.7589 47.6013 41.725C49.6234 39.691 51.9565 37.3824 52.7862 36.5948C53.6158 35.8071 54.6516 34.8962 55.088 34.5704C55.5243 34.2448 56.2398 33.7761 56.678 33.529C57.1161 33.282 57.7889 32.9538 58.1733 32.7998C58.5575 32.6458 59.0712 32.4618 59.3148 32.3911C59.5582 32.3204 60.0833 32.2059 60.4816 32.1365C60.8799 32.0671 61.5715 32.0103 62.0186 32.0103C62.8305 32.0103 62.8318 32.01 63.1022 31.7396C63.2597 31.582 63.3959 31.3465 63.4278 31.1767C63.4655 30.9759 63.4399 30.7945 63.3457 30.5962C63.2703 30.4375 63.111 30.2422 62.9916 30.1622C62.8214 30.0483 62.5801 30.0128 61.8775 29.9982C61.3842 29.9879 60.6517 30.0324 60.2498 30.0972ZM24.0116 44.8332C23.9039 44.8885 23.7387 45.0376 23.6447 45.1645C23.486 45.3787 23.4741 45.4978 23.4773 46.836C23.4799 47.8782 23.521 48.4799 23.6263 49.0107C23.7063 49.4143 23.8964 50.1301 24.0486 50.6013C24.2008 51.0725 24.4909 51.7825 24.6933 52.179C24.8956 52.5755 25.2335 53.144 25.4442 53.4422C25.6548 53.7404 26.138 54.3045 26.5181 54.6957C26.9368 55.1267 27.3166 55.4425 27.4821 55.497C27.6322 55.5466 27.8651 55.563 27.9997 55.5335C28.1342 55.5039 28.3528 55.3712 28.4855 55.2385C28.6182 55.1058 28.75 54.8735 28.7783 54.7221C28.8067 54.5708 28.8038 54.3646 28.7718 54.2639C28.7399 54.1632 28.427 53.7764 28.0766 53.4044C27.7262 53.0324 27.2857 52.5015 27.0976 52.2247C26.9097 51.9479 26.5977 51.3866 26.4043 50.9776C26.2109 50.5684 25.9762 49.9585 25.8827 49.6222C25.7891 49.2859 25.6585 48.6804 25.5924 48.2768C25.5263 47.8732 25.472 47.0526 25.4718 46.453L25.4715 45.3631L25.155 45.0465C24.8955 44.7872 24.7814 44.7303 24.523 44.7312C24.3495 44.7319 24.1194 44.7777 24.0116 44.8332ZM76.6355 44.8078C76.5459 44.8449 76.3809 44.9738 76.269 45.0942C76.0738 45.3042 76.0632 45.3706 76.0098 46.7135C75.9668 47.7981 75.908 48.2991 75.7491 48.936C75.6362 49.3882 75.4288 50.0486 75.2882 50.4036C75.1476 50.7586 74.9196 51.2509 74.7816 51.4975C74.6436 51.7442 74.3635 52.1845 74.1594 52.476C73.9551 52.7675 73.4418 53.3635 73.0188 53.8005C72.2982 54.5448 72.2471 54.6201 72.2115 54.99C72.1775 55.3444 72.2002 55.4152 72.4336 55.6809C72.5983 55.8685 72.7956 55.9961 72.9721 56.0292C73.1253 56.058 73.3378 56.0597 73.4443 56.0329C73.5508 56.0062 73.8371 55.8203 74.0805 55.62C74.3239 55.4196 74.7782 54.9573 75.0901 54.5926C75.402 54.228 75.8547 53.6301 76.0961 53.2639C76.3375 52.8978 76.6909 52.268 76.8814 51.8644C77.0718 51.4608 77.3437 50.7678 77.4853 50.3243C77.627 49.8807 77.8148 49.0974 77.9027 48.5835C78.0027 47.9988 78.0624 47.2698 78.0624 46.6354C78.0624 45.9376 78.0258 45.5341 77.945 45.3407C77.8804 45.1861 77.7062 44.9857 77.5577 44.8952C77.4093 44.8047 77.1778 44.7328 77.0432 44.7355C76.9087 44.7382 76.7252 44.7707 76.6355 44.8078ZM62.6675 49.538C62.5191 49.6311 62.3418 49.8409 62.2736 50.0041C62.1929 50.1973 62.1687 50.4026 62.2043 50.5926C62.2511 50.842 62.9227 51.552 66.8381 55.4919C70.3412 59.0169 71.4738 60.205 71.6579 60.5481C71.8573 60.9197 71.9041 61.1151 71.9307 61.6896C71.9568 62.2535 71.9303 62.4688 71.7884 62.8453C71.6886 63.1102 71.4728 63.4534 71.2837 63.6482C71.1021 63.8354 70.7826 64.0651 70.5738 64.1585C70.3155 64.2742 69.9639 64.3401 69.4735 64.3647L68.7528 64.4009L64.8667 60.5235C61.5323 57.1966 60.9391 56.6386 60.688 56.5928C60.4994 56.5585 60.2899 56.5837 60.0987 56.6636C59.9354 56.7318 59.7256 56.909 59.6325 57.0575C59.5087 57.2549 59.4725 57.4195 59.4981 57.6706C59.5317 58.0014 59.6941 58.1767 63.9556 62.4813C66.3881 64.9383 68.5175 67.1321 68.6879 67.3563C68.8582 67.5806 69.0605 67.9582 69.1375 68.1955C69.2382 68.5058 69.2668 68.7943 69.2392 69.2233C69.2148 69.6034 69.1363 69.9532 69.0225 70.1883C68.9243 70.391 68.7145 70.6903 68.5564 70.8531C68.3983 71.0159 68.115 71.2314 67.927 71.3319C67.6283 71.4915 67.4634 71.5147 66.6246 71.5147H65.6641L65.4448 71.2293C65.3242 71.0724 64.2829 69.9716 63.1308 68.7832C61.9786 67.5948 59.9227 65.5157 58.5622 64.1629C56.423 62.036 56.0468 61.6956 55.7812 61.6464C55.5926 61.6114 55.3797 61.6285 55.2292 61.6908C55.0945 61.7466 54.8934 61.9004 54.7822 62.0325C54.636 62.2063 54.58 62.3693 54.58 62.6213C54.58 62.8749 54.6432 63.0569 54.8122 63.2903C54.9399 63.4666 55.3448 63.8821 55.7118 64.2135C56.0789 64.545 58.0694 66.5376 60.135 68.6415C63.2813 71.8461 63.9259 72.5417 64.1072 72.9285C64.2888 73.3159 64.3233 73.5013 64.3219 74.0831C64.3206 74.6337 64.2807 74.8646 64.1274 75.2066C64.0117 75.4648 63.7755 75.78 63.5374 75.9941C63.319 76.1905 62.9689 76.4095 62.7594 76.4809C62.5498 76.5523 62.1372 76.6104 61.8426 76.61C61.5478 76.6097 61.1232 76.5866 60.899 76.5589L60.4913 76.5084L60.2141 75.9082C60.0198 75.4875 59.725 75.07 59.2282 74.5121C58.8384 74.0744 58.3333 73.5434 58.1059 73.3322C57.8785 73.1211 57.5973 72.9244 57.481 72.8952C57.3647 72.866 57.1442 72.8656 56.991 72.8944C56.8171 72.927 56.6181 73.054 56.4615 73.2323C56.264 73.4572 56.2107 73.5931 56.2107 73.8711C56.2107 74.1071 56.2695 74.3022 56.3879 74.4594C56.4853 74.5888 56.9249 75.0646 57.3646 75.5168C57.9295 76.0976 58.2299 76.4807 58.3878 76.8214C58.5733 77.2215 58.6112 77.415 58.6103 77.9561C58.6094 78.4564 58.5663 78.7034 58.4252 79.016C58.324 79.2403 58.0908 79.5775 57.9067 79.7655C57.7227 79.9535 57.3851 80.1898 57.1564 80.2907C56.8424 80.4292 56.5796 80.4752 56.0823 80.4789C55.4397 80.4836 55.4115 80.4754 54.9076 80.1372C54.5321 79.8851 54.3093 79.7906 54.0901 79.7906C53.9113 79.7906 53.676 79.8665 53.5117 79.9771C53.3359 80.0953 53.1959 80.281 53.1287 80.4848C53.0385 80.7586 53.0418 80.8558 53.1506 81.1409C53.2477 81.395 53.4104 81.5704 53.827 81.8701C54.1287 82.0872 54.5408 82.3172 54.7428 82.3811C54.9698 82.4531 55.4678 82.4985 56.0476 82.4999C56.7807 82.5018 57.1009 82.465 57.5153 82.3317C57.8068 82.2379 58.2654 82.0312 58.5345 81.8724C58.8035 81.7137 59.2173 81.3751 59.4539 81.1201C59.6905 80.865 60.0108 80.4031 60.1658 80.0935C60.3207 79.7838 60.4902 79.323 60.5426 79.0695L60.6379 78.6084L61.5838 78.6365C62.2809 78.6573 62.6692 78.6287 63.0597 78.5277C63.3512 78.4524 63.8099 78.2746 64.0789 78.1327C64.348 77.9907 64.7912 77.6492 65.0637 77.3737C65.385 77.0491 65.6653 76.6583 65.8608 76.2625C66.0268 75.9267 66.2159 75.3999 66.2812 75.0918C66.3465 74.7837 66.4005 74.3206 66.4013 74.0627L66.4027 73.5939L66.9123 73.5927C67.1927 73.592 67.657 73.5361 67.9443 73.4683C68.2317 73.4006 68.6903 73.2282 68.9635 73.0852C69.2407 72.9401 69.6989 72.5855 70 72.2833C70.3408 71.9411 70.633 71.5496 70.7931 71.2204C70.9326 70.9338 71.1026 70.4807 71.1708 70.2134C71.2391 69.9461 71.2949 69.4126 71.2949 69.0278C71.2949 68.6431 71.2381 68.1096 71.1685 67.8423C71.0991 67.575 70.9339 67.1395 70.8016 66.8745C70.6694 66.6095 70.5611 66.383 70.5611 66.3712C70.5611 66.3594 70.6987 66.3058 70.8668 66.252C71.0351 66.1983 71.4204 66.0258 71.7231 65.8686C72.0827 65.6821 72.4423 65.4027 72.7594 65.0637C73.0584 64.7441 73.3526 64.3171 73.5249 63.9528C73.6788 63.6274 73.8521 63.1593 73.9099 62.9126C73.9678 62.666 74.0134 62.1706 74.0115 61.8119C74.0094 61.4531 73.9488 60.9312 73.8766 60.652C73.8044 60.3729 73.637 59.9326 73.5044 59.6736C73.3718 59.4146 73.1106 59.0193 72.9242 58.795C72.7376 58.5708 70.661 56.4427 68.3095 54.0659C65.9581 51.6891 63.939 49.6753 63.8227 49.5907C63.7063 49.5061 63.4596 49.4215 63.2743 49.4028C63.0302 49.3781 62.8631 49.4153 62.6675 49.538ZM34.3013 52.5989C34.0229 52.6594 33.5459 52.8262 33.2413 52.9697C32.7383 53.2066 32.4176 53.4992 29.748 56.1572C27.8087 58.0879 26.7143 59.2392 26.5316 59.5406C26.3793 59.7919 26.1839 60.2039 26.0974 60.4562C26.0094 60.7131 25.9231 61.2379 25.9013 61.6488C25.8745 62.156 25.9025 62.5526 25.992 62.933C26.0632 63.2357 26.2371 63.7127 26.3786 63.993C26.5387 64.3103 26.8583 64.7253 27.226 65.0931C27.662 65.5292 27.9772 65.7599 28.432 65.9759C28.7706 66.1367 29.2979 66.3091 29.6037 66.359C29.9096 66.409 30.1663 66.4523 30.1741 66.4553C30.1819 66.4583 30.1367 66.6807 30.0735 66.9493C30.0102 67.2181 29.9586 67.6397 29.9587 67.8863C29.9587 68.133 30.0113 68.5827 30.0756 68.8857C30.1398 69.1888 30.3234 69.6861 30.4835 69.9908C30.6437 70.2956 30.9482 70.7227 31.1603 70.94C31.3724 71.1574 31.7635 71.477 32.0293 71.6504C32.2951 71.8237 32.7522 72.0396 33.0449 72.13C33.3667 72.2294 33.8366 72.2989 34.2331 72.3059C34.5938 72.3121 35.0449 72.2895 35.2355 72.2554L35.582 72.1934V72.5096C35.582 72.6835 35.6382 73.0415 35.7068 73.3051C35.7755 73.5688 35.9491 74.0047 36.0926 74.274C36.2361 74.5432 36.5296 74.9561 36.7447 75.1916C36.9599 75.427 37.3453 75.7586 37.6012 75.9284C37.857 76.0983 38.3044 76.3236 38.5954 76.4292C38.9002 76.5399 39.4018 76.6402 39.7789 76.6661C40.1394 76.6907 40.6349 76.6698 40.8818 76.6196C41.1285 76.5694 41.4312 76.5059 41.5545 76.4785C41.7386 76.4375 41.7787 76.4567 41.7787 76.5854C41.7787 76.6716 41.8551 76.9684 41.9486 77.245C42.0419 77.5215 42.2556 77.9597 42.4232 78.2189C42.5909 78.4779 42.9089 78.8708 43.13 79.0917C43.3509 79.3128 43.7491 79.6342 44.0146 79.8061C44.2801 79.9779 44.7865 80.2099 45.1399 80.3215C45.6111 80.4703 45.9643 80.5245 46.4641 80.5245C46.9027 80.5245 47.3216 80.4697 47.6392 80.3709C47.9106 80.2864 48.29 80.1239 48.4822 80.0097C48.6744 79.8956 49.9762 78.653 51.375 77.2484C53.4672 75.1476 53.955 74.615 54.1252 74.2462C54.239 73.9995 54.374 73.5959 54.4253 73.3493C54.477 73.1007 54.5 72.5919 54.4771 72.2078C54.4493 71.7456 54.3663 71.3328 54.2276 70.9687C54.1133 70.6684 53.8943 70.2281 53.7409 69.9902C53.5877 69.7525 53.2649 69.3621 53.0239 69.1227C52.7829 68.8834 52.3709 68.5617 52.1083 68.4078C51.8459 68.254 51.4071 68.0527 51.1333 67.9605C50.8595 67.8682 50.3856 67.7718 50.0801 67.7462L49.5247 67.6996L49.5237 67.1203C49.5232 66.8017 49.4692 66.3394 49.4036 66.0932C49.3381 65.8469 49.1706 65.4211 49.0316 65.1471C48.8925 64.8731 48.617 64.464 48.4193 64.2381C48.2217 64.0121 47.8489 63.6872 47.5909 63.516C47.3329 63.3448 46.8828 63.1174 46.5906 63.0109C46.2439 62.8845 45.7974 62.8012 45.3052 62.7714L44.551 62.7256V62.0531C44.551 61.6016 44.4947 61.1968 44.3797 60.8216C44.2855 60.5142 44.0831 60.0551 43.93 59.8014C43.7768 59.5478 43.4286 59.1338 43.1561 58.8815C42.8837 58.6293 42.4443 58.3137 42.1798 58.1802C41.9153 58.0466 41.4692 57.8832 41.1884 57.8171C40.9077 57.7509 40.4853 57.6962 40.2499 57.6955L39.8219 57.6943V56.9647C39.8219 56.4139 39.7724 56.0791 39.62 55.599C39.5089 55.2491 39.2817 54.761 39.115 54.5144C38.9484 54.2677 38.6348 53.8932 38.4183 53.6822C38.2017 53.4712 37.7593 53.168 37.4352 53.0085C37.111 52.849 36.589 52.6646 36.275 52.5986C35.9611 52.5327 35.5025 52.4811 35.2558 52.4839C35.0092 52.4866 34.5797 52.5384 34.3013 52.5989ZM36.1785 54.6442C36.3881 54.7156 36.7449 54.9407 36.9717 55.1446C37.1984 55.3484 37.451 55.6478 37.533 55.8097C37.6149 55.9718 37.7084 56.2262 37.7405 56.3753C37.7727 56.5242 37.7976 56.8296 37.7959 57.0537C37.7941 57.2779 37.731 57.6513 37.6555 57.8835C37.5303 58.2685 37.2721 58.5531 34.7359 61.1019C32.5032 63.3457 31.8651 63.9416 31.5052 64.1188C31.1309 64.303 30.9488 64.3395 30.4044 64.3395C29.8556 64.3395 29.6787 64.3034 29.2888 64.112C29.0341 63.9869 28.7133 63.7565 28.576 63.6001C28.4386 63.4437 28.2437 63.1608 28.1429 62.9715C27.9918 62.6879 27.9595 62.4979 27.9595 61.8934C27.9595 61.2821 27.9914 61.0984 28.1508 60.7927C28.2744 60.5558 29.2999 59.464 31.0448 57.7117C33.2707 55.4764 33.8325 54.955 34.2293 54.756C34.619 54.5606 34.8151 54.5144 35.2544 54.5144C35.5531 54.5144 35.969 54.5728 36.1785 54.6442ZM40.8634 59.8571C41.0938 59.9255 41.4396 60.1015 41.6319 60.2481C41.8562 60.4192 42.0792 60.7033 42.2543 61.0409C42.5083 61.5311 42.5251 61.6121 42.4994 62.2196C42.478 62.7259 42.4224 62.9721 42.251 63.3203C42.0727 63.6822 41.4359 64.3604 38.9488 66.8366C36.0858 69.6867 35.8339 69.9166 35.3954 70.0776C35.0846 70.1918 34.7322 70.2509 34.363 70.2509C33.8897 70.2509 33.7226 70.2095 33.2894 69.9853C32.9628 69.8162 32.679 69.5921 32.5084 69.3683C32.361 69.1751 32.1806 68.8112 32.1075 68.5597C32.0201 68.2592 31.9901 67.9518 32.0198 67.6633C32.0448 67.4218 32.1796 66.9796 32.3196 66.6806C32.5463 66.1961 32.8066 65.9059 34.71 64.0151C35.8848 62.8482 37.2709 61.4839 37.7903 60.9833C38.6412 60.1632 38.7864 60.0567 39.2579 59.9075C39.5456 59.8164 39.9304 59.7398 40.1128 59.7373C40.2953 59.7347 40.6331 59.7887 40.8634 59.8571ZM46.1647 65.0213C46.3571 65.1209 46.6582 65.3504 46.8338 65.5313C47.0094 65.7122 47.2281 66.0607 47.3196 66.3056C47.4186 66.5701 47.4863 66.9471 47.4863 67.234C47.4863 67.5233 47.417 67.9065 47.3135 68.189C47.1532 68.6269 46.942 68.8595 44.3838 71.4147C42.0324 73.7635 41.5578 74.2002 41.157 74.3836C40.8248 74.5357 40.5422 74.6009 40.1933 74.606C39.9218 74.6099 39.5309 74.564 39.3246 74.504C39.1184 74.4441 38.7703 74.2595 38.5512 74.0939C38.2742 73.8845 38.0694 73.632 37.8794 73.2652C37.6243 72.7732 37.6078 72.6939 37.6343 72.0855C37.6546 71.6225 37.7151 71.3266 37.8429 71.0662C37.969 70.8093 38.8743 69.8519 40.8589 67.8763C43.2109 65.5353 43.7575 65.0312 44.0618 64.9225C44.3179 64.8309 44.638 64.7988 45.1217 64.8158C45.6436 64.8343 45.9012 64.885 46.1647 65.0213ZM50.6422 69.938C50.9746 70.0624 51.2472 70.2486 51.567 70.5699C51.8164 70.8205 52.1062 71.2037 52.211 71.4215C52.3291 71.6671 52.4166 72.0286 52.4413 72.373C52.4736 72.8259 52.4493 72.9937 52.3095 73.2826C52.1936 73.522 51.3779 74.3933 49.7917 75.9722C47.7115 78.0429 47.4039 78.3188 47.0786 78.4059C46.8768 78.46 46.4986 78.4851 46.2382 78.4617C45.9696 78.4375 45.5749 78.3262 45.3258 78.2044C45.0731 78.0807 44.7143 77.8008 44.4801 77.5445C44.2379 77.2795 44.0049 76.9168 43.9045 76.6482C43.8089 76.3929 43.7356 76.0024 43.7356 75.7489C43.7356 75.5025 43.7925 75.1645 43.8619 74.9978C43.9452 74.7979 44.7714 73.9093 46.2869 72.39C47.6834 70.99 48.714 70.0219 48.9125 69.9236C49.1232 69.8193 49.4048 69.7618 49.7051 69.7618C49.983 69.7617 50.3609 69.8328 50.6422 69.938Z" fill="url(#paint0_linear_453_7294)" stroke="url(#paint1_linear_453_7294)"/>
<defs>
<linearGradient id="paint0_linear_453_7294" x1="-2.60394" y1="4.74299" x2="98.9228" y2="80.9995" gradientUnits="userSpaceOnUse">
<stop stop-color="#B98300"/>
<stop offset="0.546875" stop-color="#FFF5A4"/>
<stop offset="0.9999" stop-color="#FFFADF"/>
<stop offset="1" stop-color="#785500"/>
</linearGradient>
<linearGradient id="paint1_linear_453_7294" x1="-2.60394" y1="4.74299" x2="98.9228" y2="80.9995" gradientUnits="userSpaceOnUse">
<stop stop-color="#B98300"/>
<stop offset="0.546875" stop-color="#FFF5A4"/>
<stop offset="0.9999" stop-color="#FFFADF"/>
<stop offset="1" stop-color="#785500"/>
</linearGradient>
</defs>
</svg>
