<svg width="101" height="100" viewBox="0 0 101 100" fill="none" xmlns="http://www.w3.org/2000/svg">
<rect width="100" height="100" transform="translate(0.5)" fill="#12252D"/>
<path fill-rule="evenodd" clip-rule="evenodd" d="M48.0426 17.5889C47.5303 17.6608 46.6517 17.824 46.0905 17.9517C45.5292 18.0793 44.4541 18.4145 43.7014 18.6964C42.9488 18.9782 41.7877 19.5077 41.1214 19.8728C40.4551 20.2379 39.3681 20.9435 38.7058 21.4409C38.0436 21.9382 36.9439 22.9245 36.2622 23.6328C35.5806 24.341 34.589 25.574 34.0589 26.3727C33.5289 27.1714 32.8253 28.44 32.4955 29.1915C32.1656 29.9432 31.7325 31.1195 31.5328 31.8055C31.3331 32.4917 31.0753 33.6738 30.9602 34.4326C30.8448 35.1914 30.7502 36.412 30.7497 37.1451C30.7493 37.878 30.8186 38.989 30.9037 39.6139C30.9889 40.2386 31.1915 41.296 31.354 41.9634C31.5165 42.631 31.839 43.6365 32.0705 44.1981C32.302 44.7597 32.4915 45.2427 32.4915 45.2717C32.4915 45.3006 30.3841 45.3249 27.8081 45.3258C23.1874 45.3271 23.1149 45.3317 22.3985 45.6704C21.9992 45.8592 21.4965 46.2016 21.2816 46.4315C21.0667 46.6612 20.7576 47.1432 20.595 47.5027C20.3032 48.147 20.2992 48.3755 20.296 63.8234C20.2937 75.3016 20.3378 79.6411 20.4614 80.0533C20.554 80.3626 20.8608 80.8855 21.1431 81.2153C21.4254 81.545 21.9867 81.9688 22.3904 82.1567L23.1246 82.4985L50.3259 82.5C70.7572 82.5011 77.6967 82.4587 78.2082 82.3299C78.7076 82.2043 79.0855 81.9621 79.6259 81.4217C80.1662 80.8813 80.4085 80.5035 80.5341 80.004C80.6607 79.5016 80.7052 75.2409 80.7041 63.7396L80.7027 48.1562L80.3608 47.4219C80.1729 47.0182 79.7449 46.4531 79.4099 46.1663C79.0749 45.8797 78.5142 45.5728 78.1641 45.4846C77.7673 45.3847 75.8216 45.3243 73.0015 45.3243C68.7463 45.3243 68.4823 45.3091 68.5856 45.0702C68.646 44.9305 68.8866 44.2932 69.1203 43.6543C69.3539 43.0153 69.6824 41.8716 69.8505 41.1128C70.0917 40.0225 70.1575 39.2157 70.1641 37.2644C70.1704 35.4141 70.1071 34.4865 69.911 33.5612C69.7673 32.8823 69.4546 31.7387 69.2163 31.0198C68.978 30.301 68.4708 29.092 68.0893 28.3332C67.7078 27.5744 66.9986 26.3981 66.5134 25.7192C66.028 25.0403 65.1181 23.9828 64.4911 23.3691C63.8644 22.7553 63.06 22.0138 62.7037 21.7212C62.3475 21.4286 61.7807 20.9999 61.4444 20.7684C61.108 20.5371 60.2061 20.0257 59.44 19.632C58.6738 19.2385 57.4433 18.7184 56.7056 18.4763C55.9679 18.2343 54.8414 17.9294 54.2024 17.7987C53.5634 17.6682 52.1257 17.5381 51.0075 17.5097C49.8893 17.4814 48.5551 17.517 48.0426 17.5889ZM49.3079 21.0861C49.2668 22.1119 49.2481 22.1631 48.9017 22.2022C48.7021 22.2247 48.0159 22.3439 47.3769 22.4671C46.7379 22.5904 45.7363 22.8823 45.1512 23.1159C44.5661 23.3496 44.0433 23.5406 43.9894 23.5403C43.9355 23.54 43.6708 23.1127 43.4008 22.5908C43.131 22.069 42.935 21.6198 42.9652 21.5927C42.9955 21.5655 43.2816 21.4122 43.6011 21.2518C43.9206 21.0915 44.7375 20.7848 45.4164 20.5703C46.0953 20.3558 47.2063 20.0965 47.8852 19.9939C48.5641 19.8914 49.1717 19.8533 49.2353 19.9093C49.2989 19.9653 49.3316 20.4948 49.3079 21.0861ZM54.6137 20.2887C55.0795 20.4078 56.0159 20.7062 56.6946 20.9518C57.3732 21.1974 57.9631 21.4886 58.0055 21.5989C58.0477 21.7094 57.8578 22.1752 57.583 22.6339C57.3084 23.0928 56.9908 23.4566 56.8774 23.4424C56.764 23.4282 56.1023 23.2161 55.407 22.9711C54.7118 22.7262 53.6662 22.4518 53.0834 22.3616C52.5008 22.2715 51.9424 22.1752 51.8425 22.1477C51.7182 22.1135 51.661 21.7604 51.661 21.0282C51.661 20.4399 51.6934 19.9262 51.733 19.8866C51.7727 19.847 52.2465 19.8725 52.7859 19.9432C53.3254 20.0141 54.1479 20.1695 54.6137 20.2887ZM41.4178 23.7784L41.9816 24.742L41.5569 25.0384C41.3234 25.2015 40.572 25.8951 39.8873 26.5799C39.2024 27.2647 38.5112 28.0127 38.3511 28.2423L38.06 28.6598L37.091 28.1025C36.5581 27.796 36.1221 27.498 36.1221 27.4405C36.1221 27.3829 36.5062 26.8576 36.9756 26.2734C37.4451 25.689 38.1149 24.9421 38.4641 24.6138C38.8134 24.2853 39.4482 23.7461 39.8747 23.4157C40.3012 23.0851 40.6961 22.8147 40.7521 22.8147C40.8082 22.8147 41.1078 23.2484 41.4178 23.7784ZM60.7766 23.1583C61.0745 23.3473 61.8003 23.9492 62.3893 24.4957C62.9784 25.0423 63.779 25.9103 64.1683 26.4247C64.5577 26.9391 64.8763 27.402 64.8763 27.4533C64.8763 27.5047 64.4448 27.7992 63.9174 28.1077L62.9583 28.6687L62.5847 28.1742C62.379 27.9022 61.6833 27.1523 61.0385 26.5075C60.3937 25.8628 59.6773 25.2035 59.4465 25.0423L59.027 24.7494L59.5679 23.7821C59.8655 23.25 60.1372 22.8147 60.1719 22.8147C60.2066 22.8147 60.4786 22.9694 60.7766 23.1583ZM52.7247 24.6206C53.3239 24.7353 54.2866 24.9934 54.8642 25.1942C55.4417 25.3951 56.4291 25.8707 57.0583 26.251C57.6876 26.6313 58.6568 27.3573 59.2121 27.8643C59.7676 28.3711 60.583 29.3284 61.0241 29.9914C61.4653 30.6545 62.0142 31.6527 62.244 32.2098C62.4737 32.7669 62.7812 33.6747 62.9272 34.2269C63.1205 34.9571 63.1942 35.7665 63.1972 37.1918C63.2004 38.6567 63.1333 39.4063 62.9316 40.1567C62.7832 40.709 62.4784 41.6053 62.2544 42.1483C62.0305 42.6914 61.5515 43.5928 61.1902 44.1515C60.8288 44.7102 60.089 45.6185 59.5462 46.1702C59.0033 46.7218 58.0536 47.5027 57.4356 47.9054C56.8176 48.3081 55.87 48.8053 55.3299 49.0102C54.7897 49.2151 53.9228 49.4973 53.4037 49.637C52.7382 49.8161 51.9026 49.8922 50.5718 49.8949C49.1777 49.8978 48.3991 49.8261 47.5947 49.6207C46.9957 49.4678 46.0554 49.1575 45.5051 48.9309C44.955 48.7044 43.9643 48.1557 43.3037 47.7116C42.6429 47.2674 41.7521 46.5308 41.3239 46.0748C40.8956 45.6187 40.2347 44.7783 39.8551 44.2073C39.4755 43.6362 38.9785 42.7173 38.7508 42.165C38.5231 41.6127 38.2156 40.709 38.0677 40.1567C37.8693 39.4158 37.7983 38.638 37.7971 37.1918C37.7958 35.5938 37.8575 35.0035 38.1305 33.9987C38.3148 33.3208 38.735 32.2147 39.064 31.541C39.3931 30.8674 40.0321 29.8509 40.484 29.2824C40.9358 28.7138 41.6586 27.949 42.0902 27.5826C42.5218 27.2163 43.2447 26.6817 43.6967 26.3946C44.1486 26.1075 44.9001 25.7037 45.3667 25.4972C45.8333 25.2908 46.7052 24.9982 47.3043 24.8471C47.9033 24.696 48.5568 24.5452 48.7565 24.5121C48.9562 24.4788 49.6857 24.4428 50.3775 24.4319C51.0693 24.421 52.1255 24.506 52.7247 24.6206ZM35.9403 30.1122C36.5745 30.4379 36.8383 30.6517 36.7919 30.802C36.7547 30.9218 36.5238 31.5887 36.2787 32.284C36.0335 32.9792 35.7592 34.0248 35.669 34.6076C35.5788 35.1902 35.4825 35.7487 35.4551 35.8485C35.4204 35.9744 35.0502 36.03 34.2479 36.03H33.0907L33.1657 35.4855C33.2069 35.186 33.3383 34.4314 33.4578 33.8087C33.5774 33.186 33.8271 32.2384 34.0127 31.703C34.1985 31.1675 34.4558 30.4844 34.5846 30.1848C34.7136 29.8854 34.8646 29.6402 34.9202 29.6402C34.9759 29.6402 35.4349 29.8527 35.9403 30.1122ZM66.4705 30.3203C66.6359 30.6944 66.9324 31.5277 67.1291 32.1719C67.326 32.8163 67.5754 33.9213 67.6834 34.6275C67.8342 35.6128 67.8397 35.9271 67.707 35.9779C67.6119 36.0145 67.0869 36.0248 66.5404 36.0008L65.5466 35.9574L65.3438 34.723C65.2321 34.0441 64.9588 32.9658 64.7364 32.3268C64.5141 31.6879 64.2864 31.0564 64.2305 30.9236C64.1525 30.7383 64.3252 30.5638 64.9746 30.1726C65.4396 29.8925 65.8988 29.6579 65.9949 29.6517C66.0911 29.6453 66.3051 29.9462 66.4705 30.3203ZM35.6464 39.6513C35.7506 40.325 36.0353 41.436 36.2788 42.1201C36.5223 42.8041 36.7336 43.4556 36.7486 43.5678C36.7634 43.6801 36.3956 43.9958 35.9311 44.2696C35.4667 44.5433 35.001 44.7344 34.8961 44.6942C34.7914 44.654 34.5048 44.0658 34.2592 43.3872C34.0136 42.7086 33.7131 41.7694 33.5916 41.3C33.47 40.8308 33.3264 39.9728 33.2725 39.3937L33.1747 38.3407L34.3157 38.3834L35.4567 38.4262L35.6464 39.6513ZM67.8252 38.4625C67.8592 38.5224 67.769 39.2599 67.6251 40.1014C67.481 40.9428 67.1323 42.2772 66.85 43.067C66.5678 43.8565 66.2723 44.5673 66.1933 44.6463C66.0986 44.741 65.8247 44.6707 65.3896 44.4399C65.0267 44.2475 64.5999 43.9919 64.4412 43.8721C64.1555 43.6564 64.157 43.6432 64.5755 42.5651C64.8082 41.966 65.1049 40.9204 65.2348 40.2415C65.365 39.5626 65.502 38.8601 65.5397 38.6804C65.603 38.377 65.685 38.3536 66.6858 38.3536C67.2786 38.3536 67.7913 38.4027 67.8252 38.4625ZM38.3614 46.1258C38.4933 46.3269 39.0334 46.9497 39.5617 47.5096C40.0899 48.0698 40.9425 48.8364 41.4563 49.2134L42.3905 49.8988L40.5386 49.9397L38.6866 49.9805L38.1869 49.504C37.912 49.242 37.3349 48.5899 36.9046 48.0549C36.4743 47.5201 36.1221 47.0278 36.1221 46.9608C36.1221 46.8939 36.5306 46.5995 37.0298 46.3066C37.529 46.0137 37.9789 45.7709 38.0296 45.767C38.0803 45.7632 38.2297 45.9245 38.3614 46.1258ZM63.9387 46.2992C64.4544 46.5957 64.8763 46.8994 64.8763 46.9741C64.8763 47.0487 64.6326 47.4104 64.3347 47.7782C64.037 48.1459 63.472 48.7898 63.0793 49.209L62.3654 49.9715H60.5711C59.5844 49.9715 58.7769 49.9202 58.7769 49.8576C58.7769 49.7949 58.9657 49.6321 59.1965 49.4958C59.4272 49.3595 60.1061 48.7904 60.705 48.231C61.3039 47.6716 62.0436 46.8868 62.3484 46.487C62.6534 46.0872 62.9249 45.76 62.9521 45.76C62.9791 45.76 63.4232 46.0027 63.9387 46.2992ZM34.2802 48.4103C34.5678 48.8296 34.9419 49.3525 35.1116 49.5721L35.4202 49.9715H34.0916C33.3608 49.9715 32.6455 50.0343 32.5018 50.1112C32.3584 50.188 32.1587 50.4494 32.0582 50.6921C31.9114 51.0465 31.9114 51.2199 32.0582 51.5744C32.1587 51.8171 32.3584 52.0785 32.5018 52.1553C32.6651 52.2426 39.4229 52.2933 50.5259 52.2904C64.2602 52.2869 68.3413 52.2456 68.5195 52.1088C68.6461 52.0116 68.8259 51.7892 68.9189 51.6148C69.0117 51.4402 69.0878 51.1722 69.0878 51.0188C69.0878 50.8655 68.9274 50.567 68.7317 50.3557C68.3947 49.9922 68.3011 49.9715 66.998 49.9715H65.6204L66.4454 48.8097L67.2706 47.6479H72.4434H77.6163L77.9992 48.0307L78.382 48.4136V51.516V54.6186H50.4992H22.6164V51.5175C22.6164 48.427 22.6175 48.4151 22.9724 48.0321L23.3287 47.6479H28.5431H33.7574L34.2802 48.4103ZM26.6826 56.9804C26.6826 57.0014 25.7677 57.9319 24.6495 59.0479L22.6164 61.0771V59.0097V56.9422H24.6495C25.7677 56.9422 26.6826 56.9594 26.6826 56.9804ZM33.6533 56.9879C33.6533 57.013 32.624 58.0581 31.3661 59.3103L29.0788 61.5868L27.2652 61.588L25.4516 61.5893L27.7718 59.2657L30.092 56.9422H31.8726C32.852 56.9422 33.6533 56.9628 33.6533 56.9879ZM40.502 57.0139C40.5415 57.0533 39.5533 58.0989 38.306 59.3375L36.0382 61.5893L34.2285 61.5881L32.4189 61.5868L34.7515 59.2646L37.0841 56.9422H38.7572C39.6775 56.9422 40.4627 56.9744 40.502 57.0139ZM45.3438 59.2657L43.0235 61.5893H41.2083H39.393L41.7132 59.2657L44.0334 56.9422H45.8487H47.664L45.3438 59.2657ZM54.5654 56.9879C54.5654 57.013 53.5362 58.0581 52.2782 59.3103L49.9909 61.5868L48.1774 61.588L46.3637 61.5893L48.6839 59.2657L51.0041 56.9422H52.7847C53.7641 56.9422 54.5654 56.9628 54.5654 56.9879ZM61.3909 57.0493C61.3909 57.1083 60.3951 58.1539 59.178 59.3729L56.9651 61.5893H55.1498H53.3344L55.6546 59.2657L57.9748 56.9422H59.6828C60.6223 56.9422 61.3909 56.9904 61.3909 57.0493ZM66.2559 59.2657L63.9357 61.5893H62.1204H60.3051L62.6253 59.2657L64.9456 56.9422H66.7608H68.5761L66.2559 59.2657ZM75.4776 56.9879C75.4776 57.013 74.4484 58.0581 73.1903 59.3103L70.903 61.5868L69.0895 61.588L67.2758 61.5893L69.596 59.2657L71.9163 56.9422H73.6968C74.6762 56.9422 75.4776 56.9628 75.4776 56.9879ZM78.382 59.5562V61.5893H76.3145H74.2471L76.2763 59.5562C77.3923 58.438 78.3228 57.5231 78.3438 57.5231C78.3647 57.5231 78.382 58.438 78.382 59.5562ZM78.382 71.6888V79.465L78.0255 79.8213L77.6691 80.1779H50.5256H23.3821L22.9992 79.7951L22.6164 79.4121V71.7593C22.6164 67.5503 22.6599 64.0629 22.7132 64.0097C22.7664 63.9564 35.3136 63.9129 50.5961 63.9129H78.382V71.6888ZM25.296 68.9443C25.1003 69.1556 24.9399 69.5056 24.9399 69.7218C24.9399 69.938 25.1003 70.288 25.296 70.4993L25.6522 70.8836H28.425C31.1752 70.8836 31.2006 70.8807 31.5541 70.5271C31.7688 70.3126 31.9106 70.0031 31.9106 69.7495C31.9106 69.504 31.7624 69.1685 31.5546 68.9443L31.1983 68.56H28.4253H25.6522L25.296 68.9443ZM34.5771 68.9585C34.2785 69.2808 34.2233 69.4547 34.2891 69.8661C34.334 70.1461 34.5106 70.4897 34.6815 70.6294C34.9534 70.8516 35.3388 70.8836 37.7422 70.8836C40.4681 70.8836 40.4951 70.8805 40.8484 70.5271C41.063 70.3126 41.2049 70.0031 41.2049 69.7495C41.2049 69.504 41.0566 69.1685 40.8488 68.9443L40.4926 68.56H37.7196H34.9465L34.5771 68.9585ZM43.8846 68.9443C43.6888 69.1556 43.5285 69.5056 43.5285 69.7218C43.5285 69.938 43.6888 70.288 43.8846 70.4993L44.2408 70.8836H47.0135C49.7638 70.8836 49.7892 70.8807 50.1427 70.5271C50.3573 70.3126 50.4992 70.0031 50.4992 69.7495C50.4992 69.504 50.3509 69.1685 50.1431 68.9443L49.7869 68.56H47.0138H44.2408L43.8846 68.9443ZM53.1788 68.9443C52.9831 69.1556 52.8228 69.5056 52.8228 69.7218C52.8228 69.938 52.9831 70.288 53.1788 70.4993L53.5351 70.8836H56.3078C59.0581 70.8836 59.0835 70.8807 59.437 70.5271C59.6516 70.3126 59.7935 70.0031 59.7935 69.7495C59.7935 69.504 59.6452 69.1685 59.4374 68.9443L59.0812 68.56H56.3081H53.5351L53.1788 68.9443ZM65.151 68.9019C64.7032 69.0862 64.1248 69.3879 63.8655 69.5725C63.6063 69.7571 63.175 70.2507 62.9072 70.6694C62.6393 71.0881 62.3433 71.7362 62.2492 72.1097C62.1552 72.4831 62.1134 73.1759 62.1563 73.6494C62.1992 74.1226 62.3845 74.8203 62.5681 75.1996C62.7518 75.5789 63.1978 76.1767 63.5594 76.5281C63.921 76.8796 64.5122 77.2946 64.8734 77.4506C65.2344 77.6064 65.8652 77.7695 66.2752 77.8128C66.6852 77.856 67.3714 77.8077 67.8001 77.7051C68.2288 77.6028 68.6898 77.4506 68.8246 77.3668C68.9974 77.2596 69.1689 77.2632 69.4055 77.3791C69.5902 77.4696 69.9967 77.6219 70.3088 77.7178C70.655 77.8241 71.2423 77.8578 71.814 77.8045C72.4883 77.7415 73.0018 77.5801 73.6427 77.2295C74.2147 76.9166 74.7297 76.4864 75.0813 76.0275C75.3824 75.6346 75.7336 74.9581 75.8615 74.5246C76.0143 74.0066 76.0696 73.4311 76.0226 72.8457C75.9832 72.3559 75.8171 71.6521 75.6533 71.2818C75.4896 70.9116 75.0709 70.324 74.723 69.9761C74.375 69.6281 73.7774 69.192 73.3951 69.0069C72.9919 68.8117 72.3073 68.6389 71.766 68.5953C71.0314 68.5363 70.6456 68.5885 69.9565 68.8397L69.0806 69.1591L68.28 68.8596C67.8385 68.6943 67.1399 68.5616 66.7224 68.5635C66.2713 68.5655 65.6365 68.7022 65.151 68.9019ZM67.6791 71.119C67.9347 71.2484 68.2636 71.4594 68.41 71.5879C68.5562 71.7164 68.7687 72.0433 68.882 72.3143C68.9951 72.5853 69.0878 72.9972 69.0878 73.2295C69.0878 73.462 68.9986 73.8654 68.8897 74.1263C68.7808 74.3869 68.4848 74.7744 68.232 74.9871C67.9791 75.1999 67.5453 75.4164 67.2683 75.4686C66.991 75.5206 66.5224 75.5177 66.2267 75.4622C65.8895 75.399 65.4884 75.1604 65.1496 74.8217C64.8109 74.4829 64.5723 74.0818 64.5092 73.7446C64.4537 73.4489 64.4508 72.9803 64.5028 72.7031C64.5549 72.426 64.7713 71.9925 64.9837 71.74C65.1964 71.4874 65.5694 71.1939 65.813 71.0879C66.0567 70.9818 66.4716 70.8924 66.7351 70.8892C66.9986 70.8862 67.4233 70.9894 67.6791 71.119ZM72.3201 71.096C72.6 71.2129 72.9975 71.5091 73.2035 71.7539C73.4094 71.9988 73.6206 72.426 73.6727 72.7031C73.7247 72.9803 73.7247 73.434 73.6727 73.7112C73.6206 73.9883 73.4094 74.4156 73.2035 74.6604C72.9975 74.9052 72.6 75.2014 72.3201 75.3183C72.0404 75.435 71.5838 75.5307 71.3055 75.5307C70.8789 75.5307 70.8165 75.4908 70.908 75.2766C70.9677 75.1369 71.1053 74.6977 71.214 74.301C71.3224 73.9042 71.4106 73.3487 71.4097 73.0666C71.4089 72.7844 71.3108 72.2328 71.1919 71.8407C71.073 71.4486 70.9757 71.073 70.9757 71.0057C70.9757 70.9385 71.1637 70.8836 71.3936 70.8836C71.6235 70.8836 72.0404 70.9793 72.3201 71.096ZM25.296 75.915C25.1003 76.1263 24.9399 76.4763 24.9399 76.6925C24.9399 76.9087 25.1003 77.2587 25.296 77.47L25.6522 77.8543H42.3664H59.0806L59.437 77.4978C59.6516 77.2833 59.7935 76.9738 59.7935 76.7202C59.7935 76.4747 59.6452 76.1392 59.4374 75.915L59.0812 75.5307H42.3667H25.6522L25.296 75.915Z" fill="url(#paint0_linear_461_7314)"/>
<defs>
<linearGradient id="paint0_linear_461_7314" x1="10.0861" y1="4.74299" x2="100.887" y2="56.3224" gradientUnits="userSpaceOnUse">
<stop stop-color="#B98300"/>
<stop offset="0.546875" stop-color="#FFF5A4"/>
<stop offset="0.9999" stop-color="#FFFADF"/>
<stop offset="1" stop-color="#785500"/>
</linearGradient>
</defs>
</svg>
