<svg width="101" height="100" viewBox="0 0 101 100" fill="none" xmlns="http://www.w3.org/2000/svg">
<rect width="100" height="100" transform="translate(0.166748)" fill="#12252D"/>
<path fill-rule="evenodd" clip-rule="evenodd" d="M49.6306 17.5861C49.2108 17.6262 48.4834 17.7235 48.0143 17.8022C47.5451 17.8809 46.6938 18.063 46.1225 18.2068C45.5513 18.3506 44.6624 18.616 44.147 18.7965C43.6318 18.977 42.5637 19.4396 41.7735 19.8245C40.9833 20.2094 39.8519 20.8439 39.2592 21.2344C38.6666 21.6249 37.7978 22.2621 37.3286 22.6505C36.8594 23.0387 36.0627 23.7756 35.5581 24.2879C35.0535 24.8003 34.3734 25.5509 34.0468 25.956C33.7202 26.3612 33.1169 27.1977 32.7062 27.815C32.2955 28.4324 31.7344 29.3626 31.4594 29.882C31.1843 30.4016 30.7734 31.2704 30.5462 31.8126C30.3189 32.355 29.9572 33.3645 29.7424 34.0561C29.5276 34.7476 29.2497 35.8386 29.1247 36.4806C28.9998 37.1224 28.8502 38.1015 28.7923 38.6561C28.727 39.2813 28.7044 40.4418 28.7327 41.7092C28.7609 42.9736 28.8338 44.0792 28.9237 44.6068C29.0038 45.076 29.1532 45.8235 29.2557 46.268C29.3582 46.7125 29.5645 47.46 29.7143 47.9292C29.864 48.3984 30.1437 49.178 30.336 49.6616C30.5281 50.1454 30.8313 50.8323 31.0095 51.1882C31.1878 51.5441 31.5814 52.2539 31.8842 52.7653C32.187 53.2769 32.806 54.1901 33.2596 54.7946C33.7133 55.3992 34.4945 56.3233 34.9956 56.8481C35.6539 57.5376 35.9945 57.8266 36.2232 57.8898C36.463 57.956 36.6241 57.9434 36.8875 57.838C37.0906 57.7567 37.3108 57.5767 37.4167 57.4054C37.5164 57.2441 37.598 57.003 37.598 56.8698C37.598 56.7365 37.5517 56.5393 37.495 56.4314C37.4383 56.3236 37.1376 55.9642 36.8266 55.6329C36.5157 55.3016 35.9581 54.6663 35.5876 54.2211C35.2171 53.7759 34.6132 52.956 34.2457 52.399C33.8781 51.8421 33.2914 50.8004 32.9419 50.0843C32.5924 49.3682 32.125 48.2368 31.9032 47.57C31.6815 46.9033 31.399 45.8527 31.2754 45.2354C31.1519 44.618 31.0087 43.6945 30.9571 43.183C30.9055 42.6715 30.8633 41.7363 30.8633 41.1048C30.8633 40.4732 30.9039 39.538 30.9535 39.0265C31.0031 38.5151 31.1486 37.5511 31.2768 36.8844C31.4052 36.2177 31.7077 35.0758 31.9491 34.3469C32.1907 33.618 32.5868 32.5876 32.8294 32.0571C33.072 31.5266 33.4421 30.7895 33.6519 30.4191C33.8617 30.0487 34.2767 29.382 34.5742 28.9375C34.8717 28.493 35.4257 27.7455 35.8052 27.2763C36.1848 26.8071 36.9425 25.9917 37.4892 25.4645C38.0357 24.9372 38.8597 24.223 39.3201 23.8776C39.7805 23.5322 40.519 23.0228 40.9613 22.7456C41.4035 22.4685 42.2117 22.0252 42.7572 21.7605C43.3027 21.4958 44.1434 21.1326 44.6253 20.9535C45.1073 20.7744 45.9559 20.5115 46.511 20.3693C47.0662 20.2271 47.9001 20.0463 48.3643 19.9675C48.8284 19.8886 49.8423 19.7759 50.6172 19.7169C51.6986 19.6348 52.348 19.6341 53.4101 19.7145C54.1711 19.7721 55.2585 19.9023 55.8265 20.004C56.3944 20.1057 57.2869 20.309 57.8097 20.456C58.3325 20.603 59.164 20.8806 59.6576 21.0729C60.1511 21.2653 61.0164 21.6539 61.5805 21.9366C62.1445 22.2193 62.9293 22.6554 63.3244 22.9058C63.7195 23.1561 64.4468 23.6659 64.9407 24.0385C65.4346 24.4112 66.3473 25.2214 66.9692 25.839C67.5909 26.4566 68.3552 27.2853 68.6676 27.6804C68.98 28.0755 69.5137 28.823 69.8535 29.3416C70.1934 29.8601 70.7496 30.8501 71.0895 31.5416C71.4296 32.233 71.9111 33.4048 72.1597 34.1456C72.4083 34.8864 72.7117 35.9977 72.8339 36.615C72.9561 37.2323 73.1043 38.22 73.1634 38.8097C73.2298 39.4723 73.2515 40.5358 73.2205 41.5933C73.1874 42.7164 73.1055 43.6752 72.982 44.3823C72.8786 44.9749 72.6723 45.9172 72.5236 46.4761C72.375 47.035 72.0582 47.9846 71.8197 48.5862C71.5812 49.188 71.2022 50.0439 70.9775 50.4884C70.7529 50.9329 70.3454 51.6509 70.072 52.084C69.7987 52.5171 69.2941 53.2445 68.9506 53.7004C68.6072 54.1562 67.9319 54.9463 67.45 55.456C66.9681 55.9659 66.1457 56.733 65.6226 57.1609C65.0994 57.5888 64.6227 58 64.5633 58.0748C64.5039 58.1496 64.4313 58.3162 64.4018 58.4451C64.3716 58.5775 64.4127 58.8402 64.4964 59.0495C64.5862 59.2738 64.7601 59.491 64.9379 59.6009C65.0993 59.7006 65.3477 59.782 65.4901 59.7819C65.6324 59.7817 65.8903 59.6956 66.0631 59.5906C66.236 59.4855 66.6805 59.1452 67.0509 58.8342C67.4213 58.5234 68.1735 57.8114 68.7224 57.2521C69.2714 56.6929 69.9392 55.9725 70.2066 55.6514C70.474 55.3303 70.9598 54.6838 71.2863 54.2147C71.6128 53.7456 72.0016 53.1547 72.1504 52.9015C72.2991 52.6484 72.5415 52.2241 72.689 51.9587C72.8364 51.6933 73.1609 51.0241 73.41 50.4717C73.6591 49.9193 74.0304 48.9714 74.2352 48.3654C74.44 47.7593 74.7039 46.8369 74.8216 46.3153C74.9393 45.7939 75.097 44.9839 75.172 44.5156C75.247 44.0472 75.3517 43.0835 75.4047 42.374C75.4726 41.4653 75.4733 40.6397 75.4072 39.58C75.3554 38.7528 75.2324 37.6036 75.1337 37.0265C75.0351 36.4494 74.8713 35.6459 74.7699 35.241C74.6684 34.8361 74.4824 34.1818 74.3566 33.7871C74.2308 33.3923 73.9853 32.7054 73.811 32.2605C73.6368 31.8157 73.276 31.0153 73.0094 30.4818C72.7427 29.9483 72.337 29.2008 72.1076 28.8206C71.8783 28.4404 71.4187 27.7439 71.0864 27.2729C70.7539 26.8018 70.088 25.9734 69.6065 25.4321C69.1251 24.8907 68.4285 24.1649 68.0586 23.8191C67.6886 23.4734 67.0379 22.9107 66.6123 22.5686C66.1868 22.2264 65.3942 21.654 64.8509 21.2965C64.3076 20.9391 63.3985 20.4046 62.8305 20.1088C62.2625 19.8131 61.3332 19.3869 60.7652 19.1619C60.1972 18.9369 59.3285 18.6281 58.8346 18.4756C58.3407 18.3232 57.3507 18.0817 56.6346 17.9388C55.9185 17.7959 54.8911 17.6362 54.3517 17.5838C53.8122 17.5314 52.7009 17.4941 51.8823 17.5008C51.0636 17.5075 50.0504 17.5459 49.6306 17.5861ZM50.9326 23.0699C50.5375 23.1141 49.9139 23.232 49.5469 23.3317C49.1798 23.4316 48.5821 23.637 48.2187 23.7883C47.8553 23.9397 47.2498 24.2646 46.873 24.5106C46.4964 24.7564 45.9466 25.1864 45.6514 25.466C45.3561 25.7455 44.894 26.2708 44.6243 26.6334C44.3546 26.9959 43.9589 27.6627 43.745 28.1151C43.531 28.5674 43.2566 29.2812 43.1352 29.7014C43.0137 30.1214 42.8641 30.8645 42.8027 31.3524C42.7357 31.8848 42.7117 32.6569 42.7428 33.2825C42.7714 33.8559 42.8565 34.6687 42.9322 35.0885C43.0078 35.5083 43.1964 36.2356 43.3512 36.7048C43.506 37.174 43.7886 37.8934 43.9791 38.3035C44.1697 38.7137 44.476 39.2996 44.6598 39.6055C44.8436 39.9116 45.1741 40.3985 45.3942 40.6877C45.6886 41.0744 45.7642 41.2321 45.68 41.2841C45.6172 41.3229 44.6519 41.5828 43.5349 41.8617C42.4179 42.1406 41.1202 42.49 40.651 42.6382C40.1818 42.7864 39.5199 43.0726 39.18 43.2744C38.8402 43.4761 38.2918 43.9089 37.9614 44.2362C37.631 44.5635 37.2272 45.0277 37.0641 45.2678C36.901 45.5079 36.6326 46.0155 36.4677 46.396C36.3029 46.7763 36.1059 47.4439 36.03 47.8794C35.9361 48.4176 35.8919 49.258 35.8919 50.5046C35.8919 51.9843 35.9187 52.39 36.031 52.607C36.1074 52.7549 36.2994 52.9548 36.4575 53.0511C36.7396 53.2233 37.03 53.2265 52.2167 53.2268C65.8708 53.2271 67.7193 53.2112 67.9518 53.0909C68.0966 53.016 68.2866 52.8241 68.3738 52.6644C68.512 52.4114 68.5323 52.1196 68.5311 50.3986C68.5301 49.1609 68.4858 48.1886 68.4124 47.7954C68.348 47.4502 68.1745 46.8776 68.0269 46.523C67.8792 46.1684 67.5954 45.6428 67.3961 45.3548C67.1968 45.0669 66.8255 44.6154 66.5709 44.3517C66.3164 44.0879 65.8727 43.7105 65.585 43.5131C65.2973 43.3157 64.8326 43.0517 64.5523 42.9264C64.2721 42.8011 62.8776 42.4039 61.4536 42.0438C60.0295 41.6837 58.842 41.3665 58.8145 41.339C58.787 41.3116 58.9236 41.0759 59.1179 40.8154C59.3123 40.5547 59.6355 40.0789 59.836 39.7578C60.0366 39.4368 60.3026 38.9721 60.4271 38.7252C60.5516 38.4783 60.7754 37.9705 60.9245 37.5968C61.0736 37.2231 61.2792 36.617 61.3815 36.2499C61.4837 35.8827 61.6293 35.2235 61.705 34.7849C61.7841 34.3268 61.8427 33.4538 61.8427 32.7337C61.8427 31.8275 61.7922 31.232 61.6605 30.5857C61.5602 30.0938 61.3593 29.3655 61.2139 28.967C61.0685 28.5687 60.8063 27.9822 60.6313 27.6637C60.4562 27.3452 60.1443 26.855 59.9381 26.5743C59.7318 26.2936 59.3183 25.8248 59.0192 25.5324C58.7201 25.24 58.1522 24.7905 57.7571 24.5334C57.362 24.2764 56.7558 23.9431 56.4101 23.7927C56.0644 23.6423 55.4573 23.4366 55.061 23.3357C54.6648 23.2348 53.9778 23.1107 53.5345 23.0599C53.0912 23.0091 52.4861 22.9726 52.1897 22.9786C51.8934 22.9846 51.3277 23.0257 50.9326 23.0699ZM54.1991 25.3984C54.6128 25.494 55.2795 25.7272 55.6807 25.9167C56.0819 26.1062 56.6677 26.4564 56.9827 26.6951C57.2976 26.9337 57.7683 27.3873 58.0287 27.703C58.2892 28.0187 58.6245 28.5065 58.7739 28.7869C58.9232 29.0672 59.1476 29.6011 59.2724 29.9732C59.3974 30.3453 59.5364 30.8852 59.5815 31.1728L59.6635 31.6958L59.3475 31.6446C59.1737 31.6164 58.7344 31.4522 58.3713 31.2798C58.0082 31.1073 57.5599 30.8558 57.3749 30.7208C57.19 30.5859 56.8436 30.291 56.6052 30.0656C56.3667 29.8402 56.1141 29.5468 56.0439 29.4134C55.9737 29.28 55.9163 29.0709 55.9163 28.9488C55.9163 28.8267 55.8126 28.6036 55.686 28.4531C55.5593 28.3026 55.3169 28.1412 55.1472 28.0943C54.9527 28.0406 54.7248 28.0406 54.5302 28.0943C54.3605 28.1412 54.1181 28.3026 53.9914 28.4531C53.8415 28.6313 53.7612 28.835 53.7612 29.0371C53.7612 29.2077 53.7004 29.4928 53.6261 29.6707C53.5518 29.8485 53.228 30.2481 52.9065 30.5586C52.4739 30.9766 52.0832 31.2409 51.4029 31.576C50.8973 31.825 50.1806 32.1287 49.8102 32.2508C49.4398 32.3729 48.7269 32.5561 48.2259 32.6579C47.725 32.7597 46.9371 32.8829 46.4749 32.9316C46.0128 32.9803 45.4629 33.0208 45.253 33.0217L44.8714 33.0232V32.6392C44.8714 32.428 44.9138 31.9173 44.9656 31.5042C45.0174 31.0911 45.1788 30.385 45.3242 29.9351C45.4696 29.4852 45.7653 28.8387 45.9813 28.4986C46.1973 28.1584 46.6422 27.6108 46.9698 27.2817C47.2976 26.9525 47.8788 26.4951 48.2614 26.2651C48.6441 26.0352 49.322 25.7257 49.768 25.5774C50.2141 25.4291 50.901 25.2694 51.2946 25.2226C51.6881 25.1757 52.3334 25.157 52.7285 25.181C53.1236 25.2049 53.7854 25.3027 54.1991 25.3984ZM56.5336 32.7864C56.9209 33.0205 57.5247 33.3288 57.8755 33.4715C58.2263 33.6143 58.7582 33.7793 59.0574 33.8382L59.6015 33.9452L59.5477 34.2699C59.518 34.4485 59.4127 34.9317 59.3135 35.3437C59.2143 35.7557 58.9965 36.4316 58.8295 36.8459C58.6626 37.26 58.4388 37.7715 58.3323 37.9825C58.2258 38.1934 57.9164 38.7086 57.6447 39.1273C57.373 39.546 56.8831 40.1673 56.556 40.508C56.2288 40.8486 55.7441 41.2888 55.4789 41.4861C55.2136 41.6834 54.7085 41.9763 54.3564 42.1371C54.0043 42.2978 53.4986 42.4801 53.2326 42.5421C52.9356 42.6115 52.4678 42.636 52.0204 42.6056C51.6196 42.5784 51.0497 42.4709 50.7539 42.3667C50.458 42.2624 49.9438 42.0155 49.6112 41.8178C49.2786 41.6202 48.7611 41.2315 48.4613 40.9538C48.1614 40.6763 47.6545 40.1017 47.3349 39.6769C47.0151 39.2523 46.5524 38.5144 46.3066 38.0374C46.0608 37.5603 45.7151 36.7383 45.5386 36.2106C45.362 35.6829 45.2306 35.2416 45.2465 35.2297C45.2625 35.218 45.821 35.1616 46.4877 35.1045C47.1545 35.0474 48.104 34.9172 48.5979 34.8152C49.0918 34.7131 49.9735 34.4707 50.5573 34.2764C51.141 34.082 51.984 33.7344 52.4308 33.5037C52.8774 33.273 53.4706 32.9121 53.749 32.7016C54.0273 32.4912 54.4126 32.1564 54.6052 31.9576L54.9555 31.5962L55.3926 31.9784C55.6329 32.1887 56.1464 32.5523 56.5336 32.7864ZM48.1931 43.4839C48.5271 43.7059 49.0578 44.008 49.3726 44.1553C49.6873 44.3026 50.2644 44.5049 50.6551 44.6047C51.1397 44.7286 51.6559 44.7864 52.2795 44.7864C52.8998 44.7864 53.422 44.7284 53.9039 44.6059C54.2946 44.5066 54.9503 44.2647 55.361 44.0684C55.7719 43.872 56.285 43.5841 56.5015 43.4287L56.8952 43.146L60.062 43.9371C62.4116 44.5241 63.3901 44.8089 63.8536 45.0408C64.2447 45.2364 64.6823 45.5583 65.0238 45.9014C65.3238 46.2027 65.6793 46.6712 65.8138 46.9424C65.9483 47.2135 66.1212 47.6834 66.198 47.9864C66.2992 48.3855 66.3308 48.8811 66.3127 49.7823L66.2876 51.0272H52.1897H38.0919L38.0991 49.77C38.1032 49.0747 38.1588 48.2922 38.2238 48.019C38.2883 47.7474 38.4564 47.2946 38.5973 47.0129C38.7382 46.7313 39.1011 46.2361 39.4037 45.9126C39.8022 45.4867 40.1305 45.2387 40.5943 45.0132C41.0426 44.7954 42.1776 44.4607 44.3775 43.8976C46.1061 43.4552 47.5351 43.0902 47.5532 43.0867C47.5713 43.0831 47.8593 43.2619 48.1931 43.4839ZM43.0306 56.4253C42.6355 56.4961 42.0092 56.6377 41.6388 56.7397C41.2684 56.8416 40.5861 57.1033 40.1226 57.321C39.4034 57.6589 39.1562 57.8382 38.438 58.5426C37.975 58.9966 37.3727 59.6598 37.0995 60.0165C36.8264 60.3731 36.402 61.0017 36.1564 61.4133C35.9108 61.825 35.6619 62.2931 35.6033 62.4536C35.5446 62.6142 35.4744 62.7466 35.4473 62.7481C35.4202 62.7496 34.4686 62.8464 33.3327 62.9633C32.1968 63.0802 31.2609 63.17 31.2528 63.1627C31.2447 63.1555 31.1492 62.6444 31.0407 62.0271C30.9321 61.4098 30.7922 60.7803 30.7297 60.6283C30.658 60.454 30.4877 60.2903 30.2683 60.1849L29.9205 60.0177L25.476 60.7639C23.0315 61.1742 20.837 61.5604 20.5994 61.622C20.3617 61.6837 20.0443 61.8506 19.8942 61.9929C19.6258 62.2471 19.6221 62.2627 19.6783 62.8989C19.7098 63.255 20.0148 65.1743 20.356 67.1642C20.6973 69.1541 21.4023 73.2435 21.9227 76.2519C22.4429 79.2602 22.8917 81.794 22.9198 81.8826C22.948 81.9711 23.0931 82.1464 23.2424 82.272C23.4386 82.4371 23.6178 82.5004 23.8887 82.5C24.0947 82.4998 25.4352 82.2978 26.8674 82.051C28.2997 81.8043 30.3079 81.4607 31.3303 81.2877C32.3525 81.1145 33.2819 80.9374 33.3956 80.8939C33.5092 80.8505 33.6676 80.7396 33.7477 80.6475C33.8277 80.5554 33.9436 80.383 34.0052 80.2643C34.0975 80.0861 34.0816 79.8316 33.9139 78.8032C33.8021 78.1183 33.7297 77.5389 33.7529 77.5156C33.7762 77.4924 35.065 77.046 36.617 76.5237L39.4388 75.5741L44.2428 75.2286C46.8851 75.0387 51.0067 74.7575 53.402 74.6037C55.7973 74.4498 58.2015 74.268 58.7448 74.1994C59.3435 74.124 60.0863 73.9542 60.6305 73.7686C61.1244 73.6001 61.9932 73.2646 62.5611 73.0233C63.1291 72.7818 65.1293 71.8111 67.006 70.8663C68.8827 69.9215 72.4992 68.0888 75.0427 66.7938C79.0296 64.7639 79.725 64.3802 80.0863 64.0108C80.3631 63.728 80.5419 63.4477 80.6127 63.1864C80.672 62.967 80.6996 62.5364 80.6746 62.2211C80.6422 61.8136 80.5386 61.4693 80.3096 61.0089C80.1338 60.6552 79.7961 60.161 79.5591 59.9105C79.3222 59.6601 78.9667 59.3321 78.7692 59.1817C78.5716 59.0313 78.2301 58.817 78.0102 58.7056C77.7904 58.5941 77.3863 58.4248 77.1123 58.3292C76.8383 58.2337 76.2706 58.133 75.8508 58.1055C75.431 58.078 74.8588 58.0985 74.5791 58.1511C74.2993 58.2037 73.3296 58.5085 72.424 58.8283C71.5184 59.1482 69.5652 59.8409 68.0835 60.3678C66.6019 60.8946 65.0058 61.4628 64.5366 61.6305C64.0674 61.7981 63.6331 61.9358 63.5713 61.9363C63.5096 61.9369 63.4591 61.8911 63.4591 61.8345C63.4591 61.7779 63.3198 61.4421 63.1495 61.0882C62.9794 60.7343 62.6561 60.2047 62.4314 59.9114C62.2065 59.6182 61.77 59.1631 61.4612 58.9002C61.1525 58.6374 60.5362 58.2469 60.0917 58.0324C59.6473 57.8178 58.9927 57.5783 58.6373 57.5C58.1046 57.3827 57.3307 57.3577 54.2345 57.3577H50.4781L48.9868 56.915C48.1667 56.6714 47.1852 56.429 46.8056 56.3762C46.426 56.3234 45.583 56.2838 44.9323 56.2883C44.2815 56.2927 43.4257 56.3544 43.0306 56.4253ZM47.1612 58.6596C47.4575 58.74 48.2051 58.9697 48.8224 59.1701L49.9449 59.5345L53.7255 59.5196C56.7427 59.5079 57.6336 59.5315 58.1368 59.6364C58.4837 59.7088 58.9835 59.8774 59.2475 60.0112C59.5115 60.145 59.9816 60.5085 60.2922 60.8191C60.6821 61.2091 60.9533 61.5874 61.1688 62.0422C61.3404 62.4042 61.5198 62.9074 61.5674 63.16C61.615 63.4128 61.6229 63.7361 61.5849 63.8784L61.5157 64.1373L57.167 64.1941C54.7752 64.2254 52.3132 64.2983 51.6959 64.3563C51.0785 64.4142 50.1693 64.5208 49.6755 64.5931C49.1816 64.6655 48.2757 64.846 47.6624 64.9942C47.0492 65.1425 46.272 65.3474 45.9355 65.4496C45.5989 65.5517 45.2232 65.7144 45.1006 65.8108C44.9779 65.9073 44.8391 66.1259 44.7919 66.2964C44.7393 66.4871 44.7379 66.7212 44.7883 66.9036C44.8333 67.067 44.9817 67.3042 45.1178 67.4308C45.2539 67.5574 45.4697 67.6856 45.5973 67.7155C45.7431 67.7497 46.2941 67.6359 47.078 67.4097C47.7646 67.2116 48.7714 66.9707 49.3153 66.8745C49.8591 66.7783 50.6677 66.653 51.1122 66.5962C51.5775 66.5367 54.0348 66.4694 56.904 66.4375L61.8876 66.3822L62.4002 66.1305C62.7047 65.981 63.0311 65.7294 63.2044 65.5105C63.3648 65.308 63.5655 64.9364 63.6503 64.6847C63.7972 64.2492 63.83 64.2176 64.3277 64.0299C64.6155 63.9214 65.7803 63.5036 66.9162 63.1015C68.0521 62.6993 70.2223 61.9283 71.7387 61.3882C73.2552 60.8481 74.72 60.3647 74.9938 60.3141C75.33 60.2519 75.6502 60.2514 75.98 60.3124C76.2486 60.362 76.7039 60.5215 76.9917 60.6668C77.2795 60.8121 77.6977 61.1271 77.9209 61.3667C78.1442 61.6065 78.382 61.9369 78.4493 62.1008C78.56 62.3702 78.5553 62.4147 78.4011 62.5599C78.3072 62.6484 76.6141 63.5406 74.6386 64.5427C72.6631 65.5447 69.0264 67.3812 66.557 68.6239C64.0876 69.8666 61.5823 71.0728 60.9897 71.3046C60.397 71.5363 59.5889 71.808 59.1938 71.9085C58.705 72.0326 57.9444 72.118 56.8142 72.1755C55.9005 72.222 53.3952 72.3823 51.2469 72.5318C49.0985 72.6813 45.6437 72.9242 43.5694 73.0716C41.4951 73.219 39.607 73.3639 39.3736 73.3935C39.1402 73.4231 37.6886 73.8676 36.1477 74.3813C34.6068 74.895 33.3375 75.3055 33.3268 75.2937C33.3162 75.2817 32.9254 73.0495 32.4584 70.3332C31.9914 67.6169 31.6191 65.3818 31.6311 65.3664C31.643 65.351 32.7687 65.224 34.1325 65.0842C35.9379 64.8992 36.6733 64.7901 36.8363 64.6832C36.9776 64.5908 37.2788 64.0875 37.6514 63.3217C37.9765 62.6535 38.4797 61.792 38.7696 61.4072C39.0597 61.0224 39.5631 60.4585 39.8883 60.1542C40.2135 59.85 40.7184 59.4805 41.0101 59.3332C41.302 59.186 41.896 58.9619 42.3305 58.8353C42.765 58.7087 43.3426 58.5693 43.6143 58.5253C43.8859 58.4814 44.6739 58.4608 45.3653 58.4795C46.143 58.5004 46.8279 58.5692 47.1612 58.6596ZM29.0106 63.172C29.0883 63.6042 29.519 66.0993 29.9675 68.7169C30.4161 71.3344 30.9231 74.2842 31.0943 75.2719C31.2655 76.2597 31.4732 77.4809 31.556 77.9857C31.6387 78.4905 31.68 78.93 31.6479 78.9622C31.6156 78.9944 30.0861 79.2801 28.2488 79.5971C26.4116 79.914 24.8809 80.1413 24.8472 80.1022C24.8135 80.063 24.574 78.7784 24.3149 77.2474C24.0559 75.7164 23.5613 72.8272 23.2159 70.827C22.8706 68.8269 22.4536 66.4024 22.2894 65.4393C22.1252 64.4763 22.0172 63.6615 22.0496 63.6288C22.0819 63.5961 22.9568 63.4224 23.994 63.2428C25.0311 63.0633 26.5262 62.8016 27.3164 62.6612C28.1066 62.5209 28.7793 62.4015 28.8111 62.3962C28.843 62.3907 28.9328 62.7399 29.0106 63.172Z" fill="url(#paint0_linear_453_7299)"/>
<defs>
<linearGradient id="paint0_linear_453_7299" x1="9.33374" y1="4.74299" x2="100.612" y2="57.1309" gradientUnits="userSpaceOnUse">
<stop stop-color="#B98300"/>
<stop offset="0.546875" stop-color="#FFF5A4"/>
<stop offset="0.9999" stop-color="#FFFADF"/>
<stop offset="1" stop-color="#785500"/>
</linearGradient>
</defs>
</svg>
