<svg width="101" height="100" viewBox="0 0 101 100" fill="none" xmlns="http://www.w3.org/2000/svg">
<rect width="100" height="100" transform="translate(0.833252)" fill="#12252D"/>
<path fill-rule="evenodd" clip-rule="evenodd" d="M33.2754 34.5918C33.2754 34.6238 33.3766 34.7653 33.5004 34.9063C33.6241 35.0472 33.7935 35.2959 33.8766 35.4588C33.9597 35.6218 34.0783 35.9493 34.1401 36.1866C34.2019 36.4239 34.2525 36.7784 34.2525 36.9744C34.2525 37.1703 34.2145 37.5099 34.1681 37.729C34.1216 37.948 34.0202 38.2528 33.9426 38.4061C33.865 38.5596 33.8015 38.7033 33.8015 38.7256C33.8015 38.7479 33.972 38.7662 34.1803 38.7662C34.3886 38.7662 34.8875 38.802 35.2889 38.8458C35.6903 38.8896 36.3338 38.9904 36.7188 39.0698C37.1038 39.1492 37.7681 39.331 38.1949 39.4738C38.6217 39.6166 39.3075 39.9024 39.7189 40.1089C40.1303 40.3153 40.819 40.7198 41.2493 41.0077C41.6797 41.2955 42.4066 41.8534 42.8647 42.2472C43.3229 42.6411 44.0383 43.3376 44.4547 43.795C44.8711 44.2524 45.4682 44.9452 45.7814 45.3348C46.0947 45.7243 46.6813 46.4971 47.0851 47.0523C47.4889 47.6073 48.3881 48.9211 49.0835 49.9717C49.7788 51.0223 50.9288 52.7621 51.639 53.8377C52.3492 54.9134 53.2262 56.1905 53.5879 56.6757C53.9497 57.1609 54.2456 57.6009 54.2456 57.6536C54.2456 57.7062 54.0407 57.9512 53.7905 58.1979C53.5402 58.4446 53.2358 58.7961 53.114 58.9788C52.9494 59.226 52.8927 59.3993 52.893 59.6553C52.8931 59.8637 52.951 60.0942 53.0397 60.2396C53.1202 60.3717 53.2683 60.5337 53.3687 60.5994C53.4691 60.6652 55.2042 61.2044 57.2243 61.7976C59.2445 62.3909 61.2253 62.9687 61.6262 63.0817C62.127 63.2229 62.4362 63.272 62.6145 63.2385C62.7572 63.2118 62.9629 63.1199 63.0715 63.0344C63.1803 62.9489 63.3359 62.7482 63.4174 62.5884C63.499 62.4286 63.5657 62.22 63.5657 62.1249C63.5657 62.0297 62.8586 60.0713 61.9945 57.7728C61.1303 55.4742 60.3686 53.4878 60.3017 53.3586C60.2349 53.2293 60.1005 53.0713 60.0031 53.0075C59.9057 52.9437 59.7137 52.8593 59.5767 52.8199C59.4123 52.7728 59.2235 52.7758 59.0225 52.8288C58.7793 52.893 58.5647 53.0699 57.961 53.7033L57.2045 54.4971L56.5978 53.6405C56.264 53.1694 55.4581 51.9721 54.8068 50.98C54.1555 49.9879 53.0397 48.2967 52.3271 47.2219C51.6145 46.1471 50.6669 44.7773 50.2212 44.1778C49.7755 43.5784 49.0892 42.7017 48.6962 42.2295C48.3033 41.7574 47.626 41.0028 47.1911 40.5528C46.7563 40.1027 46.0771 39.454 45.6818 39.1113C45.2865 38.7686 44.6417 38.2529 44.249 37.9653C43.8563 37.6778 43.2982 37.2947 43.0089 37.114C42.7195 36.9333 42.0891 36.5881 41.6081 36.3469C41.127 36.1057 40.3829 35.7786 39.9545 35.62C39.5261 35.4614 38.8374 35.2427 38.424 35.134C38.0106 35.0254 37.2665 34.8665 36.7704 34.781C36.2452 34.6905 35.3269 34.6064 34.5719 34.5797C33.8588 34.5544 33.2754 34.5599 33.2754 34.5918ZM66.0635 34.6402C65.7631 34.675 65.1244 34.7918 64.6441 34.8995C64.164 35.0072 63.4325 35.2131 63.0186 35.3572C62.6048 35.5012 61.8736 35.8167 61.3938 36.0582C60.9141 36.2997 60.1665 36.7333 59.7324 37.0217L58.9432 37.5461L58.2667 36.9269C57.8947 36.5863 57.482 36.2521 57.3498 36.1841C57.2174 36.116 56.9975 36.0604 56.8612 36.0605C56.7248 36.0605 56.4972 36.1197 56.3554 36.192C56.2137 36.2643 56.0334 36.4112 55.9549 36.5184C55.8764 36.6256 55.6152 37.4036 55.3746 38.2471C55.134 39.0907 54.5786 41.0504 54.1404 42.6021C53.7021 44.1538 53.3436 45.5241 53.3436 45.6473C53.3436 45.7705 53.4062 45.9892 53.4828 46.1332C53.5593 46.2773 53.7335 46.4713 53.8697 46.5642C54.0347 46.6768 54.2287 46.7333 54.4502 46.7333C54.658 46.7333 55.0703 46.6222 55.5477 46.4374C55.9684 46.2746 57.8176 45.5607 59.6572 44.8508C61.4968 44.1409 63.0923 43.5136 63.2027 43.4567C63.3131 43.3998 63.4783 43.2482 63.5697 43.1199C63.6612 42.9914 63.7521 42.743 63.7719 42.5677C63.7968 42.347 63.7649 42.1658 63.6679 41.9775C63.591 41.8282 63.2406 41.4463 62.8892 41.1289C62.5378 40.8115 62.2503 40.5166 62.2503 40.4738C62.2503 40.4309 62.5873 40.217 62.9992 39.9985C63.411 39.7801 64.032 39.4979 64.3793 39.3714C64.7266 39.2449 65.3535 39.0677 65.7726 38.9777C66.3891 38.8452 66.7927 38.8131 67.8875 38.8096C68.9094 38.8063 69.3967 38.838 69.8793 38.9392C70.2306 39.0129 70.8442 39.173 71.2427 39.295C71.6411 39.4172 72.2638 39.6553 72.6263 39.8244C72.9888 39.9934 73.6098 40.3443 74.0063 40.604C74.4028 40.8638 74.9903 41.306 75.3118 41.5866C75.6334 41.8673 76.101 42.3368 76.351 42.63C76.601 42.9232 76.993 43.4435 77.2221 43.7862C77.4512 44.1288 77.7743 44.6857 77.9399 45.0238C78.1057 45.3618 78.3239 45.8579 78.4248 46.1262C78.5258 46.3944 78.689 46.9537 78.7875 47.3689C78.8859 47.7841 79.0063 48.4775 79.055 48.9097C79.1092 49.3903 79.1233 50.0178 79.0912 50.5256C79.0624 50.9822 78.9889 51.6433 78.9279 51.9947C78.867 52.3461 78.6857 53.027 78.5251 53.5079C78.3647 53.9888 78.1256 54.5976 77.9939 54.8608C77.8622 55.1241 77.6334 55.5423 77.4853 55.7904C77.3374 56.0384 77.0531 56.4585 76.8537 56.7239C76.6542 56.9893 76.3282 57.3783 76.1291 57.5882C75.93 57.7982 75.55 58.1707 75.2848 58.4158C75.0194 58.661 74.498 59.0619 74.1259 59.3068C73.7539 59.5517 73.1941 59.8807 72.8821 60.0381C72.5701 60.1954 71.9105 60.4613 71.4165 60.6291C70.9224 60.7968 70.1799 60.9913 69.7665 61.0612C69.3108 61.1384 68.5858 61.1898 67.925 61.192C67.3256 61.194 66.5854 61.1537 66.2801 61.1026C65.9747 61.0514 65.7114 61.0229 65.6951 61.0393C65.6788 61.0556 65.7045 61.306 65.7523 61.5956C65.8189 61.9984 65.8183 62.2433 65.7494 62.6383C65.697 62.9392 65.548 63.3668 65.3919 63.6637C65.2233 63.9848 64.9596 64.3255 64.6784 64.5858C64.4034 64.8405 64.2703 65.0113 64.3312 65.0316C64.3856 65.0496 64.7006 65.1156 65.0313 65.1782C65.362 65.2409 66.0385 65.3321 66.5345 65.381C67.0795 65.4348 67.8561 65.451 68.4968 65.422C69.0801 65.3955 69.9764 65.3029 70.4886 65.2161C71.0009 65.1292 71.809 64.9404 72.2844 64.7966C72.7598 64.6527 73.4721 64.4008 73.8674 64.2368C74.2627 64.0728 74.9623 63.7252 75.4222 63.4644C75.8821 63.2036 76.5369 62.7908 76.8772 62.547C77.2175 62.3034 77.8418 61.7927 78.2645 61.4123C78.6872 61.0319 79.3107 60.3892 79.65 59.9842C79.9894 59.5792 80.5024 58.8927 80.7902 58.4586C81.0779 58.0246 81.5122 57.2635 81.7552 56.7675C81.9981 56.2714 82.3331 55.4678 82.4994 54.9816C82.6657 54.4955 82.8856 53.7006 82.988 53.2153C83.0903 52.73 83.2098 51.9827 83.2537 51.5545C83.2974 51.1264 83.3333 50.4305 83.3333 50.008C83.3333 49.5855 83.2972 48.8703 83.2533 48.4188C83.2093 47.9672 83.0886 47.2087 82.985 46.7333C82.8815 46.2579 82.6784 45.5138 82.5338 45.0798C82.3891 44.6457 82.0542 43.8407 81.7896 43.2908C81.5249 42.741 81.117 41.9969 80.8832 41.6373C80.6494 41.2776 80.2291 40.696 79.9492 40.3446C79.6693 39.9932 79.0733 39.3503 78.6246 38.916C78.1759 38.4816 77.5552 37.9344 77.2451 37.7C76.9351 37.4656 76.377 37.0828 76.005 36.8492C75.6329 36.6158 74.9734 36.254 74.5393 36.0455C74.1052 35.8369 73.3104 35.5215 72.773 35.3446C72.2356 35.1676 71.4577 34.954 71.0443 34.8698C70.6309 34.7856 69.9642 34.6808 69.5628 34.6369C69.1614 34.593 68.3327 34.5615 67.7213 34.5669C67.1099 34.5722 66.3639 34.6052 66.0635 34.6402ZM21.6253 36.0021C21.3775 36.1273 21.2418 36.2628 21.1179 36.5085C21.025 36.6929 20.9488 36.9346 20.9488 37.0455C20.9488 37.1564 21.2194 37.7934 21.5501 38.4609C21.8808 39.1285 22.1514 39.7073 22.1514 39.7473C22.1514 39.7873 21.9531 40.0648 21.7107 40.3641C21.4682 40.6634 21.0813 41.1977 20.851 41.5515C20.6205 41.9053 20.2964 42.4465 20.1306 42.7541C19.9649 43.0618 19.6957 43.6348 19.5325 44.0275C19.3693 44.4202 19.132 45.0798 19.0051 45.4932C18.8783 45.9066 18.7066 46.5836 18.6236 46.9978C18.5406 47.412 18.4337 48.173 18.3859 48.689C18.3362 49.226 18.319 50.0448 18.3459 50.6042C18.3717 51.1416 18.444 51.9195 18.5067 52.3329C18.5693 52.7463 18.7242 53.4735 18.8508 53.9489C18.9774 54.4243 19.2141 55.1544 19.3769 55.5713C19.5397 55.9883 19.8233 56.6242 20.007 56.9845C20.1909 57.3447 20.5669 57.9844 20.8427 58.4061C21.1185 58.8277 21.4822 59.3418 21.6511 59.5485C21.8198 59.7552 22.16 60.1558 22.4071 60.4389C22.6542 60.722 23.221 61.267 23.6668 61.6501C24.1126 62.0332 24.8205 62.5744 25.2398 62.8527C25.6591 63.131 26.4295 63.5724 26.9518 63.8335C27.474 64.0947 28.2009 64.4131 28.567 64.541C28.9332 64.669 29.5697 64.8591 29.9814 64.9634C30.3932 65.0678 31.0576 65.2031 31.4578 65.2641C31.858 65.325 32.6421 65.396 33.2002 65.4217C33.7746 65.4481 34.6615 65.4309 35.2442 65.3818C35.8102 65.3341 36.6389 65.2293 37.0856 65.1488C37.5323 65.0684 38.2534 64.9005 38.688 64.7759C39.1226 64.6513 39.8289 64.4126 40.2575 64.2456C40.6863 64.0785 41.3792 63.766 41.7975 63.5512C42.2157 63.3363 42.9468 62.9035 43.4222 62.5892C43.8976 62.275 44.6417 61.7336 45.0758 61.386C45.5099 61.0385 46.3748 60.2461 46.9979 59.6251C47.621 59.0042 48.4586 58.1105 48.8592 57.6392C49.2599 57.1679 49.5726 56.7671 49.5543 56.7487C49.5358 56.7303 49.0783 56.8876 48.5376 57.0983C47.8118 57.3812 47.4536 57.4815 47.1696 57.4815C46.8154 57.4815 46.7586 57.4554 46.4564 57.1532C46.235 56.9318 46.1242 56.7542 46.1163 56.6083C46.11 56.4891 46.112 56.3071 46.1209 56.2038C46.13 56.1004 46.3077 55.4133 46.516 54.6768C46.7243 53.9402 46.8812 53.3241 46.8647 53.3075C46.848 53.2909 46.6579 53.5134 46.442 53.8019C46.2261 54.0904 45.7159 54.7234 45.3081 55.2088C44.9004 55.694 44.1317 56.5151 43.5999 57.0335C43.0682 57.5519 42.3117 58.2145 41.919 58.506C41.5263 58.7975 40.9395 59.196 40.615 59.3915C40.2906 59.5869 39.7664 59.8664 39.45 60.0124C39.1337 60.1585 38.6382 60.3602 38.3488 60.4608C38.0594 60.5614 37.5014 60.7237 37.1086 60.8214C36.7159 60.9191 36.124 61.0352 35.7933 61.0795C35.4626 61.1237 34.8698 61.1819 34.476 61.2088C34.076 61.2361 33.3556 61.2187 32.8437 61.1693C32.3398 61.1208 31.5883 60.9989 31.1738 60.8985C30.7593 60.7981 30.1071 60.5952 29.7244 60.4474C29.3418 60.2997 28.7581 60.0311 28.4274 59.8505C28.0967 59.6699 27.586 59.3533 27.2926 59.1467C26.9991 58.9403 26.4624 58.4906 26.0999 58.1474C25.7374 57.8043 25.2299 57.252 24.972 56.92C24.7142 56.5881 24.3631 56.0932 24.192 55.8203C24.0208 55.5473 23.7493 55.0396 23.5887 54.6921C23.4282 54.3445 23.2119 53.7899 23.1081 53.4596C23.0044 53.1293 22.8651 52.6054 22.7985 52.2953C22.7319 51.9853 22.6476 51.4272 22.6112 51.0552C22.5749 50.6831 22.5589 50.0236 22.5758 49.5895C22.5926 49.1554 22.6588 48.479 22.7229 48.0863C22.787 47.6935 22.9693 46.9797 23.1281 46.5C23.2868 46.0202 23.5689 45.3268 23.7549 44.9591C23.9409 44.5915 24.1427 44.2247 24.2033 44.1441C24.3078 44.005 24.3236 44.0177 24.5128 44.3911C24.6293 44.621 24.8126 44.8458 24.9538 44.9319C25.0867 45.013 25.3069 45.1004 25.443 45.1261C25.598 45.1554 25.8131 45.1261 26.0189 45.0475C26.3247 44.9307 26.5333 44.6749 29.041 41.3427C30.5224 39.3742 31.7975 37.6451 31.8744 37.5004C31.9744 37.3125 32.0036 37.1421 31.9767 36.9034C31.9559 36.7197 31.8726 36.4801 31.7913 36.3712C31.7101 36.2622 31.5288 36.1054 31.3884 36.0228C31.1419 35.8775 30.9784 35.8718 26.5484 35.8518L21.9635 35.8312L21.6253 36.0021Z" fill="url(#paint0_linear_453_7303)"/>
<defs>
<linearGradient id="paint0_linear_453_7303" x1="7.34734" y1="28.5047" x2="56.0013" y2="91.1173" gradientUnits="userSpaceOnUse">
<stop stop-color="#B98300"/>
<stop offset="0.546875" stop-color="#FFF5A4"/>
<stop offset="0.9999" stop-color="#FFFADF"/>
<stop offset="1" stop-color="#785500"/>
</linearGradient>
</defs>
</svg>
