<svg width="24" height="25" viewBox="0 0 24 25" fill="none" xmlns="http://www.w3.org/2000/svg">
<g id="24 / basic / circle-checked">
<path id="icon" fill-rule="evenodd" clip-rule="evenodd" d="M12 23.1733C5.92487 23.1733 1 18.2485 1 12.1733C1 6.09821 5.92487 1.17334 12 1.17334C18.0751 1.17334 23 6.09821 23 12.1733C23 18.2485 18.0751 23.1733 12 23.1733ZM12 21.1733C16.9706 21.1733 21 17.1439 21 12.1733C21 7.20278 16.9706 3.17334 12 3.17334C7.02944 3.17334 3 7.20278 3 12.1733C3 17.1439 7.02944 21.1733 12 21.1733ZM15.2929 8.46623L10 13.7591L7.70711 11.4662L6.29289 12.8804L10 16.5876L16.7071 9.88045L15.2929 8.46623Z" fill="#F3012A"/>
</g>
</svg>
