<svg width="25" height="25" viewBox="0 0 25 25" fill="none" xmlns="http://www.w3.org/2000/svg">
<path fill-rule="evenodd" clip-rule="evenodd" d="M12.5 23.1677C6.42487 23.1677 1.5 18.2429 1.5 12.1677C1.5 6.09259 6.42487 1.16772 12.5 1.16772C18.5751 1.16772 23.5 6.09259 23.5 12.1677C23.5 18.2429 18.5751 23.1677 12.5 23.1677ZM12.5 21.1677C17.4706 21.1677 21.5 17.1383 21.5 12.1677C21.5 7.19716 17.4706 3.16772 12.5 3.16772C7.52944 3.16772 3.5 7.19716 3.5 12.1677C3.5 17.1383 7.52944 21.1677 12.5 21.1677ZM15.7929 8.46062L10.5 13.7535L8.20711 11.4606L6.79289 12.8748L10.5 16.5819L17.2071 9.87483L15.7929 8.46062Z" fill="#D6B556"/>
</svg>
