<svg width="265" height="201" viewBox="0 0 265 201" fill="none" xmlns="http://www.w3.org/2000/svg">
<circle cx="100.769" cy="100.374" r="99.25" transform="rotate(-180 100.769 100.374)" stroke="#F3012A" stroke-width="1.5"/>
<path d="M191.954 69.8968C193.071 71.4515 195.237 71.8059 196.792 70.6885C198.347 69.5711 198.701 67.4049 197.584 65.8503C196.466 64.2956 194.3 63.9411 192.745 65.0585C191.191 66.176 190.836 68.3421 191.954 69.8968ZM231.204 49.6468C232.321 51.2015 234.487 51.5559 236.042 50.4385C237.597 49.3211 237.951 47.1549 236.834 45.6003C235.716 44.0456 233.55 43.6911 231.995 44.8085C230.441 45.926 230.086 48.0921 231.204 49.6468ZM195.067 68.4512L234.317 48.2012L233.721 47.0459L194.471 67.2959L195.067 68.4512Z" fill="#F3012A"/>
<path d="M231.204 113.397C232.321 114.951 234.487 115.306 236.042 114.189C237.597 113.071 237.951 110.905 236.834 109.35C235.716 107.796 233.55 107.441 231.995 108.559C230.441 109.676 230.086 111.842 231.204 113.397ZM231.204 49.6468C232.321 51.2015 234.487 51.5559 236.042 50.4385C237.597 49.3211 237.951 47.1549 236.834 45.6002C235.716 44.0456 233.55 43.6911 231.995 44.8085C230.441 45.926 230.086 48.0921 231.204 49.6468ZM234.669 111.374L234.669 47.6235L233.369 47.6235L233.369 111.374L234.669 111.374Z" fill="#F3012A"/>
<path d="M257.019 156.373L250.498 152.656L250.539 160.162L257.019 156.373ZM231.204 113.647C232.321 115.201 234.487 115.556 236.042 114.438C237.597 113.321 237.951 111.155 236.834 109.6C235.716 108.046 233.55 107.691 231.995 108.808C230.441 109.926 230.086 112.092 231.204 113.647ZM234.019 156.498L233.369 156.498L233.369 157.152L234.022 157.148L234.019 156.498ZM251.165 155.755L234.015 155.848L234.022 157.148L251.172 157.055L251.165 155.755ZM234.669 156.498L234.669 111.623L233.369 111.623L233.369 156.498L234.669 156.498Z" fill="#F3012A"/>
</svg>
