<svg width="268" height="200" viewBox="0 0 268 200" fill="none" xmlns="http://www.w3.org/2000/svg">
<circle cx="100.269" cy="100" r="99.25" transform="rotate(-180 100.269 100)" stroke="#D6B556" stroke-width="1.5"/>
<path d="M191.454 69.5233C192.571 71.0779 194.737 71.4324 196.292 70.315C197.847 69.1976 198.201 67.0314 197.084 65.4767C195.966 63.9221 193.8 63.5676 192.246 64.685C190.691 65.8024 190.336 67.9686 191.454 69.5233ZM230.704 49.2733C231.821 50.8279 233.987 51.1824 235.542 50.065C237.097 48.9476 237.451 46.7814 236.334 45.2267C235.216 43.6721 233.05 43.3176 231.496 44.435C229.941 45.5524 229.586 47.7186 230.704 49.2733ZM194.567 68.0777L233.817 47.8277L233.221 46.6723L193.971 66.9223L194.567 68.0777Z" fill="#D6B556"/>
<path d="M230.704 121.023C231.821 122.578 233.987 122.933 235.542 121.815C237.097 120.698 237.451 118.532 236.334 116.977C235.216 115.422 233.05 115.068 231.496 116.185C229.941 117.303 229.586 119.469 230.704 121.023ZM230.704 49.2733C231.821 50.8279 233.987 51.1824 235.542 50.065C237.097 48.9475 237.451 46.7814 236.334 45.2267C235.216 43.672 233.05 43.3176 231.496 44.435C229.941 45.5524 229.586 47.7186 230.704 49.2733ZM234.169 119L234.169 47.25L232.869 47.25L232.869 119L234.169 119Z" fill="#D6B556"/>
<path d="M259.068 168.276L252.548 164.558L252.589 172.064L259.068 168.276ZM230.733 120.645C231.85 122.2 234.016 122.554 235.571 121.437C237.126 120.319 237.48 118.153 236.363 116.599C235.245 115.044 233.079 114.689 231.524 115.807C229.97 116.924 229.615 119.09 230.733 120.645ZM233.548 168.414L232.898 168.414L232.898 169.068L233.551 169.064L233.548 168.414ZM253.215 167.658L233.544 167.764L233.551 169.064L253.222 168.958L253.215 167.658ZM234.198 168.414L234.198 118.622L232.898 118.622L232.898 168.414L234.198 168.414Z" fill="#D6B556"/>
</svg>
