<svg width="100" height="100" viewBox="0 0 100 100" fill="none" xmlns="http://www.w3.org/2000/svg">
<rect width="100" height="100" fill="white"/>
<path fill-rule="evenodd" clip-rule="evenodd" d="M48.8188 17.5937C45.9976 17.9381 43.1758 19.4072 40.666 21.8383C39.6652 22.8078 38.9908 23.6037 38.3886 24.5258C36.3882 27.5891 35.7948 31.1681 36.7058 34.6756C36.8748 35.3264 36.8542 35.4048 36.5144 35.4048C36.1932 35.4048 35.7419 35.6708 35.5194 35.9912L35.3196 36.2791L35.3278 37.5501C35.3373 39.0253 35.4368 39.622 35.9129 41.0617C36.5881 43.1032 37.4161 44.5591 37.902 44.5591C38.0503 44.5591 38.1408 44.7761 38.3159 45.5509C39.0341 48.7289 40.2225 51.0968 41.9816 52.8554C43.6671 54.5403 45.626 55.5102 48.2881 55.9779C49.0218 56.1068 50.8346 56.088 51.5717 55.9439C53.2309 55.6195 54.599 55.0942 55.784 54.3269C56.5273 53.8455 57.9977 52.3718 58.5473 51.5574C59.6806 49.8782 60.5102 47.9322 60.8919 46.0576C60.9656 45.6961 61.0576 45.3619 61.0965 45.315C61.1453 45.2562 61.2681 45.2418 61.4933 45.2685C61.7701 45.3013 61.858 45.2816 62.0749 45.1381C62.7616 44.6836 63.824 42.3338 64.2128 40.4095C64.3948 39.5089 64.4782 37.1286 64.3396 36.7939C64.2938 36.6834 64.1074 36.4626 63.9253 36.3033L63.5943 36.0138L63.7691 35.0957C64.101 33.3528 64.1663 32.5577 64.171 30.1975C64.1747 28.3478 64.1569 27.9159 64.0566 27.4114C63.7679 25.9603 63.2537 24.7336 62.5833 23.8964C62.0998 23.2925 61.6385 22.9169 61.0245 22.627C60.7508 22.4978 60.3956 22.3284 60.2351 22.2505C60.0288 22.1503 59.8117 21.9421 59.4944 21.5398C58.1468 19.8314 55.5411 18.2893 53.1245 17.77C51.8125 17.488 50.219 17.4228 48.8188 17.5937ZM39.1007 55.2004C37.0428 56.471 33.7598 58.114 31.7375 58.8853C31.3726 59.0245 30.1786 59.4287 29.084 59.7837C26.2734 60.6951 25.5386 61.062 24.6615 61.9918C24.1518 62.5321 23.7918 63.1097 23.3763 64.0537C22.7023 65.5854 22.6086 66.2338 22.5679 69.6509C22.5289 72.9251 22.5969 74.0135 22.9505 75.7698C23.0296 76.1626 22.8904 76.0698 24.9381 77.096C27.6803 78.4704 30.0871 79.4066 33.1305 80.2825C36.1805 81.1603 39.7273 81.8766 42.9536 82.2661C45.6566 82.5924 54.6837 82.5729 57.3429 82.2351C62.0885 81.6321 67.1229 80.3952 71.2401 78.8206C73.1542 78.0885 75.87 76.7973 76.558 76.2923C76.9415 76.0109 77.0462 75.8289 77.1725 75.2251C77.3868 74.2004 77.4414 73.1362 77.4419 69.9655C77.4424 66.9194 77.4373 66.7914 77.2894 66.118C76.8492 64.1141 76.1466 62.7188 75.0595 61.6898C74.3665 61.0339 73.6908 60.6718 72.3652 60.246C68.8664 59.122 67.845 58.7426 65.7407 57.7852C64.3047 57.1319 63.1103 56.4964 61.2246 55.3827C60.4773 54.9413 59.8458 54.6015 59.8214 54.6276C59.797 54.6538 58.8162 57.72 57.642 61.4414C54.4204 71.6505 53.9933 72.9506 53.8607 72.9506C53.8308 72.9506 53.7619 72.8237 53.7077 72.6686C53.6534 72.5136 53.143 71.076 52.5734 69.4739L51.5379 66.5612L52.0043 65.8458C52.5362 65.0302 53.2391 63.6164 53.5014 62.8344C53.7346 62.1397 53.7926 61.2015 53.6358 60.6621C53.3345 59.6257 52.3022 58.9899 50.6475 58.8216C49.9174 58.7473 48.9283 58.8082 48.3876 58.9605C47.6476 59.1691 46.8568 59.7514 46.5081 60.3446C46.3416 60.6277 46.3313 60.694 46.3331 61.4746C46.3349 62.2339 46.3532 62.3558 46.5489 62.9217C46.8494 63.79 47.1911 64.474 47.8889 65.6038L48.4931 66.5821L47.8316 68.4562C46.8586 71.2124 46.2348 72.9077 46.1692 72.9733C46.0591 73.0834 46.2716 73.7306 42.3832 61.4414C41.3558 58.1943 40.4501 55.3309 40.3705 55.0783C40.2909 54.8257 40.1966 54.6116 40.1608 54.6025C40.125 54.5934 39.6479 54.8625 39.1007 55.2004Z" fill="#0C314B"/>
</svg>
