<svg width="100" height="100" viewBox="0 0 100 100" fill="none" xmlns="http://www.w3.org/2000/svg">
<rect width="100" height="100" fill="white"/>
<path fill-rule="evenodd" clip-rule="evenodd" d="M59.6543 17.6186C59.6234 17.71 59.3906 18.5776 59.1366 19.5467C58.8828 20.5158 58.6288 21.3517 58.5724 21.4045C58.356 21.6066 56.6754 22.2035 56.5062 22.1385C56.4082 22.101 55.6031 21.6483 54.7169 21.1325L53.1058 20.1948L50.2965 23.0041L47.4871 25.8135L48.416 27.4038C48.9268 28.2785 49.3793 29.0838 49.4213 29.1936C49.4927 29.3797 48.9106 31.0513 48.6934 31.2834C48.6395 31.3411 47.7444 31.6121 46.7043 31.8855C44.9481 32.3473 44.8104 32.406 44.774 32.7079C44.7451 32.9477 44.5538 33.131 44.0456 33.4059L43.3565 33.7787L42.4435 33.4173C41.9412 33.2186 41.4832 33.0119 41.4255 32.9579C41.3679 32.904 41.0966 32.0089 40.8227 30.9688L40.3246 29.0776H36.3434H32.3623L31.8642 30.9688C31.5903 32.0089 31.319 32.904 31.2614 32.9579C31.0292 33.1751 29.3576 33.7572 29.1715 33.6858C29.0617 33.6438 28.2564 33.1913 27.3817 32.6805L25.7914 31.7516L22.9827 34.5604L20.1739 37.369L21.1028 38.9594C21.6136 39.834 22.0662 40.6394 22.1082 40.7491C22.1796 40.9352 21.5975 42.6068 21.3803 42.839C21.3263 42.8966 20.4313 43.1679 19.3912 43.4419L17.5 43.9399V47.9211V51.9022L19.3912 52.4003C20.4313 52.6742 21.3263 52.9455 21.3803 53.0032C21.5975 53.2353 22.1796 54.9069 22.1082 55.093C22.0662 55.2028 21.6136 56.0081 21.1028 56.8828L20.1739 58.4731L22.9827 61.2818L25.7914 64.0906L27.3817 63.1617C28.2564 62.6509 29.0617 62.1984 29.1715 62.1563C29.3576 62.0849 31.0292 62.667 31.2614 62.8842C31.319 62.9382 31.5903 63.8332 31.8642 64.8733L32.3623 66.7645H36.3434H40.3246L40.8227 64.8733C41.0966 63.8332 41.3679 62.9428 41.4255 62.8945C41.4832 62.8461 41.9382 62.6379 42.4368 62.4314L43.3432 62.0563L44.0426 62.4346L44.7418 62.8129L44.7775 65.2364L44.8131 67.6601L46.7043 68.1579C47.7444 68.4318 48.6395 68.7031 48.6934 68.7607C48.9106 68.9929 49.4927 70.6645 49.4213 70.8506C49.3793 70.9604 48.9268 71.7657 48.416 72.6404L47.4871 74.2307L50.2965 77.04L53.1058 79.8493L54.7169 78.9116C55.6031 78.3958 56.4082 77.9432 56.5062 77.9056C56.6765 77.8402 58.3569 78.4383 58.5745 78.6418C58.6321 78.6958 58.9034 79.5908 59.1773 80.6309L59.6754 82.5221H63.6566H67.6377L68.1342 80.637C68.4072 79.6 68.6635 78.7189 68.7037 78.6787C68.8156 78.5667 70.5248 77.8602 70.678 77.8624C70.7523 77.8636 71.5789 78.309 72.5149 78.8523L74.2168 79.8399L77.0214 77.0353L79.8261 74.2307L78.8972 72.6404C78.3864 71.7657 77.9338 70.9604 77.8918 70.8506C77.8207 70.6652 78.4021 68.9936 78.6181 68.7623C78.6712 68.7055 79.5663 68.4357 80.6073 68.1627L82.5 67.6664V63.6819V59.6975L80.6088 59.1994C79.5687 58.9255 78.6737 58.6542 78.6197 58.5966C78.4025 58.3644 77.8204 56.6928 77.8918 56.5067C77.9338 56.3969 78.3861 55.592 78.8965 54.718L79.8248 53.1287L78.2755 51.5754L76.7263 50.0221L78.2755 48.4688L79.8248 46.9155L78.8965 45.3262C78.3861 44.4522 77.9338 43.6472 77.8918 43.5375C77.8204 43.3514 78.4025 41.6798 78.6197 41.4476C78.6737 41.39 79.5687 41.1187 80.6088 40.8447L82.5 40.3467V36.3655V32.3844L80.6088 31.8863C79.5687 31.6124 78.6737 31.3411 78.6197 31.2834C78.4025 31.0513 77.8204 29.3797 77.8918 29.1936C77.9338 29.0838 78.3864 28.2785 78.8972 27.4038L79.8261 25.8135L77.0214 23.0089L74.2168 20.2043L72.5149 21.1919C71.5789 21.7351 70.7523 22.1806 70.678 22.1817C70.5248 22.184 68.8156 21.4775 68.7037 21.3655C68.6635 21.3253 68.4072 20.4442 68.1342 19.4072L67.6378 17.5221L63.6742 17.4873C60.5708 17.4601 59.6983 17.4886 59.6543 17.6186ZM66.1536 20.1155C66.2324 20.4225 66.378 20.9691 66.477 21.3302C66.5759 21.6913 66.7215 22.2335 66.8006 22.535C66.9391 23.064 66.9748 23.093 67.8281 23.3709C68.3144 23.5293 69.1658 23.8828 69.7202 24.1564L70.7284 24.6538L72.3286 23.7298L73.9288 22.8057L75.5745 24.4515L77.2203 26.0972L76.2922 27.7029L75.3641 29.3086L75.8626 30.3094C76.1368 30.8597 76.4912 31.7077 76.6501 32.194C76.9289 33.0468 76.9582 33.083 77.4871 33.2215C77.7886 33.3005 78.3308 33.4462 78.6919 33.545C79.053 33.6441 79.5997 33.7897 79.9066 33.8685L80.4646 34.012V36.3655V38.719L79.9066 38.8626C79.5997 38.9414 79.053 39.087 78.6919 39.186C78.3308 39.2849 77.7886 39.4305 77.4871 39.5096C76.9582 39.6481 76.9289 39.6842 76.6501 40.5371C76.4912 41.0233 76.1368 41.8714 75.8626 42.4217L75.3641 43.4224L76.2911 45.0264L77.2182 46.6304L76.3171 47.5383C75.8215 48.0377 75.358 48.4463 75.2868 48.4463C75.2157 48.4463 74.9444 48.2382 74.6838 47.9837L74.2102 47.5212L72.5117 48.507C71.5775 49.0492 70.7523 49.4937 70.678 49.4949C70.6037 49.4959 70.131 49.3242 69.6275 49.113C68.6512 48.7037 68.5389 48.553 68.3129 47.3484C68.2444 46.9832 68.2667 46.8706 68.4076 46.8706C68.8 46.8706 70.8432 45.4683 71.7407 44.5831C76.2913 40.0947 76.3476 32.8165 71.8667 28.274C67.3511 23.6962 60.0574 23.6717 55.5102 28.2191C50.9901 32.739 50.9866 40.0055 55.5022 44.521C56.388 45.407 57.9496 46.5089 58.6797 46.7634C59.0543 46.8941 59.0773 46.9375 58.997 47.3654C58.7682 48.585 58.6625 48.7264 57.6818 49.1233C57.1763 49.328 56.7105 49.4957 56.6467 49.496C56.583 49.4966 55.7614 49.0505 54.821 48.505L53.1112 47.5132L52.6334 47.9798C52.3706 48.2364 52.0975 48.4463 52.0263 48.4463C51.9551 48.4463 51.4916 48.0377 50.996 47.5383L50.0949 46.6304L51.022 45.0264L51.9491 43.4224L51.4505 42.4217C51.1763 41.8714 50.8219 41.0233 50.663 40.5371C50.3842 39.6842 50.3549 39.6481 49.826 39.5096C49.5245 39.4305 48.9823 39.2849 48.6212 39.186C48.2601 39.087 47.7136 38.9414 47.4066 38.8626L46.8485 38.719V36.3768V34.0346L48.3914 33.6164C49.2401 33.3863 50.0339 33.1694 50.1555 33.1343C50.2907 33.0953 50.4882 32.7289 50.6642 32.1903C50.8224 31.7061 51.1763 30.8597 51.4505 30.3094L51.9491 29.3086L51.021 27.7029L50.0928 26.0972L51.7406 24.4495L53.3883 22.8018L54.994 23.7299L56.5997 24.658L57.6004 24.1594C58.1507 23.8853 58.9988 23.5308 59.485 23.372C60.3379 23.0932 60.374 23.0639 60.5125 22.535C60.5916 22.2335 60.7372 21.6913 60.8361 21.3302C60.9351 20.9691 61.0807 20.4224 61.1595 20.1155L61.303 19.5574H63.6566H66.0101L66.1536 20.1155ZM66.4798 27.3576C67.0576 27.5415 67.9144 27.915 68.3838 28.1875C69.4791 28.8232 71.1989 30.543 71.8346 31.6383C73.5888 34.6608 73.4721 38.6523 71.5447 41.5418L71.0262 42.319L70.9434 41.9357C70.6066 40.3769 69.7155 39.2937 68.0823 38.4573L67.0024 37.9044L67.3977 37.1067C67.786 36.323 67.7929 36.2727 67.7929 34.269C67.7929 31.9036 67.6599 31.4599 66.6156 30.3435C64.6742 28.268 61.3825 28.7155 59.9902 31.2443L59.5202 32.0978V34.2645V36.4312L59.9224 37.1642L60.3246 37.8973L59.2377 38.4538C57.5971 39.2938 56.7071 40.3744 56.3697 41.9357L56.2869 42.319L55.7685 41.5418C53.841 38.6523 53.7243 34.6608 55.4785 31.6383C56.1452 30.4897 57.8532 28.7842 58.9424 28.1795C60.681 27.2142 62.0124 26.8998 64.0505 26.9734C65.0586 27.0097 65.7117 27.1131 66.4798 27.3576ZM38.8405 31.6711C38.9193 31.9781 39.0649 32.5246 39.1639 32.8857C39.2628 33.2468 39.4084 33.789 39.4875 34.0905C39.626 34.6195 39.6621 34.6487 40.515 34.9275C41.0012 35.0864 41.8486 35.4404 42.3982 35.7142L43.3973 36.2122L44.0724 35.8266L44.7475 35.4411V37.6716V39.9021L43.6387 39.0124C38.9304 35.2349 32.4151 35.5565 28.197 39.7747C23.6981 44.2735 23.6699 51.4873 28.1333 56.0127C32.614 60.5555 39.8957 60.6084 44.4351 56.1312C46.4809 54.1133 47.6344 51.5822 47.8697 48.5945L47.9646 47.3893L49.2755 48.7058L50.5864 50.0225L49.0373 51.5755L47.4884 53.1287L48.4166 54.718C48.927 55.592 49.3793 56.3969 49.4213 56.5067C49.4927 56.6928 48.9106 58.3644 48.6934 58.5966C48.6395 58.6542 47.7444 58.9253 46.7043 59.1986C44.9045 59.6719 44.8112 59.7127 44.7718 60.0436L44.7304 60.3914L44.0694 60.0138L43.4082 59.6363L42.4035 60.132C41.8511 60.4046 41.0012 60.7573 40.515 60.9157C39.6617 61.1936 39.626 61.2226 39.4875 61.7516C39.4084 62.0531 39.2628 62.5953 39.1639 62.9564C39.0649 63.3175 38.9193 63.8642 38.8405 64.1711L38.697 64.7292H36.3434H33.9899L33.8464 64.1711C33.7676 63.8642 33.622 63.3175 33.523 62.9564C33.4241 62.5953 33.2785 62.0531 33.1994 61.7516C33.0609 61.2227 33.0248 61.1934 32.1719 60.9146C31.6856 60.7558 30.8376 60.4013 30.2873 60.1272L29.2865 59.6286L27.6808 60.5567L26.0751 61.4848L24.4274 59.8371L22.7797 58.1894L23.7078 56.5837L24.6359 54.978L24.1374 53.9772C23.8632 53.4269 23.5094 52.5809 23.3513 52.0971L23.064 51.2177L22.383 51.0244C22.0085 50.9182 21.2145 50.7018 20.6187 50.5435L19.5354 50.256V47.9211V45.5862L20.6187 45.2986C21.2146 45.1404 22.0085 44.924 22.383 44.8178L23.064 44.6245L23.3513 43.7451C23.5094 43.2613 23.8632 42.4153 24.1374 41.8649L24.6359 40.8642L23.7078 39.2585L22.7797 37.6528L24.4274 36.0051L26.0751 34.3574L27.6808 35.2855L29.2865 36.2136L30.2873 35.715C30.8376 35.4408 31.6856 35.0864 32.1719 34.9275C33.0248 34.6487 33.0609 34.6195 33.1994 34.0905C33.2785 33.789 33.4241 33.2468 33.523 32.8857C33.622 32.5246 33.7676 31.9781 33.8464 31.6711L33.9899 31.113H36.3434H38.697L38.8405 31.6711ZM64.6316 31.4106C64.9529 31.5935 65.262 31.9219 65.4523 32.2826C65.7179 32.7862 65.7576 33.0479 65.7576 34.2981C65.7576 35.8472 65.6184 36.3429 65.028 36.8977C64.7444 37.1642 64.7071 37.3108 64.7071 38.1602V39.1213L66.3813 39.9607C67.3021 40.4226 68.1567 40.9126 68.2804 41.0499C68.7011 41.5168 68.9091 42.243 68.9091 43.2445C68.9091 44.2137 68.9049 44.2254 68.4668 44.4962C68.042 44.7588 67.8524 44.7696 63.6566 44.7696C59.4607 44.7696 59.2711 44.7588 58.8463 44.4962C58.4082 44.2254 58.404 44.2137 58.404 43.2445C58.404 42.243 58.612 41.5168 59.0328 41.0499C59.1565 40.9126 60.0111 40.4226 60.9318 39.9607L62.6061 39.1213V38.1602C62.6061 37.3108 62.5688 37.1642 62.2851 36.8977C61.6936 36.3419 61.5556 35.848 61.5556 34.286C61.5556 33.4891 61.6186 32.6708 61.6957 32.4675C62.1462 31.2781 63.5259 30.7814 64.6316 31.4106ZM39.1667 38.9131C40.6568 39.3877 41.7647 40.0789 42.9751 41.2894C44.1751 42.4893 44.8653 43.5893 45.3645 45.0978C45.6715 46.0254 45.7122 46.3558 45.7122 47.9211C45.7122 49.4863 45.6715 49.8167 45.3645 50.7443C44.8653 52.2528 44.1751 53.3528 42.9751 54.5528C41.7752 55.7527 40.6752 56.4429 39.1667 56.9422C38.2391 57.2492 37.9087 57.2899 36.3434 57.2899C34.7782 57.2899 34.4478 57.2492 33.5202 56.9422C32.0192 56.4454 30.9209 55.756 29.7126 54.5524C28.5124 53.3567 27.824 52.2598 27.3224 50.7443C27.0153 49.8167 26.9746 49.4863 26.9746 47.9211C26.9746 46.3558 27.0153 46.0254 27.3224 45.0978C27.8196 43.5955 28.5085 42.4943 29.7117 41.2782C31.144 39.8309 32.7863 38.9491 34.702 38.5992C35.8546 38.3885 37.9914 38.5389 39.1667 38.9131ZM47.1015 40.9522C47.9268 41.1707 48.6447 41.3951 48.6968 41.4509C48.815 41.5776 49.4753 43.2365 49.4732 43.401C49.4723 43.4676 49.0984 44.1599 48.6424 44.9392L47.8131 46.3565L47.5282 45.2018C47.1937 43.8462 46.3895 42.1019 45.6429 41.1122C45.2555 40.5988 45.1784 40.429 45.3568 40.4821C45.4911 40.5221 46.2762 40.7335 47.1015 40.9522ZM30.0404 48.4463V53.1736H36.3434H42.6465V52.1231V51.0726H41.596H40.5455V49.4968V47.9211H39.4949H38.4444V49.4968V51.0726H37.3939H36.3434V48.4463V45.8201H35.2929H34.2424V48.4463V51.0726H33.1919H32.1414V47.3958V43.7191H31.0909H30.0404V48.4463ZM66.1536 47.4287C66.2324 47.7357 66.378 48.2822 66.477 48.6433C66.5759 49.0044 66.7215 49.5466 66.8006 49.8481C66.9391 50.3772 66.9748 50.4062 67.8281 50.684C68.3144 50.8424 69.1658 51.1959 69.7202 51.4696L70.7284 51.967L72.3286 51.0429L73.9288 50.1189L75.5745 51.7646L77.2203 53.4104L76.2922 55.0161L75.3641 56.6218L75.8626 57.6225C76.1368 58.1728 76.4912 59.0208 76.6501 59.5071C76.9289 60.36 76.9582 60.3961 77.4871 60.5346C77.7886 60.6137 78.3308 60.7593 78.6919 60.8582C79.053 60.9572 79.5997 61.1028 79.9066 61.1816L80.4646 61.3251V63.6787V66.0322L79.9066 66.1757C79.5997 66.2545 79.053 66.4001 78.6919 66.4991C78.3308 66.598 77.7886 66.7436 77.4871 66.8227C76.9582 66.9612 76.9289 66.9973 76.6501 67.8502C76.4912 68.3365 76.1368 69.1845 75.8626 69.7348L75.3641 70.7356L76.2922 72.3413L77.2203 73.9469L75.5745 75.5927L73.9288 77.2384L72.3286 76.3144L70.7284 75.3903L69.7202 75.8878C69.1658 76.1614 68.3144 76.5149 67.8281 76.6733C66.9748 76.9511 66.9391 76.9802 66.8006 77.5092C66.7215 77.8107 66.5759 78.3529 66.477 78.714C66.378 79.0751 66.2324 79.6218 66.1536 79.9287L66.0101 80.4867H63.6566H61.303L61.1595 79.9287C61.0807 79.6218 60.9351 79.0751 60.8361 78.714C60.7372 78.3529 60.5916 77.8107 60.5125 77.5092C60.374 76.9803 60.3379 76.951 59.485 76.6722C58.9988 76.5133 58.1507 76.1589 57.6004 75.8847L56.5997 75.3861L54.994 76.3143L53.3883 77.2424L51.7406 75.5947L50.0928 73.9469L51.021 72.3413L51.9491 70.7356L51.4505 69.7348C51.1763 69.1845 50.8225 68.3384 50.6644 67.8547L50.3771 66.9753L49.6961 66.782C49.3216 66.6757 48.5276 66.4593 47.9318 66.3011L46.8485 66.0135V63.6787V61.3438L47.9318 61.0562C48.5276 60.898 49.3216 60.6816 49.6961 60.5753L50.3771 60.382L50.6644 59.5026C50.8225 59.0189 51.1763 58.1728 51.4505 57.6225L51.9491 56.6218L51.021 55.0161L50.0928 53.4104L51.7406 51.7626L53.3883 50.1149L54.994 51.043L56.5997 51.9712L57.6004 51.4726C58.1507 51.1984 58.9988 50.844 59.485 50.6851C60.3379 50.4063 60.374 50.377 60.5125 49.8481C60.5916 49.5466 60.7372 49.0044 60.8361 48.6433C60.9351 48.2822 61.0807 47.7357 61.1595 47.4287L61.303 46.8706H63.6566H66.0101L66.1536 47.4287ZM61.5088 52.3331C56.9128 53.1634 53.1096 57.0099 52.3013 61.6455C50.9272 69.5247 57.7702 76.4197 65.6051 75.0505C71.8852 73.9531 76.118 67.9655 75.0272 61.7226C73.9175 55.3721 67.8839 51.1813 61.5088 52.3331ZM66.4798 54.6707C67.9699 55.1453 69.0778 55.8365 70.2883 57.0469C71.4882 58.2469 72.1784 59.3469 72.6776 60.8554C72.9847 61.783 73.0254 62.1134 73.0254 63.6787C73.0254 65.2439 72.9847 65.5743 72.6776 66.5019C72.1784 68.0104 71.4882 69.1104 70.2883 70.3104C69.0883 71.5103 67.9883 72.2005 66.4798 72.6997C65.5522 73.0067 65.2218 73.0475 63.6566 73.0475C62.0913 73.0475 61.7609 73.0067 60.8333 72.6997C59.3323 72.203 58.234 71.5136 57.0258 70.31C55.8256 69.1142 55.1371 68.0174 54.6355 66.5019C54.3285 65.5743 54.2878 65.2439 54.2878 63.6787C54.2878 62.1134 54.3285 61.783 54.6355 60.8554C55.1328 59.3531 55.8216 58.2519 57.0249 57.0358C58.4571 55.5885 60.0994 54.7067 62.0152 54.3567C63.1677 54.1461 65.3045 54.2965 66.4798 54.6707ZM62.6061 57.491V58.6568L62.2077 58.8219C61.325 59.1875 60.5051 60.5147 60.5051 61.5776C60.5051 63.199 62.0296 64.7292 63.6449 64.7292C64.1968 64.7292 64.7071 65.2339 64.7071 65.7797C64.7071 66.3195 64.1964 66.8302 63.6566 66.8302C63.2184 66.8302 62.6061 66.3362 62.6061 65.9825C62.6061 65.8164 62.4155 65.7797 61.5556 65.7797C60.3829 65.7797 60.3781 65.7848 60.6595 66.7242C60.848 67.3536 61.6666 68.3112 62.2077 68.5354L62.6061 68.7005V69.8663V71.0322H63.6566H64.7071V69.8663V68.7005L65.1055 68.5354C65.9882 68.1698 66.8081 66.8426 66.8081 65.7797C66.8081 64.1583 65.2835 62.6282 63.6683 62.6282C63.1163 62.6282 62.6061 62.1234 62.6061 61.5776C62.6061 61.0378 63.1167 60.5271 63.6566 60.5271C64.0948 60.5271 64.7071 61.0211 64.7071 61.3748C64.7071 61.5409 64.8976 61.5776 65.7576 61.5776C66.9302 61.5776 66.9351 61.5725 66.6537 60.6331C66.4651 60.0037 65.6465 59.0461 65.1055 58.8219L64.7071 58.6568V57.491V56.3251H63.6566H62.6061V57.491Z" fill="#0C314B"/>
</svg>
