<svg width="100" height="100" viewBox="0 0 100 100" fill="none" xmlns="http://www.w3.org/2000/svg">
<rect width="100" height="100" fill="white"/>
<path fill-rule="evenodd" clip-rule="evenodd" d="M76.2483 18.0284C76.2483 18.2123 76.573 18.6007 76.9699 18.8908C77.5879 19.3429 76.782 20.1869 71.3583 24.7701C63.0048 31.8293 63.534 31.7387 54.8343 27.6048C50.939 25.754 47.8366 23.984 47.2881 23.3001C46.058 21.765 44.0704 22.1305 43.6574 23.9678C43.4802 24.7562 41.9501 26.4532 39.34 28.756C34.7846 32.7751 33.3526 33.2752 31.8543 31.3701C31.3659 30.749 31.0771 30.0611 31.213 29.8413C31.6391 29.152 30.9457 27.7134 30.0511 27.4295C29.5797 27.2797 28.7622 27.3882 28.2348 27.6708C27.4814 28.0739 27.3204 28.4865 27.4836 29.5978C27.6424 30.6786 27.0029 32.4653 24.7695 37.1817C23.1627 40.5752 21.6074 43.3516 21.3133 43.3516C21.0191 43.3516 20.4123 43.7561 19.9647 44.2503C19.2929 44.993 19.24 45.3437 19.6616 46.2684C20.6773 48.4977 23.6713 47.281 23.2026 44.8298C23.0295 43.923 23.7614 42.0314 26.0678 37.4275C27.772 34.0259 29.3353 31.2432 29.5421 31.2432C30.2793 31.2432 31.4023 32.9021 31.4023 33.9918C31.4023 35.348 32.1673 36.1763 33.4203 36.1763C34.5191 36.1763 35.4245 35.3941 35.4712 34.4048C35.525 33.2501 44.1538 26.0621 45.2835 26.2308C45.818 26.3106 46.4952 26.1832 46.789 25.9482C47.5747 25.3195 61.0455 31.7091 61.4949 32.924C61.9559 34.1699 62.6362 34.5197 63.9547 34.1882C64.7184 33.9967 65.1444 33.507 65.3225 32.6173C65.5176 31.6414 67.1814 29.975 72.1001 25.8285C77.8646 20.9685 78.6821 20.4187 79.1647 21.0788C80.0105 22.2359 80.2845 21.9794 80.2845 20.0317C80.2845 18.3486 80.2037 18.2378 78.9759 18.2378C78.2561 18.2378 77.3479 18.1154 76.9578 17.9656C76.5676 17.8158 76.2483 17.8441 76.2483 18.0284ZM41.2684 52.9935V72.0531H45.753H50.2376V52.9935V33.934H45.753H41.2684V52.9935ZM60.1037 44.7401C57.5121 45.2455 55.8564 45.8971 53.4898 47.3443C51.7951 48.3802 51.5843 48.6946 51.5839 50.1898L51.583 51.871L53.8374 50.2512C56.0923 48.6314 60.5742 46.9393 62.6102 46.9393H63.6914V55.1878C63.6914 62.6278 63.7686 63.4664 64.4762 63.7431C64.9081 63.9118 68.1774 65.1571 71.7422 66.511C75.3066 67.8649 78.3825 69.0713 78.5776 69.1919C79.1916 69.5713 77.1672 72.9514 75.0725 75.0466C73.9661 76.1529 71.9117 77.5965 70.5062 78.2553C68.2716 79.3029 67.3903 79.4527 63.4672 79.4527C59.4324 79.4527 58.735 79.3262 56.5161 78.1898C55.1595 77.4952 53.2347 76.1332 52.2386 75.1627L50.4278 73.3985H33.9639C23.2869 73.3985 17.5 73.5559 17.5 73.8469C17.5 74.1371 22.8308 74.2954 32.5952 74.2954H47.6899L50.2923 76.7776C51.8063 78.2217 54.1679 79.8626 55.9384 80.7003C58.7422 82.0273 59.3369 82.1403 63.4672 82.13C67.0374 82.121 68.455 81.9161 70.4183 81.125C80.5204 77.0566 85.3077 65.3199 80.7971 55.6807C78.1637 50.053 72.7728 45.7989 66.8818 44.6993C64.113 44.1826 62.9273 44.1898 60.1037 44.7401ZM29.2645 60.281L29.3842 71.8289L33.9809 71.9567L38.5776 72.0845V60.4088V48.7332H33.8612H29.1447L29.2645 60.281ZM17.5 63.548V72.0845L22.0061 71.9567L26.5118 71.8289L26.6029 63.4202L26.6934 55.0116H22.0967H17.5V63.548Z" fill="#0C314B"/>
</svg>
