<svg width="100" height="100" viewBox="0 0 100 100" fill="none" xmlns="http://www.w3.org/2000/svg">
<rect width="100" height="100" fill="white"/>
<path fill-rule="evenodd" clip-rule="evenodd" d="M41.5069 17.5858C39.2493 17.9447 36.6801 19.3988 34.5746 21.5096C32.837 23.2513 31.8311 24.986 31.3492 27.0715C30.9473 28.8107 31.0821 31.361 31.685 33.4202C31.7512 33.6465 31.7003 33.7075 31.3882 33.7761C30.2116 34.0345 30.0043 35.6101 30.7858 38.3553C31.2374 39.9415 32.0286 41.5245 32.513 41.8106C32.7235 41.9349 32.9268 42.1801 32.9649 42.3555C33.4844 44.7427 34.6711 46.9333 36.3596 48.6218C38.4497 50.712 40.5047 51.6438 43.0478 51.6543C44.9955 51.6624 46.6199 51.1439 48.336 49.9664C49.1175 49.4302 50.7051 47.8134 51.2766 46.9715C52.2368 45.5569 53.323 43.0734 53.3424 42.2482C53.3451 42.1332 53.5308 41.9239 53.7552 41.783C54.289 41.4476 54.7566 40.5762 55.308 38.8896C56.1093 36.4381 56.1939 34.8587 55.5606 34.1753C55.3926 33.994 55.1189 33.8456 54.9525 33.8456C54.7862 33.8456 54.6201 33.8156 54.5834 33.7789C54.5467 33.7422 54.6153 33.3563 54.7358 32.9214C55.278 30.966 55.3769 27.0969 54.9283 25.3979C54.4524 23.5957 53.4307 22.2546 52.2029 21.8207C51.7339 21.6549 51.4678 21.4679 51.2883 21.1782C50.535 19.9617 48.1442 18.3861 46.2236 17.8402C45.1384 17.5318 42.6809 17.3992 41.5069 17.5858ZM67.3612 28.2463C67.0587 28.3765 66.9335 28.9064 66.9313 30.0654L66.9299 30.7949L65.7184 31.361C63.4527 32.4198 62.567 33.7216 62.5587 36.0052C62.5549 37.0696 62.596 37.2972 62.9058 37.9348C63.5266 39.2117 64.8428 40.2171 67.1205 41.154C68.7454 41.8225 69.2243 42.0771 69.6905 42.5202C70.2315 43.0343 70.4245 43.618 70.239 44.1801C69.7145 45.7693 67.1089 46.0198 64.2332 44.7577C63.49 44.4315 63.3141 44.3947 63.1762 44.5367C62.9889 44.7298 62.3568 46.8343 62.3568 47.2652C62.3568 47.7918 63.5407 48.3498 65.5731 48.7811C66.7348 49.0277 66.8029 49.1212 66.8029 50.4697C66.8029 50.9658 66.8669 51.3893 66.9553 51.4777C67.1381 51.6605 69.3134 51.6854 69.5941 51.508C69.73 51.4221 69.7993 51.0441 69.8481 50.1229C69.885 49.4262 69.9438 48.8294 69.9787 48.7968C70.0136 48.7642 70.4918 48.5514 71.0412 48.324C72.2581 47.8202 73.4401 46.7796 73.9581 45.7558C75.1845 43.3319 74.2147 40.3133 71.7553 38.8991C71.4419 38.7188 70.4156 38.237 69.4746 37.8282C66.9349 36.7249 66.2837 35.9886 66.8608 34.8727C67.1677 34.2792 67.8386 34.0392 69.153 34.0525C70.0557 34.0617 70.4968 34.1365 71.249 34.4077C72.615 34.9004 72.8532 34.9335 73.0043 34.6512C73.0737 34.5214 73.2785 33.9049 73.4593 33.2812C73.7496 32.2799 73.7671 32.1152 73.6092 31.8741C73.4123 31.5735 72.3671 31.1595 71.1855 30.9139C70.0027 30.668 70.0197 30.6872 69.9525 29.5262C69.9199 28.9623 69.8283 28.436 69.749 28.3568C69.5685 28.1763 67.7221 28.0909 67.3612 28.2463ZM33.5839 51.8458C31.9534 52.7775 28.1571 54.5869 26.0254 55.4481C23.4037 56.5073 22.8319 56.8414 21.7012 57.9747C20.2755 59.4034 19.6193 60.9145 19.2234 63.6802C19.0307 65.0274 18.7919 69.748 18.7872 72.3047L18.7845 73.7339H24.1523H29.5201L34.1818 69.0654L38.8435 64.397L37.9798 61.6658C37.5047 60.1636 36.5854 57.2482 35.9369 55.1871C35.2883 53.126 34.7222 51.4004 34.6789 51.3524C34.6356 51.3043 34.1428 51.5264 33.5839 51.8458ZM51.7749 51.3418C51.7439 51.3957 50.7908 54.3776 49.6568 57.9686L47.595 64.4976L51.419 68.3215L55.2431 72.1456L60.9111 66.4774L66.5793 60.8092L66.4302 60.3573C66.2095 59.6886 65.4069 58.5099 64.6983 57.8139C63.8082 56.9395 62.9727 56.4733 60.4513 55.4443C58.1785 54.5169 54.7283 52.8709 52.8701 51.8275C52.2987 51.5066 51.8058 51.2881 51.7749 51.3418ZM74.9965 54.3867C72.9005 54.4849 71.0358 54.6233 70.8527 54.6942C70.5204 54.8229 70.2328 55.2702 70.2328 55.6581C70.2328 55.7708 70.9175 56.5556 71.7542 57.402L73.2757 58.941L64.2272 67.9891L55.1785 77.037L49.6531 71.5079C43.7568 65.6077 43.7446 65.5977 42.7106 65.7877C42.2784 65.8672 41.5957 66.5016 36.782 71.2984C33.79 74.2797 31.2664 76.862 31.174 77.0367C31 77.3657 30.9414 77.7337 30.9656 78.3464C30.9849 78.834 32.1298 80.0393 32.7504 80.2252C33.7642 80.529 33.8382 80.4719 38.601 75.7055C41.0111 73.2936 43.0395 71.3202 43.1086 71.3202C43.1779 71.3202 45.7221 73.803 48.7624 76.8373C53.6651 81.7304 54.3454 82.3645 54.7787 82.4432C55.8452 82.6369 55.5126 82.9342 66.2915 72.1518L76.3874 62.0527L77.9264 63.5742C79.13 64.7642 79.5402 65.0956 79.8091 65.0956C80.2559 65.0956 80.7408 64.6044 80.8293 64.0619C80.8677 63.827 80.9862 61.7023 81.0927 59.3406C81.2939 54.8783 81.2839 54.7148 80.7875 54.3337C80.5449 54.1475 79.9944 54.1525 74.9965 54.3867ZM42.1248 55.0712C41.8617 55.1332 41.4235 55.2977 41.1511 55.4367C39.508 56.2749 39.662 58.504 41.5534 61.2628C41.7938 61.6136 41.91 61.9192 41.8741 62.1069C41.8184 62.3981 41.8279 62.4005 42.7822 62.3356C43.3125 62.2997 43.9646 62.3307 44.2312 62.4046L44.7159 62.5391L44.6349 62.1703C44.5718 61.8829 44.6412 61.6749 44.9495 61.2267C45.6462 60.2139 46.36 58.577 46.4392 57.8101C46.5392 56.8411 46.2348 56.0439 45.6071 55.6304C44.7231 55.0481 43.2362 54.8094 42.1248 55.0712Z" fill="#0C314B"/>
</svg>
