<svg width="100" height="100" viewBox="0 0 100 100" fill="none" xmlns="http://www.w3.org/2000/svg">
<rect width="100" height="100" fill="white"/>
<path fill-rule="evenodd" clip-rule="evenodd" d="M47.9234 17.5671C46.0028 17.7521 43.4009 18.6778 41.5155 19.8467C39.5321 21.0764 37.8627 22.7061 36.5239 24.7198C35.1337 26.8108 34.2704 29.1598 33.9385 31.7547C33.8202 32.6798 33.8383 34.7451 33.9731 35.7016C34.3915 38.6701 35.5949 41.4446 37.4826 43.7931L38.0148 44.4552L37.7554 44.9505C37.1688 46.0709 36.3496 47.0249 35.2959 47.8146C34.3455 48.5269 34.1741 48.8228 34.5287 49.1396C34.69 49.2837 34.8263 49.3315 35.1855 49.37C35.7818 49.4339 37.3827 49.3581 37.9273 49.2402C38.8819 49.0334 40.3564 48.413 41.1831 47.8702L41.7102 47.5242L42.8867 48.0566C44.7634 48.9059 45.609 49.1855 47.0475 49.4323C48.5728 49.6941 50.9335 49.7223 52.52 49.4977C55.1357 49.1275 57.8192 47.9591 59.9169 46.277C60.754 45.6057 62.4064 43.9244 62.9435 43.1973C64.4791 41.1186 65.4901 38.737 65.9283 36.1659C66.1025 35.1446 66.1684 33.0021 66.0581 31.9492C65.7229 28.7474 64.408 25.6353 62.3571 23.1896C60.0998 20.498 56.3696 18.2925 53.184 17.7661C51.6507 17.5127 49.3803 17.4268 47.9234 17.5671ZM50.8207 23.3268C50.962 23.3595 51.1083 23.4171 51.1459 23.4547C51.1834 23.4922 51.2478 23.9155 51.289 24.3953C51.3752 25.3996 51.3628 25.3805 52.0439 25.5527C53.6128 25.9495 54.44 26.2647 54.602 26.5274C54.6511 26.607 54.6465 26.7624 54.5863 27.058C54.4639 27.6595 54.0479 28.8861 53.9086 29.056L53.7899 29.2009L53.0723 28.9534C52.1571 28.6377 51.5277 28.5068 50.6965 28.4589C49.2806 28.3775 48.5407 28.796 48.5407 29.6783C48.5407 30.3573 48.8705 30.6905 50.1658 31.3204C50.6401 31.5511 51.4312 31.9351 51.9237 32.1738C52.4162 32.4126 53.0104 32.7347 53.2442 32.8898C54.1007 33.458 54.732 34.2753 55.093 35.2833C55.2466 35.7123 55.266 35.8631 55.2617 36.5971C55.248 38.8991 54.2255 40.2109 51.6463 41.2351L51.2695 41.3848L51.2483 42.4058C51.2275 43.4121 51.2247 43.4293 51.0494 43.6044C50.899 43.7547 50.7951 43.7883 50.3742 43.8227C49.7469 43.874 48.8274 43.8091 48.7245 43.7062C48.6798 43.6615 48.6211 43.2657 48.5876 42.7824C48.5553 42.3174 48.503 41.8712 48.4714 41.7909C48.3867 41.5762 48.1522 41.4802 47.0482 41.2087C45.7955 40.9007 45.1632 40.6433 44.8874 40.3292C44.696 40.1112 44.6825 40.0655 44.7217 39.7698C44.7835 39.3039 45.0691 38.3567 45.2769 37.9283C45.4485 37.5746 45.4659 37.5599 45.6858 37.5816C45.812 37.5941 46.2063 37.7202 46.5619 37.8619C47.5859 38.2699 48.1424 38.3967 49.081 38.4363C49.8084 38.4668 49.9803 38.4531 50.3745 38.3327C51.6675 37.9378 52.0599 36.6726 51.1404 35.8632C50.7226 35.4955 50.1927 35.2085 48.9899 34.6983C47.3012 33.982 46.4701 33.4752 45.803 32.7546C45.0863 31.9805 44.8528 31.2205 44.9098 29.8469C44.9893 27.9317 45.6304 27.0588 47.7463 25.9852L48.6536 25.5249L48.6994 24.7427C48.7829 23.3211 48.8286 23.2632 49.8656 23.2656C50.2496 23.2665 50.6795 23.294 50.8207 23.3268ZM39.4386 55.4995C34.8345 57.8996 30.9564 60.1465 29.3488 61.3455C27.7763 62.5184 26.7564 63.9059 26.1881 65.6453C25.7054 67.123 25.6569 68.0822 25.6561 76.1817L25.6555 82.5H50H74.3445L74.3433 76.3144C74.3415 66.946 74.2994 66.4599 73.3202 64.4904C72.3549 62.5489 71.3712 61.6466 68.0527 59.6589C65.582 58.1789 58.9655 54.5735 58.7204 54.5735C58.6243 54.5735 58.3052 55.4927 57.431 58.2882C55.9716 62.9553 55.2163 65.3322 54.5976 67.2058C54.1086 68.6865 54.0176 68.9101 53.9448 68.8105C53.8983 68.7469 53.7042 68.2861 53.5133 67.7867C53.0666 66.6172 51.3228 61.669 51.3114 61.5386C51.3067 61.4838 51.507 61.1107 51.7565 60.7094C53.0579 58.6166 53.4932 57.0186 53.0347 56.0171C52.5746 55.0121 51.4118 54.5102 49.7362 54.5933C48.312 54.664 47.4268 55.1115 46.9593 55.997C46.7086 56.4721 46.7164 57.3411 46.9787 58.1555C47.2346 58.9499 47.7177 59.9262 48.2676 60.7599L48.7385 61.4738L47.938 63.7449C47.1114 66.0895 46.399 68.0285 46.1532 68.6018C45.9833 68.9982 45.9658 68.9797 45.6835 68.1056C44.5724 64.6647 43.118 60.0742 42.0371 56.5967C41.6172 55.2453 41.36 54.5726 41.2642 54.5746C41.2348 54.5752 40.4133 54.9915 39.4386 55.4995Z" fill="#0C314B"/>
</svg>
