<svg width="100" height="100" viewBox="0 0 100 100" fill="none" xmlns="http://www.w3.org/2000/svg">
<rect width="100" height="100" fill="white"/>
<path fill-rule="evenodd" clip-rule="evenodd" d="M56.2623 17.6368C55.9033 17.7682 55.386 18.2092 55.1126 18.6171L54.616 19.3586L47.5632 19.5302C43.6841 19.6245 37.3635 19.7017 33.5173 19.7017H26.5244L25.7917 20.3323L25.059 20.9629V32.0173V43.0716L22.4891 43.2021C18.5512 43.4021 18.9228 41.6767 18.9228 59.7626C18.9228 74.7853 18.9291 74.9663 19.4651 75.5418C19.7633 75.8619 20.3508 76.1925 20.7707 76.2763L21.5339 76.4291V78.7318C21.5339 80.7897 21.601 81.1127 22.164 81.7673L22.7943 82.5H47.7324H72.6705L73.3442 81.8671C74.015 81.2367 74.0181 81.2148 74.0181 76.9868V72.7398L65.2055 72.6586C56.5323 72.5789 56.3774 72.5682 55.4267 71.9771C54.8956 71.6465 54.1906 70.9415 53.86 70.4104C53.3104 69.526 53.2595 69.1445 53.2595 65.9001C53.2595 62.4722 53.283 62.3205 53.9765 61.2726C55.3063 59.2631 55.2646 59.2707 65.2055 59.1827L74.0181 59.1043V54.9607C74.0181 52.6819 73.9416 50.6175 73.8479 50.3737C73.7544 50.1298 73.2468 49.7371 72.7199 49.5013L71.7621 49.0725L76.4034 42.6775C81.1805 36.0956 81.573 35.3345 80.7419 34.2652C80.4941 33.9466 63.7808 21.7648 58.7429 18.2309C57.7068 17.5039 57.0535 17.3475 56.2623 17.6368ZM37.1439 23.2406C38.1832 23.6749 39.4198 24.7298 39.8752 25.5706C40.7593 27.2031 40.5507 29.6014 39.3927 31.1198L38.7409 31.9742L39.383 32.8228C41.9853 36.2625 39.6548 41.1132 35.4005 41.1132C34.6861 41.1132 33.7706 40.9881 33.3664 40.8354C31.6378 40.1823 30.1622 37.9655 30.1622 36.0215C30.1622 34.8848 30.8665 33.0915 31.5279 32.5444C31.9013 32.2353 31.8621 32.0854 31.1412 31.0626C28.1812 26.8631 32.4621 21.2849 37.1439 23.2406ZM59.2931 24.5538C59.2228 24.7366 55.2108 30.3584 50.3773 37.0469L41.5889 49.2078H40.0157C38.7926 49.2078 38.5004 49.1352 38.7025 48.8814C38.8456 48.702 42.9869 42.9737 47.9053 36.152C52.8239 29.3304 57.024 23.548 57.2391 23.3025C57.6049 22.8845 57.6875 22.8996 58.5251 23.5388C59.0176 23.9143 59.363 24.371 59.2931 24.5538ZM50.888 24.4671C49.2675 26.7341 49.2122 26.7681 49.2122 25.4904C49.2122 24.1694 50.0947 23.0962 51.181 23.0962H51.8677L50.888 24.4671ZM70.4489 32.1047C73.2567 34.1153 75.5556 35.8778 75.5577 36.0215C75.5598 36.1651 73.4724 39.1614 70.919 42.6799L66.2763 49.0772L62.6943 49.1498C59.7594 49.2096 59.04 49.1506 58.7131 48.8234C58.2016 48.3122 56.6775 48.3077 56.1691 48.8161C55.868 49.1172 55.1079 49.2078 52.8863 49.2078C51.2964 49.2078 49.9955 49.1516 49.9955 49.0832C49.9955 48.766 64.9566 28.3021 65.1379 28.3708C65.2512 28.4139 67.6412 30.0941 70.4489 32.1047ZM65.4405 32.6922C65.0535 33.0873 63.5759 35.0331 62.1575 37.0166C60.1994 39.7544 59.5837 40.8119 59.6006 41.4083C59.6291 42.4125 59.8706 42.6883 62.0987 44.2581C64.0717 45.648 64.9937 45.8525 65.8758 45.0952C66.9119 44.2056 71.9292 36.9027 71.9292 36.2844C71.9292 35.4394 70.9521 34.3537 69.0303 33.063C67.1307 31.7875 66.4014 31.712 65.4405 32.6922ZM25.1896 48.1633C25.1896 49.1986 25.1809 49.2078 24.1973 49.2078C23.1411 49.2078 22.5784 48.8448 22.5784 48.1633C22.5784 47.4818 23.1411 47.1189 24.1973 47.1189C25.1809 47.1189 25.1896 47.128 25.1896 48.1633ZM56.1192 62.1711C55.521 62.8169 55.4789 63.0487 55.4789 65.7134C55.4789 68.5593 55.6758 69.3902 56.5007 70.0234C56.8085 70.2597 59.3766 70.3438 66.4964 70.3498L76.0778 70.3581L76.8105 69.7281C77.5388 69.1017 77.5432 69.0781 77.5432 65.9192C77.5432 62.7602 77.5388 62.7367 76.8105 62.1103L76.0778 61.4802H66.4186H56.7597L56.1192 62.1711ZM60.1936 64.5729C60.9052 65.1491 60.9966 66.5192 60.3655 67.1501C59.7346 67.7812 58.3645 67.6898 57.7882 66.9783C57.1352 66.1717 57.183 65.4969 57.9478 64.7324C58.7123 63.9676 59.3871 63.9198 60.1936 64.5729Z" fill="#0C314B"/>
</svg>
