<svg width="22" height="17" viewBox="0 0 22 17" fill="none" xmlns="http://www.w3.org/2000/svg">
<path d="M17.8643 7.48828V7.70801C18.667 7.7666 19.373 8.0127 19.9824 8.44629C20.5918 8.87402 21.0635 9.41895 21.3975 10.0811C21.7314 10.7373 21.8984 11.4229 21.8984 12.1377C21.8984 13.2217 21.4883 14.2061 20.668 15.0908C19.8535 15.9756 18.7988 16.418 17.5039 16.418C16.5898 16.418 15.7637 16.1953 15.0254 15.75C14.2871 15.2988 13.7041 14.6309 13.2764 13.7461C12.8545 12.8555 12.6436 11.7891 12.6436 10.5469C12.6436 9.49805 12.8545 8.38477 13.2764 7.20703C13.7041 6.02344 14.3428 4.81934 15.1924 3.59473C16.042 2.36426 17.0879 1.16602 18.3301 0L21.2832 2.16211C20.4395 3.32227 19.7891 4.24805 19.332 4.93945C18.8809 5.625 18.3916 6.47461 17.8643 7.48828ZM6.13086 7.48828V7.70801C6.92773 7.77246 7.62793 8.01855 8.23145 8.44629C8.84082 8.87402 9.30664 9.41895 9.62891 10.0811C9.95703 10.7432 10.1211 11.4287 10.1211 12.1377C10.1211 13.251 9.71387 14.2441 8.89941 15.1172C8.08496 15.9844 7.03027 16.418 5.73535 16.418C4.82715 16.418 4.00391 16.1924 3.26562 15.7412C2.52734 15.29 1.94434 14.6221 1.5166 13.7373C1.08887 12.8525 0.875 11.7891 0.875 10.5469C0.875 9.69727 1.03906 8.73633 1.36719 7.66406C1.69531 6.5918 2.28418 5.39355 3.13379 4.06934C3.98926 2.73926 5.13184 1.38281 6.56152 0L9.5498 2.16211C9.06934 2.8418 8.62988 3.46289 8.23145 4.02539C7.83301 4.58789 7.52246 5.03906 7.2998 5.37891C7.08301 5.71289 6.88672 6.03516 6.71094 6.3457C6.54102 6.65039 6.34766 7.03125 6.13086 7.48828Z" fill="#333333"/>
</svg>
