<svg width="101" height="100" viewBox="0 0 101 100" fill="none" xmlns="http://www.w3.org/2000/svg">
<rect width="100" height="100" transform="translate(0.5)" fill="#12252D"/>
<path fill-rule="evenodd" clip-rule="evenodd" d="M36.4081 18.0789C35.276 18.3074 34.493 18.9116 33.9079 20.0083C33.6306 20.5282 33.6093 21.0283 33.6093 27.0452C33.6093 33.4048 33.6157 33.5342 33.9597 34.1773C34.4154 35.0288 35.2801 35.778 36.0855 36.0194L36.728 36.2119V38.7588C36.728 40.2793 36.7886 41.2841 36.8783 41.2523C36.961 41.223 38.3684 40.0835 40.0057 38.7201C43.3096 35.9693 43.1757 36.183 42.5275 34.6967L42.2453 34.0495L40.6461 35.3304L39.047 36.6113L39.0007 35.2667L38.9545 33.9222H37.6741C36.5277 33.9222 36.3525 33.8811 36.0011 33.5296L35.6085 33.1371V27.2045C35.6085 20.976 35.6553 20.5285 36.3354 20.2675C36.4777 20.213 40.677 20.1682 45.667 20.1682C54.5765 20.1682 54.746 20.1741 55.0897 20.4943C55.4382 20.819 55.4398 20.8482 55.4398 27.0236V33.2267L55.0697 33.5745C54.7049 33.9171 54.6214 33.9222 49.3813 33.9222H44.0632L44.167 34.282C44.4152 35.1436 45.373 36.9363 45.9219 37.5665C47.0195 38.8271 49.5213 40.2903 51.32 40.7234C51.8706 40.856 53.1848 41.0041 54.2403 41.0522C56.1246 41.1383 56.19 41.1541 57.8388 41.923C60.4751 43.1526 62.9697 43.5102 63.7818 42.7751C64.1803 42.4145 64.5558 41.5392 64.5558 40.9711C64.5558 40.7354 64.2744 39.9604 63.9303 39.249L63.3049 37.9556L63.8606 37.4183C65.3976 35.9325 66.2321 34.2603 66.6332 31.8626C66.9903 29.7284 66.571 28.2205 65.1212 26.4263C64.1383 25.2095 63.2159 24.4569 61.8932 23.7917C61.1967 23.4417 59.4643 22.7274 59.3108 22.7273C59.2849 22.7271 59.2849 23.2037 59.3108 23.786L59.3581 24.845L60.148 25.1547C61.2825 25.5994 62.7523 26.6751 63.53 27.6299C65.0128 29.4504 65.2189 31.279 64.2141 33.6991C63.7843 34.734 63.4819 35.17 62.5372 36.1166C61.0179 37.639 60.9881 37.8111 61.9367 39.5941L62.6883 41.0073L61.8791 40.8998C60.7361 40.7482 59.1883 40.2203 58.1586 39.6308C57.2956 39.1367 57.229 39.1254 54.6402 39.0328C52.4998 38.9562 51.8235 38.8732 51.0595 38.5936C50.0698 38.2314 48.3191 37.167 47.8374 36.6346C47.5564 36.3242 47.5876 36.3212 51.0261 36.3212C52.9988 36.3212 54.7971 36.246 55.1897 36.1472C56.0573 35.9287 56.9425 35.2087 57.4036 34.3465C57.7497 33.6994 57.7602 33.5259 57.8122 27.605C57.8756 20.4089 57.8439 20.158 56.7289 19.0431C56.1317 18.4458 55.7974 18.2494 55.1387 18.108C54.2092 17.9087 37.3815 17.8825 36.4081 18.0789ZM23.7623 26.614C22.037 27.1033 20.536 28.4499 19.9209 30.0604C19.5065 31.1458 19.4682 32.8678 19.8357 33.884C21.2162 37.6993 26.2455 38.8002 29.1278 35.9178C30.2609 34.7847 30.7052 33.6622 30.7088 31.9231C30.712 30.4244 30.277 29.277 29.2923 28.1871C28.043 26.804 25.5716 26.1011 23.7623 26.614ZM74.3002 26.614C72.6374 27.0855 71.3895 28.1625 70.6588 29.7567C70.1077 30.9593 70.0921 32.7782 70.6217 34.1349C71.595 36.6287 74.5013 38.0601 77.1961 37.373C79.7766 36.7152 81.3659 34.7062 81.3813 32.083C81.3941 29.9057 80.2175 28.0118 78.2503 27.0434C77.0673 26.461 75.4573 26.286 74.3002 26.614ZM24.6926 39.2137C22.4272 39.7475 20.7107 41.6871 20.4719 43.9829C20.4207 44.4749 20.5662 47.7922 20.7953 51.3546C21.0244 54.917 21.2768 58.8753 21.3564 60.1508C21.6071 64.1722 22.5604 65.7288 25.3862 66.7304C26.3845 67.0844 26.6089 67.0959 33.6196 67.1547L40.8267 67.2152L41.1161 68.281C41.2753 68.8671 41.6399 70.3543 41.9262 71.5858C42.8898 75.7302 44.0301 80.0584 44.2901 80.5582C44.4321 80.8309 44.8163 81.2895 45.144 81.5771C45.7183 82.0815 45.7784 82.0975 46.8263 82.0225C48.0418 81.9355 48.581 81.6615 49.0496 80.8931C49.5206 80.1206 49.4483 79.1834 48.558 74.52C48.1157 72.2025 47.4279 68.4351 47.03 66.1481C46.1044 60.8293 45.785 60.1066 44.1092 59.5384C43.4275 59.3073 41.1972 59.0957 36.1754 58.7856C33.9804 58.65 32.1535 58.5084 32.1159 58.4707C32.0783 58.4331 31.9531 56.4388 31.8376 54.0389C31.6443 50.0163 31.4226 46.9113 31.201 45.1173C30.8062 41.9224 29.5428 40.0419 27.3318 39.359C26.2306 39.0189 25.6535 38.9872 24.6926 39.2137ZM73.5764 39.3574C71.4122 40.065 70.152 41.9685 69.763 45.1173C69.5413 46.9113 69.3197 50.0163 69.1263 54.0389C69.0109 56.4388 68.8847 58.4341 68.846 58.4728C68.8073 58.5116 66.4766 58.69 63.6669 58.8692C56.99 59.2953 56.1611 59.4576 55.4325 60.481C54.8481 61.3016 54.6765 61.9535 53.9401 66.1481C53.5387 68.4351 52.8483 72.2025 52.4059 74.52C51.5156 79.1834 51.4433 80.1206 51.9143 80.8931C52.3829 81.6615 52.9222 81.9355 54.1377 82.0225C55.1855 82.0975 55.2457 82.0815 55.82 81.5771C56.1477 81.2895 56.5318 80.8309 56.6738 80.5582C56.9324 80.0611 58.1135 75.5768 58.9738 71.8257C59.2258 70.7261 59.586 69.239 59.7741 68.5209L60.1159 67.2154L67.3337 67.1512C74.0674 67.0914 74.6169 67.0653 75.5269 66.762C78.3354 65.8254 79.3574 64.1685 79.6051 60.1508C79.6838 58.8753 79.9355 54.917 80.1645 51.3546C80.3936 47.7922 80.5399 44.4749 80.49 43.9829C80.1479 40.6162 76.727 38.3275 73.5764 39.3574ZM12.0188 45.184C11.3747 45.4716 10.6853 46.2285 10.5097 46.841C10.3445 47.4171 12.345 61.7003 12.9003 63.9091C13.9125 67.935 16.5923 71.1343 20.4772 72.9549C23.2243 74.2422 25.9971 74.5275 33.2225 74.2662C37.7429 74.1029 38.0079 74.0258 38.6555 72.6883C39.2318 71.4975 38.9203 70.3625 37.785 69.5166C37.356 69.1971 37.1536 69.1868 31.2377 69.1868C24.5096 69.1868 24.4151 69.1759 22.3343 68.1708C20.7233 67.3924 19.305 65.9802 18.5673 64.4195C17.8922 62.9918 17.5226 61.0614 16.3468 52.8248C15.3829 46.0731 15.3216 45.8608 14.1681 45.2723C13.4561 44.9091 12.7041 44.8782 12.0188 45.184ZM86.8196 45.3841C86.1642 45.707 85.7143 46.2671 85.5069 47.0181C85.4191 47.336 84.9132 50.6189 84.383 54.3133C83.3128 61.7694 83.0215 63.2153 82.3041 64.6368C81.6002 66.0312 80.0687 67.5045 78.607 68.1936C76.5231 69.1759 76.4259 69.1868 69.7262 69.1868C63.8104 69.1868 63.6079 69.1971 63.179 69.5166C62.0437 70.3625 61.7321 71.4975 62.3085 72.6883C62.9561 74.0258 63.2211 74.1029 67.7415 74.2662C74.9668 74.5275 77.7397 74.2422 80.4868 72.9549C84.344 71.1474 87.0388 67.9422 88.0553 63.9536C88.2284 63.2744 88.6663 60.6835 89.0284 58.1961C89.3903 55.7087 89.8926 52.2886 90.1445 50.5957C90.4495 48.5465 90.5584 47.364 90.4706 47.0576C90.0194 45.4848 88.2556 44.6762 86.8196 45.3841Z" fill="white"/>
</svg>
