<svg width="100" height="100" viewBox="0 0 100 100" fill="none" xmlns="http://www.w3.org/2000/svg">
<rect width="100" height="100" fill="#12252D"/>
<path fill-rule="evenodd" clip-rule="evenodd" d="M25.0839 10.2442L24.8482 10.4799V13.113V15.7461L25.0839 15.9818C25.4172 16.315 25.8932 16.3138 26.2283 15.9786L26.4672 15.7398L26.4439 13.0686L26.4206 10.3975L26.1943 10.2029C25.8623 9.9175 25.3932 9.93491 25.0839 10.2442ZM15.9378 13.4888C15.4775 13.7419 15.3547 14.3213 15.6737 14.735C16.2908 15.5352 18.8152 18.4637 18.924 18.5055C19.6257 18.7747 20.3393 18.0424 19.9975 17.4037C19.8581 17.1433 16.9813 13.7573 16.7344 13.5632C16.5009 13.3795 16.1895 13.3504 15.9378 13.4888ZM34.5715 13.5657C34.1583 13.8906 31.3089 17.3602 31.2555 17.6033C31.1163 18.2371 31.8525 18.7833 32.4297 18.4744C32.5549 18.4074 34.9922 15.5635 35.6344 14.735C36.205 13.9988 35.2944 12.997 34.5715 13.5657ZM55.4901 16.4329C51.6012 16.823 48.833 17.9504 46.819 19.9644C44.9962 21.7872 43.9212 24.2016 43.461 27.5066C43.3252 28.4818 43.3261 32.3596 43.4625 33.635C43.7015 35.8695 44.0288 37.6162 44.5321 39.343C45.9854 44.3281 48.7551 48.0165 52.3856 49.801C53.4593 50.3289 54.2823 50.6114 55.4901 50.8671C56.5466 51.0907 59.1882 51.0685 60.3031 50.8266C66.7272 49.4327 71.0067 43.4124 72.0652 34.2801C72.2419 32.7557 72.3086 29.4775 72.1893 28.1841C71.5413 21.1596 67.762 17.3315 60.6513 16.497C59.7375 16.3897 56.3408 16.3475 55.4901 16.4329ZM24.2031 17.9846C23.3254 18.1811 22.9367 18.3243 22.192 18.726C20.6521 19.5566 19.4066 21.0595 18.931 22.6609C18.6039 23.7625 18.6046 25.3543 18.9327 26.5777C19.1402 27.3515 19.7667 28.5888 20.5463 29.7644C21.47 31.1575 21.717 31.6009 21.9837 32.3448C22.2229 33.0119 22.2526 33.2992 22.3352 35.7513L22.3915 37.424L22.6128 37.6454C22.7852 37.8177 22.9338 37.8757 23.2846 37.9078C23.718 37.9475 23.7389 37.9602 23.8358 38.2432C24.41 39.9204 26.8991 39.9204 27.4733 38.2432C27.5701 37.9602 27.5911 37.9475 28.0244 37.9078C28.3755 37.8757 28.5238 37.8177 28.6965 37.645L28.9181 37.4235L28.9739 35.7107C29.052 33.3132 29.0817 33.0284 29.3261 32.3448C29.5916 31.6017 29.8381 31.1589 30.7628 29.7644C31.5424 28.5888 32.1688 27.3515 32.3764 26.5777C32.448 26.3106 32.5446 25.722 32.5911 25.2693C32.776 23.4671 32.3012 21.8411 31.1783 20.4318C30.3032 19.3334 28.9068 18.4425 27.4689 18.0649C26.5336 17.8193 25.0994 17.7841 24.2031 17.9846ZM27.0093 19.7299C28.7965 20.1373 30.3152 21.614 30.7776 23.3941C30.8823 23.7971 30.9039 24.1234 30.8709 24.8053C30.7984 26.3042 30.5072 27.0362 29.2029 28.9984C28.3365 30.3018 27.7337 31.5022 27.518 32.3534L27.3669 32.9496L26.929 32.9733L26.4911 32.9971L27.1191 29.4253C27.4645 27.4608 27.748 25.6982 27.7491 25.5083C27.7518 25.0445 27.593 24.6941 27.24 24.384C26.859 24.0496 26.4041 23.9242 25.9827 24.0377C25.7681 24.0955 25.5511 24.0974 25.3109 24.0436C24.8506 23.9404 24.4486 24.0508 24.0679 24.3851C23.7168 24.6934 23.5579 25.0436 23.5582 25.5083C23.5583 25.6982 23.8305 27.4065 24.163 29.3047C24.4955 31.2028 24.7675 32.8104 24.7675 32.8771C24.7675 32.9724 24.6792 32.9931 24.3548 32.9739L23.9421 32.9496L23.7923 32.3582C23.5676 31.4713 23.0201 30.3936 22.0177 28.8648C20.7306 26.9022 20.4174 26.0612 20.4145 24.5601C20.4119 23.1695 20.8249 22.1762 21.8234 21.172C23.2133 19.7743 25.0109 19.2744 27.0093 19.7299ZM10.769 22.2975C10.5952 22.4713 10.4948 22.6499 10.4948 22.7853C10.4948 23.0537 10.6938 23.4461 10.8804 23.5461C11.0378 23.6302 15.5457 24.4424 15.8559 24.4424C16.3565 24.4424 16.7685 23.9528 16.6649 23.4811C16.5816 23.1019 16.2844 22.8977 15.6376 22.7752C14.2994 22.5217 11.3636 22.0233 11.2094 22.0233C11.118 22.0233 10.9198 22.1467 10.769 22.2975ZM38.9596 22.1827C38.5383 22.2617 37.5059 22.4466 36.6654 22.5936C35.32 22.829 35.108 22.887 34.8932 23.0789C34.6949 23.2562 34.6491 23.3604 34.6491 23.636C34.6491 23.9167 34.6943 24.0154 34.9107 24.2087C35.0778 24.3581 35.2608 24.4424 35.4175 24.4424C35.654 24.4424 40.0567 23.6793 40.3561 23.5865C40.5392 23.5297 40.8135 23.0906 40.8139 22.8536C40.8147 22.3908 40.4203 22.0148 39.9514 22.0313C39.8272 22.0357 39.3809 22.1038 38.9596 22.1827ZM25.6719 25.3294C25.7818 25.3294 25.9555 25.2568 26.0577 25.1681C26.16 25.0794 26.2663 25.0069 26.2941 25.0069C26.4397 25.0069 26.7031 25.281 26.7052 25.4348C26.7087 25.6903 25.7026 31.4577 25.6545 31.4576C25.6053 31.4576 24.5962 25.6829 24.6021 25.4348C24.6044 25.3375 24.6854 25.2025 24.782 25.1348C24.9421 25.0227 24.9808 25.0259 25.2149 25.1706C25.3563 25.2579 25.562 25.3294 25.6719 25.3294ZM14.7408 30.7258C13.5945 31.3869 12.5731 32.0064 12.4709 32.1024C12.2364 32.3229 12.1741 32.6387 12.304 32.9496C12.4365 33.2665 12.5956 33.3908 12.9402 33.4467C13.1934 33.4878 13.439 33.3691 15.306 32.3036C16.4518 31.6496 17.489 31.0098 17.611 30.8817C17.8479 30.633 17.908 30.2169 17.7497 29.9213C17.6479 29.7309 17.2606 29.5224 17.0103 29.523C16.9083 29.5233 15.887 30.0646 14.7408 30.7258ZM33.8613 29.6482C33.4094 29.8934 33.3268 30.5176 33.698 30.8808C33.9971 31.1733 38.0066 33.4737 38.2175 33.4737C38.958 33.4737 39.3445 32.6028 38.8265 32.1011C38.4812 31.7666 34.5221 29.522 34.2842 29.5257C34.1725 29.5275 33.9822 29.5827 33.8613 29.6482ZM26.3288 44.0305C24.7615 44.4554 23.3849 45.5781 22.7118 46.9804C22.1928 48.0614 20.264 54.4305 19.2442 58.4308C17.8134 64.0425 17.4733 67.1821 18.0433 69.5156C18.2177 70.2293 18.774 71.385 19.2379 71.9971C20.2138 73.2848 21.6198 74.1042 23.2921 74.3598C25.7028 74.7282 31.941 73.3111 38.6096 70.8803C39.3262 70.6191 39.9341 70.4053 39.9603 70.4053C39.9864 70.4053 40.0079 74.8141 40.0079 80.2026V90H57.7882H75.5686L75.5718 83.7305C75.5746 78.3502 75.5909 77.49 75.6865 77.6657C75.8972 78.0531 77.0389 80.7693 77.5968 82.2103L78.1554 83.6537L78.0658 84.1053C77.8452 85.2158 77.3726 86.9379 76.8943 88.3738C76.6087 89.2312 76.375 89.9479 76.375 89.9664C76.375 89.9848 79.034 90 82.284 90H88.193L88.4122 89.1735C89.0034 86.9434 89.3997 84.8492 89.4894 83.4799C89.5576 82.4389 89.4227 81.805 88.7233 79.8801C85.9896 72.3565 82.6373 65.9507 79.3763 62.0191C78.7196 61.2273 77.2236 59.7277 76.5493 59.1853C75.1186 58.0343 74.7052 57.8122 69.5811 55.4415L66.4563 53.9957L64.8639 52.6549L63.2717 51.3141L61.5379 52.9918C60.5843 53.9146 59.4347 55.0442 58.983 55.502L58.1618 56.3342L59.7323 67.6467L61.3028 78.9592L59.673 81.1937C58.0494 83.4196 57.9482 83.5455 57.7806 83.5479C57.6852 83.5491 54.4367 79.1529 54.3851 78.9528C54.368 78.8863 55.0451 73.8535 55.8896 67.7687C56.7343 61.684 57.4254 56.6164 57.4254 56.5074C57.4254 56.3536 56.8641 55.7611 54.9193 53.8622C53.5411 52.5165 52.3807 51.4035 52.3407 51.3891C52.3007 51.3746 51.5814 51.9433 50.7421 52.6529C49.9029 53.3625 49.1059 54.0002 48.9711 54.0698C47.9863 54.5791 39.872 58.1068 36.6211 59.439C33.526 60.7073 30.1403 61.9355 30.0335 61.8287C29.9078 61.7029 31.5194 55.9817 32.6717 52.4636C33.2703 50.6361 33.3253 50.3797 33.3219 49.4398C33.3127 46.9724 31.8161 44.9177 29.4445 44.1168C28.6791 43.8583 27.1229 43.8152 26.3288 44.0305Z" fill="white"/>
</svg>
