<svg width="101" height="100" viewBox="0 0 101 100" fill="none" xmlns="http://www.w3.org/2000/svg">
<rect width="100" height="100" transform="translate(0.5)" fill="#12252D"/>
<path fill-rule="evenodd" clip-rule="evenodd" d="M47.1364 14.0456C46.8445 14.0592 46.1095 14.1275 45.5031 14.1973C41.5182 14.6558 38.2614 16.0616 35.8837 18.3496C33.1235 21.0056 31.7538 24.3247 31.4991 28.9741C31.4376 30.0992 31.5632 33.0087 31.7438 34.64C32.8041 44.2154 36.8004 50.5772 43.0322 52.6105C44.634 53.1331 45.3871 53.2295 47.8715 53.2295C49.8865 53.2295 50.2118 53.2104 51.0365 53.0432C54.6389 52.3131 57.4962 50.4227 59.74 47.285C62.5902 43.2994 64.1975 37.2158 64.2323 30.2808C64.2457 27.6174 63.998 25.838 63.3409 23.8738C62.3181 20.8169 60.3437 18.2948 57.6673 16.6262C55.9506 15.5559 53.7482 14.7521 51.4649 14.3625C50.153 14.1387 48.2001 13.9957 47.1364 14.0456ZM71.4187 50.8225C69.0904 51.047 67.1213 51.6075 65.069 52.6299C63.4555 53.4338 62.3719 54.1881 60.8641 55.5575L59.9838 56.3571L59.5015 56.099C59.2362 55.9571 58.5414 55.4349 57.9575 54.9386C57.3735 54.4424 56.4732 53.6805 55.9568 53.2456L55.0179 52.4548L53.5476 53.9037C52.739 54.7006 51.1311 56.2895 49.9745 57.4346L47.8716 59.5165L46.2586 57.9248C45.3714 57.0494 43.7623 55.4592 42.6828 54.3911L40.7199 52.4492L38.6519 54.194L36.5839 55.9388L32.0804 58.0079C29.6035 59.1459 27.322 60.2233 27.0103 60.4022C26.2915 60.8146 25.3308 61.7678 24.7324 62.6622C24.4769 63.044 21.1702 67.8032 17.384 73.2382L10.5 83.12L36.9646 83.1608L63.4292 83.2017L63.9192 83.5011C65.8 84.6507 68.1122 85.472 70.4527 85.8217C71.7301 86.0126 74.0865 86.012 75.3528 85.8203C79.8541 85.139 83.8078 82.8779 86.6151 79.3791C89.4807 75.8078 90.8626 71.2131 90.4183 66.7338C90.01 62.6171 88.2341 58.8565 85.3178 55.9334C82.6291 53.2383 79.1375 51.4852 75.3936 50.9503C74.2863 50.7921 72.3721 50.7305 71.4187 50.8225ZM74.0987 56.0501C77.0951 56.3502 79.7593 57.6678 81.8962 59.906C83.5036 61.5899 84.6046 63.742 85.0833 66.136C85.2888 67.1635 85.2886 69.595 85.0829 70.6248C84.0514 75.7905 80.1311 79.6546 74.9637 80.599C73.9317 80.7876 71.8562 80.7885 70.8417 80.6008C65.7362 79.6558 61.8781 75.9687 60.7645 70.9698C60.5018 69.791 60.4616 67.5722 60.6797 66.2964C61.4538 61.7673 64.66 58.0464 69.0205 56.6169C70.7114 56.0626 72.3723 55.8772 74.0987 56.0501ZM72.4535 58.7714C71.6325 58.9557 71.0567 59.3949 70.6536 60.144C70.4002 60.615 70.3751 60.7234 70.3731 61.3555C70.3706 62.192 70.5935 62.7486 71.1486 63.2924C71.7287 63.8606 72.119 64.0097 73.0252 64.0097C73.9318 64.0097 74.3482 63.8503 74.9151 63.2867C76.7968 61.4154 75.0389 58.191 72.4535 58.7714ZM70.7385 71.4006V77.2807H73.0252H75.3119V71.4006V65.5205H73.0252H70.7385V71.4006Z" fill="white"/>
</svg>
