<svg width="100" height="100" viewBox="0 0 100 100" fill="none" xmlns="http://www.w3.org/2000/svg">
<rect width="100" height="100" fill="#12252D"/>
<path fill-rule="evenodd" clip-rule="evenodd" d="M27.1898 14.077C26.4901 14.2107 25.7821 14.6057 25.2064 15.1838C24.2576 16.1366 23.9915 16.9394 23.9894 18.8562L23.9882 20.0098L20.9568 20.0319L17.9255 20.0541L17.3865 20.2509C16.5984 20.5389 16.0884 20.8667 15.4635 21.4871C14.8846 22.0617 14.4487 22.778 14.1665 23.6182C14.0357 24.0077 14.0301 24.9533 14.0116 49.7623C13.9902 78.599 13.9392 76.0147 14.5542 77.2602C15.1224 78.4111 16.1171 79.285 17.3865 79.7487L17.9255 79.9456L29.2211 79.9652L40.5168 79.9846L39.717 78.9204C39.2771 78.3352 38.6584 77.4425 38.3421 76.9368L37.7669 76.0174L28.3031 76.0157C17.8855 76.0139 18.4781 76.0407 18.1846 75.5592C18.0366 75.3165 18.0363 75.2625 18.0363 49.9998C18.0363 24.7371 18.0366 24.6832 18.1846 24.4405C18.4526 24.0008 18.5609 23.9856 21.4138 23.9856H23.9882L23.9894 24.1509C23.9923 24.5217 24.211 25.3166 24.4413 25.7933C24.8872 26.7164 25.8734 27.5285 26.9226 27.8367C27.4483 27.9911 28.5415 27.9904 29.0637 27.8354C30.6668 27.3595 31.7828 26.0434 31.97 24.4081L32.0184 23.9856H36.0133H40.0082V24.2025C40.0082 24.6087 40.169 25.1972 40.4308 25.7493C40.8953 26.7288 41.83 27.5051 42.9427 27.8354C43.4649 27.9904 44.5581 27.9911 45.0838 27.8367C46.6691 27.371 47.7467 26.0681 47.9803 24.3347L48.0273 23.9856H52.0177H56.0082L56.0464 24.4449C56.168 25.9069 57.2926 27.3076 58.7208 27.7759C59.3255 27.9742 60.6676 27.9742 61.2724 27.7759C62.7005 27.3076 63.8251 25.9069 63.9468 24.4449L63.985 23.9856H66.5874C69.3968 23.9856 69.3931 23.9852 69.7703 24.3887L69.954 24.5852L69.9907 29.8785L70.0275 35.1717L71.1298 35.5542C71.736 35.7646 72.6185 36.1082 73.0906 36.3177C73.5628 36.5273 73.97 36.6988 73.9953 36.6988C74.0207 36.6988 74.0294 33.8962 74.0147 30.4708C73.9847 23.4957 74.0179 23.9375 73.4328 22.7363C73.039 21.9278 72.1313 20.9924 71.3502 20.5903C70.3206 20.0602 70.3532 20.0644 67.0145 20.0203L64.0016 19.9806L63.9622 18.5476C63.9196 16.9983 63.8526 16.6822 63.4038 15.9144C63.1294 15.4449 62.4703 14.804 61.9681 14.5183C60.0421 13.4226 57.4509 14.1773 56.4708 16.1196C56.0937 16.8667 56.0215 17.2393 55.9757 18.6762L55.9329 20.0173H51.9756H48.0183L48.017 18.8599C48.0162 18.1255 47.9761 17.5145 47.9072 17.1881C47.4454 14.9978 45.2605 13.5957 43.1022 14.1044C42.0281 14.3576 41.0047 15.1449 40.4992 16.107C40.1009 16.865 40.0106 17.3588 40.0093 18.7864L40.0082 20.0173H36.0032H31.9982L31.9971 18.7864C31.9958 17.3623 31.9054 16.8647 31.5117 16.1154C30.7048 14.5801 28.9328 13.7442 27.1898 14.077ZM28.5304 17.1533C28.9804 17.4276 28.9852 17.469 28.9849 21.0254C28.9847 24.0849 28.9777 24.2543 28.8415 24.4777C28.6403 24.8076 28.3659 24.9654 27.9932 24.9654C27.6204 24.9654 27.346 24.8076 27.1448 24.4777C27.0087 24.2543 27.0016 24.0849 27.0014 21.0254C27.0011 17.469 27.006 17.4276 27.456 17.1533C27.7685 16.9626 28.2178 16.9626 28.5304 17.1533ZM44.4494 17.1173C44.5803 17.1793 44.7588 17.3575 44.8463 17.5131C45.0024 17.791 45.0053 17.8523 45.0053 20.9595C45.0053 23.0219 44.978 24.195 44.9269 24.3299C44.8087 24.642 44.5693 24.8605 44.2521 24.9458C43.8724 25.0481 43.5351 24.9333 43.2453 24.6032L43.0212 24.3479V21.04C43.0212 17.3887 43.0158 17.4339 43.4841 17.1484C43.7671 16.9758 44.1268 16.9642 44.4494 17.1173ZM60.6618 17.2653C60.7815 17.3799 60.912 17.5913 60.952 17.7351C61.0324 18.0244 61.0554 23.8169 60.9778 24.2053C60.9138 24.5248 60.5168 24.9097 60.1872 24.9715C59.9981 25.007 59.83 24.9801 59.5975 24.8772C59.0261 24.6245 59.0412 24.7313 59.0412 20.9559C59.0412 17.2828 59.021 17.4479 59.5091 17.141C59.8439 16.9304 60.3717 16.9874 60.6618 17.2653ZM25.9723 40.9977V43.9739H28.9852H31.9982V40.9977V38.0215H28.9852H25.9723V40.9977ZM40.0082 40.9977V43.9739H41.6468H43.2853L43.5758 43.6728C43.8151 43.4246 44.8895 42.4607 45.832 41.6484L46.0341 41.4743V39.7479V38.0215H43.0212H40.0082V40.9977ZM59.4093 38.1332C52.222 38.9524 45.9123 42.8165 41.9522 48.8241C39.9849 51.8084 38.7983 54.9223 38.2418 58.561C38.0411 59.8736 37.9638 62.7814 38.0929 64.1622C38.7983 71.7027 42.9075 78.3663 49.341 82.4024C50.4574 83.1027 52.4372 84.0714 53.7064 84.5381C58.157 86.1748 63.2511 86.4497 67.8229 85.2998C71.2209 84.4451 74.2724 82.9196 77.1189 80.6525C78.0432 79.9164 79.8793 78.079 80.6519 77.1173C82.0811 75.3381 83.5403 72.8384 84.3466 70.7878C85.8629 66.9321 86.352 62.6234 85.7471 58.4508C85.3597 55.7787 84.3005 52.6753 82.9629 50.2938C82.4122 49.3135 81.4981 47.9546 80.7592 47.0181C80.0344 46.0996 77.9642 44.0248 77.0454 43.2962C73.5787 40.5469 69.813 38.9117 65.3978 38.2386C64.0448 38.0323 60.7962 37.9752 59.4093 38.1332ZM30.0141 40.9977V41.9898H29.022H28.0299V40.9977V40.0057H29.022H30.0141V40.9977ZM43.9765 40.9977V41.9898H42.9844H41.9924V40.9977V40.0057H42.9844H43.9765V40.9977ZM64.5895 42.1737C66.9992 42.4893 69.5373 43.3234 71.6322 44.4884C73.4168 45.4809 74.702 46.4597 76.2031 47.9699C79.1996 50.9847 81.1096 54.7699 81.7885 59.0387C81.9516 60.0643 82.0143 62.869 81.8997 64.0151C81.3698 69.3195 78.656 74.2961 74.4734 77.6336C69.8417 81.3294 63.7589 82.791 57.9757 81.5977C55.1149 81.0073 52.4169 79.7875 50.0024 77.9929C48.8101 77.1066 46.9539 75.2562 46.064 74.0667C43.9143 71.1936 42.7065 68.2545 42.166 64.5816C41.9884 63.3747 41.9877 60.684 42.1646 59.4099C42.9757 53.5695 46.182 48.4807 51.068 45.2792C53.9801 43.3711 56.9814 42.3707 60.8049 42.0337C61.4551 41.9764 63.7233 42.0604 64.5895 42.1737ZM61.5586 45.1236C61.4275 45.1882 61.2539 45.3485 61.1728 45.4797C61.0282 45.7135 61.0254 45.8401 61.0254 51.9241V58.13L60.6263 58.2558C60.0157 58.4483 59.2185 59.0595 58.7807 59.6708C57.4442 61.5374 57.9429 64.1173 59.8833 65.374C61.0863 66.1531 62.7702 66.1865 64.0167 65.456C64.764 65.0181 65.4265 64.2336 65.7392 63.4162L65.8959 63.007H71.0321C76.6932 63.007 76.5384 63.0191 76.8231 62.5521C76.9169 62.3983 76.9715 62.1802 76.9717 61.9587C76.9719 61.6623 76.9334 61.5664 76.7204 61.334L76.4689 61.0596L71.1815 61.0398L65.8942 61.02L65.7405 60.5989C65.4013 59.6691 64.7118 58.908 63.791 58.4465C63.4731 58.2872 63.1672 58.1568 63.1112 58.1568C63.0254 58.1568 63.0094 57.1896 63.0092 51.9656C63.009 45.9174 63.0056 45.7689 62.8629 45.5349C62.569 45.0527 62.0404 44.8861 61.5586 45.1236ZM25.9899 52.9944L26.009 55.989L29.0036 56.0082L31.9982 56.0274V53.0136V49.9998H28.9844H25.9707L25.9899 52.9944ZM30.0141 52.976V53.9681H29.022H28.0299V52.976V51.984H29.022H30.0141V52.976ZM62.8537 60.2099C63.6017 60.5915 63.9648 61.1785 63.9648 62.0061C63.9648 63.4979 62.4777 64.4384 61.1477 63.7877C59.8762 63.1656 59.6169 61.6134 60.6174 60.6129C61.0873 60.143 61.5191 59.9786 62.1469 60.0305C62.3799 60.0497 62.6979 60.1305 62.8537 60.2099ZM26.0213 62.0272C25.9943 62.0541 25.9723 63.4099 25.9723 65.0401V68.004H28.9852H31.9982V64.9911V61.9781H29.0343C27.404 61.9781 26.0482 62.0002 26.0213 62.0272ZM30.0141 65.0278V66.0199H29.022H28.0299V65.0278V64.0358H29.022H30.0141V65.0278Z" fill="white"/>
</svg>
