<svg width="368" height="250" viewBox="0 0 368 250" fill="none" xmlns="http://www.w3.org/2000/svg">
<g clip-path="url(#clip0_320_2536)">
<path d="M90.4975 29.8077C92.9699 35.4223 90.4238 41.9785 84.8091 44.4509C79.1945 46.9232 72.6383 44.3772 70.1659 38.7625C67.6936 33.1478 70.2396 26.5917 75.8543 24.1193C81.469 21.6469 88.0251 24.193 90.4975 29.8077Z" fill="#12252D"/>
<path d="M83.1472 42.4424L82.2944 40.5062C81.1742 40.9769 79.8712 41.1379 78.9897 40.9551L78.8847 39.4679C79.777 39.6234 80.9354 39.5497 82.0093 39.0763C83.371 38.4773 83.944 37.2848 83.4637 36.1918C82.9998 35.1371 81.9642 34.8151 80.2928 34.8642C77.9992 34.9584 76.4028 34.6091 75.6687 32.9404C74.9674 31.3494 75.5664 29.6425 77.2037 28.5783L76.3509 26.6421L77.5393 26.1182L78.358 27.9779C79.5246 27.5099 80.447 27.4703 81.1456 27.5508L81.2233 29.0272C80.7199 28.9739 79.747 28.8989 78.5204 29.4392C77.044 30.0901 76.8762 31.2157 77.2146 31.9839C77.6539 32.9813 78.5831 33.1669 80.5548 33.1218C82.8839 33.0577 84.3206 33.6158 85.0711 35.3213C85.7383 36.8359 85.3085 38.7188 83.4774 39.914L84.3561 41.9075L83.1486 42.4396L83.1472 42.4424Z" fill="white"/>
<path d="M48.1752 92.2282L38.8042 81.7029C38.8042 81.7029 42.2508 74.3144 52.3709 74.0525C58.6446 73.8901 64.1856 67.5659 64.1856 67.5659L73.607 78.1472C73.607 78.1472 67.5107 86.8182 60.3365 86.8837C52.7488 86.9519 48.1752 92.2282 48.1752 92.2282Z" fill="#12252D"/>
<path d="M61.5672 77.6996C62.5496 80.4107 60.7827 83.538 57.6199 84.6842C54.4571 85.8303 51.0965 84.5627 50.1141 81.8516C49.1317 79.1404 50.8986 76.0131 54.0614 74.867C57.2242 73.7209 60.5848 74.9884 61.5686 77.6996H61.5672Z" fill="white"/>
<path d="M341.234 104.209L336.703 90.8649C336.703 90.8649 328.576 90.2182 323.355 98.8919C320.118 104.268 311.884 105.968 311.884 105.968L316.44 119.383C316.44 119.383 326.99 118.358 330.586 112.15C334.389 105.585 341.234 104.209 341.234 104.209Z" fill="#12252D"/>
<path d="M321.99 108.689C323.864 110.881 327.456 110.887 330.013 108.701C332.571 106.515 333.125 102.966 331.252 100.774C329.379 98.5809 325.786 98.5755 323.229 100.761C320.671 102.947 320.117 106.496 321.989 108.689H321.99Z" fill="white"/>
<path d="M336.591 250C352.42 224.75 368.731 204.551 367.026 168.757C365.565 138.083 330.938 129.224 321.745 116.173C310.493 100.199 323.692 69.9183 303.73 42.6513C281.869 12.7919 246.845 13.4482 218.036 28.5307C196.999 39.5445 175.401 43.3376 154.252 36.8074C118.51 25.7718 69.5328 22.6868 64.6631 66.5086C61.2779 96.9807 44.7 106.434 18.4085 126.884C-17.0574 154.469 9.93124 209.001 23.6043 247.543L336.591 249.999V250Z" fill="#F4F7FA"/>
<path d="M336.59 246.396H5.73963C4.83084 246.396 4.09412 247.133 4.09412 248.042V248.354C4.09412 249.263 4.83084 250 5.73963 250H336.59C337.498 250 338.235 249.263 338.235 248.354V248.042C338.235 247.133 337.498 246.396 336.59 246.396Z" fill="#12252D"/>
<path d="M212.873 113.88C214.628 119.837 211.219 126.089 205.262 127.843C199.305 129.597 193.053 126.189 191.298 120.232C189.544 114.275 192.952 108.023 198.909 106.268C204.866 104.513 211.118 107.922 212.872 113.879L212.873 113.88Z" fill="white"/>
<path d="M203.854 125.61L203.25 123.555C202.064 123.883 200.735 123.876 199.874 123.577L199.961 122.071C200.837 122.344 202.009 122.419 203.149 122.083C204.593 121.658 205.323 120.536 204.982 119.376C204.652 118.257 203.656 117.799 201.971 117.632C199.657 117.429 198.099 116.871 197.578 115.101C197.081 113.412 197.904 111.778 199.686 110.922L199.081 108.867L200.342 108.496L200.923 110.469C202.155 110.15 203.086 110.23 203.778 110.402L203.664 111.895C203.165 111.776 202.199 111.574 200.897 111.958C199.331 112.419 199.017 113.528 199.256 114.343C199.567 115.4 200.476 115.707 202.461 115.919C204.808 116.156 206.178 116.902 206.71 118.713C207.183 120.32 206.508 122.156 204.513 123.117L205.137 125.234L203.855 125.612L203.854 125.61Z" fill="white"/>
<path d="M187.661 140.474L174.086 150.097L131.397 180.359L126.976 183.492L130.341 188.28L149.007 214.841L181.65 191.654L198.268 179.85L198.464 179.712L200.147 158.241L187.661 140.474Z" fill="#12252D"/>
<path d="M197.624 165.87L189.173 153.844C186.258 155.892 182.236 155.189 180.186 152.276L140.613 180.457C142.661 183.372 141.959 187.395 139.044 189.445L147.497 201.471C150.411 199.423 154.434 200.126 156.483 203.039L196.056 174.857C194.008 171.943 194.709 167.919 197.624 165.871V165.87Z" fill="#F4F7FA"/>
<path d="M178.875 170.674C175.475 165.836 168.796 164.67 163.958 168.071C159.119 171.471 157.953 178.15 161.354 182.988C164.754 187.826 171.433 188.993 176.272 185.591C181.11 182.191 182.275 175.512 178.875 170.674Z" fill="#12252D"/>
<path d="M200.147 158.241L188.062 169.798L198.268 179.85L198.44 180.019L198.465 179.712L200.147 158.241Z" fill="#12252D"/>
<g style="mix-blend-mode:color-burn" opacity="0.2">
<path d="M194.006 182.847L188.062 169.798L198.268 179.85L194.006 182.847Z" fill="#12252D"/>
</g>
<g style="mix-blend-mode:color-burn" opacity="0.2">
<path d="M200.147 158.241L188.062 169.798L199.319 157.064L200.147 158.241Z" fill="#12252D"/>
</g>
<g style="mix-blend-mode:color-burn" opacity="0.2">
<path d="M174.086 150.097L131.397 180.359L130.341 188.28L149.008 214.841L181.65 191.654L179.983 185.338C179.353 182.952 175.123 181.897 169.766 182.503L174.086 150.097Z" fill="#12252D"/>
</g>
<path d="M136.237 128.258L124.419 216.948L162.4 222.009L174.218 133.319L136.237 128.258Z" fill="#12252D"/>
<path d="M161.665 138.162L147.096 136.221C146.625 139.752 143.382 142.232 139.851 141.763L131.438 204.875C134.969 205.346 137.451 208.591 136.98 212.122L151.55 214.064C152.02 210.532 155.264 208.052 158.795 208.523L167.208 145.41C163.677 144.939 161.195 141.696 161.665 138.164V138.162Z" fill="#F4F7FA"/>
<path d="M151.435 164.912C145.573 164.13 140.188 168.25 139.406 174.111C138.624 179.973 142.743 185.358 148.605 186.14C154.467 186.922 159.852 182.803 160.634 176.941C161.416 171.079 157.296 165.694 151.435 164.912Z" fill="#12252D"/>
<path d="M162.945 185.572L126.452 195.204L136.229 232.251L172.723 222.62L165.842 196.548C173.132 194.595 178.384 190.594 177.587 187.578C176.792 184.564 170.249 183.673 162.945 185.572Z" fill="#12252D"/>
<path d="M136.532 198.433L143.41 224.5L184.432 213.676L177.555 187.61L136.532 198.433Z" fill="#F4F7FA"/>
<path d="M155.662 197.417C150.555 198.765 147.507 203.998 148.855 209.105C150.203 214.212 155.435 217.26 160.542 215.912C165.65 214.564 168.698 209.331 167.35 204.224C166.002 199.117 160.769 196.069 155.662 197.417Z" fill="#12252D"/>
<g style="mix-blend-mode:color-burn" opacity="0.2">
<path d="M162.945 185.572L159.207 186.559L168.984 223.606L185.917 219.138L177.587 187.578C176.792 184.564 170.249 183.673 162.945 185.572Z" fill="#12252D"/>
</g>
<path d="M177.587 187.58C178.383 190.594 173.132 194.597 165.842 196.549L175.621 233.598C182.911 231.644 188.16 227.642 187.365 224.627L177.587 187.58Z" fill="#12252D"/>
<path d="M179.351 194.266C179.703 195.599 178.804 197.09 177.155 198.248C177.643 200.306 176.505 202.361 174.576 202.87L174.566 202.872L179.51 221.603L179.519 221.601C181.292 221.133 183.127 222.129 183.87 223.866C185.543 222.703 186.459 221.2 186.105 219.856L179.351 194.264V194.266Z" fill="#F4F7FA"/>
<path d="M134.179 246.298L80.4907 246.333C72.023 246.338 65.153 239.478 65.1476 231.01L65.0643 99.6263C65.0589 91.1586 71.9193 84.2886 80.387 84.2831L134.075 84.249C142.543 84.2436 149.413 91.104 149.418 99.5717L149.501 230.955C149.507 239.423 142.647 246.293 134.179 246.298Z" fill="#12252D"/>
<path d="M134.731 243.672L79.9326 243.706C73.9781 243.71 69.148 238.886 69.1439 232.931L69.0593 98.6699C69.0552 92.7155 73.8799 87.884 79.8343 87.8813L134.633 87.8472C140.588 87.8431 145.418 92.6677 145.422 98.6222L145.506 232.883C145.51 238.838 140.686 243.668 134.731 243.672Z" fill="white"/>
<path d="M64.5676 127.241C63.2469 127.241 62.1758 126.17 62.1758 124.849V112.445C62.1758 111.124 63.2469 110.053 64.5676 110.053C65.8884 110.053 66.9595 111.124 66.9595 112.445V124.849C66.9595 126.17 65.8884 127.241 64.5676 127.241Z" fill="#12252D"/>
<path d="M149.878 127.241C148.557 127.241 147.486 126.17 147.486 124.849V112.445C147.486 111.124 148.557 110.053 149.878 110.053C151.199 110.053 152.27 111.124 152.27 112.445V124.849C152.27 126.17 151.199 127.241 149.878 127.241Z" fill="#12252D"/>
<path d="M279.472 246.298L225.782 246.333C217.314 246.338 210.444 239.478 210.439 231.01L210.356 99.6263C210.35 91.1586 217.211 84.2886 225.678 84.2831L279.368 84.249C287.836 84.2436 294.706 91.104 294.711 99.5717L294.794 230.955C294.8 239.423 287.939 246.293 279.472 246.298Z" fill="#12252D"/>
<path d="M280.026 243.672L225.227 243.706C219.272 243.71 214.442 238.886 214.438 232.931L214.354 98.6699C214.349 92.7155 219.174 87.884 225.129 87.8813L279.927 87.8472C285.882 87.8431 290.712 92.6677 290.716 98.6222L290.801 232.883C290.805 238.838 285.98 243.668 280.026 243.672Z" fill="white"/>
<path d="M209.86 127.241C208.54 127.241 207.469 126.17 207.469 124.849V112.445C207.469 111.124 208.54 110.053 209.86 110.053C211.181 110.053 212.252 111.124 212.252 112.445V124.849C212.252 126.17 211.181 127.241 209.86 127.241Z" fill="#12252D"/>
<path d="M295.172 127.241C293.851 127.241 292.78 126.17 292.78 124.849V112.445C292.78 111.124 293.851 110.053 295.172 110.053C296.493 110.053 297.564 111.124 297.564 112.445V124.849C297.564 126.17 296.493 127.241 295.172 127.241Z" fill="#12252D"/>
<path d="M209.86 145.589C208.54 145.589 207.469 144.518 207.469 143.197V130.793C207.469 129.472 208.54 128.401 209.86 128.401C211.181 128.401 212.252 129.472 212.252 130.793V143.197C212.252 144.518 211.181 145.589 209.86 145.589Z" fill="#12252D"/>
<path d="M119.168 68.8687C116.412 75.1643 109.074 78.0323 102.779 75.2762C96.4833 72.52 93.6152 65.182 96.3714 58.8865C99.1276 52.5909 106.466 49.7229 112.761 52.479C119.057 55.2352 121.925 62.5732 119.168 68.8687Z" fill="#D6B556"/>
<path d="M117.133 67.9777C114.677 73.7438 107.34 75.8969 102.144 72.4135C98.841 70.2604 97.0454 66.2503 97.6649 62.3207C98.6309 55.6936 105.897 51.8118 111.869 54.5147C116.953 56.691 119.432 62.8242 117.131 67.9777H117.133Z" fill="url(#paint0_linear_320_2536)"/>
<path d="M107.07 72.4722L107.064 70.356C105.849 70.3382 104.591 69.9644 103.857 69.4432L104.356 68.0378C105.112 68.5385 106.202 68.9329 107.376 68.9301C108.863 68.926 109.866 68.0637 109.863 66.8698C109.86 65.7182 109.04 65.0074 107.489 64.3838C105.349 63.5515 104.027 62.5923 104.022 60.7694C104.016 59.0311 105.25 57.7076 107.175 57.3869L107.17 55.2707L108.469 55.2666L108.474 57.2983C109.731 57.3365 110.592 57.6694 111.199 58.0241L110.679 59.4077C110.238 59.158 109.379 58.6995 108.037 58.7023C106.425 58.7064 105.819 59.6724 105.821 60.5102C105.824 61.599 106.601 62.142 108.426 62.8911C110.586 63.7644 111.679 64.8518 111.684 66.7156C111.689 68.3707 110.541 69.9248 108.384 70.2864L108.389 72.4654L107.07 72.4695V72.4722Z" fill="#D6B556"/>
<path d="M141.489 32.7711C138.733 39.0666 131.395 41.9347 125.1 39.1785C118.804 36.4223 115.936 29.0843 118.692 22.7888C121.448 16.4933 128.786 13.6252 135.082 16.3814C141.378 19.1376 144.246 26.4755 141.489 32.7711Z" fill="#D6B556"/>
<path d="M139.455 31.8786C136.999 37.6447 129.662 39.7978 124.467 36.3144C121.163 34.1613 119.368 30.1512 119.987 26.2216C120.953 19.5945 128.219 15.7126 134.191 18.4156C139.275 20.5919 141.754 26.7251 139.454 31.8786H139.455Z" fill="url(#paint1_linear_320_2536)"/>
<path d="M129.391 36.3732L129.385 34.257C128.17 34.2392 126.912 33.8654 126.178 33.3441L126.677 31.9388C127.433 32.4395 128.523 32.8338 129.697 32.8311C131.184 32.827 132.187 31.9647 132.184 30.7708C132.181 29.6178 131.361 28.9083 129.81 28.2848C127.67 27.4525 126.348 26.4933 126.343 24.6704C126.337 22.9321 127.571 21.6086 129.496 21.2893L129.49 19.173L130.789 19.1689L130.795 21.2006C132.052 21.2388 132.911 21.5717 133.52 21.9265L133 23.31C132.559 23.0603 131.7 22.6019 130.358 22.6046C128.745 22.6087 128.14 23.5747 128.142 24.4125C128.145 25.5013 128.922 26.0444 130.747 26.7934C132.907 27.6667 134 28.7542 134.005 30.618C134.01 32.2731 132.862 33.8272 130.705 34.1887L130.71 36.3677L129.391 36.3718V36.3732Z" fill="#D6B556"/>
<path d="M236.476 32.7711C233.72 39.0666 226.382 41.9347 220.087 39.1785C213.791 36.4223 210.923 29.0843 213.679 22.7888C216.435 16.4933 223.773 13.6252 230.069 16.3814C236.364 19.1376 239.233 26.4755 236.476 32.7711Z" fill="#D6B556"/>
<path d="M234.441 31.8786C231.985 37.6447 224.648 39.7978 219.452 36.3144C216.149 34.1613 214.353 30.1512 214.973 26.2216C215.939 19.5945 223.204 15.7126 229.177 18.4156C234.26 20.5919 236.74 26.7251 234.439 31.8786H234.441Z" fill="url(#paint2_linear_320_2536)"/>
<path d="M224.378 36.3732L224.372 34.257C223.157 34.2392 221.899 33.8654 221.165 33.3441L221.664 31.9388C222.42 32.4395 223.51 32.8338 224.683 32.8311C226.171 32.827 227.174 31.9647 227.171 30.7708C227.168 29.6178 226.348 28.9083 224.797 28.2848C222.657 27.4525 221.335 26.4933 221.33 24.6704C221.324 22.9321 222.558 21.6086 224.484 21.2893L224.479 19.173L225.778 19.1689L225.783 21.2006C227.04 21.2388 227.901 21.5717 228.508 21.9265L227.988 23.31C227.547 23.0603 226.688 22.6019 225.347 22.6046C223.734 22.6087 223.129 23.5747 223.131 24.4125C223.133 25.5013 223.91 26.0444 225.735 26.7934C227.895 27.6667 228.988 28.7542 228.994 30.618C228.998 32.2731 227.85 33.8272 225.693 34.1887L225.699 36.3677L224.379 36.3718L224.378 36.3732Z" fill="#D6B556"/>
<path d="M261.835 68.8687C259.079 75.1643 251.741 78.0323 245.445 75.2762C239.15 72.52 236.281 65.182 239.038 58.8865C241.794 52.5909 249.132 49.7229 255.427 52.479C261.723 55.2352 264.591 62.5732 261.835 68.8687Z" fill="#D6B556"/>
<path d="M259.8 67.9777C257.344 73.7438 250.008 75.8969 244.812 72.4135C241.509 70.2604 239.713 66.2503 240.333 62.3207C241.299 55.6936 248.564 51.8118 254.536 54.5147C259.62 56.691 262.1 62.8242 259.799 67.9777H259.8Z" fill="url(#paint3_linear_320_2536)"/>
<path d="M249.738 72.4722L249.732 70.356C248.517 70.3382 247.258 69.9644 246.524 69.4432L247.024 68.0378C247.78 68.5385 248.87 68.9329 250.043 68.9301C251.531 68.926 252.533 68.0637 252.531 66.8698C252.528 65.7182 251.708 65.0074 250.157 64.3838C248.017 63.5515 246.695 62.5923 246.69 60.7694C246.684 59.0311 247.918 57.7076 249.844 57.3869L249.839 55.2707L251.138 55.2666L251.143 57.2983C252.4 57.3365 253.261 57.6694 253.868 58.0241L253.348 59.4077C252.907 59.158 252.048 58.6995 250.706 58.7023C249.094 58.7064 248.489 59.6724 248.491 60.5102C248.493 61.599 249.27 62.142 251.095 62.8911C253.255 63.7644 254.348 64.8518 254.354 66.7156C254.359 68.3707 253.21 69.9248 251.053 70.2864L251.058 72.4654L249.739 72.4695L249.738 72.4722Z" fill="#D6B556"/>
<path d="M192.659 17.4376C189.903 23.7331 182.565 26.6012 176.269 23.845C169.973 21.0888 167.105 13.7509 169.862 7.45531C172.618 1.15977 179.956 -1.70828 186.251 1.04789C192.547 3.80406 195.415 11.142 192.659 17.4376Z" fill="#D6B556"/>
<path d="M190.623 16.5465C188.167 22.3127 180.83 24.4658 175.635 20.9823C172.331 18.8292 170.536 14.8191 171.155 10.8896C172.121 4.26246 179.387 0.380617 185.359 3.08358C190.441 5.25986 192.922 11.393 190.622 16.5465H190.623Z" fill="url(#paint4_linear_320_2536)"/>
<path d="M180.56 21.0412L180.555 18.9249C179.339 18.9072 178.081 18.5333 177.347 18.0121L177.846 16.6067C178.602 17.1075 179.692 17.5018 180.866 17.4991C182.353 17.495 183.356 16.6327 183.353 15.4388C183.35 14.2872 182.53 13.5763 180.979 12.9528C178.84 12.1204 177.517 11.1612 177.512 9.33835C177.507 7.60005 178.74 6.27654 180.665 5.95726L180.66 3.84101L181.959 3.83691L181.964 5.86857C183.221 5.90677 184.082 6.2397 184.689 6.59445L184.169 7.978C183.728 7.7283 182.869 7.26985 181.528 7.27258C179.915 7.27667 179.309 8.2427 179.312 9.08047C179.314 10.1693 180.091 10.7123 181.916 11.4614C184.076 12.3347 185.169 13.4221 185.175 15.286C185.18 16.941 184.031 18.4951 181.874 18.8567L181.881 21.0357L180.562 21.0398L180.56 21.0412Z" fill="#D6B556"/>
<path d="M230.608 83.3362C230.005 83.3362 229.517 82.8477 229.517 82.2447C229.517 81.355 229.493 80.4572 229.448 79.5717C229.417 78.97 229.881 78.457 230.483 78.4256C231.084 78.3969 231.597 78.8581 231.629 79.4598C231.675 80.3808 231.7 81.3182 231.7 82.2433C231.7 82.8464 231.211 83.3348 230.608 83.3348V83.3362Z" fill="#12252D"/>
<path d="M229.971 75.1141C229.443 75.1141 228.978 74.7294 228.894 74.1918C228.616 72.4166 228.241 70.6374 227.778 68.9018C227.623 68.3192 227.969 67.7216 228.552 67.566C229.134 67.4105 229.732 67.7571 229.888 68.3397C230.369 70.1476 230.761 72.0032 231.05 73.8534C231.143 74.4497 230.736 75.0077 230.14 75.1005C230.083 75.1087 230.025 75.1141 229.969 75.1141H229.971ZM125.785 75.0677C125.729 75.0677 125.671 75.0637 125.614 75.0541C125.018 74.96 124.611 74.4019 124.705 73.8056C124.997 71.9541 125.39 70.0998 125.873 68.2919C126.029 67.7093 126.628 67.3641 127.211 67.5196C127.793 67.6752 128.138 68.2742 127.983 68.8568C127.519 70.5896 127.142 72.3689 126.863 74.1454C126.778 74.683 126.314 75.0677 125.786 75.0677H125.785ZM227.13 64.4578C226.691 64.4578 226.277 64.1918 226.111 63.7565C225.468 62.0796 224.727 60.4177 223.911 58.8159C223.637 58.2783 223.851 57.622 224.388 57.3477C224.925 57.0735 225.581 57.2877 225.856 57.8239C226.707 59.494 227.478 61.2268 228.149 62.9747C228.365 63.5368 228.084 64.1686 227.522 64.3842C227.393 64.4333 227.261 64.4565 227.131 64.4565L227.13 64.4578ZM128.634 64.4169C128.504 64.4169 128.372 64.3937 128.242 64.3446C127.68 64.1276 127.399 63.4973 127.614 62.9338C128.286 61.1886 129.058 59.4572 129.909 57.7898C130.184 57.2522 130.841 57.0394 131.378 57.315C131.915 57.5892 132.128 58.2469 131.852 58.7831C131.035 60.3836 130.294 62.0428 129.65 63.7169C129.484 64.1508 129.07 64.4169 128.631 64.4169H128.634ZM222.12 54.6311C221.762 54.6311 221.413 54.4565 221.204 54.1345C220.226 52.6295 219.156 51.1573 218.024 49.7601C217.644 49.2921 217.717 48.6044 218.185 48.2251C218.653 47.8457 219.34 47.9181 219.72 48.3861C220.9 49.8419 222.015 51.3756 223.034 52.9447C223.363 53.4495 223.22 54.1263 222.713 54.4551C222.529 54.5738 222.323 54.6311 222.12 54.6311ZM133.647 54.6011C133.442 54.6011 133.236 54.5438 133.052 54.4237C132.547 54.0949 132.404 53.4181 132.732 52.9133C133.753 51.3455 134.869 49.8133 136.049 48.3588C136.429 47.8908 137.116 47.8185 137.584 48.1991C138.052 48.5785 138.125 49.2661 137.744 49.7341C136.612 51.13 135.54 52.6008 134.562 54.1044C134.353 54.4265 134.003 54.6011 133.647 54.6011ZM215.178 46.0611C214.898 46.0611 214.618 45.9546 214.405 45.7404C213.135 44.4701 211.784 43.2517 210.39 42.1192C209.922 41.7399 209.849 41.0522 210.23 40.5842C210.609 40.1162 211.297 40.0439 211.765 40.4245C213.218 41.6034 214.626 42.8737 215.95 44.1972C216.376 44.6243 216.376 45.3147 215.95 45.7404C215.737 45.9533 215.457 46.0597 215.178 46.0597V46.0611ZM140.594 46.0379C140.315 46.0379 140.035 45.9314 139.822 45.7186C139.396 45.2929 139.396 44.6011 139.822 44.1754C141.147 42.8519 142.555 41.583 144.01 40.4041C144.478 40.0248 145.165 40.0971 145.545 40.5651C145.924 41.0331 145.852 41.7208 145.384 42.1001C143.988 43.2312 142.636 44.4483 141.365 45.7186C141.152 45.9314 140.873 46.0379 140.593 46.0379H140.594ZM206.614 39.1147C206.41 39.1147 206.204 39.0574 206.019 38.9373C204.513 37.9563 202.94 37.0462 201.342 36.2289C200.806 35.9546 200.593 35.297 200.867 34.7607C201.142 34.2245 201.799 34.0103 202.335 34.2859C204.001 35.1373 205.641 36.087 207.211 37.1089C207.715 37.4378 207.859 38.1145 207.53 38.6194C207.321 38.94 206.97 39.116 206.614 39.116V39.1147ZM149.164 39.0956C148.807 39.0956 148.458 38.9209 148.249 38.5989C147.92 38.0941 148.063 37.4173 148.57 37.0885C150.14 36.0665 151.783 35.1182 153.45 34.2668C153.986 33.9926 154.644 34.2054 154.918 34.743C155.193 35.2792 154.978 35.9369 154.442 36.2111C152.843 37.0271 151.267 37.9372 149.761 38.9182C149.576 39.0383 149.37 39.0942 149.167 39.0942L149.164 39.0956ZM196.8 34.1004C196.669 34.1004 196.538 34.0772 196.408 34.0267C194.731 33.3813 193.001 32.8191 191.267 32.3552C190.684 32.1997 190.339 31.6007 190.495 31.0181C190.65 30.4355 191.249 30.0903 191.832 30.2458C193.64 30.7302 195.444 31.3169 197.191 31.9896C197.754 32.2065 198.035 32.8369 197.818 33.4004C197.651 33.8343 197.238 34.1004 196.798 34.1004H196.8ZM158.99 34.084C158.55 34.084 158.137 33.8179 157.971 33.3827C157.755 32.8205 158.036 32.1888 158.598 31.9732C160.347 31.3019 162.151 30.7165 163.962 30.2335C164.544 30.078 165.142 30.4245 165.298 31.0072C165.453 31.5898 165.107 32.1874 164.524 32.3429C162.788 32.8055 161.057 33.3676 159.38 34.0117C159.252 34.0608 159.119 34.084 158.99 34.084ZM186.15 31.2473C186.094 31.2473 186.037 31.2432 185.98 31.2337C184.21 30.9553 182.4 30.7657 180.603 30.6729C180.001 30.6415 179.538 30.1285 179.57 29.5267C179.601 28.925 180.115 28.4625 180.716 28.4939C182.589 28.5907 184.475 28.7886 186.32 29.0792C186.914 29.1733 187.321 29.7314 187.228 30.3277C187.144 30.8653 186.68 31.25 186.152 31.25L186.15 31.2473ZM169.645 31.2405C169.117 31.2405 168.653 30.8557 168.568 30.3181C168.475 29.7219 168.882 29.1638 169.477 29.071C171.322 28.7818 173.207 28.5866 175.082 28.4911C175.684 28.4611 176.197 28.9237 176.228 29.5254C176.26 30.1271 175.796 30.6401 175.194 30.6715C173.396 30.7629 171.586 30.9512 169.815 31.2282C169.758 31.2378 169.701 31.2418 169.645 31.2418V31.2405Z" fill="#12252D"/>
<path d="M125.138 83.3361C124.535 83.3361 124.046 82.8476 124.046 82.2445C124.046 81.3194 124.07 80.382 124.117 79.461C124.147 78.8593 124.659 78.3954 125.263 78.4268C125.865 78.4582 126.329 78.9698 126.298 79.5729C126.253 80.4571 126.229 81.3563 126.229 82.2459C126.229 82.849 125.741 83.3374 125.138 83.3374V83.3361Z" fill="#12252D"/>
<path d="M139.913 83.3365C139.31 83.3365 138.822 82.8481 138.822 82.245C138.822 81.3117 138.855 80.3689 138.922 79.441C138.964 78.8393 139.486 78.3877 140.088 78.43C140.69 78.4723 141.143 78.9949 141.099 79.5966C141.036 80.4726 141.005 81.3635 141.005 82.2463C141.005 82.8494 140.517 83.3379 139.913 83.3379V83.3365Z" fill="#12252D"/>
<path d="M140.777 75.2493C140.701 75.2493 140.623 75.2411 140.545 75.2247C139.956 75.0965 139.582 74.5152 139.71 73.9271C140.103 72.1152 140.631 70.3155 141.281 68.5799C141.492 68.015 142.121 67.7285 142.685 67.94C143.25 68.1515 143.536 68.7805 143.325 69.344C142.712 70.9827 142.214 72.68 141.843 74.3897C141.732 74.9014 141.279 75.2493 140.777 75.2493ZM214.962 75.2206C214.46 75.2206 214.008 74.8713 213.896 74.361C213.524 72.6527 213.024 70.9567 212.412 69.3194C212.2 68.7545 212.487 68.1255 213.052 67.914C213.615 67.7026 214.246 67.9891 214.457 68.554C215.107 70.2895 215.636 72.0865 216.03 73.8971C216.159 74.4866 215.785 75.0678 215.197 75.1961C215.119 75.2124 215.04 75.222 214.963 75.222L214.962 75.2206ZM144.555 65.1292C144.378 65.1292 144.198 65.0856 144.031 64.9955C143.502 64.7062 143.308 64.0431 143.599 63.5137C144.488 61.89 145.504 60.3155 146.616 58.8309C146.977 58.3493 147.662 58.2511 148.144 58.6126C148.625 58.9742 148.724 59.6592 148.362 60.1408C147.311 61.5421 146.352 63.0293 145.513 64.5616C145.315 64.9245 144.94 65.1292 144.555 65.1292ZM211.18 65.1101C210.794 65.1101 210.42 64.9054 210.222 64.5425C209.381 63.0116 208.423 61.5244 207.373 60.1258C207.011 59.6442 207.108 58.9592 207.59 58.5976C208.071 58.236 208.756 58.3329 209.118 58.8146C210.231 60.2964 211.247 61.8709 212.136 63.4932C212.425 64.0213 212.232 64.6858 211.704 64.975C211.537 65.0665 211.357 65.1101 211.18 65.1101ZM151.038 56.4882C150.758 56.4882 150.478 56.3818 150.265 56.1689C149.84 55.7418 149.84 55.0514 150.265 54.6257C151.575 53.3159 152.992 52.0892 154.473 50.9786C154.956 50.617 155.64 50.7152 156.002 51.1969C156.363 51.6799 156.265 52.3635 155.783 52.7251C154.385 53.773 153.048 54.9327 151.81 56.1689C151.597 56.3818 151.317 56.4882 151.038 56.4882ZM204.696 56.4759C204.416 56.4759 204.138 56.3695 203.925 56.1566C202.686 54.9205 201.349 53.762 199.949 52.7142C199.466 52.3526 199.368 51.669 199.729 51.186C200.091 50.703 200.774 50.6061 201.257 50.9663C202.739 52.0756 204.155 53.3022 205.467 54.6121C205.894 55.0378 205.894 55.7296 205.467 56.1553C205.254 56.3681 204.974 56.4759 204.694 56.4759H204.696ZM159.68 50.0126C159.294 50.0126 158.92 49.8079 158.721 49.4449C158.432 48.9155 158.625 48.2524 159.155 47.9632C160.78 47.0735 162.484 46.2944 164.217 45.6477C164.782 45.4376 165.411 45.7241 165.621 46.289C165.832 46.8539 165.544 47.4829 164.98 47.693C163.344 48.3043 161.736 49.0397 160.201 49.8788C160.035 49.9703 159.855 50.0126 159.679 50.0126H159.68ZM196.048 50.003C195.871 50.003 195.692 49.9593 195.525 49.8693C193.989 49.0302 192.379 48.2947 190.742 47.6848C190.177 47.4747 189.889 46.8457 190.1 46.2808C190.31 45.7159 190.94 45.428 191.504 45.6395C193.24 46.2863 194.946 47.0654 196.573 47.955C197.103 48.2442 197.296 48.9074 197.007 49.4368C196.809 49.7997 196.434 50.0057 196.048 50.0057V50.003ZM169.792 46.2385C169.29 46.2385 168.837 45.8892 168.726 45.3775C168.598 44.7881 168.973 44.2069 169.561 44.08C171.368 43.6884 173.222 43.4237 175.074 43.2927C175.674 43.2504 176.197 43.7034 176.239 44.3037C176.281 44.9041 175.828 45.4267 175.228 45.469C173.48 45.5931 171.728 45.8428 170.024 46.2126C169.946 46.229 169.868 46.2371 169.792 46.2371V46.2385ZM185.925 46.233C185.849 46.233 185.771 46.2249 185.693 46.2085C183.988 45.8401 182.237 45.5918 180.489 45.469C179.888 45.4267 179.435 44.9054 179.477 44.3037C179.519 43.702 180.039 43.249 180.642 43.2913C182.494 43.4209 184.349 43.6843 186.156 44.0745C186.745 44.2014 187.119 44.7826 186.992 45.3721C186.882 45.8838 186.429 46.233 185.927 46.233H185.925Z" fill="#12252D"/>
<path d="M215.832 83.3366C215.229 83.3366 214.741 82.8481 214.741 82.245C214.741 81.3622 214.71 80.4713 214.647 79.5953C214.604 78.9936 215.057 78.4723 215.658 78.4287C216.261 78.385 216.781 78.8394 216.824 79.4397C216.89 80.3662 216.924 81.3104 216.924 82.2437C216.924 82.8468 216.436 83.3352 215.832 83.3352V83.3366Z" fill="#12252D"/>
<path d="M230.416 83.9749C230.416 83.9749 230.407 83.9749 230.402 83.9749C230.192 83.9708 229.994 83.8698 229.868 83.7006L222.902 74.331C222.677 74.0294 222.739 73.6024 223.042 73.3772C223.344 73.1521 223.771 73.2149 223.996 73.5178L230.437 82.1806L236.852 74.2177C237.088 73.9244 237.518 73.878 237.81 74.114C238.103 74.3501 238.149 74.7799 237.913 75.0719L230.946 83.7211C230.817 83.8821 230.622 83.9749 230.416 83.9749Z" fill="#12252D"/>
<path d="M139.892 83.9749C139.892 83.9749 139.884 83.9749 139.878 83.9749C139.667 83.9708 139.47 83.8698 139.345 83.7006L132.378 74.331C132.153 74.0294 132.215 73.6024 132.518 73.3772C132.82 73.1521 133.247 73.2149 133.472 73.5178L139.914 82.1806L146.329 74.2177C146.565 73.9244 146.995 73.878 147.287 74.114C147.58 74.3501 147.627 74.7799 147.391 75.0719L140.424 83.7211C140.294 83.8821 140.099 83.9749 139.893 83.9749H139.892Z" fill="#12252D"/>
<path d="M278.412 230.984V233.748C278.412 234.828 277.537 235.704 276.457 235.704H242.719C241.638 235.704 240.763 234.828 240.763 233.748V230.984C240.763 230.502 240.937 230.063 241.225 229.722C241.583 229.298 242.12 229.029 242.719 229.029H276.457C277.056 229.029 277.592 229.298 277.951 229.722C278.241 230.063 278.412 230.502 278.412 230.984Z" fill="url(#paint5_linear_320_2536)"/>
<path d="M243.612 229.027H242.633V235.704H243.612V229.027Z" fill="#D6B556"/>
<path d="M247.722 229.027H246.742V235.704H247.722V229.027Z" fill="#D6B556"/>
<path d="M251.832 229.027H250.852V235.704H251.832V229.027Z" fill="#D6B556"/>
<path d="M255.942 229.027H254.962V235.704H255.942V229.027Z" fill="#D6B556"/>
<path d="M260.051 229.027H259.072V235.704H260.051V229.027Z" fill="#D6B556"/>
<path d="M264.16 229.027H263.18V235.704H264.16V229.027Z" fill="#D6B556"/>
<path d="M268.269 229.027H267.29V235.704H268.269V229.027Z" fill="#D6B556"/>
<path d="M272.379 229.027H271.399V235.704H272.379V229.027Z" fill="#D6B556"/>
<path d="M276.489 229.027H275.509V235.704H276.489V229.027Z" fill="#D6B556"/>
<path d="M277.951 229.72H241.225C241.583 229.296 242.12 229.027 242.719 229.027H276.457C277.056 229.027 277.592 229.296 277.951 229.72Z" fill="#D6B556"/>
<path d="M277.951 235.01H241.225C241.583 235.435 242.12 235.703 242.719 235.703H276.457C277.056 235.703 277.592 235.435 277.951 235.01Z" fill="#D6B556"/>
<path d="M280.773 224.308V227.072C280.773 228.151 279.897 229.027 278.818 229.027H245.079C243.999 229.027 243.124 228.151 243.124 227.072V224.308C243.124 223.826 243.297 223.387 243.585 223.046C243.944 222.621 244.48 222.353 245.079 222.353H278.818C279.417 222.353 279.953 222.621 280.312 223.046C280.6 223.387 280.773 223.827 280.773 224.308Z" fill="url(#paint6_linear_320_2536)"/>
<path d="M245.972 222.353H244.992V229.027H245.972V222.353Z" fill="#D6B556"/>
<path d="M250.081 222.353H249.102V229.027H250.081V222.353Z" fill="#D6B556"/>
<path d="M254.191 222.353H253.211V229.027H254.191V222.353Z" fill="#D6B556"/>
<path d="M258.301 222.353H257.321V229.027H258.301V222.353Z" fill="#D6B556"/>
<path d="M262.41 222.353H261.431V229.027H262.41V222.353Z" fill="#D6B556"/>
<path d="M266.52 222.353H265.541V229.027H266.52V222.353Z" fill="#D6B556"/>
<path d="M270.63 222.353H269.65V229.027H270.63V222.353Z" fill="#D6B556"/>
<path d="M274.739 222.353H273.76V229.027H274.739V222.353Z" fill="#D6B556"/>
<path d="M278.849 222.353H277.87V229.027H278.849V222.353Z" fill="#D6B556"/>
<path d="M280.31 223.046H243.584C243.943 222.621 244.479 222.353 245.078 222.353H278.816C279.415 222.353 279.952 222.621 280.31 223.046Z" fill="#D6B556"/>
<path d="M280.31 228.334H243.584C243.943 228.759 244.479 229.028 245.078 229.028H278.816C279.415 229.028 279.952 228.759 280.31 228.334Z" fill="#D6B556"/>
<path d="M278.943 217.644V220.408C278.943 221.489 278.067 222.363 276.988 222.363H243.249C242.17 222.363 241.294 221.487 241.294 220.408V217.644C241.294 217.162 241.467 216.723 241.755 216.382C242.114 215.957 242.65 215.688 243.249 215.688H276.988C277.587 215.688 278.123 215.957 278.482 216.382C278.77 216.723 278.943 217.162 278.943 217.644Z" fill="url(#paint7_linear_320_2536)"/>
<path d="M244.142 215.687H243.162V222.362H244.142V215.687Z" fill="#D6B556"/>
<path d="M248.251 215.687H247.272V222.362H248.251V215.687Z" fill="#D6B556"/>
<path d="M252.361 215.687H251.382V222.362H252.361V215.687Z" fill="#D6B556"/>
<path d="M256.471 215.687H255.491V222.362H256.471V215.687Z" fill="#D6B556"/>
<path d="M260.581 215.687H259.601V222.362H260.581V215.687Z" fill="#D6B556"/>
<path d="M264.69 215.687H263.711V222.362H264.69V215.687Z" fill="#D6B556"/>
<path d="M268.8 215.687H267.82V222.362H268.8V215.687Z" fill="#D6B556"/>
<path d="M272.91 215.687H271.93V222.362H272.91V215.687Z" fill="#D6B556"/>
<path d="M277.019 215.687H276.04V222.362H277.019V215.687Z" fill="#D6B556"/>
<path d="M278.481 216.38H241.754C242.113 215.956 242.649 215.687 243.248 215.687H276.987C277.586 215.687 278.122 215.956 278.481 216.38Z" fill="#D6B556"/>
<path d="M278.481 221.67H241.754C242.113 222.094 242.649 222.363 243.248 222.363H276.987C277.586 222.363 278.122 222.094 278.481 221.67Z" fill="#D6B556"/>
<path d="M279.696 211.1V213.864C279.696 214.945 278.82 215.819 277.741 215.819H244.003C242.923 215.819 242.047 214.943 242.047 213.864V211.1C242.047 210.618 242.221 210.179 242.509 209.838C242.867 209.413 243.404 209.145 244.003 209.145H277.741C278.34 209.145 278.876 209.413 279.235 209.838C279.523 210.179 279.696 210.62 279.696 211.1Z" fill="url(#paint8_linear_320_2536)"/>
<path d="M244.895 209.145H243.915V215.819H244.895V209.145Z" fill="#D6B556"/>
<path d="M249.005 209.145H248.025V215.819H249.005V209.145Z" fill="#D6B556"/>
<path d="M253.114 209.145H252.135V215.819H253.114V209.145Z" fill="#D6B556"/>
<path d="M257.224 209.145H256.244V215.819H257.224V209.145Z" fill="#D6B556"/>
<path d="M261.334 209.145H260.354V215.819H261.334V209.145Z" fill="#D6B556"/>
<path d="M265.444 209.145H264.464V215.819H265.444V209.145Z" fill="#D6B556"/>
<path d="M269.553 209.145H268.573V215.819H269.553V209.145Z" fill="#D6B556"/>
<path d="M273.663 209.145H272.683V215.819H273.663V209.145Z" fill="#D6B556"/>
<path d="M277.773 209.145H276.793V215.819H277.773V209.145Z" fill="#D6B556"/>
<path d="M279.234 209.838H242.507C242.866 209.413 243.402 209.145 244.001 209.145H277.74C278.339 209.145 278.875 209.413 279.234 209.838Z" fill="#D6B556"/>
<path d="M279.234 215.126H242.507C242.866 215.551 243.402 215.82 244.001 215.82H277.74C278.339 215.82 278.875 215.551 279.234 215.126Z" fill="#D6B556"/>
<path d="M275.49 204.324V207.088C275.49 208.169 274.614 209.043 273.535 209.043H239.796C238.715 209.043 237.841 208.168 237.841 207.088V204.324C237.841 203.842 238.014 203.403 238.302 203.062C238.661 202.637 239.197 202.369 239.796 202.369H273.535C274.134 202.369 274.67 202.637 275.029 203.062C275.318 203.403 275.49 203.842 275.49 204.324Z" fill="url(#paint9_linear_320_2536)"/>
<path d="M240.69 202.369H239.71V209.045H240.69V202.369Z" fill="#D6B556"/>
<path d="M244.8 202.369H243.82V209.045H244.8V202.369Z" fill="#D6B556"/>
<path d="M248.909 202.369H247.929V209.045H248.909V202.369Z" fill="#D6B556"/>
<path d="M253.019 202.369H252.039V209.045H253.019V202.369Z" fill="#D6B556"/>
<path d="M257.127 202.369H256.147V209.045H257.127V202.369Z" fill="#D6B556"/>
<path d="M261.237 202.369H260.257V209.045H261.237V202.369Z" fill="#D6B556"/>
<path d="M265.347 202.369H264.367V209.045H265.347V202.369Z" fill="#D6B556"/>
<path d="M269.456 202.369H268.477V209.045H269.456V202.369Z" fill="#D6B556"/>
<path d="M273.566 202.369H272.586V209.045H273.566V202.369Z" fill="#D6B556"/>
<path d="M275.029 203.062H238.302C238.661 202.637 239.197 202.369 239.796 202.369H273.535C274.134 202.369 274.67 202.637 275.029 203.062Z" fill="#D6B556"/>
<path d="M275.029 208.351H238.302C238.661 208.775 239.197 209.044 239.796 209.044H273.535C274.134 209.044 274.67 208.775 275.029 208.351Z" fill="#D6B556"/>
<path d="M279.628 197.727V200.491C279.628 201.57 278.752 202.446 277.673 202.446H243.935C242.855 202.446 241.979 201.57 241.979 200.491V197.727C241.979 197.245 242.153 196.806 242.44 196.465C242.799 196.04 243.336 195.771 243.935 195.771H277.673C278.272 195.771 278.808 196.04 279.167 196.465C279.455 196.806 279.628 197.246 279.628 197.727Z" fill="url(#paint10_linear_320_2536)"/>
<path d="M244.828 195.77H243.849V202.445H244.828V195.77Z" fill="#D6B556"/>
<path d="M248.938 195.77H247.958V202.445H248.938V195.77Z" fill="#D6B556"/>
<path d="M253.048 195.77H252.068V202.445H253.048V195.77Z" fill="#D6B556"/>
<path d="M257.157 195.77H256.178V202.445H257.157V195.77Z" fill="#D6B556"/>
<path d="M261.267 195.77H260.287V202.445H261.267V195.77Z" fill="#D6B556"/>
<path d="M265.377 195.77H264.397V202.445H265.377V195.77Z" fill="#D6B556"/>
<path d="M269.486 195.77H268.507V202.445H269.486V195.77Z" fill="#D6B556"/>
<path d="M273.595 195.77H272.615V202.445H273.595V195.77Z" fill="#D6B556"/>
<path d="M277.705 195.77H276.725V202.445H277.705V195.77Z" fill="#D6B556"/>
<path d="M279.167 196.463H242.44C242.799 196.039 243.336 195.77 243.935 195.77H277.673C278.272 195.77 278.808 196.039 279.167 196.463Z" fill="#D6B556"/>
<path d="M279.167 201.753H242.44C242.799 202.177 243.336 202.446 243.935 202.446H277.673C278.272 202.446 278.808 202.177 279.167 201.753Z" fill="#D6B556"/>
<path d="M278.162 191.03V193.794C278.162 194.875 277.286 195.75 276.206 195.75H242.468C241.388 195.75 240.512 194.874 240.512 193.794V191.03C240.512 190.548 240.686 190.109 240.974 189.768C241.332 189.344 241.869 189.075 242.468 189.075H276.206C276.805 189.075 277.341 189.344 277.7 189.768C277.988 190.109 278.162 190.548 278.162 191.03Z" fill="url(#paint11_linear_320_2536)"/>
<path d="M243.36 189.075H242.38V195.751H243.36V189.075Z" fill="#D6B556"/>
<path d="M247.47 189.075H246.49V195.751H247.47V189.075Z" fill="#D6B556"/>
<path d="M251.58 189.075H250.6V195.751H251.58V189.075Z" fill="#D6B556"/>
<path d="M255.689 189.075H254.709V195.751H255.689V189.075Z" fill="#D6B556"/>
<path d="M259.799 189.075H258.819V195.751H259.799V189.075Z" fill="#D6B556"/>
<path d="M263.909 189.075H262.929V195.751H263.909V189.075Z" fill="#D6B556"/>
<path d="M268.018 189.075H267.039V195.751H268.018V189.075Z" fill="#D6B556"/>
<path d="M272.128 189.075H271.148V195.751H272.128V189.075Z" fill="#D6B556"/>
<path d="M276.238 189.075H275.258V195.751H276.238V189.075Z" fill="#D6B556"/>
<path d="M277.699 189.768H240.972C241.331 189.344 241.867 189.075 242.466 189.075H276.205C276.804 189.075 277.34 189.344 277.699 189.768Z" fill="#D6B556"/>
<path d="M277.699 195.057H240.972C241.331 195.481 241.867 195.75 242.466 195.75H276.205C276.804 195.75 277.34 195.481 277.699 195.057Z" fill="#D6B556"/>
<path d="M280.177 184.391V187.155C280.177 188.234 279.301 189.11 278.221 189.11H244.483C243.402 189.11 242.528 188.234 242.528 187.155V184.391C242.528 183.909 242.701 183.47 242.989 183.129C243.348 182.704 243.884 182.436 244.483 182.436H278.221C278.82 182.436 279.357 182.704 279.715 183.129C280.005 183.47 280.177 183.911 280.177 184.391Z" fill="url(#paint12_linear_320_2536)"/>
<path d="M245.377 182.436H244.397V189.112H245.377V182.436Z" fill="#D6B556"/>
<path d="M249.486 182.436H248.507V189.112H249.486V182.436Z" fill="#D6B556"/>
<path d="M253.596 182.436H252.616V189.112H253.596V182.436Z" fill="#D6B556"/>
<path d="M257.706 182.436H256.726V189.112H257.706V182.436Z" fill="#D6B556"/>
<path d="M261.815 182.436H260.836V189.112H261.815V182.436Z" fill="#D6B556"/>
<path d="M265.925 182.436H264.945V189.112H265.925V182.436Z" fill="#D6B556"/>
<path d="M270.035 182.436H269.055V189.112H270.035V182.436Z" fill="#D6B556"/>
<path d="M274.143 182.436H273.163V189.112H274.143V182.436Z" fill="#D6B556"/>
<path d="M278.253 182.436H277.273V189.112H278.253V182.436Z" fill="#D6B556"/>
<path d="M279.715 183.129H242.989C243.348 182.704 243.884 182.436 244.483 182.436H278.221C278.82 182.436 279.357 182.704 279.715 183.129Z" fill="#D6B556"/>
<path d="M279.715 188.418H242.989C243.348 188.843 243.884 189.112 244.483 189.112H278.221C278.82 189.112 279.357 188.843 279.715 188.418Z" fill="#D6B556"/>
<path d="M247.802 235.003C258.363 231.52 264.101 220.136 260.618 209.575C257.136 199.014 245.752 193.276 235.191 196.758C224.63 200.241 218.891 211.625 222.374 222.186C225.856 232.747 237.241 238.485 247.802 235.003Z" fill="#D6B556"/>
<path d="M257.236 220.961C254.43 229.653 245.108 234.424 236.415 231.616C235.508 231.322 234.643 230.959 233.825 230.531C232.442 229.809 231.192 228.907 230.096 227.865C229.681 227.469 229.288 227.053 228.919 226.62C226.208 223.44 224.75 219.288 224.977 215.01C225.051 213.61 225.307 212.195 225.759 210.797C227.852 204.314 233.569 200.012 239.946 199.409C242.12 199.203 244.371 199.427 246.58 200.141C248.493 200.759 250.216 201.692 251.71 202.865C252.162 203.219 252.592 203.594 253.001 203.991C254.11 205.065 255.056 206.285 255.819 207.608C258.075 211.517 258.733 216.33 257.236 220.963V220.961Z" fill="url(#paint13_linear_320_2536)"/>
<path d="M251.709 202.862L228.917 226.619C226.206 223.438 224.749 219.286 224.976 215.009L239.944 199.406C242.117 199.2 244.368 199.424 246.577 200.138C248.49 200.756 250.214 201.689 251.708 202.862H251.709Z" fill="#FAEE6C"/>
<path d="M255.819 207.606L233.825 230.531C232.442 229.809 231.192 228.907 230.096 227.865L253 203.99C254.109 205.064 255.055 206.283 255.818 207.607L255.819 207.606Z" fill="#FAEE6C"/>
<path d="M242.607 200.157C240.653 199.952 240.296 200.145 239.418 201.878C239.637 199.947 239.444 199.591 237.698 198.689C239.652 198.893 240.009 198.701 240.886 196.968C240.682 198.922 240.874 199.28 242.607 200.157Z" fill="white"/>
<path d="M235.692 231.222C234.044 231.049 233.742 231.212 233.001 232.674C233.186 231.045 233.023 230.745 231.55 229.984C233.198 230.157 233.499 229.994 234.24 228.532C234.067 230.181 234.229 230.482 235.692 231.222Z" fill="white"/>
<path d="M254.548 149.033C242.363 149.033 232.45 139.119 232.45 126.934C232.45 114.75 242.364 104.836 254.548 104.836C266.733 104.836 276.647 114.75 276.647 126.934C276.647 139.119 266.733 149.033 254.548 149.033ZM254.548 105.927C242.964 105.927 233.542 115.352 233.542 126.934C233.542 138.517 242.966 147.941 254.548 147.941C266.131 147.941 275.555 138.517 275.555 126.934C275.555 115.352 266.131 105.927 254.548 105.927Z" fill="white"/>
<path d="M254.549 139.476C252.929 139.476 251.615 138.162 251.615 136.543V95.9956C251.615 94.376 252.929 93.062 254.549 93.062C256.168 93.062 257.482 94.376 257.482 95.9956V136.543C257.482 138.162 256.168 139.476 254.549 139.476Z" fill="white"/>
<path d="M254.548 149.033C242.363 149.033 232.45 139.119 232.45 126.934C232.45 114.75 242.364 104.836 254.548 104.836C266.733 104.836 276.647 114.75 276.647 126.934C276.647 139.119 266.733 149.033 254.548 149.033ZM254.548 105.927C242.964 105.927 233.542 115.352 233.542 126.934C233.542 138.517 242.966 147.941 254.548 147.941C266.131 147.941 275.555 138.517 275.555 126.934C275.555 115.352 266.131 105.927 254.548 105.927Z" fill="white"/>
<path d="M254.549 139.476C252.929 139.476 251.615 138.162 251.615 136.543V95.9956C251.615 94.376 252.929 93.062 254.549 93.062C256.168 93.062 257.482 94.376 257.482 95.9956V136.543C257.482 138.162 256.168 139.476 254.549 139.476Z" fill="white"/>
<path d="M254.749 141.884C254.711 141.884 254.673 141.884 254.634 141.882C253.737 141.846 252.906 141.403 252.376 140.677L240.195 125.068C239.241 123.758 239.53 121.923 240.839 120.969C242.148 120.015 243.984 120.304 244.937 121.614L254.932 134.219L264.297 121.435C265.349 120.203 267.201 120.059 268.433 121.111C269.665 122.163 269.81 124.014 268.758 125.246L256.979 140.856C256.42 141.509 255.605 141.883 254.748 141.883L254.749 141.884Z" fill="white"/>
<path d="M108.1 146.787C95.9144 146.787 86.0017 136.873 86.0017 124.688C86.0017 112.504 95.9158 102.59 108.1 102.59C120.285 102.59 130.199 112.504 130.199 124.688C130.199 136.873 120.285 146.787 108.1 146.787ZM108.1 103.681C96.5161 103.681 87.0933 113.106 87.0933 124.688C87.0933 136.271 96.5175 145.695 108.1 145.695C119.683 145.695 129.107 136.271 129.107 124.688C129.107 113.106 119.683 103.681 108.1 103.681Z" fill="white"/>
<path d="M119.408 135.996C125.653 129.75 125.653 119.624 119.408 113.379C113.162 107.133 103.036 107.133 96.7907 113.379C90.5452 119.624 90.5452 129.75 96.7907 135.996C103.036 142.241 113.162 142.241 119.408 135.996Z" fill="white"/>
<path d="M120.212 131.4C117.864 135.673 113.321 138.57 108.1 138.57C102.88 138.57 98.3349 135.675 95.9867 131.4C97.4712 128.757 99.7976 126.65 102.602 125.44C101.402 124.121 100.672 122.37 100.672 120.448C100.672 116.346 103.997 113.02 108.1 113.02C112.203 113.02 115.527 116.346 115.527 120.448C115.527 122.37 114.797 124.122 113.598 125.44C116.401 126.65 118.728 128.757 120.212 131.4Z" fill="#12252D"/>
<path d="M277.601 162.58L268.329 157.594C268.067 158.08 267.807 158.567 267.545 159.053C267.166 159.758 268.946 161.452 271.521 162.836C274.096 164.221 276.49 164.773 276.869 164.067C276.905 164.002 277.602 162.581 277.602 162.581L277.601 162.58Z" fill="#D6B556"/>
<path d="M277.61 162.685C277.231 163.391 274.836 162.839 272.262 161.454C269.687 160.07 267.908 158.376 268.286 157.671C268.665 156.965 271.06 157.517 273.634 158.902C276.209 160.286 277.99 161.98 277.61 162.685Z" fill="url(#paint14_linear_320_2536)"/>
<path d="M236.399 181.318L227.015 182.842C227.095 183.335 227.175 183.826 227.256 184.318C227.371 185.032 229.578 185.267 232.184 184.844C234.79 184.421 236.808 183.5 236.692 182.786C236.681 182.721 236.4 181.318 236.4 181.318H236.399Z" fill="#D6B556"/>
<path d="M236.464 181.389C236.58 182.103 234.561 183.024 231.956 183.447C229.35 183.87 227.144 183.635 227.028 182.921C226.912 182.208 228.93 181.287 231.536 180.864C234.142 180.441 236.348 180.675 236.464 181.389Z" fill="url(#paint15_linear_320_2536)"/>
<path d="M247.61 164.856L239.081 160.655C238.862 161.103 238.641 161.549 238.421 161.997C238.102 162.645 239.762 164.116 242.131 165.282C244.499 166.449 246.679 166.869 246.998 166.221C247.026 166.161 247.61 164.855 247.61 164.855V164.856Z" fill="#D6B556"/>
<path d="M247.623 164.952C247.304 165.6 245.125 165.18 242.756 164.013C240.387 162.846 238.727 161.376 239.046 160.727C239.365 160.079 241.544 160.5 243.913 161.666C246.282 162.833 247.942 164.304 247.623 164.952Z" fill="url(#paint16_linear_320_2536)"/>
<path d="M234.898 149.011L225.075 150.606C225.158 151.121 225.243 151.636 225.326 152.15C225.448 152.897 227.756 153.144 230.484 152.7C233.211 152.257 235.325 151.293 235.203 150.546C235.193 150.477 234.898 149.009 234.898 149.009V149.011Z" fill="#D6B556"/>
<path d="M234.966 149.084C235.087 149.831 232.974 150.795 230.246 151.239C227.519 151.682 225.209 151.435 225.089 150.689C224.967 149.942 227.081 148.978 229.808 148.534C232.536 148.091 234.846 148.338 234.966 149.084Z" fill="url(#paint17_linear_320_2536)"/>
<path d="M137.366 159.82H77.8C75.1535 159.82 73.0081 161.965 73.0081 164.612V177.211C73.0081 179.858 75.1535 182.003 77.8 182.003H137.366C140.013 182.003 142.158 179.858 142.158 177.211V164.612C142.158 161.965 140.013 159.82 137.366 159.82Z" fill="white"/>
<path d="M94.4885 167.791V174.032C94.4885 175.714 93.1254 177.077 91.4431 177.077H79.6406C79.0212 177.077 78.444 176.892 77.9624 176.573C77.1396 176.028 76.5966 175.094 76.5966 174.032V167.791C76.5966 166.109 77.9596 164.746 79.6406 164.746H91.4431C92.1294 164.746 92.7638 164.973 93.2728 165.358C94.0109 165.912 94.4885 166.796 94.4885 167.791Z" fill="#D6B556"/>
<path d="M118.545 173.451H98.9611C97.5585 173.451 96.4219 172.314 96.4219 170.911C96.4219 169.509 97.5585 168.372 98.9611 168.372H118.545C119.948 168.372 121.084 169.509 121.084 170.911C121.084 172.314 119.948 173.451 118.545 173.451Z" fill="#12252D"/>
<path d="M136.032 173.451H126.217C124.815 173.451 123.678 172.314 123.678 170.911C123.678 169.509 124.815 168.372 126.217 168.372H136.032C137.434 168.372 138.571 169.509 138.571 170.911C138.571 172.314 137.434 173.451 136.032 173.451Z" fill="#12252D"/>
<path d="M93.2728 165.358L77.9624 176.573C77.1396 176.028 76.5966 175.094 76.5966 174.032V167.791C76.5966 166.109 77.9596 164.746 79.6406 164.746H91.4431C92.1294 164.746 92.7638 164.973 93.2728 165.358Z" fill="url(#paint18_linear_320_2536)"/>
<path d="M90.5288 173.568C90.5288 174.699 89.6119 175.616 88.4808 175.616C87.3496 175.616 86.4327 174.699 86.4327 173.568C86.4327 172.437 87.3496 171.52 88.4808 171.52C89.6119 171.52 90.5288 172.437 90.5288 173.568Z" fill="#D6B556"/>
<path d="M92.9603 173.568C92.9603 174.699 92.0434 175.616 90.9123 175.616C89.7812 175.616 88.8643 174.699 88.8643 173.568C88.8643 172.437 89.7812 171.52 90.9123 171.52C92.0434 171.52 92.9603 172.437 92.9603 173.568Z" fill="#12252D"/>
<path d="M31.7773 187.842C34.4503 192.729 32.6546 198.858 27.7672 201.53C22.8798 204.203 16.7507 202.407 14.0791 197.52C11.4062 192.632 13.2018 186.503 18.0892 183.832C22.9767 181.159 29.1057 182.954 31.7773 187.842Z" fill="white"/>
<path d="M26.1067 199.842L25.1844 198.157C24.2074 198.67 23.0422 198.917 22.229 198.819L22.0175 197.481C22.8375 197.554 23.8786 197.396 24.8132 196.885C25.9976 196.237 26.4246 195.116 25.9048 194.163C25.4027 193.245 24.4421 193.033 22.933 193.208C20.8659 193.471 19.395 193.279 18.6009 191.827C17.8437 190.442 18.253 188.853 19.6515 187.763L18.7292 186.077L19.7634 185.511L20.649 187.131C21.6682 186.616 22.4991 186.51 23.1377 186.529L23.3233 187.858C22.8634 187.85 21.9779 187.857 20.9096 188.441C19.6243 189.143 19.5601 190.175 19.9258 190.843C20.4006 191.711 21.2548 191.808 23.0354 191.614C25.138 191.376 26.4806 191.769 27.2924 193.254C28.0128 194.572 27.7713 196.309 26.2063 197.533L27.156 199.269L26.104 199.843L26.1067 199.842Z" fill="white"/>
<path d="M349.245 157.117C346.852 162.146 340.833 164.284 335.804 161.891C330.775 159.498 328.636 153.479 331.03 148.45C333.423 143.419 339.441 141.282 344.471 143.676C349.5 146.069 351.638 152.087 349.245 157.117Z" fill="white"/>
<path d="M336.198 159.557L337.024 157.822C336.036 157.331 335.152 156.532 334.756 155.817L335.716 154.861C336.138 155.568 336.876 156.319 337.838 156.777C339.058 157.357 340.218 157.046 340.683 156.066C341.132 155.122 340.74 154.219 339.714 153.099C338.29 151.577 337.583 150.273 338.294 148.779C338.972 147.353 340.5 146.754 342.203 147.248L343.028 145.514L344.093 146.02L343.3 147.686C344.314 148.21 344.888 148.821 345.247 149.349L344.278 150.278C344.015 149.9 343.491 149.188 342.393 148.664C341.07 148.035 340.196 148.588 339.868 149.275C339.444 150.169 339.867 150.918 341.066 152.247C342.492 153.811 342.96 155.129 342.233 156.657C341.588 158.013 340.038 158.835 338.13 158.286L337.28 160.072L336.198 159.558V159.557Z" fill="white"/>
<path d="M317.275 54.643C319.521 59.7406 317.208 65.6936 312.11 67.9395C307.013 70.1854 301.06 67.8726 298.814 62.7751C296.568 57.6775 298.881 51.7245 303.978 49.4786C309.076 47.2327 315.029 49.5455 317.275 54.643Z" fill="#12252D"/>
<path d="M310.6 66.1153L309.826 64.3565C308.808 64.7836 307.627 64.931 306.826 64.7631L306.73 63.4123C307.541 63.5542 308.592 63.486 309.567 63.0562C310.803 62.5118 311.324 61.4298 310.886 60.4379C310.465 59.48 309.525 59.188 308.008 59.233C305.925 59.319 304.476 59.0011 303.809 57.4866C303.173 56.0416 303.716 54.493 305.204 53.5256L304.43 51.7668L305.509 51.292L306.253 52.9812C307.313 52.5555 308.149 52.52 308.784 52.5937L308.855 53.9336C308.398 53.8858 307.515 53.8176 306.4 54.3074C305.06 54.8982 304.907 55.9202 305.214 56.6174C305.613 57.522 306.456 57.6912 308.246 57.6517C310.361 57.593 311.666 58.0992 312.348 59.6492C312.954 61.0246 312.563 62.7342 310.902 63.8203L311.698 65.6309L310.601 66.1139L310.6 66.1153Z" fill="white"/>
<path d="M4.17188 117.349L10.8304 104.928C10.8304 104.928 18.9529 105.623 22.6819 115.035C24.9933 120.869 32.8375 123.897 32.8375 123.897L26.1435 136.383C26.1435 136.383 15.9034 133.642 13.375 126.928C10.7007 119.828 4.17324 117.349 4.17324 117.349H4.17188Z" fill="#12252D"/>
<path d="M22.4213 124.924C20.2137 126.78 16.6702 126.196 14.5048 123.621C12.3395 121.045 12.3749 117.454 14.5826 115.598C16.7903 113.743 20.3351 114.327 22.4991 116.901C24.6645 119.477 24.629 123.069 22.4213 124.924Z" fill="white"/>
<path d="M268.253 36.7228L258.881 26.1975C258.881 26.1975 262.327 18.8091 272.449 18.5471C278.722 18.3847 284.263 12.0605 284.263 12.0605L293.685 22.6418C293.685 22.6418 287.588 31.3128 280.414 31.3783C272.827 31.4465 268.254 36.7228 268.254 36.7228H268.253Z" fill="#12252D"/>
<path d="M281.644 22.1928C282.626 24.9039 280.859 28.0312 277.696 29.1773C274.534 30.3235 271.173 29.0559 270.19 26.3448C269.208 23.6336 270.975 20.5063 274.138 19.3602C277.301 18.214 280.661 19.4816 281.644 22.1928Z" fill="white"/>
<path d="M329.812 194.525L331.342 183.129C331.342 183.129 337.747 181.333 343.29 187.457C346.727 191.253 353.587 191.318 353.587 191.318L352.049 202.775C352.049 202.775 343.441 203.614 339.586 199.209C335.509 194.549 329.812 194.525 329.812 194.525Z" fill="#12252D"/>
<path d="M345.924 195.087C344.768 197.136 341.893 197.706 339.503 196.358C337.111 195.01 336.11 192.257 337.264 190.206C338.42 188.157 341.294 187.586 343.685 188.934C346.077 190.282 347.078 193.036 345.924 195.085V195.087Z" fill="white"/>
<path d="M182.492 89.5704L180.912 77.8007C180.912 77.8007 174.297 75.9465 168.572 82.2706C165.023 86.1907 157.938 86.2589 157.938 86.2589L159.526 98.0913C159.526 98.0913 168.417 98.9578 172.398 94.4074C176.609 89.5963 182.492 89.5704 182.492 89.5704Z" fill="#12252D"/>
<path d="M165.853 90.1505C167.045 92.2681 170.014 92.8548 172.485 91.4631C174.955 90.0713 175.991 87.2265 174.797 85.1102C173.604 82.994 170.634 82.4059 168.164 83.7976C165.695 85.1893 164.659 88.0342 165.853 90.1505Z" fill="white"/>
<path d="M137.366 186.697H77.8C75.1535 186.697 73.0081 188.842 73.0081 191.489V204.088C73.0081 206.734 75.1535 208.88 77.8 208.88H137.366C140.013 208.88 142.158 206.734 142.158 204.088V191.489C142.158 188.842 140.013 186.697 137.366 186.697Z" fill="white"/>
<path d="M94.4885 194.668V200.909C94.4885 202.591 93.1254 203.954 91.4431 203.954H79.6406C79.0212 203.954 78.444 203.769 77.9624 203.45C77.1396 202.905 76.5966 201.97 76.5966 200.909V194.668C76.5966 192.986 77.9596 191.623 79.6406 191.623H91.4431C92.1294 191.623 92.7638 191.85 93.2728 192.235C94.0109 192.789 94.4885 193.673 94.4885 194.668Z" fill="url(#paint19_linear_320_2536)"/>
<path d="M118.545 200.327H98.9611C97.5585 200.327 96.4219 199.191 96.4219 197.788C96.4219 196.386 97.5585 195.249 98.9611 195.249H118.545C119.948 195.249 121.084 196.386 121.084 197.788C121.084 199.191 119.948 200.327 118.545 200.327Z" fill="#12252D"/>
<path d="M136.032 200.327H126.217C124.815 200.327 123.678 199.191 123.678 197.788C123.678 196.386 124.815 195.249 126.217 195.249H136.032C137.434 195.249 138.571 196.386 138.571 197.788C138.571 199.191 137.434 200.327 136.032 200.327Z" fill="#12252D"/>
<path d="M93.2728 192.235L77.9624 203.45C77.1396 202.905 76.5966 201.97 76.5966 200.909V194.668C76.5966 192.986 77.9596 191.623 79.6406 191.623H91.4431C92.1294 191.623 92.7638 191.85 93.2728 192.235Z" fill="#D6B556"/>
<path d="M88.5289 202.498C89.6595 202.464 90.5492 201.521 90.516 200.39C90.4829 199.26 89.5395 198.37 88.4088 198.403C87.2782 198.436 86.3886 199.38 86.4217 200.511C86.4549 201.641 87.3983 202.531 88.5289 202.498Z" fill="url(#paint20_linear_320_2536)"/>
<path d="M92.9603 200.445C92.9603 201.576 92.0434 202.493 90.9123 202.493C89.7812 202.493 88.8643 201.576 88.8643 200.445C88.8643 199.314 89.7812 198.397 90.9123 198.397C92.0434 198.397 92.9603 199.314 92.9603 200.445Z" fill="#12252D"/>
<path d="M77.8 213.575H137.366C140.01 213.575 142.158 215.722 142.158 218.367V230.966C142.158 233.61 140.01 235.758 137.366 235.758H77.8C75.1557 235.758 73.0081 233.61 73.0081 230.966V218.367C73.0081 215.722 75.1557 213.575 77.8 213.575Z" fill="white"/>
<path d="M94.4885 221.546V227.787C94.4885 229.469 93.1254 230.832 91.4431 230.832H79.6406C79.0212 230.832 78.444 230.647 77.9624 230.327C77.1396 229.783 76.5966 228.848 76.5966 227.787V221.546C76.5966 219.864 77.9596 218.5 79.6406 218.5H91.4431C92.1294 218.5 92.7638 218.728 93.2728 219.113C94.0109 219.667 94.4885 220.551 94.4885 221.546Z" fill="#D6B556"/>
<path d="M118.545 227.204H98.9611C97.5585 227.204 96.4219 226.068 96.4219 224.665C96.4219 223.263 97.5585 222.126 98.9611 222.126H118.545C119.948 222.126 121.084 223.263 121.084 224.665C121.084 226.068 119.948 227.204 118.545 227.204Z" fill="#12252D"/>
<path d="M136.032 227.204H126.217C124.815 227.204 123.678 226.068 123.678 224.665C123.678 223.263 124.815 222.126 126.217 222.126H136.032C137.434 222.126 138.571 223.263 138.571 224.665C138.571 226.068 137.434 227.204 136.032 227.204Z" fill="#12252D"/>
<path d="M93.2728 219.113L77.9624 230.327C77.1396 229.783 76.5966 228.848 76.5966 227.787V221.546C76.5966 219.864 77.9596 218.5 79.6406 218.5H91.4431C92.1294 218.5 92.7638 218.728 93.2728 219.113Z" fill="url(#paint21_linear_320_2536)"/>
<path d="M90.5288 227.323C90.5288 228.454 89.6119 229.371 88.4808 229.371C87.3496 229.371 86.4327 228.454 86.4327 227.323C86.4327 226.192 87.3496 225.275 88.4808 225.275C89.6119 225.275 90.5288 226.192 90.5288 227.323Z" fill="#D6B556"/>
<path d="M92.9603 227.323C92.9603 228.454 92.0434 229.371 90.9123 229.371C89.7812 229.371 88.8643 228.454 88.8643 227.323C88.8643 226.192 89.7812 225.275 90.9123 225.275C92.0434 225.275 92.9603 226.192 92.9603 227.323Z" fill="#12252D"/>
</g>
<defs>
<linearGradient id="paint0_linear_320_2536" x1="94.0872" y1="49.633" x2="123.685" y2="67.7275" gradientUnits="userSpaceOnUse">
<stop stop-color="#B98300"/>
<stop offset="0.546875" stop-color="#FFF5A4"/>
<stop offset="0.9999" stop-color="#FFFADF"/>
<stop offset="1" stop-color="#785500"/>
</linearGradient>
<linearGradient id="paint1_linear_320_2536" x1="116.409" y1="13.5338" x2="146.008" y2="31.6283" gradientUnits="userSpaceOnUse">
<stop stop-color="#B98300"/>
<stop offset="0.546875" stop-color="#FFF5A4"/>
<stop offset="0.9999" stop-color="#FFFADF"/>
<stop offset="1" stop-color="#785500"/>
</linearGradient>
<linearGradient id="paint2_linear_320_2536" x1="211.395" y1="13.5338" x2="240.993" y2="31.6283" gradientUnits="userSpaceOnUse">
<stop stop-color="#B98300"/>
<stop offset="0.546875" stop-color="#FFF5A4"/>
<stop offset="0.9999" stop-color="#FFFADF"/>
<stop offset="1" stop-color="#785500"/>
</linearGradient>
<linearGradient id="paint3_linear_320_2536" x1="236.755" y1="49.633" x2="266.353" y2="67.7275" gradientUnits="userSpaceOnUse">
<stop stop-color="#B98300"/>
<stop offset="0.546875" stop-color="#FFF5A4"/>
<stop offset="0.9999" stop-color="#FFFADF"/>
<stop offset="1" stop-color="#785500"/>
</linearGradient>
<linearGradient id="paint4_linear_320_2536" x1="167.577" y1="-1.79819" x2="197.175" y2="16.296" gradientUnits="userSpaceOnUse">
<stop stop-color="#B98300"/>
<stop offset="0.546875" stop-color="#FFF5A4"/>
<stop offset="0.9999" stop-color="#FFFADF"/>
<stop offset="1" stop-color="#785500"/>
</linearGradient>
<linearGradient id="paint5_linear_320_2536" x1="234.4" y1="227.719" x2="240.209" y2="247.745" gradientUnits="userSpaceOnUse">
<stop stop-color="#B98300"/>
<stop offset="0.546875" stop-color="#FFF5A4"/>
<stop offset="0.9999" stop-color="#FFFADF"/>
<stop offset="1" stop-color="#785500"/>
</linearGradient>
<linearGradient id="paint6_linear_320_2536" x1="236.761" y1="221.043" x2="242.57" y2="241.069" gradientUnits="userSpaceOnUse">
<stop stop-color="#B98300"/>
<stop offset="0.546875" stop-color="#FFF5A4"/>
<stop offset="0.9999" stop-color="#FFFADF"/>
<stop offset="1" stop-color="#785500"/>
</linearGradient>
<linearGradient id="paint7_linear_320_2536" x1="234.931" y1="214.378" x2="240.74" y2="234.405" gradientUnits="userSpaceOnUse">
<stop stop-color="#B98300"/>
<stop offset="0.546875" stop-color="#FFF5A4"/>
<stop offset="0.9999" stop-color="#FFFADF"/>
<stop offset="1" stop-color="#785500"/>
</linearGradient>
<linearGradient id="paint8_linear_320_2536" x1="235.684" y1="207.835" x2="241.493" y2="227.861" gradientUnits="userSpaceOnUse">
<stop stop-color="#B98300"/>
<stop offset="0.546875" stop-color="#FFF5A4"/>
<stop offset="0.9999" stop-color="#FFFADF"/>
<stop offset="1" stop-color="#785500"/>
</linearGradient>
<linearGradient id="paint9_linear_320_2536" x1="231.478" y1="201.059" x2="237.286" y2="221.085" gradientUnits="userSpaceOnUse">
<stop stop-color="#B98300"/>
<stop offset="0.546875" stop-color="#FFF5A4"/>
<stop offset="0.9999" stop-color="#FFFADF"/>
<stop offset="1" stop-color="#785500"/>
</linearGradient>
<linearGradient id="paint10_linear_320_2536" x1="235.616" y1="194.461" x2="241.425" y2="214.488" gradientUnits="userSpaceOnUse">
<stop stop-color="#B98300"/>
<stop offset="0.546875" stop-color="#FFF5A4"/>
<stop offset="0.9999" stop-color="#FFFADF"/>
<stop offset="1" stop-color="#785500"/>
</linearGradient>
<linearGradient id="paint11_linear_320_2536" x1="234.149" y1="187.765" x2="239.958" y2="207.791" gradientUnits="userSpaceOnUse">
<stop stop-color="#B98300"/>
<stop offset="0.546875" stop-color="#FFF5A4"/>
<stop offset="0.9999" stop-color="#FFFADF"/>
<stop offset="1" stop-color="#785500"/>
</linearGradient>
<linearGradient id="paint12_linear_320_2536" x1="236.164" y1="181.126" x2="241.973" y2="201.152" gradientUnits="userSpaceOnUse">
<stop stop-color="#B98300"/>
<stop offset="0.546875" stop-color="#FFF5A4"/>
<stop offset="0.9999" stop-color="#FFFADF"/>
<stop offset="1" stop-color="#785500"/>
</linearGradient>
<linearGradient id="paint13_linear_320_2536" x1="219.362" y1="192.843" x2="267.251" y2="222.116" gradientUnits="userSpaceOnUse">
<stop stop-color="#B98300"/>
<stop offset="0.546875" stop-color="#FFF5A4"/>
<stop offset="0.9999" stop-color="#FFFADF"/>
<stop offset="1" stop-color="#785500"/>
</linearGradient>
<linearGradient id="paint14_linear_320_2536" x1="266.642" y1="156.259" x2="275.793" y2="165.627" gradientUnits="userSpaceOnUse">
<stop stop-color="#B98300"/>
<stop offset="0.546875" stop-color="#FFF5A4"/>
<stop offset="0.9999" stop-color="#FFFADF"/>
<stop offset="1" stop-color="#785500"/>
</linearGradient>
<linearGradient id="paint15_linear_320_2536" x1="225.426" y1="180.064" x2="229.427" y2="187.753" gradientUnits="userSpaceOnUse">
<stop stop-color="#B98300"/>
<stop offset="0.546875" stop-color="#FFF5A4"/>
<stop offset="0.9999" stop-color="#FFFADF"/>
<stop offset="1" stop-color="#785500"/>
</linearGradient>
<linearGradient id="paint16_linear_320_2536" x1="237.544" y1="159.474" x2="245.373" y2="168.043" gradientUnits="userSpaceOnUse">
<stop stop-color="#B98300"/>
<stop offset="0.546875" stop-color="#FFF5A4"/>
<stop offset="0.9999" stop-color="#FFFADF"/>
<stop offset="1" stop-color="#785500"/>
</linearGradient>
<linearGradient id="paint17_linear_320_2536" x1="223.413" y1="147.697" x2="227.602" y2="155.747" gradientUnits="userSpaceOnUse">
<stop stop-color="#B98300"/>
<stop offset="0.546875" stop-color="#FFF5A4"/>
<stop offset="0.9999" stop-color="#FFFADF"/>
<stop offset="1" stop-color="#785500"/>
</linearGradient>
<linearGradient id="paint18_linear_320_2536" x1="73.778" y1="162.424" x2="92.8024" y2="178.82" gradientUnits="userSpaceOnUse">
<stop stop-color="#B98300"/>
<stop offset="0.546875" stop-color="#FFF5A4"/>
<stop offset="0.9999" stop-color="#FFFADF"/>
<stop offset="1" stop-color="#785500"/>
</linearGradient>
<linearGradient id="paint19_linear_320_2536" x1="73.5726" y1="189.202" x2="93.4848" y2="206.861" gradientUnits="userSpaceOnUse">
<stop stop-color="#B98300"/>
<stop offset="0.546875" stop-color="#FFF5A4"/>
<stop offset="0.9999" stop-color="#FFFADF"/>
<stop offset="1" stop-color="#785500"/>
</linearGradient>
<linearGradient id="paint20_linear_320_2536" x1="85.6461" y1="197.68" x2="91.6785" y2="201.129" gradientUnits="userSpaceOnUse">
<stop stop-color="#B98300"/>
<stop offset="0.546875" stop-color="#FFF5A4"/>
<stop offset="0.9999" stop-color="#FFFADF"/>
<stop offset="1" stop-color="#785500"/>
</linearGradient>
<linearGradient id="paint21_linear_320_2536" x1="73.778" y1="216.179" x2="92.8024" y2="232.575" gradientUnits="userSpaceOnUse">
<stop stop-color="#B98300"/>
<stop offset="0.546875" stop-color="#FFF5A4"/>
<stop offset="0.9999" stop-color="#FFFADF"/>
<stop offset="1" stop-color="#785500"/>
</linearGradient>
<clipPath id="clip0_320_2536">
<rect width="366.298" height="250" fill="white" transform="translate(0.85083)"/>
</clipPath>
</defs>
</svg>
