<svg width="376" height="251" viewBox="0 0 376 251" fill="none" xmlns="http://www.w3.org/2000/svg">
<path d="M36.3302 249.995C36.3302 249.995 3.27843 229.654 6.99339 188.795C10.3654 151.748 34.5184 145.261 50.0641 100.733C65.6098 56.1992 49.9384 18.9638 92.3233 6.01285C124.415 -3.79465 157.707 41.9451 226.193 40.2477C294.68 38.5502 327.766 16.4033 352.668 47.2433C374.541 74.3339 340.477 97.8525 343.141 133.596C344.627 153.514 358.675 164.368 362.761 194.985C364.625 208.941 361.807 235.283 348.439 250H57.9227" fill="#F4F7FA"/>
<path d="M17.5667 249.995H362.773" stroke="#12252D" stroke-miterlimit="10"/>
<path d="M59.2625 89.5115C74.532 83.4134 81.9669 66.0916 75.8688 50.8221C69.7707 35.5526 52.4489 28.1177 37.1794 34.2158C21.9099 40.3138 14.475 57.6357 20.5731 72.9052C26.6712 88.1747 43.993 95.6096 59.2625 89.5115Z" fill="#12252D"/>
<path d="M72.962 65.9446C75.2118 52.281 65.9591 39.3808 52.2955 37.131C38.632 34.8813 25.7317 44.134 23.482 57.7976C21.2322 71.4611 30.4849 84.3614 44.1485 86.6111C57.812 88.8608 70.7123 79.6081 72.962 65.9446Z" fill="white"/>
<path d="M62.7397 76.3873C70.7592 68.3678 70.7592 55.3656 62.7397 47.3461C54.7202 39.3266 41.718 39.3266 33.6985 47.3461C25.6791 55.3656 25.6791 68.3678 33.6985 76.3873C41.718 84.4068 54.7202 84.4068 62.7397 76.3873Z" fill="#12252D"/>
<path d="M57.2736 63.3372C58.0894 58.3339 54.6947 53.6167 49.6914 52.801C44.6882 51.9853 39.971 55.3799 39.1552 60.3832C38.3395 65.3864 41.7342 70.1037 46.7374 70.9194C51.7407 71.7351 56.4579 68.3405 57.2736 63.3372Z" fill="white"/>
<path d="M50.0757 66.3642C52.5625 65.3403 53.7484 62.4943 52.7244 60.0075C51.7004 57.5207 48.8544 56.3349 46.3677 57.3589C43.8809 58.3828 42.6951 61.2288 43.719 63.7156C44.743 66.2023 47.589 67.3882 50.0757 66.3642Z" fill="#12252D"/>
<path d="M11.4343 84.5459L7.08496 87.0149L10.8056 88.1694L15.155 85.7061L11.4343 84.5459Z" fill="#12252D"/>
<path d="M14.2349 89.4901L9.8855 91.9534L10.8057 88.1698L15.155 85.7065L14.2349 89.4901Z" fill="#12252D"/>
<path d="M12.3774 87.2783C11.9888 86.5982 16.1895 83.4833 22.7393 79.774C29.2891 76.0648 38.8394 72.2812 38.8394 72.2812C38.8394 72.2812 30.6893 78.5281 24.1395 82.2431C17.5898 85.9523 12.7603 87.9584 12.3774 87.2783Z" fill="#12252D"/>
<path d="M10.8057 88.1695C13.0861 86.7464 15.3951 85.3747 17.7098 84.0145C20.0245 82.6485 22.3621 81.334 24.6882 79.9852C27.0372 78.6821 29.3691 77.3561 31.7295 76.0702C34.0899 74.7842 36.4504 73.5097 38.8451 72.2866C36.5647 73.7097 34.2557 75.0814 31.941 76.4417C29.6262 77.8019 27.2887 79.1279 24.9625 80.4653C22.6135 81.7683 20.2817 83.0943 17.9213 84.3803C15.5608 85.6662 13.2004 86.9407 10.8057 88.1695Z" fill="#12252D"/>
<path d="M27.3285 40.6416L23.5164 37.4067L23.7107 41.2932L27.5228 44.5338L27.3285 40.6416Z" fill="#12252D"/>
<path d="M23.6537 44.9679L19.8416 41.733L23.7108 41.293L27.523 44.5336L23.6537 44.9679Z" fill="#12252D"/>
<path d="M25.0881 42.4649C25.5967 41.8648 29.9632 44.7396 35.7014 49.6148C41.4396 54.49 48.2751 62.1542 48.2751 62.1542C48.2751 62.1542 39.605 56.6504 33.8668 51.7752C28.1286 46.9 24.5851 43.0593 25.0938 42.4592L25.0881 42.4649Z" fill="#12252D"/>
<path d="M23.7107 41.293C25.8311 42.9447 27.9115 44.6422 29.9861 46.3453C32.0608 48.0485 34.1069 49.7917 36.1701 51.512C38.2048 53.2666 40.2509 55.004 42.2684 56.7758C44.2859 58.5475 46.2977 60.325 48.2695 62.1539C46.1491 60.5022 44.0687 58.8047 41.994 57.1016C39.9194 55.3984 37.8733 53.6552 35.8158 51.9349C33.7868 50.1803 31.735 48.4428 29.7175 46.6711C27.7 44.8993 25.6882 43.1219 23.7164 41.293H23.7107Z" fill="#12252D"/>
<path d="M285.261 32.3203H95.0666C89.1703 32.3203 84.3904 37.1002 84.3904 42.9966V152.222C84.3904 158.119 89.1703 162.898 95.0666 162.898H285.261C291.158 162.898 295.938 158.119 295.938 152.222V42.9966C295.938 37.1002 291.158 32.3203 285.261 32.3203Z" fill="#12252D"/>
<path d="M95.6381 160.607C90.6887 160.607 86.6765 156.594 86.6765 151.645V43.1794C86.6765 38.4471 90.5172 34.6064 95.2495 34.6064H285.084C289.816 34.6064 293.657 38.4471 293.657 43.1794V151.651C293.657 156.6 289.645 160.612 284.696 160.612H95.6381V160.607Z" fill="white"/>
<path d="M94.8037 34.6064H285.084C289.816 34.6064 293.657 38.4471 293.657 43.1794V50.0836H86.2307V43.1794C86.2307 38.4471 90.0714 34.6064 94.8037 34.6064Z" fill="#12252D"/>
<path d="M97.8957 44.3222C98.9879 44.3222 99.8732 43.4368 99.8732 42.3447C99.8732 41.2525 98.9879 40.3672 97.8957 40.3672C96.8036 40.3672 95.9182 41.2525 95.9182 42.3447C95.9182 43.4368 96.8036 44.3222 97.8957 44.3222Z" fill="#D6B556"/>
<path d="M109.675 44.3222C110.767 44.3222 111.653 43.4368 111.653 42.3447C111.653 41.2525 110.767 40.3672 109.675 40.3672C108.583 40.3672 107.698 41.2525 107.698 42.3447C107.698 43.4368 108.583 44.3222 109.675 44.3222Z" fill="#D6B556"/>
<path d="M123.432 42.3447C123.432 43.4363 122.546 44.3222 121.454 44.3222C120.363 44.3222 119.477 43.4363 119.477 42.3447C119.477 41.2531 120.363 40.3672 121.454 40.3672C122.546 40.3672 123.432 41.2531 123.432 42.3447Z" fill="#D6B556"/>
<path d="M97.3755 139.872H215.397" stroke="#12252D" stroke-width="3" stroke-linecap="round" stroke-linejoin="round"/>
<path d="M97.3755 146.678H189.564" stroke="#12252D" stroke-width="3" stroke-linecap="round" stroke-linejoin="round"/>
<path d="M97.3755 153.485H154.78" stroke="#12252D" stroke-width="3" stroke-linecap="round" stroke-linejoin="round"/>
<path d="M231.989 139.872H242.899" stroke="#12252D" stroke-width="3" stroke-linecap="round" stroke-linejoin="round"/>
<path d="M231.989 146.679H242.899" stroke="#12252D" stroke-width="3" stroke-linecap="round" stroke-linejoin="round"/>
<path d="M231.989 153.485H242.899" stroke="#12252D" stroke-width="3" stroke-linecap="round" stroke-linejoin="round"/>
<path d="M252.021 139.872H262.932" stroke="#12252D" stroke-width="3" stroke-linecap="round" stroke-linejoin="round"/>
<path d="M252.021 146.679H262.932" stroke="#12252D" stroke-width="3" stroke-linecap="round" stroke-linejoin="round"/>
<path d="M252.021 153.485H262.932" stroke="#12252D" stroke-width="3" stroke-linecap="round" stroke-linejoin="round"/>
<path d="M272.048 139.872H282.958" stroke="#12252D" stroke-width="3" stroke-linecap="round" stroke-linejoin="round"/>
<path d="M272.048 146.679H282.958" stroke="#12252D" stroke-width="3" stroke-linecap="round" stroke-linejoin="round"/>
<path d="M272.048 153.485H282.958" stroke="#12252D" stroke-width="3" stroke-linecap="round" stroke-linejoin="round"/>
<path d="M282.164 53.8955V80.0946" stroke="#12252D" stroke-width="0.79" stroke-miterlimit="10"/>
<path d="M282.164 62.0229V73.9508" stroke="#12252D" stroke-width="6.32" stroke-miterlimit="10"/>
<path d="M276.345 58.3306V84.5296" stroke="#12252D" stroke-width="0.79" stroke-miterlimit="10"/>
<path d="M276.345 70.5215V78.3858" stroke="#12252D" stroke-width="6.32" stroke-miterlimit="10"/>
<path d="M270.521 60.6343V86.8333" stroke="#12252D" stroke-width="0.79" stroke-miterlimit="10"/>
<path d="M270.521 73.9854V86.279" stroke="#12252D" stroke-width="6.32" stroke-miterlimit="10"/>
<path d="M264.703 59.3364V85.5355" stroke="#12252D" stroke-width="0.79" stroke-miterlimit="10"/>
<path d="M264.703 63.1665V79.3923" stroke="#12252D" stroke-width="6.32" stroke-miterlimit="10"/>
<path d="M258.879 68.3037V87.953" stroke="#12252D" stroke-width="0.79" stroke-miterlimit="10"/>
<path d="M258.879 73.374V82.0442" stroke="#12252D" stroke-width="6.32" stroke-miterlimit="10"/>
<path d="M253.061 71.1274V94.5031" stroke="#12252D" stroke-width="0.79" stroke-miterlimit="10"/>
<path d="M253.061 77.2715V91.1769" stroke="#12252D" stroke-width="6.32" stroke-miterlimit="10"/>
<path d="M247.243 66.9951V87.3474" stroke="#12252D" stroke-width="0.79" stroke-miterlimit="10"/>
<path d="M247.243 71.7617V83.3181" stroke="#12252D" stroke-width="6.32" stroke-miterlimit="10"/>
<path d="M241.419 58.8281V83.2154" stroke="#12252D" stroke-width="0.79" stroke-miterlimit="10"/>
<path d="M241.419 63.5659V78.883" stroke="#12252D" stroke-width="6.32" stroke-miterlimit="10"/>
<path d="M235.601 70.3672V89.7136" stroke="#12252D" stroke-width="0.79" stroke-miterlimit="10"/>
<path d="M235.601 75.0029V84.3704" stroke="#12252D" stroke-width="6.32" stroke-miterlimit="10"/>
<path d="M229.783 78.2832V97.7325" stroke="#12252D" stroke-width="0.79" stroke-miterlimit="10"/>
<path d="M229.783 84.4326V91.5825" stroke="#12252D" stroke-width="6.32" stroke-miterlimit="10"/>
<path d="M223.959 73.2422V93.0972" stroke="#12252D" stroke-width="0.79" stroke-miterlimit="10"/>
<path d="M223.959 79.3916V86.8844" stroke="#12252D" stroke-width="6.32" stroke-miterlimit="10"/>
<path d="M218.14 78.2832V102.368" stroke="#12252D" stroke-width="0.79" stroke-miterlimit="10"/>
<path d="M218.14 84.4326V98.338" stroke="#12252D" stroke-width="6.32" stroke-miterlimit="10"/>
<path d="M212.322 78.2832V94.9605" stroke="#12252D" stroke-width="0.79" stroke-miterlimit="10"/>
<path d="M212.322 84.4326V91.2167" stroke="#12252D" stroke-width="6.32" stroke-miterlimit="10"/>
<path d="M206.499 75.6655V93.0973" stroke="#12252D" stroke-width="0.79" stroke-miterlimit="10"/>
<path d="M206.499 81.8096V86.8848" stroke="#12252D" stroke-width="6.32" stroke-miterlimit="10"/>
<path d="M200.68 78.2832V111.638" stroke="#12252D" stroke-width="0.79" stroke-miterlimit="10"/>
<path d="M200.68 84.4326V108.008" stroke="#12252D" stroke-width="6.32" stroke-miterlimit="10"/>
<path d="M194.862 87.6562V113.855" stroke="#12252D" stroke-width="0.79" stroke-miterlimit="10"/>
<path d="M194.862 93.7998V107.705" stroke="#12252D" stroke-width="6.32" stroke-miterlimit="10"/>
<path d="M189.038 88.7646V118.593" stroke="#12252D" stroke-width="0.79" stroke-miterlimit="10"/>
<path d="M189.038 94.4062V112.444" stroke="#12252D" stroke-width="6.32" stroke-miterlimit="10"/>
<path d="M183.22 105.894V130.081" stroke="#12252D" stroke-width="0.79" stroke-miterlimit="10"/>
<path d="M183.22 110.026V123.931" stroke="#12252D" stroke-width="6.32" stroke-miterlimit="10"/>
<path d="M177.402 82.5923V108.791" stroke="#12252D" stroke-width="0.79" stroke-miterlimit="10"/>
<path d="M177.402 88.7363V105.871" stroke="#12252D" stroke-width="6.32" stroke-miterlimit="10"/>
<path d="M171.578 84.73V110.935" stroke="#12252D" stroke-width="0.79" stroke-miterlimit="10"/>
<path d="M171.578 94.606V104.785" stroke="#12252D" stroke-width="6.32" stroke-miterlimit="10"/>
<path d="M165.76 94.606V120.811" stroke="#12252D" stroke-width="0.79" stroke-miterlimit="10"/>
<path d="M165.76 105.791V114.661" stroke="#12252D" stroke-width="6.32" stroke-miterlimit="10"/>
<path d="M159.936 100.756V126.955" stroke="#12252D" stroke-width="0.79" stroke-miterlimit="10"/>
<path d="M159.936 113.855V120.811" stroke="#12252D" stroke-width="6.32" stroke-miterlimit="10"/>
<path d="M154.117 97.127V123.326" stroke="#12252D" stroke-width="0.79" stroke-miterlimit="10"/>
<path d="M154.117 108.717V117.182" stroke="#12252D" stroke-width="6.32" stroke-miterlimit="10"/>
<path d="M148.299 94.606V120.811" stroke="#12252D" stroke-width="0.79" stroke-miterlimit="10"/>
<path d="M148.299 104.082V114.661" stroke="#12252D" stroke-width="6.32" stroke-miterlimit="10"/>
<path d="M142.475 101.064V127.264" stroke="#12252D" stroke-width="0.79" stroke-miterlimit="10"/>
<path d="M142.475 104.791V121.119" stroke="#12252D" stroke-width="6.32" stroke-miterlimit="10"/>
<path d="M136.657 90.1655V116.365" stroke="#12252D" stroke-width="0.79" stroke-miterlimit="10"/>
<path d="M136.657 96.3149V112.135" stroke="#12252D" stroke-width="6.32" stroke-miterlimit="10"/>
<path d="M130.839 79.3857V105.591" stroke="#12252D" stroke-width="0.79" stroke-miterlimit="10"/>
<path d="M130.839 85.5356V101.556" stroke="#12252D" stroke-width="6.32" stroke-miterlimit="10"/>
<path d="M125.015 83.8208V110.02" stroke="#12252D" stroke-width="0.79" stroke-miterlimit="10"/>
<path d="M125.015 88.2563V103.876" stroke="#12252D" stroke-width="6.32" stroke-miterlimit="10"/>
<path d="M119.197 78.3862V104.585" stroke="#12252D" stroke-width="0.79" stroke-miterlimit="10"/>
<path d="M119.197 84.5298V88.862" stroke="#12252D" stroke-width="6.32" stroke-miterlimit="10"/>
<path d="M113.378 72.4365V98.6413" stroke="#12252D" stroke-width="0.79" stroke-miterlimit="10"/>
<path d="M113.378 78.5859V85.5358" stroke="#12252D" stroke-width="6.32" stroke-miterlimit="10"/>
<path d="M107.555 85.0845V116.176" stroke="#12252D" stroke-width="0.79" stroke-miterlimit="10"/>
<path d="M107.555 88.3076V110.026" stroke="#12252D" stroke-width="6.32" stroke-miterlimit="10"/>
<path d="M101.736 102.871V129.07" stroke="#12252D" stroke-width="0.79" stroke-miterlimit="10"/>
<path d="M101.736 96.2236V108.014" stroke="#12252D" stroke-width="6.32" stroke-miterlimit="10"/>
<path d="M95.9182 101.059V127.263" stroke="#12252D" stroke-width="0.79" stroke-miterlimit="10"/>
<path d="M95.9182 105.796V121.113" stroke="#12252D" stroke-width="6.32" stroke-miterlimit="10"/>
<path d="M344.838 115.644L337.105 127.532H322.92C323.366 119.828 329.755 113.712 337.574 113.712C340.215 113.712 342.695 114.415 344.838 115.644Z" fill="#D6B556"/>
<path d="M352.245 128.384C352.245 131.167 351.474 133.762 350.125 135.979L338.746 128.155L346.273 116.576C349.896 119.245 352.245 123.543 352.245 128.384Z" fill="#12252D"/>
<path d="M349.148 137.397C346.461 140.843 342.278 143.061 337.574 143.061C329.761 143.061 323.371 136.951 322.92 129.247H337.305L349.148 137.397Z" fill="#12252D"/>
<path d="M346.701 235.643C346.701 235.643 357.303 232.66 356.6 225.95C355.897 219.24 347.821 217.891 352.508 211.947C357.189 206.003 358.481 202.928 355.211 199.791C351.942 196.653 357.92 194.504 357.669 188.697C357.418 182.89 351.616 181.713 347.981 184.291C344.347 186.868 346.918 191.383 345.467 194.933C344.015 198.482 338.768 199.659 337.871 204.071C336.979 208.478 341.723 212.147 341.78 215.359C341.838 218.571 335.734 222.132 335.739 226.859C335.739 231.585 344.701 235.586 346.707 235.649L346.701 235.643Z" fill="#D6B556"/>
<path d="M347.673 237.604C347.033 233.615 346.696 229.522 346.541 225.453C346.398 221.372 346.49 217.286 346.81 213.217C347.124 209.142 347.799 205.107 348.713 201.117C349.662 197.139 351.056 193.276 352.777 189.555C350.959 193.23 349.456 197.065 348.393 201.037C347.37 205.015 346.581 209.062 346.153 213.154C345.718 217.246 345.518 221.361 345.553 225.476C345.598 229.597 345.821 233.7 346.37 237.821L347.667 237.61L347.673 237.604Z" fill="url(#paint0_linear_320_1752)"/>
<path d="M344.855 245.211C344.855 245.211 337.882 240.421 339.786 235.34C341.683 230.265 343.358 231.368 343.232 224.344C343.106 217.32 345.644 213.251 353.291 212.491C360.938 211.73 364.059 208.964 367.934 207.747C371.814 206.529 374.501 207.21 375.524 209.73C376.547 212.251 375.535 216.16 370.568 216.863C365.602 217.566 362.973 219.052 362.487 224.201C362.001 229.357 359.601 230.648 355.057 231.517C350.513 232.386 355.949 243.799 344.855 245.211Z" fill="url(#paint1_linear_320_1752)"/>
<path d="M344.661 244.193C345.038 237.186 347.25 230.282 351.171 224.493C355.08 218.714 360.732 214.136 367.219 211.702C360.801 214.319 355.343 219.029 351.662 224.813C347.976 230.608 346.015 237.426 345.838 244.233L344.661 244.188V244.193Z" fill="#D6B556"/>
<path d="M341.918 237.809C341.918 237.809 333.79 236.701 332.436 231.957C331.081 227.213 334.322 225.47 329.738 223.738C325.149 222.001 321.788 222.612 320.874 218.051C319.959 213.491 318.519 210.324 314.918 208.41C311.318 206.495 314.341 201.323 318.199 202.923C322.057 204.529 323.309 207.581 328.772 207.112C334.933 206.586 338.5 208.135 337.9 212.948C337.431 216.691 338.351 217.2 342.375 218.863C349.239 221.698 347.919 228.768 345.718 233.471C343.518 238.175 341.918 237.809 341.918 237.809Z" fill="url(#paint2_linear_320_1752)"/>
<path d="M340.346 236.495C340.591 233.277 339.911 230.008 338.665 226.985C337.419 223.956 335.631 221.144 333.539 218.595C331.441 216.04 329.035 213.742 326.429 211.696C323.817 209.656 321.005 207.867 318.039 206.364C321.039 207.793 323.914 209.507 326.589 211.49C329.264 213.474 331.756 215.725 333.945 218.257C336.134 220.784 338.031 223.595 339.397 226.682C340.757 229.757 341.575 233.146 341.403 236.581L340.346 236.506V236.495Z" fill="url(#paint3_linear_320_1752)"/>
<path d="M353.234 235.095H335.585C335.585 235.095 334.139 242.759 338.191 249.995H350.633C354.686 242.759 353.24 235.095 353.24 235.095H353.234Z" fill="#12252D"/>
<path d="M354.428 238.232C354.354 236.284 354.183 235.095 354.183 235.095H334.642C334.642 235.095 334.465 236.284 334.396 238.232H354.434H354.428Z" fill="#12252D"/>
<path d="M33.7927 238.798C33.8213 235.992 39.2394 228.099 38.4107 224.95C36.7475 218.64 30.7521 220.515 31.3408 213.451C31.678 209.387 29.1061 205.621 21.3733 206.164C13.5547 206.712 11.8515 203.7 7.85651 202.757C3.8615 201.814 1.20958 202.694 0.358001 205.3C-0.493584 207.907 0.809512 211.776 5.86186 212.125C10.9085 212.473 12.7603 213.371 13.629 218.526C14.4977 223.681 18.8414 220.652 22.6306 223.384C25.6998 225.601 20.9275 227.687 23.9852 231.671C25.8484 234.094 32.301 234.637 33.7984 238.804L33.7927 238.798Z" fill="url(#paint4_linear_320_1752)"/>
<path d="M32.7526 237.883C32.0782 231.036 29.6092 224.315 25.4713 218.749C21.3448 213.193 15.5037 208.844 8.85107 206.678C15.5609 208.661 21.5734 212.867 25.9228 218.4C30.2778 223.938 32.9983 230.728 33.8785 237.752L32.7469 237.878L32.7526 237.883Z" fill="#D6B556"/>
<path d="M40.6968 237.632C40.6968 237.632 29.3061 235.975 29.129 228.922C28.9518 221.869 35.3301 219.572 29.6776 214.045C24.0195 208.518 24.0709 205.312 27.0371 201.62C30.0034 197.922 23.5165 196.504 22.9907 190.452C22.4706 184.399 28.3174 182.393 32.4324 184.577C36.5475 186.76 34.4957 191.784 36.4789 195.264C38.4621 198.745 44.0631 199.259 45.5834 203.706C47.1037 208.152 45.3605 211.919 45.732 215.256C46.1035 218.594 50.2414 222.132 50.8758 227.036C51.5102 231.94 42.7657 237.295 40.6968 237.626V237.632Z" fill="#D6B556"/>
<path d="M40.0737 239.804C40.188 235.575 39.9766 231.288 39.5708 227.042C39.1593 222.795 38.502 218.566 37.6104 214.394C36.7188 210.216 35.4672 206.118 33.9755 202.117C32.4438 198.122 30.4663 194.316 28.1687 190.692C30.5406 194.259 32.6095 198.037 34.2384 202.009C35.8272 205.992 37.1761 210.085 38.1648 214.262C39.1536 218.44 39.908 222.681 40.4224 226.95C40.9196 231.226 41.2339 235.506 41.2111 239.839L40.0737 239.799V239.804Z" fill="url(#paint5_linear_320_1752)"/>
<path d="M55.1281 231.825C56.2654 226.653 52.179 228.036 56.9856 225.876C61.7922 223.71 63.1695 223.584 63.8497 218.629C64.5298 213.674 65.8615 210.193 69.5993 207.895C73.3371 205.598 69.7479 200.254 65.7186 202.231C61.6836 204.209 60.5519 207.558 54.6651 207.421C48.0239 207.267 44.3032 209.158 45.2634 214.279C46.0121 218.263 44.6862 221.669 40.4797 223.721C33.3127 227.213 40.7997 233.712 43.0001 240.827C46.7951 231.054 54.0022 237.004 55.1395 231.825H55.1281Z" fill="url(#paint6_linear_320_1752)"/>
<path d="M43.063 239.838C42.6515 236.169 43.303 232.483 44.5547 229.093C45.8121 225.693 47.6638 222.561 49.8414 219.703C52.0246 216.845 54.5394 214.268 57.277 211.965C60.0147 209.661 62.9809 207.632 66.1072 205.906C63.0266 207.718 60.129 209.821 57.4656 212.182C54.8023 214.548 52.379 217.171 50.2986 220.046C48.2239 222.921 46.4922 226.047 45.3606 229.385C44.2289 232.705 43.7145 236.255 44.1889 239.69L43.063 239.844V239.838Z" fill="#D6B556"/>
<path d="M30.6435 235.095H48.2924C48.2924 235.095 49.7384 242.759 45.6862 249.995H33.2439C29.1918 242.759 30.6378 235.095 30.6378 235.095H30.6435Z" fill="#12252D"/>
<path d="M29.4546 238.232C29.5289 236.284 29.7003 235.095 29.7003 235.095H49.2411C49.2411 235.095 49.4182 236.284 49.4868 238.232H29.4546Z" fill="#12252D"/>
<path d="M311.055 93.7598H277.878C276.804 93.7598 275.934 94.6298 275.934 95.703V118.444C275.934 119.517 276.804 120.387 277.878 120.387H311.055C312.128 120.387 312.998 119.517 312.998 118.444V95.703C312.998 94.6298 312.128 93.7598 311.055 93.7598Z" fill="white" stroke="#12252D" stroke-width="2.73" stroke-miterlimit="10"/>
<path d="M278.632 117.044C281.272 117.044 281.272 113.438 283.907 113.438C286.542 113.438 286.547 107.077 289.182 107.077C291.817 107.077 291.091 111.226 293.731 111.226C296.372 111.226 297.104 100.361 299.738 100.361C302.373 100.361 302.379 105.128 305.019 105.128C307.66 105.128 307.66 100.361 310.3 100.361" stroke="#12252D" stroke-width="2" stroke-linecap="round" stroke-linejoin="round"/>
<path d="M328.938 69.8242H326.698C326.298 69.8242 325.932 69.5728 325.812 69.1898C325.669 68.744 325.492 68.3154 325.28 67.9096C325.097 67.5495 325.172 67.1152 325.457 66.8294L327.046 65.2405C327.412 64.8748 327.412 64.2747 327.046 63.9089L325.452 62.3143C325.086 61.9485 324.486 61.9485 324.12 62.3143L322.531 63.9032C322.245 64.1889 321.811 64.2632 321.451 64.0803C321.039 63.8689 320.611 63.6917 320.171 63.5488C319.788 63.4231 319.536 63.063 319.536 62.6629V60.4225C319.536 59.9024 319.113 59.4795 318.593 59.4795H316.336C315.816 59.4795 315.393 59.9024 315.393 60.4225V62.6629C315.393 63.063 315.141 63.4288 314.758 63.5488C314.313 63.6917 313.884 63.8689 313.478 64.0803C313.118 64.2632 312.684 64.1889 312.398 63.9032L310.815 62.32C310.449 61.9542 309.849 61.9542 309.483 62.32L307.889 63.9146C307.523 64.2804 307.523 64.8805 307.889 65.2463L309.477 66.8294C309.763 67.1152 309.837 67.5495 309.655 67.9096C309.443 68.3211 309.266 68.7498 309.123 69.1898C308.997 69.5728 308.637 69.8242 308.237 69.8242H305.997C305.477 69.8242 305.054 70.2472 305.054 70.7673V73.0248C305.054 73.5449 305.477 73.9679 305.997 73.9679H308.237C308.637 73.9679 309.003 74.2193 309.123 74.6023C309.266 75.0481 309.443 75.4767 309.655 75.8825C309.837 76.2426 309.763 76.6769 309.477 76.9627L307.889 78.5516C307.523 78.9173 307.523 79.5174 307.889 79.8832L309.483 81.4778C309.849 81.8436 310.449 81.8436 310.815 81.4778L312.398 79.8889C312.684 79.6032 313.118 79.5289 313.478 79.7118C313.89 79.9232 314.318 80.1004 314.758 80.2433C315.141 80.369 315.393 80.7291 315.393 81.1292V83.3696C315.393 83.8897 315.816 84.3126 316.336 84.3126H318.593C319.113 84.3126 319.536 83.8897 319.536 83.3696V81.1292C319.536 80.7291 319.788 80.3633 320.171 80.2433C320.617 80.1004 321.045 79.9232 321.451 79.7118C321.811 79.5289 322.245 79.6032 322.531 79.8889L324.12 81.4778C324.486 81.8436 325.086 81.8436 325.452 81.4778L327.046 79.8832C327.412 79.5174 327.412 78.9173 327.046 78.5516L325.457 76.9627C325.172 76.6769 325.097 76.2426 325.28 75.8825C325.492 75.471 325.669 75.0423 325.812 74.6023C325.938 74.2193 326.298 73.9679 326.698 73.9679H328.938C329.458 73.9679 329.881 73.5449 329.881 73.0248V70.7673C329.881 70.2472 329.458 69.8242 328.938 69.8242ZM317.462 76.5798C314.873 76.5798 312.775 74.4822 312.775 71.8932C312.775 69.3041 314.873 67.2066 317.462 67.2066C320.051 67.2066 322.148 69.3041 322.148 71.8932C322.148 74.4822 320.051 76.5798 317.462 76.5798Z" fill="#12252D"/>
<path d="M344.924 80.0204H343.512C343.261 80.0204 343.032 79.8603 342.952 79.6203C342.861 79.3402 342.752 79.0716 342.621 78.8144C342.506 78.5915 342.552 78.3172 342.729 78.1343L343.729 77.1341C343.964 76.8998 343.964 76.5283 343.729 76.294L342.724 75.2881C342.489 75.0537 342.118 75.0537 341.883 75.2881L340.883 76.2882C340.706 76.4654 340.432 76.5169 340.203 76.4026C339.946 76.2711 339.677 76.1568 339.397 76.0711C339.157 75.9911 338.997 75.7624 338.997 75.511V74.0993C338.997 73.7735 338.734 73.5049 338.403 73.5049H336.98C336.654 73.5049 336.385 73.7678 336.385 74.0993V75.511C336.385 75.7624 336.225 75.9911 335.985 76.0711C335.705 76.1625 335.436 76.2711 335.179 76.4026C334.956 76.5169 334.682 76.4711 334.499 76.2882L333.499 75.2881C333.27 75.0537 332.893 75.0537 332.659 75.2881L331.653 76.294C331.424 76.5283 331.424 76.8998 331.653 77.1341L332.653 78.1343C332.83 78.3115 332.882 78.5858 332.762 78.8144C332.63 79.0716 332.516 79.3402 332.43 79.6203C332.35 79.8603 332.122 80.0204 331.87 80.0204H330.458C330.133 80.0204 329.864 80.2833 329.864 80.6148V82.0379C329.864 82.3636 330.127 82.6323 330.458 82.6323H331.87C332.122 82.6323 332.35 82.7923 332.43 83.0323C332.522 83.3124 332.63 83.581 332.762 83.8382C332.876 84.0611 332.83 84.3354 332.653 84.5183L331.653 85.5185C331.419 85.7528 331.419 86.1243 331.653 86.3587L332.659 87.3646C332.887 87.5989 333.265 87.5989 333.499 87.3646L334.499 86.3644C334.676 86.1872 334.951 86.1358 335.179 86.2501C335.436 86.3815 335.705 86.4958 335.985 86.5816C336.225 86.6616 336.385 86.8902 336.385 87.1417V88.5533C336.385 88.8791 336.648 89.1477 336.98 89.1477H338.403C338.728 89.1477 338.997 88.8848 338.997 88.5533V87.1417C338.997 86.8902 339.157 86.6616 339.397 86.5816C339.677 86.4901 339.946 86.3815 340.203 86.2501C340.426 86.1358 340.7 86.1815 340.883 86.3587L341.883 87.3588C342.112 87.5932 342.489 87.5875 342.724 87.3588L343.729 86.3529C343.958 86.1243 343.958 85.7471 343.729 85.5128L342.729 84.5126C342.552 84.3354 342.501 84.0611 342.621 83.8325C342.752 83.5753 342.866 83.3067 342.952 83.0266C343.032 82.7866 343.255 82.6266 343.512 82.6266H344.924C345.25 82.6266 345.518 82.3636 345.518 82.0322V80.609C345.518 80.2833 345.255 80.0146 344.924 80.0146V80.0204ZM337.7 84.2726C336.071 84.2726 334.751 82.9523 334.751 81.3235C334.751 79.6946 336.071 78.3743 337.7 78.3743C339.329 78.3743 340.649 79.6946 340.649 81.3235C340.649 82.9523 339.329 84.2726 337.7 84.2726Z" fill="#12252D"/>
<path d="M331.236 54.9015H330.361C330.207 54.9015 330.064 54.8044 330.018 54.6558C329.961 54.4843 329.892 54.3186 329.812 54.1585C329.744 54.0214 329.772 53.8499 329.881 53.7413L330.498 53.1241C330.641 52.9812 330.641 52.7468 330.498 52.604L329.875 51.981C329.732 51.8381 329.498 51.8381 329.355 51.981L328.738 52.5982C328.629 52.7068 328.458 52.7354 328.321 52.6668C328.161 52.5868 327.995 52.5182 327.823 52.4611C327.675 52.4154 327.578 52.2725 327.578 52.1182V51.2437C327.578 51.0437 327.412 50.8779 327.212 50.8779H326.332C326.132 50.8779 325.966 51.0437 325.966 51.2437V52.1182C325.966 52.2725 325.869 52.4154 325.72 52.4611C325.549 52.5182 325.383 52.5868 325.223 52.6668C325.086 52.7354 324.914 52.7068 324.806 52.5982L324.189 51.981C324.046 51.8381 323.811 51.8381 323.668 51.981L323.045 52.604C322.903 52.7468 322.903 52.9812 323.045 53.1241L323.663 53.7413C323.771 53.8499 323.806 54.0214 323.731 54.1585C323.651 54.3186 323.583 54.4843 323.526 54.6558C323.48 54.8044 323.337 54.9015 323.183 54.9015H322.308C322.108 54.9015 321.942 55.0673 321.942 55.2673V56.1475C321.942 56.3475 322.108 56.5132 322.308 56.5132H323.183C323.337 56.5132 323.48 56.6104 323.526 56.759C323.583 56.9305 323.651 57.0962 323.731 57.2562C323.8 57.3934 323.771 57.5649 323.663 57.6735L323.045 58.2907C322.903 58.4336 322.903 58.6679 323.045 58.8108L323.668 59.4338C323.811 59.5767 324.046 59.5767 324.189 59.4338L324.806 58.8165C324.914 58.7079 325.086 58.6736 325.223 58.7479C325.383 58.828 325.549 58.8965 325.72 58.9537C325.869 58.9994 325.966 59.1423 325.966 59.2966V60.1711C325.966 60.3711 326.132 60.5368 326.332 60.5368H327.212C327.412 60.5368 327.578 60.3711 327.578 60.1711V59.2966C327.578 59.1423 327.675 58.9994 327.823 58.9537C327.995 58.8965 328.161 58.828 328.321 58.7479C328.458 58.6794 328.629 58.7079 328.738 58.8165L329.355 59.4338C329.498 59.5767 329.732 59.5767 329.875 59.4338L330.498 58.8108C330.641 58.6679 330.641 58.4336 330.498 58.2907L329.881 57.6735C329.772 57.5649 329.738 57.3934 329.812 57.2562C329.892 57.0962 329.961 56.9305 330.018 56.759C330.064 56.6104 330.207 56.5132 330.361 56.5132H331.236C331.436 56.5132 331.601 56.3475 331.601 56.1475V55.2673C331.601 55.0673 331.436 54.9015 331.236 54.9015ZM326.772 57.5306C325.766 57.5306 324.949 56.7133 324.949 55.7074C324.949 54.7015 325.766 53.8842 326.772 53.8842C327.778 53.8842 328.595 54.7015 328.595 55.7074C328.595 56.7133 327.778 57.5306 326.772 57.5306Z" fill="#12252D"/>
<path d="M201.698 207.559C201.446 205.592 200.446 203.781 199.149 202.283C197.851 200.786 196.262 199.574 194.651 198.42C192.599 196.945 190.381 195.505 187.866 195.219C186.672 195.082 185.415 195.231 184.374 195.836C183.334 196.442 182.557 197.551 182.534 198.751C182.511 200.22 183.563 201.489 184.712 202.403C185.86 203.318 187.186 204.061 188.084 205.221C189.25 206.724 189.547 208.719 190.496 210.365C191.404 211.936 192.913 213.148 194.645 213.697C196.194 214.183 198.88 214.383 200.063 213.04C201.355 211.576 201.932 209.479 201.686 207.564L201.698 207.559Z" fill="url(#paint7_linear_320_1752)"/>
<path d="M202.109 207.695C201.56 206.301 201.309 204.752 201.646 203.294C202.041 201.608 203.172 200.197 203.761 198.568C204.361 196.916 204.395 195.047 205.333 193.561C206.419 191.847 208.722 191.001 210.648 191.635C212.574 192.275 213.923 194.361 213.671 196.373C213.494 197.773 212.66 199.002 212.282 200.362C211.745 202.311 212.174 204.438 211.574 206.369C211.077 207.987 209.842 209.358 208.293 210.027C207.562 210.341 206.779 210.53 206.03 210.81C205.538 210.999 204.967 211.336 204.418 211.187C203.287 210.879 202.486 208.667 202.098 207.695H202.109Z" fill="#D6B556"/>
<path d="M205.864 220.109C206.624 218.714 208.139 217.765 209.722 217.685C210.853 217.628 211.957 217.983 213.082 218.074C214.334 218.183 215.614 217.971 216.837 218.245C218.061 218.52 219.278 219.526 219.181 220.777C219.112 221.686 218.346 222.429 217.489 222.743C216.632 223.058 215.689 223.029 214.78 222.972C213.865 222.921 212.934 222.846 212.054 223.081C210.996 223.366 210.11 224.064 209.139 224.561C208.11 225.087 206.453 225.544 205.755 224.367C205.024 223.138 205.207 221.303 205.864 220.103V220.109Z" fill="url(#paint8_linear_320_1752)"/>
<path d="M202.595 235.838C202.595 235.838 203.801 220.807 211.659 219.978" stroke="url(#paint9_linear_320_1752)" stroke-width="0.72" stroke-miterlimit="10"/>
<path d="M202.698 239.284C202.698 239.284 201.458 215.834 207.665 199.008" stroke="url(#paint10_linear_320_1752)" stroke-width="0.72" stroke-miterlimit="10"/>
<path d="M202.858 225.35C202.858 225.35 203.109 209.222 189.456 200.254" stroke="url(#paint11_linear_320_1752)" stroke-width="0.72" stroke-miterlimit="10"/>
<path d="M211.305 235.266H193.862C193.862 235.266 192.433 242.845 196.434 249.995H208.728C212.728 242.845 211.3 235.266 211.3 235.266H211.305Z" fill="#12252D"/>
<path d="M212.488 238.37C212.42 236.443 212.242 235.266 212.242 235.266H192.93C192.93 235.266 192.759 236.438 192.685 238.37H212.488Z" fill="#12252D"/>
<path d="M246.98 10.4023H236.258V26.9139H246.98V10.4023Z" fill="#12252D"/>
<path d="M241.619 0L231.84 12.1622H251.392L241.619 0Z" fill="#12252D"/>
<path d="M161.862 55.8271H151.14V72.3387H161.862V55.8271Z" fill="#12252D"/>
<path d="M156.501 82.7408L166.274 70.5786H146.722L156.501 82.7408Z" fill="#12252D"/>
<path d="M321.817 25.9845C322.726 20.3856 318.924 15.11 313.325 14.2011C307.726 13.2923 302.45 17.0944 301.541 22.6933C300.633 28.2922 304.435 33.5678 310.034 34.4766C315.632 35.3855 320.908 31.5834 321.817 25.9845Z" stroke="#12252D" stroke-width="8.58" stroke-miterlimit="10"/>
<path d="M306.528 33.229C303.459 31.4515 301.396 28.1366 301.396 24.3359" stroke="#12252D" stroke-width="8.58" stroke-miterlimit="10"/>
<path d="M301.396 24.3359C301.396 18.6663 305.997 14.0654 311.666 14.0654" stroke="#D6B556" stroke-width="8.58" stroke-miterlimit="10"/>
<path d="M89.2829 16.3691H82.6246C81.8986 16.3691 81.3101 16.9577 81.3101 17.6837V24.342C81.3101 25.068 81.8986 25.6566 82.6246 25.6566H89.2829C90.0089 25.6566 90.5975 25.068 90.5975 24.342V17.6837C90.5975 16.9577 90.0089 16.3691 89.2829 16.3691Z" fill="#12252D"/>
<path d="M83.7334 21.4954L84.7907 22.6728L88.1685 19.3579" stroke="white" stroke-width="2.22" stroke-linecap="round" stroke-linejoin="round"/>
<path d="M334.899 156.051H328.241C327.515 156.051 326.926 156.64 326.926 157.366V164.024C326.926 164.75 327.515 165.339 328.241 165.339H334.899C335.625 165.339 336.214 164.75 336.214 164.024V157.366C336.214 156.64 335.625 156.051 334.899 156.051Z" fill="#12252D"/>
<path d="M329.355 161.172L330.413 162.35L333.79 159.035" stroke="white" stroke-width="2.22" stroke-linecap="round" stroke-linejoin="round"/>
<path d="M47.8752 101.401H37.9419C36.8624 101.401 35.9873 102.276 35.9873 103.356V113.289C35.9873 114.368 36.8624 115.243 37.9419 115.243H47.8752C48.9547 115.243 49.8298 114.368 49.8298 113.289V103.356C49.8298 102.276 48.9547 101.401 47.8752 101.401Z" fill="#12252D"/>
<path d="M39.605 109.042L41.1767 110.791L46.2176 105.853" stroke="white" stroke-width="3.31" stroke-linecap="round" stroke-linejoin="round"/>
<path d="M140.646 24.7588H136.96V28.6795H140.646V24.7588Z" fill="#12252D"/>
<path d="M145.933 22.3926H142.247V28.6794H145.933V22.3926Z" fill="#12252D"/>
<path d="M151.214 19.3862H147.528V28.6794H151.214V19.3862Z" fill="#12252D"/>
<path d="M156.495 15.5688H152.809V28.6798H156.495V15.5688Z" fill="#12252D"/>
<path d="M99.6732 244.713H93.9522L93.3921 235.443L98.976 235.094L99.6732 244.713Z" fill="#F4F7FA"/>
<path d="M69.2107 244.507L63.6211 244.342L64.6213 236.214L69.7936 237.003L69.2107 244.507Z" fill="#F4F7FA"/>
<path d="M74.2287 148.187L63.0266 241.049H69.885L86.1566 173.471L93.0892 241.049H99.8733L98.2045 148.187H74.2287Z" fill="#12252D"/>
<path d="M115.048 114.009C115.048 114.009 116.179 111.826 116.094 110.826C116.008 109.826 115.808 108.385 116.825 106.842C117.065 106.482 117.728 105.528 117.728 105.528C117.728 105.528 118.271 106.105 117.991 106.728C117.705 107.351 117.517 108.014 117.517 108.014C117.517 108.014 118.014 107.111 119.894 106.568C120.774 106.311 124.244 105.431 124.244 105.431C124.735 105.436 124.667 106.139 123.701 106.597C123.701 106.597 124.129 107.042 123.341 107.488C123.341 107.488 123.895 107.905 122.798 108.517C122.798 108.517 123.232 108.866 122.1 109.546C121.089 110.152 119.454 111.032 119.088 111.603C118.603 112.375 117.825 115.015 117.825 115.015L115.048 114.015V114.009Z" fill="#F4F7FA"/>
<path d="M79.0867 104.047C79.0867 104.047 72.114 106.088 70.5308 106.505C68.9477 106.922 70.5308 117.01 72.6969 128.594C74.863 140.179 74.2286 148.187 74.2286 148.187H98.2044C98.2044 148.187 99.1989 110.774 98.6502 109.505C97.65 107.208 87.5968 104.019 87.5968 104.019L79.0924 104.041L79.0867 104.047Z" fill="#D6B556"/>
<path d="M80.4869 95.7598C80.4869 95.7598 80.727 101.504 79.7268 103.807L80.9499 106.127L84.1733 108.088L86.2137 106.556L86.8138 104.807V95.7598H80.4927H80.4869Z" fill="#F4F7FA"/>
<path d="M77.9378 91.5195C77.6578 90.7822 77.6806 89.9363 78.0064 89.2162C78.275 88.6275 78.7208 88.1417 79.0066 87.5645C79.2581 87.0615 79.3895 86.4785 79.7896 86.0785C80.1954 85.6784 80.8184 85.5412 81.3728 85.6555C81.9271 85.7698 82.4301 86.0956 82.8302 86.5014C83.3788 87.0558 83.7675 87.7702 83.9446 88.5361C84.1561 89.4619 84.0475 90.4336 83.8646 91.3652C83.6989 92.211 83.4531 93.0798 82.8702 93.7142C82.4129 94.2171 81.7614 94.5372 81.0813 94.5886C80.4126 94.6458 79.4467 94.4571 79.0695 93.8285C78.8866 93.5198 78.7951 93.1598 78.6351 92.8397C78.4065 92.3939 78.115 91.9824 77.9378 91.5137V91.5195Z" fill="#12252D"/>
<path d="M90.2031 86.6099C90.2031 86.6099 91.5919 99.3379 87.8712 101.173C85.4651 102.361 81.6187 101.087 81.0357 95.4229C80.4527 89.7533 83.0075 86.9928 85.9795 86.6156C88.5914 86.2841 90.2031 86.6156 90.2031 86.6156V86.6099Z" fill="#F4F7FA"/>
<path d="M80.9499 92.9479C80.9499 92.9479 80.0869 92.0049 79.2525 92.9479C78.418 93.891 79.944 95.8685 81.0985 95.9656L80.9442 92.9479H80.9499Z" fill="#F4F7FA"/>
<path d="M82.8987 88.4276C83.5846 88.5191 84.2876 88.4334 84.9791 88.5248C85.785 88.6334 86.5394 88.9763 87.3053 89.2564C88.4426 89.6679 89.66 89.9365 90.8659 89.8107C92.0718 89.685 93.2663 89.1249 93.975 88.1419C94.6952 87.1417 94.8324 85.7472 94.3123 84.6269C93.7922 83.5067 92.6491 82.7009 91.4203 82.598C90.0429 82.4837 88.7512 83.1752 87.4539 83.6496C86.0708 84.1583 84.6019 84.4326 83.1274 84.4555C82.5215 84.4669 81.9043 84.4383 81.3156 84.5812C80.7269 84.7241 80.1554 85.0842 79.9268 85.65C79.6353 86.3758 80.1097 86.9359 80.6412 87.3417C81.3327 87.8733 82.0014 88.3076 82.893 88.4276H82.8987Z" fill="#12252D"/>
<path d="M79.9668 103.115C79.9668 103.115 80.767 105.893 84.1733 108.088C84.0647 109.128 81.1442 111.242 79.8983 107.762C79.281 106.041 79.0867 104.047 79.0867 104.047L79.9668 103.115Z" fill="url(#paint12_linear_320_1752)"/>
<path d="M84.1733 108.088C86.7452 106.322 86.8138 103.207 86.8138 103.207L87.5968 104.019C87.5968 104.019 88.1741 107.488 86.951 109.088C86.1108 110.185 84.2819 108.757 84.1733 108.088Z" fill="url(#paint13_linear_320_1752)"/>
<path d="M72.5826 148.547C72.5826 148.547 75.0002 152.216 76.0404 153.051C77.0806 153.885 77.8807 155.645 77.8807 155.645L74.8116 159.823C74.8116 159.823 72.9655 159.212 72.3826 157C71.7996 154.788 71.2452 154.548 70.2907 152.422L69.3306 150.296L72.5826 148.547Z" fill="#F4F7FA"/>
<path d="M70.1651 106.871C70.1651 106.871 66.6102 107.088 64.9413 113.592C63.2724 120.096 61.1977 130.789 60.6434 135.344C60.409 137.276 70.6738 154.188 70.6738 154.188C70.6738 154.188 72.7141 152.336 74.5259 150.787C74.5259 150.787 68.8506 138.934 68.8506 134.596C68.8506 134.596 73.9429 120.45 74.1087 116.175C74.2744 111.843 74.2973 107.316 70.1594 106.871H70.1651Z" fill="#D6B556"/>
<path d="M98.6504 109.505C99.9821 109.705 104.04 118.758 106.623 123.428L109.207 128.097L115.459 112.094C115.459 112.094 117.545 111.763 118.791 113.597C118.791 113.597 115.459 135.19 114.625 137.607C113.79 140.025 111.207 141.774 106.623 136.024C102.04 130.275 94.1182 119.101 93.4552 117.85C92.7922 116.598 90.9519 108.345 98.6504 109.511V109.505Z" fill="#D6B556"/>
<path d="M93.9523 244.05H99.2847C99.2847 244.05 99.8677 244.05 101.617 245.884C103.365 247.719 108.452 245.97 110.367 249.634H93.5294C93.5294 249.634 91.9462 246.719 93.9466 244.05H93.9523Z" fill="#12252D"/>
<path d="M61.6948 249.634C61.0547 247.497 62.5578 245.936 63.0265 244.05C63.318 242.884 69.1705 242.164 69.7534 244.719C70.3078 247.165 69.862 249.64 69.862 249.64H61.6948V249.634Z" fill="#12252D"/>
<path d="M78.3584 153.46L73.6106 160.413L74.7103 161.164L79.4581 154.211L78.3584 153.46Z" fill="#12252D"/>
<path d="M98.2329 148.187H74.2285V149.907H98.2329V148.187Z" fill="#12252D"/>
<path d="M86.1565 173.471L89.4942 161.006L87.2938 184.571L86.1565 173.471Z" fill="#12252D"/>
<path d="M98.7017 125.428L98.816 116.284L100.936 128.503L98.7017 125.428Z" fill="url(#paint14_linear_320_1752)"/>
<path d="M72.0396 125.017L73.5941 119.353L73.0226 130.412C73.0226 130.412 72.0796 125.577 72.0396 125.011V125.017Z" fill="url(#paint15_linear_320_1752)"/>
<path d="M302.333 248.852L291.234 200.271H295.383L303.979 248.852C303.928 249.892 302.385 249.892 302.333 248.852Z" fill="#12252D"/>
<path d="M274.294 248.852L263.195 200.271H267.344L275.94 248.852C275.889 249.892 274.345 249.892 274.294 248.852Z" fill="#12252D"/>
<path d="M235.881 248.852L246.98 200.271H242.831L234.235 248.852C234.287 249.892 235.83 249.892 235.881 248.852Z" fill="#12252D"/>
<path d="M306.551 161.812H283.976C282.518 161.812 281.221 162.721 280.724 164.087L269.687 194.413C268.864 196.67 270.539 199.059 272.939 199.059H295.515C296.972 199.059 298.27 198.151 298.767 196.785L309.803 166.459C310.626 164.202 308.952 161.812 306.551 161.812Z" fill="#12252D"/>
<path d="M297.698 201.477H239.693C239.025 201.477 238.487 200.934 238.487 200.271C238.487 199.603 239.03 199.065 239.693 199.065H297.698C298.367 199.065 298.904 199.608 298.904 200.271C298.904 200.94 298.361 201.477 297.698 201.477Z" fill="#12252D"/>
<path d="M297.698 201.477H274.299C273.631 201.477 273.094 200.934 273.094 200.271C273.094 199.603 273.636 199.065 274.299 199.065H297.698C298.367 199.065 298.904 199.608 298.904 200.271C298.904 200.94 298.361 201.477 297.698 201.477Z" fill="#D6B556"/>
<path d="M262.086 248.852L273.185 200.271H269.036L260.44 248.852C260.491 249.892 262.034 249.892 262.086 248.852Z" fill="#12252D"/>
<path d="M280.581 130.527C280.581 130.527 277.249 130.704 276.969 134.316C276.689 137.928 277.34 139.803 275.786 143.415C274.231 147.027 272.968 151.874 279.472 152.319C285.976 152.765 287.971 152.485 289.977 154.04C291.983 155.594 298.801 150.873 296.355 146.707C293.909 142.541 292.977 140.152 293.977 136.928C294.978 133.705 292.869 130.173 288.977 128.647C285.707 127.366 283.033 127.566 280.586 130.521L280.581 130.527Z" fill="#12252D"/>
<path d="M278.895 151.211C278.895 151.211 279.803 154.046 277.563 162.213C275.328 170.369 274.597 173.078 272.488 174.604C271.185 175.547 256.405 175.547 256.405 175.547V171.38L269.413 169.797C269.413 169.797 271.059 161.727 272.722 156.663C273.299 154.909 274.265 150.365 276.317 149.468C278.369 148.57 278.895 151.211 278.895 151.211Z" fill="#D6B556"/>
<path d="M295.589 165.162C294.978 169.768 293.309 181.056 293.309 181.056H276.026C276.026 181.056 276.546 174.152 275.7 170.408C275.546 169.723 275.346 169.134 275.088 168.722C273.745 166.579 272.545 164.579 272.534 162.373C272.534 161.841 272.602 161.287 272.757 160.721C273.528 157.835 274.7 151.439 276.146 149.662C277.592 147.879 284.799 148.107 284.799 148.107C284.799 148.107 294.218 148.136 297.041 149.713C297.795 150.136 298.081 151.079 298.144 152.216C298.338 155.743 296.064 161.681 295.601 165.167L295.589 165.162Z" fill="#D6B556"/>
<path d="M292.8 166.665C292.8 166.665 279.621 167.728 275.694 170.409C275.54 169.723 275.34 169.134 275.083 168.723C273.739 166.58 272.539 164.579 272.528 162.373C273.402 164.185 275.631 166.597 281.295 166.665C290.411 166.774 292.8 166.665 292.8 166.665Z" fill="url(#paint16_linear_320_1752)"/>
<path d="M295.589 165.162C294.978 169.769 293.309 181.056 293.309 181.056L294.138 154.389L298.133 152.217C298.327 155.743 296.052 161.681 295.589 165.168V165.162Z" fill="url(#paint17_linear_320_1752)"/>
<path d="M288.942 171.918C288.942 171.918 280.701 172.221 278.112 172.386C278.112 172.386 275.757 171.495 274.3 171.386C272.093 171.22 270.144 173.427 269.562 175.553H288.668L288.942 171.918Z" fill="#F4F7FA"/>
<path d="M297.767 150.594C297.767 150.594 300.196 155.126 301.779 161.133C303.362 167.134 305.528 173.221 303.528 174.89C301.527 176.559 288.691 175.89 288.691 175.89L288.359 171.386L298.138 169.803C298.138 169.803 294.446 160.55 293.863 158.881C293.28 157.212 292.84 152.091 294.892 151.194C296.944 150.297 297.767 150.599 297.767 150.599V150.594Z" fill="#D6B556"/>
<path d="M250.661 244.891H247.717L247.334 240.541L250.929 240.187L250.661 244.891Z" fill="#F4F7FA"/>
<path d="M250.661 244.891C250.661 244.891 251.747 246.022 251.387 248.526C251.215 249.709 248.632 249.634 244.271 249.634H239.933C239.196 249.634 238.87 248.72 239.43 248.24C239.693 248.017 240.065 247.805 240.585 247.645C245.488 246.125 247.712 244.891 247.712 244.891H250.655H250.661Z" fill="#12252D"/>
<path d="M285.536 181.057C285.507 182.56 288.954 187.646 288.268 192.602C287.822 195.854 285.027 199.06 278.518 199.06C269.625 199.06 255.451 198.963 253.136 199.06C251.296 199.134 250.421 199.174 251.501 202.643C254.056 210.856 251.896 224.836 251.227 243.76H247.341C247.341 243.76 243.894 224.122 242.465 214.623C240.242 199.843 236.864 194.042 243.3 190.978C250.101 187.738 276.049 181.057 276.049 181.057H285.542H285.536Z" fill="#12252D"/>
<path d="M259.045 244.891H256.102L255.713 240.541L259.308 240.187L259.045 244.891Z" fill="#F4F7FA"/>
<path d="M259.045 244.891C259.045 244.891 260.131 246.022 259.771 248.526C259.6 249.709 257.016 249.634 252.656 249.634H248.318C247.58 249.634 247.255 248.72 247.815 248.24C248.078 248.017 248.449 247.805 248.969 247.645C253.873 246.125 256.096 244.891 256.096 244.891H259.04H259.045Z" fill="#12252D"/>
<path d="M293.309 181.057C293.28 182.56 296.726 187.646 296.041 192.602C295.595 195.854 292.8 199.06 286.29 199.06H260.908C259.068 199.06 258.194 199.174 259.274 202.643C261.829 210.856 260.686 225.002 259.411 243.76H255.519C255.519 243.76 251.673 224.122 250.244 214.623C248.02 199.843 244.643 194.042 251.078 190.978C257.879 187.738 281.844 181.057 281.844 181.057H293.32H293.309Z" fill="#12252D"/>
<path d="M280.083 148.307C280.083 148.307 280.032 151.988 282.53 154.103C282.53 154.103 287.833 151.628 289.748 148.319C289.748 148.319 284.77 147.776 280.083 148.313V148.307Z" fill="#F4F7FA"/>
<path d="M281.164 148.205C281.164 148.205 282.472 148.073 282.472 146.536C282.472 144.998 282.627 142.083 282.627 142.083L287.548 142.501C287.548 142.501 287.13 147.319 287.925 148.205L288.719 149.09C288.719 149.09 281.964 150.239 281.175 148.205H281.164Z" fill="#F4F7FA"/>
<path d="M282.467 145.918C282.467 145.918 285.701 146.421 287.427 145.044L287.536 142.5L282.467 143.598V145.918Z" fill="#F4F7FA"/>
<path d="M279.609 132.327C279.609 132.327 275.277 144.209 281.358 145.547C287.445 146.879 288.691 140.546 288.691 140.546C288.691 140.546 290.262 140.174 290.508 138.808C290.743 137.488 288.914 137.991 288.914 137.991C288.914 137.991 290.531 133.105 286.856 131.459C282.993 129.733 280.352 130.636 279.603 132.327H279.609Z" fill="#F4F7FA"/>
<path d="M280.192 130.876C280.192 130.876 281.587 137.546 288.919 137.991C288.919 137.991 290.811 133.271 289.531 131.265C288.251 129.264 282.358 128.012 280.192 130.876Z" fill="#12252D"/>
<path d="M273.494 174.221H244.528L237.59 155.154C237.293 154.343 237.893 153.491 238.756 153.491H265.081C265.601 153.491 266.069 153.817 266.247 154.308L273.494 174.226V174.221Z" fill="#12252D"/>
<path d="M290.708 176.021H261.92C261.423 176.021 261.017 175.616 261.017 175.118C261.017 174.621 261.423 174.215 261.92 174.215H290.708C291.205 174.215 291.611 174.621 291.611 175.118C291.611 175.616 291.205 176.021 290.708 176.021Z" fill="#12252D"/>
<path d="M273.402 176.021H244.614C244.117 176.021 243.711 175.616 243.711 175.118C243.711 174.621 244.117 174.215 244.614 174.215H273.402C273.9 174.215 274.305 174.621 274.305 175.118C274.305 175.616 273.9 176.021 273.402 176.021Z" fill="#12252D"/>
<path d="M341.797 248.492L325.623 177.702H331.67L344.192 248.492C344.118 250.013 341.872 250.013 341.797 248.492Z" fill="#12252D"/>
<path d="M178.527 248.492L162.353 177.702H168.4L180.922 248.492C180.848 250.013 178.602 250.013 178.527 248.492Z" fill="#12252D"/>
<path d="M114.567 248.492L130.742 177.702H124.695L112.173 248.492C112.247 250.013 114.493 250.013 114.567 248.492Z" fill="#12252D"/>
<path d="M269.922 248.492L286.096 177.702H280.049L267.527 248.492C267.601 250.013 269.847 250.013 269.922 248.492Z" fill="#12252D"/>
<path d="M344.341 176.021H113.63C112.825 176.021 112.173 176.674 112.173 177.479V177.936C112.173 178.741 112.825 179.394 113.63 179.394H344.341C345.146 179.394 345.798 178.741 345.798 177.936V177.479C345.798 176.674 345.146 176.021 344.341 176.021Z" fill="#12252D"/>
<path d="M292.783 179.388H344.112C345.044 179.388 345.798 178.633 345.798 177.702C345.798 176.77 345.044 176.016 344.112 176.016H292.783C291.851 176.016 291.097 176.77 291.097 177.702C291.097 178.633 291.851 179.388 292.783 179.388Z" fill="#D6B556"/>
<path d="M162.702 174.22H191.667L198.606 155.154C198.903 154.342 198.303 153.491 197.44 153.491H171.115C170.595 153.491 170.126 153.816 169.949 154.308L162.702 174.226V174.22Z" fill="#12252D"/>
<path d="M145.487 176.021H174.275C174.773 176.021 175.178 175.615 175.178 175.118C175.178 174.621 174.773 174.215 174.275 174.215H145.487C144.99 174.215 144.584 174.621 144.584 175.118C144.584 175.615 144.99 176.021 145.487 176.021Z" fill="#12252D"/>
<path d="M162.794 176.021H191.582C192.079 176.021 192.485 175.615 192.485 175.118C192.485 174.621 192.079 174.215 191.582 174.215H162.794C162.296 174.215 161.891 174.621 161.891 175.118C161.891 175.615 162.296 176.021 162.794 176.021Z" fill="#12252D"/>
<defs>
<linearGradient id="paint0_linear_320_1752" x1="344.327" y1="180.082" x2="358.578" y2="181.387" gradientUnits="userSpaceOnUse">
<stop stop-color="#B98300"/>
<stop offset="0.546875" stop-color="#FFF5A4"/>
<stop offset="0.9999" stop-color="#FFFADF"/>
<stop offset="1" stop-color="#785500"/>
</linearGradient>
<linearGradient id="paint1_linear_320_1752" x1="333.3" y1="199.691" x2="387.251" y2="231.259" gradientUnits="userSpaceOnUse">
<stop stop-color="#B98300"/>
<stop offset="0.546875" stop-color="#FFF5A4"/>
<stop offset="0.9999" stop-color="#FFFADF"/>
<stop offset="1" stop-color="#785500"/>
</linearGradient>
<linearGradient id="paint2_linear_320_1752" x1="307.529" y1="195.713" x2="357.781" y2="225.544" gradientUnits="userSpaceOnUse">
<stop stop-color="#B98300"/>
<stop offset="0.546875" stop-color="#FFF5A4"/>
<stop offset="0.9999" stop-color="#FFFADF"/>
<stop offset="1" stop-color="#785500"/>
</linearGradient>
<linearGradient id="paint3_linear_320_1752" x1="314.086" y1="200.433" x2="352.08" y2="218.407" gradientUnits="userSpaceOnUse">
<stop stop-color="#B98300"/>
<stop offset="0.546875" stop-color="#FFF5A4"/>
<stop offset="0.9999" stop-color="#FFFADF"/>
<stop offset="1" stop-color="#785500"/>
</linearGradient>
<linearGradient id="paint4_linear_320_1752" x1="-6.37009" y1="195.243" x2="47.5551" y2="229.983" gradientUnits="userSpaceOnUse">
<stop stop-color="#B98300"/>
<stop offset="0.546875" stop-color="#FFF5A4"/>
<stop offset="0.9999" stop-color="#FFFADF"/>
<stop offset="1" stop-color="#785500"/>
</linearGradient>
<linearGradient id="paint5_linear_320_1752" x1="25.9642" y1="181.047" x2="51.2318" y2="185.146" gradientUnits="userSpaceOnUse">
<stop stop-color="#B98300"/>
<stop offset="0.546875" stop-color="#FFF5A4"/>
<stop offset="0.9999" stop-color="#FFFADF"/>
<stop offset="1" stop-color="#785500"/>
</linearGradient>
<linearGradient id="paint6_linear_320_1752" x1="31.7449" y1="194.141" x2="84.1703" y2="221.833" gradientUnits="userSpaceOnUse">
<stop stop-color="#B98300"/>
<stop offset="0.546875" stop-color="#FFF5A4"/>
<stop offset="0.9999" stop-color="#FFFADF"/>
<stop offset="1" stop-color="#785500"/>
</linearGradient>
<linearGradient id="paint7_linear_320_1752" x1="179.287" y1="191.464" x2="206.837" y2="208.584" gradientUnits="userSpaceOnUse">
<stop stop-color="#B98300"/>
<stop offset="0.546875" stop-color="#FFF5A4"/>
<stop offset="0.9999" stop-color="#FFFADF"/>
<stop offset="1" stop-color="#785500"/>
</linearGradient>
<linearGradient id="paint8_linear_320_1752" x1="202.933" y1="216.222" x2="214.904" y2="229.918" gradientUnits="userSpaceOnUse">
<stop stop-color="#B98300"/>
<stop offset="0.546875" stop-color="#FFF5A4"/>
<stop offset="0.9999" stop-color="#FFFADF"/>
<stop offset="1" stop-color="#785500"/>
</linearGradient>
<linearGradient id="paint9_linear_320_1752" x1="201.063" y1="216.865" x2="217.125" y2="222.476" gradientUnits="userSpaceOnUse">
<stop stop-color="#B98300"/>
<stop offset="0.546875" stop-color="#FFF5A4"/>
<stop offset="0.9999" stop-color="#FFFADF"/>
<stop offset="1" stop-color="#785500"/>
</linearGradient>
<linearGradient id="paint10_linear_320_1752" x1="201.74" y1="191.103" x2="211.757" y2="191.874" gradientUnits="userSpaceOnUse">
<stop stop-color="#B98300"/>
<stop offset="0.546875" stop-color="#FFF5A4"/>
<stop offset="0.9999" stop-color="#FFFADF"/>
<stop offset="1" stop-color="#785500"/>
</linearGradient>
<linearGradient id="paint11_linear_320_1752" x1="187.19" y1="195.329" x2="211.271" y2="203.19" gradientUnits="userSpaceOnUse">
<stop stop-color="#B98300"/>
<stop offset="0.546875" stop-color="#FFF5A4"/>
<stop offset="0.9999" stop-color="#FFFADF"/>
<stop offset="1" stop-color="#785500"/>
</linearGradient>
<linearGradient id="paint12_linear_320_1752" x1="78.227" y1="101.827" x2="86.4877" y2="105.738" gradientUnits="userSpaceOnUse">
<stop stop-color="#B98300"/>
<stop offset="0.546875" stop-color="#FFF5A4"/>
<stop offset="0.9999" stop-color="#FFFADF"/>
<stop offset="1" stop-color="#785500"/>
</linearGradient>
<linearGradient id="paint13_linear_320_1752" x1="83.5717" y1="101.974" x2="89.8908" y2="104.162" gradientUnits="userSpaceOnUse">
<stop stop-color="#B98300"/>
<stop offset="0.546875" stop-color="#FFF5A4"/>
<stop offset="0.9999" stop-color="#FFFADF"/>
<stop offset="1" stop-color="#785500"/>
</linearGradient>
<linearGradient id="paint14_linear_320_1752" x1="98.324" y1="113.885" x2="102.712" y2="114.376" gradientUnits="userSpaceOnUse">
<stop stop-color="#B98300"/>
<stop offset="0.546875" stop-color="#FFF5A4"/>
<stop offset="0.9999" stop-color="#FFFADF"/>
<stop offset="1" stop-color="#785500"/>
</linearGradient>
<linearGradient id="paint15_linear_320_1752" x1="71.7768" y1="117.183" x2="74.8449" y2="117.446" gradientUnits="userSpaceOnUse">
<stop stop-color="#B98300"/>
<stop offset="0.546875" stop-color="#FFF5A4"/>
<stop offset="0.9999" stop-color="#FFFADF"/>
<stop offset="1" stop-color="#785500"/>
</linearGradient>
<linearGradient id="paint16_linear_320_1752" x1="269.102" y1="160.796" x2="281.034" y2="179.196" gradientUnits="userSpaceOnUse">
<stop stop-color="#B98300"/>
<stop offset="0.546875" stop-color="#FFF5A4"/>
<stop offset="0.9999" stop-color="#FFFADF"/>
<stop offset="1" stop-color="#785500"/>
</linearGradient>
<linearGradient id="paint17_linear_320_1752" x1="292.492" y1="146.557" x2="302.005" y2="147.532" gradientUnits="userSpaceOnUse">
<stop stop-color="#B98300"/>
<stop offset="0.546875" stop-color="#FFF5A4"/>
<stop offset="0.9999" stop-color="#FFFADF"/>
<stop offset="1" stop-color="#785500"/>
</linearGradient>
</defs>
</svg>
