<svg width="342" height="251" viewBox="0 0 342 251" fill="none" xmlns="http://www.w3.org/2000/svg">
<g clip-path="url(#clip0_324_629)">
<path d="M29.3593 249.677H328.315C353.095 228.866 340.342 166.243 319.646 153.547C297.366 139.883 332.744 92.6231 298.424 77.2828C276.016 67.2676 240.377 78.1831 245.17 51.3875C251.817 14.2289 174.119 4.70832 116.877 14.7251C54.9904 25.5531 111.506 78.7947 43.4494 89.5213C8.45407 95.0368 15.2166 142.229 18.4797 151.981C21.3222 160.475 40.1236 173.947 13.9932 192.5C-24.3236 219.706 28.4556 249.176 29.3593 249.677Z" fill="#F9F9F9"/>
<path d="M200.133 202.539C225.202 175.15 244.624 141.784 257.379 104.198C272.205 112.681 287.031 121.162 301.857 129.644C287.11 173.101 264.653 211.679 235.668 243.347C223.824 229.745 211.978 216.142 200.133 202.539Z" fill="#12252D"/>
<path d="M264.869 111.504C274.096 116.878 283.322 122.251 292.549 127.625C291.178 131.561 292.658 136.342 295.95 138.364C282.596 174.103 263.863 206.285 240.454 233.699C237.714 230.728 233.441 230.744 230.829 233.65C223.383 225.219 215.937 216.788 208.491 208.355C210.894 205.679 210.564 201.041 207.827 198.073C228.383 173.999 244.834 145.74 256.561 114.355C259.85 116.377 263.609 115.125 264.871 111.504H264.869Z" fill="white"/>
<path d="M243.73 191.716C236.353 184.781 234.565 173.11 239.237 165.219C243.927 157.342 253.773 155.447 261.736 161.397C269.684 167.333 272.315 179.708 267.043 188.574C261.78 197.448 251.093 198.639 243.73 191.716Z" fill="#F9F9F9"/>
<path d="M242.122 166.472C242.968 167.146 243.817 167.819 244.665 168.492C245.39 167.314 246.261 166.282 247.1 165.521C247.801 164.888 248.874 165.036 249.556 165.87C249.583 165.904 249.611 165.937 249.637 165.971C250.389 166.889 250.365 168.28 249.573 168.974C248.767 169.679 247.982 170.583 247.357 171.704C246.447 173.336 246.396 174.92 247.461 175.785C248.47 176.604 249.637 176.21 251.505 174.589C254.194 172.243 256.685 171.103 259.313 173.113C261.694 174.932 262.577 178.252 261.357 181.928C262.206 182.6 263.055 183.27 263.904 183.94C263.355 184.933 262.801 185.921 262.243 186.907C261.46 186.277 260.678 185.648 259.895 185.019C259.234 186.072 258.591 186.856 257.984 187.453C257.241 188.183 256.095 188.029 255.42 187.13C254.724 186.199 254.79 184.835 255.566 184.112C256.149 183.571 256.787 182.832 257.378 181.784C258.464 179.852 258.053 178.629 257.302 178.037C256.415 177.337 255.286 177.94 253.025 179.738C249.925 182.306 247.646 182.451 245.279 180.473C242.933 178.508 241.992 175.082 243.298 171.415C242.393 170.684 241.488 169.951 240.583 169.218C241.1 168.305 241.614 167.388 242.122 166.47V166.472Z" fill="#12252D"/>
<path d="M224.352 215.636C230.002 209.002 235.362 202.073 240.419 194.866C241.669 196.05 242.919 197.233 244.168 198.417C239.04 205.724 233.606 212.751 227.875 219.479C226.7 218.198 225.526 216.918 224.351 215.637L224.352 215.636Z" fill="#F9F9F9"/>
<path d="M204.114 189.424C239.424 179.146 272.852 161.492 302.639 137.392C311.184 151.006 319.729 164.62 328.274 178.235C293.833 206.099 255.182 226.513 214.357 238.395C210.943 222.072 207.528 205.748 204.113 189.424H204.114Z" fill="#12252D"/>
<path d="M305.446 146.679C310.716 155.227 315.985 163.775 321.256 172.323C318.107 174.83 316.993 179.33 318.821 182.464C289.439 204.815 257.199 221.841 223.308 232.906C222.431 229.271 218.737 227.308 215.03 228.422C212.824 218.257 210.618 208.089 208.412 197.924C211.823 196.899 213.857 193.044 212.979 189.412C242.739 179.696 271.052 164.743 296.854 145.117C298.681 148.248 302.548 148.986 305.446 146.679Z" fill="white"/>
<path d="M247.12 200.92C244.225 191.98 248.516 181.841 256.49 177.702C264.472 173.583 273.912 176.618 277.803 185.042C281.689 193.45 277.772 204.539 268.794 209.179C259.819 213.829 250.008 209.844 247.12 200.92Z" fill="#F9F9F9"/>
<path d="M258.352 180.033C258.746 180.962 259.14 181.892 259.535 182.82C260.749 182.214 262.015 181.792 263.119 181.573C264.04 181.391 264.891 182.006 265.062 182.987C265.069 183.026 265.075 183.066 265.082 183.105C265.271 184.185 264.554 185.285 263.526 185.472C262.479 185.663 261.349 186.021 260.25 186.626C258.65 187.51 257.815 188.749 258.299 189.93C258.761 191.05 259.965 191.275 262.384 190.843C265.877 190.212 268.595 190.453 269.856 193.271C271 195.821 270.103 198.88 267.212 201.248C267.61 202.175 268.007 203.104 268.404 204.031C267.434 204.569 266.462 205.102 265.487 205.631C265.126 204.768 264.767 203.904 264.406 203.041C263.31 203.575 262.364 203.905 261.542 204.101C260.536 204.34 259.624 203.689 259.492 202.66C259.356 201.595 260.095 200.537 261.126 200.319C261.9 200.156 262.819 199.861 263.852 199.297C265.754 198.258 266.011 197.091 265.659 196.274C265.244 195.304 263.97 195.265 261.12 195.655C257.162 196.272 255.127 195.335 254.073 192.665C253.032 190.014 253.931 186.845 256.892 184.523C256.477 183.52 256.063 182.518 255.65 181.515C256.552 181.026 257.453 180.533 258.35 180.033H258.352Z" fill="#12252D"/>
<path d="M214.873 201.604C244.998 208.314 277.088 208.479 309.455 202.09C309.489 216.289 309.522 230.487 309.557 244.685C272.134 252.071 235.029 251.881 200.198 244.123C205.089 229.951 209.982 215.778 214.873 201.606V201.604Z" fill="#12252D"/>
<path d="M307.296 210.515C307.248 219.39 307.201 228.265 307.153 237.138C303.749 237.782 300.917 240.831 300.824 244.041C269.538 249.233 238.587 249.074 209.134 243.57C210.138 240.364 208.355 237.292 205.178 236.614C208.167 227.755 211.156 218.895 214.146 210.036C217.07 210.659 220.275 208.498 221.279 205.295C247.144 210.128 274.324 210.268 301.797 205.71C301.704 208.917 304.164 211.107 307.297 210.516L307.296 210.515Z" fill="white"/>
<path d="M240.74 228.531C242.679 220.342 250.347 214.214 257.969 214.31C265.589 214.426 271.036 220.734 270.049 228.938C269.067 237.125 261.24 244.149 252.667 244.025C244.093 243.911 238.805 236.705 240.74 228.531Z" fill="#F9F9F9"/>
<path d="M258.261 216.908C258.127 217.798 257.993 218.687 257.86 219.578C259.01 219.613 260.114 219.812 261.009 220.101C261.757 220.343 262.094 221.178 261.775 222.015C261.762 222.048 261.749 222.082 261.738 222.115C261.387 223.038 260.374 223.597 259.548 223.314C258.705 223.026 257.728 222.834 256.661 222.848C255.108 222.87 253.946 223.489 253.765 224.615C253.594 225.681 254.362 226.36 256.302 227.033C259.108 227.998 260.961 229.32 260.603 232.046C260.279 234.515 258.253 236.53 255.099 237.173C254.968 238.064 254.836 238.953 254.705 239.844C253.762 239.86 252.82 239.87 251.878 239.876C252.007 239.051 252.137 238.226 252.265 237.403C251.233 237.363 250.401 237.225 249.719 237.035C248.885 236.801 248.52 235.914 248.888 235.055C249.271 234.167 250.28 233.649 251.124 233.909C251.756 234.105 252.553 234.258 253.552 234.249C255.393 234.232 256.104 233.427 256.219 232.642C256.356 231.712 255.454 231.15 253.222 230.263C250.086 229.094 249.039 227.513 249.481 224.987C249.923 222.482 252.002 220.384 255.185 219.806C255.337 218.849 255.49 217.895 255.642 216.938C256.514 216.933 257.387 216.922 258.26 216.908H258.261Z" fill="#12252D"/>
<path d="M209.633 224.482C216.755 225.803 223.968 226.793 231.258 227.45C230.924 228.841 230.589 230.231 230.253 231.623C222.863 230.957 215.547 229.954 208.326 228.612C208.761 227.235 209.198 225.857 209.633 224.48V224.482Z" fill="#F9F9F9"/>
<path d="M277.835 227.507C285.005 226.475 292.155 225.098 299.269 223.383C299.397 224.807 299.527 226.232 299.656 227.657C292.442 229.398 285.191 230.793 277.921 231.84C277.892 230.396 277.863 228.952 277.834 227.508L277.835 227.507Z" fill="#F9F9F9"/>
<path d="M282.237 182.187C288.51 178.567 294.639 174.634 300.608 170.4C301.256 171.675 301.905 172.951 302.554 174.226C296.501 178.519 290.287 182.506 283.925 186.177C283.361 184.847 282.799 183.517 282.235 182.187H282.237Z" fill="#F9F9F9"/>
<path d="M258.661 151.573C262.428 145.385 265.916 138.994 269.121 132.415C270.302 133.222 271.483 134.03 272.664 134.837C269.415 141.509 265.877 147.99 262.059 154.263C260.926 153.367 259.794 152.471 258.661 151.574V151.573Z" fill="#F9F9F9"/>
<path d="M123.404 0.848942C132.843 -0.653362 141.242 2.82719 142.167 8.62617C142.628 11.5257 141.133 14.4544 138.343 16.8458L143.534 24.7836L134.416 19.4226C132.183 20.5453 129.58 21.3936 126.748 21.8447C117.309 23.347 108.91 19.8664 107.986 14.0675C107.063 8.26994 113.966 2.35125 123.403 0.847482L123.404 0.848942Z" fill="white"/>
<path d="M113.256 82.4758L114.224 80.699L113.313 78.8916C113.21 78.6857 113.386 78.4507 113.612 78.493L115.597 78.8668L117.029 77.4404C117.192 77.2783 117.47 77.3732 117.499 77.6024L117.757 79.6099L119.553 80.5341C119.757 80.6392 119.753 80.9341 119.546 81.0334L117.721 81.9006L117.398 83.8993C117.362 84.127 117.08 84.2132 116.922 84.0453L115.537 82.5736L113.542 82.8846C113.315 82.9196 113.147 82.6787 113.256 82.4758Z" fill="#F9F9F9"/>
<path d="M50.304 45.2727C50.1799 43.4697 51.5348 41.9075 53.3335 41.782C55.1307 41.6564 56.6899 43.0171 56.814 44.8201C56.9381 46.6232 55.5833 48.1854 53.7846 48.3109C51.9874 48.4365 50.4281 47.0758 50.304 45.2727Z" fill="#12252D"/>
<path d="M55.8372 54.5129C55.643 53.5639 55.5248 52.5478 55.2021 51.6324C54.9247 50.8455 53.6998 51.0864 53.7626 51.9302C53.8385 52.9653 54.1612 54.0136 54.3772 55.0268C54.4648 55.4371 55.0065 55.6283 55.3642 55.5013C55.8022 55.3466 55.9219 54.9232 55.8372 54.5115V54.5129Z" fill="#12252D"/>
<path d="M61.4289 50.4587C60.3471 49.8193 59.4054 49.0265 58.4068 48.2717C57.6272 47.6804 56.7877 48.698 57.4286 49.4003C58.3498 50.4091 59.5587 51.196 60.7252 51.8866C61.0946 52.1056 61.6085 51.891 61.7881 51.526C61.9895 51.1172 61.7997 50.6792 61.4289 50.4602V50.4587Z" fill="#12252D"/>
<path d="M59.3807 44.6011C59.1354 44.7982 59.0872 45.0815 59.2376 45.3559C59.6026 46.0217 60.5311 45.9881 61.191 45.9662C61.8787 45.9428 62.5663 45.8027 63.2175 45.5793C64.1796 45.2508 63.6584 43.7544 62.6933 44.0843C60.8056 44.7311 60.0917 44.0288 59.3807 44.6011Z" fill="#12252D"/>
<path d="M58.3411 38.2401C57.3921 39.6329 56.6154 40.1044 56.7366 40.8709C56.8067 41.3191 57.1615 41.5337 57.5922 41.4359C58.1017 41.3191 58.3805 40.7775 58.6857 40.3964C58.9791 40.0314 59.2667 39.665 59.5281 39.2766C59.766 38.9233 59.7996 38.4678 59.4507 38.1627C59.1587 37.9087 58.582 37.8868 58.3411 38.2401Z" fill="#12252D"/>
<path d="M54.6416 37.9976C54.338 37.1537 54.2708 36.8457 53.8781 36.453C53.5364 36.1113 52.8138 36.3289 52.7656 36.8325C52.7101 37.418 52.8327 37.637 53.151 38.5232C53.2955 38.9261 53.754 39.1495 54.1584 39.0079C54.5599 38.8663 54.7862 38.4005 54.6416 37.9976Z" fill="#12252D"/>
<path d="M50.6456 40.0415C49.2761 38.9991 48.9987 38.7042 48.46 38.7611C48.1446 38.7947 47.7913 39.0984 47.86 39.4531C47.9884 40.113 48.3709 40.2911 49.6294 41.2124C49.9667 41.4591 50.4309 41.4723 50.7215 41.1365C50.9828 40.8357 50.9799 40.2955 50.6456 40.0415Z" fill="#12252D"/>
<path d="M45.1473 44.8232C44.6086 45.1108 44.8247 46.0452 45.4087 46.1226C45.9693 46.1956 46.1854 46.105 48.9023 45.6087C49.3214 45.5313 49.6674 45.2247 49.6353 44.7633C49.6075 44.3721 49.2148 43.9516 48.7929 44.0275C45.9707 44.5385 45.6875 44.5356 45.1473 44.8232Z" fill="#12252D"/>
<path d="M49.4047 49.2803C47.9156 50.7256 47.6966 50.4701 47.1097 51.3549C46.841 51.7593 47.2849 52.4031 47.7521 52.317C48.3536 52.206 48.5142 52.1053 49.2982 51.4819C49.7537 51.1198 50.1888 50.7329 50.6063 50.3285C50.9158 50.0292 50.8326 49.4671 50.5289 49.2014C50.1815 48.8978 49.7157 48.9781 49.4047 49.2803Z" fill="#12252D"/>
<path d="M120.156 46.3442L126.102 48.4539L124.559 43.1235L120.156 46.3442Z" fill="#12252D"/>
<path d="M91.0487 38.145L86.1213 38.0384L84.292 33.3504L85.5154 32.8687L87.0265 36.739L92.1159 36.85L93.3102 42.4373L96.7032 42.0912L96.728 43.414L92.2722 43.8666L91.0487 38.145Z" fill="#F9F9F9"/>
<path d="M278.604 181.276L275.144 156.415C274.906 154.707 273.83 153.23 272.276 152.482L263.596 148.302C262.722 147.88 262.04 147.146 261.673 146.245C250.783 119.484 222.146 100.379 188.533 100.379C154.921 100.379 128.914 117.777 116.998 142.622C116.938 142.632 116.875 142.639 116.808 142.645C116.582 142.662 116.312 142.648 116.013 142.589C115.715 142.532 115.394 142.445 115.062 142.322C114.731 142.198 114.389 142.048 114.047 141.875C113.363 141.524 112.672 141.093 112.005 140.607C111.671 140.364 111.341 140.109 111.018 139.845C110.881 139.732 110.748 139.618 110.617 139.505C110.761 139.376 110.903 139.245 111.043 139.112C111.488 138.687 111.9 138.23 112.291 137.758C112.682 137.287 113.049 136.796 113.389 136.291C113.731 135.786 114.055 135.271 114.353 134.742C114.43 134.611 114.501 134.478 114.574 134.345C114.647 134.212 114.721 134.081 114.792 133.938C114.938 133.659 115.071 133.373 115.198 133.084C115.45 132.503 115.665 131.897 115.821 131.256C115.976 130.616 116.077 129.942 116.068 129.231C116.059 128.523 115.932 127.765 115.61 127.044C115.288 126.325 114.78 125.67 114.147 125.184C113.519 124.698 112.808 124.371 112.066 124.191C111.325 124.01 110.546 123.965 109.755 124.089C108.968 124.208 108.155 124.53 107.463 125.09C107.38 125.159 107.286 125.235 107.212 125.302L107.028 125.483C106.907 125.604 106.78 125.722 106.663 125.849C106.434 126.109 106.199 126.365 105.996 126.65C105.778 126.923 105.597 127.222 105.406 127.517C105.237 127.822 105.06 128.126 104.921 128.447C104.626 129.08 104.396 129.743 104.239 130.415C103.912 131.761 103.85 133.132 103.956 134.466C104.072 135.802 104.358 137.103 104.81 138.372C105.039 139.007 105.311 139.633 105.663 140.264C105.721 140.366 105.78 140.467 105.841 140.569C105.334 140.677 104.815 140.74 104.298 140.751C103.75 140.764 103.201 140.721 102.658 140.623C102.385 140.581 102.12 140.506 101.851 140.439C101.588 140.351 101.321 140.277 101.065 140.164C100.027 139.76 99.0755 139.122 98.2273 138.366C97.3776 137.607 96.6345 136.716 95.9862 135.758C95.3365 134.8 94.7774 133.777 94.2751 132.724C94.6956 133.812 95.1759 134.881 95.7585 135.9C96.341 136.919 97.0286 137.89 97.8535 138.751C98.6784 139.608 99.6376 140.369 100.737 140.9C101.007 141.043 101.293 141.15 101.576 141.267C101.866 141.364 102.156 141.468 102.455 141.54C103.051 141.694 103.663 141.791 104.28 141.824C104.898 141.858 105.52 141.83 106.134 141.741C106.299 141.716 106.464 141.689 106.628 141.656C106.647 141.677 106.667 141.699 106.688 141.721C106.772 141.81 106.848 141.893 106.943 141.982C106.968 142.004 106.994 142.026 107.019 142.048L107.269 142.318L107.536 142.595C107.714 142.778 107.894 142.954 108.076 143.13C108.44 143.479 108.813 143.817 109.2 144.147C109.973 144.806 110.802 145.425 111.714 145.988C112.634 146.544 113.64 147.054 114.833 147.387C114.865 147.396 114.9 147.403 114.932 147.412C112.189 154.545 110.698 162.201 110.698 170.17C110.698 188.102 118.242 204.454 130.637 216.815C134.959 221.124 138.175 226.413 139.915 232.262L144.156 246.513C144.593 247.978 145.94 248.983 147.469 248.983H174.84C176.35 248.983 177.722 248.104 178.353 246.732L180.641 241.752C181.204 240.524 182.46 239.762 183.809 239.833C185.371 239.918 186.948 239.96 188.533 239.96C190.031 239.96 191.519 239.921 192.997 239.845C194.344 239.776 195.597 240.537 196.16 241.763L198.257 246.327C199.001 247.946 200.619 248.984 202.402 248.984H228.503C230.521 248.984 232.299 247.659 232.874 245.724L237.762 229.301C238.947 225.318 241.177 221.722 244.237 218.912C251.134 212.577 256.699 205.07 260.521 196.754C261.491 194.646 263.181 192.952 265.291 191.987L275.226 187.437C277.59 186.355 278.962 183.849 278.604 181.276ZM109.468 138.434C109.453 138.415 109.438 138.396 109.425 138.377C109.362 138.3 109.301 138.207 109.238 138.116C108.99 137.748 108.759 137.319 108.557 136.872C108.154 135.974 107.857 135.001 107.695 134.022C107.37 132.062 107.622 130.079 108.634 128.504C108.752 128.301 108.901 128.118 109.04 127.927C109.113 127.834 109.195 127.747 109.272 127.655L109.389 127.52L109.468 127.444C109.662 127.247 109.949 127.077 110.308 126.993C111.018 126.81 111.941 126.94 112.561 127.355C112.871 127.552 113.122 127.823 113.307 128.152C113.491 128.482 113.608 128.888 113.65 129.34C113.735 130.25 113.542 131.298 113.195 132.3C113.107 132.551 113.014 132.802 112.907 133.049C112.858 133.171 112.799 133.3 112.742 133.427C112.684 133.554 112.628 133.682 112.567 133.808C112.331 134.314 112.071 134.808 111.796 135.291C111.522 135.774 111.225 136.244 110.906 136.696C110.586 137.147 110.249 137.585 109.882 137.993C109.748 138.144 109.609 138.29 109.469 138.434H109.468Z" fill="url(#paint0_linear_324_629)"/>
<path d="M253.667 150.638C254.068 153.028 253.689 155.085 252.819 155.231C251.949 155.377 250.916 153.558 250.515 151.168C250.113 148.777 250.493 146.721 251.363 146.575C252.233 146.429 253.265 148.248 253.667 150.638Z" fill="#12252D"/>
<path d="M218.603 110.716C220.691 108.54 233.408 96.3379 256.629 95.5758C257.474 95.5481 258.045 96.4299 257.68 97.1935C254.946 102.89 246.033 122.103 243.44 135.734C243.335 136.287 242.841 136.678 242.279 136.653C237.619 136.449 218.114 134.234 218.29 111.482C218.292 111.196 218.406 110.922 218.603 110.716Z" fill="url(#paint1_linear_324_629)"/>
<path opacity="0.5" d="M232.978 118.973C232.978 118.48 233 117.991 233.039 117.51C233.422 112.815 235.568 108.45 238.918 105.139C242.838 101.265 248.818 97.211 257.337 95.7992C257.145 95.6547 256.901 95.5685 256.629 95.5773C233.406 96.3394 220.688 108.545 218.603 110.717C218.406 110.923 218.292 111.197 218.291 111.482C218.112 134.234 237.619 136.449 242.279 136.653C242.841 136.678 243.335 136.287 243.44 135.734C243.51 135.364 243.586 134.99 243.665 134.612C237.385 132.609 233.744 129.824 232.978 118.973Z" fill="#D6B556"/>
<path opacity="0.5" d="M263.238 193.262C263.238 193.262 254.089 195.245 227.587 198.671C188.931 203.669 158.464 179.03 163.739 144.33C166.705 124.817 177.854 109.507 189.717 100.391C189.323 100.385 188.931 100.38 188.535 100.38C156.459 100.38 128.916 117.779 117 142.623C116.94 142.633 116.877 142.641 116.81 142.646C116.583 142.664 116.313 142.649 116.014 142.591C115.716 142.534 115.395 142.446 115.064 142.324C114.732 142.2 114.391 142.049 114.049 141.877C113.364 141.525 112.674 141.094 112.006 140.608C111.672 140.366 111.342 140.11 111.019 139.846C110.882 139.734 110.749 139.62 110.618 139.506C110.763 139.377 110.904 139.246 111.044 139.113C111.49 138.688 111.901 138.231 112.293 137.76C112.684 137.288 113.05 136.798 113.39 136.293C113.732 135.787 114.056 135.272 114.354 134.744C114.431 134.612 114.503 134.479 114.576 134.346C114.649 134.214 114.722 134.082 114.793 133.939C114.939 133.66 115.072 133.374 115.199 133.085C115.452 132.504 115.667 131.898 115.823 131.257C115.978 130.618 116.078 129.943 116.07 129.232C116.061 128.524 115.934 127.766 115.611 127.045C115.29 126.327 114.782 125.671 114.148 125.185C113.52 124.699 112.809 124.372 112.068 124.192C111.326 124.011 110.548 123.966 109.757 124.09C108.97 124.21 108.156 124.531 107.464 125.092C107.381 125.16 107.288 125.236 107.213 125.303L107.029 125.484C106.908 125.606 106.781 125.724 106.664 125.851C106.435 126.111 106.2 126.366 105.997 126.651C105.78 126.924 105.599 127.223 105.407 127.518C105.238 127.823 105.061 128.127 104.923 128.448C104.628 129.082 104.397 129.745 104.241 130.416C103.914 131.762 103.851 133.133 103.958 134.468C104.073 135.803 104.359 137.104 104.812 138.373C105.041 139.008 105.312 139.634 105.664 140.265C105.723 140.367 105.781 140.468 105.842 140.57C105.336 140.678 104.816 140.741 104.299 140.753C103.752 140.766 103.203 140.722 102.66 140.624C102.387 140.582 102.121 140.508 101.852 140.44C101.59 140.353 101.322 140.278 101.067 140.166C100.029 139.761 99.077 139.123 98.2287 138.367C97.379 137.608 96.6359 136.717 95.9877 135.76C95.338 134.802 94.7788 133.779 94.2766 132.726C94.6971 133.814 95.1774 134.882 95.7599 135.901C96.3425 136.92 97.0301 137.891 97.855 138.753C98.6799 139.61 99.6391 140.37 100.738 140.902C101.009 141.045 101.295 141.151 101.578 141.268C101.867 141.366 102.157 141.47 102.457 141.541C103.052 141.696 103.664 141.792 104.282 141.826C104.899 141.859 105.521 141.832 106.136 141.743C106.301 141.718 106.466 141.69 106.629 141.658C106.648 141.678 106.669 141.7 106.689 141.722C106.774 141.811 106.85 141.894 106.945 141.984C106.97 142.005 106.996 142.027 107.021 142.049L107.27 142.319L107.537 142.597C107.716 142.779 107.895 142.956 108.078 143.131C108.441 143.48 108.815 143.819 109.202 144.149C109.974 144.807 110.803 145.426 111.716 145.99C112.636 146.546 113.642 147.055 114.834 147.388C114.866 147.397 114.902 147.404 114.934 147.413C112.19 154.547 110.7 162.203 110.7 170.171C110.7 188.104 118.243 204.455 130.638 216.817C134.96 221.125 138.176 226.415 139.917 232.263L144.158 246.514C144.594 247.98 145.942 248.984 147.47 248.984H174.842C176.351 248.984 177.724 248.105 178.355 246.733L180.642 241.753C181.206 240.525 182.461 239.763 183.81 239.835C185.373 239.919 186.949 239.962 188.535 239.962C190.033 239.962 191.52 239.922 192.998 239.846C194.346 239.778 195.598 240.538 196.162 241.765L198.258 246.329C199.003 247.948 200.62 248.986 202.403 248.986H228.504C230.522 248.986 232.3 247.66 232.875 245.726L237.763 229.303C238.949 225.32 241.178 221.724 244.238 218.913C251.135 212.579 256.701 205.072 260.523 196.756C261.152 195.386 262.086 194.195 263.241 193.262H263.238ZM109.468 138.434C109.453 138.415 109.438 138.396 109.425 138.377C109.362 138.3 109.301 138.207 109.238 138.116C108.99 137.748 108.759 137.319 108.557 136.872C108.154 135.974 107.857 135.001 107.695 134.022C107.37 132.062 107.622 130.079 108.634 128.504C108.752 128.301 108.901 128.118 109.04 127.927C109.113 127.834 109.195 127.747 109.272 127.655L109.389 127.52L109.468 127.444C109.662 127.247 109.949 127.077 110.308 126.993C111.018 126.81 111.941 126.94 112.561 127.355C112.871 127.552 113.122 127.823 113.307 128.152C113.491 128.482 113.608 128.888 113.65 129.34C113.735 130.25 113.542 131.298 113.195 132.3C113.107 132.551 113.014 132.802 112.907 133.049C112.858 133.171 112.799 133.3 112.742 133.427C112.684 133.554 112.628 133.682 112.567 133.808C112.331 134.314 112.071 134.808 111.796 135.291C111.522 135.774 111.225 136.244 110.906 136.696C110.586 137.147 110.249 137.585 109.882 137.993C109.748 138.144 109.609 138.29 109.469 138.434H109.468Z" fill="#D6B556"/>
<path opacity="0.2" d="M154.468 118.57C156.762 122.138 153.428 128.369 147.022 132.488C140.616 136.607 133.564 137.052 131.269 133.484C128.976 129.916 132.309 123.684 138.715 119.566C145.121 115.447 152.174 115.002 154.468 118.57Z" fill="white"/>
<path d="M207.51 110.663C184.932 103.283 165.057 110.56 164.86 110.634L163.391 107.774C163.61 107.692 168.841 105.752 177.064 104.772C184.637 103.87 196.292 103.653 208.814 107.746L207.51 110.663Z" fill="#12252D"/>
<path d="M138.569 112.433C138.569 112.433 137.756 113.76 137.829 114.153C137.902 114.545 138.88 118.706 139.419 118.982C139.957 119.257 141.322 119.204 141.016 119.744C140.784 120.153 138.346 120.695 136.719 121.013C136.245 121.106 134.71 117.518 134.386 117.016C133.915 116.286 132.805 114.655 132.909 114.037C132.96 113.736 133.389 113.034 134.062 112.312C134.77 111.551 135.271 110.129 135.271 110.129L138.567 112.433H138.569Z" fill="#F9F9F9"/>
<path d="M150.377 112.055C150.377 112.055 150.101 115.03 150.103 115.037C150.141 115.489 150.128 116.629 150.228 117.021C150.602 118.499 156.573 114.081 154.913 113.804C154.763 113.779 154.22 113.412 154.048 112.922C153.783 112.164 154.167 111.034 154.167 111.034L150.379 112.056L150.377 112.055Z" fill="white"/>
<path d="M147.957 58.5703C147.957 58.5703 149.681 63.3415 149.7 63.4145C151.704 71.3319 157.19 86.3987 157.268 87.9623C157.46 91.7772 154.312 112.282 154.312 112.282L149.948 112.849L149.853 89.2778L145.562 80.8669L138.222 63.9517L147.957 58.5703Z" fill="#12252D"/>
<path d="M134.837 66.4976L135.208 71.3403L137.868 90.9812L134.312 111.736C134.312 111.736 136.164 114.157 137.979 114.103L146.308 91.609L148.288 65.0231L146.622 59.6504L134.839 66.4976H134.837Z" fill="#868F93"/>
<path d="M134.109 112.272C134.109 112.272 138.372 118.649 139.432 118.741C139.714 118.766 141.013 118.678 141.385 119.169C141.498 119.316 141.736 120.055 141.736 120.055L136.386 121.594C136.386 121.594 134.941 118.278 134.338 116.988C134.338 116.988 132.126 114.021 132.202 113.681C132.278 113.341 134.109 112.272 134.109 112.272Z" fill="#12252D"/>
<path d="M149.963 117.776L150.126 114.999C150.126 114.999 151.9 115.271 152.672 114.956C153.445 114.64 154.894 113.792 154.894 113.792C158.359 114.034 161.107 113.883 160.845 114.85L149.964 117.776H149.963Z" fill="#12252D"/>
<path d="M183.34 41.6943C181.879 42.7046 182.097 42.9192 181.905 43.0433C181.679 43.1907 178.139 43.1163 178.139 43.1163C178.139 43.1163 167.7 42.9703 167.136 42.9426L157.379 38.1729L153.71 42.5805C153.71 42.5805 164.459 47.4728 165.065 47.6261C165.67 47.7794 179.813 46.2552 181.063 46.1632C181.063 46.1632 182.589 46.629 183.555 46.8874C184.522 47.1458 185.552 46.9414 185.836 46.9706C185.878 46.975 186.827 47.0144 188.009 46.737C189.028 46.4976 187.96 46.2377 187.96 46.2377C187.96 46.2377 185.998 46.3268 186.018 46.1632C186.034 46.0377 187.109 46.0552 188.239 45.8026C188.529 45.7384 188.815 45.6727 189.078 45.6099C189.769 45.4479 189.872 44.9588 189.125 45.0084C188.861 45.0259 188.423 45.0668 188.115 45.1413C187.782 45.223 187.452 45.1851 187.161 45.2084C186.586 45.2551 186.167 45.296 186.179 45.2712C186.193 45.2376 186.073 45.1632 186.38 45.0843C186.748 44.9894 187.573 44.969 188.104 44.785C188.405 44.6814 189.049 44.5047 189.049 44.5047C189.049 44.5047 190.145 44.1061 190.083 43.9558C189.945 43.6273 189.214 43.7558 188.821 43.9529C188.51 43.9441 187.84 44.1514 187.84 44.1514C187.84 44.1514 186.395 44.2507 186.38 44.0375C186.374 43.9529 187.163 43.712 187.97 43.3937C188.823 43.0564 189.421 42.7717 189.389 42.5907C189.338 42.3031 188.636 42.5206 188.636 42.5206C188.636 42.5206 188.015 42.7119 187.805 42.7601C187.558 42.8155 186.808 42.9221 186.808 42.9221C186.808 42.9221 184.18 43.1659 184.181 42.963C184.183 42.7601 184.389 42.2374 184.546 42.1629C184.704 42.0885 185.062 42.1118 185.219 42.0374C185.377 41.9629 185.703 41.7717 185.631 41.5614C185.56 41.3512 184.488 41.3585 184.488 41.3585C184.488 41.3585 183.762 41.4067 183.34 41.6987V41.6943Z" fill="white"/>
<path d="M163.888 40.9044C163.888 40.9044 163.025 43.0126 162.607 43.7689C162.261 44.3981 160.285 46.8553 160.285 46.8553C160.285 46.8553 155.873 44.1631 153.823 42.7352C151.336 41.0023 148.716 37.9144 148.99 37.6662C149.76 36.9698 150.917 36.2165 152.307 36.196C157.118 36.1274 163.886 40.903 163.886 40.903L163.888 40.9044Z" fill="#12252D"/>
<path d="M182.834 44.4405C183.562 44.2244 184.193 43.766 184.197 43.0024C184.615 43.7061 183.675 44.6011 182.834 44.4405Z" fill="white"/>
<path d="M156.271 36.9451C154.056 36.0195 149.812 35.2238 149.812 35.2238C149.812 35.2238 147.173 34.5157 146.284 34.615C144.974 34.7625 139.639 32.5243 134.274 67.3416L150.846 67.3693C149.747 64.1092 153.642 55.1056 154.084 53.561C155.073 50.1096 158.368 37.8196 156.27 36.9437L156.271 36.9451Z" fill="#868F93"/>
<path d="M152.516 30.6831L149.484 35.1477C149.484 35.1477 151.075 38.7932 152.893 39.0706C154.419 39.3042 154.403 37.0077 154.403 37.0077C154.403 37.0077 154.934 34.0965 155.8 32.8555C156.665 31.6146 152.515 30.6831 152.515 30.6831H152.516Z" fill="white"/>
<path d="M152.563 32.6C153.078 33.2731 153.96 34.1812 154.951 34.8031C155.176 34.0819 155.462 33.3417 155.801 32.857C156.201 32.2847 155.531 31.7781 154.696 31.3985C153.567 30.9722 152.518 30.6846 152.518 30.6846L151.935 31.543C152.028 31.8744 152.393 32.3767 152.564 32.6015L152.563 32.6Z" fill="#F9F9F9"/>
<path d="M151.767 23.4725C151.655 23.4185 150.247 29.3679 151.636 31.1826C153.023 32.9973 155.989 33.8441 157.201 32.6455C158.54 31.3198 159.115 24.8332 156.873 22.8842C154.63 20.9351 151.769 23.4725 151.769 23.4725H151.767Z" fill="white"/>
<path d="M154.906 20.3132C153.001 20.192 150.428 21.1235 149.05 22.9587C147.355 25.2158 148.257 28.435 149.828 29.9125C151.399 31.39 151.078 32.8018 151.078 32.8018L151.942 31.5316C151.942 31.5316 152.122 30.1067 151.799 29.1927C151.477 28.2788 152.82 27.8277 153.251 27.1386C153.583 26.6071 153.722 25.3297 154.249 24.4493C154.249 24.4493 156.08 23.2843 157.292 23.366C159.358 23.5047 157.635 20.4855 154.906 20.3132Z" fill="#12252D"/>
<path d="M152.624 28.3255C152.942 28.9649 152.89 29.6394 152.505 29.8307C152.121 30.022 151.55 29.657 151.231 29.0175C150.913 28.378 150.966 27.7035 151.351 27.5123C151.735 27.321 152.306 27.686 152.624 28.3255Z" fill="white"/>
<path d="M157.797 30.0657L155.315 29.5693C155.315 29.5693 155.183 30.5388 156.268 30.7899C157.591 31.095 157.797 30.0657 157.797 30.0657Z" fill="white"/>
<path d="M209.497 50.8948C211.294 39.0566 203.231 28.0151 191.489 26.2329C179.746 24.4507 168.77 32.6027 166.974 44.441C165.177 56.2792 173.24 67.3207 184.982 69.1029C196.725 70.8851 207.701 62.7331 209.497 50.8948Z" fill="url(#paint2_linear_324_629)"/>
<path d="M206.615 50.4573C208.168 40.2246 201.199 30.6806 191.049 29.1401C180.899 27.5997 171.412 34.6461 169.859 44.8788C168.306 55.1115 175.275 64.6555 185.425 66.196C195.575 67.7364 205.062 60.69 206.615 50.4573Z" fill="url(#paint3_linear_324_629)"/>
<path d="M184.422 61.3883L184.993 57.6887C180.933 56.3208 179.073 53.211 179.571 49.9831C180.074 46.7186 182.123 44.9914 186.675 44.133C189.938 43.4468 191.325 42.8818 191.509 41.6846C191.665 40.6685 191.061 39.5355 188.703 39.172C187.422 38.9749 186.338 39.0129 185.446 39.1326C184.256 39.2932 183.172 38.4318 183.056 37.2376C182.942 36.0827 183.775 35.0447 184.929 34.9206C185.873 34.8184 186.984 34.8082 188.313 34.9527L188.805 31.7612L192.36 32.3087L191.829 35.7542C195.592 37.1149 197.455 39.9633 196.963 43.1563C196.422 46.6748 193.493 48.0807 189.411 48.7888C186.587 49.2823 185.291 49.9743 185.079 51.3525C184.856 52.8037 186.148 53.8198 188.215 54.1381C189.634 54.3571 191.018 54.287 192.255 54.0666C193.468 53.8505 194.607 54.7236 194.728 55.9499L194.741 56.0842C194.851 57.1982 194.077 58.2056 192.973 58.3866C191.65 58.6041 190.078 58.6611 188.51 58.4917L187.979 61.9387L184.424 61.3912L184.422 61.3883Z" fill="#D6B556"/>
<g style="mix-blend-mode:multiply" opacity="0.3">
<path d="M190.43 29.053C196.152 29.729 200.953 32.9569 203.85 37.4755C200.921 33.9906 196.725 31.5744 191.864 30.9991C181.669 29.7947 172.414 37.15 171.195 47.4267C170.659 51.9365 171.761 56.2594 174.026 59.794C170.811 55.9689 169.122 50.8576 169.76 45.4805C170.979 35.2024 180.234 27.8485 190.429 29.053H190.43Z" fill="url(#paint4_linear_324_629)"/>
</g>
<path d="M175.356 55.0924C174.579 54.6412 173.918 53.7696 172.934 53.3346C172.602 53.1886 172.131 53.0703 171.612 52.9769C167.714 52.6455 157.584 51.8308 157.103 51.6206C156.535 51.3724 146.825 44.9485 146.825 44.9485L151.169 41.5264L159.927 47.6611C160.474 47.7867 170.684 49.7708 170.684 49.7708C170.684 49.7708 172.744 50.2292 173.827 50.3869C174.357 50.4307 174.835 50.3971 175.245 50.3519C175.762 50.2949 176.806 50.3139 177.048 50.3825C177.33 50.4628 177.905 50.6468 178.248 50.7621C178.593 50.8774 179.001 50.9986 179.177 51.0818C179.283 51.1329 179.546 51.1461 179.736 51.1505C180.018 51.1563 180.149 51.5081 179.937 51.6936C179.737 51.8688 179.356 51.8731 179.118 51.8746C178.449 51.8775 177.451 51.5023 177.455 51.6045C177.46 51.7067 178.847 52.8688 178.997 53.0119C179.147 53.155 180.75 54.5157 180.974 54.8836C181.197 55.25 181.007 55.4501 180.766 55.3917C180.559 55.3406 178.206 53.6251 178.206 53.6251C178.206 53.6251 177.905 53.4076 177.922 53.6047C177.94 53.8032 180.074 55.3654 180.349 55.6574C180.623 55.9494 180.67 56.2749 180.293 56.3056C179.835 56.3435 177.66 54.5361 177.66 54.5361C177.66 54.5361 177.384 54.3142 177.336 54.4602C177.287 54.6062 179.125 55.9041 179.235 56.1041C179.343 56.3027 179.255 56.5917 178.905 56.5494C178.493 56.4983 176.565 54.869 176.565 54.869C176.565 54.869 176.384 54.7872 176.392 54.9011C176.403 55.015 177.89 56.2341 177.944 56.4895C177.99 56.7042 177.798 56.748 177.798 56.748C177.411 56.9319 176.128 55.5464 175.35 55.0953L175.356 55.0924Z" fill="white"/>
<path d="M150.425 49.0716C150.425 49.0716 151.77 47.8116 152.566 46.8626C153.099 46.2261 155.365 43.3339 155.365 43.3339C155.365 43.3339 151.51 38.5408 149.719 37.0108C143.146 31.3958 141.877 38.0313 141.933 39.411C142.058 42.4959 150.425 49.0716 150.425 49.0716Z" fill="#12252D"/>
<path d="M54.313 237.208V247.244C54.313 248.866 72.4122 250.182 94.738 250.182C117.064 250.182 135.163 248.866 135.163 247.244V237.208H54.313Z" fill="url(#paint5_linear_324_629)"/>
<path d="M83.5678 250.068V237.208H54.313V247.244C54.313 248.585 66.6745 249.716 83.5678 250.068Z" fill="#D6B556"/>
<path d="M84.9299 250.094C88.0703 250.151 91.3552 250.182 94.738 250.182C99.7778 250.182 104.603 250.115 109.053 249.992V237.208H84.9299V250.094Z" fill="#D6B556"/>
<path d="M110.672 249.945C125.075 249.496 135.162 248.456 135.162 247.244V237.208H110.672V249.944V249.945Z" fill="#D6B556"/>
<path d="M94.738 240.039C117.064 240.039 135.163 238.724 135.163 237.102C135.163 235.48 117.064 234.165 94.738 234.165C72.4119 234.165 54.313 235.48 54.313 237.102C54.313 238.724 72.4119 240.039 94.738 240.039Z" fill="url(#paint6_linear_324_629)"/>
<path d="M94.7379 239.138C113.123 239.138 128.027 238.227 128.027 237.102C128.027 235.977 113.123 235.065 94.7379 235.065C76.3531 235.065 61.4492 235.977 61.4492 237.102C61.4492 238.227 76.3531 239.138 94.7379 239.138Z" fill="url(#paint7_linear_324_629)"/>
<path d="M47.3972 226.59V236.626C47.3972 238.248 65.4964 239.563 87.8222 239.563C110.148 239.563 128.247 238.248 128.247 236.626V226.59H47.3972Z" fill="url(#paint8_linear_324_629)"/>
<path d="M76.652 239.449V226.59H47.3972V236.626C47.3972 237.966 59.7587 239.098 76.652 239.449Z" fill="#D6B556"/>
<path d="M78.0127 239.476C81.1531 239.533 84.438 239.563 87.8207 239.563C92.8605 239.563 97.6857 239.496 102.136 239.374V226.59H78.0127V239.476Z" fill="#D6B556"/>
<path d="M103.756 239.325C118.159 238.876 128.246 237.836 128.246 236.624V226.589H103.756V239.324V239.325Z" fill="#D6B556"/>
<path d="M87.8222 229.421C110.148 229.421 128.247 228.106 128.247 226.484C128.247 224.861 110.148 223.546 87.8222 223.546C65.4961 223.546 47.3972 224.861 47.3972 226.484C47.3972 228.106 65.4961 229.421 87.8222 229.421Z" fill="url(#paint9_linear_324_629)"/>
<path d="M87.8221 228.52C106.207 228.52 121.111 227.608 121.111 226.484C121.111 225.359 106.207 224.447 87.8221 224.447C69.4373 224.447 54.5334 225.359 54.5334 226.484C54.5334 227.608 69.4373 228.52 87.8221 228.52Z" fill="url(#paint10_linear_324_629)"/>
<path d="M52.0049 215.689V225.725C52.0049 227.347 70.1041 228.662 92.4298 228.662C114.756 228.662 132.855 227.347 132.855 225.725V215.689H52.0049Z" fill="url(#paint11_linear_324_629)"/>
<path d="M81.2597 228.548V215.689H52.0049V225.725C52.0049 227.065 64.3664 228.196 81.2597 228.548Z" fill="#D6B556"/>
<path d="M82.6218 228.574C85.7622 228.631 89.0471 228.662 92.4299 228.662C97.4697 228.662 102.295 228.595 106.745 228.472V215.689H82.6218V228.574Z" fill="#D6B556"/>
<path d="M108.364 228.424C122.767 227.974 132.853 226.935 132.853 225.723V215.687H108.364V228.423V228.424Z" fill="#D6B556"/>
<path d="M92.4298 218.519C114.756 218.519 132.855 217.204 132.855 215.582C132.855 213.96 114.756 212.645 92.4298 212.645C70.1038 212.645 52.0049 213.96 52.0049 215.582C52.0049 217.204 70.1038 218.519 92.4298 218.519Z" fill="url(#paint12_linear_324_629)"/>
<path d="M92.4298 217.619C110.815 217.619 125.718 216.707 125.718 215.582C125.718 214.457 110.815 213.545 92.4298 213.545C74.045 213.545 59.1411 214.457 59.1411 215.582C59.1411 216.707 74.045 217.619 92.4298 217.619Z" fill="url(#paint13_linear_324_629)"/>
<path d="M47.3972 204.936V214.972C47.3972 216.594 65.4964 217.909 87.8222 217.909C110.148 217.909 128.247 216.594 128.247 214.972V204.936H47.3972Z" fill="url(#paint14_linear_324_629)"/>
<path d="M76.652 217.795V204.936H47.3972V214.972C47.3972 216.312 59.7587 217.444 76.652 217.795Z" fill="#D6B556"/>
<path d="M78.0127 217.822C81.1531 217.879 84.438 217.909 87.8207 217.909C92.8605 217.909 97.6857 217.842 102.136 217.719V204.936H78.0127V217.822Z" fill="#D6B556"/>
<path d="M103.756 217.671C118.159 217.222 128.246 216.182 128.246 214.97V204.935H103.756V217.67V217.671Z" fill="#D6B556"/>
<path d="M87.8222 207.767C110.148 207.767 128.247 206.452 128.247 204.829C128.247 203.207 110.148 201.892 87.8222 201.892C65.4961 201.892 47.3972 203.207 47.3972 204.829C47.3972 206.452 65.4961 207.767 87.8222 207.767Z" fill="url(#paint15_linear_324_629)"/>
<path d="M87.8221 206.866C106.207 206.866 121.111 205.954 121.111 204.829C121.111 203.705 106.207 202.793 87.8221 202.793C69.4373 202.793 54.5334 203.705 54.5334 204.829C54.5334 205.954 69.4373 206.866 87.8221 206.866Z" fill="url(#paint16_linear_324_629)"/>
<path d="M180.797 223.504H109.979V249.278H180.797V223.504Z" fill="#F9F9F9"/>
<path d="M180.797 227.26H109.979V230.576H180.797V227.26Z" fill="white"/>
<path d="M180.797 233.737H109.979V237.052H180.797V233.737Z" fill="white"/>
<path d="M180.797 240.213H109.979V243.529H180.797V240.213Z" fill="white"/>
<path d="M180.797 245.963H109.979V249.278H180.797V245.963Z" fill="white"/>
<path d="M154.433 223.504H139.705V249.278H154.433V223.504Z" fill="url(#paint17_linear_324_629)"/>
<path d="M110.837 223.504H100.143V249.278H110.837V223.504Z" fill="#12252D"/>
<path d="M184.029 176.071C183.92 176.449 183.857 176.575 183.717 176.829C182.816 178.468 180.727 180.807 180.727 180.807L179.111 177.166C179.111 177.166 179.375 176.023 179.832 174.388C181.393 174.795 182.88 175.032 184.031 176.071H184.029Z" fill="white"/>
<path d="M174.763 172.913C174.763 172.913 183.778 176.795 184.069 176.721C184.257 176.672 187.767 170.797 187.803 165.273C187.821 162.721 185.171 159.652 182.215 160.259C180.725 160.565 180.749 160.979 178.547 164.179C176.346 167.38 174.763 172.914 174.763 172.914V172.913Z" fill="white"/>
<path d="M167.069 242.512C167.069 242.512 167.282 246.053 167.284 246.06C167.363 246.51 167.672 247.621 167.672 248.028C167.672 249.563 160.383 246.724 162.016 246.044C162.164 245.983 162.939 245.517 162.987 244.994C163.062 244.19 163.253 242.561 163.253 242.561L167.069 242.511V242.512Z" fill="white"/>
<path d="M162.034 246.031C162.034 246.031 163.745 246.501 164.622 246.618C165.498 246.735 166.654 245.746 167.275 246.014C167.957 246.307 167.93 248.952 167.93 248.952C167.93 248.952 158.753 249.706 156.172 248.926C155.15 248.618 158.536 247.123 162.035 246.03L162.034 246.031Z" fill="#12252D"/>
<path d="M181.98 242.512C181.98 242.512 182.193 246.053 182.194 246.06C182.273 246.51 182.583 247.621 182.583 248.028C182.583 249.563 175.293 246.724 176.927 246.044C177.074 245.983 178.079 245.17 178.128 244.647C178.203 243.842 178.163 242.561 178.163 242.561L181.98 242.511V242.512Z" fill="white"/>
<path d="M176.946 246.031C176.946 246.031 178.657 246.501 179.534 246.618C180.41 246.735 181.567 245.746 182.187 246.014C182.869 246.307 182.897 248.952 182.897 248.952C182.897 248.952 173.677 249.83 171.084 248.926C170.077 248.576 173.448 247.123 176.947 246.03L176.946 246.031Z" fill="#12252D"/>
<path d="M179.752 178.033L173.332 169.04C173.306 168.961 173.248 168.8 173.159 168.554C172.836 167.661 172.163 165.804 171.576 163.956L171.57 163.937C171.386 163.292 170.996 162.165 170.618 161.076C170.198 159.864 169.678 158.362 169.659 158.105C169.675 158.061 169.706 157.982 169.745 157.878C169.98 157.267 170.299 155.812 170.411 155.179C170.483 154.776 170.554 153.796 170.075 153.796C169.322 153.796 169.681 154.774 169.334 155.385C169.205 154.976 168.948 154.167 168.812 153.347L168.687 151.434C168.662 151.289 168.815 150.235 168.288 150.235H168.263C167.789 150.27 167.799 151.392 167.602 153.29C167.539 153.072 167.478 152.808 167.43 152.565C167.436 152.436 167.341 151.866 167.269 151.564C167.364 151.035 167.309 150.202 166.746 150.281C166.465 150.32 166.488 151.484 166.488 151.484C166.491 151.643 166.507 152.874 166.5 153.116C166.441 152.703 166.217 150.943 165.774 150.943C165.408 150.943 165.378 151.418 165.386 151.792C165.39 152.014 165.621 153.92 165.633 154.142C165.46 153.853 165.256 152.173 165.085 152.173C164.371 152.173 164.63 154.563 164.891 155.185C164.916 155.249 164.942 155.373 164.973 155.518C165.062 155.944 165.211 156.656 165.584 157.296C166.033 158.062 166.652 159.283 166.745 159.47C166.814 159.851 167.028 161.22 167.3 162.943C167.415 163.68 167.542 164.489 167.674 165.326H167.681C167.706 165.507 167.839 166.082 168.347 168.244C169.042 171.203 169.113 171.33 169.145 171.386C169.447 171.92 176.369 181.321 176.664 181.719L176.838 181.956L179.753 178.032L179.752 178.033Z" fill="white"/>
<path d="M167.811 157.058C167.811 157.058 168.332 155.725 169.259 155.723C169.259 155.723 168.741 155.537 168.297 155.888C167.853 156.24 167.811 157.058 167.811 157.058Z" fill="#F9F9F9"/>
<path d="M181.304 154.482L182.13 159.709C182.13 159.709 178.981 162.238 177.146 161.705C175.606 161.257 176.663 159.243 176.663 159.243C176.663 159.243 177.483 156.453 177.232 154.99C176.981 153.528 181.305 154.482 181.305 154.482H181.304Z" fill="white"/>
<path d="M180.71 156.062C179.92 156.434 178.36 156.944 177.146 157.066C177.263 156.335 177.328 155.561 177.23 154.99C177.114 154.316 177.974 154.155 178.931 154.179C180.185 154.287 181.304 154.482 181.304 154.482L181.463 155.487C181.225 155.738 180.974 155.938 180.711 156.062H180.71Z" fill="white"/>
<path d="M185.278 148.454C185.408 148.454 184.032 154.294 181.905 155.298C179.778 156.303 176.604 155.779 176.01 154.206C175.351 152.466 177.753 146.509 180.746 145.753C183.739 144.997 185.278 148.454 185.278 148.454Z" fill="white"/>
<path d="M182.816 143.089C184.516 144.068 185.295 145.523 185.558 146.118C186.355 146.496 187.32 147.315 187.785 149.521C188.354 152.234 186.329 154.325 184.181 154.954C182.034 155.583 181.702 157.004 181.702 157.004L181.459 155.475C181.459 155.475 181.936 154.144 182.654 153.478C183.373 152.812 182.314 151.841 182.221 151.049C182.149 150.438 182.599 149.254 182.501 148.254C182.501 148.254 181.308 146.447 180.131 145.999C178.127 145.236 180.635 141.832 182.815 143.09L182.816 143.089Z" fill="#12252D"/>
<path d="M181.911 152.063C181.632 152.738 181.746 153.406 182.165 153.558C182.584 153.71 183.148 153.285 183.427 152.612C183.704 151.938 183.592 151.269 183.173 151.117C182.754 150.965 182.19 151.39 181.911 152.063Z" fill="white"/>
<path d="M173.986 178.178L161.603 176.159C161.603 176.159 163.012 172.611 163.516 172.611C164.019 172.611 172.88 176.478 172.88 176.478L173.585 177.893L173.988 178.176L173.986 178.178Z" fill="white"/>
<path d="M180.33 186.669C180.33 186.669 181.565 192.641 181.061 197.169C180.558 201.698 180.518 217.784 180.518 217.784L182.439 243.521L177.881 243.621C177.881 243.621 172.477 217.894 172.577 218.556C172.678 219.216 170.766 200.442 170.766 200.442L177.21 186.102L180.331 186.669H180.33Z" fill="#12252D"/>
<path d="M179.121 186.385C179.121 186.385 179.927 191.763 178.92 194.122C177.912 196.481 170.284 219.622 170.183 221.509C170.083 223.396 167.545 244.251 167.545 244.251L162.245 244.102L161.099 220.915L163.501 191.773L165.833 184.404L179.123 186.385H179.121Z" fill="#12252D"/>
<path d="M182.13 159.709C182.13 159.709 180.823 160.566 179.604 160.467C178.385 160.367 176.661 159.242 176.661 159.242L176.9 158.43C176.9 158.43 180.054 157.97 180.134 158.02C180.213 158.069 182.13 159.708 182.13 159.708V159.709Z" fill="white"/>
<path d="M168.199 172.437C168.199 172.437 163.515 176.858 161.4 176.103C159.286 175.348 158.41 172.769 163.569 168.995C168.186 165.616 168.199 172.439 168.199 172.439V172.437Z" fill="white"/>
<path d="M165.025 177.894C165.722 174.109 170.764 162.328 171.167 160.159C171.363 159.103 174.083 159.08 176.674 159.219C179.412 159.365 182.13 159.711 182.13 159.711C182.13 159.711 184.552 160.109 185.619 161.108C186.685 162.106 186.968 164.869 185.437 170.113C184.227 174.252 182.727 176.525 181.986 179.54C181.835 180.552 181.707 181.549 181.536 182.715C181.263 187.224 181.539 193.18 181.539 193.18C181.539 193.18 168.349 195.916 163.415 191.765C163.415 191.765 164.313 181.776 165.025 177.897V177.894Z" fill="#F9F9F9"/>
<path d="M161.663 169.755C161.663 169.755 166.838 174.027 167.141 174.027C167.335 174.027 174.527 168.738 176.187 164.391C177.105 161.988 175.179 159.3 172.98 159.309C171.456 159.315 170.779 159.708 167.758 162.255C164.738 164.803 161.663 169.755 161.663 169.755Z" fill="white"/>
<path d="M176.709 152.112C176.709 152.112 176.435 152.804 177.203 153.188C178.137 153.656 178.477 152.935 178.477 152.935L176.711 152.112H176.709Z" fill="white"/>
<path d="M82.0991 93.3716C82.0991 93.3716 81.6232 95.7134 81.245 96.5733C81.0465 97.0259 80.172 98.7705 80.172 98.7705L79.7646 103.513L76.1819 103.037C76.1819 103.037 77.3951 99.6202 76.9834 98.5939C76.6608 97.7865 76.4593 96.093 76.4797 95.6696C76.5498 94.2257 82.0977 93.373 82.0977 93.373L82.0991 93.3716Z" fill="white"/>
<path d="M37.4167 96.2636C37.4167 96.2636 41.0506 98.6083 41.747 99.2448C42.1135 99.5792 43.626 100.823 43.626 100.823L45.9371 104.994L49.0191 103.121C49.0191 103.121 46.5138 100.484 46.47 99.3806C46.4349 98.5119 45.9254 96.8841 45.7342 96.5045C45.0801 95.2124 37.4167 96.2636 37.4167 96.2636Z" fill="white"/>
<path d="M66.3986 110.76C66.3986 110.76 64.5313 108.809 63.0304 111.182C63.0304 111.182 61.8742 110.538 61.0624 111.684C61.0624 111.684 58.9732 111.06 58.4651 114.157C58.4651 114.157 57.3891 113.955 57.2475 115.223C57.1059 116.488 57.7541 117.334 57.7541 117.334C57.7541 117.334 57.1497 117.782 57.4242 118.947C57.6578 119.937 58.4841 120.087 58.4841 120.087C58.4841 120.087 58.7075 121.756 59.4375 122.258C60.1675 122.76 61.1617 122.52 61.1617 122.52C61.1617 122.52 61.4259 123.425 62.2771 123.344C63.1283 123.264 64.1838 122.46 65.1386 122.822C66.092 123.184 68.5681 122.801 68.5681 122.801C68.5681 122.801 71.3479 121.575 70.5157 118.76C70.5157 118.76 71.9771 117.454 70.6982 115.886C70.6982 115.886 71.6311 113.433 69.7857 111.986C67.9389 110.539 66.3971 110.76 66.3971 110.76H66.3986Z" fill="#12252D"/>
<path d="M45.6524 179.629C45.6524 179.629 42.4346 179.266 41.9003 179.006C41.3674 178.746 38.665 181.302 39.2008 182.584C39.503 183.307 40.4578 183.215 40.4578 183.215L41.2301 182.469L45.3137 183.313L45.6524 179.631V179.629Z" fill="white"/>
<path d="M64.0204 193.065C64.0204 193.065 62.3254 195.8 61.8625 196.169C61.3997 196.538 62.594 200.045 63.9941 200.107C64.7825 200.142 65.1022 199.245 65.1022 199.245L64.746 198.236L67.2454 194.927L64.0204 193.065Z" fill="white"/>
<path d="M61.9646 196.062C61.9646 196.062 62.9384 197.292 63.4698 197.782C64.156 198.415 65.0334 199.032 65.0334 199.032C65.0334 199.032 66.0277 200.821 66.2992 201.445C66.9051 202.835 67.584 204.383 67.4862 205.161C67.4541 205.411 66.889 205.675 66.416 205.532C64.4509 204.933 59.4286 200.381 58.795 199.159C58.0636 197.75 61.9631 196.064 61.9631 196.064L61.9646 196.062Z" fill="#12252D"/>
<path d="M76.3014 154.405C76.1189 153.9 75.9437 153.431 75.7744 152.992C73.6852 153.443 71.3258 153.941 68.8979 154.453L68.6015 163.269C68.6015 162.588 70.4265 177.33 70.4265 177.33C70.4265 177.33 65.467 187.088 62.2419 193.119C63.5661 194.756 64.5837 195.473 66.5007 196.588C71.5083 190.64 77.9088 180.156 78.1804 178.346C78.3366 177.305 78.4782 160.477 76.2999 154.407L76.3014 154.405Z" fill="#868F93"/>
<path d="M57.6535 156.956C58.2214 163.067 59.1602 172.318 59.3325 175.43C55.3453 176 45.9227 178.807 44.1663 178.804C43.5021 180.28 43.1342 182.072 43.594 183.543C43.6846 183.834 62.1794 184.418 66.9535 181.398C68.1988 180.612 68.5828 172.17 68.6018 163.27L68.8981 154.455C64.854 155.309 61.1341 156.147 57.6535 156.957V156.956Z" fill="#868F93"/>
<path d="M70.9361 125.644L66.3971 126.321C66.3971 126.321 62.9764 126.374 62.0625 126.383C61.9836 126.383 58.4228 143.59 57.557 150.066C56.6912 156.541 57.3614 157.689 57.3614 157.689C57.3614 157.689 63.3983 159.033 67.8644 158.642C72.5085 158.235 77.7337 155.75 77.7337 155.75C77.7337 155.75 73.4692 143.13 72.6822 139.244C71.8953 135.359 70.9361 125.644 70.9361 125.644Z" fill="#868F93"/>
<path d="M80.2669 101.633C80.2669 101.633 79.8683 117.573 79.3807 118.556C78.6711 119.984 73.5934 130.16 73.5934 130.16C73.5934 130.16 77.4126 145.993 79.0186 151.462C79.1806 152.012 79.896 155.569 79.896 155.916C79.896 156.686 76.5177 157.661 76.1162 157.604C75.757 157.553 72.8094 142.491 70.9275 135.121C70.2895 132.623 69.1959 130.263 67.6995 128.157L66.3914 126.314L74.1482 117.014C74.1482 117.014 75.8271 102.296 75.8271 101.376C75.8271 101.136 79.7807 100.731 80.2683 101.635L80.2669 101.633Z" fill="url(#paint18_linear_324_629)"/>
<path d="M62.0625 126.383L54.2911 114.771C54.2911 114.771 49.2469 102.572 49.1228 102.122C49.0016 101.68 45.0364 102.187 43.7823 102.065C43.3808 102.026 49.0629 114.872 49.663 117.013C50.3711 119.543 54.1641 129.438 54.1641 129.438C54.1641 129.438 56.7847 135.364 56.3759 139.943C55.697 147.548 54.3495 158.506 54.678 158.835C56.7132 160.105 63.118 160.06 63.613 159.27C69.0732 150.558 62.0625 126.384 62.0625 126.384V126.383Z" fill="url(#paint19_linear_324_629)"/>
<path d="M66.0832 123.999L66.4205 126.482C66.4205 126.482 67.1768 130.06 66.203 130.751C65.2292 131.44 62.061 126.381 62.061 126.381L62.3954 120.087L66.0818 123.999H66.0832Z" fill="white"/>
<path d="M62.2888 122.126C63.0933 124.272 65.0087 125.591 66.3694 126.104L66.0833 123.999L62.3969 120.087L62.2888 122.127V122.126Z" fill="#F9F9F9"/>
<path d="M57.2139 115.81C57.2139 116.769 57.7643 117.546 58.4432 117.546C59.122 117.546 59.6724 116.769 59.6724 115.81C59.6724 114.85 59.122 114.074 58.4432 114.074C57.7643 114.074 57.2139 114.85 57.2139 115.81Z" fill="#12252D"/>
<path d="M60.9019 112.078C60.9019 112.628 61.572 113.075 62.3969 113.075C63.2217 113.075 63.8919 112.628 63.8919 112.078C63.8919 111.527 63.2232 111.081 62.3969 111.081C61.5705 111.081 60.9019 111.527 60.9019 112.078Z" fill="#12252D"/>
<path d="M64.648 113.475C66.6248 112.8 68.7315 114.101 69.0323 116.12C69.1637 116.998 69.282 118.102 69.3039 119.308C69.3564 122.208 67.841 125.032 66.5109 125.032C65.1809 125.032 61.5062 123.155 61.3733 119.036C61.2916 116.493 62.572 114.183 64.6466 113.476L64.648 113.475Z" fill="white"/>
<path d="M62.3544 119.36C62.3544 120 61.9267 120.52 61.3982 120.52C60.8697 120.52 60.4419 120.001 60.4419 119.36C60.4419 118.719 60.8697 118.201 61.3982 118.201C61.9267 118.201 62.3544 118.719 62.3544 119.36Z" fill="white"/>
<path d="M70.4077 112.031C71.7816 113.109 72.2619 114.747 71.4823 115.69C70.7026 116.633 68.9565 116.522 67.5842 115.445C66.2118 114.367 65.73 112.729 66.5096 111.786C67.2892 110.844 69.0354 110.954 70.4077 112.031Z" fill="#12252D"/>
<path d="M66.8177 112.915C66.8177 113.383 66.2468 113.763 65.5431 113.763C64.8394 113.763 64.2686 113.383 64.2686 112.915C64.2686 112.446 64.8394 112.066 65.5431 112.066C66.2468 112.066 66.8177 112.446 66.8177 112.915Z" fill="#12252D"/>
<path d="M69.523 117.61C70.1245 117.61 70.6121 117.122 70.6121 116.519C70.6121 115.917 70.1245 115.429 69.523 115.429C68.9215 115.429 68.4338 115.917 68.4338 116.519C68.4338 117.122 68.9215 117.61 69.523 117.61Z" fill="#12252D"/>
<path d="M42.042 179.051C42.042 179.051 41.3296 180.445 41.1062 181.13C40.8186 182.013 40.6244 183.063 40.6244 183.063C40.6244 183.063 39.4097 184.713 38.9542 185.221C37.9395 186.352 36.6971 187.69 35.9452 187.93C35.7029 188.008 35.0167 187.805 35.024 187.276C35.0488 185.24 37.0227 178.603 37.8709 177.517C38.8506 176.264 42.042 179.051 42.042 179.051Z" fill="#12252D"/>
<path d="M40.4536 97.6304C40.4536 97.6304 41.3968 98.6859 42.5297 98.848C43.6641 99.01 44.6612 97.8465 44.6612 97.8465L40.4536 97.6304Z" fill="#F9F9F9"/>
<path d="M76.7979 95.6476L76.9993 95.9542C76.9993 95.9542 80.0375 96.0622 81.3062 94.957L76.7979 95.6476Z" fill="#F9F9F9"/>
<path d="M21.9967 65.1664C46.4029 68.2148 71.4004 66.4146 95.6709 59.8623C97.7367 70.1215 99.804 80.3821 101.87 90.6427C73.8079 98.22 44.9064 100.3 16.6868 96.7761C18.4562 86.2395 20.2272 75.7044 21.9967 65.1678V65.1664Z" fill="#12252D"/>
<path d="M95.2008 66.0818C96.4389 72.4998 97.6769 78.9163 98.915 85.3343C96.3586 86.003 94.5935 88.3754 94.9818 90.7026C71.3815 96.325 47.2731 98.0608 23.5603 95.8446C23.8815 93.4678 22.0522 91.3538 19.4827 91.0545C20.5353 84.4715 21.5879 77.89 22.642 71.307C25.0072 71.5829 27.1913 69.8295 27.5125 67.4541C48.3345 69.4003 69.5069 67.8761 90.2311 62.9385C90.6195 65.2627 92.8488 66.6979 95.2008 66.0832V66.0818Z" fill="white"/>
<path d="M45.9957 83.0817C46.3271 77.0462 51.4137 72.1597 57.3601 71.7742C63.3065 71.4019 68.4515 75.6358 68.8617 81.6231C69.2734 87.6002 64.1927 93.1452 57.5032 93.5671C50.8136 93.9978 45.6629 89.1055 45.9957 83.0802V83.0817Z" fill="#F9F9F9"/>
<path d="M57.9614 73.6343C57.9848 74.2854 58.0081 74.9366 58.0315 75.5877C58.9308 75.5439 59.8185 75.6213 60.5572 75.7775C61.1733 75.9074 61.5558 76.4914 61.4288 77.1148C61.423 77.1397 61.4186 77.1645 61.4128 77.1907C61.2726 77.8784 60.5645 78.3427 59.8798 78.1879C59.1834 78.0302 58.395 77.9499 57.5672 78.0244C56.3613 78.1324 55.5466 78.6507 55.5671 79.4741C55.5875 80.2552 56.2824 80.699 57.8899 81.0699C60.2127 81.5998 61.8449 82.4452 61.9573 84.4366C62.0595 86.2411 60.7733 87.8178 58.4111 88.4704C58.4359 89.1216 58.4622 89.7727 58.4884 90.4239C57.757 90.491 57.0256 90.5553 56.2941 90.6166C56.2766 90.0136 56.2576 89.4092 56.2401 88.8062C55.4313 88.8398 54.7641 88.7887 54.2064 88.6924C53.5231 88.5741 53.1114 87.9536 53.2764 87.3112C53.4457 86.6469 54.1582 86.2119 54.8502 86.3491C55.37 86.4528 56.0123 86.5156 56.789 86.4499C58.2198 86.3258 58.6578 85.7038 58.6344 85.1286C58.6082 84.4482 57.8242 84.0949 55.9598 83.5898C53.3523 82.9328 52.3099 81.8524 52.2909 79.9997C52.2763 78.1631 53.5917 76.5221 55.9861 75.9133C55.9671 75.214 55.9481 74.5132 55.9306 73.8139C56.608 73.7584 57.2854 73.6985 57.9629 73.6357L57.9614 73.6343Z" fill="#12252D"/>
<path d="M72.1582 80.6377C77.9178 79.8551 83.6613 78.8288 89.377 77.5615C89.5332 78.5631 89.6895 79.5661 89.8442 80.5676C84.0482 81.8538 78.2229 82.8933 72.383 83.6875C72.3071 82.6714 72.2327 81.6538 72.1567 80.6377H72.1582Z" fill="#F9F9F9"/>
<path d="M25.7518 81.667C31.4836 82.197 37.2402 82.4802 43.0071 82.5196C42.9472 83.5445 42.8859 84.5709 42.8246 85.5958C36.9774 85.5563 31.1405 85.2687 25.3284 84.7315C25.47 83.7095 25.6101 82.689 25.7518 81.667Z" fill="#F9F9F9"/>
<path d="M44.0596 98.5779C44.0596 98.5779 44.9341 97.8128 44.9896 96.639C44.9969 96.493 44.5925 95.182 45.1005 95.0929C45.9458 94.9455 46.3108 98.864 46.3108 98.864C46.3108 98.864 45.1312 98.4479 44.0581 98.5779H44.0596Z" fill="white"/>
<path d="M78.1279 97.0477C78.1279 97.0477 80.5106 94.8796 81.042 93.8284C81.1077 93.697 81.2756 92.3378 81.7764 92.4605C82.61 92.6648 81.5705 95.6184 81.5705 95.6184C81.5705 95.6184 79.1616 97.3586 78.1279 97.0477Z" fill="white"/>
<path d="M103.536 160.436C102.62 158.235 101.69 156.027 99.315 154.912C97.3937 154.009 95.3862 154.348 93.6795 155.633C88.8427 159.271 93.0576 163.279 87.5506 170.177C85.8395 172.32 83.7693 174.05 82.7429 176.563C81.3078 180.079 83.0174 181.768 85.7563 183.451C98.8639 191.507 105.734 174.966 105.488 171.182C105.304 168.367 104.124 161.854 103.536 160.436Z" fill="#12252D"/>
<path d="M117.138 203.31C116.585 203.222 115.243 202.261 114.77 202.174C114.402 202.107 113.609 201.985 113.271 201.936C112.856 200.388 110.751 191.948 110.516 189.475C110.26 186.795 108.365 175.201 108.365 175.201L103.458 176.093C103.458 176.093 105.496 185.012 106.06 189.336C106.543 193.05 110.619 201.403 111.138 202.285C111.138 202.307 111.138 202.327 111.141 202.349C111.219 203.66 111.852 203.224 111.852 203.224L112.878 203.486C112.878 203.486 116.509 203.835 116.747 203.923C116.983 204.01 117.694 203.399 117.141 203.311L117.138 203.31Z" fill="white"/>
<path d="M104.085 168.424C107.553 169.601 109.526 179.03 109.526 179.03C109.526 179.03 104.083 180.55 102.689 179.753C102.689 179.753 101.106 172.737 100.538 172.982L104.085 168.422V168.424Z" fill="#E5B05C"/>
<path d="M130.919 219.604C131.98 222.403 132.531 225.1 132.58 225.427C132.604 225.583 132.383 226.345 132.404 226.507C134.534 229.414 137.597 230.049 140.222 230.234C138.885 228.928 136.919 227.691 136.825 227.278C136.674 226.619 135.867 223.688 135.468 219.625C133.836 220.379 132.728 219.781 130.917 219.604H130.919Z" fill="white"/>
<path d="M100.728 188.285L96.0403 201.489C96.0403 201.489 103.574 202.907 106.391 203.424C109.208 203.94 124.945 204.628 125.343 204.907C125.64 205.114 128.889 215.629 130.342 221.426C131.989 221.788 134.81 221.353 136.309 220.837C135.499 212.541 132.572 199.4 131.634 197.969C130.107 195.639 100.728 188.285 100.728 188.285Z" fill="#12252D"/>
<path d="M119.042 225.393C119.56 228.342 119.595 231.094 119.584 231.424C119.578 231.582 119.217 232.288 119.207 232.452C120.756 235.706 123.644 236.905 126.189 237.578C125.12 236.045 123.422 234.461 123.406 234.036C123.381 233.362 123.137 230.329 123.508 226.265C121.762 226.701 120.787 225.906 119.042 225.392V225.393Z" fill="white"/>
<path d="M95.2548 188.971L93.4356 192.077C90.6676 196.805 92.7889 202.889 97.8973 204.87C97.925 204.88 97.9513 204.892 97.9791 204.902C100.649 205.937 115.979 209.561 116.318 209.911C116.57 210.171 117.792 221.108 118.132 227.075C119.683 227.739 122.534 227.84 124.105 227.614C124.863 219.314 124.451 205.856 123.797 204.275C122.734 201.699 95.2533 188.971 95.2533 188.971H95.2548Z" fill="#12252D"/>
<path d="M119.819 231.514C119.41 231.063 117.912 233.544 117.538 234.074C117.118 234.669 117.237 235.118 117.287 235.211C117.42 235.456 125.321 240.105 127.248 240.436C127.431 240.467 127.746 240.353 127.825 240.283C128.578 239.616 125.111 234.694 123.555 234.048C122.549 233.63 121.654 233.544 119.819 231.516V231.514Z" fill="#12252D"/>
<path d="M132.833 225.516C132.348 225.149 131.341 227.868 131.072 228.458C130.77 229.122 130.971 229.539 131.039 229.621C131.215 229.837 139.848 232.924 141.803 232.887C141.987 232.884 142.276 232.712 142.34 232.627C142.955 231.832 138.627 227.646 136.978 227.301C135.91 227.079 135.017 227.163 132.833 225.514V225.516Z" fill="#12252D"/>
<path d="M100.795 168.396C100.884 168.396 101.013 168.365 101.146 168.324C101.79 168.209 103.198 168.041 104.295 168.503C105.628 169.065 107.694 174.321 107.571 179.714C107.521 180.539 107.472 181.277 107.429 181.791C107.094 185.866 105.924 193.512 105.861 193.551C104.272 194.575 94.6767 190.606 94.0182 189.735C93.3583 188.863 92.97 178.273 92.6488 177.746L92.0181 168.535C93.1306 168.203 99.0916 168.383 100.797 168.396H100.795Z" fill="url(#paint20_linear_324_629)"/>
<path d="M96.906 165.004C96.906 165.004 97.5236 168.199 97.3995 169.46C97.2754 170.722 97.871 174.783 100.538 174.796C103.206 174.81 101.045 169.633 100.794 168.397C100.543 167.162 100.483 163.339 100.483 163.339L96.906 165.004Z" fill="white"/>
<path d="M100.54 165.256C100.499 164.21 100.484 163.337 100.484 163.337L96.9075 165.003C96.9075 165.003 97.0345 165.656 97.1615 166.489C98.728 166.805 99.8624 166.225 100.541 165.256H100.54Z" fill="#F9F9F9"/>
<path d="M95.5994 156.186C95.5994 156.186 94.2212 156.951 93.7175 158.608C93.2138 160.265 93.7875 164.543 97.3484 165.575C100.909 166.607 102.452 163.22 101.718 160.572C100.985 157.924 99.3894 154.572 95.5994 156.185V156.186Z" fill="white"/>
<path d="M102.163 159.546C102.093 160.257 101.701 160.8 101.288 160.76C100.873 160.719 100.594 160.111 100.664 159.4C100.734 158.689 101.127 158.145 101.54 158.185C101.955 158.226 102.234 158.835 102.163 159.546Z" fill="white"/>
<path d="M96.017 155.97C96.017 155.97 95.3717 160.741 93.8285 161.603C92.2853 162.464 92.9321 164.58 92.9321 164.58C92.9321 164.58 91.5335 159.665 92.7525 158.086C93.9716 156.507 96.017 155.969 96.017 155.969V155.97Z" fill="#12252D"/>
<path d="M94.7423 162.288C95.1598 162.909 95.1584 163.642 94.7394 163.926C94.3189 164.209 93.64 163.933 93.221 163.312C92.802 162.691 92.8049 161.958 93.2239 161.674C93.6444 161.391 94.3233 161.667 94.7423 162.288Z" fill="white"/>
<path d="M99.9311 162.553L97.4214 163.185C97.4214 163.185 97.7236 164.139 98.8346 163.893C100.191 163.594 99.9311 162.555 99.9311 162.555V162.553Z" fill="white"/>
<path d="M76.4051 202.358C76.4504 202.244 76.5497 202.241 76.6519 202.238C77.6446 202.207 78.6374 202.164 79.6214 202.016C79.7864 201.991 79.947 201.955 80.0988 201.895C80.3733 201.785 80.6434 201.788 80.9193 201.864C81.0697 201.905 81.2216 201.914 81.3763 201.912C81.8756 201.911 83.3005 201.426 84.032 201.298C84.1999 201.269 84.3313 201.142 84.3736 200.978C85.0934 198.131 86.638 191.742 86.838 189.641C87.0935 186.955 88.9492 174.843 88.9492 174.843L93.913 176.227C93.913 176.227 91.8705 185.167 91.3055 189.503C90.869 192.85 87.5242 199.953 86.476 201.996C85.9635 203.516 84.8145 203.558 84.5474 203.591C84.3941 203.61 84.2539 203.685 84.1546 203.802C83.9736 204.013 83.7663 204.197 83.5283 204.346C83.3516 204.457 83.2173 204.602 83.1005 204.771C82.8903 205.079 82.7005 205.4 82.5151 205.723C82.391 205.938 82.2625 206.005 82.0786 205.954C81.8815 205.9 81.788 205.754 81.7909 205.514C81.7968 205.159 81.9092 204.838 82.0873 204.536C82.2538 204.253 82.2421 204.088 82.0479 203.828C81.9369 203.678 81.8216 203.533 81.6756 203.413C81.5267 203.292 81.3705 203.2 81.1675 203.228C80.8113 203.317 80.4507 203.388 80.0857 203.429L79.7849 203.491C79.7747 203.492 79.6214 203.526 79.6214 203.526C79.5966 203.532 79.0681 203.59 78.8871 203.59C78.7411 203.59 78.506 203.6 78.306 203.609C78.125 203.618 77.7425 203.523 77.7293 203.523C77.5527 203.518 77.3964 203.456 77.265 203.337C77.211 203.289 77.1599 203.235 77.1862 203.153C77.211 203.078 77.2709 203.045 77.3468 203.032C77.4665 203.01 78.0826 202.936 78.0753 202.91C77.8928 202.91 77.3191 202.896 77.1366 202.891C76.8898 202.885 76.6767 202.796 76.5059 202.613C76.4387 202.542 76.3613 202.47 76.4051 202.355V202.358Z" fill="white"/>
<path d="M91.9553 168.516C89.5055 168.07 87.4849 179.03 87.4849 179.03C87.4849 179.03 92.9276 180.55 94.3219 179.753C94.3219 179.753 95.9045 172.736 96.4724 172.982L91.9553 168.516Z" fill="url(#paint21_linear_324_629)"/>
<path d="M244.31 85.5195L243.124 83.515L244.103 81.4024C244.214 81.1615 244 80.8973 243.742 80.9557L241.47 81.4652L239.762 79.8826C239.568 79.7016 239.251 79.8227 239.226 80.087L239.009 82.4054L236.975 83.5398C236.743 83.6698 236.76 84.0085 237.004 84.1136L239.142 85.0377L239.593 87.3226C239.644 87.5825 239.971 87.6715 240.148 87.4715L241.686 85.7239L243.999 86.0013C244.262 86.0334 244.447 85.7487 244.313 85.521L244.31 85.5195Z" fill="#12252D"/>
<path d="M268.852 79.2679L268.983 73.555L274.304 73.3258L274.682 67.7035L279.74 66.8567L280.71 62.6958L282.817 63.1863L281.519 68.7532L276.726 69.5547L276.333 75.4033L271.099 75.6282L270.981 80.8067L268.852 79.2679Z" fill="url(#paint22_linear_324_629)"/>
<path d="M313.886 92.0601L311.711 96.1231L307.018 95.8603L304.901 100.588L299.99 98.7657L297.361 104.005L292.632 102.887L289.278 107.515L291.029 108.784L293.537 105.324L298.527 106.505L301.054 101.468L306.049 103.319L308.385 98.1029L312.966 98.3598L314.982 94.5946L317.956 95.3917L318.517 93.3025L313.886 92.0601Z" fill="url(#paint23_linear_324_629)"/>
<path d="M222.548 52.8104L224.412 53.1783C224.412 53.1783 227.136 51.9052 227.344 51.292C227.551 50.6788 227.456 49.2641 227.855 49.1765C228.253 49.0875 229.05 49.1225 229.357 50.0598C229.579 50.7402 228.808 52.8834 228.993 53.0776C229.11 53.1987 230.174 53.4411 230.956 53.6061C231.469 53.7141 231.878 54.1039 232.02 54.6164C232.115 54.9653 231.957 55.3347 231.643 55.5026L231.153 55.7654L231.383 56.2764C231.556 56.6574 231.391 57.11 231.017 57.2896L230.634 57.4721L230.802 57.7801C231.018 58.1772 230.846 58.6795 230.433 58.8576L230.097 59.0021L230.123 59.0941C230.231 59.4737 230.034 59.8766 229.671 60.0212L229.336 60.154L224.373 59.1729C223.907 59.0809 223.466 58.8926 223.076 58.6211L221.388 57.9816C221.207 57.913 221.104 57.7188 221.145 57.5261L222.088 53.1155C222.133 52.9024 222.339 52.7651 222.548 52.806V52.8104Z" fill="#12252D"/>
<path d="M332.984 248.719H18.957V250.5H332.984V248.719Z" fill="#12252D"/>
<path d="M67.7694 122.187L65.1824 122.246C65.1824 122.246 65.2656 123.242 66.4044 123.249C67.7928 123.258 67.7694 122.187 67.7694 122.187Z" fill="white"/>
</g>
<defs>
<linearGradient id="paint0_linear_324_629" x1="63.1114" y1="71.2134" x2="295.841" y2="247.714" gradientUnits="userSpaceOnUse">
<stop stop-color="#B98300"/>
<stop offset="0.546875" stop-color="#FFF5A4"/>
<stop offset="0.9999" stop-color="#FFFADF"/>
<stop offset="1" stop-color="#785500"/>
</linearGradient>
<linearGradient id="paint1_linear_324_629" x1="211.613" y1="87.5129" x2="269.985" y2="121.823" gradientUnits="userSpaceOnUse">
<stop stop-color="#B98300"/>
<stop offset="0.546875" stop-color="#FFF5A4"/>
<stop offset="0.9999" stop-color="#FFFADF"/>
<stop offset="1" stop-color="#785500"/>
</linearGradient>
<linearGradient id="paint2_linear_324_629" x1="154.275" y1="71.855" x2="201.717" y2="15.8569" gradientUnits="userSpaceOnUse">
<stop stop-color="#B98300"/>
<stop offset="0.546875" stop-color="#FFF5A4"/>
<stop offset="0.9999" stop-color="#FFFADF"/>
<stop offset="1" stop-color="#785500"/>
</linearGradient>
<linearGradient id="paint3_linear_324_629" x1="158.883" y1="68.5749" x2="199.891" y2="20.1721" gradientUnits="userSpaceOnUse">
<stop stop-color="#B98300"/>
<stop offset="0.546875" stop-color="#FFF5A4"/>
<stop offset="0.9999" stop-color="#FFFADF"/>
<stop offset="1" stop-color="#785500"/>
</linearGradient>
<linearGradient id="paint4_linear_324_629" x1="163.842" y1="22.8652" x2="210.473" y2="54.4628" gradientUnits="userSpaceOnUse">
<stop stop-color="#B98300"/>
<stop offset="0.546875" stop-color="#FFF5A4"/>
<stop offset="0.9999" stop-color="#FFFADF"/>
<stop offset="1" stop-color="#785500"/>
</linearGradient>
<linearGradient id="paint5_linear_324_629" x1="40.6482" y1="234.662" x2="51.012" y2="274.14" gradientUnits="userSpaceOnUse">
<stop stop-color="#B98300"/>
<stop offset="0.546875" stop-color="#FFF5A4"/>
<stop offset="0.9999" stop-color="#FFFADF"/>
<stop offset="1" stop-color="#785500"/>
</linearGradient>
<linearGradient id="paint6_linear_324_629" x1="40.6482" y1="233.012" x2="42.8883" y2="251.855" gradientUnits="userSpaceOnUse">
<stop stop-color="#B98300"/>
<stop offset="0.546875" stop-color="#FFF5A4"/>
<stop offset="0.9999" stop-color="#FFFADF"/>
<stop offset="1" stop-color="#785500"/>
</linearGradient>
<linearGradient id="paint7_linear_324_629" x1="50.1967" y1="234.266" x2="51.5098" y2="247.384" gradientUnits="userSpaceOnUse">
<stop stop-color="#B98300"/>
<stop offset="0.546875" stop-color="#FFF5A4"/>
<stop offset="0.9999" stop-color="#FFFADF"/>
<stop offset="1" stop-color="#785500"/>
</linearGradient>
<linearGradient id="paint8_linear_324_629" x1="33.7324" y1="224.044" x2="44.0963" y2="263.522" gradientUnits="userSpaceOnUse">
<stop stop-color="#B98300"/>
<stop offset="0.546875" stop-color="#FFF5A4"/>
<stop offset="0.9999" stop-color="#FFFADF"/>
<stop offset="1" stop-color="#785500"/>
</linearGradient>
<linearGradient id="paint9_linear_324_629" x1="33.7324" y1="222.393" x2="35.9726" y2="241.236" gradientUnits="userSpaceOnUse">
<stop stop-color="#B98300"/>
<stop offset="0.546875" stop-color="#FFF5A4"/>
<stop offset="0.9999" stop-color="#FFFADF"/>
<stop offset="1" stop-color="#785500"/>
</linearGradient>
<linearGradient id="paint10_linear_324_629" x1="43.2809" y1="223.648" x2="44.594" y2="236.765" gradientUnits="userSpaceOnUse">
<stop stop-color="#B98300"/>
<stop offset="0.546875" stop-color="#FFF5A4"/>
<stop offset="0.9999" stop-color="#FFFADF"/>
<stop offset="1" stop-color="#785500"/>
</linearGradient>
<linearGradient id="paint11_linear_324_629" x1="38.3401" y1="213.143" x2="48.7039" y2="252.62" gradientUnits="userSpaceOnUse">
<stop stop-color="#B98300"/>
<stop offset="0.546875" stop-color="#FFF5A4"/>
<stop offset="0.9999" stop-color="#FFFADF"/>
<stop offset="1" stop-color="#785500"/>
</linearGradient>
<linearGradient id="paint12_linear_324_629" x1="38.3401" y1="211.492" x2="40.5802" y2="230.335" gradientUnits="userSpaceOnUse">
<stop stop-color="#B98300"/>
<stop offset="0.546875" stop-color="#FFF5A4"/>
<stop offset="0.9999" stop-color="#FFFADF"/>
<stop offset="1" stop-color="#785500"/>
</linearGradient>
<linearGradient id="paint13_linear_324_629" x1="47.8886" y1="212.746" x2="49.2017" y2="225.864" gradientUnits="userSpaceOnUse">
<stop stop-color="#B98300"/>
<stop offset="0.546875" stop-color="#FFF5A4"/>
<stop offset="0.9999" stop-color="#FFFADF"/>
<stop offset="1" stop-color="#785500"/>
</linearGradient>
<linearGradient id="paint14_linear_324_629" x1="33.7324" y1="202.39" x2="44.0963" y2="241.868" gradientUnits="userSpaceOnUse">
<stop stop-color="#B98300"/>
<stop offset="0.546875" stop-color="#FFF5A4"/>
<stop offset="0.9999" stop-color="#FFFADF"/>
<stop offset="1" stop-color="#785500"/>
</linearGradient>
<linearGradient id="paint15_linear_324_629" x1="33.7324" y1="200.739" x2="35.9726" y2="219.582" gradientUnits="userSpaceOnUse">
<stop stop-color="#B98300"/>
<stop offset="0.546875" stop-color="#FFF5A4"/>
<stop offset="0.9999" stop-color="#FFFADF"/>
<stop offset="1" stop-color="#785500"/>
</linearGradient>
<linearGradient id="paint16_linear_324_629" x1="43.2809" y1="201.993" x2="44.594" y2="215.111" gradientUnits="userSpaceOnUse">
<stop stop-color="#B98300"/>
<stop offset="0.546875" stop-color="#FFF5A4"/>
<stop offset="0.9999" stop-color="#FFFADF"/>
<stop offset="1" stop-color="#785500"/>
</linearGradient>
<linearGradient id="paint17_linear_324_629" x1="137.216" y1="218.445" x2="163.314" y2="227.561" gradientUnits="userSpaceOnUse">
<stop stop-color="#B98300"/>
<stop offset="0.546875" stop-color="#FFF5A4"/>
<stop offset="0.9999" stop-color="#FFFADF"/>
<stop offset="1" stop-color="#785500"/>
</linearGradient>
<linearGradient id="paint18_linear_324_629" x1="64.046" y1="89.9797" x2="91.0281" y2="94.0281" gradientUnits="userSpaceOnUse">
<stop stop-color="#B98300"/>
<stop offset="0.546875" stop-color="#FFF5A4"/>
<stop offset="0.9999" stop-color="#FFFADF"/>
<stop offset="1" stop-color="#785500"/>
</linearGradient>
<linearGradient id="paint19_linear_324_629" x1="40.0551" y1="90.5751" x2="81.4406" y2="100.158" gradientUnits="userSpaceOnUse">
<stop stop-color="#B98300"/>
<stop offset="0.546875" stop-color="#FFF5A4"/>
<stop offset="0.9999" stop-color="#FFFADF"/>
<stop offset="1" stop-color="#785500"/>
</linearGradient>
<linearGradient id="paint20_linear_324_629" x1="89.3885" y1="163.188" x2="116.55" y2="173.309" gradientUnits="userSpaceOnUse">
<stop stop-color="#B98300"/>
<stop offset="0.546875" stop-color="#FFF5A4"/>
<stop offset="0.9999" stop-color="#FFFADF"/>
<stop offset="1" stop-color="#785500"/>
</linearGradient>
<linearGradient id="paint21_linear_324_629" x1="85.9658" y1="166.249" x2="100.506" y2="173.206" gradientUnits="userSpaceOnUse">
<stop stop-color="#B98300"/>
<stop offset="0.546875" stop-color="#FFF5A4"/>
<stop offset="0.9999" stop-color="#FFFADF"/>
<stop offset="1" stop-color="#785500"/>
</linearGradient>
<linearGradient id="paint22_linear_324_629" x1="266.492" y1="59.1413" x2="289.21" y2="69.848" gradientUnits="userSpaceOnUse">
<stop stop-color="#B98300"/>
<stop offset="0.546875" stop-color="#FFF5A4"/>
<stop offset="0.9999" stop-color="#FFFADF"/>
<stop offset="1" stop-color="#785500"/>
</linearGradient>
<linearGradient id="paint23_linear_324_629" x1="284.337" y1="88.7778" x2="311.476" y2="117.779" gradientUnits="userSpaceOnUse">
<stop stop-color="#B98300"/>
<stop offset="0.546875" stop-color="#FFF5A4"/>
<stop offset="0.9999" stop-color="#FFFADF"/>
<stop offset="1" stop-color="#785500"/>
</linearGradient>
<clipPath id="clip0_324_629">
<rect width="341.876" height="250" fill="white" transform="translate(0.0622559 0.5)"/>
</clipPath>
</defs>
</svg>
