<svg width="472" height="251" viewBox="0 0 472 251" fill="none" xmlns="http://www.w3.org/2000/svg">
<g clip-path="url(#clip0_324_287)">
<path d="M404.482 98.6929C380.458 90.3109 376.079 -39.1425 296.132 12.7238C254.828 39.52 185.178 -10.2809 127.529 6.92069C74.587 22.717 69.4829 74.7649 74.6056 91.7255C84.9529 125.984 52.7522 131.083 22.8802 145.802C-23.9783 168.89 10.4787 250.033 54.7453 250.42C99.0119 250.808 367.191 249.647 367.191 249.647C367.191 249.647 431.497 249.811 458.24 214.317C487.018 176.122 469.023 121.212 404.482 98.6911V98.6929Z" fill="#F9F9F9"/>
<path d="M434.454 240.292V245.947C434.454 246.397 434.317 246.814 434.082 247.163C433.833 247.53 433.477 247.817 433.058 247.979C432.93 248.029 432.797 248.066 432.66 248.09C432.534 248.112 432.408 248.125 432.276 248.125H342.2C341.04 248.125 340.083 247.206 340.024 246.058C340.024 246.021 340.022 245.984 340.022 245.947V240.292C340.022 240.255 340.022 240.218 340.024 240.181C340.077 239.12 340.901 238.253 341.942 238.128C342.026 238.117 342.113 238.114 342.2 238.114H432.276C432.408 238.114 432.536 238.127 432.66 238.149C432.797 238.173 432.93 238.21 433.058 238.26C433.476 238.421 433.833 238.709 434.082 239.076C434.317 239.424 434.454 239.841 434.454 240.292Z" fill="url(#paint0_linear_324_287)"/>
<path d="M390.223 248.127H341.967C340.93 248.127 340.075 247.208 340.024 246.06C340.024 246.023 340.022 245.986 340.022 245.949V240.294C340.022 240.257 340.022 240.22 340.024 240.183C340.072 239.122 340.806 238.255 341.737 238.13C341.811 238.119 341.889 238.115 341.967 238.115H384.298C384.298 238.115 384.299 238.127 384.301 238.13C384.98 241.076 386.556 245.144 390.223 248.129V248.127Z" fill="#D6B556"/>
<path d="M423.493 238.114H422.47V248.127H423.493V238.114Z" fill="#D6B556"/>
<path d="M420.028 238.114H419.005V248.127H420.028V238.114Z" fill="#D6B556"/>
<path d="M415.874 238.114H414.85V248.127H415.874V238.114Z" fill="#D6B556"/>
<path d="M409.503 238.114H408.479V248.127H409.503V238.114Z" fill="#D6B556"/>
<path d="M402.767 238.114H401.744V248.127H402.767V238.114Z" fill="#D6B556"/>
<path d="M392.44 238.114H391.417V248.127H392.44V238.114Z" fill="#D6B556"/>
<path d="M382.772 238.114H381.748V248.127H382.772V238.114Z" fill="#D6B556"/>
<path d="M374.139 238.114H373.116V248.127H374.139V238.114Z" fill="#D6B556"/>
<path d="M426.792 238.114H425.768V248.127H426.792V238.114Z" fill="#D6B556"/>
<path d="M428.972 238.114H427.949V248.127H428.972V238.114Z" fill="#D6B556"/>
<path d="M431.076 238.114H430.053V248.127H431.076V238.114Z" fill="#D6B556"/>
<path d="M432.66 238.149V248.092C432.534 248.114 432.407 248.127 432.276 248.127H431.636V238.114H432.276C432.407 238.114 432.535 238.127 432.66 238.149Z" fill="#D6B556"/>
<path d="M434.082 239.076V247.165C433.833 247.532 433.477 247.819 433.058 247.981V238.26C433.476 238.421 433.833 238.709 434.082 239.076Z" fill="#D6B556"/>
<path d="M422.63 230.295V235.95C422.63 236.4 422.492 236.818 422.257 237.166C422.008 237.533 421.652 237.821 421.233 237.982C421.105 238.032 420.972 238.069 420.835 238.093C420.792 238.1 420.751 238.108 420.709 238.112C420.675 238.117 420.642 238.119 420.607 238.121C420.59 238.121 420.573 238.123 420.557 238.125C420.521 238.125 420.486 238.126 420.451 238.126H330.375C329.215 238.126 328.258 237.207 328.199 236.059C328.199 236.022 328.197 235.985 328.197 235.948V230.293C328.197 230.256 328.197 230.219 328.199 230.182C328.258 229.034 329.215 228.115 330.375 228.115H420.451C420.49 228.115 420.529 228.115 420.566 228.118C420.657 228.124 420.746 228.133 420.835 228.15C420.972 228.174 421.105 228.211 421.233 228.261C421.298 228.287 421.361 228.315 421.423 228.345C421.461 228.363 421.499 228.384 421.534 228.406C421.538 228.406 421.543 228.41 421.547 228.413C421.584 228.435 421.621 228.458 421.656 228.482C421.664 228.486 421.669 228.491 421.675 228.493C421.708 228.515 421.741 228.539 421.773 228.563C421.851 228.621 421.923 228.684 421.99 228.753C422.012 228.773 422.033 228.795 422.051 228.816C422.055 228.819 422.058 228.823 422.062 228.829C422.075 228.842 422.088 228.854 422.099 228.869C422.101 228.871 422.105 228.875 422.107 228.879C422.129 228.905 422.149 228.931 422.17 228.958C422.199 228.997 422.229 229.036 422.257 229.077C422.492 229.426 422.63 229.843 422.63 230.293V230.295Z" fill="url(#paint1_linear_324_287)"/>
<path d="M378.396 238.128H330.14C329.103 238.128 328.249 237.209 328.197 236.061C328.197 236.024 328.195 235.987 328.195 235.95V230.295C328.195 230.258 328.195 230.221 328.197 230.184C328.25 229.036 329.103 228.117 330.14 228.117H372.471C372.487 228.193 372.506 228.271 372.526 228.348C373.229 231.27 374.812 235.205 378.378 238.115C378.383 238.121 378.391 238.127 378.396 238.13V238.128Z" fill="#D6B556"/>
<path d="M411.668 228.115H410.645V238.128H411.668V228.115Z" fill="#D6B556"/>
<path d="M408.201 228.115H407.178V238.128H408.201V228.115Z" fill="#D6B556"/>
<path d="M404.047 228.115H403.023V238.128H404.047V228.115Z" fill="#D6B556"/>
<path d="M397.676 228.115H396.653V238.128H397.676V228.115Z" fill="#D6B556"/>
<path d="M390.94 228.115H389.917V238.128H390.94V228.115Z" fill="#D6B556"/>
<path d="M380.615 228.115H379.592V238.128H380.615V228.115Z" fill="#D6B556"/>
<path d="M370.947 228.115H369.923V238.128H370.947V228.115Z" fill="#D6B556"/>
<path d="M362.312 228.115H361.289V238.128H362.312V228.115Z" fill="#D6B556"/>
<path d="M414.967 228.115H413.943V238.128H414.967V228.115Z" fill="#D6B556"/>
<path d="M417.145 228.115H416.122V238.128H417.145V228.115Z" fill="#D6B556"/>
<path d="M419.249 228.115H418.226V238.128H419.249V228.115Z" fill="#D6B556"/>
<path d="M420.833 228.15V238.093C420.707 238.115 420.581 238.128 420.449 238.128H419.809V228.115H420.449C420.581 228.115 420.709 228.128 420.833 228.15Z" fill="#D6B556"/>
<path d="M422.255 229.077V237.166C422.006 237.533 421.65 237.821 421.231 237.982V228.261C421.649 228.423 422.006 228.71 422.255 229.077Z" fill="#D6B556"/>
<path d="M429.25 220.511V226.166C429.25 226.617 429.113 227.034 428.877 227.382C428.629 227.75 428.273 228.037 427.854 228.198C427.726 228.248 427.593 228.285 427.455 228.309C427.329 228.332 427.203 228.345 427.072 228.345H336.996C336.647 228.345 336.315 228.261 336.022 228.113C335.366 227.785 334.895 227.13 334.825 226.366C334.823 226.337 334.819 226.307 334.819 226.277C334.819 226.24 334.817 226.203 334.817 226.166V220.511C334.817 220.474 334.817 220.437 334.819 220.4C334.873 219.34 335.696 218.472 336.738 218.348C336.822 218.337 336.909 218.333 336.996 218.333H427.072C427.203 218.333 427.331 218.346 427.455 218.368C427.593 218.392 427.726 218.429 427.854 218.479C428.271 218.641 428.629 218.928 428.877 219.295C429.113 219.644 429.25 220.061 429.25 220.511Z" fill="url(#paint2_linear_324_287)"/>
<path d="M385.019 228.347H336.762C336.451 228.347 336.156 228.263 335.895 228.115C335.309 227.787 334.89 227.132 334.827 226.368C334.825 226.339 334.821 226.309 334.821 226.279C334.821 226.242 334.819 226.205 334.819 226.168V220.513C334.819 220.476 334.819 220.439 334.821 220.402C334.869 219.342 335.604 218.474 336.534 218.35C336.608 218.339 336.686 218.335 336.764 218.335H379.095C379.095 218.335 379.097 218.346 379.099 218.35C379.759 221.22 381.274 225.156 384.744 228.117C384.835 228.195 384.928 228.272 385.021 228.349L385.019 228.347Z" fill="#D6B556"/>
<path d="M418.291 218.333H417.268V228.347H418.291V218.333Z" fill="#D6B556"/>
<path d="M414.824 218.333H413.801V228.347H414.824V218.333Z" fill="#D6B556"/>
<path d="M410.669 218.333H409.646V228.347H410.669V218.333Z" fill="#D6B556"/>
<path d="M404.299 218.333H403.275V228.347H404.299V218.333Z" fill="#D6B556"/>
<path d="M397.563 218.333H396.54V228.347H397.563V218.333Z" fill="#D6B556"/>
<path d="M387.238 218.333H386.215V228.347H387.238V218.333Z" fill="#D6B556"/>
<path d="M377.569 218.333H376.546V228.347H377.569V218.333Z" fill="#D6B556"/>
<path d="M368.935 218.333H367.912V228.347H368.935V218.333Z" fill="#D6B556"/>
<path d="M421.589 218.333H420.566V228.347H421.589V218.333Z" fill="#D6B556"/>
<path d="M423.768 218.333H422.744V228.347H423.768V218.333Z" fill="#D6B556"/>
<path d="M425.872 218.333H424.849V228.347H425.872V218.333Z" fill="#D6B556"/>
<path d="M427.455 218.368V228.311C427.329 228.334 427.203 228.347 427.072 228.347H426.432V218.333H427.072C427.203 218.333 427.331 218.344 427.455 218.368Z" fill="#D6B556"/>
<path d="M428.877 219.295V227.384C428.629 227.751 428.273 228.039 427.854 228.2V218.479C428.271 218.641 428.629 218.928 428.877 219.295Z" fill="#D6B556"/>
<path d="M422.629 210.515V216.169C422.629 216.62 422.492 217.039 422.257 217.386C422.008 217.753 421.652 218.04 421.233 218.201C421.105 218.251 420.972 218.289 420.835 218.313C420.792 218.32 420.751 218.328 420.709 218.331C420.686 218.333 420.662 218.337 420.638 218.339C420.616 218.34 420.592 218.342 420.568 218.344C420.529 218.346 420.49 218.348 420.453 218.348H330.377C329.216 218.348 328.26 217.428 328.2 216.281C328.2 216.244 328.198 216.207 328.198 216.169V210.515C328.198 210.478 328.198 210.441 328.2 210.403C328.26 209.256 329.216 208.336 330.377 208.336H420.453C420.584 208.336 420.712 208.347 420.837 208.371C420.974 208.395 421.107 208.433 421.235 208.483C421.652 208.644 422.01 208.931 422.259 209.298C422.494 209.647 422.631 210.064 422.631 210.515H422.629Z" fill="url(#paint3_linear_324_287)"/>
<path d="M378.396 218.348H330.14C329.103 218.348 328.249 217.428 328.197 216.281C328.197 216.244 328.195 216.207 328.195 216.169V210.515C328.195 210.478 328.195 210.441 328.197 210.403C328.25 209.256 329.103 208.336 330.14 208.336H372.471C373.146 211.279 374.716 215.346 378.378 218.335C378.383 218.34 378.391 218.346 378.396 218.35V218.348Z" fill="#D6B556"/>
<path d="M411.668 208.334H410.645V218.348H411.668V208.334Z" fill="#D6B556"/>
<path d="M408.201 208.334H407.178V218.348H408.201V208.334Z" fill="#D6B556"/>
<path d="M404.047 208.334H403.023V218.348H404.047V208.334Z" fill="#D6B556"/>
<path d="M397.676 208.334H396.653V218.348H397.676V208.334Z" fill="#D6B556"/>
<path d="M390.94 208.334H389.917V218.348H390.94V208.334Z" fill="#D6B556"/>
<path d="M380.615 208.334H379.592V218.348H380.615V208.334Z" fill="#D6B556"/>
<path d="M370.947 208.334H369.923V218.348H370.947V208.334Z" fill="#D6B556"/>
<path d="M362.312 208.334H361.289V218.348H362.312V208.334Z" fill="#D6B556"/>
<path d="M414.967 208.334H413.943V218.348H414.967V208.334Z" fill="#D6B556"/>
<path d="M417.145 208.334H416.122V218.348H417.145V208.334Z" fill="#D6B556"/>
<path d="M419.249 208.334H418.226V218.348H419.249V208.334Z" fill="#D6B556"/>
<path d="M420.833 208.369V218.313C420.707 218.335 420.581 218.348 420.449 218.348H419.809V208.334H420.449C420.581 208.334 420.709 208.345 420.833 208.369Z" fill="#D6B556"/>
<path d="M422.255 209.296V217.386C422.006 217.753 421.65 218.04 421.231 218.201V208.481C421.649 208.642 422.006 208.929 422.255 209.296Z" fill="#D6B556"/>
<path d="M79.2888 247.278L67.0652 246.227C67.0652 246.227 67.7716 238.69 65.621 228.639C64.0339 221.214 60.8895 212.417 54.7508 204.27C44.283 190.376 13.1874 182.602 13.1874 182.602V180.804L14.3054 180.683C14.3054 180.683 13.8233 180.348 13.1874 180.153V175.902C14.107 175.889 15.4215 175.944 16.7211 176.248C15.9925 176.067 14.4388 175.711 13.1874 175.614V173.378C58.2327 174.584 72.9221 201.791 77.5275 222.849C80.4754 236.326 79.2907 247.283 79.2907 247.283L79.2888 247.278Z" fill="#12252D"/>
<path d="M132.788 243.323L79.2907 247.278C79.0144 239.039 76.8637 230.516 74.7835 224.056C72.7033 217.595 70.6917 213.195 70.6917 213.195C54.6878 178.127 13.1874 173.375 13.1874 173.375L59.2468 154.512C81.4988 156.186 97.1078 166.873 108.028 180.29C129.412 206.569 132.788 243.323 132.788 243.323Z" fill="#F9F9F9"/>
<path opacity="0.5" d="M132.788 243.323L79.2906 247.278L67.0671 246.227C67.0671 246.227 67.7735 238.69 65.6228 228.639C68.1721 227.104 71.2015 225.571 74.7835 224.056C75.7235 223.658 76.6375 223.254 77.5275 222.844C111.59 207.122 108.417 182.632 108.03 180.29C129.414 206.569 132.79 243.323 132.79 243.323H132.788Z" fill="#12252D"/>
<path d="M128.582 247.443L80.9056 246.522L81.0743 245.604C81.1002 245.465 83.5475 231.485 77.8316 215.593C74.4832 206.282 69.0231 198.135 61.6052 191.383C52.311 182.921 39.8909 176.623 24.6898 172.665L22.3481 172.055L59.5602 157.245L59.703 157.241C60.1053 157.232 69.6906 157.087 82.0106 162.914C89.232 166.33 95.8805 171.102 101.771 177.098C109.12 184.579 115.303 193.995 120.146 205.088C120.528 205.941 129.585 226.272 129.106 238.479V238.494L128.585 247.445L128.582 247.443ZM82.7744 244.97L127.087 245.826L127.519 238.406C127.708 233.53 126.248 226.341 123.292 217.617C121.047 210.989 118.716 205.779 118.694 205.727C113.935 194.828 107.874 185.585 100.681 178.251C94.9331 172.39 88.4496 167.724 81.4099 164.385C73.7731 160.76 67.1135 159.497 63.2571 159.058C61.2325 158.828 59.1838 159.101 57.2909 159.853L31.5015 170.117C30.1554 170.653 30.224 172.576 31.6034 173.019C44.1459 177.057 54.5859 182.834 62.7083 190.241C70.321 197.18 75.9182 205.553 79.3482 215.124C82.3962 223.632 83.1304 231.53 83.2064 236.658C83.2676 240.637 82.9617 243.568 82.7726 244.97H82.7744Z" fill="#12252D"/>
<path d="M86.6882 180.109C78.8345 180.109 74.4832 184.807 74.4832 192.66C74.4832 200.514 82.6167 205.26 90.4704 205.26C98.324 205.26 102.926 200.514 102.926 192.66C102.926 184.807 94.5418 180.109 86.6882 180.109Z" fill="#12252D"/>
<path d="M19.5208 240.253V245.908C19.5208 246.358 19.6579 246.777 19.8934 247.124C20.1418 247.491 20.4978 247.779 20.9168 247.94C21.0448 247.99 21.1782 248.027 21.3154 248.051C21.4415 248.073 21.5676 248.086 21.6992 248.086H111.775C112.137 248.086 112.478 247.997 112.78 247.84C113.418 247.506 113.872 246.865 113.944 246.117C113.948 246.084 113.95 246.053 113.952 246.019C113.952 245.982 113.953 245.945 113.953 245.908V240.253C113.953 240.216 113.953 240.179 113.952 240.142C113.892 238.994 112.936 238.075 111.775 238.075H21.7011C21.5694 238.075 21.4415 238.086 21.3173 238.11C21.1801 238.134 21.0466 238.171 20.9187 238.221C20.5015 238.382 20.1437 238.67 19.8953 239.037C19.6598 239.385 19.5226 239.803 19.5226 240.253H19.5208Z" fill="url(#paint4_linear_324_287)"/>
<path d="M63.754 248.088H112.011C112.333 248.088 112.639 247.999 112.906 247.842C113.475 247.508 113.881 246.867 113.946 246.119C113.95 246.086 113.952 246.055 113.954 246.021C113.954 245.984 113.955 245.947 113.955 245.91V240.255C113.955 240.218 113.955 240.181 113.954 240.144C113.9 238.996 113.047 238.077 112.011 238.077H69.6795C69.0213 240.945 67.514 244.879 64.0507 247.844C63.9524 247.927 63.8541 248.009 63.754 248.09V248.088Z" fill="#D6B556"/>
<path d="M30.4817 248.09H31.5051V238.077H30.4817V248.09Z" fill="#D6B556"/>
<path d="M33.9469 248.09H34.9703V238.077H33.9469V248.09Z" fill="#D6B556"/>
<path d="M38.1017 248.09H39.1251V238.077H38.1017V248.09Z" fill="#D6B556"/>
<path d="M44.474 248.09H45.4974V238.077H44.474V248.09Z" fill="#D6B556"/>
<path d="M51.2097 248.09H52.2332V238.077H51.2097V248.09Z" fill="#D6B556"/>
<path d="M61.5347 248.09H62.5581V238.077H61.5347V248.09Z" fill="#D6B556"/>
<path d="M71.2035 248.09H72.2269V238.077H71.2035V248.09Z" fill="#D6B556"/>
<path d="M79.8377 248.09H80.8611V238.077H79.8377V248.09Z" fill="#D6B556"/>
<path d="M27.1834 248.09H28.2068V238.077H27.1834V248.09Z" fill="#D6B556"/>
<path d="M25.0049 248.09H26.0283V238.077H25.0049V248.09Z" fill="#D6B556"/>
<path d="M22.9007 248.09H23.9241V238.077H22.9007V248.09Z" fill="#D6B556"/>
<path d="M21.3154 238.11V248.053C21.4415 248.075 21.5694 248.088 21.6992 248.088H22.3388V238.075H21.6992C21.5676 238.075 21.4396 238.088 21.3154 238.11Z" fill="#D6B556"/>
<path d="M19.8953 239.037V247.126C20.1437 247.493 20.4997 247.781 20.9187 247.942V238.221C20.5015 238.382 20.1437 238.67 19.8953 239.037Z" fill="#D6B556"/>
<path d="M12.1603 230.24V235.894C12.1603 236.345 12.2975 236.762 12.5329 237.111C12.7814 237.478 13.1373 237.765 13.5564 237.926C13.6843 237.976 13.8178 238.013 13.955 238.038C14.081 238.06 14.2071 238.073 14.3388 238.073H104.415C105.575 238.073 106.532 237.153 106.591 236.006C106.591 235.968 106.593 235.931 106.593 235.894V230.24C106.593 230.202 106.593 230.165 106.591 230.128C106.537 229.068 105.714 228.2 104.672 228.076C104.587 228.065 104.502 228.061 104.415 228.061H14.3388C14.2071 228.061 14.0792 228.074 13.955 228.096C13.8178 228.12 13.6843 228.157 13.5564 228.208C13.1392 228.369 12.7814 228.656 12.5329 229.023C12.2975 229.372 12.1603 229.789 12.1603 230.24Z" fill="url(#paint5_linear_324_287)"/>
<path d="M56.3917 238.075H104.648C105.685 238.075 106.539 237.155 106.591 236.007C106.591 235.97 106.593 235.933 106.593 235.896V230.241C106.593 230.204 106.593 230.167 106.591 230.13C106.543 229.07 105.809 228.202 104.878 228.078C104.804 228.067 104.726 228.063 104.648 228.063H62.3172C62.3172 228.063 62.3153 228.074 62.3135 228.078C61.6349 231.024 60.059 235.092 56.3917 238.077V238.075Z" fill="#D6B556"/>
<path d="M23.1194 238.075H24.1428V228.061H23.1194V238.075Z" fill="#D6B556"/>
<path d="M26.5846 238.075H27.608V228.061H26.5846V238.075Z" fill="#D6B556"/>
<path d="M30.7413 238.075H31.7648V228.061H30.7413V238.075Z" fill="#D6B556"/>
<path d="M37.1117 238.075H38.1351V228.061H37.1117V238.075Z" fill="#D6B556"/>
<path d="M43.8474 238.075H44.8708V228.061H43.8474V238.075Z" fill="#D6B556"/>
<path d="M54.1743 238.075H55.1978V228.061H54.1743V238.075Z" fill="#D6B556"/>
<path d="M63.843 238.075H64.8665V228.061H63.843V238.075Z" fill="#D6B556"/>
<path d="M72.4754 238.075H73.4988V228.061H72.4754V238.075Z" fill="#D6B556"/>
<path d="M19.823 238.075H20.8464V228.061H19.823V238.075Z" fill="#D6B556"/>
<path d="M17.6426 238.075H18.666V228.061H17.6426V238.075Z" fill="#D6B556"/>
<path d="M15.5383 238.075H16.5618V228.061H15.5383L15.5383 238.075Z" fill="#D6B556"/>
<path d="M13.955 228.096V238.039C14.081 238.062 14.2071 238.075 14.3387 238.075H14.9784V228.061H14.3387C14.2071 228.061 14.0792 228.074 13.955 228.096Z" fill="#D6B556"/>
<path d="M12.533 229.023V237.112C12.7814 237.479 13.1374 237.767 13.5564 237.928V228.208C13.1392 228.369 12.7814 228.656 12.533 229.023Z" fill="#D6B556"/>
<path d="M23.9852 220.243V225.897C23.9852 226.348 24.1224 226.767 24.3579 227.114C24.6063 227.481 24.9623 227.768 25.3813 227.929C25.5092 227.979 25.6427 228.017 25.7799 228.041C25.8226 228.048 25.8652 228.055 25.906 228.059C25.9394 228.065 25.9727 228.067 26.008 228.068C26.0247 228.068 26.0413 228.07 26.058 228.072C26.0933 228.072 26.1285 228.074 26.1637 228.074H116.24C117.4 228.074 118.357 227.154 118.416 226.007C118.416 225.97 118.418 225.933 118.418 225.895V220.241C118.418 220.204 118.418 220.167 118.416 220.129C118.357 218.982 117.4 218.062 116.24 218.062H26.1656C26.1266 218.062 26.0877 218.062 26.0506 218.066C25.9598 218.072 25.8708 218.081 25.7818 218.097C25.6446 218.122 25.5111 218.159 25.3832 218.209C25.3183 218.235 25.2552 218.262 25.1941 218.292C25.1551 218.311 25.118 218.331 25.0828 218.353C25.0791 218.353 25.0735 218.357 25.0698 218.361C25.0328 218.383 24.9957 218.405 24.9604 218.429C24.953 218.433 24.9475 218.439 24.9419 218.44C24.9085 218.463 24.8752 218.487 24.8436 218.511C24.7658 218.568 24.6935 218.631 24.6267 218.7C24.6045 218.72 24.5841 218.743 24.5655 218.763C24.5618 218.767 24.5581 218.771 24.5544 218.776C24.5414 218.789 24.5285 218.802 24.5173 218.817C24.5155 218.819 24.5118 218.822 24.5099 218.826C24.4877 218.852 24.4673 218.878 24.4469 218.906C24.4172 218.945 24.3876 218.984 24.3597 219.025C24.1243 219.373 23.9871 219.79 23.9871 220.241L23.9852 220.243Z" fill="url(#paint6_linear_324_287)"/>
<path d="M68.2185 228.076H116.475C117.511 228.076 118.366 227.156 118.418 226.009C118.418 225.972 118.42 225.935 118.42 225.897V220.243C118.42 220.206 118.42 220.169 118.418 220.131C118.364 218.984 117.511 218.064 116.475 218.064H74.144C74.1273 218.14 74.1087 218.218 74.0883 218.296C73.3857 221.218 71.8023 225.152 68.237 228.063C68.2315 228.069 68.2241 228.074 68.2185 228.078V228.076Z" fill="#D6B556"/>
<path d="M34.9462 228.078H35.9696V218.064H34.9462V228.078Z" fill="#D6B556"/>
<path d="M38.4132 228.078H39.4366V218.064H38.4132V228.078Z" fill="#D6B556"/>
<path d="M42.5681 228.078H43.5916V218.064H42.5681V228.078Z" fill="#D6B556"/>
<path d="M48.9385 228.078H49.9619V218.064H48.9385V228.078Z" fill="#D6B556"/>
<path d="M55.6742 228.078H56.6976V218.064H55.6742V228.078Z" fill="#D6B556"/>
<path d="M65.9992 228.078H67.0226V218.064H65.9992V228.078Z" fill="#D6B556"/>
<path d="M75.668 228.078H76.6914V218.064H75.668V228.078Z" fill="#D6B556"/>
<path d="M84.3003 228.078H85.3237V218.064H84.3003V228.078Z" fill="#D6B556"/>
<path d="M31.6478 228.078H32.6713V218.064H31.6478V228.078Z" fill="#D6B556"/>
<path d="M29.4675 228.078H30.491V218.064H29.4675V228.078Z" fill="#D6B556"/>
<path d="M27.3633 228.078H28.3867V218.064H27.3633V228.078Z" fill="#D6B556"/>
<path d="M25.7817 218.097V228.041C25.9078 228.063 26.0339 228.076 26.1655 228.076H26.8052V218.062H26.1655C26.0339 218.062 25.906 218.075 25.7817 218.097Z" fill="#D6B556"/>
<path d="M24.3597 219.025V227.114C24.6082 227.481 24.9642 227.768 25.3832 227.929V218.209C24.966 218.37 24.6082 218.657 24.3597 219.025Z" fill="#D6B556"/>
<path d="M17.3627 210.459V216.114C17.3627 216.564 17.4999 216.981 17.7353 217.33C17.9838 217.697 18.3397 217.984 18.7588 218.146C18.8867 218.196 19.0202 218.233 19.1574 218.257C19.2834 218.279 19.4095 218.292 19.5411 218.292H109.617C109.965 218.292 110.297 218.209 110.59 218.06C111.247 217.732 111.718 217.078 111.788 216.314C111.79 216.284 111.794 216.255 111.794 216.225C111.794 216.188 111.795 216.151 111.795 216.114V210.459C111.795 210.422 111.795 210.385 111.794 210.348C111.74 209.287 110.917 208.42 109.875 208.295C109.791 208.284 109.704 208.281 109.617 208.281H19.543C19.4114 208.281 19.2834 208.294 19.1592 208.316C19.022 208.34 18.8885 208.377 18.7606 208.427C18.3434 208.588 17.9856 208.876 17.7372 209.243C17.5017 209.591 17.3645 210.008 17.3645 210.459H17.3627Z" fill="url(#paint7_linear_324_287)"/>
<path d="M61.5959 218.294H109.852C110.164 218.294 110.461 218.211 110.722 218.062C111.308 217.734 111.727 217.08 111.79 216.316C111.792 216.286 111.795 216.256 111.795 216.227C111.795 216.19 111.797 216.153 111.797 216.115V210.461C111.797 210.424 111.797 210.387 111.795 210.349C111.747 209.289 111.013 208.421 110.082 208.297C110.008 208.286 109.93 208.282 109.852 208.282H67.5214C67.5214 208.282 67.5195 208.293 67.5177 208.297C66.8577 211.167 65.3429 215.103 61.8722 218.064C61.7813 218.142 61.6886 218.22 61.5959 218.296V218.294Z" fill="#D6B556"/>
<path d="M28.3255 218.294H29.3489V208.28H28.3255V218.294Z" fill="#D6B556"/>
<path d="M31.7907 218.294H32.8141V208.28H31.7907V218.294Z" fill="#D6B556"/>
<path d="M35.9456 218.294H36.969V208.28H35.9456V218.294Z" fill="#D6B556"/>
<path d="M42.3159 218.294H43.3394V208.28H42.3159V218.294Z" fill="#D6B556"/>
<path d="M49.0497 218.294H50.0731V208.28H49.0497V218.294Z" fill="#D6B556"/>
<path d="M59.3786 218.294H60.402V208.28H59.3786V218.294Z" fill="#D6B556"/>
<path d="M69.0454 218.294H70.0688V208.28H69.0454V218.294Z" fill="#D6B556"/>
<path d="M77.6778 218.294H78.7012V208.28H77.6778V218.294Z" fill="#D6B556"/>
<path d="M25.0253 218.294H26.0487V208.28H25.0253V218.294Z" fill="#D6B556"/>
<path d="M22.845 218.294H23.8684V208.28H22.845V218.294Z" fill="#D6B556"/>
<path d="M20.7407 218.294H21.7642V208.28H20.7407V218.294Z" fill="#D6B556"/>
<path d="M19.1592 208.314V218.257C19.2853 218.279 19.4113 218.292 19.543 218.292H20.1826V208.279H19.543C19.4113 208.279 19.2834 208.29 19.1592 208.314Z" fill="#D6B556"/>
<path d="M17.7372 209.243V217.332C17.9856 217.699 18.3416 217.986 18.7606 218.148V208.427C18.3434 208.588 17.9856 208.876 17.7372 209.243Z" fill="#D6B556"/>
<path d="M23.9852 200.462V206.117C23.9852 206.567 24.1224 206.986 24.3579 207.333C24.6063 207.7 24.9623 207.988 25.3813 208.149C25.5092 208.199 25.6427 208.236 25.7799 208.26C25.8226 208.268 25.8652 208.275 25.906 208.279C25.9282 208.281 25.9523 208.284 25.9764 208.286C25.9987 208.288 26.0228 208.29 26.0469 208.292C26.0858 208.294 26.1248 208.295 26.1619 208.295H116.238C117.398 208.295 118.355 207.376 118.414 206.228C118.414 206.191 118.416 206.154 118.416 206.117V200.462C118.416 200.425 118.416 200.388 118.414 200.351C118.355 199.203 117.398 198.284 116.238 198.284H26.1656C26.0339 198.284 25.906 198.295 25.7818 198.319C25.6446 198.343 25.5111 198.38 25.3832 198.43C24.966 198.591 24.6082 198.879 24.3597 199.246C24.1243 199.594 23.9871 200.012 23.9871 200.462H23.9852Z" fill="url(#paint8_linear_324_287)"/>
<path d="M68.2185 208.295H116.475C117.511 208.295 118.366 207.376 118.418 206.228C118.418 206.191 118.42 206.154 118.42 206.117V200.462C118.42 200.425 118.42 200.388 118.418 200.351C118.364 199.203 117.511 198.284 116.475 198.284H74.144C73.4691 201.226 71.8987 205.294 68.237 208.282C68.2315 208.288 68.2241 208.294 68.2185 208.297V208.295Z" fill="#D6B556"/>
<path d="M34.9462 208.297H35.9696V198.284H34.9462V208.297Z" fill="#D6B556"/>
<path d="M38.4132 208.297H39.4366V198.284H38.4132V208.297Z" fill="#D6B556"/>
<path d="M42.5681 208.297H43.5916V198.284H42.5681V208.297Z" fill="#D6B556"/>
<path d="M48.9385 208.297H49.9619V198.284H48.9385V208.297Z" fill="#D6B556"/>
<path d="M55.6742 208.297H56.6976V198.284H55.6742V208.297Z" fill="#D6B556"/>
<path d="M65.9992 208.297H67.0226V198.284H65.9992V208.297Z" fill="#D6B556"/>
<path d="M75.668 208.297H76.6914V198.284H75.668V208.297Z" fill="#D6B556"/>
<path d="M85.3237 198.282H84.3003V208.295H85.3237V198.282Z" fill="#D6B556"/>
<path d="M31.6478 208.297H32.6713V198.284H31.6478V208.297Z" fill="#D6B556"/>
<path d="M29.4675 208.297H30.491V198.284H29.4675V208.297Z" fill="#D6B556"/>
<path d="M27.3633 208.297H28.3867V198.284H27.3633V208.297Z" fill="#D6B556"/>
<path d="M25.7817 198.317V208.26C25.9078 208.282 26.0339 208.295 26.1655 208.295H26.8052V198.282H26.1655C26.0339 198.282 25.906 198.293 25.7817 198.317Z" fill="#D6B556"/>
<path d="M24.3597 199.244V207.333C24.6082 207.7 24.9642 207.988 25.3832 208.149V198.428C24.966 198.59 24.6082 198.877 24.3597 199.244Z" fill="#D6B556"/>
<path d="M348.383 75.79H101.272V217.215H348.383V75.79Z" fill="#F9F9F9"/>
<path d="M145.364 75.79H105.138V84.6708H145.364V75.79Z" fill="#FDDE6C"/>
<path d="M141.091 84.6709H109.409V93.5517H141.091V84.6709Z" fill="#D6B556"/>
<path d="M344.52 75.79H304.293V84.6708H344.52V75.79Z" fill="#FDDE6C"/>
<path d="M340.246 84.6709H308.564V93.5517H340.246V84.6709Z" fill="#D6B556"/>
<path d="M278.133 75.79H237.906V84.6708H278.133V75.79Z" fill="#FDDE6C"/>
<path d="M273.859 84.6709H242.178V93.5517H273.859V84.6709Z" fill="#D6B556"/>
<path d="M211.751 75.79H171.525V84.6708H211.751V75.79Z" fill="#FDDE6C"/>
<path d="M207.478 84.6709H175.796V93.5517H207.478V84.6709Z" fill="#D6B556"/>
<path d="M145.364 208.334H105.138V217.215H145.364V208.334Z" fill="#12252D"/>
<path d="M141.091 199.453H109.409V208.334H141.091V199.453Z" fill="#D6B556"/>
<path d="M344.52 208.334H304.293V217.215H344.52V208.334Z" fill="#12252D"/>
<path d="M340.246 199.453H308.564V208.334H340.246V199.453Z" fill="#D6B556"/>
<path d="M278.133 208.334H237.906V217.215H278.133V208.334Z" fill="#12252D"/>
<path d="M273.859 199.453H242.178V208.334H273.859V199.453Z" fill="#D6B556"/>
<path d="M211.751 208.334H171.525V217.215H211.751V208.334Z" fill="#12252D"/>
<path d="M207.478 199.453H175.796V208.334H207.478V199.453Z" fill="#D6B556"/>
<path d="M140.256 199.454H110.244L114.932 93.5537H135.568L140.256 199.454Z" fill="#FDDE6C"/>
<path d="M206.643 199.454H176.63L181.319 93.5537H201.955L206.643 199.454Z" fill="#FDDE6C"/>
<path d="M273.859 199.454H243.846L248.535 93.5537H269.17L273.859 199.454Z" fill="#FDDE6C"/>
<path d="M339.414 199.454H309.399L314.09 93.5537H334.723L339.414 199.454Z" fill="#FDDE6C"/>
<path d="M353.011 69.6406H96.6443V75.7904H353.011V69.6406Z" fill="#D6B556"/>
<path d="M357.338 59.3486H92.3188V69.6403H357.338V59.3486Z" fill="#FDDE6C"/>
<path d="M356.089 217.215H91.0692V227.507H356.089V217.215Z" fill="#FDDE6C"/>
<path d="M365.147 227.507H82.0087V237.798H365.147V227.507Z" fill="white"/>
<path d="M377.367 237.798H69.7925V248.09H377.367V237.798Z" fill="#D6B556"/>
<path d="M105.825 59.2672L224.828 15.1841L343.83 59.2672H105.825Z" fill="#FDDE6C"/>
<path d="M145.105 51.9922L224.828 22.4595L304.552 51.9922H145.105Z" fill="#D6B556"/>
<path d="M209.115 44.6226C209.115 45.3883 208.942 46.0205 208.597 46.5193C208.253 47.018 207.78 47.4129 207.175 47.7021C206.573 47.9914 205.854 48.1953 205.021 48.3103C204.189 48.4252 203.284 48.4845 202.307 48.4845C201.532 48.4845 200.835 48.4604 200.217 48.4141C199.6 48.3677 198.932 48.3103 198.215 48.2398V35.7975C198.76 35.727 199.357 35.6695 200.002 35.6232C200.649 35.5768 201.402 35.5527 202.264 35.5527C203.126 35.5527 203.847 35.6084 204.558 35.7177C205.268 35.829 205.889 36.0144 206.421 36.2739C206.951 36.5354 207.372 36.8821 207.682 37.3178C207.989 37.7535 208.145 38.3004 208.145 38.9623C208.145 39.5074 207.995 40.0042 207.693 40.4492C207.391 40.896 207.01 41.2409 206.551 41.4838C206.881 41.5876 207.2 41.7248 207.509 41.8935C207.817 42.0622 208.091 42.2699 208.327 42.5201C208.564 42.7704 208.753 43.0689 208.898 43.4156C209.041 43.7642 209.113 44.1647 209.113 44.617L209.115 44.6226ZM201.942 40.5512H202.544C203.161 40.5512 203.644 40.4492 203.987 40.2471C204.331 40.045 204.504 39.6928 204.504 39.194C204.504 38.9512 204.443 38.7472 204.32 38.5841C204.198 38.4209 204.044 38.2948 203.857 38.2021C203.669 38.1094 203.462 38.0464 203.232 38.0112C203.002 37.9759 202.78 37.9593 202.564 37.9593H202.253C202.131 37.9593 202.027 37.9648 201.942 37.9759V40.5512ZM201.942 43.0226V45.9464C202.042 45.9575 202.168 45.9668 202.318 45.9723C202.468 45.9779 202.666 45.9816 202.909 45.9816C203.182 45.9816 203.458 45.9594 203.738 45.9112C204.018 45.8648 204.272 45.7869 204.502 45.6757C204.732 45.5663 204.915 45.4143 205.051 45.2233C205.188 45.0323 205.255 44.7913 205.255 44.5002C205.255 43.944 205.028 43.5584 204.576 43.3433C204.124 43.1283 203.538 43.0207 202.82 43.0207H201.938L201.942 43.0226Z" fill="#F9F9F9"/>
<path d="M213.616 48.2415C213.286 48.2879 212.984 48.3231 212.712 48.3454C212.439 48.3676 212.174 48.3806 211.914 48.3806C211.655 48.3806 211.358 48.3658 211.021 48.338C210.683 48.3083 210.307 48.2657 209.89 48.2082L209.966 46.9567L214.716 35.7825C215.088 35.7473 215.437 35.7195 215.761 35.6954C216.084 35.6731 216.41 35.6602 216.742 35.6602C217.015 35.6602 217.313 35.6713 217.636 35.6954C217.958 35.7195 218.329 35.7473 218.745 35.7825L223.58 46.9734L223.504 48.2249C222.686 48.3287 221.967 48.3806 221.349 48.3806C221.062 48.3806 220.775 48.3695 220.487 48.3454C220.2 48.3213 219.892 48.2879 219.56 48.2415L218.741 45.822C218.339 45.9148 217.955 45.9852 217.588 46.0316C217.221 46.0779 216.859 46.102 216.499 46.102C216.169 46.102 215.832 46.0816 215.487 46.0408C215.142 46 214.783 45.9389 214.41 45.8573L213.613 48.2415H213.616ZM216.633 39.053L215.19 43.5249C215.435 43.5824 215.665 43.6287 215.88 43.664C216.095 43.6992 216.318 43.7159 216.548 43.7159C216.792 43.7159 217.031 43.701 217.269 43.6732C217.506 43.6436 217.753 43.6009 218.012 43.5435L216.633 39.053Z" fill="#F9F9F9"/>
<path d="M224.904 35.7992C225.219 35.7529 225.506 35.7176 225.766 35.6954C226.023 35.6731 226.276 35.6602 226.52 35.6602C226.778 35.6602 227.049 35.675 227.329 35.7028C227.609 35.7325 227.85 35.764 228.05 35.7992L233.046 42.6202V35.7992C233.419 35.7529 233.757 35.7176 234.059 35.6954C234.361 35.6731 234.633 35.6602 234.878 35.6602C235.123 35.6602 235.381 35.6713 235.653 35.6954C235.926 35.7195 236.213 35.7529 236.515 35.7992L236.493 48.2249C236.348 48.2601 236.141 48.2953 235.868 48.3287C235.596 48.3639 235.301 48.3806 234.986 48.3806C234.626 48.3806 234.303 48.3602 234.016 48.3194C233.729 48.2786 233.521 48.2471 233.391 48.223L228.372 41.4354V48.223C227.74 48.3268 227.165 48.3787 226.65 48.3787C226.135 48.3787 225.552 48.3268 224.905 48.223V35.7974L224.904 35.7992Z" fill="#F9F9F9"/>
<path d="M239.098 35.7991C239.486 35.7528 239.838 35.7175 240.153 35.6953C240.468 35.673 240.748 35.6601 240.993 35.6601C241.251 35.6601 241.542 35.6712 241.866 35.6953C242.189 35.7194 242.537 35.7528 242.91 35.7991V48.2248C242.148 48.3286 241.518 48.3805 241.015 48.3805C240.483 48.3805 239.845 48.3286 239.098 48.2248V35.7991ZM247.413 41.8024L251.516 46.9733L251.44 48.2248C251.196 48.2711 250.869 48.3082 250.459 48.3378C250.05 48.3675 249.681 48.3805 249.351 48.3805C248.934 48.3805 248.531 48.3657 248.144 48.3378C247.756 48.3082 247.426 48.2711 247.154 48.2248L243.212 41.96L243.288 40.7086L246.853 35.7991C247.284 35.7416 247.658 35.7027 247.973 35.686C248.288 35.6693 248.613 35.6601 248.943 35.6601C249.1 35.6601 249.28 35.6638 249.481 35.6693C249.681 35.6749 249.879 35.686 250.072 35.7045C250.267 35.7212 250.992 34.5328 251.17 34.5495C251.188 34.9611 251.119 35.445 251.094 35.801L247.41 41.8043L247.413 41.8024Z" fill="#F9F9F9"/>
<path d="M209.191 43.3726C209.191 44.1383 209.018 44.7705 208.674 45.2693C208.329 45.768 207.854 46.1629 207.252 46.4521C206.649 46.7414 205.93 46.9453 205.097 47.0603C204.265 47.1752 203.36 47.2345 202.383 47.2345C201.608 47.2345 200.911 47.2104 200.293 47.1641C199.676 47.1177 199.009 47.0603 198.291 46.9898V34.5475C198.836 34.477 199.433 34.4195 200.078 34.3732C200.725 34.3268 201.478 34.3027 202.34 34.3027C203.202 34.3027 203.924 34.3584 204.634 34.4677C205.344 34.579 205.965 34.7644 206.497 35.0239C207.027 35.2854 207.448 35.6321 207.758 36.0678C208.065 36.5035 208.221 37.0504 208.221 37.7123C208.221 38.2574 208.071 38.7542 207.769 39.1992C207.467 39.646 207.087 39.9909 206.627 40.2337C206.957 40.3376 207.276 40.4748 207.585 40.6435C207.893 40.8122 208.167 41.0199 208.403 41.2701C208.64 41.5204 208.829 41.8189 208.974 42.1656C209.117 42.5142 209.189 42.9147 209.189 43.367L209.191 43.3726ZM202.018 39.3012H202.62C203.238 39.3012 203.72 39.1992 204.063 38.9971C204.407 38.795 204.58 38.4428 204.58 37.944C204.58 37.7012 204.519 37.4972 204.396 37.3341C204.274 37.1709 204.12 37.0448 203.933 36.9521C203.746 36.8594 203.538 36.7964 203.308 36.7612C203.078 36.7259 202.856 36.7093 202.641 36.7093H202.329C202.207 36.7093 202.103 36.7148 202.018 36.7259V39.3012ZM202.018 41.7726V44.6964C202.118 44.7075 202.244 44.7168 202.394 44.7223C202.544 44.7279 202.743 44.7316 202.985 44.7316C203.258 44.7316 203.534 44.7094 203.814 44.6612C204.094 44.6148 204.348 44.5369 204.578 44.4257C204.808 44.3163 204.991 44.1643 205.127 43.9733C205.264 43.7823 205.331 43.5413 205.331 43.2502C205.331 42.694 205.105 42.3084 204.652 42.0933C204.2 41.8783 203.614 41.7707 202.896 41.7707H202.014L202.018 41.7726Z" fill="#FDDE6C"/>
<path d="M213.692 46.9915C213.362 47.0379 213.06 47.0731 212.788 47.0954C212.515 47.1176 212.25 47.1306 211.99 47.1306C211.731 47.1306 211.434 47.1158 211.097 47.088C210.759 47.0583 210.383 47.0157 209.966 46.9582L214.79 34.5325C215.163 34.4973 215.511 34.4695 215.836 34.4454C216.158 34.4231 216.485 34.4102 216.816 34.4102C217.089 34.4102 217.387 34.4213 217.71 34.4454C218.033 34.4695 218.403 34.4973 218.819 34.5325L223.58 46.9749C222.762 47.0787 222.043 47.1306 221.426 47.1306C221.138 47.1306 220.851 47.1195 220.563 47.0954C220.276 47.0713 219.968 47.0379 219.636 46.9915L218.819 44.5721C218.416 44.6648 218.033 44.7352 217.666 44.7816C217.298 44.8279 216.937 44.852 216.577 44.852C216.247 44.852 215.91 44.8316 215.565 44.7908C215.22 44.75 214.86 44.6889 214.488 44.6073L213.691 46.9915H213.692ZM216.709 37.803L215.266 42.2749C215.511 42.3324 215.741 42.3787 215.956 42.414C216.171 42.4492 216.394 42.4659 216.624 42.4659C216.868 42.4659 217.107 42.451 217.345 42.4232C217.582 42.3936 217.829 42.3509 218.088 42.2935L216.709 37.803Z" fill="#FDDE6C"/>
<path d="M224.978 34.5492C225.293 34.5029 225.58 34.4676 225.84 34.4454C226.098 34.4231 226.35 34.4102 226.594 34.4102C226.852 34.4102 227.123 34.425 227.403 34.4528C227.683 34.4825 227.924 34.514 228.124 34.5492L233.121 41.3702V34.5492C233.493 34.5029 233.831 34.4676 234.133 34.4454C234.435 34.4231 234.708 34.4102 234.951 34.4102C235.193 34.4102 235.453 34.4213 235.726 34.4454C235.998 34.4695 236.285 34.5029 236.588 34.5492L236.565 46.9749C236.421 47.0101 236.213 47.0453 235.941 47.0787C235.668 47.1139 235.373 47.1306 235.058 47.1306C234.698 47.1306 234.376 47.1102 234.088 47.0694C233.801 47.0286 233.593 46.9971 233.464 46.973L228.445 40.1854V46.973C227.813 47.0768 227.238 47.1287 226.722 47.1287C226.207 47.1287 225.623 47.0768 224.978 46.973V34.5474V34.5492Z" fill="#FDDE6C"/>
<path d="M239.174 34.5491C239.562 34.5028 239.914 34.4675 240.229 34.4453C240.544 34.423 240.824 34.4101 241.069 34.4101C241.327 34.4101 241.618 34.4212 241.942 34.4453C242.265 34.4694 242.613 34.5028 242.986 34.5491V46.9748C242.224 47.0786 241.594 47.1305 241.091 47.1305C240.559 47.1305 239.921 47.0786 239.174 46.9748V34.5491ZM247.489 40.5524L251.518 46.9729C251.273 47.0193 250.947 47.0563 250.537 47.086C250.128 47.1157 249.759 47.1286 249.429 47.1286C249.012 47.1286 248.609 47.1138 248.222 47.086C247.834 47.0563 247.504 47.0193 247.232 46.9729L243.29 40.7082L246.931 34.5473C247.361 34.4898 247.736 34.4508 248.051 34.4342C248.366 34.4175 248.691 34.4082 249.021 34.4082C249.178 34.4082 249.358 34.4119 249.558 34.4175C249.759 34.423 249.957 34.4342 250.15 34.4527C250.345 34.4694 250.53 34.4879 250.71 34.5046C250.89 34.5213 251.044 34.5361 251.173 34.5473L247.489 40.5506V40.5524Z" fill="#FDDE6C"/>
<path d="M178.054 240.318V245.973C178.054 246.423 178.192 246.841 178.427 247.189C178.676 247.556 179.032 247.844 179.451 248.005C179.578 248.055 179.712 248.092 179.849 248.116C179.975 248.138 180.101 248.151 180.233 248.151H270.309C270.657 248.151 270.989 248.068 271.282 247.92C271.938 247.591 272.409 246.937 272.48 246.173C272.482 246.143 272.485 246.114 272.485 246.084C272.485 246.047 272.487 246.01 272.487 245.973V240.318C272.487 240.281 272.487 240.244 272.485 240.207C272.432 239.146 271.608 238.279 270.566 238.154C270.483 238.143 270.396 238.14 270.309 238.14H180.233C180.101 238.14 179.973 238.153 179.849 238.175C179.712 238.199 179.578 238.236 179.451 238.286C179.033 238.447 178.676 238.735 178.427 239.102C178.192 239.45 178.054 239.868 178.054 240.318Z" fill="url(#paint9_linear_324_287)"/>
<path d="M222.288 248.151H270.544C270.856 248.151 271.15 248.068 271.412 247.92C271.998 247.591 272.417 246.937 272.48 246.173C272.482 246.143 272.485 246.114 272.485 246.084C272.485 246.047 272.487 246.01 272.487 245.973V240.318C272.487 240.281 272.487 240.244 272.485 240.207C272.437 239.146 271.703 238.279 270.772 238.154C270.698 238.143 270.62 238.14 270.542 238.14H228.211C228.211 238.14 228.209 238.151 228.208 238.154C227.548 241.024 226.033 244.961 222.562 247.921C222.471 247.999 222.379 248.077 222.286 248.153L222.288 248.151Z" fill="#D6B556"/>
<path d="M189.015 248.153H190.039V238.14H189.015V248.153Z" fill="#D6B556"/>
<path d="M192.482 248.153H193.506V238.14H192.482V248.153Z" fill="#D6B556"/>
<path d="M196.637 248.153H197.661V238.14H196.637V248.153Z" fill="#D6B556"/>
<path d="M203.008 248.153H204.031V238.14H203.008V248.153Z" fill="#D6B556"/>
<path d="M209.743 248.153H210.767V238.14H209.743V248.153Z" fill="#D6B556"/>
<path d="M220.068 248.153H221.092V238.14H220.068V248.153Z" fill="#D6B556"/>
<path d="M229.737 248.153H230.761V238.14H229.737V248.153Z" fill="#D6B556"/>
<path d="M238.37 248.153H239.393V238.14H238.37V248.153Z" fill="#D6B556"/>
<path d="M185.717 248.153H186.74V238.14H185.717V248.153Z" fill="#D6B556"/>
<path d="M183.537 248.153H184.56V238.14H183.537V248.153Z" fill="#D6B556"/>
<path d="M181.433 248.153H182.456V238.14H181.433V248.153Z" fill="#D6B556"/>
<path d="M179.851 238.173V248.116C179.977 248.138 180.103 248.151 180.235 248.151H180.874V238.138H180.235C180.103 238.138 179.975 238.149 179.851 238.173Z" fill="#D6B556"/>
<path d="M178.429 239.1V247.189C178.677 247.556 179.033 247.844 179.452 248.005V238.284C179.035 238.445 178.677 238.733 178.429 239.1Z" fill="#D6B556"/>
<path d="M171.432 230.319V235.974C171.432 236.425 171.569 236.844 171.805 237.19C172.053 237.557 172.409 237.845 172.828 238.006C172.956 238.056 173.089 238.093 173.227 238.117C173.269 238.125 173.31 238.132 173.353 238.136C173.375 238.138 173.399 238.141 173.423 238.143C173.445 238.145 173.469 238.147 173.494 238.149C173.533 238.151 173.571 238.153 173.609 238.153H263.684C264.845 238.153 265.802 237.233 265.861 236.085C265.861 236.048 265.863 236.011 265.863 235.974V230.319C265.863 230.282 265.863 230.245 265.861 230.208C265.802 229.06 264.845 228.141 263.684 228.141H173.609C173.477 228.141 173.349 228.152 173.225 228.176C173.088 228.2 172.954 228.237 172.826 228.287C172.409 228.449 172.051 228.736 171.803 229.103C171.567 229.452 171.43 229.869 171.43 230.319H171.432Z" fill="url(#paint10_linear_324_287)"/>
<path d="M215.665 238.154H263.922C264.958 238.154 265.813 237.235 265.865 236.087C265.865 236.05 265.866 236.013 265.866 235.976V230.321C265.866 230.284 265.867 230.247 265.865 230.21C265.811 229.062 264.958 228.143 263.922 228.143H221.591C220.916 231.085 219.345 235.153 215.684 238.141C215.678 238.147 215.671 238.152 215.665 238.156V238.154Z" fill="#D6B556"/>
<path d="M182.393 238.154H183.416V228.141H182.393V238.154Z" fill="#D6B556"/>
<path d="M185.86 238.154H186.883V228.141H185.86V238.154Z" fill="#D6B556"/>
<path d="M190.015 238.154H191.038V228.141H190.015V238.154Z" fill="#D6B556"/>
<path d="M196.385 238.154H197.409V228.141H196.385V238.154Z" fill="#D6B556"/>
<path d="M203.121 238.154H204.144V228.141H203.121V238.154Z" fill="#D6B556"/>
<path d="M213.446 238.154H214.469V228.141H213.446V238.154Z" fill="#D6B556"/>
<path d="M223.115 238.154H224.138V228.141H223.115V238.154Z" fill="#D6B556"/>
<path d="M232.77 228.141H231.747V238.154H232.77V228.141Z" fill="#D6B556"/>
<path d="M179.094 238.154H180.118V228.141H179.094V238.154Z" fill="#D6B556"/>
<path d="M176.914 238.154H177.938V228.141H176.914V238.154Z" fill="#D6B556"/>
<path d="M174.81 238.154H175.833V228.141H174.81V238.154Z" fill="#D6B556"/>
<path d="M173.228 228.174V238.117C173.354 238.139 173.481 238.152 173.612 238.152H174.252V228.139H173.612C173.481 228.139 173.353 228.15 173.228 228.174Z" fill="#D6B556"/>
<path d="M171.806 229.103V237.192C172.055 237.559 172.411 237.846 172.83 238.008V228.287C172.413 228.448 172.055 228.736 171.806 229.103Z" fill="#D6B556"/>
<path d="M295.779 129.186C295.779 129.186 300.24 127.988 302.294 125.843C304.35 123.7 307.745 124.347 308.941 124.862C310.137 125.378 310.777 127.523 309.325 127.458C307.133 127.362 306.253 130.356 302.795 130.894C299.339 131.431 295.598 133.493 295.598 133.493L295.777 129.184L295.779 129.186Z" fill="white"/>
<path d="M269.226 102.594C269.226 102.594 274.341 132.521 282.74 135.515C287.447 137.193 296.858 132.846 302.09 130.128L300.416 127.285C300.416 127.285 290.401 128.659 289.157 127.888C286.993 126.544 288.784 101.238 283.116 96.6051C277.449 91.9719 272.387 94.4136 269.224 102.595L269.226 102.594Z" fill="#D6B556"/>
<path d="M280.015 248.088H298.071C298.006 247.602 297.604 245.984 295.173 245.624C292.305 245.2 287.245 243.531 286.32 239.595C285.395 235.661 279.31 240.95 279.31 240.95C279.31 240.95 278.678 247.256 280.015 248.086V248.088Z" fill="#12252D"/>
<path d="M248.667 171.059C251.678 177.201 258.816 185.758 261.446 192.388C262.069 193.956 262.44 195.413 262.446 196.709C262.507 211.588 278.657 240.924 278.657 240.924C280.198 241.922 286.77 239.927 286.77 239.927C286.77 239.927 286.008 233.408 282.236 210.88C280.155 198.454 276.646 179.953 273.918 165.859C273.216 162.228 272.563 158.891 272.005 156.025C270.793 149.843 269.999 145.855 269.999 145.855L263.736 145.959L246.822 146.239C246.822 146.239 239.803 152.971 248.665 171.061L248.667 171.059Z" fill="#12252D"/>
<path d="M248.667 171.059C251.678 177.201 258.816 185.758 261.446 192.388C265.179 184.491 270.839 172.49 273.92 165.859C273.218 162.228 272.565 158.891 272.007 156.025C271.117 151.751 270.852 149.838 270.001 145.855L246.824 146.239C246.824 146.239 239.805 152.971 248.667 171.061V171.059Z" fill="#12252D"/>
<path d="M213.856 238.746C214.56 240.806 217.475 242.077 217.966 244.61C218.311 246.377 219.193 247.558 220.168 248.088H228.102C228.233 247.793 228.784 246.258 226.533 245.863C224.04 245.426 222.985 242.469 223.024 239.682C223.024 239.615 223.024 239.547 223.024 239.478C223.037 236.717 222.521 233.204 222.521 233.204L217.219 232.184L216.333 233.425L216.193 233.621C216.193 233.621 213.147 236.686 213.852 238.746H213.856Z" fill="#12252D"/>
<path d="M251.631 207.732C248.453 213.503 225.008 240.299 225.008 240.299C225.008 240.299 217.617 237.804 216.301 233.315C216.301 233.315 230.169 210.529 236.475 200.818C238.277 198.041 239.28 155.598 245.706 147.863C253.762 138.167 268.347 156.564 268.347 156.564C268.347 156.564 263.783 171.408 262.364 176.083C259.22 186.453 253.819 203.755 251.629 207.732H251.631Z" fill="#12252D"/>
<path d="M296.894 129.451C296.894 129.451 301.354 128.253 303.409 126.108C305.465 123.965 308.859 124.612 310.055 125.128C311.251 125.643 311.891 127.788 310.439 127.723C308.248 127.627 307.367 130.621 303.909 131.159C300.453 131.696 296.712 133.758 296.712 133.758L296.892 129.449L296.894 129.451Z" fill="white"/>
<path d="M282.801 94.7772C285.126 90.9152 286.11 88.4716 286.11 88.4716L280.647 78.8882C277.463 87.8654 270.112 89.8955 270.112 89.8955C270.112 89.8955 278.705 99.3251 285.628 99.8015C285.628 99.8015 284.874 97.269 282.801 94.7772Z" fill="white"/>
<path d="M288.053 89.0669C288.053 89.0669 277.218 86.7605 278.757 80.0359C280.296 73.3114 279.935 68.4835 286.919 69.672C293.901 70.8604 294.654 73.7323 294.685 76.1017C294.717 78.4711 290.91 89.4933 288.053 89.0669Z" fill="white"/>
<path d="M278.652 80.4994C278.652 80.4994 282.199 72.0728 292.003 74.3496C298.718 75.9088 296.957 69.0934 296.562 67.968C296.562 67.968 291.346 66.9873 285.951 66.127C274.629 64.3193 278.047 78.8029 278.654 80.4994H278.652Z" fill="#12252D"/>
<path d="M287.74 109.776C287.527 113.14 286.513 118.236 285.135 123.889C284.599 126.079 284.012 128.352 283.394 130.641C282.391 134.355 281.348 138.091 280.27 141.608L280.23 141.734C280.152 142.092 280.031 142.472 279.922 142.819C278.987 145.924 278.092 148.798 277.311 151.24C275.817 155.906 275.808 158.507 274.614 159.034C272.216 160.093 262.781 158.956 257.127 156.505C252.349 154.471 245.07 148.338 245.107 145.251C245.15 141.673 249.953 130.899 253.137 118.318C257.064 102.952 265.776 90.6799 273.042 88.1492C273.585 87.973 274.163 89.1132 276.269 91.1341C278.214 93.0011 280.7 94.1636 283.018 94.412L284.368 96.7221C286.242 100.026 288.087 104.294 287.74 109.778V109.776Z" fill="url(#paint11_linear_324_287)"/>
<path d="M283.394 130.639C282.859 132.829 284.012 128.35 283.394 130.639C282.391 134.353 281.348 138.089 280.27 141.606L280.23 141.732C280.152 142.09 280.031 142.47 279.922 142.817C278.987 145.922 278.092 148.796 277.311 151.238C262.201 132.045 270.77 109.059 270.77 109.059L283.396 130.641L283.394 130.639Z" fill="#D6B556"/>
<path d="M262.231 102.594C262.231 102.594 271.684 137.401 280.341 139.535C284.612 140.588 296.333 135.154 301.566 132.438C301.566 132.438 302.88 131.368 299.975 127.582C299.975 127.582 284.486 130.491 283.244 129.72C281.08 128.376 285.443 104.878 279.773 100.245C274.106 95.6116 265.392 94.4121 262.229 102.594H262.231Z" fill="url(#paint12_linear_324_287)"/>
<path d="M284.636 76.3075C284.636 76.3075 285.855 74.2921 289.105 73.9658C289.105 73.9658 279.555 74.1661 279.156 77.101C278.759 80.0359 278.654 80.4994 278.654 80.4994C278.654 80.4994 283.7 80.7052 284.636 76.3075Z" fill="#12252D"/>
<path d="M400.444 194.685L412.668 193.634C412.668 193.634 411.962 186.097 414.112 176.047C415.699 168.621 418.844 159.824 424.982 151.677C435.45 137.783 466.546 130.009 466.546 130.009V128.211L465.428 128.09C465.428 128.09 465.91 127.755 466.546 127.56V123.309C465.626 123.296 464.312 123.352 463.012 123.656C463.741 123.474 465.294 123.118 466.546 123.022V120.786C421.501 121.991 406.811 149.199 402.206 170.256C399.258 183.733 400.443 194.691 400.443 194.691L400.444 194.685Z" fill="#12252D"/>
<path d="M346.947 190.73L400.444 194.685C400.721 186.446 402.871 177.923 404.951 171.463C407.032 165.002 409.043 160.602 409.043 160.602C425.047 125.534 466.548 120.782 466.548 120.782L420.488 101.919C398.236 103.593 382.627 114.28 371.707 127.697C350.323 153.976 346.947 190.73 346.947 190.73Z" fill="#F9F9F9"/>
<path opacity="0.5" d="M346.947 190.73L400.444 194.685L412.668 193.634C412.668 193.634 411.962 186.097 414.112 176.046C411.563 174.511 408.534 172.978 404.952 171.463C404.012 171.065 403.098 170.661 402.208 170.251C368.146 154.529 371.318 130.039 371.705 127.697C350.321 153.976 346.945 190.73 346.945 190.73H346.947Z" fill="#12252D"/>
<path d="M351.153 194.85L398.83 193.929L398.661 193.011C398.635 192.872 396.188 178.893 401.903 163C405.252 153.689 410.712 145.542 418.13 138.788C427.424 130.326 439.844 124.028 455.045 120.07L457.387 119.46L420.175 104.65L420.032 104.646C419.63 104.637 410.044 104.493 397.724 110.32C390.503 113.735 383.855 118.507 377.964 124.503C370.615 131.984 364.432 141.401 359.589 152.493C359.207 153.346 350.15 173.677 350.629 185.884V185.899L351.15 194.85H351.153ZM396.961 192.377L352.648 193.233L352.216 185.814C352.027 180.938 353.488 173.748 356.443 165.024C358.688 158.396 361.019 153.187 361.041 153.135C365.8 142.235 371.861 132.993 379.054 125.658C384.802 119.797 391.285 115.131 398.325 111.792C405.962 108.167 412.622 106.905 416.478 106.465C418.503 106.235 420.551 106.508 422.444 107.261L448.234 117.524C449.58 118.06 449.511 119.983 448.132 120.426C435.589 124.464 425.149 130.241 417.027 137.648C409.414 144.588 403.817 152.96 400.387 162.531C397.339 171.039 396.605 178.937 396.529 184.065C396.467 188.044 396.773 190.975 396.963 192.377H396.961Z" fill="#12252D"/>
<path d="M341.635 194.698L341.946 198.285C341.97 198.571 342.08 198.829 342.249 199.036C342.427 199.253 342.668 199.416 342.942 199.496C343.025 199.522 343.114 199.539 343.201 199.544C343.283 199.553 343.363 199.553 343.446 199.544L343.852 199.509L344.206 199.477L344.855 199.422L345.541 199.363L346.19 199.307L346.923 199.244L347.573 199.188L349.016 199.062L349.665 199.007L351.215 198.873L351.863 198.817L353.851 198.645L354.5 198.589L357.891 198.295L358.54 198.239L362.163 197.924L362.811 197.868L368.713 197.356L369.362 197.301L370.118 197.236L374.844 196.826L375.493 196.771L380.319 196.352L380.97 196.296L384.55 195.986L390.72 195.451L400.583 194.596C401.249 194.535 401.766 194.008 401.839 193.367C401.842 193.337 401.844 193.309 401.846 193.279C401.85 193.218 401.846 193.157 401.842 193.094L401.533 189.507C401.533 189.484 401.529 189.462 401.525 189.438C401.449 188.884 401.051 188.444 400.539 188.292C400.38 188.244 400.205 188.225 400.029 188.242L385.221 189.527L385.169 189.531L384.52 189.586L383.997 189.631L379.767 189.998L379.692 190.003L379.043 190.059L374.94 190.415L374.429 190.458L374.293 190.471L373.561 190.534L373.327 190.554L372.912 190.589L368.809 190.945L368.16 191.001L367.011 191.101L366.36 191.157L362.737 191.472L362.259 191.514L362.088 191.529L361.61 191.572L358.697 191.824L358.048 191.88L357.987 191.885L357.338 191.941L356.061 192.05L355.412 192.106L353.862 192.239L353.213 192.295L351.771 192.421L351.309 192.462L351.12 192.479L350.66 192.519L350.388 192.542L349.739 192.597L349.112 192.653L349.055 192.657L348.463 192.708L348.406 192.712L348.052 192.744L347.403 192.799L347.149 192.822H347.145L347.023 192.833L346.372 192.888L345.64 192.951L344.991 193.007L343.656 193.124L343.302 193.153L342.896 193.189C342.812 193.196 342.732 193.211 342.655 193.231C342.567 193.254 342.486 193.287 342.406 193.326C342.15 193.452 341.941 193.654 341.804 193.901C341.672 194.134 341.609 194.407 341.633 194.692L341.635 194.698Z" fill="url(#paint13_linear_324_287)"/>
<path d="M370.122 197.232L374.848 196.823L375.497 196.767L380.323 196.348L380.973 196.292L384.554 195.983L390.724 195.447L400.587 194.592L400.732 194.579C401.327 194.527 401.787 194.004 401.842 193.363C401.846 193.333 401.848 193.306 401.85 193.276C401.853 193.215 401.85 193.153 401.846 193.09L401.536 189.503C401.536 189.481 401.533 189.458 401.529 189.434C401.455 188.88 401.093 188.435 400.633 188.281C400.491 188.233 400.339 188.213 400.181 188.226L400.033 188.238L385.225 189.523L385.173 189.527L384.524 189.583L384.001 189.627L380.421 189.939L379.77 189.994L379.696 190L379.047 190.055L374.944 190.411L374.432 190.456L374.297 190.467L373.565 190.53L373.331 190.55C373.327 190.582 373.322 190.613 373.318 190.645C373.04 192.545 372.254 195.163 370.124 197.229L370.122 197.232Z" fill="#D6B556"/>
<path d="M349.01 199.078L349.66 199.022L349.109 192.67L348.459 192.726L349.01 199.078Z" fill="#D6B556"/>
<path d="M351.211 198.884L351.862 198.827L351.31 192.475L350.66 192.531L351.211 198.884Z" fill="#D6B556"/>
<path d="M353.842 198.666L354.492 198.609L353.941 192.257L353.291 192.314L353.842 198.666Z" fill="#D6B556"/>
<path d="M357.881 198.317L358.531 198.26L357.98 191.908L357.33 191.965L357.881 198.317Z" fill="#D6B556"/>
<path d="M362.155 197.945L362.805 197.888L362.254 191.536L361.603 191.593L362.155 197.945Z" fill="#D6B556"/>
<path d="M368.714 197.358L369.364 197.301L368.813 190.949L368.162 191.006L368.714 197.358Z" fill="#D6B556"/>
<path d="M374.842 196.837L375.492 196.78L374.94 190.428L374.29 190.485L374.842 196.837Z" fill="#D6B556"/>
<path d="M380.313 196.372L380.963 196.316L380.412 189.964L379.762 190.02L380.313 196.372Z" fill="#D6B556"/>
<path d="M346.919 199.256L347.57 199.199L347.018 192.847L346.368 192.904L346.919 199.256Z" fill="#D6B556"/>
<path d="M345.536 199.38L346.186 199.323L345.635 192.971L344.984 193.028L345.536 199.38Z" fill="#D6B556"/>
<path d="M344.206 199.485L344.856 199.429L344.305 193.077L343.655 193.133L344.206 199.485Z" fill="#D6B556"/>
<path d="M342.655 193.239L343.201 199.546C343.283 199.553 343.365 199.553 343.448 199.546L343.854 199.511L343.303 193.159L342.897 193.194C342.814 193.202 342.734 193.216 342.656 193.237L342.655 193.239Z" fill="#D6B556"/>
<path d="M341.803 193.904L342.248 199.034C342.426 199.253 342.667 199.416 342.942 199.496L342.408 193.331C342.152 193.457 341.941 193.659 341.803 193.904Z" fill="#D6B556"/>
<path d="M345.844 188.027L346.155 191.615C346.179 191.9 346.289 192.158 346.457 192.365C346.479 192.393 346.502 192.417 346.526 192.443C346.622 192.545 346.733 192.632 346.856 192.701C346.947 192.753 347.043 192.796 347.145 192.825C347.145 192.825 347.145 192.825 347.149 192.825C347.232 192.849 347.321 192.866 347.408 192.873C347.49 192.881 347.571 192.881 347.653 192.873L348.059 192.838L348.413 192.807L348.471 192.803L349.062 192.751L349.12 192.747L349.746 192.692L350.395 192.636L350.668 192.612L351.128 192.571L351.317 192.555L351.778 192.514L353.221 192.388L353.304 192.38L353.87 192.332L353.953 192.325L355.418 192.199L356.067 192.143L357.344 192.032L357.993 191.976L358.056 191.97L358.705 191.915L361.618 191.663L362.096 191.62L362.266 191.605L362.745 191.563L366.368 191.247L367.018 191.192L368.168 191.092L368.817 191.036L372.92 190.68L373.313 190.647L373.569 190.624L374.301 190.561H374.325L374.95 190.506L379.053 190.152L379.702 190.096L379.776 190.089L380.427 190.033L384.007 189.723L384.53 189.677L385.178 189.621L385.364 189.605L400.539 188.29L400.63 188.281L404.794 187.921C405.46 187.86 405.979 187.334 406.049 186.692C406.053 186.662 406.055 186.636 406.057 186.607C406.06 186.546 406.057 186.483 406.053 186.42L405.743 182.832C405.743 182.81 405.74 182.788 405.736 182.763C405.732 182.741 405.73 182.721 405.727 182.699C405.597 182.005 404.957 181.506 404.242 181.568L403.27 181.651L403.175 181.66L398.55 182.061L386.23 183.131L384.632 183.27L383.983 183.325L383.46 183.37L383.067 183.403L382.418 183.459L379.155 183.742L378.506 183.798L377.594 183.878L377.54 183.881L376.945 183.933L372.328 184.332L371.461 184.406L370.81 184.462L364.908 184.973L364.26 185.029L360.637 185.344L359.988 185.4L356.597 185.695L355.946 185.75L355.522 185.787L354.873 185.843L353.96 185.923L353.312 185.978L351.762 186.112L351.233 186.158L351.113 186.167L350.582 186.214L349.85 186.277L349.672 186.293L349.023 186.349L348.289 186.412L347.64 186.468L347.514 186.479L347.108 186.514C347.058 186.518 347.008 186.525 346.958 186.536C346.928 186.542 346.897 186.549 346.867 186.557C346.784 186.579 346.704 186.609 346.628 186.648H346.622C346.622 186.648 346.622 186.651 346.619 186.651C346.363 186.777 346.153 186.979 346.016 187.226C345.884 187.46 345.821 187.732 345.845 188.018L345.844 188.027Z" fill="url(#paint14_linear_324_287)"/>
<path d="M374.331 190.562L374.955 190.506L379.058 190.152L379.707 190.096L379.781 190.089L380.432 190.033L384.012 189.724L384.535 189.677L385.184 189.622L385.369 189.605L400.545 188.29L400.635 188.281L404.8 187.921L404.944 187.908C405.539 187.858 405.999 187.334 406.055 186.692C406.058 186.663 406.06 186.637 406.062 186.607C406.066 186.546 406.062 186.483 406.058 186.42L405.749 182.832C405.749 182.81 405.745 182.788 405.741 182.764C405.738 182.741 405.736 182.721 405.732 182.699C405.612 182.007 405.033 181.501 404.395 181.555L404.247 181.568L403.276 181.651L403.181 181.66L398.555 182.061L386.237 183.131L384.637 183.27L383.988 183.325L383.465 183.37L383.072 183.403L382.423 183.459L379.16 183.742L378.511 183.798L377.599 183.878L377.545 183.881C377.542 183.911 377.536 183.943 377.532 183.974C377.256 185.843 376.492 188.409 374.44 190.456C374.407 190.493 374.371 190.526 374.338 190.56L374.331 190.562Z" fill="#D6B556"/>
<path d="M353.229 192.387L353.879 192.33L353.328 185.978L352.678 186.035L353.229 192.387Z" fill="#D6B556"/>
<path d="M355.418 192.216L356.068 192.16L355.517 185.808L354.866 185.864L355.418 192.216Z" fill="#D6B556"/>
<path d="M358.06 191.978L358.71 191.922L358.158 185.57L357.508 185.626L358.06 191.978Z" fill="#D6B556"/>
<path d="M362.099 191.627L362.749 191.571L362.198 185.219L361.547 185.275L362.099 191.627Z" fill="#D6B556"/>
<path d="M366.372 191.257L367.022 191.201L366.471 184.849L365.821 184.905L366.372 191.257Z" fill="#D6B556"/>
<path d="M372.923 190.685L373.573 190.628L373.022 184.276L372.372 184.333L372.923 190.685Z" fill="#D6B556"/>
<path d="M379.051 190.164L379.701 190.107L379.15 183.755L378.5 183.812L379.051 190.164Z" fill="#D6B556"/>
<path d="M384.527 189.694L385.177 189.637L384.626 183.285L383.976 183.342L384.527 189.694Z" fill="#D6B556"/>
<path d="M351.133 192.577L351.783 192.521L351.232 186.169L350.582 186.225L351.133 192.577Z" fill="#D6B556"/>
<path d="M349.751 192.696L350.401 192.639L349.85 186.287L349.2 186.343L349.751 192.696Z" fill="#D6B556"/>
<path d="M348.41 192.824L349.061 192.767L348.509 186.415L347.859 186.471L348.41 192.824Z" fill="#D6B556"/>
<path d="M346.863 186.568L347.41 192.875C347.49 192.883 347.573 192.883 347.655 192.875L348.061 192.84L347.51 186.488L347.104 186.524C347.021 186.531 346.941 186.546 346.863 186.566V186.568Z" fill="#D6B556"/>
<path d="M346.012 187.234L346.457 192.364C346.635 192.582 346.876 192.746 347.151 192.825L346.617 186.661C346.361 186.787 346.149 186.989 346.012 187.234Z" fill="#D6B556"/>
<path d="M343.739 181.901L344.049 185.489C344.075 185.774 344.184 186.032 344.353 186.24C344.531 186.459 344.772 186.622 345.046 186.701C345.13 186.726 345.217 186.742 345.306 186.75C345.387 186.757 345.467 186.757 345.551 186.75L345.957 186.714L346.311 186.683L346.62 186.657H346.624L346.869 186.635L346.962 186.625L347.518 186.577L347.646 186.566L347.872 186.546L348.295 186.51L348.521 186.49L349.027 186.447L349.205 186.431L349.676 186.39L349.854 186.373L350.586 186.31L351.118 186.264L351.237 186.255L351.767 186.208L352.679 186.129L353.317 186.073H353.328L353.966 186.017L354.878 185.938L355.527 185.882L355.954 185.845L356.604 185.789L357.517 185.71L358.165 185.654L359.995 185.494L360.644 185.439L361.556 185.359L362.205 185.304L364.267 185.126L364.916 185.07L365.828 184.992L366.479 184.935L370.817 184.56L371.468 184.503L372.224 184.438L372.378 184.425L373.027 184.369L376.948 184.028L377.523 183.978L377.597 183.972L378.51 183.893L379.158 183.837L382.423 183.553L383.072 183.498L383.464 183.464L383.986 183.42L384.635 183.362L386.369 183.212L402.684 181.798C402.857 181.783 403.022 181.736 403.17 181.664C403.617 181.445 403.926 180.995 403.95 180.485C403.954 180.424 403.95 180.361 403.947 180.298L403.635 176.71C403.632 176.666 403.626 176.621 403.619 176.577C403.518 176.05 403.125 175.635 402.627 175.494C402.491 175.457 402.349 175.438 402.202 175.444H402.193C402.174 175.444 402.154 175.448 402.134 175.448L382.913 177.114L382.522 177.15L381.873 177.205L377.047 177.624L376.396 177.68L375.43 177.763L370.914 178.156L370.263 178.212L364.362 178.724L363.713 178.779L360.09 179.094L359.441 179.15L356.05 179.445L355.399 179.5L353.414 179.673L352.765 179.728L351.215 179.862L350.566 179.918L349.121 180.044L348.473 180.099L347.74 180.162L347.091 180.218L346.405 180.277L345.755 180.333L345.4 180.364L344.994 180.4C344.911 180.407 344.831 180.422 344.752 180.442C344.666 180.465 344.583 180.496 344.505 180.535C344.249 180.661 344.04 180.863 343.902 181.11C343.771 181.343 343.708 181.616 343.732 181.901H343.739Z" fill="url(#paint15_linear_324_287)"/>
<path d="M372.226 184.436L372.38 184.423L373.029 184.367L376.95 184.026L377.525 183.976L377.599 183.97L378.511 183.891L379.16 183.835L382.425 183.551L383.074 183.496L383.465 183.461L383.988 183.416L384.637 183.36L386.372 183.21L402.836 181.783C402.99 181.77 403.137 181.723 403.268 181.653C403.665 181.438 403.936 180.991 403.954 180.479C403.958 180.418 403.954 180.355 403.95 180.292L403.639 176.705C403.635 176.66 403.63 176.616 403.622 176.571C403.53 176.041 403.172 175.624 402.723 175.479C402.584 175.435 402.438 175.418 402.286 175.431L402.206 175.438H402.197L382.917 177.111L382.525 177.146L381.876 177.201L377.05 177.62L376.4 177.676L375.434 177.759C375.172 179.636 374.418 182.257 372.326 184.336C372.293 184.371 372.26 184.404 372.226 184.436Z" fill="#D6B556"/>
<path d="M351.115 186.282L351.765 186.226L351.214 179.874L350.563 179.93L351.115 186.282Z" fill="#D6B556"/>
<path d="M353.316 186.09L353.966 186.033L353.415 179.681L352.765 179.738L353.316 186.09Z" fill="#D6B556"/>
<path d="M355.95 185.861L356.601 185.804L356.049 179.452L355.399 179.509L355.95 185.861Z" fill="#D6B556"/>
<path d="M359.988 185.521L360.638 185.464L360.086 179.112L359.436 179.169L359.988 185.521Z" fill="#D6B556"/>
<path d="M364.259 185.149L364.909 185.093L364.358 178.74L363.708 178.797L364.259 185.149Z" fill="#D6B556"/>
<path d="M370.818 184.562L371.468 184.506L370.917 178.154L370.267 178.21L370.818 184.562Z" fill="#D6B556"/>
<path d="M376.946 184.041L377.596 183.984L377.045 177.632L376.395 177.689L376.946 184.041Z" fill="#D6B556"/>
<path d="M382.423 183.563L383.073 183.507L382.522 177.155L381.872 177.211L382.423 183.563Z" fill="#D6B556"/>
<path d="M349.02 186.471L349.67 186.415L349.119 180.062L348.469 180.119L349.02 186.471Z" fill="#D6B556"/>
<path d="M347.636 186.589L348.286 186.533L347.735 180.181L347.085 180.237L347.636 186.589Z" fill="#D6B556"/>
<path d="M346.311 186.689L346.961 186.633L346.409 180.281L345.759 180.337L346.311 186.689Z" fill="#D6B556"/>
<path d="M344.759 180.442L345.306 186.75C345.388 186.757 345.469 186.757 345.553 186.75L345.959 186.714L345.408 180.363L345.002 180.398C344.918 180.405 344.839 180.42 344.761 180.44L344.759 180.442Z" fill="#D6B556"/>
<path d="M343.908 181.108L344.353 186.238C344.531 186.457 344.772 186.62 345.046 186.7L344.512 180.533C344.257 180.659 344.045 180.861 343.908 181.106V181.108Z" fill="#D6B556"/>
<path opacity="0.5" d="M384.268 184.79C384.268 184.814 384.268 184.834 384.272 184.858L384.6 188.444C384.604 188.507 384.615 188.57 384.628 188.63C384.706 188.989 384.906 189.293 385.171 189.486C385.188 189.501 385.206 189.512 385.227 189.523C385.271 189.553 385.319 189.581 385.368 189.605C385.549 189.692 385.749 189.731 385.957 189.712L386.102 189.699L390.264 189.321C389.838 189.555 389.559 190.057 389.585 190.615C389.585 190.637 389.585 190.66 389.589 190.684L389.915 194.27C389.921 194.333 389.93 194.396 389.945 194.455C390.043 194.915 390.344 195.284 390.724 195.447L400.587 194.592L400.732 194.579C401.327 194.527 401.787 194.004 401.842 193.363C401.846 193.333 401.848 193.305 401.85 193.276C401.853 193.215 401.85 193.153 401.846 193.09L401.536 189.503C401.536 189.481 401.533 189.458 401.529 189.434C401.455 188.88 401.093 188.435 400.634 188.281L404.798 187.921L404.942 187.908C405.537 187.858 405.997 187.334 406.053 186.692C406.057 186.662 406.058 186.636 406.06 186.607C406.064 186.546 406.06 186.483 406.057 186.42L405.747 182.832C405.747 182.81 405.743 182.788 405.74 182.763C405.736 182.741 405.734 182.721 405.73 182.699C405.61 182.007 405.031 181.501 404.394 181.555L404.245 181.568L403.274 181.651C403.67 181.438 403.941 180.991 403.96 180.479C403.963 180.418 403.96 180.355 403.956 180.292L403.645 176.705C403.641 176.66 403.635 176.616 403.628 176.571C403.535 176.041 403.177 175.624 402.729 175.479L402.634 175.488L386.528 176.949C386.508 176.949 386.487 176.953 386.469 176.955H386.46L386.378 176.964C385.74 177.022 385.262 177.619 385.264 178.323C385.264 178.368 385.267 178.412 385.271 178.457L385.596 182.044C385.601 182.107 385.61 182.168 385.625 182.229C385.709 182.617 385.935 182.941 386.233 183.131C386.278 183.162 386.326 183.188 386.374 183.21C386.417 183.229 386.458 183.245 386.5 183.26L385.529 183.347L385.381 183.362C385.104 183.388 384.858 183.514 384.669 183.705C384.405 183.97 384.248 184.363 384.268 184.788V184.79Z" fill="#F9F9F9"/>
<path d="M393.045 127.516C400.899 127.516 405.25 132.214 405.25 140.067C405.25 147.921 397.116 152.667 389.263 152.667C381.409 152.667 376.807 147.921 376.807 140.067C376.807 132.214 385.191 127.516 393.045 127.516Z" fill="#12252D"/>
<path d="M338.754 240.207C339.592 235.041 336.084 230.174 330.919 229.335C325.753 228.497 320.885 232.005 320.047 237.171C319.208 242.336 322.716 247.204 327.882 248.042C333.048 248.881 337.915 245.373 338.754 240.207Z" fill="#12252D"/>
<path d="M325.028 238.677C325.028 236.269 326.981 234.318 329.387 234.318C331.794 234.318 333.746 236.271 333.746 238.677C333.746 241.084 331.794 243.036 329.387 243.036C326.981 243.036 325.028 241.084 325.028 238.677Z" fill="url(#paint16_linear_324_287)"/>
<path d="M414.322 240.208C415.161 235.042 411.653 230.175 406.487 229.336C401.321 228.498 396.454 232.006 395.615 237.172C394.777 242.337 398.285 247.205 403.451 248.043C408.616 248.882 413.484 245.374 414.322 240.208Z" fill="#12252D"/>
<path d="M406.619 242.704C408.843 241.783 409.899 239.233 408.978 237.009C408.057 234.785 405.507 233.729 403.283 234.65C401.059 235.572 400.003 238.121 400.924 240.345C401.845 242.569 404.395 243.626 406.619 242.704Z" fill="url(#paint17_linear_324_287)"/>
<path d="M310.515 128.342C311.049 127.768 311.948 127.734 312.523 128.268L324.652 139.522C324.832 139.689 324.965 139.899 325.04 140.132L326.58 144.973L428.359 149.799C428.735 149.818 429.089 149.984 429.343 150.263C429.597 150.543 429.729 150.91 429.71 151.288L427.626 194.116C427.591 194.833 427.026 195.412 426.31 195.464L342.738 201.528C342.703 201.53 342.669 201.532 342.634 201.532C342.021 201.532 341.47 201.135 341.281 200.542L324.181 146.809C324.174 146.786 324.166 146.766 324.161 146.744L322.444 141.35L310.589 130.35C310.015 129.816 309.981 128.917 310.515 128.342ZM338.958 183.865L348.306 183.507L344.396 167.733L333.796 167.644L338.96 183.867L338.958 183.865ZM350.82 183.411L361.339 183.008L357.783 167.846L346.937 167.753L350.818 183.411H350.82ZM364.643 197.091L361.914 185.452L351.426 185.854L354.396 197.835L364.643 197.091ZM376.795 196.209L374.705 184.961L364.421 185.354L367.131 196.91L376.795 196.209ZM390.186 195.237L388.551 184.43L377.191 184.866L379.266 196.029L390.186 195.237ZM401.358 194.427L400.571 183.971L391.028 184.336L392.65 195.058L401.358 194.425V194.427ZM414.911 193.445L414.263 183.448L403.035 183.878L403.817 194.251L414.913 193.446L414.911 193.445ZM426.032 168.425L415.749 168.337L416.565 180.893L425.442 180.552L426.032 168.425ZM413.278 168.317L401.852 168.221L402.847 181.419L414.101 180.987L413.278 168.317ZM400.578 151.331L401.666 165.755L413.119 165.851L412.212 151.881L400.58 151.331H400.578ZM385.929 150.635L388.199 165.642L399.193 165.734L398.097 151.214L385.929 150.637V150.635ZM370.695 149.912L373.595 165.516L385.705 165.618L383.421 150.515L370.695 149.912ZM355.942 149.213L359.738 165.401L371.084 165.497L368.166 149.794L355.942 149.213ZM386.078 168.087L374.052 167.985L376.735 182.419L388.178 181.979L386.078 168.085V168.087ZM390.657 181.885L400.383 181.512L399.38 168.198L388.573 168.108L390.657 181.885ZM371.544 167.963L360.318 167.868L363.846 182.912L374.247 182.513L371.544 167.963ZM357.203 165.378L353.384 149.093L342.178 148.561L346.324 165.286L357.203 165.378ZM414.687 151.998L415.588 165.872L426.15 165.961L426.801 152.571L414.685 151.996L414.687 151.998ZM425.32 183.021L416.723 183.351L417.366 193.265L424.847 192.722L425.32 183.021ZM343.648 198.614L351.899 198.015L348.908 185.949L339.731 186.301L343.65 198.614H343.648ZM333.006 165.173L343.78 165.263L339.608 148.438L327.498 147.863L333.006 165.173Z" fill="#12252D"/>
<path d="M315.675 134.837C316.148 134.837 316.617 134.642 316.954 134.26C317.577 133.554 317.51 132.477 316.804 131.854L310.6 126.381C309.894 125.758 308.817 125.825 308.194 126.531C307.571 127.237 307.638 128.315 308.344 128.938L314.546 134.411C314.87 134.696 315.272 134.837 315.673 134.837H315.675Z" fill="url(#paint18_linear_324_287)"/>
<path d="M426.21 195.753C427.115 195.753 427.867 195.043 427.912 194.131L429.996 151.303C430.042 150.361 429.315 149.562 428.375 149.515C427.428 149.465 426.634 150.196 426.588 151.136L424.504 193.964C424.458 194.904 425.184 195.705 426.124 195.751C426.152 195.751 426.18 195.753 426.21 195.753Z" fill="url(#paint19_linear_324_287)"/>
<path d="M329.102 238.019L331.007 226.544C330.253 226.507 329.654 225.886 329.654 225.126V209.588C329.654 209.161 329.845 208.759 330.175 208.488L341.735 199.012C342.343 198.515 343.237 198.604 343.735 199.211C344.232 199.817 344.145 200.712 343.537 201.211L332.498 210.261V223.732L414.031 225.204L416.559 218.084C416.823 217.345 417.635 216.957 418.375 217.221C419.114 217.484 419.502 218.296 419.238 219.036L416.828 225.821L427.672 230.058C428.403 230.343 428.764 231.168 428.479 231.899C428.26 232.461 427.722 232.804 427.155 232.804C426.983 232.804 426.808 232.772 426.638 232.705L414.746 228.061L413.241 228.033L405.393 239.302C404.998 239.869 404.262 239.485 404.293 238.729L404.76 227.879L339.597 226.702L329.958 238.499C329.621 238.913 329.013 238.571 329.103 238.021L329.102 238.019Z" fill="#12252D"/>
<path d="M85.8262 207.491L73.6026 206.439C73.6026 206.439 74.309 198.903 72.1583 188.852C70.5713 181.427 67.4269 172.629 61.2882 164.483C50.8204 150.589 19.7247 142.815 19.7247 142.815V141.016L20.8427 140.896C20.8427 140.896 20.3607 140.56 19.7247 140.366V136.114C20.6443 136.101 21.9588 136.157 23.2585 136.461C22.5299 136.279 20.9762 135.923 19.7247 135.827V133.591C64.77 134.796 79.4594 162.004 84.0648 183.062C87.0127 196.539 85.828 207.496 85.828 207.496L85.8262 207.491Z" fill="#12252D"/>
<path d="M139.326 203.536L85.828 207.491C85.5518 199.251 83.4011 190.728 81.3209 184.269C79.2407 177.808 77.2291 173.408 77.2291 173.408C61.2251 138.339 19.7247 133.587 19.7247 133.587L65.7842 114.725C88.0362 116.399 103.645 127.085 114.565 140.503C135.95 166.782 139.326 203.536 139.326 203.536Z" fill="#F9F9F9"/>
<path opacity="0.5" d="M139.326 203.536L85.828 207.491L73.6044 206.439C73.6044 206.439 74.3108 198.903 72.1602 188.852C74.7094 187.317 77.7389 185.784 81.3209 184.269C82.2609 183.87 83.1749 183.466 84.0648 183.056C118.127 167.334 114.955 142.845 114.565 140.503C135.95 166.782 139.326 203.536 139.326 203.536Z" fill="#12252D"/>
<path d="M135.119 207.655L87.4429 206.734L87.6116 205.816C87.6376 205.677 90.0849 191.698 84.369 175.805C81.0206 166.494 75.5605 158.348 68.1426 151.595C58.8483 143.134 46.4282 136.835 31.2271 132.877L28.8855 132.267L66.0976 117.457L66.2403 117.454C66.6427 117.444 76.2279 117.3 88.5479 123.127C95.7693 126.542 102.418 131.314 108.308 137.31C115.657 144.791 121.841 154.208 126.683 165.3C127.065 166.153 136.122 186.484 135.644 198.691V198.706L135.123 207.657L135.119 207.655ZM89.3118 205.182L133.625 206.039L134.057 198.619C134.246 193.743 132.785 186.553 129.83 177.83C127.584 171.202 125.254 165.992 125.232 165.94C120.472 155.04 114.412 145.798 107.218 138.463C101.47 132.603 94.9869 127.936 87.9472 124.597C80.3105 120.972 73.6509 119.71 69.7945 119.27C67.7699 119.041 65.7212 119.313 63.8282 120.066L38.0388 130.33C36.6928 130.866 36.7614 132.788 38.1408 133.231C50.6832 137.269 61.1232 143.046 69.2457 150.453C76.8583 157.393 82.4556 165.766 85.8855 175.336C88.9336 183.844 89.6659 191.742 89.7438 196.871C89.8049 200.849 89.499 203.78 89.3099 205.182H89.3118Z" fill="#12252D"/>
<path d="M93.2255 140.323C85.3719 140.323 81.0205 145.021 81.0205 152.875C81.0205 160.728 89.1541 165.475 97.0077 165.475C104.861 165.475 109.463 160.728 109.463 152.875C109.463 145.021 101.079 140.323 93.2255 140.323Z" fill="#12252D"/>
<path d="M114.022 248.333C142.176 248.333 165 225.509 165 197.355C165 169.2 142.176 146.376 114.022 146.376C85.8675 146.376 63.0438 169.2 63.0438 197.355C63.0438 225.509 85.8675 248.333 114.022 248.333Z" fill="#F9F9F9"/>
<path d="M109.574 248.333C137.729 248.333 160.552 225.509 160.552 197.355C160.552 169.2 137.729 146.376 109.574 146.376C81.4198 146.376 58.5961 169.2 58.5961 197.355C58.5961 225.509 81.4198 248.333 109.574 248.333Z" fill="url(#paint20_linear_324_287)"/>
<path d="M109.574 244.404C103.304 244.404 97.2209 243.175 91.4939 240.754C85.9633 238.414 80.9964 235.066 76.7303 230.799C72.466 226.533 69.1158 221.566 66.7761 216.036C64.3528 210.309 63.1255 204.226 63.1255 197.955C63.1255 191.685 64.3528 185.602 66.7761 179.875C69.1158 174.344 72.4642 169.378 76.7303 165.111C80.9945 160.845 85.9633 157.497 91.4939 155.157C97.2209 152.734 103.304 151.507 109.574 151.507C115.845 151.507 121.928 152.736 127.655 155.157C133.185 157.497 138.152 160.845 142.418 165.111C146.684 169.376 150.033 174.344 152.373 179.875C154.796 185.602 156.023 191.685 156.023 197.955C156.023 204.226 154.796 210.309 152.373 216.036C150.033 221.566 146.684 226.533 142.418 230.799C138.154 235.064 133.185 238.414 127.655 240.754C121.928 243.177 115.845 244.404 109.574 244.404ZM109.574 154.28C97.9088 154.28 86.9404 158.823 78.69 167.073C70.4415 175.322 65.8972 186.29 65.8972 197.957C65.8972 209.625 70.4396 220.591 78.69 228.842C86.9385 237.09 97.9069 241.634 109.574 241.634C121.242 241.634 132.208 237.092 140.459 228.842C148.707 220.593 153.251 209.625 153.251 197.957C153.251 186.29 148.709 175.323 140.459 167.073C132.21 158.824 121.242 154.28 109.574 154.28Z" fill="#D6B556"/>
<path d="M115.969 211.438C116.087 210.437 116.05 209.537 115.859 208.74C115.667 207.943 115.287 207.198 114.719 206.5C114.15 205.803 113.39 205.134 112.439 204.489C111.486 203.844 110.308 203.184 108.905 202.511C106.493 201.33 104.318 200.134 102.379 198.925C100.44 197.714 98.8135 196.392 97.499 194.954C96.1845 193.515 95.2242 191.902 94.6179 190.113C94.0098 188.324 93.8448 186.26 94.1229 183.922C94.3639 181.896 94.9423 180.09 95.8582 178.505C96.7741 176.921 97.9755 175.588 99.4569 174.506C100.938 173.425 102.657 172.605 104.611 172.051C106.565 171.497 108.71 171.25 111.046 171.309L111.955 163.654L118.118 164.385L117.196 172.147C119.369 172.696 121.303 173.517 122.996 174.613C124.688 175.709 126.079 177.035 127.171 178.592C128.261 180.149 129.034 181.927 129.486 183.928C129.939 185.928 130.024 188.122 129.74 190.506L118.611 189.186C118.95 186.323 118.568 184.108 117.467 182.537C116.364 180.969 114.747 180.057 112.617 179.803C111.462 179.665 110.448 179.708 109.574 179.932C108.701 180.155 107.963 180.515 107.357 181.011C106.751 181.508 106.274 182.122 105.927 182.856C105.581 183.588 105.355 184.397 105.249 185.279C105.145 186.162 105.178 186.976 105.349 187.721C105.52 188.468 105.885 189.182 106.443 189.864C106.999 190.547 107.767 191.218 108.742 191.878C109.717 192.538 110.943 193.246 112.415 194.001C114.793 195.226 116.948 196.45 118.872 197.668C120.797 198.888 122.415 200.223 123.728 201.673C125.041 203.122 125.999 204.743 126.607 206.53C127.215 208.319 127.382 210.372 127.108 212.686C126.859 214.784 126.27 216.625 125.339 218.207C124.408 219.79 123.203 221.11 121.726 222.167C120.246 223.226 118.52 224.012 116.544 224.527C114.569 225.043 112.413 225.271 110.077 225.211L109.231 232.331L103.107 231.604L103.947 224.522C101.841 224.054 99.837 223.344 97.931 222.393C96.027 221.442 94.3843 220.202 93.003 218.67C91.6218 217.141 90.5928 215.294 89.9105 213.134C89.2301 210.974 89.0595 208.462 89.3988 205.601L100.529 206.921C100.328 208.614 100.397 210.056 100.738 211.245C101.079 212.433 101.606 213.416 102.321 214.191C103.037 214.964 103.884 215.55 104.867 215.943C105.848 216.338 106.866 216.597 107.919 216.722C109.126 216.864 110.203 216.837 111.15 216.635C112.098 216.432 112.913 216.095 113.594 215.619C114.276 215.144 114.814 214.549 115.211 213.833C115.607 213.119 115.859 212.32 115.963 211.438H115.969Z" fill="#D6B556"/>
<path d="M279.67 84.4354C279.67 84.4354 280.331 89.966 284.214 92.3187L286.11 88.5087C286.11 88.5087 281.207 86.8049 279.668 84.4336L279.67 84.4354Z" fill="white"/>
</g>
<defs>
<linearGradient id="paint0_linear_324_287" x1="324.061" y1="236.149" x2="329.545" y2="267.763" gradientUnits="userSpaceOnUse">
<stop stop-color="#B98300"/>
<stop offset="0.546875" stop-color="#FFF5A4"/>
<stop offset="0.9999" stop-color="#FFFADF"/>
<stop offset="1" stop-color="#785500"/>
</linearGradient>
<linearGradient id="paint1_linear_324_287" x1="312.236" y1="226.15" x2="317.72" y2="257.764" gradientUnits="userSpaceOnUse">
<stop stop-color="#B98300"/>
<stop offset="0.546875" stop-color="#FFF5A4"/>
<stop offset="0.9999" stop-color="#FFFADF"/>
<stop offset="1" stop-color="#785500"/>
</linearGradient>
<linearGradient id="paint2_linear_324_287" x1="318.857" y1="216.368" x2="324.341" y2="247.982" gradientUnits="userSpaceOnUse">
<stop stop-color="#B98300"/>
<stop offset="0.546875" stop-color="#FFF5A4"/>
<stop offset="0.9999" stop-color="#FFFADF"/>
<stop offset="1" stop-color="#785500"/>
</linearGradient>
<linearGradient id="paint3_linear_324_287" x1="312.238" y1="206.371" x2="317.722" y2="237.986" gradientUnits="userSpaceOnUse">
<stop stop-color="#B98300"/>
<stop offset="0.546875" stop-color="#FFF5A4"/>
<stop offset="0.9999" stop-color="#FFFADF"/>
<stop offset="1" stop-color="#785500"/>
</linearGradient>
<linearGradient id="paint4_linear_324_287" x1="3.56029" y1="236.11" x2="9.04391" y2="267.724" gradientUnits="userSpaceOnUse">
<stop stop-color="#B98300"/>
<stop offset="0.546875" stop-color="#FFF5A4"/>
<stop offset="0.9999" stop-color="#FFFADF"/>
<stop offset="1" stop-color="#785500"/>
</linearGradient>
<linearGradient id="paint5_linear_324_287" x1="-3.80019" y1="226.096" x2="1.68344" y2="257.71" gradientUnits="userSpaceOnUse">
<stop stop-color="#B98300"/>
<stop offset="0.546875" stop-color="#FFF5A4"/>
<stop offset="0.9999" stop-color="#FFFADF"/>
<stop offset="1" stop-color="#785500"/>
</linearGradient>
<linearGradient id="paint6_linear_324_287" x1="8.02476" y1="216.097" x2="13.5084" y2="247.712" gradientUnits="userSpaceOnUse">
<stop stop-color="#B98300"/>
<stop offset="0.546875" stop-color="#FFF5A4"/>
<stop offset="0.9999" stop-color="#FFFADF"/>
<stop offset="1" stop-color="#785500"/>
</linearGradient>
<linearGradient id="paint7_linear_324_287" x1="1.40221" y1="206.316" x2="6.88583" y2="237.93" gradientUnits="userSpaceOnUse">
<stop stop-color="#B98300"/>
<stop offset="0.546875" stop-color="#FFF5A4"/>
<stop offset="0.9999" stop-color="#FFFADF"/>
<stop offset="1" stop-color="#785500"/>
</linearGradient>
<linearGradient id="paint8_linear_324_287" x1="8.02508" y1="196.319" x2="13.5088" y2="227.933" gradientUnits="userSpaceOnUse">
<stop stop-color="#B98300"/>
<stop offset="0.546875" stop-color="#FFF5A4"/>
<stop offset="0.9999" stop-color="#FFFADF"/>
<stop offset="1" stop-color="#785500"/>
</linearGradient>
<linearGradient id="paint9_linear_324_287" x1="162.094" y1="236.175" x2="167.578" y2="267.789" gradientUnits="userSpaceOnUse">
<stop stop-color="#B98300"/>
<stop offset="0.546875" stop-color="#FFF5A4"/>
<stop offset="0.9999" stop-color="#FFFADF"/>
<stop offset="1" stop-color="#785500"/>
</linearGradient>
<linearGradient id="paint10_linear_324_287" x1="155.47" y1="226.176" x2="160.953" y2="257.79" gradientUnits="userSpaceOnUse">
<stop stop-color="#B98300"/>
<stop offset="0.546875" stop-color="#FFF5A4"/>
<stop offset="0.9999" stop-color="#FFFADF"/>
<stop offset="1" stop-color="#785500"/>
</linearGradient>
<linearGradient id="paint11_linear_324_287" x1="237.894" y1="74.1381" x2="312.724" y2="101.514" gradientUnits="userSpaceOnUse">
<stop stop-color="#B98300"/>
<stop offset="0.546875" stop-color="#FFF5A4"/>
<stop offset="0.9999" stop-color="#FFFADF"/>
<stop offset="1" stop-color="#785500"/>
</linearGradient>
<linearGradient id="paint12_linear_324_287" x1="255.53" y1="88.152" x2="315.387" y2="121.823" gradientUnits="userSpaceOnUse">
<stop stop-color="#B98300"/>
<stop offset="0.546875" stop-color="#FFF5A4"/>
<stop offset="0.9999" stop-color="#FFFADF"/>
<stop offset="1" stop-color="#785500"/>
</linearGradient>
<linearGradient id="paint13_linear_324_287" x1="331.45" y1="186.015" x2="341.787" y2="219.642" gradientUnits="userSpaceOnUse">
<stop stop-color="#B98300"/>
<stop offset="0.546875" stop-color="#FFF5A4"/>
<stop offset="0.9999" stop-color="#FFFADF"/>
<stop offset="1" stop-color="#785500"/>
</linearGradient>
<linearGradient id="paint14_linear_324_287" x1="335.663" y1="179.342" x2="346.003" y2="212.972" gradientUnits="userSpaceOnUse">
<stop stop-color="#B98300"/>
<stop offset="0.546875" stop-color="#FFF5A4"/>
<stop offset="0.9999" stop-color="#FFFADF"/>
<stop offset="1" stop-color="#785500"/>
</linearGradient>
<linearGradient id="paint15_linear_324_287" x1="333.548" y1="173.223" x2="343.88" y2="206.844" gradientUnits="userSpaceOnUse">
<stop stop-color="#B98300"/>
<stop offset="0.546875" stop-color="#FFF5A4"/>
<stop offset="0.9999" stop-color="#FFFADF"/>
<stop offset="1" stop-color="#785500"/>
</linearGradient>
<linearGradient id="paint16_linear_324_287" x1="323.555" y1="232.607" x2="336.173" y2="240.32" gradientUnits="userSpaceOnUse">
<stop stop-color="#B98300"/>
<stop offset="0.546875" stop-color="#FFF5A4"/>
<stop offset="0.9999" stop-color="#FFFADF"/>
<stop offset="1" stop-color="#785500"/>
</linearGradient>
<linearGradient id="paint17_linear_324_287" x1="397.24" y1="235.302" x2="411.849" y2="237.598" gradientUnits="userSpaceOnUse">
<stop stop-color="#B98300"/>
<stop offset="0.546875" stop-color="#FFF5A4"/>
<stop offset="0.9999" stop-color="#FFFADF"/>
<stop offset="1" stop-color="#785500"/>
</linearGradient>
<linearGradient id="paint18_linear_324_287" x1="306.142" y1="124.211" x2="319.438" y2="133.006" gradientUnits="userSpaceOnUse">
<stop stop-color="#B98300"/>
<stop offset="0.546875" stop-color="#FFF5A4"/>
<stop offset="0.9999" stop-color="#FFFADF"/>
<stop offset="1" stop-color="#785500"/>
</linearGradient>
<linearGradient id="paint19_linear_324_287" x1="423.573" y1="140.438" x2="434.442" y2="141.227" gradientUnits="userSpaceOnUse">
<stop stop-color="#B98300"/>
<stop offset="0.546875" stop-color="#FFF5A4"/>
<stop offset="0.9999" stop-color="#FFFADF"/>
<stop offset="1" stop-color="#785500"/>
</linearGradient>
<linearGradient id="paint20_linear_324_287" x1="41.364" y1="126.366" x2="188.936" y2="216.566" gradientUnits="userSpaceOnUse">
<stop stop-color="#B98300"/>
<stop offset="0.546875" stop-color="#FFF5A4"/>
<stop offset="0.9999" stop-color="#FFFADF"/>
<stop offset="1" stop-color="#785500"/>
</linearGradient>
<clipPath id="clip0_324_287">
<rect width="471.051" height="250" fill="white" transform="translate(0.474365 0.5)"/>
</clipPath>
</defs>
</svg>
