<svg width="340" height="230" viewBox="0 0 340 230" fill="none" xmlns="http://www.w3.org/2000/svg">
<g clip-path="url(#clip0_104_1080)">
<path d="M78.6964 129.188C81.0253 128.845 85.4363 125.945 85.4423 125.945C85.4483 125.945 82.644 123.616 82.4334 123.489C80.1647 122.051 74.9354 120.601 72.6246 122.521C72.2495 122.851 71.948 123.256 71.7396 123.711C71.5312 124.165 71.4206 124.658 71.4149 125.158C71.4092 125.658 71.5086 126.153 71.7066 126.612C71.9047 127.071 72.1969 127.483 72.5644 127.822C74.0989 129.309 76.6865 129.483 78.6964 129.188Z" fill="#D6B556"/>
<path d="M88.3489 141.187C90.419 140.278 93.6926 136.62 93.9513 136.325C96.0393 138.2 98.2508 139.933 100.571 141.512C101.919 142.445 103.303 143.317 104.699 144.214C104.001 143.907 103.375 143.642 103.285 143.612C100.715 142.824 95.2933 142.806 93.5722 145.273C93.2963 145.69 93.1114 146.16 93.0296 146.653C92.9478 147.146 92.971 147.651 93.0977 148.134C93.2244 148.617 93.4516 149.068 93.7647 149.458C94.0777 149.847 94.4694 150.167 94.9142 150.394C96.7676 151.429 99.3312 150.912 101.167 150.105C103.002 149.299 105.884 146.224 106.625 145.4L108.243 146.399C110.837 147.975 113.437 149.54 115.94 151.152C116.825 151.724 117.673 152.314 118.522 152.904C117.92 152.633 117.378 152.41 117.318 152.386C114.749 151.592 109.327 151.58 107.599 154.041C107.325 154.459 107.141 154.93 107.06 155.423C106.979 155.917 107.003 156.422 107.13 156.905C107.257 157.389 107.485 157.84 107.798 158.23C108.111 158.62 108.503 158.94 108.947 159.168C110.801 160.203 113.364 159.68 115.2 158.873C117.035 158.067 119.635 155.263 120.526 154.318C121.374 154.95 122.229 155.575 123.029 156.225C123.564 156.683 124.112 157.08 124.624 157.567L126.158 158.969C127.097 159.896 128.078 160.847 128.974 161.774C129.606 162.412 130.178 163.031 130.78 163.657C129.907 163.055 128.18 161.99 128.024 161.912C125.616 160.745 120.249 159.908 118.167 162.081C117.833 162.453 117.581 162.89 117.427 163.366C117.273 163.841 117.221 164.344 117.274 164.841C117.327 165.338 117.483 165.818 117.733 166.251C117.983 166.683 118.322 167.059 118.726 167.352C120.399 168.652 123.011 168.556 124.949 168.008C127.085 167.436 130.732 164.458 131.189 164.079C132.164 165.114 133.109 166.131 133.981 167.087C135.913 169.236 137.592 171.197 138.976 172.87L140.649 171.823C139.174 170.114 137.381 168.098 135.293 165.884C134.306 164.825 133.223 163.717 132.11 162.592C133.002 161.366 133.823 160.09 134.571 158.771C136.755 159.373 141.136 158.927 141.702 158.867C141.949 160.269 142.171 161.635 142.364 162.935C142.767 165.637 143.074 168.074 143.303 170.156L145.108 169.025C144.849 167.129 144.506 164.981 144.121 162.64C143.88 161.208 143.591 159.692 143.278 158.133C143.826 157.934 148.249 156.274 149.82 154.715C151.24 153.307 152.666 151.104 152.377 149.004C152.328 148.507 152.174 148.026 151.927 147.592C151.679 147.158 151.343 146.781 150.939 146.486C150.536 146.19 150.076 145.984 149.587 145.878C149.099 145.773 148.594 145.772 148.105 145.875C145.18 146.579 143.206 151.628 143.002 154.3C143.002 154.462 143.05 156.189 143.104 157.278C142.978 156.641 142.857 156.027 142.713 155.371C142.442 154.077 142.111 152.795 141.804 151.417C141.624 150.755 141.437 150.087 141.256 149.413C141.076 148.739 140.817 148.053 140.601 147.361C140.071 145.779 139.451 144.196 138.795 142.619C139.927 142.373 143.934 141.464 145.559 140.278C147.184 139.093 148.923 137.143 148.959 135.019C148.986 134.52 148.908 134.021 148.729 133.554C148.55 133.087 148.274 132.663 147.921 132.31C147.567 131.957 147.143 131.682 146.676 131.504C146.209 131.326 145.709 131.248 145.21 131.276C142.201 131.529 139.499 136.223 138.885 138.84C138.849 139.003 138.627 140.928 138.518 141.988C138.115 141.043 137.718 140.098 137.279 139.153C136.009 136.427 134.643 133.707 133.289 130.993C132.874 130.157 132.471 129.326 132.086 128.49C132.489 128.412 137.273 127.425 139.096 126.083C140.721 124.879 142.454 122.948 142.496 120.823C142.522 120.324 142.443 119.824 142.263 119.358C142.084 118.891 141.808 118.467 141.454 118.114C141.099 117.761 140.675 117.487 140.207 117.308C139.74 117.13 139.24 117.053 138.741 117.08C135.732 117.333 133.03 122.027 132.422 124.645C132.374 124.837 132.055 127.611 132.007 128.321C131.111 126.516 130.238 124.645 129.45 122.797C128.346 120.33 127.405 117.793 126.633 115.203C126.82 115.161 131.821 114.156 133.686 112.796C135.311 111.592 137.05 109.66 137.086 107.542C137.112 107.043 137.033 106.544 136.854 106.078C136.675 105.612 136.399 105.188 136.046 104.835C135.692 104.482 135.268 104.208 134.802 104.029C134.335 103.851 133.836 103.772 133.337 103.799C130.328 104.046 127.62 108.746 127.013 111.363C126.964 111.568 126.621 114.547 126.597 115.094C126.555 114.944 126.495 114.794 126.453 114.637C125.782 111.997 125.349 109.303 125.159 106.585C125.027 105.087 124.991 103.649 124.979 102.247C125.929 102.156 130.268 101.693 132.086 100.652C133.903 99.6109 135.768 97.9079 136.039 95.8017C136.121 95.3083 136.098 94.8032 135.972 94.3194C135.845 93.8355 135.618 93.3838 135.305 92.9936C134.992 92.6035 134.601 92.2837 134.156 92.0552C133.711 91.8267 133.223 91.6946 132.723 91.6675C129.715 91.5893 126.501 95.9581 125.61 98.4916C125.562 98.63 125.225 100.086 125.009 101.145C125.009 100.514 125.009 99.8636 125.009 99.2558C125.075 96.9812 125.267 94.905 125.46 93.0636C125.574 92.0226 125.701 91.0778 125.827 90.1992C126.712 89.5974 130.25 87.2565 131.363 85.5295C132.477 83.8024 133.367 81.3893 132.639 79.3974C132.483 78.9225 132.229 78.4857 131.893 78.1153C131.558 77.745 131.148 77.4495 130.69 77.248C130.233 77.0465 129.738 76.9436 129.238 76.9458C128.738 76.9481 128.245 77.0555 127.789 77.2612C125.087 78.573 124.244 83.9348 124.624 86.5946C124.624 86.8233 125.574 90.3617 125.623 90.3316L125.677 90.2955C125.538 91.138 125.394 92.0466 125.261 93.0396C125.033 94.881 124.792 96.9631 124.66 99.2438C124.515 101.701 124.515 104.164 124.66 106.622C124.801 109.373 125.19 112.106 125.821 114.788C125.821 114.824 125.821 114.854 125.821 114.884C125.37 114.132 124.016 112.062 123.907 111.917C122.198 109.841 117.685 106.832 114.881 107.939C114.422 108.136 114.009 108.426 113.669 108.793C113.33 109.159 113.072 109.593 112.911 110.066C112.75 110.539 112.691 111.04 112.737 111.537C112.783 112.035 112.933 112.517 113.178 112.952C114.153 114.842 116.578 115.823 118.558 116.16C120.784 116.545 125.532 115.299 125.905 115.197C126.614 117.911 127.503 120.574 128.565 123.17C129.167 124.687 129.835 126.179 130.515 127.702C130.106 127.064 129.727 126.498 129.666 126.42C127.963 124.344 123.45 121.335 120.64 122.442C120.181 122.638 119.768 122.929 119.428 123.295C119.089 123.662 118.831 124.096 118.67 124.568C118.509 125.041 118.45 125.543 118.496 126.04C118.542 126.537 118.692 127.019 118.937 127.455C119.912 129.344 122.331 130.325 124.311 130.662C126.29 130.999 130.383 130.024 131.454 129.754C131.724 130.355 131.983 130.903 132.254 131.475C133.548 134.225 134.854 136.963 136.051 139.689C136.472 140.652 136.858 141.614 137.255 142.571C136.888 142.006 136.575 141.53 136.521 141.464C134.812 139.388 130.298 136.379 127.494 137.486C127.035 137.683 126.622 137.973 126.283 138.34C125.943 138.706 125.685 139.14 125.524 139.613C125.363 140.086 125.304 140.587 125.35 141.084C125.396 141.582 125.546 142.064 125.791 142.499C126.766 144.389 129.191 145.369 131.171 145.706C133.151 146.043 136.846 145.165 138.121 144.846C138.482 145.839 138.849 146.838 139.156 147.819C139.355 148.493 139.59 149.125 139.758 149.817C139.927 150.509 140.101 151.165 140.264 151.832C140.54 153.12 140.835 154.456 141.07 155.72C141.244 156.605 141.389 157.447 141.539 158.295C141.13 157.333 140.294 155.467 140.203 155.323C138.924 153.335 137.154 151.71 135.064 150.605C134.933 150.376 134.78 150.16 134.607 149.961C134.292 149.574 133.898 149.257 133.452 149.032C133.006 148.806 132.518 148.678 132.019 148.654C131.52 148.63 131.021 148.712 130.556 148.893C130.09 149.075 129.668 149.353 129.317 149.708C127.259 151.911 128.403 157.212 129.709 159.559C129.787 159.698 130.792 161.106 131.442 161.966C130.978 161.509 130.539 161.058 130.064 160.594C129.119 159.662 128.156 158.789 127.121 157.796L125.556 156.43C125.045 155.961 124.443 155.533 123.883 155.076C122.559 154.047 121.169 153.072 119.749 152.121C120.562 151.291 123.396 148.318 124.1 146.435C124.804 144.551 125.177 141.963 124.034 140.17C123.78 139.74 123.439 139.368 123.033 139.079C122.626 138.789 122.163 138.589 121.674 138.49C121.184 138.391 120.68 138.397 120.193 138.506C119.706 138.615 119.247 138.825 118.847 139.123C116.482 140.983 116.807 146.398 117.745 148.914C117.799 149.07 118.678 150.803 119.172 151.748C118.317 151.183 117.462 150.611 116.572 150.063C114.014 148.493 111.373 146.982 108.749 145.46L106.342 144.052C106.637 143.757 110.085 140.297 110.873 138.184C111.577 136.307 111.944 133.719 110.807 131.926C110.554 131.495 110.213 131.121 109.806 130.831C109.399 130.54 108.936 130.338 108.446 130.239C107.956 130.14 107.45 130.145 106.962 130.254C106.474 130.363 106.015 130.574 105.614 130.873C103.255 132.738 103.58 138.148 104.512 140.67C104.585 140.856 105.848 143.348 106.197 143.961C104.44 142.926 102.695 141.879 101.016 140.772C98.7428 139.292 96.5679 137.665 94.505 135.904C94.6434 135.765 98.254 132.173 99.0664 130.006C99.7644 128.129 100.138 125.535 99.0002 123.748C98.7473 123.316 98.4063 122.943 97.9994 122.653C97.5925 122.362 97.1289 122.16 96.6389 122.061C96.1488 121.962 95.6433 121.967 95.1553 122.076C94.6673 122.185 94.2079 122.396 93.8069 122.695C91.442 124.554 91.7729 129.97 92.7057 132.492C92.7779 132.684 94.1379 135.362 94.4207 135.831L94.0476 135.531C92.0276 133.706 90.1748 131.704 88.5113 129.549C87.5786 128.375 86.7482 127.196 85.9719 126.035C86.7121 125.433 90.0759 122.653 91.0147 120.781C91.9535 118.91 92.5733 116.46 91.6165 114.553C91.4114 114.097 91.1126 113.689 90.7397 113.356C90.3667 113.024 89.9278 112.773 89.4516 112.621C88.9754 112.469 88.4725 112.419 87.9756 112.474C87.4788 112.529 86.999 112.688 86.5676 112.94C84.0161 114.529 83.7453 119.945 84.4013 122.568C84.4013 122.713 84.9549 124.115 85.346 125.126C85.003 124.596 84.642 124.055 84.323 123.537C83.1195 121.612 82.1326 119.77 81.2781 118.121C80.7967 117.189 80.3814 116.316 80.0023 115.528C80.4236 114.559 82.0724 110.629 82.0483 108.577C82.0243 106.525 81.4466 104.022 79.7255 102.758C79.3338 102.448 78.8813 102.224 78.3974 102.101C77.9134 101.978 77.409 101.958 76.9168 102.042C76.4246 102.127 75.9558 102.314 75.5408 102.592C75.1258 102.87 74.7739 103.232 74.5082 103.655C72.9737 106.242 75.2303 111.177 77.0115 113.187C77.162 113.361 79.882 115.799 79.906 115.75V115.69C80.2551 116.472 80.6402 117.309 81.0795 118.212C81.9039 119.872 82.8487 121.738 84.0161 123.7C85.2453 125.832 86.5997 127.89 88.0721 129.862C89.7114 132.078 91.5439 134.144 93.5482 136.036L93.6264 136.102C92.8321 135.723 90.5694 134.736 90.3889 134.682C87.8193 133.888 82.3974 133.876 80.6703 136.337C80.3942 136.761 80.2114 137.238 80.1343 137.738C80.0571 138.238 80.0873 138.749 80.2228 139.236C80.3583 139.723 80.596 140.176 80.9201 140.564C81.2442 140.953 81.6473 141.268 82.1025 141.488C83.9499 142.517 86.5135 141.994 88.3489 141.187Z" fill="#D6B556"/>
<path d="M124.581 101.849C124.636 101.849 123.534 98.3651 123.438 98.1544C122.343 95.7052 118.78 91.6132 115.79 91.9382C115.295 92.0061 114.819 92.1775 114.395 92.4413C113.971 92.7052 113.607 93.0554 113.327 93.4693C113.047 93.8832 112.857 94.3514 112.771 94.8435C112.684 95.3355 112.702 95.8404 112.823 96.3251C113.268 98.4012 115.344 99.9899 117.162 100.838C119.298 101.837 124.575 101.849 124.581 101.849Z" fill="#D6B556"/>
<path d="M237.275 0.300781H130.16C126.172 0.300781 122.939 3.53384 122.939 7.52202V210.318C122.939 214.307 126.172 217.54 130.16 217.54H237.275C241.263 217.54 244.496 214.307 244.496 210.318V7.52202C244.496 3.53384 241.263 0.300781 237.275 0.300781Z" fill="#263238" stroke="#263238" stroke-width="0.60177" stroke-miterlimit="10"/>
<path d="M240.795 11.1328H126.646V206.708H240.795V11.1328Z" fill="white" stroke="#263238" stroke-width="0.60177" stroke-miterlimit="10"/>
<path d="M137.08 23.5713C139.407 23.5713 141.293 21.6853 141.293 19.3589C141.293 17.0324 139.407 15.1465 137.08 15.1465C134.754 15.1465 132.868 17.0324 132.868 19.3589C132.868 21.6853 134.754 23.5713 137.08 23.5713Z" fill="#0169EE"/>
<path d="M212.464 206.708L210.195 167.611L152.678 168.947L151.384 206.708H212.464Z" fill="#0C314B" stroke="#263238" stroke-width="0.60177" stroke-miterlimit="10"/>
<path d="M172.368 75.4741C172.368 75.4741 179.589 76.0097 183.019 76.0097C186.449 76.0097 194.134 78.489 194.134 78.489L198.996 80.2943L204.864 170.012C204.864 170.012 194.748 173.984 184.897 173.984C175.046 173.984 169.185 173.713 169.185 173.713L166.778 80.7757L172.368 75.4741Z" fill="white" stroke="#263238" stroke-width="0.60177" stroke-miterlimit="10"/>
<path d="M204.671 39.7892C204.671 39.7892 201.554 59.2685 200.254 65.244C198.954 71.2196 194.928 74.2104 192.587 74.4692L192.918 75.6246L194.122 78.495C194.122 78.495 193.472 88.4964 191.113 93.1722C188.754 97.8479 188.646 100.965 187.087 99.6653C185.529 98.3655 175.311 79.0065 174.173 75.8954C173.036 72.7842 173.397 71.7371 173.397 71.7371L172.067 51.3432C172.067 51.3432 170.117 35.8837 177.519 31.5991C184.921 27.3145 193.111 30.4256 197.378 31.8579C201.644 33.2901 204.671 39.7892 204.671 39.7892Z" fill="#FFCEC7" stroke="#263238" stroke-width="0.60177" stroke-miterlimit="10"/>
<path d="M192.587 74.4629C192.587 74.4629 189.145 75.1489 184.313 73.145C184.313 73.145 189.855 79.3914 193.508 80.6912L192.587 74.4629Z" fill="#263238" stroke="#263238" stroke-width="0.60177" stroke-miterlimit="10"/>
<path d="M200.115 44.9404C199.211 45.9929 198.682 47.3158 198.611 48.7015C198.611 50.8077 202.673 59.8342 200.416 60.7369C198.16 61.6395 193.045 59.082 193.045 59.082" stroke="#263238" stroke-width="0.60177" stroke-miterlimit="10"/>
<path d="M186.576 58.48C186.576 58.48 187.93 62.6924 194.399 62.6924" stroke="#263238" stroke-width="0.60177" stroke-miterlimit="10"/>
<path d="M187.027 49.4475C187.609 49.4475 188.08 48.6393 188.08 47.6422C188.08 46.6452 187.609 45.8369 187.027 45.8369C186.445 45.8369 185.974 46.6452 185.974 47.6422C185.974 48.6393 186.445 49.4475 187.027 49.4475Z" fill="#263238"/>
<path d="M199.815 50.9519C200.396 50.9519 200.868 50.1437 200.868 49.1466C200.868 48.1496 200.396 47.3413 199.815 47.3413C199.233 47.3413 198.762 48.1496 198.762 49.1466C198.762 50.1437 199.233 50.9519 199.815 50.9519Z" fill="#263238"/>
<path d="M185.222 42.8342C185.222 42.8342 187.328 40.728 192.894 42.3828" stroke="#263238" stroke-width="1.20354" stroke-miterlimit="10" stroke-linecap="round"/>
<path d="M200.115 44.1879C200.115 44.1879 202.523 43.1348 203.877 45.8428" stroke="#263238" stroke-width="1.20354" stroke-miterlimit="10" stroke-linecap="round"/>
<path d="M175.311 52.6368C175.311 52.6368 175.834 57.9624 177.393 58.3536C178.951 58.7447 179.986 59.0035 179.342 55.8863C178.699 52.7691 175.961 49.0021 178.56 46.0173C181.16 43.0325 182.171 44.4587 181.936 41.4679C181.701 38.4771 177.26 37.8573 180.251 35.6247C183.242 33.3922 194.537 33.5426 197.787 35.366C201.036 37.1893 204.671 39.5182 204.671 41.3415C204.671 43.1649 213.096 46.0173 214.799 38.7419C216.502 31.4665 215.581 29.3904 213.373 28.8669C211.164 28.3433 207.006 28.7405 207.265 23.9323C207.523 19.1242 202.98 14.0633 198.695 13.9309C194.411 13.7985 191.679 17.8304 191.288 19.6477C190.896 21.4651 186.227 21.453 181.286 19.389C176.346 17.3249 171.935 24.0647 172.326 26.2732C172.717 28.4817 172.843 29.5168 172.067 29.8838C171.291 30.2509 165.05 34.0421 164.659 38.4591C164.268 42.876 168.95 49.8927 169.726 51.0541C170.502 52.2155 170.25 52.6127 170.25 52.6127C170.25 52.6127 172.193 51.343 175.311 52.6368Z" fill="#263238" stroke="#263238" stroke-width="0.60177" stroke-miterlimit="10"/>
<path d="M175.377 52.1253C176.021 55.0559 174.775 57.8241 172.597 58.3115C170.418 58.7989 168.119 56.801 167.47 53.8704C166.82 50.9398 168.071 48.1656 170.25 47.6842C172.428 47.2028 174.709 49.1887 175.377 52.1253Z" fill="#0169EE" stroke="#263238" stroke-width="0.60177" stroke-miterlimit="10"/>
<path d="M170.232 47.6841C168.714 45.1117 167.974 42.1545 168.102 39.1704C168.23 36.1863 169.221 33.3033 170.954 30.8706" fill="#0169EE"/>
<path d="M170.232 47.6841C168.714 45.1117 167.974 42.1545 168.102 39.1704C168.23 36.1863 169.221 33.3033 170.954 30.8706" stroke="white" stroke-width="0.60177" stroke-miterlimit="10"/>
<path d="M172.579 58.3115C172.579 58.3115 175.311 69.7933 185.463 70.2747" stroke="#263238" stroke-width="0.60177" stroke-miterlimit="10"/>
<path d="M187.641 69.793C187.642 70.1289 187.544 70.4576 187.358 70.7375C187.172 71.0173 186.907 71.2358 186.598 71.3651C186.288 71.4945 185.946 71.529 185.617 71.4642C185.287 71.3994 184.984 71.2382 184.746 71.0011C184.508 70.764 184.346 70.4617 184.28 70.1323C184.214 69.803 184.247 69.4615 184.376 69.151C184.504 68.8406 184.721 68.5752 185 68.3885C185.28 68.2017 185.608 68.1021 185.944 68.1021C186.166 68.1013 186.387 68.1444 186.593 68.229C186.799 68.3137 186.986 68.4381 187.144 68.5952C187.301 68.7523 187.426 68.939 187.512 69.1445C187.597 69.3501 187.641 69.5705 187.641 69.793Z" fill="white" stroke="#263238" stroke-width="0.60177" stroke-miterlimit="10"/>
<path d="M173.463 73.3799C173.463 73.3799 164.659 78.4347 158.04 81.245C151.42 84.0553 144 86.4624 143.597 87.8645C143.194 89.2666 142.598 182.944 144.199 184.346C145.8 185.748 156.638 189.564 165.062 190.767C170.138 191.49 175.303 191.286 180.305 190.165L173.463 73.3799Z" fill="#407BFF" stroke="#263238" stroke-width="0.60177" stroke-miterlimit="10"/>
<path d="M169.877 124.572C171.532 132.395 175.064 139.538 177.7 144.118L173.487 73.3799C170.144 75.4267 166.692 77.2928 163.149 78.9703C164.328 88.5324 167.62 113.939 169.877 124.572Z" fill="#0169EE" stroke="#263238" stroke-width="0.60177" stroke-miterlimit="10"/>
<path d="M192.918 75.6187C192.918 75.6187 199.165 117.953 198.762 138.612C198.358 159.271 198.16 189.967 198.16 189.967C198.16 189.967 205.58 190.569 212.001 188.763C218.421 186.958 220.227 185.55 220.227 185.55C220.227 185.55 215.208 130.187 214.408 118.356C213.607 106.526 211.399 78.8381 211.399 78.8381L192.918 75.6187Z" fill="#407BFF" stroke="#263238" stroke-width="0.60177" stroke-miterlimit="10"/>
<path d="M198.738 139.797C200.471 136.891 203.678 129.958 205.357 116.551C207.289 101.326 204.376 83.7907 203.149 77.4661L192.918 75.6187C192.918 75.6187 199.165 117.953 198.762 138.612C198.756 139.003 198.744 139.4 198.738 139.797Z" fill="#0169EE" stroke="#263238" stroke-width="0.60177" stroke-miterlimit="10"/>
<path d="M181.395 141.549C182.464 139.4 183.67 137.321 185.005 135.326C186.48 133.365 191.065 130.253 193.195 130.091C195.326 129.928 199.255 126.98 200.416 128.123C201.578 129.266 200.092 130.909 199.273 131.734C198.455 132.558 196.439 132.709 195.115 133.665C194.504 134.079 193.953 134.575 193.478 135.14C193.478 135.14 203.467 132.522 206.254 132.36C209.04 132.197 209.034 134.165 208.059 135.14C207.084 136.115 198.726 137.926 198.726 137.926C198.726 137.926 197.335 138.762 198.768 138.588C200.2 138.413 205.465 137.276 207.872 137.276C210.28 137.276 210.653 137.932 208.36 140.062C207.323 140.939 206.139 141.625 204.864 142.09C203.451 142.628 202.001 143.061 200.525 143.384C200.525 143.384 206.091 141.91 205.766 143.384C205.441 144.858 201.343 146.002 200.2 146.658C198.5 147.65 196.68 148.42 194.784 148.95C191.673 149.931 180.378 150.425 180.378 150.425L181.395 141.549Z" fill="#FFCEC7" stroke="#263238" stroke-width="0.60177" stroke-miterlimit="10"/>
<path d="M200.194 146.627L195.771 147.277" stroke="#263238" stroke-width="0.60177" stroke-miterlimit="10"/>
<path d="M200.519 143.348L196.92 144.335" stroke="#263238" stroke-width="0.60177" stroke-miterlimit="10"/>
<path d="M146.709 85.8608C146.709 85.8608 138.585 86.7635 136.478 92.1794C134.372 97.5954 123.841 159.578 125.346 161.684C126.85 163.79 180.408 153.861 180.408 153.861L181.31 140.622L150.319 138.817L152.425 111.135" fill="#407BFF"/>
<path d="M146.709 85.8608C146.709 85.8608 138.585 86.7635 136.478 92.1794C134.372 97.5954 123.841 159.578 125.346 161.684C126.85 163.79 180.408 153.861 180.408 153.861L181.31 140.622L150.319 138.817L152.425 111.135" stroke="#263238" stroke-width="0.60177" stroke-miterlimit="10"/>
<path d="M150.319 138.81L133.77 139.111" stroke="#263238" stroke-width="0.60177" stroke-miterlimit="10"/>
<path d="M257.723 86.6911C257.723 86.6911 260.353 73.1332 261.165 71.3158C261.978 69.4985 263.572 68.9088 267.436 66.255C271.299 63.6012 273.911 61.3987 274.314 64.0284C274.717 66.6581 273.303 67.4705 271.485 68.2769C269.668 69.0833 268.447 71.2858 268.447 71.2858L278.972 72.4893C281.81 71.7348 284.73 71.3306 287.667 71.2858C292.12 71.2858 285.037 76.3406 282.209 78.3686C279.381 80.3966 267.231 84.8376 265.817 85.4454C264.403 86.0532 262.982 89.8985 262.982 89.8985L257.723 86.6911Z" fill="#FFCEC7" stroke="#263238" stroke-width="0.60177" stroke-miterlimit="10"/>
<path d="M263.59 82.846C263.59 82.846 264.601 77.5865 266.599 76.7801C268.597 75.9737 277.726 76.5755 277.726 76.5755C277.726 76.5755 282.985 68.8849 283.593 69.2941C284.201 69.7033 284.797 69.8959 283.389 72.3029C281.98 74.71 280.759 78.9766 278.941 80.5953C277.124 82.2141 264.373 85.253 264.373 85.253" fill="#FFCEC7"/>
<path d="M263.59 82.846C263.59 82.846 264.601 77.5865 266.599 76.7801C268.597 75.9737 277.726 76.5755 277.726 76.5755C277.726 76.5755 282.985 68.8849 283.593 69.2941C284.201 69.7033 284.797 69.8959 283.389 72.3029C281.98 74.71 280.759 78.9766 278.941 80.5953C277.124 82.2141 264.373 85.253 264.373 85.253" stroke="#263238" stroke-width="0.60177" stroke-miterlimit="10"/>
<path d="M211.399 78.8379L239.513 112.411L257.115 82.262L267.231 88.3338C267.231 88.3338 249.834 135.272 246.169 137.077C242.504 138.883 239.694 137.679 238.882 136.668C238.069 135.657 214.383 118.338 214.383 118.338L211.399 78.8379Z" fill="#407BFF" stroke="#263238" stroke-width="0.60177" stroke-miterlimit="10"/>
<path d="M213.385 101.549L219.956 121.81L214.209 117.43L213.385 101.549Z" fill="#263238" stroke="#263238" stroke-width="0.60177" stroke-miterlimit="10"/>
<path d="M88.1262 151.814H39.1662C37.0059 151.814 35.2547 153.566 35.2547 155.726V204.686C35.2547 206.846 37.0059 208.597 39.1662 208.597H88.1262C90.2865 208.597 92.0377 206.846 92.0377 204.686V155.726C92.0377 153.566 90.2865 151.814 88.1262 151.814Z" fill="white" stroke="#263238" stroke-width="0.60177" stroke-miterlimit="10"/>
<path d="M63.6462 151.989V208.429" stroke="#263238" stroke-width="0.60177" stroke-miterlimit="10"/>
<path d="M91.8632 180.206H35.4232" stroke="#263238" stroke-width="0.60177" stroke-miterlimit="10"/>
<path d="M56.8642 168.062H51.6288V173.177H47.7474V168.062H42.5421V164.391H47.7474V159.276H51.6288V164.391H56.8642V168.062Z" fill="#0169EE"/>
<path d="M56.0639 190.231L52.363 193.932L55.9736 197.543L53.2175 200.293L49.6069 196.682L45.9241 200.365L43.3304 197.771L47.0072 194.089L43.3966 190.478L46.1467 187.734L49.7573 191.344L53.4582 187.644L56.0639 190.231Z" fill="#0169EE"/>
<path d="M70.6688 188.426H84.9909V192.097H70.6688V188.426ZM70.6688 195.888H84.9909V199.559H70.6688V195.888Z" fill="#0169EE"/>
<path d="M70.6688 164.494H84.9909V168.164H70.6688V164.494Z" fill="#0169EE"/>
<path d="M304.745 1.73291H263.825V57.0957H304.745V1.73291Z" fill="#D6B556" stroke="#263238" stroke-width="0.60177" stroke-miterlimit="10"/>
<path d="M304.745 1.73291H263.825V16.7772H304.745V1.73291Z" fill="white" stroke="#263238" stroke-width="0.60177" stroke-miterlimit="10"/>
<path d="M299.931 4.7417H268.639V13.7682H299.931V4.7417Z" fill="#D6B556"/>
<path d="M277.365 22.7949H269.542V30.6179H277.365V22.7949Z" fill="white" stroke="#263238" stroke-width="0.60177" stroke-miterlimit="10"/>
<path d="M288.197 22.7949H280.374V30.6179H288.197V22.7949Z" fill="white" stroke="#263238" stroke-width="0.60177" stroke-miterlimit="10"/>
<path d="M299.028 22.7949H291.205V30.6179H299.028V22.7949Z" fill="white" stroke="#263238" stroke-width="0.60177" stroke-miterlimit="10"/>
<path d="M277.365 33.0249H269.542V40.8479H277.365V33.0249Z" fill="white" stroke="#263238" stroke-width="0.60177" stroke-miterlimit="10"/>
<path d="M288.197 33.0249H280.374V40.8479H288.197V33.0249Z" fill="white" stroke="#263238" stroke-width="0.60177" stroke-miterlimit="10"/>
<path d="M299.028 33.0249H291.205V40.8479H299.028V33.0249Z" fill="white" stroke="#263238" stroke-width="0.60177" stroke-miterlimit="10"/>
<path d="M277.365 43.2554H269.542V51.0784H277.365V43.2554Z" fill="white" stroke="#263238" stroke-width="0.60177" stroke-miterlimit="10"/>
<path d="M288.197 43.2554H280.374V51.0784H288.197V43.2554Z" fill="white" stroke="#263238" stroke-width="0.60177" stroke-miterlimit="10"/>
<path d="M299.028 43.2554H291.205V51.0784H299.028V43.2554Z" fill="white" stroke="#263238" stroke-width="0.60177" stroke-miterlimit="10"/>
<path d="M183.717 229.377C221.106 229.377 251.416 227.625 251.416 225.465C251.416 223.305 221.106 221.554 183.717 221.554C146.328 221.554 116.018 223.305 116.018 225.465C116.018 227.625 146.328 229.377 183.717 229.377Z" fill="#263238"/>
</g>
<defs>
<clipPath id="clip0_104_1080">
<rect width="270.092" height="229.377" fill="white" transform="translate(34.9538)"/>
</clipPath>
</defs>
</svg>
