<svg width="340" height="206" viewBox="0 0 340 206" fill="none" xmlns="http://www.w3.org/2000/svg">
<path d="M106.679 104.604C133.449 104.604 155.151 82.9024 155.151 56.1317C155.151 29.3611 133.449 7.65918 106.679 7.65918C79.9082 7.65918 58.2062 29.3611 58.2062 56.1317C58.2062 82.9024 79.9082 104.604 106.679 104.604Z" fill="#0169EE" stroke="#263238" stroke-width="0.60177" stroke-miterlimit="10"/>
<path d="M106.679 101.072C131.499 101.072 151.619 80.9519 151.619 56.1321C151.619 31.3123 131.499 11.1919 106.679 11.1919C81.859 11.1919 61.7386 31.3123 61.7386 56.1321C61.7386 80.9519 81.859 101.072 106.679 101.072Z" fill="white" stroke="#263238" stroke-width="0.60177" stroke-miterlimit="10"/>
<path d="M106.679 58.6594C108.075 58.6594 109.206 57.5278 109.206 56.1319C109.206 54.7361 108.075 53.6045 106.679 53.6045C105.283 53.6045 104.151 54.7361 104.151 56.1319C104.151 57.5278 105.283 58.6594 106.679 58.6594Z" fill="#263238"/>
<path d="M83.9559 56.132H106.679V28.3604" stroke="#263238" stroke-width="0.60177" stroke-linecap="round" stroke-linejoin="round"/>
<path d="M219.432 51.0167C219.432 50.7879 219.364 50.5643 219.237 50.3742C219.11 50.184 218.929 50.036 218.718 49.9487C218.506 49.8614 218.274 49.8389 218.049 49.884C217.825 49.929 217.619 50.0397 217.458 50.2019C217.297 50.3641 217.187 50.5705 217.143 50.795C217.099 51.0195 217.123 51.252 217.211 51.463C217.3 51.6741 217.449 51.8541 217.639 51.9803C217.83 52.1065 218.054 52.1733 218.283 52.1721C218.588 52.1705 218.881 52.0481 219.096 51.8316C219.311 51.6151 219.432 51.3221 219.432 51.0167Z" fill="white" stroke="#263238" stroke-width="0.60177" stroke-linecap="round" stroke-linejoin="round"/>
<path d="M225.324 144.863H210.899V203.06H225.324V144.863Z" fill="#263238" stroke="#263238" stroke-width="0.60177" stroke-linecap="round" stroke-linejoin="round"/>
<path d="M309.132 48.8687H127.085V159.287H309.132V48.8687Z" fill="#263238" stroke="#263238" stroke-width="0.60177" stroke-linecap="round" stroke-linejoin="round"/>
<path d="M302.579 52.8462H133.65V155.31H302.579V52.8462Z" fill="#F9F9F9" stroke="#263238" stroke-width="0.60177" stroke-linecap="round" stroke-linejoin="round"/>
<path d="M302.579 149.142H133.65V155.31H302.579V149.142Z" fill="#D6B556" stroke="#263238" stroke-width="0.60177" stroke-linecap="round" stroke-linejoin="round"/>
<path d="M218.548 198.613L165.062 202.067V205.545H270.45V202.067L218.548 198.613Z" fill="#263238" stroke="#263238" stroke-width="0.60177" stroke-linecap="round" stroke-linejoin="round"/>
<path d="M218.109 138.183C236.943 138.183 252.211 122.915 252.211 104.081C252.211 85.2466 236.943 69.9785 218.109 69.9785C199.274 69.9785 184.006 85.2466 184.006 104.081C184.006 122.915 199.274 138.183 218.109 138.183Z" fill="white" stroke="#263238" stroke-width="0.60177" stroke-linecap="round" stroke-linejoin="round"/>
<path d="M222.778 108.757H211.874V119.661H222.778V108.757Z" fill="#DA958A" stroke="#263238" stroke-width="0.60177" stroke-linecap="round" stroke-linejoin="round"/>
<path d="M206.518 94.0255C206.518 94.0255 204.791 90.5774 203.263 92.8761C201.734 95.1749 204.238 98.0273 204.984 100.146C205.73 102.264 206.705 101.295 206.705 101.295L206.518 94.0255Z" fill="#FFCEC7" stroke="#263238" stroke-width="0.60177" stroke-linecap="round" stroke-linejoin="round"/>
<path d="M228.633 94.0255C228.633 94.0255 230.355 90.5774 231.883 92.8761C233.412 95.1749 230.908 98.0273 230.162 100.146C229.416 102.264 228.441 101.295 228.441 101.295L228.633 94.0255Z" fill="white" stroke="#263238" stroke-width="0.60177" stroke-linecap="round" stroke-linejoin="round"/>
<path d="M217.699 113.685H217.146C214.113 113.685 211.205 112.481 209.061 110.336C206.917 108.192 205.712 105.284 205.712 102.252V89.4158C205.712 83.1092 210.821 78.6982 217.146 78.6982H217.699C224 78.6982 229.133 83.1092 229.133 89.4158V102.252C229.133 105.284 227.928 108.192 225.784 110.336C223.64 112.481 220.732 113.685 217.699 113.685Z" fill="#FFCEC7" stroke="#263238" stroke-width="0.60177" stroke-linecap="round" stroke-linejoin="round"/>
<path d="M218.915 93.8149V99.1045C218.915 99.1045 220.179 99.2188 219.721 100.374C219.264 101.53 217.994 102.559 215.81 101.06" stroke="#263238" stroke-width="0.60177" stroke-linecap="round" stroke-linejoin="round"/>
<path d="M212.253 94.8861C212.253 96.0896 211.868 97.0825 211.393 97.0825C210.917 97.0825 210.532 96.1016 210.532 94.8861C210.532 93.6705 210.917 92.6836 211.393 92.6836C211.868 92.6836 212.253 93.6705 212.253 94.8861Z" fill="#263238"/>
<path d="M222.881 97.0822C223.356 97.0822 223.741 96.0961 223.741 94.8797C223.741 93.6633 223.356 92.6772 222.881 92.6772C222.405 92.6772 222.02 93.6633 222.02 94.8797C222.02 96.0961 222.405 97.0822 222.881 97.0822Z" fill="#263238"/>
<path d="M213.024 103.016C213.024 103.016 216.081 104.929 218.187 104.929C220.293 104.929 222.778 102.823 222.778 102.823" stroke="#263238" stroke-width="0.60177" stroke-linecap="round" stroke-linejoin="round"/>
<path d="M209.377 90.9621C209.377 90.9621 211.676 89.0485 214.353 90.3904" stroke="#263238" stroke-width="0.60177" stroke-linecap="round" stroke-linejoin="round"/>
<path d="M220.293 90.577C220.293 90.577 222.207 88.2842 225.649 91.1787" stroke="#263238" stroke-width="0.60177" stroke-linecap="round" stroke-linejoin="round"/>
<path d="M205.766 94.2301C205.766 94.2301 206.537 87.5324 207.68 86.7621C208.823 85.9918 211.291 84.4694 211.892 84.0842C212.37 83.6529 212.76 83.134 213.042 82.5557C213.042 82.5557 213.042 76.2432 210.935 76.2432C208.829 76.2432 204.809 77.3865 204.809 82.7483C204.791 85.8053 205.766 94.2301 205.766 94.2301Z" fill="#532708" stroke="#263238" stroke-width="0.60177" stroke-linecap="round" stroke-linejoin="round"/>
<path d="M211.874 84.0723C211.874 84.0723 214.672 81.942 220.149 84.4153C225.625 86.8885 228.062 90.5714 228.609 94.0436C229.157 97.5158 229.151 106.326 229.151 106.326C229.151 106.326 235.512 103.497 236.216 93.4358C236.92 83.3742 234.098 75.2503 224.74 72.428C215.382 69.6057 209.906 76.1349 209.906 76.1349L211.874 84.0723Z" fill="#532708" stroke="#263238" stroke-width="0.60177" stroke-linecap="round" stroke-linejoin="round"/>
<path d="M242.522 127.881C237.823 125.185 226.672 119.36 217.423 118.993C207.999 118.62 197.763 125.083 193.731 127.929C196.908 131.181 200.704 133.763 204.895 135.525C209.085 137.287 213.586 138.193 218.132 138.189C222.679 138.185 227.178 137.272 231.366 135.502C235.553 133.733 239.345 131.144 242.516 127.887L242.522 127.881Z" fill="#407BFF" stroke="#263238" stroke-width="0.60177" stroke-linecap="round" stroke-linejoin="round"/>
<path d="M209.979 137.19C214.933 138.413 220.099 138.507 225.095 137.467V120.292C222.601 119.571 220.033 119.135 217.441 118.993C214.921 118.931 212.406 119.245 209.979 119.925V137.19Z" fill="#0169EE" stroke="#263238" stroke-width="0.60177" stroke-linecap="round" stroke-linejoin="round"/>
<path d="M225.679 115.069H209.166C208.548 115.069 208.047 115.57 208.047 116.189V121.797C208.047 122.415 208.548 122.916 209.166 122.916H225.679C226.297 122.916 226.798 122.415 226.798 121.797V116.189C226.798 115.57 226.297 115.069 225.679 115.069Z" fill="#0169EE" stroke="#263238" stroke-width="0.60177" stroke-linecap="round" stroke-linejoin="round"/>
<path d="M210.346 115.262V120.617" stroke="#263238" stroke-width="0.60177" stroke-linecap="round" stroke-linejoin="round"/>
<path d="M212.067 122.531V117.555" stroke="#263238" stroke-width="0.60177" stroke-linecap="round" stroke-linejoin="round"/>
<path d="M215.13 115.069V119.853" stroke="#263238" stroke-width="0.60177" stroke-linecap="round" stroke-linejoin="round"/>
<path d="M220.678 122.91V119.468" stroke="#263238" stroke-width="0.60177" stroke-linecap="round" stroke-linejoin="round"/>
<path d="M54.0119 130.631C55.6668 131.359 59.7227 131.263 59.7287 131.263C59.7347 131.263 58.8561 128.609 58.7779 128.453C57.8873 126.587 55.077 123.518 52.7602 123.825C52.3819 123.887 52.0209 124.028 51.7007 124.239C51.3804 124.45 51.1082 124.726 50.9016 125.049C50.695 125.372 50.5587 125.735 50.5015 126.114C50.4443 126.493 50.4676 126.88 50.5698 127.249C50.973 128.838 52.5977 130.017 54.0119 130.631Z" fill="#00DC9A"/>
<path d="M55.408 142.372C57.129 142.624 60.7457 141.571 61.0345 141.487C61.6309 143.558 62.3647 145.586 63.231 147.559C63.7304 148.714 64.266 149.858 64.8196 151.001C64.4887 150.514 64.2179 150.086 64.1396 150.032C62.7917 148.468 59.2653 146.247 57.1411 147.156C56.7923 147.315 56.4811 147.547 56.2278 147.835C55.9746 148.123 55.785 148.461 55.6714 148.827C55.5578 149.194 55.5228 149.58 55.5686 149.961C55.6145 150.341 55.7402 150.708 55.9375 151.037C56.7198 152.463 58.6034 153.173 60.1499 153.396C61.6965 153.619 64.8016 152.794 65.62 152.554L66.2639 153.865C67.311 155.948 68.3701 158.03 69.3389 160.1C69.6819 160.828 69.9949 161.556 70.3078 162.284C70.0129 161.857 69.7602 161.496 69.706 161.448C68.358 159.889 64.8317 157.669 62.7074 158.571C62.3593 158.732 62.0488 158.963 61.7961 159.251C61.5434 159.54 61.3541 159.878 61.2406 160.244C61.1271 160.61 61.0919 160.996 61.1372 161.376C61.1826 161.757 61.3075 162.124 61.5039 162.453C62.2922 163.885 64.1697 164.589 65.7163 164.812C67.2628 165.034 70.0611 164.282 71.0359 164.011C71.3368 164.77 71.6377 165.528 71.8904 166.274C72.0529 166.791 72.2455 167.273 72.3779 167.796C72.5103 168.32 72.6667 168.831 72.8111 169.337C73.0458 170.324 73.2986 171.341 73.5032 172.31C73.6536 172.984 73.78 173.628 73.9124 174.271C73.5814 173.543 72.9014 172.129 72.8292 172.015C71.734 170.27 68.5867 167.544 66.3481 168.109C65.9773 168.213 65.6323 168.393 65.3359 168.639C65.0395 168.885 64.7982 169.19 64.6279 169.535C64.4575 169.881 64.3619 170.258 64.3472 170.643C64.3326 171.027 64.3992 171.411 64.5428 171.768C65.1025 173.297 66.8536 174.284 68.328 174.735C69.9467 175.228 73.5393 174.777 73.9906 174.735C74.2012 175.806 74.4058 176.853 74.5924 177.84C74.9775 180.024 75.2664 181.986 75.489 183.641H76.9874C76.7227 181.926 76.3857 179.886 75.9223 177.593C75.7057 176.498 75.4529 175.337 75.1881 174.151C76.2689 173.717 77.3238 173.221 78.3474 172.665C79.551 173.947 82.5598 175.445 82.951 175.631C82.5358 176.648 82.1265 177.629 81.7474 178.55C80.911 180.476 80.1166 182.161 79.4126 183.641H81.0494C81.6511 182.299 82.3191 180.777 83.0112 179.08C83.4324 178.057 83.8657 176.949 84.2989 175.806C84.7322 175.896 88.2887 176.618 89.9435 176.245C91.448 175.908 93.2653 175.042 93.9393 173.573C94.1088 173.229 94.2041 172.853 94.2189 172.47C94.2338 172.086 94.1679 171.704 94.0254 171.348C93.883 170.991 93.6673 170.669 93.3922 170.401C93.1172 170.134 92.789 169.927 92.4289 169.794C90.2384 169.06 86.8986 171.545 85.671 173.206C85.5988 173.303 84.9368 174.452 84.5276 175.186C84.7021 174.717 84.8766 174.265 85.0511 173.784C85.4002 172.833 85.7191 171.87 86.0681 170.835C86.2186 170.33 86.375 169.824 86.5255 169.307C86.6759 168.789 86.7963 168.242 86.9407 167.706C87.2356 166.461 87.4763 165.179 87.6929 163.879C88.5234 164.186 91.5081 165.221 93.0487 165.082C94.5892 164.944 96.5149 164.408 97.4055 163.042C97.6254 162.728 97.7768 162.37 97.8496 161.993C97.9225 161.617 97.9153 161.229 97.8285 160.855C97.7416 160.481 97.5772 160.129 97.3457 159.823C97.1142 159.517 96.8209 159.262 96.4848 159.077C94.4327 158.018 90.7499 159.973 89.2635 161.43C89.1733 161.52 88.2405 162.681 87.7411 163.331C87.8674 162.549 87.9938 161.773 88.0901 160.978C88.3729 158.686 88.5896 156.357 88.8182 154.04C88.8844 153.33 88.9627 152.62 89.0409 151.91C89.3358 152.024 92.8501 153.33 94.5772 153.21C96.1177 153.101 98.0434 152.536 98.934 151.17C99.1548 150.856 99.3068 150.499 99.3801 150.122C99.4535 149.745 99.4465 149.357 99.3595 148.984C99.2726 148.61 99.1078 148.259 98.8758 147.953C98.6438 147.647 98.3499 147.394 98.0133 147.21C95.9612 146.151 92.2844 148.101 90.8221 149.557C90.7078 149.665 89.3718 151.362 89.0529 151.783C89.2154 150.219 89.3959 148.666 89.6547 147.144C89.9641 145.083 90.4083 143.044 90.9846 141.042C91.123 141.096 94.7818 142.48 96.557 142.354C98.0915 142.245 100.023 141.68 100.908 140.314C101.129 140 101.281 139.644 101.355 139.267C101.429 138.891 101.422 138.503 101.336 138.129C101.25 137.756 101.085 137.404 100.854 137.098C100.623 136.792 100.329 136.539 99.9931 136.354C97.9411 135.295 94.2582 137.245 92.7719 138.701C92.6575 138.815 91.2193 140.614 90.9666 140.964C91.0027 140.843 91.0267 140.723 91.0628 140.608C91.6912 138.615 92.4967 136.681 93.4699 134.831C93.9995 133.802 94.5591 132.852 95.1188 131.937C95.7807 132.262 98.7896 133.742 100.396 133.79C102.003 133.839 103.917 133.502 104.952 132.244C105.205 131.956 105.394 131.617 105.508 131.251C105.622 130.885 105.657 130.498 105.612 130.118C105.566 129.737 105.441 129.37 105.245 129.04C105.048 128.711 104.784 128.427 104.47 128.206C102.551 126.924 98.6752 128.465 97.0625 129.747C96.9722 129.819 96.1598 130.625 95.5761 131.227C95.8409 130.818 96.0996 130.39 96.3584 130.023C97.3273 128.573 98.3021 127.297 99.1747 126.178C99.6742 125.546 100.138 124.974 100.583 124.457C101.389 124.457 104.663 124.349 106.089 123.675C107.515 123.001 109.098 121.797 109.417 120.202C109.509 119.83 109.522 119.442 109.454 119.064C109.386 118.687 109.24 118.328 109.024 118.01C108.808 117.693 108.528 117.424 108.202 117.223C107.876 117.021 107.51 116.89 107.13 116.839C104.831 116.592 102.105 119.739 101.263 121.623C101.191 121.785 100.354 124.463 100.396 124.463H100.456C100.017 124.956 99.5598 125.486 99.0664 126.082C98.1697 127.189 97.1648 128.441 96.1658 129.879C95.0701 131.424 94.0655 133.031 93.157 134.693C92.1303 136.543 91.2685 138.481 90.5814 140.482V140.56C90.5814 139.88 90.5814 137.991 90.5453 137.84C90.2805 135.8 88.5655 132.003 86.2908 131.582C85.9118 131.523 85.5248 131.545 85.1547 131.645C84.7846 131.746 84.4398 131.923 84.1425 132.165C83.8453 132.407 83.6022 132.709 83.4291 133.052C83.2559 133.394 83.1566 133.768 83.1375 134.151C83.0051 135.776 84.1846 137.401 85.334 138.43C86.6278 139.585 90.2264 140.711 90.5152 140.795C89.8682 142.851 89.3595 144.948 88.9927 147.071C88.7761 148.311 88.5896 149.557 88.4211 150.814C88.4211 150.213 88.4211 149.707 88.391 149.611C88.1262 147.565 86.4112 143.768 84.1425 143.347C83.7629 143.287 83.375 143.308 83.0041 143.408C82.6333 143.509 82.2878 143.686 81.9902 143.93C81.6926 144.173 81.4496 144.476 81.2772 144.819C81.1047 145.162 81.0065 145.538 80.9892 145.922C80.8568 147.547 82.0303 149.172 83.1796 150.201C84.329 151.23 87.392 152.259 88.2044 152.517C88.1443 152.999 88.078 153.48 88.0239 153.962C87.7471 156.279 87.4823 158.595 87.1513 160.858C87.031 161.658 86.8865 162.435 86.7481 163.217C86.7481 162.699 86.7481 162.26 86.7481 162.194C86.4834 160.148 84.7683 156.351 82.4996 155.93C82.1202 155.871 81.7327 155.893 81.3622 155.994C80.9917 156.094 80.6466 156.272 80.3492 156.515C80.0519 156.758 79.8089 157.06 79.6362 157.403C79.4634 157.746 79.3647 158.122 79.3464 158.505C79.214 160.13 80.3935 161.755 81.5428 162.784C82.6922 163.813 85.4604 164.739 86.4172 165.052C86.2487 165.847 86.0802 166.647 85.8816 167.411C85.7372 167.929 85.6289 168.434 85.4543 168.952C85.2798 169.469 85.1234 169.969 84.9609 170.468C84.6119 171.425 84.2628 172.406 83.9018 173.333C83.655 173.977 83.4083 174.584 83.1616 175.198C83.2819 174.404 83.4986 172.845 83.4986 172.713C83.4737 170.899 82.9847 169.121 82.0784 167.55C82.0854 167.348 82.0713 167.147 82.0363 166.948C81.9891 166.567 81.8622 166.2 81.6638 165.872C81.4654 165.543 81.2 165.26 80.8849 165.041C80.5698 164.822 80.2121 164.672 79.835 164.6C79.4579 164.528 79.07 164.537 78.6965 164.625C76.4639 165.227 75.0497 169.138 74.9414 171.202C74.9414 171.323 75.0136 172.647 75.0798 173.483C74.9655 172.996 74.8632 172.526 74.7428 172.027C74.5081 171.04 74.2434 170.059 73.9666 169.018C73.8161 168.513 73.6596 168.007 73.5032 167.49C73.3467 166.972 73.1421 166.454 72.9616 165.931C72.5223 164.727 72.0168 163.524 71.4812 162.32C72.3478 162.116 75.4048 161.333 76.6324 160.395C77.86 159.456 79.1478 157.921 79.1358 156.291C79.1463 155.907 79.076 155.526 78.9295 155.172C78.783 154.817 78.5635 154.498 78.2854 154.234C78.0072 153.97 77.6767 153.768 77.3152 153.64C76.9537 153.512 76.5693 153.462 76.1871 153.492C73.8883 153.739 71.8965 157.398 71.4752 159.42C71.4752 159.546 71.3188 161.027 71.2586 161.827C70.9276 161.111 70.6026 160.389 70.2476 159.673C69.2246 157.608 68.1173 155.544 67.0281 153.486C66.6912 152.854 66.3662 152.223 66.0412 151.591C66.3481 151.519 70.0009 150.67 71.3789 149.617C72.5825 148.678 73.8943 147.144 73.8823 145.513C73.8928 145.13 73.8225 144.748 73.676 144.394C73.5295 144.04 73.31 143.72 73.0319 143.456C72.7538 143.192 72.4232 142.99 72.0617 142.862C71.7002 142.734 71.3158 142.684 70.9336 142.715C68.6349 142.967 66.643 146.62 66.2278 148.642C66.1917 148.793 65.9991 150.929 65.9811 151.476C65.2529 150.08 64.5489 148.69 63.905 147.264C63.0269 145.373 62.2731 143.428 61.6483 141.439C61.7927 141.409 65.614 140.536 67.0221 139.459C68.2257 138.52 69.5375 136.986 69.5255 135.355C69.5369 134.971 69.4673 134.59 69.3211 134.235C69.1749 133.88 68.9555 133.56 68.6772 133.296C68.3988 133.032 68.0679 132.83 67.7059 132.702C67.344 132.575 66.9592 132.525 66.5768 132.557C64.2781 132.804 62.2862 136.462 61.871 138.484C61.8349 138.641 61.6303 140.939 61.6242 141.361C61.5881 141.24 61.54 141.126 61.5039 141.012C60.9337 139 60.543 136.942 60.3364 134.862C60.2041 133.718 60.1499 132.611 60.1138 131.54C60.8419 131.45 64.1637 131.004 65.5297 130.174C66.8957 129.343 68.3099 127.995 68.4724 126.371C68.5259 125.991 68.4986 125.604 68.3922 125.235C68.2859 124.866 68.1029 124.524 67.8552 124.231C67.6076 123.938 67.3008 123.7 66.955 123.534C66.6093 123.368 66.2322 123.276 65.8487 123.265C63.5379 123.265 61.1549 126.677 60.517 128.639C60.4809 128.748 60.2522 129.873 60.0957 130.691C60.0957 130.204 60.0957 129.704 60.0957 129.241C60.0957 127.49 60.2101 125.895 60.3184 124.475C60.3906 123.675 60.4688 122.947 60.5471 122.267C61.215 121.809 63.8869 119.926 64.7113 118.578C65.5358 117.23 66.1676 115.358 65.5658 113.842C65.4367 113.481 65.2331 113.151 64.9684 112.874C64.7037 112.596 64.3837 112.378 64.0292 112.232C63.6747 112.086 63.2935 112.017 62.9103 112.027C62.5271 112.038 62.1505 112.13 61.8048 112.295C59.7527 113.36 59.2111 117.488 59.5542 119.516C59.5842 119.691 60.3545 122.393 60.3906 122.369L60.4327 122.339C60.3425 122.989 60.2522 123.693 60.168 124.457C60.0295 125.871 59.8851 127.466 59.843 129.229C59.7757 131.118 59.8199 133.008 59.9754 134.892C60.1084 137.008 60.4306 139.109 60.9382 141.168C60.9382 141.168 60.9382 141.216 60.9382 141.24C60.5711 140.669 59.506 139.104 59.4097 138.996C58.0558 137.437 54.5354 135.217 52.4051 136.119C52.057 136.28 51.7465 136.511 51.4938 136.799C51.2411 137.088 51.0518 137.426 50.9383 137.792C50.8248 138.158 50.7896 138.544 50.8349 138.924C50.8803 139.305 51.0052 139.672 51.2016 140.001C52.008 141.451 53.8855 142.155 55.408 142.372Z" fill="#00DC9A"/>
<path d="M95.0405 131.54C95.0766 131.54 95.7807 128.844 95.8048 128.663C96.0876 126.623 95.4377 122.507 93.3556 121.502C93.0072 121.342 92.6291 121.257 92.2457 121.253C91.8624 121.248 91.4824 121.325 91.1305 121.477C90.7786 121.629 90.4627 121.853 90.2032 122.136C89.9438 122.418 89.7466 122.751 89.6246 123.115C89.0649 124.643 89.775 126.527 90.6115 127.821C91.5864 129.361 95.0405 131.54 95.0405 131.54Z" fill="#00DC9A"/>
<path d="M89.7751 205.545H67.6119L64.8438 180.933H92.5432L89.7751 205.545Z" fill="#C064D7" stroke="#263238" stroke-width="0.60177" stroke-linecap="round" stroke-linejoin="round"/>
<path d="M65.3492 185.446L65.614 187.829H91.7669L92.0377 185.446H65.3492Z" fill="#263238"/>
<path d="M91.1772 193.077L91.448 190.688H65.939L66.2098 193.077H91.1772Z" fill="#263238"/>
<path d="M330.092 103.984H294.371C292.676 103.984 291.302 105.358 291.302 107.053V130.637C291.302 132.332 292.676 133.706 294.371 133.706H330.092C331.787 133.706 333.161 132.332 333.161 130.637V107.053C333.161 105.358 331.787 103.984 330.092 103.984Z" fill="#263238" stroke="#263238" stroke-width="0.60177" stroke-linecap="round" stroke-linejoin="round"/>
<path d="M331.903 101.915H296.182C294.487 101.915 293.113 103.289 293.113 104.984V128.567C293.113 130.262 294.487 131.636 296.182 131.636H331.903C333.598 131.636 334.972 130.262 334.972 128.567V104.984C334.972 103.289 333.598 101.915 331.903 101.915Z" fill="#0169EE" stroke="#263238" stroke-width="0.60177" stroke-linecap="round" stroke-linejoin="round"/>
<path d="M323.864 116.351L307.556 106.933V125.762L323.864 116.351Z" fill="white" stroke="#263238" stroke-width="0.60177" stroke-linecap="round" stroke-linejoin="round"/>
<path d="M309.132 48.8687H272.256V73.3426H309.132V48.8687Z" fill="#263238" stroke="#263238" stroke-width="0.60177" stroke-linecap="round" stroke-linejoin="round"/>
<path d="M323.695 33.1924H274.717V71.7057H323.695V33.1924Z" fill="white" stroke="#263238" stroke-width="0.60177" stroke-linecap="round" stroke-linejoin="round"/>
<path d="M285.675 27.5298H281.667V38.0126H285.675V27.5298Z" fill="#263238" stroke="#263238" stroke-width="0.60177" stroke-linecap="round" stroke-linejoin="round"/>
<path d="M301.598 27.5298H297.59V38.0126H301.598V27.5298Z" fill="#263238" stroke="#263238" stroke-width="0.60177" stroke-linecap="round" stroke-linejoin="round"/>
<path d="M317.521 27.5298H313.513V38.0126H317.521V27.5298Z" fill="#263238" stroke="#263238" stroke-width="0.60177" stroke-linecap="round" stroke-linejoin="round"/>
<path d="M283.431 46.7803H278.532V51.6787H283.431V46.7803Z" fill="white" stroke="#263238" stroke-width="0.60177" stroke-linecap="round" stroke-linejoin="round"/>
<path d="M290.887 46.7803H285.988V51.6787H290.887V46.7803Z" fill="white" stroke="#263238" stroke-width="0.60177" stroke-linecap="round" stroke-linejoin="round"/>
<path d="M298.337 46.7803H293.438V51.6787H298.337V46.7803Z" fill="white" stroke="#263238" stroke-width="0.60177" stroke-linecap="round" stroke-linejoin="round"/>
<path d="M305.792 46.7803H300.894V51.6787H305.792V46.7803Z" fill="white" stroke="#263238" stroke-width="0.60177" stroke-linecap="round" stroke-linejoin="round"/>
<path d="M313.248 46.7803H308.35V51.6787H313.248V46.7803Z" fill="white" stroke="#263238" stroke-width="0.60177" stroke-linecap="round" stroke-linejoin="round"/>
<path d="M320.704 46.7803H315.806V51.6787H320.704V46.7803Z" fill="#D6B556"/>
<path d="M283.431 54.0015H278.532V58.8999H283.431V54.0015Z" fill="white" stroke="#263238" stroke-width="0.60177" stroke-linecap="round" stroke-linejoin="round"/>
<path d="M290.887 54.0015H285.988V58.8999H290.887V54.0015Z" fill="white" stroke="#263238" stroke-width="0.60177" stroke-linecap="round" stroke-linejoin="round"/>
<path d="M298.337 54.0015H293.438V58.8999H298.337V54.0015Z" fill="white" stroke="#263238" stroke-width="0.60177" stroke-linecap="round" stroke-linejoin="round"/>
<path d="M305.792 54.0015H300.894V58.8999H305.792V54.0015Z" fill="#0169EE"/>
<path d="M313.248 54.0015H308.35V58.8999H313.248V54.0015Z" fill="white" stroke="#263238" stroke-width="0.60177" stroke-linecap="round" stroke-linejoin="round"/>
<path d="M320.704 54.0015H315.806V58.8999H320.704V54.0015Z" fill="white" stroke="#263238" stroke-width="0.60177" stroke-linecap="round" stroke-linejoin="round"/>
<path d="M283.431 61.2168H278.532V66.1152H283.431V61.2168Z" fill="white" stroke="#263238" stroke-width="0.60177" stroke-linecap="round" stroke-linejoin="round"/>
<path d="M290.887 61.2168H285.988V66.1152H290.887V61.2168Z" fill="white" stroke="#263238" stroke-width="0.60177" stroke-linecap="round" stroke-linejoin="round"/>
<path d="M298.337 61.2168H293.438V66.1152H298.337V61.2168Z" fill="#D6B556"/>
<path d="M305.792 61.2168H300.894V66.1152H305.792V61.2168Z" fill="white" stroke="#263238" stroke-width="0.60177" stroke-linecap="round" stroke-linejoin="round"/>
<path d="M313.248 61.2168H308.35V66.1152H313.248V61.2168Z" fill="white" stroke="#263238" stroke-width="0.60177" stroke-linecap="round" stroke-linejoin="round"/>
<path d="M320.704 61.2168H315.806V66.1152H320.704V61.2168Z" fill="white" stroke="#263238" stroke-width="0.60177" stroke-linecap="round" stroke-linejoin="round"/>
<path d="M175.076 39.4326H142.532C142.245 39.4318 141.961 39.4878 141.695 39.5973C141.43 39.7068 141.189 39.8677 140.986 40.0707C140.783 40.2737 140.622 40.5148 140.512 40.7802C140.403 41.0456 140.347 41.33 140.348 41.6171V62.2818C140.348 62.8612 140.578 63.4168 140.988 63.8264C141.397 64.2361 141.953 64.4662 142.532 64.4662H144.813L149.802 71.1399L150.403 64.4662H175.076C175.655 64.4647 176.209 64.234 176.619 63.8247C177.028 63.4154 177.259 62.8607 177.26 62.2818V41.6171C177.26 41.0377 177.03 40.4821 176.621 40.0724C176.211 39.6628 175.655 39.4326 175.076 39.4326Z" fill="#0169EE"/>
<path d="M146.51 46.1606H171.742" stroke="white" stroke-width="0.60177" stroke-miterlimit="10"/>
<path d="M146.51 51.5103H171.742" stroke="white" stroke-width="0.60177" stroke-miterlimit="10"/>
<path d="M146.51 56.8662H171.742" stroke="white" stroke-width="0.60177" stroke-miterlimit="10"/>
<path d="M313.158 199.095C310.607 199.095 308.055 197.464 306.689 196.188C306.427 195.944 306.273 195.606 306.261 195.248C306.249 194.89 306.379 194.542 306.623 194.28C306.867 194.019 307.205 193.865 307.563 193.852C307.921 193.84 308.269 193.97 308.531 194.214C308.573 194.25 312.659 197.981 315.048 195.592C317.124 193.516 319.296 189.364 319.224 185.765C319.243 184.955 319.092 184.15 318.781 183.402C318.47 182.654 318.006 181.979 317.419 181.421C316.341 180.416 315.3 179.97 314.326 180.097C312.623 180.313 311.437 182.143 311.425 182.161C311.234 182.464 310.931 182.679 310.582 182.759C310.232 182.838 309.866 182.776 309.563 182.585C309.259 182.394 309.044 182.091 308.965 181.742C308.885 181.392 308.948 181.026 309.138 180.723C309.211 180.602 310.992 177.81 313.952 177.419C315.758 177.178 317.563 177.858 319.26 179.441C320.106 180.247 320.777 181.219 321.233 182.295C321.688 183.372 321.918 184.53 321.908 185.699C321.992 190.092 319.501 194.948 316.937 197.482C316.45 197.993 315.863 198.399 315.213 198.676C314.564 198.954 313.864 199.096 313.158 199.095Z" fill="#9736AF" stroke="#263238" stroke-width="0.60177" stroke-linecap="round" stroke-linejoin="round"/>
<path d="M311.876 196.194C310.643 195.758 309.507 195.085 308.531 194.214C308.269 193.97 307.921 193.84 307.563 193.852C307.205 193.865 306.867 194.019 306.623 194.281C306.379 194.542 306.249 194.89 306.261 195.248C306.273 195.606 306.427 195.944 306.689 196.188C308.094 197.51 309.81 198.456 311.678 198.938L311.876 196.194Z" fill="#263238" stroke="#263238" stroke-width="0.60177" stroke-linecap="round" stroke-linejoin="round"/>
<path d="M309.15 180.723C309.056 180.873 308.992 181.04 308.962 181.215C308.932 181.39 308.937 181.569 308.977 181.742C309.016 181.915 309.089 182.078 309.192 182.223C309.294 182.368 309.424 182.491 309.574 182.585C309.725 182.68 309.892 182.743 310.067 182.773C310.242 182.803 310.421 182.798 310.594 182.759C310.767 182.719 310.93 182.646 311.075 182.544C311.219 182.441 311.343 182.311 311.437 182.161C311.869 181.535 312.416 180.998 313.05 180.578L313.278 177.569C311.583 178.12 310.127 179.232 309.15 180.723Z" fill="#263238" stroke="#263238" stroke-width="0.60177" stroke-linecap="round" stroke-linejoin="round"/>
<path d="M310.095 205.545H292.204L289.966 175.728H312.328L310.095 205.545Z" fill="#9736AF" stroke="#263238" stroke-width="0.60177" stroke-linecap="round" stroke-linejoin="round"/>
<path d="M298.595 197.512C301.281 197.512 303.458 193.608 303.458 188.792C303.458 183.976 301.281 180.072 298.595 180.072C295.91 180.072 293.733 183.976 293.733 188.792C293.733 193.608 295.91 197.512 298.595 197.512Z" fill="white"/>
<path d="M288.118 146.584C288.376 145.632 288.72 144.705 289.147 143.816" stroke="#263238" stroke-width="0.60177" stroke-linecap="round" stroke-linejoin="round"/>
<path d="M293.51 173.062C293.51 173.062 298.547 168.031 293.173 161.989C289.153 157.458 287.198 153.125 287.757 148.552" stroke="#263238" stroke-width="0.60177" stroke-linecap="round" stroke-linejoin="round"/>
<path d="M303.999 164.896C303.759 163.985 303.393 163.112 302.91 162.302" stroke="#263238" stroke-width="0.60177" stroke-linecap="round" stroke-linejoin="round"/>
<path d="M303.253 173.062C304.058 171.162 304.428 169.106 304.336 167.044" stroke="#263238" stroke-width="0.60177" stroke-linecap="round" stroke-linejoin="round"/>
<path d="M243.551 33.1082C245.028 30.8806 245.715 28.2221 245.502 25.5579C245.29 22.8938 244.19 20.3779 242.378 18.4127C240.567 16.4475 238.149 15.1465 235.511 14.7178C232.873 14.2891 230.167 14.7575 227.827 16.048C227.924 15.3966 227.972 14.7388 227.972 14.0802C227.982 10.7018 226.741 7.43917 224.487 4.9226C222.232 2.40604 219.126 0.81408 215.766 0.454212C212.407 0.0943443 209.034 0.992102 206.298 2.97408C203.562 4.95606 201.657 7.88164 200.952 11.1857H200.639C198.094 11.1901 195.601 11.9054 193.44 13.251C191.28 14.5966 189.539 16.519 188.412 18.8014C187.286 21.0838 186.82 23.6355 187.067 26.1687C187.313 28.7018 188.262 31.1158 189.807 33.1383L243.551 33.1082Z" fill="#D6B556"/>
<path d="M204.069 43.3502V27.1807" stroke="#263238" stroke-width="0.60177" stroke-linecap="round" stroke-linejoin="round"/>
<path d="M207.072 28.0531L204.075 22.8599L201.072 28.0531H207.072Z" fill="#263238"/>
<path d="M223.585 23.835V37.0799" stroke="#263238" stroke-width="0.60177" stroke-linecap="round" stroke-linejoin="round"/>
<path d="M220.582 36.2012L223.585 41.3944L226.587 36.2012H220.582Z" fill="#263238"/>
<path d="M151.872 126.708H113.557C112.188 126.708 111.078 127.818 111.078 129.187V203.066C111.078 204.435 112.188 205.545 113.557 205.545H151.872C153.241 205.545 154.351 204.435 154.351 203.066V129.187C154.351 127.818 153.241 126.708 151.872 126.708Z" fill="#263238" stroke="#263238" stroke-width="0.60177" stroke-linecap="round" stroke-linejoin="round"/>
<path d="M150.716 126.708H112.402C111.032 126.708 109.922 127.818 109.922 129.187V203.066C109.922 204.435 111.032 205.545 112.402 205.545H150.716C152.085 205.545 153.196 204.435 153.196 203.066V129.187C153.196 127.818 152.085 126.708 150.716 126.708Z" fill="white" stroke="#263238" stroke-width="0.60177" stroke-linecap="round" stroke-linejoin="round"/>
<path d="M148.61 133.838H114.502V197.403H148.61V133.838Z" fill="#D6B556"/>
<path d="M131.556 168.934C139.286 168.934 145.553 162.667 145.553 154.937C145.553 147.206 139.286 140.939 131.556 140.939C123.826 140.939 117.559 147.206 117.559 154.937C117.559 162.667 123.826 168.934 131.556 168.934Z" fill="white" stroke="#263238" stroke-width="0.300885" stroke-linecap="round" stroke-linejoin="round"/>
<path d="M133.47 156.856H128.992V161.333H133.47V156.856Z" fill="#DA958A" stroke="#263238" stroke-width="0.300885" stroke-linecap="round" stroke-linejoin="round"/>
<path d="M126.796 150.796C126.796 150.796 126.086 149.382 125.46 150.321C124.834 151.26 125.857 152.439 126.164 153.33C126.471 154.22 126.874 153.805 126.874 153.805L126.796 150.796Z" fill="#FFCEC7" stroke="#263238" stroke-width="0.300885" stroke-linecap="round" stroke-linejoin="round"/>
<path d="M135.865 150.796C135.865 150.796 136.569 149.382 137.195 150.321C137.82 151.26 136.797 152.439 136.49 153.33C136.184 154.22 135.786 153.805 135.786 153.805L135.865 150.796Z" fill="white" stroke="#263238" stroke-width="0.300885" stroke-linecap="round" stroke-linejoin="round"/>
<path d="M131.381 158.884H131.147C129.903 158.884 128.711 158.39 127.832 157.511C126.953 156.632 126.459 155.439 126.459 154.196V148.925C126.459 146.337 128.559 144.532 131.147 144.532H131.369C133.957 144.532 136.057 146.337 136.057 148.925V154.196C136.057 155.437 135.565 156.628 134.688 157.507C133.812 158.385 132.623 158.881 131.381 158.884Z" fill="#FFCEC7" stroke="#263238" stroke-width="0.300885" stroke-linecap="round" stroke-linejoin="round"/>
<path d="M131.881 150.724V152.897C131.881 152.897 132.404 152.945 132.212 153.42C132.019 153.895 131.508 154.317 130.605 153.703" stroke="#263238" stroke-width="0.300885" stroke-linecap="round" stroke-linejoin="round"/>
<path d="M129.149 151.163C129.149 151.663 128.992 152.072 128.794 152.072C128.595 152.072 128.445 151.663 128.445 151.163C128.445 150.664 128.601 150.261 128.794 150.261C128.986 150.261 129.149 150.67 129.149 151.163Z" fill="#263238"/>
<path d="M133.861 151.163C133.861 151.663 133.704 152.072 133.512 152.072C133.319 152.072 133.157 151.663 133.157 151.163C133.157 150.664 133.313 150.261 133.512 150.261C133.71 150.261 133.861 150.67 133.861 151.163Z" fill="#263238"/>
<path d="M129.462 154.504C130.105 154.915 130.83 155.184 131.586 155.292C132.283 155.186 132.936 154.886 133.47 154.425" stroke="#263238" stroke-width="0.300885" stroke-linecap="round" stroke-linejoin="round"/>
<path d="M127.969 149.556C128.255 149.332 128.598 149.19 128.959 149.149C129.32 149.108 129.686 149.167 130.015 149.322" stroke="#263238" stroke-width="0.300885" stroke-linecap="round" stroke-linejoin="round"/>
<path d="M132.447 149.4C132.447 149.4 133.235 148.455 134.649 149.635" stroke="#263238" stroke-width="0.300885" stroke-linecap="round" stroke-linejoin="round"/>
<path d="M126.477 150.893C126.477 150.893 126.796 148.142 127.265 147.83C127.735 147.517 128.758 146.885 128.992 146.728C129.185 146.559 129.344 146.355 129.462 146.127C129.462 146.127 129.462 143.533 128.601 143.533C128.254 143.52 127.908 143.582 127.586 143.714C127.265 143.846 126.975 144.045 126.737 144.298C126.499 144.551 126.317 144.852 126.205 145.181C126.093 145.51 126.052 145.859 126.086 146.205C126.086 147.444 126.477 150.893 126.477 150.893Z" fill="#532708" stroke="#263238" stroke-width="0.300885" stroke-linecap="round" stroke-linejoin="round"/>
<path d="M128.992 146.729C128.992 146.729 130.142 145.85 132.392 146.867C134.643 147.884 135.636 149.394 135.865 150.815C136.093 152.235 136.087 155.857 136.087 155.857C136.087 155.857 138.693 154.696 138.988 150.562C139.283 146.428 138.115 143.1 134.276 141.938C133.221 141.584 132.088 141.539 131.008 141.809C129.929 142.079 128.95 142.652 128.186 143.461L128.992 146.729Z" fill="#532708" stroke="#263238" stroke-width="0.300885" stroke-linecap="round" stroke-linejoin="round"/>
<path d="M141.575 164.709C139.644 163.602 135.064 161.213 131.273 161.062C127.482 160.912 123.197 163.56 121.549 164.727C122.851 166.063 124.409 167.125 126.128 167.851C127.848 168.576 129.696 168.949 131.562 168.949C133.428 168.949 135.276 168.576 136.996 167.851C138.715 167.125 140.273 166.063 141.575 164.727V164.709Z" fill="#407BFF" stroke="#263238" stroke-width="0.300885" stroke-linecap="round" stroke-linejoin="round"/>
<path d="M128.21 168.53C129.303 168.801 130.424 168.939 131.55 168.94C132.512 168.94 133.472 168.841 134.414 168.645V161.628C133.391 161.331 132.337 161.152 131.273 161.092C130.238 161.065 129.206 161.195 128.21 161.478V168.53Z" fill="#0169EE" stroke="#263238" stroke-width="0.300885" stroke-linecap="round" stroke-linejoin="round"/>
<path d="M133.999 159.45H128.541C127.923 159.45 127.422 159.951 127.422 160.569V161.55C127.422 162.168 127.923 162.669 128.541 162.669H133.999C134.617 162.669 135.119 162.168 135.119 161.55V160.569C135.119 159.951 134.617 159.45 133.999 159.45Z" fill="#0169EE" stroke="#263238" stroke-width="0.300885" stroke-linecap="round" stroke-linejoin="round"/>
<path d="M128.367 159.528V161.731" stroke="#263238" stroke-width="0.300885" stroke-linecap="round" stroke-linejoin="round"/>
<path d="M129.077 162.513V160.473" stroke="#263238" stroke-width="0.300885" stroke-linecap="round" stroke-linejoin="round"/>
<path d="M130.328 159.45V161.411" stroke="#263238" stroke-width="0.300885" stroke-linecap="round" stroke-linejoin="round"/>
<path d="M132.609 162.669V161.255" stroke="#263238" stroke-width="0.300885" stroke-linecap="round" stroke-linejoin="round"/>
<path d="M18.2487 205.545H338.372" stroke="#263238" stroke-width="0.60177" stroke-miterlimit="10"/>
<path d="M1.62781 205.545H10.2452" stroke="#263238" stroke-width="0.60177" stroke-miterlimit="10"/>
<path d="M149.38 99.652V105.658L156.945 110.027V95.2832L149.38 99.652Z" fill="white" stroke="#263238" stroke-width="0.60177" stroke-linecap="round" stroke-linejoin="round"/>
<path d="M149.374 99.6519H145.794V105.621H149.374V99.6519Z" fill="white" stroke="#263238" stroke-width="0.60177" stroke-linecap="round" stroke-linejoin="round"/>
</svg>
