<svg width="261" height="217" viewBox="0 0 261 217" fill="none" xmlns="http://www.w3.org/2000/svg">
<path d="M3.78377 128.385C5.3329 129.062 9.11848 128.977 9.12377 128.977C9.12905 128.977 8.30955 126.498 8.23553 126.334C7.40546 124.594 4.77776 121.723 2.64176 122.014C2.28836 122.073 1.95117 122.205 1.65198 122.402C1.35279 122.598 1.09829 122.856 0.904921 123.158C0.711556 123.459 0.583638 123.798 0.529451 124.152C0.475265 124.506 0.496013 124.867 0.590353 125.213C0.949877 126.699 2.46728 127.809 3.78377 128.385Z" fill="#D6B556"/>
<path d="M11.2537 139.356C12.8398 139.589 16.2341 138.61 16.5038 138.531C17.0673 140.464 17.7579 142.357 18.571 144.199C19.0363 145.256 19.5386 146.345 20.0514 147.413C19.7448 146.959 19.4646 146.557 19.4223 146.504C18.1586 145.05 14.8701 142.978 12.8821 143.818C12.5563 143.967 12.2656 144.184 12.0288 144.453C11.792 144.722 11.6145 145.037 11.5077 145.379C11.401 145.722 11.3675 146.082 11.4094 146.438C11.4512 146.794 11.5675 147.137 11.7507 147.445C12.4856 148.778 14.2409 149.438 15.6631 149.65C17.0854 149.861 20.0091 149.079 20.7705 148.862C20.9767 149.269 21.1723 149.682 21.3785 150.083C22.3566 152.034 23.34 153.975 24.2494 155.899C24.5666 156.581 24.8574 157.263 25.1535 157.945C24.8786 157.544 24.6248 157.211 24.6248 157.163C23.3612 155.709 20.0726 153.631 18.0846 154.477C17.7588 154.626 17.4681 154.842 17.2313 155.111C16.9945 155.38 16.817 155.696 16.7103 156.038C16.6036 156.38 16.57 156.741 16.6119 157.097C16.6537 157.453 16.77 157.796 16.9532 158.104C17.6881 159.436 19.4434 160.097 20.8656 160.303C22.2879 160.51 24.9262 159.812 25.8355 159.558C26.1158 160.266 26.396 160.975 26.6339 161.673C26.7872 162.154 26.967 162.603 27.0939 163.095C27.2208 163.587 27.3582 164.057 27.4904 164.528C27.7125 165.453 27.9451 166.4 28.1407 167.304C28.2782 167.933 28.3998 168.536 28.5214 169.138C28.2148 168.456 27.575 167.14 27.5116 167.023C26.4859 165.39 23.5462 162.841 21.4578 163.375C21.1127 163.473 20.792 163.643 20.5167 163.872C20.2415 164.102 20.0177 164.388 19.8601 164.71C19.7025 165.032 19.6145 165.384 19.6019 165.743C19.5893 166.101 19.6524 166.458 19.7871 166.791C20.3158 168.218 21.9442 169.138 23.3242 169.556C24.8363 170.021 28.1936 169.598 28.6113 169.556C28.8122 170.56 28.9972 171.539 29.14 172.464C29.4995 174.499 29.7744 176.329 29.9806 177.878H31.3923C31.1491 176.292 30.8266 174.367 30.3983 172.226C30.1974 171.211 29.9648 170.111 29.711 169.011C30.7213 168.609 31.7065 168.147 32.6612 167.626C33.7662 168.821 36.5948 170.222 36.9649 170.397C36.579 171.348 36.193 172.263 35.8176 173.125C35.0351 174.922 34.2949 176.519 33.6393 177.883H35.1673C35.7277 176.63 36.3516 175.208 36.9967 173.627C37.3932 172.665 37.795 171.634 38.1968 170.566C38.6039 170.65 41.8978 171.327 43.484 170.978C44.885 170.661 46.5822 169.868 47.2114 168.477C47.3707 168.156 47.4606 167.806 47.4752 167.448C47.4898 167.09 47.4287 166.733 47.296 166.4C47.1633 166.067 46.9619 165.766 46.705 165.516C46.4481 165.267 46.1414 165.074 45.805 164.951C43.7589 164.264 40.6395 166.585 39.4922 168.123C39.4287 168.218 38.8049 169.292 38.4348 169.974C38.5987 169.54 38.7626 169.117 38.9212 168.668C39.249 167.774 39.5503 166.881 39.8728 165.913L40.3011 164.486C40.4544 164.015 40.5549 163.492 40.6871 162.995C40.962 161.826 41.1893 160.626 41.3903 159.415C42.1675 159.701 44.9538 160.668 46.3919 160.568C47.83 160.467 49.6276 159.939 50.4577 158.664C50.6633 158.371 50.8049 158.038 50.8732 157.686C50.9416 157.334 50.9352 156.972 50.8544 156.623C50.7736 156.274 50.6203 155.946 50.4043 155.66C50.1884 155.374 49.9148 155.137 49.6012 154.963C47.6819 153.975 44.2453 155.799 42.8812 157.158C42.7966 157.242 41.9242 158.326 41.459 158.929C41.5753 158.204 41.6916 157.475 41.7868 156.735C42.0511 154.593 42.2521 152.42 42.4635 150.253C42.527 149.592 42.601 148.931 42.6697 148.27C42.9447 148.37 46.228 149.597 47.8458 149.481C49.2786 149.38 51.0815 148.852 51.9116 147.577C52.1173 147.284 52.2588 146.951 52.3272 146.599C52.3955 146.247 52.3891 145.885 52.3083 145.536C52.2275 145.187 52.0742 144.859 51.8583 144.573C51.6424 144.287 51.3687 144.05 51.0551 143.876C49.1359 142.888 45.6993 144.712 44.3352 146.071C44.2294 146.171 42.9817 147.736 42.6803 148.148C42.8336 146.689 43.0028 145.24 43.209 143.818C43.5019 141.894 43.9169 139.99 44.4515 138.119C44.5837 138.166 48.0044 139.462 49.654 139.345C51.0921 139.245 52.895 138.716 53.7251 137.437C53.9305 137.143 54.0718 136.809 54.1398 136.457C54.2077 136.105 54.2008 135.743 54.1196 135.394C54.0383 135.045 53.8844 134.717 53.668 134.431C53.4515 134.145 53.1774 133.908 52.8633 133.736C50.9494 132.747 47.5127 134.571 46.1434 135.93C46.0376 136.036 44.6947 137.722 44.4726 138.045C44.5044 137.934 44.5255 137.817 44.5572 137.712C45.1484 135.851 45.9039 134.046 46.8148 132.319C47.3065 131.362 47.83 130.468 48.3587 129.617C48.972 129.924 51.7847 131.288 53.2863 131.346C54.7878 131.404 56.5696 131.082 57.516 129.903C57.7527 129.633 57.9301 129.317 58.0366 128.974C58.143 128.632 58.1761 128.271 58.1337 127.915C58.0913 127.559 57.9743 127.215 57.7905 126.907C57.6066 126.6 57.36 126.334 57.0666 126.128C55.2689 124.938 51.6526 126.371 50.1457 127.571C50.0664 127.634 49.3051 128.39 48.7605 128.951C49.0037 128.57 49.2522 128.168 49.4901 127.809C50.3942 126.45 51.3036 125.26 52.1337 124.214C52.6042 123.621 53.0378 123.098 53.4502 122.627C54.2062 122.627 57.2622 122.522 58.5945 121.893C59.9269 121.263 61.3861 120.143 61.7034 118.652C61.789 118.305 61.8011 117.944 61.739 117.593C61.6769 117.241 61.5419 116.906 61.3428 116.61C61.1436 116.314 60.8846 116.063 60.5825 115.872C60.2804 115.682 59.9418 115.557 59.5885 115.506C57.442 115.278 54.8936 118.218 54.1111 119.979C54.0423 120.127 53.2545 122.622 53.2968 122.622H53.3444C52.9373 123.082 52.5038 123.579 52.0491 124.134C51.2084 125.165 50.2726 126.339 49.3368 127.682C48.3108 129.119 47.3715 130.616 46.524 132.165C45.5618 133.893 44.7567 135.703 44.1184 137.574C44.1207 137.597 44.1207 137.62 44.1184 137.643C44.1184 137.008 44.1184 135.243 44.0867 135.11C43.8382 133.196 42.2362 129.654 40.1161 129.258C39.762 129.202 39.4003 129.222 39.0544 129.316C38.7085 129.409 38.3862 129.575 38.1084 129.801C37.8307 130.028 37.6037 130.31 37.4422 130.63C37.2807 130.95 37.1883 131.3 37.1711 131.658C37.0495 133.181 38.1492 134.698 39.2225 135.655C40.4333 136.739 43.7906 137.77 44.0603 137.865C43.4549 139.785 42.9797 141.744 42.638 143.728C42.4318 144.881 42.2626 146.049 42.1093 147.223C42.1093 146.694 42.1093 146.166 42.1093 146.118C41.8608 144.209 40.2588 140.662 38.1387 140.271C37.7846 140.215 37.4229 140.235 37.077 140.329C36.7311 140.422 36.4088 140.588 36.1311 140.814C35.8533 141.041 35.6263 141.323 35.4648 141.643C35.3033 141.963 35.211 142.313 35.1937 142.671C35.0669 144.188 36.1666 145.711 37.2399 146.668C38.3131 147.625 41.1788 148.592 41.9348 148.83C41.8767 149.285 41.8185 149.735 41.7656 150.184C41.5066 152.346 41.2369 154.509 40.9461 156.624C40.8404 157.369 40.7029 158.099 40.5707 158.828C40.5707 158.342 40.5707 157.935 40.5443 157.871C40.3011 155.957 38.6991 152.415 36.579 152.024C36.2248 151.968 35.8628 151.987 35.5165 152.08C35.1703 152.174 34.8477 152.339 34.5697 152.565C34.2917 152.792 34.0647 153.075 33.9035 153.395C33.7423 153.715 33.6505 154.066 33.634 154.424C33.5072 155.942 34.6069 157.459 35.6802 158.416C36.7534 159.373 39.3388 160.245 40.2377 160.531C40.079 161.276 39.9204 162.022 39.7089 162.736C39.5715 163.222 39.471 163.698 39.3071 164.174C39.1432 164.649 39.0005 165.125 38.8471 165.591C38.5246 166.484 38.1968 167.404 37.8585 168.266C37.6258 168.863 37.3985 169.434 37.1658 170.005C37.2822 169.265 37.4831 167.811 37.4831 167.69C37.461 165.995 37.0041 164.335 36.156 162.868C36.1621 162.678 36.1497 162.489 36.119 162.302C36.0745 161.947 35.9556 161.605 35.7701 161.298C35.5845 160.992 35.3365 160.728 35.0422 160.524C34.7479 160.32 34.4138 160.18 34.0619 160.114C33.7099 160.048 33.348 160.057 32.9996 160.14C30.9112 160.695 29.5894 164.369 29.4942 166.278C29.4942 166.389 29.563 167.626 29.6211 168.393C29.5154 167.938 29.4202 167.499 29.3039 167.034C29.0871 166.109 28.8439 165.194 28.5796 164.211C28.435 163.738 28.2923 163.263 28.1513 162.783C28.0138 162.307 27.8129 161.816 27.6226 161.329C27.2102 160.203 26.7396 159.077 26.2374 157.956C27.0463 157.766 29.9013 157.036 31.0486 156.158C32.196 155.281 33.4014 153.848 33.3908 152.325C33.4002 151.967 33.334 151.611 33.1966 151.28C33.0592 150.949 32.8536 150.65 32.5933 150.404C32.333 150.157 32.0237 149.969 31.6856 149.85C31.3475 149.731 30.9882 149.684 30.631 149.713C28.4897 149.946 26.6233 153.361 26.2374 155.249C26.2374 155.365 26.084 156.751 26.0312 157.512C25.7245 156.84 25.4231 156.169 25.0901 155.503C24.1331 153.573 23.1021 151.648 22.0817 149.724L21.1564 147.953C21.4472 147.884 24.8574 147.096 26.1422 146.108C27.2842 145.235 28.495 143.802 28.4844 142.28C28.4937 141.921 28.4275 141.565 28.2901 141.233C28.1528 140.902 27.9473 140.603 27.6871 140.357C27.4269 140.11 27.1177 139.921 26.7796 139.801C26.4415 139.681 26.082 139.634 25.7245 139.663C23.5832 139.895 21.7222 143.316 21.3309 145.198C21.2992 145.341 21.1194 147.313 21.0983 147.842C20.4268 146.541 19.7659 145.235 19.1632 143.929C18.3407 142.164 17.6343 140.346 17.0483 138.489C17.1805 138.457 20.7493 137.648 22.0658 136.638C23.2026 135.766 24.4133 134.333 24.4027 132.81C24.4174 132.45 24.3553 132.09 24.2206 131.755C24.0858 131.42 23.8814 131.118 23.621 130.868C23.3606 130.618 23.05 130.426 22.7099 130.306C22.3698 130.185 22.0079 130.137 21.6481 130.167C19.5016 130.4 17.6405 133.815 17.2545 135.703C17.2228 135.851 17.0272 137.997 17.0219 138.388C16.9902 138.277 16.9426 138.172 16.9109 138.066C16.377 136.188 16.0125 134.267 15.8217 132.324C15.7001 131.267 15.642 130.209 15.6155 129.215C16.2923 129.136 19.3958 128.718 20.6806 127.941C21.9654 127.164 23.2713 125.905 23.4246 124.393C23.4738 124.038 23.4476 123.677 23.3478 123.332C23.248 122.988 23.0768 122.669 22.8454 122.395C22.614 122.121 22.3276 121.899 22.0047 121.743C21.6818 121.587 21.3297 121.501 20.9714 121.491C18.8142 121.491 16.5884 124.663 15.9962 126.513C15.9645 126.609 15.7477 127.661 15.5997 128.427C15.5997 127.973 15.5997 127.507 15.5997 127.069C15.5997 125.44 15.7054 123.944 15.8112 122.622C15.8746 121.871 15.9486 121.195 16.0226 120.56C16.6465 120.132 19.142 118.371 19.9087 117.113C20.6753 115.855 21.2675 114.11 20.7123 112.693C20.5914 112.356 20.401 112.048 20.1535 111.789C19.9059 111.53 19.6068 111.325 19.2753 111.189C18.9439 111.053 18.5876 110.988 18.2295 110.999C17.8713 111.009 17.5194 111.095 17.1964 111.25C15.2824 112.238 14.7749 116.098 15.0815 117.996C15.108 118.16 15.8323 120.682 15.8693 120.64L15.9063 120.613C15.8217 121.221 15.7371 121.871 15.6578 122.59C15.5309 123.912 15.3935 125.408 15.3565 127.042C15.2967 128.805 15.3373 130.571 15.4781 132.329C15.6334 134.293 15.9625 136.239 16.4615 138.145V138.214C16.1231 137.685 15.1238 136.221 15.034 136.099C13.7756 134.645 10.4817 132.573 8.49379 133.413C8.16856 133.563 7.8784 133.78 7.64209 134.049C7.40578 134.318 7.22857 134.633 7.12193 134.975C7.01528 135.317 6.98158 135.677 7.023 136.033C7.06441 136.389 7.18002 136.732 7.36235 137.04C8.07082 138.489 9.82615 139.144 11.2537 139.356Z" fill="#D6B556"/>
<path d="M42.0837 129.221C42.1207 129.221 42.771 126.704 42.7974 126.54C43.0618 124.631 42.4538 120.788 40.5134 119.846C40.1865 119.7 39.8324 119.623 39.474 119.623C39.1157 119.622 38.7612 119.696 38.4336 119.841C38.106 119.986 37.8125 120.199 37.5724 120.465C37.3323 120.731 37.1508 121.044 37.0398 121.385C36.5111 122.818 37.1772 124.557 37.9597 125.784C38.8744 127.227 42.0837 129.215 42.0837 129.221Z" fill="#D6B556"/>
<path d="M167.325 158.881C173.406 158.021 179.532 157.52 185.671 157.38C195.162 157.226 198.271 157.845 200.602 158.628C202.934 159.41 205.022 165.945 201.956 172.163C198.889 178.38 188.162 183.509 173.543 182.266C158.924 181.024 148.503 178.068 142.904 173.865C137.305 169.662 142.28 167.335 148.503 163.915C154.726 160.494 163.148 158.67 167.325 158.881Z" fill="#407BFF" stroke="#263238" stroke-linecap="round" stroke-linejoin="round"/>
<path d="M155.202 173.225C155.202 173.225 176.974 161.25 184.593 159.072C192.211 156.893 200.925 156.428 204.969 159.072C209.014 161.715 208.078 170.27 206.212 173.532C204.345 176.794 189.261 183.646 180.86 186.131C172.459 188.616 139.62 188.463 130.632 189.24C121.644 190.017 99.8402 189.552 96.7261 187.844C93.612 186.136 95.4836 184.265 99.9935 183.176C104.503 182.086 119.434 182.086 126.429 180.067C133.424 178.047 150.068 175.869 155.202 173.225Z" fill="#0169EE" stroke="#263238" stroke-linecap="round" stroke-linejoin="round"/>
<path d="M206.212 173.553C207.121 171.967 207.798 169.117 207.798 166.31C202.157 170.777 193.38 176.064 181.241 180.4C169.725 184.513 137.13 188.193 123.653 189.584C126.334 189.531 128.75 189.425 130.617 189.261C139.636 188.484 172.453 188.642 180.844 186.152C189.235 183.662 204.335 176.82 206.212 173.553Z" fill="#407BFF"/>
<path d="M190.821 182.478C193.131 181.494 195.442 180.437 197.546 179.379C198.011 177.09 198.561 170.391 193.639 157.417C190.577 157.684 187.547 158.245 184.593 159.093C184.593 159.093 193.819 169.641 190.821 182.478Z" fill="#407BFF"/>
<path d="M133.916 178.385C130.987 178.967 128.343 179.533 126.429 180.088C119.429 182.108 104.498 182.108 99.9935 183.197C95.4889 184.286 93.6172 186.152 96.7261 187.865C99.8349 189.578 121.613 190.044 130.632 189.261C131.69 189.171 133.096 189.092 134.746 189.023C131.14 185.111 132.779 180.543 133.916 178.385Z" fill="#DA958A" stroke="#263238" stroke-linecap="round" stroke-linejoin="round"/>
<path d="M119.741 153.663C119.741 153.663 105.587 155.376 98.4338 155.994C91.2803 156.613 78.3692 162.36 75.7256 167.938C73.0821 173.516 81.0127 180.225 85.5227 181.626C90.0326 183.028 103.568 186.136 111.033 185.671C118.498 185.206 140.583 178.671 144.469 177.428C148.355 176.186 155.202 173.23 155.202 173.23C155.202 173.23 148.667 173.23 137.627 167.631C126.588 162.032 124.875 156.306 119.741 153.663Z" fill="#0169EE" stroke="#263238" stroke-linecap="round" stroke-linejoin="round"/>
<path d="M89.3558 158.094C89.3558 158.094 100.517 156.93 105.63 160.647C110.742 164.364 113.999 175.763 113.999 175.763L137.627 167.647C137.627 167.647 135.856 165.765 131.436 160.415C127.016 155.064 113.989 152.045 106.327 153.673C98.6664 155.302 89.3558 158.094 89.3558 158.094Z" fill="#407BFF"/>
<path d="M143.348 177.793L144.469 177.444C148.355 176.202 155.202 173.246 155.202 173.246C155.202 173.246 150.184 173.246 141.513 169.477C142.75 171.56 143.982 174.595 143.348 177.793Z" fill="#DA958A" stroke="#263238" stroke-linecap="round" stroke-linejoin="round"/>
<path d="M151.77 174.684C142.266 175.891 132.864 177.801 123.643 180.4C110.198 184.207 93.9873 182.848 86.1307 181.822C91.1429 183.292 103.874 186.136 111.033 185.687C118.498 185.222 140.583 178.687 144.469 177.444C146.557 176.778 149.492 175.615 151.77 174.684Z" fill="#407BFF"/>
<path d="M166.5 108.453L163.302 139.885C163.302 139.885 164.819 147.451 165.823 150.459C166.828 153.467 167.843 158.363 167.336 158.866C166.828 159.368 166.5 159.035 162.968 160.039C159.437 161.044 155.233 167.119 149.878 169.472C144.522 171.824 140.128 170.651 135.074 168.631C130.019 166.611 120.619 154.356 118.599 154.007C116.579 153.658 110.531 152.664 108.025 151.823C105.519 150.982 102.478 147.451 102.478 147.451C102.478 147.451 101.95 147.451 101.95 145.6C101.95 143.75 102.119 143.586 102.119 143.586C101.322 142.86 100.74 141.929 100.438 140.895C100.105 139.383 103.61 131.314 103.61 126.27C103.61 121.227 106.132 102.23 106.132 99.8772C106.132 97.5244 109.695 97.0168 113.396 95.5047C117.097 93.9926 136.596 86.7651 136.935 84.7454C137.273 82.7257 138.616 68.6091 138.616 68.6091C138.616 68.6091 149.074 79.7967 150.38 80.7113C151.337 81.3625 152.188 82.158 152.902 83.0694L151.707 88.6315C151.707 88.6315 156.745 92.3324 160.108 94.3468C163.471 96.3612 168.012 98.2117 168.176 99.5546" fill="#9736AF"/>
<path d="M166.5 108.453L163.302 139.885C163.302 139.885 164.819 147.451 165.823 150.459C166.828 153.467 167.843 158.363 167.336 158.866C166.828 159.368 166.5 159.035 162.968 160.039C159.437 161.044 155.233 167.119 149.878 169.472C144.522 171.824 140.128 170.651 135.074 168.631C130.019 166.611 120.619 154.356 118.599 154.007C116.579 153.658 110.531 152.664 108.025 151.823C105.519 150.982 102.478 147.451 102.478 147.451C102.478 147.451 101.95 147.451 101.95 145.6C101.95 143.75 102.119 143.586 102.119 143.586C101.322 142.86 100.74 141.929 100.438 140.895C100.105 139.383 103.61 131.314 103.61 126.27C103.61 121.227 106.132 102.23 106.132 99.8772C106.132 97.5244 109.695 97.0168 113.396 95.5047C117.097 93.9926 136.596 86.7651 136.935 84.7454C137.273 82.7257 138.616 68.6091 138.616 68.6091C138.616 68.6091 149.074 79.7967 150.38 80.7113C151.337 81.3625 152.188 82.158 152.902 83.0694L151.707 88.6315C151.707 88.6315 156.745 92.3324 160.108 94.3468C163.471 96.3612 168.012 98.2117 168.176 99.5546" stroke="#263238" stroke-linecap="round" stroke-linejoin="round"/>
<path d="M113.661 145.426C114.514 146.101 115.267 146.895 115.897 147.784" stroke="#263238" stroke-linecap="round" stroke-linejoin="round"/>
<path d="M101.944 145.6C101.944 145.6 106.777 142.248 111.604 144.225" stroke="#263238" stroke-linecap="round" stroke-linejoin="round"/>
<path d="M154.731 90.7727C153.007 89.5726 151.707 88.6156 151.707 88.6156L152.881 83.0694C152.167 82.158 151.316 81.3625 150.359 80.7113C149.053 79.7967 138.595 68.6091 138.595 68.6091C138.595 68.6091 137.247 82.731 136.913 84.7454C136.802 85.401 134.672 86.6065 131.722 87.9864C132.25 91.2274 134.085 96.6414 140.609 98.6981C147.133 100.755 152.177 94.7909 154.731 90.7727Z" fill="#DA958A" stroke="#263238" stroke-linecap="round" stroke-linejoin="round"/>
<path d="M151.754 88.6314L151.707 88.5996L152.881 83.0535C152.167 82.142 151.316 81.3466 150.359 80.6954C149.618 80.1667 145.923 76.3494 142.872 73.1295L142.095 76.8305C142.095 76.8305 142.105 87.3995 151.754 88.6314Z" fill="#263238"/>
<path d="M141.185 33.9307C141.185 33.9307 140.704 29.9125 137.484 29.1142C134.265 28.3158 126.91 28.7916 124.32 33.6082C121.729 38.4248 123.68 42.1152 124.642 42.7602C125.2 43.1348 125.791 43.4569 126.408 43.7225L127.212 39.7096C127.212 39.7096 127.529 43.2414 129.776 44.0397C132.023 44.8381 136.681 44.0397 136.681 44.0397C136.681 44.0397 140.704 41.1529 141.185 33.9307Z" fill="#263238" stroke="#263238" stroke-linecap="round" stroke-linejoin="round"/>
<path d="M170.867 48.2694C170.867 48.2694 176.583 51.9704 176.583 55.6714C176.583 59.3724 169.524 60.7153 169.524 60.7153L170.867 48.2694Z" fill="#263238" stroke="#263238" stroke-linecap="round" stroke-linejoin="round"/>
<path d="M172.173 49.0203C172.173 49.0203 171.528 56.7237 170.888 61.0591C170.249 65.3946 167.515 68.9263 167.357 71.8184C167.198 74.7105 160.774 81.7582 157.56 84.1797C154.345 86.6012 149.534 85.7658 147.128 83.8572C143.486 80.7041 140.626 76.7474 138.775 72.2995C136.845 67.3191 138.293 60.0969 138.775 57.8498C139.256 55.6028 151.294 46.7733 160.452 46.7733C169.609 46.7733 172.173 49.0203 172.173 49.0203Z" fill="#FFCEC7" stroke="#263238" stroke-linecap="round" stroke-linejoin="round"/>
<path d="M162.038 67.0017C162.038 67.0017 162.678 72.7805 162.678 73.2617C162.678 73.7428 161.234 75.1862 158.823 73.7428" stroke="#263238" stroke-linecap="round" stroke-linejoin="round"/>
<path d="M152.426 73.7428C152.426 73.7428 154.995 76.9521 159.167 76.7935" stroke="#263238" stroke-linecap="round" stroke-linejoin="round"/>
<path d="M161.091 61.8627C157.415 59.8658 153.202 59.0795 149.053 59.6156C149.053 59.6156 147.128 59.6156 148.249 61.059C148.249 61.059 147.768 65.8756 148.894 67.319C150.02 68.7624 152.595 69.8885 155.154 69.8885C157.713 69.8885 160.293 66.8378 161.091 61.8627Z" stroke="#263238" stroke-width="2" stroke-linecap="round" stroke-linejoin="round"/>
<path d="M148.09 59.7743L137.654 59.1345" stroke="#263238" stroke-width="2" stroke-linecap="round" stroke-linejoin="round"/>
<path d="M161.091 61.8627L163.825 62.6663C163.825 62.6663 162.699 68.6038 163.344 70.211C163.548 70.7272 163.872 71.1878 164.288 71.5553C164.704 71.9228 165.201 72.1868 165.739 72.3259C166.581 72.5696 167.445 72.7256 168.319 72.7911C169.604 72.7911 172.332 70.2216 172.972 65.7276C172.972 65.7276 173.775 65.405 173.458 64.9239C173.141 64.4428 169.228 62.1958 163.941 62.6769" stroke="#263238" stroke-width="2" stroke-linecap="round" stroke-linejoin="round"/>
<path d="M160.933 63.306C160.933 63.306 162.984 63.4382 163.576 64.2154" stroke="#263238" stroke-width="2" stroke-linecap="round" stroke-linejoin="round"/>
<path d="M155.392 65.1408C155.207 66.1982 154.683 66.9807 154.229 66.9014C153.774 66.8221 153.547 65.9021 153.737 64.85C153.927 63.7978 154.44 63.0101 154.9 63.0894C155.36 63.1687 155.577 64.0886 155.392 65.1408Z" fill="#263238"/>
<path d="M167.093 67.9571C167.349 67.0342 167.231 66.1955 166.829 66.0838C166.426 65.9721 165.892 66.6296 165.636 67.5524C165.38 68.4753 165.498 69.314 165.901 69.4257C166.303 69.5374 166.837 68.8799 167.093 67.9571Z" fill="#263238"/>
<path d="M152.04 61.3816C152.04 61.3816 156.074 60.0387 157.924 62.2222" stroke="#263238" stroke-width="2" stroke-linecap="round" stroke-linejoin="round"/>
<path d="M165.321 64.4058C165.321 64.4058 167.172 62.7245 168.684 65.0773" stroke="#263238" stroke-width="2" stroke-linecap="round" stroke-linejoin="round"/>
<path d="M144.4 58.1722C144.4 58.1722 153.05 53.5143 160.452 52.0709C167.854 50.6275 173.458 51.2673 174.727 46.9318C175.996 42.5964 167.325 35.3742 158.337 32.8046C149.349 30.2351 138.589 32.9633 134.259 39.3871C129.929 45.811 131.367 53.5143 132.673 56.4063C133.979 59.2984 134.92 61.5401 137.331 61.8626C139.742 62.1852 144.4 58.1722 144.4 58.1722Z" fill="#263238" stroke="#263238" stroke-linecap="round" stroke-linejoin="round"/>
<path d="M138.124 53.0754C137.242 53.5882 136.45 54.2439 135.782 55.0158" stroke="white" stroke-linecap="round" stroke-linejoin="round"/>
<path d="M168.319 42.1417C168.319 42.1417 170.661 43.5428 163.873 46.3714C158.945 48.407 148.958 48.9674 141.973 51.3572" stroke="white" stroke-linecap="round" stroke-linejoin="round"/>
<path d="M159.304 40.5185C159.868 39.9045 160.307 39.1861 160.594 38.4037" stroke="white" stroke-linecap="round" stroke-linejoin="round"/>
<path d="M134.143 52.2031C134.143 52.2031 132.028 49.163 139.293 47.0534C144.527 45.536 152.077 44.9915 156.74 42.4325" stroke="white" stroke-linecap="round" stroke-linejoin="round"/>
<path d="M139.901 64.2684C139.901 64.2684 138.627 58.0084 135.898 58.0084C133.17 58.0084 132.8 60.9005 133.895 64.4323C134.989 67.9641 136.808 69.0849 138.447 67.9641" fill="#FFCEC7"/>
<path d="M139.901 64.2684C139.901 64.2684 138.627 58.0084 135.898 58.0084C133.17 58.0084 132.8 60.9005 133.895 64.4323C134.989 67.9641 136.808 69.0849 138.447 67.9641" stroke="#263238" stroke-linecap="round" stroke-linejoin="round"/>
<path d="M118.588 154.007C118.588 154.007 119.26 153.166 119.26 150.475C119.26 147.784 117.409 138.875 116.569 132.657C115.728 126.44 114.893 114.501 114.893 109.457" stroke="#263238" stroke-linecap="round" stroke-linejoin="round"/>
<path d="M135.528 134.576C135.943 135.257 136.406 135.908 136.913 136.522" stroke="#263238" stroke-linecap="round" stroke-linejoin="round"/>
<path d="M126.154 103.573C126.154 103.573 129.168 122.157 134.323 132.409" stroke="#263238" stroke-linecap="round" stroke-linejoin="round"/>
<path d="M136.707 119.386C137.384 120.671 138.077 121.866 138.759 122.908" stroke="#263238" stroke-linecap="round" stroke-linejoin="round"/>
<path d="M128.169 98.365C128.169 98.365 131.542 108.796 135.534 117.066" stroke="#263238" stroke-linecap="round" stroke-linejoin="round"/>
<path d="M92.0258 146.79C92.0258 146.79 93.8763 148.302 97.5773 148.302C101.278 148.302 104.451 146.451 109.177 147.63C113.904 148.809 113.883 153.51 113.375 154.858C112.868 156.206 108.337 157.041 104.133 156.539C99.9301 156.037 91.3544 155.191 91.3544 155.191C91.3544 155.191 92.7026 150.306 92.0258 146.79Z" fill="#9736AF" stroke="#263238" stroke-linecap="round" stroke-linejoin="round"/>
<path d="M88.5998 142.507C88.8032 143.138 89.1318 143.722 89.566 144.224C90.0003 144.725 90.5312 145.134 91.127 145.425C93.2683 146.589 94.0455 149.703 94.0455 151.453C94.0747 152.376 93.9423 153.298 93.6543 154.176C93.6543 154.176 93.0727 156.507 91.127 156.899C89.1814 157.29 88.0182 158.453 85.6813 156.121C83.3444 153.79 80.0399 146.398 80.0399 146.398L80.4312 145.23C81.6382 145.208 82.8286 144.944 83.9312 144.453C85.4857 143.67 88.5998 142.507 88.5998 142.507Z" fill="#DA958A" stroke="#263238" stroke-linecap="round" stroke-linejoin="round"/>
<path d="M77.7083 134.534L91.127 156.899" stroke="#263238" stroke-width="3" stroke-linecap="round" stroke-linejoin="round"/>
<path d="M81.79 156.703C82.9771 157.731 84.5022 158.285 86.0725 158.257C88.7954 158.257 91.5183 156.507 90.1542 155.926C88.7901 155.344 87.8226 154.757 86.8497 155.149C85.8769 155.54 81.79 156.703 81.79 156.703Z" fill="white" stroke="#263238" stroke-linecap="round" stroke-linejoin="round"/>
<path d="M79.8496 153.785C79.8496 153.785 81.0127 157.094 81.9644 157.486C82.9161 157.877 87.0242 156.904 88.1874 156.127C89.3505 155.35 87.4102 154.012 85.6601 154.012C83.9101 154.012 79.8496 153.785 79.8496 153.785Z" fill="#FFCEC7" stroke="#263238" stroke-linecap="round" stroke-linejoin="round"/>
<path d="M79.0671 148.73C79.0671 148.73 78.2899 152.812 79.8496 153.784C81.4093 154.757 87.4313 155.149 88.0182 153.98C88.6051 152.812 86.4585 152.23 84.3172 151.257C82.1759 150.284 79.0671 148.73 79.0671 148.73Z" fill="#FFCEC7" stroke="#263238" stroke-linecap="round" stroke-linejoin="round"/>
<path d="M85.0997 143.089C85.0997 143.089 85.2953 150.676 86.0725 151.453C86.8497 152.23 88.5998 152.426 88.991 151.844C89.3823 151.263 89.7682 144.643 88.5998 142.507C87.4313 140.371 85.0997 143.089 85.0997 143.089Z" fill="#FFCEC7" stroke="#263238" stroke-linecap="round" stroke-linejoin="round"/>
<path d="M80.4312 145.23C80.4312 145.23 77.9039 144.643 77.9039 147.176C77.9039 149.708 81.404 151.257 82.9584 151.453C84.5128 151.648 86.2681 151.062 84.9041 149.898C83.54 148.735 81.5996 146.203 80.4312 145.23Z" fill="#FFCEC7" stroke="#263238" stroke-linecap="round" stroke-linejoin="round"/>
<path d="M99.523 157.538L110.409 155.979C110.409 155.979 109.008 153.959 105.434 153.959C101.86 153.959 99.6763 155.672 99.211 156.291C98.7458 156.909 99.523 157.538 99.523 157.538Z" fill="#263238" stroke="#263238" stroke-linecap="round" stroke-linejoin="round"/>
<path d="M121.449 170.444L138.87 164.38C138.87 164.38 134.672 155.513 126.741 152.405C118.81 149.296 107.041 150.094 102.066 151.96L103.874 153.959C103.874 153.959 107.454 154.112 111.34 158.628C115.226 163.143 119.117 170.291 119.117 170.291L121.449 170.444Z" fill="#E6E6E6" stroke="#263238" stroke-linecap="round" stroke-linejoin="round"/>
<path d="M110.584 152.801C110.584 152.801 117.499 151.812 124.748 167.293" stroke="#D6B556" stroke-linecap="round" stroke-linejoin="round"/>
<path d="M113.994 152.119C113.994 152.119 120.909 151.13 128.153 166.611" stroke="#D6B556" stroke-linecap="round" stroke-linejoin="round"/>
<path d="M116.854 151.574C116.854 151.574 123.77 150.586 131.018 166.066" stroke="#D6B556" stroke-linecap="round" stroke-linejoin="round"/>
<path d="M75.107 168.424C75.107 168.424 82.8791 156.914 97.3447 157.85L99.523 157.544C99.523 157.544 100.924 154.276 104.963 155.053C109.003 155.831 119.429 171.851 119.429 171.851L121.449 170.449C121.449 170.449 115.95 161.128 111.752 155.841C107.554 150.554 102.066 150.734 100.305 152.669C99.3465 153.882 98.4939 155.175 97.7571 156.534C97.7571 156.534 96.1392 154.091 91.3544 155.186C85.4751 156.534 82.2341 159.151 80.5633 160.954C78.1313 163.597 73.2301 167.15 73.6901 166.875L75.107 168.424Z" fill="#F9F9F9" stroke="#263238" stroke-linecap="round" stroke-linejoin="round"/>
<path d="M119.429 171.845L137.934 165.469L138.87 164.38L121.449 170.444L119.429 171.845Z" fill="white" stroke="#263238" stroke-linecap="round" stroke-linejoin="round"/>
<path d="M165.078 97.0907C165.078 97.0907 171.75 99.3959 172.76 102.907C173.77 106.417 178.772 125.731 180.115 128.591C181.457 131.452 184.487 133.128 184.487 135.317C184.487 137.505 184.651 139.181 184.651 139.181C184.651 139.181 188.183 139.351 188.521 142.206C188.859 145.061 189.526 148.762 189.526 148.762L202.981 169.572C202.981 169.572 211.002 170.217 212.852 170.053C214.703 169.889 220.196 170.233 222.205 171.29C222.982 171.703 224.532 173.035 225.748 177.317C226.35 179.432 227.688 183.562 226.847 183.392C226.007 183.223 224.97 180.886 224.637 180.379C224.135 179.28 223.694 178.153 223.316 177.006C223.316 177.006 223.987 181.88 224.156 182.89C224.233 183.579 224.118 184.277 223.823 184.904L223.749 184.936C222.922 185.272 222.008 185.326 221.148 185.09L220.461 184.904C219.812 185.255 219.052 185.334 218.346 185.127L217.595 184.904C217.595 184.904 216.506 181.452 215.48 180.109C214.454 178.766 211.303 177.302 211.303 177.302C211.303 177.302 214.724 181.209 214.555 183.731C214.486 184.751 214.724 185.576 213.883 185.074C213.043 184.571 212.033 182.049 210.182 181.209C208.332 180.368 203.965 179.189 202.283 178.179C200.602 177.169 197.911 173.474 197.911 173.474L175.911 153.663C175.911 153.663 173.728 151.479 173.389 150.3L173.056 149.127C173.056 149.127 170.027 147.276 169.186 146.266C168.345 145.256 168.012 143.094 168.012 143.094L163.471 137.886L166.5 109.14" fill="#FFCEC7"/>
<path d="M165.078 97.0907C165.078 97.0907 171.75 99.3959 172.76 102.907C173.77 106.417 178.772 125.731 180.115 128.591C181.457 131.452 184.487 133.128 184.487 135.317C184.487 137.505 184.651 139.181 184.651 139.181C184.651 139.181 188.183 139.351 188.521 142.206C188.859 145.061 189.526 148.762 189.526 148.762L202.981 169.572C202.981 169.572 211.002 170.217 212.852 170.053C214.703 169.889 220.196 170.233 222.205 171.29C222.982 171.703 224.532 173.035 225.748 177.317C226.35 179.432 227.688 183.562 226.847 183.392C226.007 183.223 224.97 180.886 224.637 180.379C224.135 179.28 223.694 178.153 223.316 177.006C223.316 177.006 223.987 181.88 224.156 182.89C224.233 183.579 224.118 184.277 223.823 184.904L223.749 184.936C222.922 185.272 222.008 185.326 221.148 185.09L220.461 184.904C219.813 185.255 219.052 185.334 218.346 185.127L217.595 184.904C217.595 184.904 216.506 181.452 215.48 180.109C214.454 178.766 211.303 177.302 211.303 177.302C211.303 177.302 214.724 181.209 214.555 183.731C214.486 184.751 214.724 185.576 213.883 185.074C213.043 184.571 212.033 182.049 210.182 181.209C208.332 180.368 203.965 179.189 202.283 178.179C200.602 177.169 197.911 173.474 197.911 173.474L175.911 153.663C175.911 153.663 173.728 151.479 173.389 150.3L173.056 149.127C173.056 149.127 170.027 147.276 169.186 146.266C168.345 145.256 168.012 143.094 168.012 143.094L163.471 137.886L166.5 109.14" stroke="#263238" stroke-linecap="round" stroke-linejoin="round"/>
<path d="M164.782 115.781L163.471 137.87L168.012 143.089C168.012 143.089 168.345 145.278 169.186 146.261C170.027 147.244 173.056 149.121 173.056 149.121L173.389 150.295C173.728 151.474 175.911 153.658 175.911 153.658L179.205 156.629C180.548 154.017 183.731 149.306 189.483 148.55C189.335 147.704 188.807 144.664 188.521 142.206C188.183 139.351 184.651 139.181 184.651 139.181C184.651 139.181 184.487 137.5 184.487 135.317C184.487 133.133 181.457 131.446 180.115 128.591C178.772 125.736 173.77 106.438 172.76 102.907C171.75 99.3747 165.078 97.0907 165.078 97.0907" fill="#9736AF"/>
<path d="M164.782 115.781L163.471 137.87L168.012 143.089C168.012 143.089 168.345 145.278 169.186 146.261C170.027 147.244 173.056 149.121 173.056 149.121L173.389 150.295C173.728 151.474 175.911 153.658 175.911 153.658L179.205 156.629C180.548 154.017 183.731 149.306 189.483 148.55C189.335 147.704 188.807 144.664 188.521 142.206C188.183 139.351 184.651 139.181 184.651 139.181C184.651 139.181 184.487 137.5 184.487 135.317C184.487 133.133 181.457 131.446 180.115 128.591C178.772 125.736 173.77 106.438 172.76 102.907C171.75 99.3747 165.078 97.0907 165.078 97.0907" stroke="#263238" stroke-linecap="round" stroke-linejoin="round"/>
<path d="M164.518 122.458L166.733 141.355L163.471 137.87L164.518 122.458Z" fill="#263238"/>
<path d="M180.13 142.174C180.596 141.851 181.093 141.534 181.627 141.228" stroke="#263238" stroke-linecap="round" stroke-linejoin="round"/>
<path d="M174.727 148.291C175.651 146.48 176.917 144.864 178.454 143.533" stroke="#263238" stroke-linecap="round" stroke-linejoin="round"/>
<path d="M178.428 139.192C179.16 139.073 179.902 139.023 180.643 139.044" stroke="#263238" stroke-linecap="round" stroke-linejoin="round"/>
<path d="M170.196 143.247C171.832 141.784 173.727 140.64 175.784 139.874" stroke="#263238" stroke-linecap="round" stroke-linejoin="round"/>
<path d="M212.223 178.549C212.223 178.549 210.373 176.027 207.851 175.858" stroke="#263238" stroke-linecap="round" stroke-linejoin="round"/>
<path d="M213.064 173.003C213.064 173.003 215.078 173.505 217.6 176.704C220.122 179.903 220.772 184.608 220.772 184.608" stroke="#263238" stroke-linecap="round" stroke-linejoin="round"/>
<path d="M217.875 172.332C217.875 172.332 221.634 175.356 222.306 178.211C222.977 181.066 223.823 184.936 223.823 184.936" stroke="#263238" stroke-linecap="round" stroke-linejoin="round"/>
<path d="M223.316 177.037C222.854 175.114 222.058 173.287 220.963 171.639" stroke="#263238" stroke-linecap="round" stroke-linejoin="round"/>
<path d="M246.978 185.512H200.578L213.357 143.151H259.751L246.978 185.512Z" fill="white" stroke="#263238" stroke-linecap="round" stroke-linejoin="round"/>
<path d="M246.978 185.512L257.8 149.607C244.101 151.304 236.044 162.587 223.371 174.985C215.392 182.778 209.857 185.03 206.61 185.522L246.978 185.512Z" fill="#BEE9FF" stroke="#263238" stroke-linecap="round" stroke-linejoin="round"/>
<path d="M232.015 165.849C234.041 165.849 235.684 164.268 235.684 162.317C235.684 160.366 234.041 158.785 232.015 158.785C229.989 158.785 228.346 160.366 228.346 162.317C228.346 164.268 229.989 165.849 232.015 165.849Z" fill="white" stroke="#263238" stroke-linecap="round" stroke-linejoin="round"/>
<path d="M247.48 185.342H160.739V188.034H247.48V185.342Z" fill="white" stroke="#263238" stroke-linecap="round" stroke-linejoin="round"/>
<path d="M247.48 185.342H203.1V188.034H247.48V185.342Z" fill="#BEE9FF" stroke="#263238" stroke-linecap="round" stroke-linejoin="round"/>
<path d="M75.897 176.35H41.1289C40.3966 176.349 39.6714 176.493 38.9947 176.773C38.318 177.052 37.703 177.463 37.185 177.98C36.667 178.498 36.256 179.112 35.9756 179.789C35.6953 180.465 35.5509 181.19 35.5509 181.922V182.536C35.5509 184.015 36.1386 185.434 37.1847 186.48C38.2307 187.526 39.6495 188.114 41.1289 188.114H75.897C74.7706 186.323 74.1309 184.269 74.0412 182.155C74.1169 180.087 74.7588 178.079 75.897 176.35Z" fill="#E6E6E6" stroke="#263238" stroke-linecap="round" stroke-linejoin="round"/>
<path d="M60.8284 176.35H12.1234C10.6455 176.35 9.22805 176.937 8.18298 177.982C7.13791 179.027 6.5508 180.445 6.5508 181.922V182.536C6.5501 183.268 6.69373 183.993 6.97347 184.67C7.25321 185.347 7.66357 185.962 8.18111 186.48C8.69864 186.998 9.3132 187.409 9.98965 187.689C10.6661 187.969 11.3912 188.114 12.1234 188.114H60.8284C59.702 186.323 59.0623 184.269 58.9726 182.155C59.0483 180.087 59.6902 178.079 60.8284 176.35Z" fill="#0169EE" stroke="#263238" stroke-linecap="round" stroke-linejoin="round"/>
<path d="M28.7831 182.536V181.922C28.7845 180.444 29.3728 179.027 30.4187 177.982C31.4646 176.937 32.8826 176.35 34.361 176.35H12.1234C10.6455 176.35 9.22805 176.937 8.18298 177.982C7.13791 179.027 6.55079 180.445 6.55079 181.922V182.536C6.5501 183.268 6.69372 183.993 6.97346 184.67C7.2532 185.347 7.66357 185.962 8.18111 186.48C8.69864 186.998 9.3132 187.409 9.98964 187.689C10.6661 187.969 11.3912 188.114 12.1234 188.114H34.361C32.8817 188.114 31.4629 187.526 30.4169 186.48C29.3708 185.434 28.7831 184.015 28.7831 182.536Z" fill="#407BFF" stroke="#263238" stroke-linecap="round" stroke-linejoin="round"/>
<path d="M64.6694 176.35H29.9013C28.4229 176.35 27.0049 176.937 25.959 177.982C24.9131 179.027 24.3248 180.444 24.3234 181.922V182.536C24.3234 184.015 24.9111 185.434 25.9572 186.48C27.0032 187.526 28.422 188.114 29.9013 188.114H64.6694C63.543 186.323 62.9034 184.269 62.8137 182.155C62.8893 180.087 63.5313 178.079 64.6694 176.35Z" fill="#F9F9F9" stroke="#263238" stroke-linecap="round" stroke-linejoin="round"/>
<path d="M18.1647 181.923V182.536C18.1647 183.598 18.4682 184.638 19.0396 185.534C19.611 186.429 20.4265 187.143 21.3899 187.59L22.1565 187.622V177.206L21.7071 176.736C20.6641 177.145 19.7683 177.858 19.1365 178.783C18.5047 179.708 18.1661 180.802 18.1647 181.923Z" fill="white" stroke="#263238" stroke-linecap="round" stroke-linejoin="round"/>
<path d="M75.0171 176.35H23.7321C22.2536 176.35 20.8357 176.937 19.7898 177.982C18.7439 179.027 18.1556 180.444 18.1542 181.922V182.536C18.1542 184.015 18.7418 185.434 19.7879 186.48C20.834 187.526 22.2527 188.114 23.7321 188.114H75.0171" stroke="#263238" stroke-width="3" stroke-linecap="round" stroke-linejoin="round"/>
<path d="M22.331 178.946H39.3397" stroke="#263238" stroke-linecap="round" stroke-linejoin="round"/>
<path d="M41.7665 180.506H44.373" stroke="#263238" stroke-linecap="round" stroke-linejoin="round"/>
<path d="M25.6249 180.506H39.5141" stroke="#263238" stroke-linecap="round" stroke-linejoin="round"/>
<path d="M22.331 183.979H31.0072" stroke="#263238" stroke-linecap="round" stroke-linejoin="round"/>
<path d="M48.3648 185.888H50.2734" stroke="#263238" stroke-linecap="round" stroke-linejoin="round"/>
<path d="M36.215 185.888H46.7998" stroke="#263238" stroke-linecap="round" stroke-linejoin="round"/>
<path d="M25.6249 185.888H33.0903" stroke="#263238" stroke-linecap="round" stroke-linejoin="round"/>
<path d="M10.9743 178.2V186.623" stroke="#263238" stroke-linecap="round" stroke-linejoin="round"/>
<path d="M23.5507 179.517H37.4981" stroke="#263238" stroke-linecap="round" stroke-linejoin="round"/>
<path d="M23.5507 181.621H42.7641" stroke="#263238" stroke-linecap="round" stroke-linejoin="round"/>
<path d="M29.4723 183.99H34.4739" stroke="#263238" stroke-linecap="round" stroke-linejoin="round"/>
<path d="M40.792 185.571H25.7924" stroke="#263238" stroke-linecap="round" stroke-linejoin="round"/>
<path d="M56.5098 176.35H10.3638C8.88584 176.35 7.46843 176.937 6.42336 177.982C5.37829 179.027 4.79117 180.445 4.79117 181.922V182.536C4.79048 183.268 4.9341 183.993 5.21384 184.67C5.49358 185.347 5.90395 185.962 6.42148 186.48C6.93902 186.998 7.55357 187.409 8.23002 187.689C8.90647 187.969 9.63154 188.114 10.3638 188.114H56.5098" stroke="#263238" stroke-width="3" stroke-linecap="round" stroke-linejoin="round"/>
<path d="M53.9463 176.35H26.5749C25.8427 176.349 25.1175 176.493 24.4407 176.773C23.764 177.052 23.1491 177.463 22.6311 177.98C22.113 178.498 21.7021 179.112 21.4217 179.789C21.1413 180.465 20.997 181.19 20.997 181.922V182.536C20.997 184.015 21.5847 185.434 22.6307 186.48C23.6768 187.526 25.0956 188.114 26.5749 188.114H53.9463" stroke="#263238" stroke-width="3" stroke-linecap="round" stroke-linejoin="round"/>
<path d="M87.9893 164.766H53.1948C51.7154 164.766 50.2966 165.354 49.2506 166.4C48.2045 167.446 47.6168 168.864 47.6168 170.344V170.952C47.6168 172.431 48.2045 173.85 49.2506 174.896C50.2966 175.942 51.7154 176.53 53.1948 176.53H87.9893C86.8553 174.744 86.2066 172.694 86.1071 170.582C86.1887 168.507 86.8399 166.495 87.9893 164.766Z" fill="#E6E6E6" stroke="#263238" stroke-linecap="round" stroke-linejoin="round"/>
<path d="M71.4565 164.766H36.7042C35.2249 164.766 33.8061 165.354 32.7601 166.4C31.714 167.446 31.1263 168.864 31.1263 170.344V170.952C31.1263 172.431 31.714 173.85 32.7601 174.896C33.8061 175.942 35.2249 176.53 36.7042 176.53H71.467C70.3387 174.743 69.6954 172.693 69.6007 170.582C69.6745 168.51 70.3164 166.498 71.4565 164.766Z" fill="#F9F9F9" stroke="#263238" stroke-linecap="round" stroke-linejoin="round"/>
<path d="M30.2359 170.344V170.952C30.2358 172.014 30.5394 173.054 31.1108 173.95C31.6822 174.845 32.4977 175.559 33.4611 176.006L34.2277 176.038V165.622L33.773 165.152C32.7297 165.561 31.8341 166.276 31.2031 167.202C30.5721 168.128 30.235 169.223 30.2359 170.344Z" fill="white" stroke="#263238" stroke-linecap="round" stroke-linejoin="round"/>
<path d="M87.9893 164.766H36.7042C35.2249 164.766 33.8061 165.354 32.7601 166.4C31.714 167.446 31.1263 168.864 31.1263 170.344V170.952C31.1263 172.431 31.714 173.85 32.7601 174.896C33.8061 175.942 35.2249 176.53 36.7042 176.53H87.9893" stroke="#263238" stroke-width="3" stroke-linecap="round" stroke-linejoin="round"/>
<path d="M32.6373 167.362H49.6459" stroke="#263238" stroke-linecap="round" stroke-linejoin="round"/>
<path d="M48.5588 168.922H51.16" stroke="#263238" stroke-linecap="round" stroke-linejoin="round"/>
<path d="M32.4172 168.922H46.3012" stroke="#263238" stroke-linecap="round" stroke-linejoin="round"/>
<path d="M32.6373 172.395H41.3134" stroke="#263238" stroke-linecap="round" stroke-linejoin="round"/>
<path d="M55.1518 174.304H57.0605" stroke="#263238" stroke-linecap="round" stroke-linejoin="round"/>
<path d="M43.002 174.304H53.5921" stroke="#263238" stroke-linecap="round" stroke-linejoin="round"/>
<path d="M32.4172 174.304H39.8773" stroke="#263238" stroke-linecap="round" stroke-linejoin="round"/>
<path d="M206.878 101.899H194.987C194.746 101.899 194.515 101.803 194.344 101.632C194.174 101.462 194.078 101.23 194.078 100.989V97.5368C194.078 97.4174 194.101 97.2992 194.147 97.1888C194.193 97.0785 194.26 96.9782 194.344 96.8938C194.429 96.8094 194.529 96.7424 194.639 96.6967C194.75 96.651 194.868 96.6274 194.987 96.6274H210.917C211.037 96.6274 211.155 96.651 211.265 96.6967C211.376 96.7424 211.476 96.8094 211.56 96.8938C211.645 96.9782 211.712 97.0785 211.757 97.1888C211.803 97.2992 211.827 97.4174 211.827 97.5368V98.8903" stroke="#263238" stroke-linecap="round" stroke-linejoin="round"/>
<path d="M206.767 107.498V100.096C206.767 99.7831 206.891 99.4832 207.112 99.2621C207.333 99.041 207.633 98.9167 207.946 98.9167H223.728C224.041 98.9167 224.341 99.041 224.562 99.2621C224.783 99.4832 224.907 99.7831 224.907 100.096V108.946" stroke="#263238" stroke-linecap="round" stroke-linejoin="round"/>
<path d="M224.907 116.243V125.458C224.908 125.613 224.878 125.767 224.819 125.911C224.76 126.055 224.673 126.185 224.564 126.295C224.454 126.405 224.324 126.493 224.18 126.552C224.037 126.612 223.883 126.642 223.728 126.642H207.946C207.791 126.642 207.637 126.612 207.494 126.552C207.35 126.493 207.22 126.405 207.11 126.295C207.001 126.185 206.914 126.055 206.855 125.911C206.796 125.767 206.766 125.613 206.767 125.458V109.269" stroke="#263238" stroke-linecap="round" stroke-linejoin="round"/>
<path d="M207.882 103.242H223.781" stroke="#263238" stroke-linecap="round" stroke-linejoin="round"/>
<path d="M215.475 108.037H223.781" stroke="#263238" stroke-linecap="round" stroke-linejoin="round"/>
<path d="M207.882 108.037H214.179" stroke="#263238" stroke-linecap="round" stroke-linejoin="round"/>
<path d="M207.882 112.832H223.781" stroke="#263238" stroke-linecap="round" stroke-linejoin="round"/>
<path d="M220.931 117.622H223.781" stroke="#263238" stroke-linecap="round" stroke-linejoin="round"/>
<path d="M207.882 117.622H219.498" stroke="#263238" stroke-linecap="round" stroke-linejoin="round"/>
<path d="M207.882 122.418H223.781" stroke="#263238" stroke-linecap="round" stroke-linejoin="round"/>
<path d="M197.287 99.1229H205.947" stroke="#263238" stroke-linecap="round" stroke-linejoin="round"/>
<path d="M83.577 39.6673H68.9053C68.6075 39.6673 68.3218 39.5494 68.1108 39.3393C67.8998 39.1292 67.7805 38.8442 67.7791 38.5464V34.2797C67.7805 33.9819 67.8998 33.6968 68.1108 33.4868C68.3218 33.2767 68.6075 33.1588 68.9053 33.1588H88.5469C88.6945 33.1581 88.8409 33.1866 88.9775 33.2426C89.1141 33.2986 89.2382 33.3811 89.3429 33.4852C89.4475 33.5894 89.5306 33.7132 89.5872 33.8495C89.6439 33.9859 89.6731 34.1321 89.6731 34.2797V35.9557" stroke="#263238" stroke-linecap="round" stroke-linejoin="round"/>
<path d="M83.4395 46.6041V37.4838C83.4395 37.2917 83.4775 37.1015 83.5511 36.9241C83.6248 36.7467 83.7328 36.5856 83.8688 36.4501C84.0049 36.3145 84.1664 36.2071 84.344 36.1341C84.5217 36.0611 84.712 36.0238 84.9041 36.0245H104.377C104.569 36.0238 104.759 36.0611 104.937 36.1341C105.114 36.2071 105.276 36.3145 105.412 36.4501C105.548 36.5856 105.656 36.7467 105.729 36.9241C105.803 37.1015 105.841 37.2917 105.841 37.4838V48.407" stroke="#263238" stroke-linecap="round" stroke-linejoin="round"/>
<path d="M105.841 57.4004V68.7783C105.84 69.1658 105.685 69.5369 105.41 69.8104C105.136 70.084 104.764 70.2375 104.377 70.2375H84.9041C84.5166 70.2375 84.1449 70.084 83.8704 69.8104C83.5959 69.5369 83.4409 69.1658 83.4395 68.7783V48.793" stroke="#263238" stroke-linecap="round" stroke-linejoin="round"/>
<path d="M84.8248 41.3539H104.445" stroke="#263238" stroke-linecap="round" stroke-linejoin="round"/>
<path d="M94.1988 47.2703H104.445" stroke="#263238" stroke-linecap="round" stroke-linejoin="round"/>
<path d="M84.8248 47.2703H92.5968" stroke="#263238" stroke-linecap="round" stroke-linejoin="round"/>
<path d="M84.8248 53.1865H104.445" stroke="#263238" stroke-linecap="round" stroke-linejoin="round"/>
<path d="M100.929 59.108H104.445" stroke="#263238" stroke-linecap="round" stroke-linejoin="round"/>
<path d="M84.8248 59.108H99.1634" stroke="#263238" stroke-linecap="round" stroke-linejoin="round"/>
<path d="M84.8248 65.0243H104.445" stroke="#263238" stroke-linecap="round" stroke-linejoin="round"/>
<path d="M71.7444 36.2677H82.435" stroke="#263238" stroke-linecap="round" stroke-linejoin="round"/>
<path d="M108.754 57.9661C107.913 57.9672 107.104 57.6389 106.502 57.0514L104.408 55C104.286 54.8802 104.208 54.722 104.188 54.5517C104.167 54.3815 104.206 54.2094 104.297 54.0642C104.355 53.9717 104.433 53.8928 104.524 53.8326C104.615 53.7724 104.718 53.7324 104.826 53.7153C104.937 53.701 105.049 53.7117 105.155 53.7465C105.261 53.7812 105.358 53.8392 105.439 53.9162L105.852 54.3021L103.737 49.972C103.646 49.7598 103.642 49.5209 103.723 49.3053C103.805 49.0897 103.967 48.914 104.175 48.8149C104.384 48.7159 104.622 48.7013 104.841 48.774C105.06 48.8468 105.242 49.0013 105.349 49.2053L106.142 50.7386C106.285 50.5653 106.486 50.4506 106.708 50.4161C107.003 50.3895 107.297 50.4744 107.533 50.654C107.677 50.4632 107.889 50.336 108.125 50.2998C108.37 50.2773 108.616 50.3368 108.823 50.469C108.872 50.3489 108.959 50.2479 109.071 50.1813C109.182 50.1146 109.312 50.0857 109.442 50.0989C109.584 50.1106 109.721 50.1579 109.84 50.2364C109.959 50.315 110.057 50.4222 110.124 50.5483L111.609 53.2764C111.861 53.7708 111.981 54.3214 111.959 54.8757C111.937 55.4299 111.773 55.9692 111.483 56.4419C111.193 56.9146 110.786 57.3049 110.302 57.5755C109.818 57.8461 109.272 57.9878 108.717 57.9872L108.754 57.9661ZM104.948 54.0272H104.889C104.828 54.0364 104.769 54.0586 104.717 54.0923C104.665 54.1261 104.621 54.1706 104.588 54.2228C104.535 54.3046 104.513 54.4021 104.525 54.4986C104.536 54.5951 104.581 54.6846 104.651 54.7515L106.766 56.8241C107.26 57.3027 107.907 57.5905 108.594 57.6362C109.28 57.682 109.96 57.4828 110.512 57.074C111.065 56.6652 111.455 56.0735 111.612 55.4042C111.77 54.7348 111.684 54.0314 111.371 53.4192L109.891 50.6963C109.85 50.622 109.791 50.5586 109.72 50.5117C109.65 50.4647 109.568 50.4356 109.484 50.4267C109.346 50.4267 109.198 50.4531 109.151 50.7598L109.103 51.0664L108.871 50.8602C108.695 50.7023 108.467 50.6172 108.231 50.6223C108.134 50.643 108.043 50.685 107.964 50.7454C107.885 50.8057 107.821 50.8829 107.776 50.9712L107.665 51.1457L107.517 51.0083C107.328 50.8309 107.078 50.7342 106.819 50.7386C106.712 50.7631 106.611 50.8121 106.526 50.8818C106.441 50.9515 106.373 51.04 106.327 51.1404L106.164 51.4206L105.106 49.3428C105.078 49.2759 105.037 49.2154 104.985 49.1652C104.932 49.1149 104.87 49.0759 104.803 49.0506C104.735 49.0254 104.662 49.0143 104.59 49.0182C104.517 49.0221 104.447 49.0408 104.382 49.0732C104.312 49.1009 104.25 49.143 104.198 49.1968C104.146 49.2506 104.106 49.3148 104.08 49.3851C104.052 49.4538 104.037 49.5274 104.037 49.6019C104.037 49.6763 104.052 49.75 104.08 49.8186L106.936 55.7455L105.233 54.1594C105.194 54.1218 105.147 54.0926 105.096 54.0735C105.045 54.0544 104.991 54.0459 104.937 54.0483L104.948 54.0272Z" fill="#263238"/>
<path d="M106.93 53.0649C106.897 53.0651 106.864 53.0557 106.836 53.0379C106.808 53.0201 106.786 52.9946 106.772 52.9645L105.994 51.1351C105.981 51.1145 105.973 51.0912 105.969 51.0669C105.966 51.0426 105.968 51.0178 105.975 50.9944C105.982 50.9709 105.995 50.9493 106.011 50.931C106.027 50.9128 106.047 50.8983 106.07 50.8886C106.092 50.8789 106.117 50.8742 106.141 50.8748C106.166 50.8755 106.19 50.8814 106.212 50.8923C106.234 50.9032 106.253 50.9187 106.269 50.9378C106.284 50.9569 106.295 50.9792 106.301 51.003L107.078 52.8323C107.087 52.8528 107.092 52.8748 107.092 52.897C107.092 52.9193 107.088 52.9414 107.079 52.962C107.071 52.9826 107.059 53.0014 107.043 53.0172C107.027 53.0331 107.009 53.0457 106.988 53.0544C106.97 53.0622 106.95 53.0659 106.93 53.0649Z" fill="#263238"/>
<path d="M108.284 52.679C108.25 52.6787 108.217 52.6685 108.189 52.6497C108.161 52.6309 108.138 52.6044 108.125 52.5733L107.448 50.9871C107.44 50.9667 107.435 50.9447 107.435 50.9224C107.435 50.9002 107.439 50.8781 107.447 50.8575C107.456 50.8368 107.468 50.8181 107.484 50.8022C107.499 50.7863 107.518 50.7737 107.538 50.7651C107.559 50.7564 107.581 50.7518 107.603 50.7516C107.625 50.7514 107.647 50.7556 107.668 50.7639C107.689 50.7723 107.707 50.7846 107.723 50.8002C107.739 50.8159 107.752 50.8345 107.76 50.855L108.437 52.4411C108.446 52.4616 108.45 52.4836 108.451 52.5058C108.451 52.5281 108.447 52.5501 108.438 52.5708C108.43 52.5914 108.417 52.6102 108.402 52.626C108.386 52.6419 108.368 52.6545 108.347 52.6631C108.328 52.6733 108.306 52.6787 108.284 52.679Z" fill="#263238"/>
<path d="M109.611 52.3142C109.579 52.3144 109.548 52.3056 109.52 52.2888C109.493 52.2719 109.471 52.2478 109.457 52.219L108.807 50.8127C108.797 50.7929 108.792 50.7715 108.79 50.7495C108.789 50.7275 108.792 50.7055 108.8 50.6848C108.807 50.6641 108.819 50.6451 108.833 50.6289C108.848 50.6127 108.866 50.5997 108.886 50.5906C108.927 50.5734 108.973 50.5719 109.015 50.5866C109.057 50.6012 109.092 50.6309 109.114 50.6699L109.764 52.0763C109.782 52.117 109.783 52.1631 109.767 52.2047C109.752 52.2462 109.72 52.2799 109.68 52.2983C109.658 52.3086 109.635 52.314 109.611 52.3142Z" fill="#263238"/>
<path d="M95.9078 29.3466L94.0834 31.171L95.9078 32.9954L97.7322 31.171L95.9078 29.3466Z" stroke="#263238" stroke-linecap="round" stroke-linejoin="round"/>
<path d="M80.1721 46.0225C80.169 45.7555 80.0869 45.4953 79.9363 45.2749C79.7857 45.0544 79.5733 44.8834 79.3257 44.7833C79.0781 44.6833 78.8065 44.6588 78.545 44.7128C78.2835 44.7668 78.0438 44.8969 77.8561 45.0868C77.6684 45.2767 77.541 45.5179 77.4901 45.78C77.4391 46.0421 77.4668 46.3135 77.5697 46.5599C77.6726 46.8063 77.8461 47.0167 78.0683 47.1648C78.2905 47.3128 78.5516 47.3918 78.8186 47.3918C78.9977 47.3918 79.175 47.3563 79.3403 47.2873C79.5055 47.2183 79.6554 47.1172 79.7813 46.9898C79.9072 46.8624 80.0066 46.7113 80.0737 46.5453C80.1408 46.3792 80.1742 46.2015 80.1721 46.0225V46.0225Z" stroke="#263238" stroke-linecap="round" stroke-linejoin="round"/>
<path d="M255.266 1.00003L250.032 6.23401L255.266 11.468L260.5 6.23401L255.266 1.00003Z" fill="#9736AF" stroke="#263238" stroke-linecap="round" stroke-linejoin="round"/>
<path d="M86.734 117L81.5 122.234L86.734 127.468L91.968 122.234L86.734 117Z" fill="#9736AF" stroke="#263238" stroke-linecap="round" stroke-linejoin="round"/>
<path d="M60.7658 135.455L55.5318 140.689L60.7658 145.923L65.9998 140.689L60.7658 135.455Z" fill="#9736AF" stroke="#263238" stroke-linecap="round" stroke-linejoin="round"/>
<path d="M245.538 10.5961L242.682 13.4524L245.538 16.3086L248.395 13.4524L245.538 10.5961Z" stroke="#263238" stroke-linecap="round" stroke-linejoin="round"/>
<path d="M255.282 132.018C256.45 132.018 257.396 131.071 257.396 129.903C257.396 128.735 256.45 127.788 255.282 127.788C254.114 127.788 253.167 128.735 253.167 129.903C253.167 131.071 254.114 132.018 255.282 132.018Z" stroke="#263238" stroke-linecap="round" stroke-linejoin="round"/>
<path d="M79.8179 113.687C80.9859 113.687 81.9327 112.74 81.9327 111.572C81.9327 110.404 80.9859 109.457 79.8179 109.457C78.6499 109.457 77.703 110.404 77.703 111.572C77.703 112.74 78.6499 113.687 79.8179 113.687Z" stroke="#263238" stroke-linecap="round" stroke-linejoin="round"/>
<path d="M173.125 13.4591C174.293 13.4591 175.24 12.5122 175.24 11.3442C175.24 10.1762 174.293 9.22937 173.125 9.22937C171.957 9.22937 171.01 10.1762 171.01 11.3442C171.01 12.5122 171.957 13.4591 173.125 13.4591Z" stroke="#263238" stroke-linecap="round" stroke-linejoin="round"/>
<path d="M230.379 183.583L230.548 183.752H230.945C230.751 183.715 230.561 183.659 230.379 183.583Z" fill="#263238" stroke="#263238" stroke-linecap="round" stroke-linejoin="round"/>
</svg>
