<svg width="261" height="216" viewBox="0 0 261 216" fill="none" xmlns="http://www.w3.org/2000/svg">
<path d="M145.086 162.408C146.275 162.929 149.173 162.861 149.173 162.861C149.173 162.861 148.553 160.963 148.496 160.843C147.86 159.514 145.847 157.319 144.21 157.538C143.939 157.583 143.681 157.684 143.453 157.835C143.224 157.986 143.029 158.184 142.882 158.415C142.734 158.646 142.637 158.905 142.596 159.176C142.556 159.447 142.573 159.724 142.646 159.988C142.896 161.135 144.043 161.975 145.086 162.408Z" fill="#00DC9A"/>
<path d="M146.066 170.818C147.297 170.995 149.888 170.244 150.091 170.187C150.516 171.667 151.038 173.118 151.655 174.53C152.01 175.354 152.396 176.172 152.792 176.991C152.557 176.641 152.344 176.334 152.307 176.297C151.342 175.182 148.819 173.591 147.302 174.238C147.054 174.353 146.833 174.518 146.653 174.724C146.473 174.929 146.338 175.17 146.257 175.431C146.176 175.692 146.151 175.967 146.183 176.238C146.214 176.51 146.302 176.771 146.441 177.006C146.999 178.049 148.345 178.534 149.434 178.69C150.524 178.847 152.761 178.258 153.35 178.091C153.501 178.404 153.652 178.717 153.809 179.029C154.559 180.521 155.315 182.006 156.009 183.487C156.254 184.009 156.478 184.53 156.702 185.051C156.494 184.744 156.311 184.488 156.28 184.452C155.315 183.336 152.792 181.746 151.275 182.392C151.025 182.507 150.802 182.672 150.621 182.878C150.439 183.084 150.303 183.327 150.222 183.589C150.14 183.851 150.115 184.127 150.147 184.4C150.179 184.673 150.269 184.935 150.409 185.171C150.967 186.214 152.312 186.699 153.402 186.855C154.492 187.012 156.53 186.48 157.208 186.287C157.422 186.808 157.641 187.372 157.823 187.903C157.938 188.274 158.074 188.618 158.173 188.993C158.272 189.368 158.376 189.733 158.48 190.093C158.647 190.797 158.83 191.527 158.976 192.22C159.08 192.7 159.174 193.159 159.268 193.623C159.033 193.102 158.543 192.09 158.491 192.012C157.709 190.761 155.456 188.811 153.856 189.217C153.593 189.293 153.349 189.423 153.14 189.599C152.93 189.775 152.76 189.992 152.64 190.238C152.519 190.483 152.452 190.751 152.441 191.025C152.431 191.298 152.477 191.57 152.578 191.824C152.98 192.919 154.231 193.623 155.284 193.941C156.447 194.296 159.012 193.972 159.335 193.941C159.487 194.707 159.633 195.458 159.752 196.167C160.029 197.732 160.237 199.129 160.394 200.338H161.478C161.291 199.113 161.045 197.653 160.717 196.011C160.566 195.229 160.383 194.4 160.196 193.55C160.969 193.245 161.724 192.897 162.458 192.507C163.303 193.425 165.467 194.494 165.748 194.634C165.456 195.359 165.159 196.058 164.872 196.72C164.273 198.096 163.705 199.327 163.204 200.37H164.377C164.81 199.41 165.284 198.321 165.78 197.111C166.082 196.376 166.39 195.583 166.703 194.765C167.01 194.833 169.555 195.349 170.738 195.083C171.812 194.838 173.116 194.228 173.595 193.169C173.718 192.923 173.787 192.654 173.798 192.379C173.809 192.105 173.762 191.831 173.66 191.575C173.558 191.32 173.404 191.089 173.207 190.897C173.01 190.706 172.774 190.558 172.516 190.463C170.952 189.942 168.564 191.72 167.688 192.903C167.636 192.976 167.167 193.795 166.864 194.322C166.989 193.988 167.114 193.665 167.24 193.321C167.49 192.638 167.719 191.949 167.97 191.235C168.079 190.87 168.183 190.505 168.298 190.14C168.413 189.775 168.491 189.379 168.59 188.993C168.804 188.101 168.976 187.184 169.111 186.256C169.711 186.475 171.843 187.215 172.944 187.137C174.044 187.059 175.425 186.657 176.072 185.677C176.229 185.452 176.337 185.197 176.389 184.928C176.441 184.659 176.436 184.382 176.374 184.115C176.312 183.848 176.194 183.597 176.029 183.379C175.864 183.16 175.655 182.978 175.415 182.846C173.945 182.085 171.312 183.482 170.269 184.525C170.201 184.587 169.534 185.422 169.179 185.886C169.268 185.328 169.356 184.77 169.424 184.202C169.628 182.564 169.784 180.901 169.946 179.238L170.102 177.715C170.316 177.799 172.829 178.732 174.07 178.649C175.165 178.571 176.546 178.164 177.198 177.189C177.355 176.964 177.463 176.708 177.515 176.439C177.567 176.169 177.562 175.892 177.5 175.625C177.438 175.357 177.321 175.106 177.156 174.887C176.99 174.668 176.781 174.486 176.541 174.353C175.071 173.597 172.438 174.994 171.395 176.031C171.317 176.11 170.352 177.309 170.128 177.627C170.248 176.511 170.373 175.395 170.545 174.306C170.769 172.834 171.088 171.378 171.499 169.947C171.598 169.983 174.216 170.99 175.483 170.88C176.583 170.802 177.964 170.4 178.611 169.425C178.768 169.2 178.876 168.945 178.928 168.675C178.98 168.406 178.975 168.129 178.913 167.861C178.851 167.594 178.734 167.342 178.569 167.123C178.403 166.904 178.194 166.722 177.954 166.589C176.484 165.833 173.851 167.225 172.803 168.268C172.725 168.351 171.692 169.639 171.525 169.884C171.525 169.801 171.562 169.712 171.588 169.634C172.039 168.208 172.619 166.826 173.319 165.505C173.694 164.769 174.096 164.086 174.497 163.419C174.967 163.654 177.104 164.702 178.272 164.749C179.44 164.796 180.79 164.54 181.531 163.638C181.712 163.432 181.847 163.19 181.929 162.928C182.01 162.666 182.035 162.39 182.003 162.117C181.97 161.845 181.881 161.582 181.74 161.346C181.6 161.111 181.411 160.907 181.187 160.75C179.81 159.837 177.042 160.937 175.889 161.855C175.827 161.902 175.243 162.486 174.847 162.898C175.034 162.6 175.222 162.298 175.405 162.022C176.098 160.979 176.791 160.067 177.417 159.269C177.777 158.815 178.11 158.414 178.423 158.038C179.002 158.038 181.343 157.96 182.365 157.48C183.387 157.001 184.503 156.135 184.743 154.993C184.809 154.727 184.818 154.45 184.77 154.18C184.722 153.911 184.618 153.654 184.464 153.427C184.31 153.2 184.109 153.008 183.876 152.864C183.643 152.72 183.382 152.626 183.111 152.59C181.468 152.413 179.513 154.675 178.913 156.01C178.861 156.125 178.262 158.044 178.293 158.038H178.324C178.017 158.393 177.683 158.773 177.334 159.201C176.692 159.988 175.973 160.885 175.248 161.917C174.464 163.019 173.743 164.164 173.09 165.348C172.356 166.673 171.74 168.06 171.249 169.493C171.251 169.511 171.251 169.528 171.249 169.545C171.249 169.06 171.249 167.705 171.223 167.606C171.035 166.141 169.81 163.435 168.183 163.122C167.912 163.081 167.636 163.097 167.371 163.169C167.107 163.242 166.861 163.369 166.648 163.542C166.436 163.715 166.263 163.931 166.139 164.176C166.015 164.421 165.945 164.689 165.931 164.962C165.832 166.125 166.676 167.288 167.495 168.023C168.423 168.852 170.994 169.655 171.197 169.717C170.734 171.187 170.372 172.687 170.112 174.207C169.956 175.088 169.82 175.984 169.701 176.881C169.701 176.464 169.701 176.089 169.701 176.037C169.513 174.577 168.288 171.866 166.661 171.558C166.389 171.515 166.112 171.53 165.847 171.602C165.581 171.673 165.334 171.8 165.121 171.974C164.908 172.147 164.734 172.364 164.61 172.61C164.487 172.855 164.416 173.124 164.403 173.398C164.309 174.561 165.154 175.724 165.967 176.459C166.781 177.194 168.981 177.929 169.565 178.117C169.518 178.461 169.471 178.805 169.435 179.16C169.236 180.818 169.044 182.476 168.809 184.092C168.726 184.66 168.621 185.223 168.522 185.781C168.522 185.406 168.522 185.093 168.522 185.046C168.329 183.586 167.104 180.875 165.482 180.567C165.211 180.525 164.934 180.541 164.669 180.613C164.404 180.685 164.157 180.812 163.944 180.985C163.731 181.159 163.557 181.375 163.433 181.62C163.31 181.865 163.238 182.134 163.225 182.408C163.131 183.571 163.97 184.733 164.789 185.469C165.608 186.204 167.589 186.866 168.277 187.09C168.157 187.658 168.037 188.232 167.897 188.779C167.792 189.149 167.714 189.514 167.589 189.879C167.464 190.244 167.354 190.609 167.234 190.964C166.989 191.647 166.713 192.356 166.478 193.013C166.301 193.472 166.124 193.91 165.957 194.348C166.046 193.779 166.197 192.669 166.202 192.575C166.174 191.274 165.815 190.002 165.159 188.878C165.162 188.733 165.151 188.589 165.128 188.446C165.094 188.173 165.004 187.911 164.862 187.676C164.72 187.441 164.53 187.239 164.305 187.083C164.079 186.926 163.824 186.819 163.554 186.768C163.284 186.717 163.007 186.724 162.74 186.788C161.145 187.215 160.133 190.015 160.055 191.48C160.055 191.564 160.107 192.523 160.154 193.112C160.071 192.763 159.998 192.429 159.909 192.069C159.742 191.365 159.554 190.667 159.356 189.911C159.245 189.563 159.135 189.198 159.028 188.816C158.923 188.451 158.767 188.075 158.642 187.7C158.324 186.84 157.964 185.979 157.599 185.119C158.22 184.973 160.404 184.415 161.28 183.743C162.156 183.07 163.084 181.97 163.074 180.807C163.081 180.533 163.031 180.26 162.926 180.006C162.821 179.753 162.664 179.524 162.464 179.335C162.265 179.146 162.029 179.002 161.77 178.91C161.511 178.819 161.236 178.783 160.962 178.805C159.32 178.982 157.896 181.6 157.599 183.044C157.599 183.133 157.484 184.196 157.437 184.78C157.203 184.259 156.973 183.737 156.718 183.216C155.983 181.741 155.196 180.265 154.413 178.795C154.174 178.341 153.944 177.888 153.71 177.439C153.929 177.387 156.541 176.782 157.526 176.026C158.397 175.354 159.325 174.259 159.32 173.091C159.327 172.819 159.277 172.548 159.174 172.297C159.07 172.045 158.916 171.817 158.719 171.629C158.523 171.441 158.289 171.295 158.034 171.202C157.778 171.109 157.506 171.07 157.234 171.089C155.592 171.266 154.163 173.883 153.866 175.328C153.866 175.437 153.704 176.965 153.689 177.356C153.167 176.36 152.646 175.359 152.208 174.358C151.58 173.004 151.042 171.611 150.597 170.187C150.696 170.187 153.428 169.545 154.434 168.768C155.31 168.101 156.238 167.001 156.228 165.838C156.235 165.566 156.185 165.296 156.082 165.044C155.979 164.792 155.824 164.565 155.627 164.377C155.431 164.188 155.198 164.043 154.942 163.95C154.686 163.857 154.414 163.818 154.142 163.836C152.5 164.013 151.077 166.631 150.779 168.075C150.779 168.19 150.607 169.832 150.602 170.129C150.602 170.046 150.54 169.962 150.513 169.884C150.107 168.445 149.828 166.972 149.679 165.484C149.585 164.665 149.544 163.873 149.523 163.106C150.044 163.044 152.417 162.726 153.402 162.131C154.387 161.537 155.388 160.567 155.488 159.41C155.526 159.138 155.506 158.861 155.43 158.597C155.354 158.333 155.223 158.089 155.046 157.879C154.869 157.669 154.649 157.5 154.402 157.381C154.155 157.262 153.885 157.196 153.611 157.188C151.958 157.188 150.253 159.629 149.799 161.031C149.799 161.109 149.611 161.912 149.497 162.501C149.497 162.152 149.497 161.798 149.497 161.459C149.497 160.207 149.575 159.065 149.653 158.049C149.705 157.475 149.763 156.954 149.82 156.485C150.295 156.156 152.208 154.811 152.797 153.846C153.386 152.882 153.84 151.547 153.407 150.463C153.316 150.204 153.171 149.967 152.982 149.768C152.792 149.569 152.563 149.412 152.309 149.308C152.055 149.203 151.782 149.154 151.508 149.162C151.233 149.171 150.964 149.237 150.717 149.357C149.252 150.113 148.866 153.07 149.106 154.524C149.106 154.649 149.684 156.578 149.705 156.563H149.737C149.674 157.027 149.606 157.527 149.549 158.075C149.45 159.092 149.346 160.233 149.314 161.49C149.269 162.841 149.302 164.194 149.413 165.541C149.528 167.052 149.78 168.549 150.164 170.015V170.062C149.903 169.655 149.121 168.539 149.069 168.461C148.105 167.345 145.581 165.755 144.064 166.401C143.814 166.516 143.591 166.681 143.41 166.887C143.229 167.094 143.093 167.336 143.011 167.598C142.929 167.86 142.904 168.136 142.936 168.409C142.968 168.682 143.058 168.945 143.198 169.18C143.631 170.155 144.976 170.661 146.066 170.818Z" fill="#00DC9A"/>
<path d="M174.398 163.054C174.398 163.054 174.92 161.13 174.92 161C175.123 159.54 174.659 156.599 173.168 155.88C172.918 155.767 172.646 155.708 172.372 155.707C172.097 155.706 171.826 155.763 171.574 155.874C171.323 155.985 171.099 156.148 170.915 156.352C170.731 156.556 170.593 156.797 170.509 157.058C170.112 158.153 170.618 159.498 171.213 160.421C171.942 161.511 174.398 163.054 174.398 163.054Z" fill="#00DC9A"/>
<path d="M231.843 48.1975C243.771 45.4349 251.201 33.5258 248.439 21.5977C245.676 9.66968 233.767 2.23958 221.839 5.00217C209.911 7.76475 202.481 19.6739 205.243 31.602C208.006 43.53 219.915 50.9601 231.843 48.1975Z" stroke="#263238" stroke-miterlimit="10"/>
<path d="M231.488 46.6088C242.545 44.0438 249.43 33.0005 246.865 21.943C244.3 10.8854 233.257 4.00089 222.199 6.56593C211.141 9.13096 204.257 20.1742 206.822 31.2318C209.387 42.2893 220.43 49.1739 231.488 46.6088Z" stroke="#263238" stroke-miterlimit="10"/>
<path d="M226.844 27.749C227.481 27.749 227.997 27.2331 227.997 26.5967C227.997 25.9603 227.481 25.4445 226.844 25.4445C226.208 25.4445 225.692 25.9603 225.692 26.5967C225.692 27.2331 226.208 27.749 226.844 27.749Z" fill="#263238"/>
<path d="M216.448 26.5966H226.844V13.8956" stroke="#263238" stroke-linecap="round" stroke-linejoin="round"/>
<path d="M5.76604 193.936C5.76604 193.936 9.93714 172.794 9.93714 171.12C9.78918 165.983 9.23125 160.866 8.26869 155.817C6.87659 148.304 2.70028 129.665 1.58973 126.62C0.479174 123.575 4.65027 117.996 5.76082 111.593C6.87138 105.191 9.37925 99.08 12.7213 95.18C16.0634 91.2801 28.024 82.6667 28.024 82.6667H34.1451C34.1451 82.6667 31.9188 119.393 34.9793 124.962C38.0399 130.53 43.6031 142.209 44.161 147.22C44.7188 152.23 41.3768 160.572 41.9346 165.307C42.4925 170.041 37.7635 177.82 36.6478 181.167C35.532 184.514 36.116 195.052 36.116 195.052" fill="#FFCEC7"/>
<path d="M5.76604 193.936C5.76604 193.936 9.93714 172.794 9.93714 171.12C9.78917 165.983 9.23125 160.866 8.26869 155.817C6.87659 148.304 2.70028 129.665 1.58973 126.62C0.479174 123.575 4.65027 117.996 5.76082 111.593C6.87138 105.191 9.37925 99.08 12.7213 95.18C16.0634 91.2801 28.024 82.6667 28.024 82.6667H34.1451C34.1451 82.6667 31.9188 119.393 34.9793 124.962C38.0399 130.53 43.6031 142.209 44.161 147.22C44.7188 152.23 41.3768 160.572 41.9346 165.307C42.4925 170.041 37.7635 177.82 36.6478 181.167C35.532 184.514 36.116 195.052 36.116 195.052" stroke="#263238" stroke-linecap="round" stroke-linejoin="round"/>
<path d="M27.4713 92.938L23.0187 98.1101C23.0187 98.1101 21.9081 104.064 21.3503 106.849C20.9938 108.579 20.4338 110.261 19.6818 111.859C19.6818 111.859 21.6266 116.307 22.7424 117.98C23.4281 119.023 23.9881 120.143 24.4108 121.317L27.4713 123.267V92.938Z" fill="#263238" stroke="#263238" stroke-linecap="round" stroke-linejoin="round"/>
<path d="M12.1008 112.558C13.5928 112.36 15.0955 112.254 16.6004 112.24" stroke="#263238" stroke-linecap="round" stroke-linejoin="round"/>
<path d="M19.8122 95.8578C19.8122 95.8578 23.0187 96.8224 23.0187 98.1102" stroke="#263238" stroke-linecap="round" stroke-linejoin="round"/>
<path d="M0.5 197.544C0.5 197.544 1.8921 184.337 1.8921 182.945V178.774C1.8921 177.382 3.2842 176.339 3.2842 176.339C3.2842 176.339 16.8403 173.56 30.3963 178.08C43.9524 182.601 40.8241 189.895 40.8241 189.895L40.1254 200.323" fill="#407BFF"/>
<path d="M0.5 197.544C0.5 197.544 1.8921 184.337 1.8921 182.945V178.774C1.8921 177.382 3.2842 176.339 3.2842 176.339C3.2842 176.339 16.8403 173.56 30.3963 178.08C43.9524 182.601 40.8241 189.895 40.8241 189.895L40.1254 200.323" stroke="#263238" stroke-linecap="round" stroke-linejoin="round"/>
<path d="M193.033 41.1851H31.0793C28.3178 41.1851 26.0792 43.4237 26.0792 46.1852V142.475C26.0792 145.236 28.3178 147.475 31.0793 147.475H193.033C195.794 147.475 198.033 145.236 198.033 142.475V46.1852C198.033 43.4237 195.794 41.1851 193.033 41.1851Z" fill="#263238" stroke="#263238" stroke-linecap="round" stroke-linejoin="round"/>
<path d="M187.021 47.0298H37.0857C34.3243 47.0298 32.0856 49.2684 32.0856 52.0299V136.63C32.0856 139.392 34.3243 141.63 37.0857 141.63H187.021C189.782 141.63 192.021 139.392 192.021 136.63V52.0299C192.021 49.2684 189.782 47.0298 187.021 47.0298Z" fill="white" stroke="#263238" stroke-linecap="round" stroke-linejoin="round"/>
<path d="M180.206 50.8621H137.51V78.188H180.206V50.8621Z" fill="white" stroke="#263238" stroke-linecap="round" stroke-linejoin="round"/>
<path d="M180.206 75.1429H137.51V78.1878H180.206V75.1429Z" fill="#263238" stroke="#263238" stroke-linecap="round" stroke-linejoin="round"/>
<path d="M180.206 76.2223H137.51V77.1086H180.206V76.2223Z" fill="white" stroke="#263238" stroke-linecap="round" stroke-linejoin="round"/>
<path d="M158.651 70.6511C162.112 70.3593 164.68 67.3175 164.388 63.8571C164.097 60.3966 161.055 57.8279 157.594 58.1197C154.134 58.4115 151.565 61.4533 151.857 64.9138C152.149 68.3742 155.191 70.9429 158.651 70.6511Z" fill="#0169EE"/>
<path d="M161.76 64.5276L156.29 61.3732V67.6872L161.76 64.5276Z" fill="white"/>
<path d="M180.206 81.139H137.51V108.465H180.206V81.139Z" fill="white" stroke="#263238" stroke-linecap="round" stroke-linejoin="round"/>
<path d="M180.206 105.42H137.51V108.465H180.206V105.42Z" fill="#263238" stroke="#263238" stroke-linecap="round" stroke-linejoin="round"/>
<path d="M180.206 106.499H137.51V107.386H180.206V106.499Z" fill="white" stroke="#263238" stroke-linecap="round" stroke-linejoin="round"/>
<path d="M158.65 100.925C162.111 100.634 164.679 97.5918 164.388 94.1314C164.096 90.6709 161.054 88.1022 157.594 88.394C154.133 88.6858 151.564 91.7276 151.856 95.1881C152.148 98.6485 155.19 101.217 158.65 100.925Z" fill="#0169EE"/>
<path d="M161.76 94.8045L156.29 91.6449V97.9641L161.76 94.8045Z" fill="white"/>
<path d="M180.206 111.416H137.51V138.742H180.206V111.416Z" fill="white" stroke="#263238" stroke-linecap="round" stroke-linejoin="round"/>
<path d="M180.206 135.697H137.51V138.742H180.206V135.697Z" fill="#263238" stroke="#263238" stroke-linecap="round" stroke-linejoin="round"/>
<path d="M180.206 136.771H137.51V137.657H180.206V136.771Z" fill="white" stroke="#263238" stroke-linecap="round" stroke-linejoin="round"/>
<path d="M164.354 125.732C164.79 122.287 162.35 119.141 158.905 118.705C155.46 118.269 152.313 120.709 151.878 124.154C151.442 127.599 153.881 130.746 157.327 131.182C160.772 131.617 163.918 129.178 164.354 125.732Z" fill="#0169EE"/>
<path d="M161.76 125.081L156.29 121.922V128.236L161.76 125.081Z" fill="white"/>
<path d="M122.958 59.9707H50.2455C48.5753 59.9707 47.2214 61.3246 47.2214 62.9947V136.995C47.2214 138.665 48.5753 140.019 50.2455 140.019H122.958C124.628 140.019 125.982 138.665 125.982 136.995V62.9947C125.982 61.3246 124.628 59.9707 122.958 59.9707Z" fill="#D6B556"/>
<path d="M18.5765 132.198C18.5765 132.198 23.6027 121.317 24.124 117.146C24.6454 112.975 23.6027 103.23 24.9687 99.3198C26.3347 95.4094 25.5214 90.4145 28.8634 88.4697C32.2055 86.5249 36.653 87.0776 37.4872 94.8671C38.3214 102.657 37.4872 114.904 37.7635 119.075C38.0399 123.246 45.2767 129.373 45.5582 138.273C45.8398 147.173 42.7741 156.359 41.9398 160.254C41.1056 164.149 37.7687 173.331 37.7687 173.331" fill="#FFCEC7"/>
<path d="M18.5765 132.198C18.5765 132.198 23.6027 121.317 24.124 117.146C24.6454 112.975 23.6027 103.23 24.9687 99.3198C26.3347 95.4094 25.5214 90.4145 28.8634 88.4697C32.2055 86.5249 36.653 87.0776 37.4872 94.8671C38.3214 102.657 37.4872 114.904 37.7635 119.075C38.0399 123.246 45.2767 129.373 45.5582 138.273C45.8398 147.173 42.7741 156.359 41.9398 160.254C41.1056 164.149 37.7687 173.331 37.7687 173.331" stroke="#263238" stroke-linecap="round" stroke-linejoin="round"/>
<path d="M26.3451 97.4845C27.9918 97.0864 29.7057 97.0543 31.3661 97.3907C32.8703 97.6757 34.3569 98.0465 35.8187 98.5012C35.9794 96.6503 35.9794 94.789 35.8187 92.938C35.8187 92.938 36.1889 89.7576 34.2546 88.475C32.3202 87.1924 28.4724 87.5104 27.1898 90.3989C25.9072 93.2874 26.3451 97.4845 26.3451 97.4845Z" stroke="#263238" stroke-linecap="round" stroke-linejoin="round"/>
<path d="M33.2953 102.604C33.2953 102.604 26.877 100.675 25.2711 103.246" stroke="#263238" stroke-linecap="round" stroke-linejoin="round"/>
<path d="M26.877 104.21C26.877 104.21 28.8009 104.852 32.9772 104.528" stroke="#263238" stroke-linecap="round" stroke-linejoin="round"/>
<path d="M194.414 57.3219C194.414 57.3219 187.183 59.5482 187.735 61.493C188.288 63.4378 201.651 80.1378 203.898 79.5799C206.145 79.022 208.632 71.7904 208.632 66.7799C208.632 61.7693 194.414 57.3219 194.414 57.3219Z" fill="#263238" stroke="#263238" stroke-linecap="round" stroke-linejoin="round"/>
<path d="M253.534 106.473L246.725 98.2248C246.725 98.2248 237.82 77.3693 235.317 73.1982C232.814 69.0271 227.246 57.0352 225.301 56.5138C223.356 55.9924 220.567 55.6796 219.733 55.1217C218.899 54.5638 215.562 53.4533 211.109 53.1769C206.656 52.9006 197.475 50.9245 193.575 49.7879C189.675 48.6513 189.404 49.7879 184.669 51.4564C179.935 53.1248 165.748 58.1353 164.638 58.9695C163.527 59.8038 164.914 62.3116 168.533 63.6985C172.151 65.0854 173.819 63.9801 177.991 63.4222C182.162 62.8643 188.569 61.7798 189.404 61.7798C190.238 61.7798 196.364 62.614 197.475 63.1719C198.585 63.7298 201.37 68.1772 201.37 70.4035C201.331 71.9938 201.144 73.577 200.812 75.1325L200.702 94.4551C200.702 94.4551 209.508 104.393 215.609 107.782C221.709 111.171 224.644 111.4 224.644 111.4L234.133 120.206" fill="#FFCEC7"/>
<path d="M253.534 106.473L246.725 98.2248C246.725 98.2248 237.82 77.3693 235.317 73.1982C232.814 69.0271 227.246 57.0352 225.301 56.5138C223.356 55.9924 220.567 55.6796 219.733 55.1217C218.899 54.5638 215.562 53.4533 211.109 53.1769C206.656 52.9006 197.475 50.9245 193.575 49.7879C189.675 48.6513 189.404 49.7879 184.669 51.4564C179.935 53.1248 165.748 58.1353 164.638 58.9695C163.527 59.8038 164.914 62.3116 168.533 63.6985C172.151 65.0854 173.819 63.9801 177.991 63.4222C182.162 62.8643 188.569 61.7798 189.404 61.7798C190.238 61.7798 196.364 62.614 197.475 63.1719C198.585 63.7298 201.37 68.1772 201.37 70.4035C201.331 71.9938 201.144 73.577 200.812 75.1325L200.702 94.4551C200.702 94.4551 209.508 104.393 215.609 107.782C221.709 111.171 224.644 111.4 224.644 111.4L234.133 120.206" stroke="#263238" stroke-linecap="round" stroke-linejoin="round"/>
<path d="M219.733 55.0957C221.54 56.9841 223.042 59.1424 224.185 61.4931L219.733 55.0957Z" fill="white"/>
<path d="M219.733 55.0957C221.54 56.9841 223.042 59.1424 224.185 61.4931" stroke="#263238" stroke-linecap="round" stroke-linejoin="round"/>
<path d="M245.901 137.934L224.743 114.085C224.743 114.085 215.004 109.914 208.606 105.743C202.209 101.572 194.414 88.2141 192.443 85.1536C190.473 82.093 186.322 75.9667 182.985 73.7456C179.649 71.5245 173.548 64.5588 172.156 61.7798C170.764 59.0008 173.267 55.3772 176.327 55.1008C179.388 54.8245 192.188 60.9456 194.414 64.2825C196.641 67.6193 203.038 74.5799 203.038 74.5799" fill="#FFCEC7"/>
<path d="M245.901 137.934L224.743 114.085C224.743 114.085 215.004 109.914 208.606 105.743C202.209 101.572 194.414 88.2141 192.443 85.1536C190.473 82.093 186.322 75.9667 182.985 73.7456C179.649 71.5245 173.548 64.5588 172.156 61.7798C170.764 59.0008 173.267 55.3772 176.327 55.1008C179.388 54.8245 192.188 60.9456 194.414 64.2825C196.641 67.6193 203.038 74.5799 203.038 74.5799" stroke="#263238" stroke-linecap="round" stroke-linejoin="round"/>
<path d="M187.459 64.8352C187.459 64.8352 184.122 68.1721 183.84 69.8405" stroke="#263238" stroke-linecap="round" stroke-linejoin="round"/>
<path d="M189.962 65.1116C189.962 65.1116 187.459 69.0063 185.79 70.3984" stroke="#263238" stroke-linecap="round" stroke-linejoin="round"/>
<path d="M184.675 59.5485C181.062 62.0511 178.554 66.7801 178.554 66.7801C178.554 66.7801 172.605 64.6164 172.156 61.7748C171.708 58.9333 172.605 56.0813 176.327 55.0958C180.05 54.1104 184.675 59.5485 184.675 59.5485Z" stroke="#263238" stroke-linecap="round" stroke-linejoin="round"/>
<path d="M253.201 154.618C252.158 152.877 228.867 125.593 227.825 122.115C226.782 118.637 230.953 110.644 237.559 103.345C241.047 99.4919 249.739 93.2092 254.608 98.3292C256.616 100.446 258.321 103.022 260.5 105.107" fill="#407BFF"/>
<path d="M253.201 154.618C252.158 152.877 228.867 125.593 227.825 122.115C226.782 118.637 230.953 110.644 237.559 103.345C241.047 99.4919 249.739 93.2092 254.608 98.3292C256.616 100.446 258.321 103.022 260.5 105.107" stroke="#263238" stroke-linecap="round" stroke-linejoin="round"/>
<path d="M106.31 141.51L107.259 126.64C107.55 127.837 107.924 129.011 108.38 130.155C108.86 131.114 118.605 126.64 118.605 126.64C118.605 126.64 116.05 109.382 114.434 103.178C112.817 96.9735 112.348 88.7981 110.919 88.3185C109.491 87.8388 91.4299 79.3715 90.9503 79.3715C90.4706 79.3715 80.7259 80.3308 80.7259 80.3308L64.907 89.9191L67.2741 141.536L106.31 141.51Z" fill="#407BFF" stroke="#263238" stroke-linecap="round" stroke-linejoin="round"/>
<path d="M93.7761 101.567C93.7761 102.088 93.7292 102.61 93.6875 103.105" stroke="#263238" stroke-linecap="round" stroke-linejoin="round"/>
<path d="M92.8168 87.8076C93.3753 91.6079 93.7044 95.4383 93.8022 99.2781" stroke="#263238" stroke-linecap="round" stroke-linejoin="round"/>
<path d="M105.455 100.248L105.502 97.7191" stroke="#263238" stroke-linecap="round" stroke-linejoin="round"/>
<path d="M104.981 125.697L105.424 102.13" stroke="#263238" stroke-linecap="round" stroke-linejoin="round"/>
<path d="M120.565 141.51L119.407 131.781L108.458 133.867L112.202 141.51H120.565Z" fill="#FFCEC7" stroke="#263238" stroke-linecap="round" stroke-linejoin="round"/>
<path d="M106.722 129.346C108.639 128.483 110.497 127.495 112.285 126.39C115.414 124.482 118.365 123.961 119.235 125.525C120.106 127.089 122.014 131.432 121.321 132.125C120.628 132.819 110.372 136.124 109.329 136.124C108.286 136.124 106.378 132.621 106.378 132.621C106.188 131.518 106.307 130.385 106.722 129.346Z" fill="#0169EE" stroke="#263238" stroke-linecap="round" stroke-linejoin="round"/>
<path d="M82.6549 75.6696C82.6549 75.6696 80.8509 77.1191 80.2617 78.068C79.6739 79.1745 79.2422 80.3571 78.9791 81.5821L85.851 91.1704L90.1681 84.4602L91.7635 83.5008L98.6354 88.1308C98.6354 88.1308 96.237 79.8251 93.6822 77.2703C91.1274 74.7155 84.0835 75.0335 82.6549 75.6696Z" fill="#0169EE" stroke="#263238" stroke-linecap="round" stroke-linejoin="round"/>
<path d="M91.117 42.4155C91.117 42.4155 94.7407 45.3092 95.1004 46.9412C95.4602 48.5731 94.4643 52.155 94.4643 52.155L89.6728 42.7961L91.117 42.4155Z" fill="#263238" stroke="#263238" stroke-linecap="round" stroke-linejoin="round"/>
<path d="M90.0065 41.0027C90.0065 41.0027 96.5551 55.2209 97.5145 60.0125C98.4738 64.804 97.9942 69.2827 96.2371 72.6352C94.48 75.9878 92.5613 75.5133 92.5613 75.5133V86.3738C92.5613 86.3738 84.0836 79.6635 83.6143 78.8658C83.1451 78.0681 82.3369 76.6291 82.3369 76.6291C82.3369 76.6291 81.3776 69.6008 78.3483 67.5152C78.3483 67.5152 74.3545 68.1565 73.3951 64.4807C72.4358 60.805 73.2335 59.5276 75.7935 59.2095C75.7935 59.2095 73.708 53.9383 73.2335 50.4242C72.759 46.91 78.6663 45.789 82.1805 43.5523C84.5735 42.1452 87.2439 41.2753 90.0065 41.0027Z" fill="#FFCEC7" stroke="#263238" stroke-linecap="round" stroke-linejoin="round"/>
<path d="M92.5613 75.5132L89.4747 74.314L92.3788 79.6895L92.5613 75.5132Z" fill="#263238" stroke="#263238" stroke-linecap="round" stroke-linejoin="round"/>
<path d="M75.4651 60.3304C75.4651 60.3304 73.3795 59.5327 71.1532 56.6807C68.9269 53.8287 68.2751 51.5659 71.3148 46.7744C74.3545 41.9828 85.215 37.4833 88.2547 37.9629C91.2944 38.4426 93.2079 42.28 89.5321 44.6732C87.0128 46.2212 84.2614 47.3549 81.3828 48.0309C81.3828 48.0309 83.1399 46.5919 81.2212 46.2738C79.3025 45.9558 75.4859 47.8693 75.7935 49.4699C76.1012 51.0706 78.51 50.5857 78.3483 53.1196C78.1867 55.6536 75.9499 58.3961 76.7477 59.3763C77.5454 60.3565 79.4641 61.1334 77.8686 61.613C76.2732 62.0927 75.4651 60.3304 75.4651 60.3304Z" fill="#263238" stroke="#263238" stroke-linecap="round" stroke-linejoin="round"/>
<path d="M86.6487 62.8904L84.2504 64.8091" stroke="#263238" stroke-linecap="round" stroke-linejoin="round"/>
<path d="M85.533 64.1677C85.533 64.1677 88.5674 67.0406 93.8386 64.6474" stroke="#263238" stroke-linecap="round" stroke-linejoin="round"/>
<path d="M86.6488 65.1272C87.0125 65.8011 87.5138 66.3912 88.12 66.8591C88.7263 67.3271 89.4241 67.6625 90.1682 67.8436C92.723 68.4797 91.4456 65.6069 91.4456 65.6069C91.4456 65.6069 87.9314 65.6069 86.6488 65.1272Z" fill="#263238" stroke="#263238" stroke-linecap="round" stroke-linejoin="round"/>
<path d="M83.901 55.5232C84.1513 56.2792 84.0783 56.9831 83.7446 57.0874C83.4109 57.1917 82.9364 56.6755 82.7018 55.9195C82.4672 55.1635 82.5245 54.4648 82.8582 54.3553C83.1919 54.2458 83.656 54.7464 83.901 55.5232Z" fill="#263238"/>
<path d="M92.212 53.1039C92.457 53.8547 92.3893 54.5586 92.0556 54.6681C91.7219 54.7776 91.2474 54.2562 91.0128 53.5054C90.7782 52.7546 90.8355 52.0455 91.1692 51.9412C91.5029 51.8369 91.9617 52.3479 92.212 53.1039Z" fill="#263238"/>
<path d="M86.0976 52.7277L79.5694 54.858C79.0113 55.0401 78.7065 55.6401 78.8886 56.1982L79.8228 59.0611C80.0049 59.6192 80.605 59.924 81.163 59.7418L87.6913 57.6116C88.2494 57.4295 88.5541 56.8295 88.372 56.2714L87.4378 53.4085C87.2557 52.8504 86.6557 52.5456 86.0976 52.7277Z" stroke="#263238" stroke-width="0.9993" stroke-linecap="round" stroke-linejoin="round"/>
<path d="M87.5716 51.9622L89.897 51.1906" stroke="#263238" stroke-linecap="round" stroke-linejoin="round"/>
<path d="M79.1721 55.3147L75.0062 59.4337" stroke="#263238" stroke-linecap="round" stroke-linejoin="round"/>
<path d="M97.8325 48.7712L94.7355 51.3834" stroke="#263238" stroke-linecap="round" stroke-linejoin="round"/>
<path d="M96.9178 48.6079L90.3935 50.7656C89.8358 50.9501 89.5332 51.5517 89.7176 52.1094L90.6639 54.9706C90.8483 55.5284 91.45 55.831 92.0077 55.6465L98.532 53.4888C99.0898 53.3043 99.3924 52.7027 99.2079 52.145L98.2617 49.2838C98.0772 48.7261 97.4756 48.4235 96.9178 48.6079Z" stroke="#263238" stroke-linecap="round" stroke-linejoin="round"/>
<path d="M80.4338 52.8224C80.4338 52.8224 82.3525 50.4293 85.2305 50.7369" stroke="#263238" stroke-width="2" stroke-linecap="round" stroke-linejoin="round"/>
<path d="M89.2087 49.4699C89.2087 49.4699 90.4861 48.1925 92.8584 48.8286" stroke="#263238" stroke-width="2" stroke-linecap="round" stroke-linejoin="round"/>
<path d="M89.6885 52.5044C89.6885 52.5044 94.48 61.7694 94.0003 62.4107C93.5207 63.0521 90.3506 62.4107 90.3506 62.4107" fill="#FFCEC7"/>
<path d="M89.6885 52.5044C89.6885 52.5044 94.48 61.7694 94.0003 62.4107C93.5207 63.0521 90.3506 62.4107 90.3506 62.4107" stroke="#263238" stroke-linecap="round" stroke-linejoin="round"/>
<path d="M66.8413 88.9336C66.8413 88.9336 64.1248 88.9336 63.3219 91.3268C62.519 93.7199 55.0162 121.046 55.8139 121.844C56.6116 122.641 66.6796 123.283 67.8058 122.965C68.932 122.646 73.7183 104.268 73.7183 104.268" fill="#407BFF"/>
<path d="M66.8413 88.9336C66.8413 88.9336 64.1248 88.9336 63.3219 91.3268C62.519 93.7199 55.0162 121.046 55.8139 121.844C56.6116 122.641 66.6796 123.283 67.8058 122.965C68.932 122.646 73.7183 104.268 73.7183 104.268" stroke="#263238" stroke-linecap="round" stroke-linejoin="round"/>
<path d="M70.8351 122.323C70.8351 122.323 71.4712 119.127 68.7496 117.85C66.0279 116.572 61.5596 116.734 58.8432 118.809C56.1268 120.884 55.6471 120.405 55.011 124.404C54.3749 128.403 57.0966 130.952 59.3229 131.432C61.5492 131.912 63.494 132.391 66.1948 129.675C68.8955 126.958 70.8351 122.323 70.8351 122.323Z" fill="#0169EE" stroke="#263238" stroke-linecap="round" stroke-linejoin="round"/>
<path d="M87.6655 105.498C87.6655 105.498 86.5445 129.946 82.389 139.055C82.389 139.055 86.3881 140.332 92.9367 139.691C99.4853 139.049 105.559 135.52 105.559 135.52C105.559 135.52 107.796 122.099 108.912 115.551C110.028 109.002 110.674 105.342 110.674 105.342C110.674 105.342 109.24 106.458 101.091 106.937C92.9419 107.417 87.6655 105.498 87.6655 105.498Z" fill="white" stroke="#263238" stroke-linecap="round" stroke-linejoin="round"/>
<path d="M77.2221 125.519C77.2221 125.519 67.957 119.784 66.6796 119.784C65.4022 119.784 61.5648 121.062 59.9694 124.737C58.3739 128.413 58.5356 130.311 60.6211 130.952C62.7067 131.594 76.122 132.871 77.7174 132.871C79.3128 132.871 83.1503 133.669 85.387 133.669C87.6238 133.669 93.5363 133.027 94.334 131.75C95.1317 130.473 88.5987 130.952 88.1034 130.791C87.6081 130.629 94.089 129.388 94.9753 129.195C95.8617 129.002 97.0609 127.756 95.2934 127.276C95.2934 127.276 98.3278 125.837 96.4143 124.56L87.4882 122.996L90.2515 122.417C90.2515 122.417 96.5082 124.086 96.4143 122.172C96.3778 121.369 91.2995 119.774 89.7041 119.774C88.1086 119.774 79.6361 125.509 79.6361 125.509L77.2221 125.519Z" fill="#FFCEC7" stroke="#263238" stroke-linecap="round" stroke-linejoin="round"/>
<path d="M95.2777 127.282L87.1284 126.641" stroke="#263238" stroke-linecap="round" stroke-linejoin="round"/>
<path d="M105.278 41.1851C107.306 43.671 110.029 45.4969 113.099 46.4303L106.811 57.5097L118.474 47.301H118.818C124.455 47.301 129.423 44.8661 132.348 41.1747L105.278 41.1851Z" fill="#263238" stroke="#263238" stroke-linecap="round" stroke-linejoin="round"/>
<path d="M118.579 18.7968C109.585 18.7968 102.296 24.9856 102.296 32.6135C102.296 38.5365 106.686 43.5626 112.859 45.5491L106.571 56.6286L118.234 46.425H118.579C127.572 46.425 134.861 40.2414 134.861 32.6083C134.861 24.9752 127.572 18.7968 118.579 18.7968Z" fill="#D6B556"/>
<path d="M112.822 32.9159C112.822 32.5581 112.716 32.2083 112.517 31.9108C112.319 31.6132 112.036 31.3813 111.705 31.2444C111.375 31.1075 111.011 31.0716 110.66 31.1415C110.309 31.2113 109.987 31.3836 109.734 31.6366C109.481 31.8896 109.308 32.212 109.239 32.5629C109.169 32.9139 109.205 33.2777 109.342 33.6083C109.479 33.9388 109.71 34.2214 110.008 34.4202C110.306 34.619 110.655 34.7251 111.013 34.7251C111.493 34.7251 111.953 34.5345 112.292 34.1952C112.632 33.8559 112.822 33.3957 112.822 32.9159Z" fill="#263238"/>
<path d="M120.878 32.9159C120.878 32.5581 120.772 32.2083 120.573 31.9108C120.374 31.6132 120.092 31.3813 119.761 31.2444C119.43 31.1075 119.067 31.0716 118.716 31.1415C118.365 31.2113 118.042 31.3836 117.789 31.6366C117.536 31.8896 117.364 32.212 117.294 32.5629C117.224 32.9139 117.26 33.2777 117.397 33.6083C117.534 33.9388 117.766 34.2214 118.063 34.4202C118.361 34.619 118.711 34.7251 119.069 34.7251C119.548 34.7251 120.009 34.5345 120.348 34.1952C120.687 33.8559 120.878 33.3957 120.878 32.9159Z" fill="#263238"/>
<path d="M127.129 34.7251C128.128 34.7251 128.938 33.9151 128.938 32.9159C128.938 31.9167 128.128 31.1067 127.129 31.1067C126.13 31.1067 125.32 31.9167 125.32 32.9159C125.32 33.9151 126.13 34.7251 127.129 34.7251Z" fill="#263238"/>
<path d="M90.0064 175.593C91.7399 175.593 93.1452 174.188 93.1452 172.455C93.1452 170.721 91.7399 169.316 90.0064 169.316C88.2729 169.316 86.8677 170.721 86.8677 172.455C86.8677 174.188 88.2729 175.593 90.0064 175.593Z" fill="#0169EE"/>
<path d="M90.0064 164.524C88.4693 164.525 86.9655 164.972 85.6779 165.812C84.3903 166.651 83.3745 167.847 82.754 169.253L84.8395 171.13C85.1353 169.932 85.8387 168.874 86.8292 168.137C87.8197 167.401 89.0355 167.032 90.2683 167.093C91.501 167.155 92.674 167.644 93.586 168.475C94.4981 169.307 95.0925 170.43 95.2673 171.652L97.3997 169.603C96.8234 168.109 95.8088 166.825 94.4894 165.919C93.1699 165.013 91.6072 164.526 90.0064 164.524Z" fill="#0169EE"/>
<path d="M81.3254 167.981C82.1554 166.364 83.4209 165.01 84.9792 164.074C86.5374 163.137 88.3263 162.655 90.1441 162.681C91.9619 162.707 93.7363 163.24 95.2671 164.221C96.7979 165.202 98.0241 166.591 98.8075 168.231L100.768 166.344C99.6966 164.452 98.1455 162.876 96.2709 161.775C94.3963 160.673 92.2645 160.086 90.0904 160.071C87.9163 160.056 85.7767 160.615 83.8873 161.69C81.9979 162.766 80.4255 164.321 79.3285 166.198L81.3254 167.981Z" fill="#0169EE"/>
<path fill-rule="evenodd" clip-rule="evenodd" d="M174.283 18.6821V31.649C174.283 32.3044 174.023 32.933 173.56 33.3965C173.096 33.86 172.468 34.1204 171.812 34.1204H156.035C155.379 34.1204 154.751 33.86 154.287 33.3965C153.824 32.933 153.564 32.3044 153.564 31.649V15.8979C153.564 15.2424 153.824 14.6138 154.287 14.1504C154.751 13.6869 155.379 13.4265 156.035 13.4265H170.112" fill="#0169EE"/>
<path fill-rule="evenodd" clip-rule="evenodd" d="M171.072 19.1826H156.994C156.842 19.1826 156.695 19.2429 156.587 19.3503C156.479 19.4577 156.417 19.6036 156.416 19.7561V27.8533C156.416 28.0068 156.477 28.154 156.585 28.2625C156.694 28.371 156.841 28.432 156.994 28.432H171.072C171.225 28.432 171.372 28.371 171.481 28.2625C171.589 28.154 171.65 28.0068 171.65 27.8533V19.7561C171.649 19.6036 171.588 19.4577 171.479 19.3503C171.371 19.2429 171.224 19.1826 171.072 19.1826ZM171.259 20.9345L166.77 23.7187L170.775 26.6749C170.885 26.7579 170.958 26.8814 170.978 27.0183C170.997 27.1552 170.962 27.2943 170.879 27.4049C170.83 27.4696 170.767 27.5222 170.695 27.5584C170.622 27.5946 170.543 27.6134 170.462 27.6134C170.351 27.6138 170.244 27.5791 170.154 27.5144L165.816 24.3079L164.205 25.2985L162.323 24.2557L157.907 27.5196C157.817 27.5844 157.71 27.619 157.599 27.6187C157.49 27.6176 157.384 27.5824 157.296 27.518C157.208 27.4536 157.143 27.3633 157.109 27.2597C157.075 27.1561 157.074 27.0445 157.107 26.9406C157.14 26.8366 157.204 26.7455 157.291 26.6802L161.322 23.703L156.744 21.1587C156.684 21.1244 156.632 21.0788 156.59 21.0244C156.548 20.97 156.518 20.9078 156.5 20.8415C156.482 20.7751 156.477 20.7059 156.486 20.6378C156.495 20.5697 156.517 20.5039 156.551 20.4444C156.585 20.3848 156.631 20.3326 156.685 20.2906C156.74 20.2487 156.802 20.2179 156.868 20.2C156.935 20.1821 157.004 20.1774 157.072 20.1862C157.14 20.1951 157.206 20.2172 157.265 20.2515L164.189 24.0993L170.712 20.069C170.77 20.0294 170.836 20.0021 170.905 19.9886C170.974 19.9751 171.045 19.9757 171.114 19.9904C171.183 20.0051 171.248 20.0336 171.305 20.0741C171.363 20.1147 171.412 20.1664 171.448 20.2263C171.485 20.2862 171.51 20.3529 171.52 20.4225C171.531 20.4921 171.527 20.5631 171.51 20.6312C171.492 20.6993 171.461 20.7631 171.418 20.8188C171.375 20.8745 171.321 20.921 171.259 20.9553V20.9345Z" fill="white"/>
<path fill-rule="evenodd" clip-rule="evenodd" d="M176.807 15.2358C176.807 14.5139 176.593 13.8083 176.192 13.2081C175.791 12.6079 175.221 12.1401 174.554 11.8639C173.887 11.5876 173.153 11.5154 172.445 11.6562C171.737 11.797 171.087 12.1446 170.577 12.655C170.066 13.1655 169.718 13.8158 169.578 14.5237C169.437 15.2317 169.509 15.9656 169.785 16.6325C170.062 17.2993 170.529 17.8694 171.13 18.2704C171.73 18.6714 172.435 18.8855 173.157 18.8855C174.125 18.8855 175.054 18.501 175.738 17.8165C176.422 17.1321 176.807 16.2037 176.807 15.2358Z" fill="#D6B556"/>
<path fill-rule="evenodd" clip-rule="evenodd" d="M225.901 155.426V168.393C225.901 169.049 225.64 169.677 225.177 170.141C224.713 170.604 224.085 170.864 223.429 170.864H207.652C206.997 170.864 206.368 170.604 205.905 170.141C205.441 169.677 205.181 169.049 205.181 168.393V152.632C205.181 151.976 205.441 151.347 205.905 150.884C206.368 150.421 206.997 150.16 207.652 150.16H221.73" fill="#0169EE"/>
<path fill-rule="evenodd" clip-rule="evenodd" d="M228.393 151.98C228.393 151.258 228.179 150.552 227.778 149.952C227.377 149.352 226.807 148.884 226.14 148.608C225.473 148.332 224.739 148.26 224.031 148.4C223.323 148.541 222.673 148.889 222.163 149.399C221.652 149.91 221.305 150.56 221.164 151.268C221.023 151.976 221.095 152.71 221.371 153.377C221.648 154.043 222.115 154.613 222.716 155.015C223.316 155.416 224.021 155.63 224.743 155.63C225.711 155.63 226.64 155.245 227.324 154.561C228.008 153.876 228.393 152.948 228.393 151.98Z" fill="#D6B556"/>
<path fill-rule="evenodd" clip-rule="evenodd" d="M215.629 153.768C211.938 153.768 208.94 156.328 208.94 159.503C208.965 160.439 209.229 161.352 209.706 162.157C210.183 162.962 210.858 163.631 211.667 164.102L211.364 166.756L214.097 165.067C214.601 165.169 215.115 165.221 215.629 165.223C219.326 165.223 222.324 162.663 222.324 159.488C222.324 156.312 219.326 153.768 215.629 153.768Z" fill="white"/>
</svg>
