<svg width="290" height="216" viewBox="0 0 290 216" fill="none" xmlns="http://www.w3.org/2000/svg">
<path d="M106.639 39.9241H78.4949C77.7567 39.9241 77.1583 40.5225 77.1583 41.2607V55.7668C77.1583 56.5049 77.7567 57.1034 78.4949 57.1034H106.639C107.377 57.1034 107.976 56.5049 107.976 55.7668V41.2607C107.976 40.5225 107.377 39.9241 106.639 39.9241Z" fill="#D6B556"/>
<path d="M106.639 76.1895H78.4949C77.7567 76.1895 77.1583 76.7879 77.1583 77.526V92.0321C77.1583 92.7703 77.7567 93.3687 78.4949 93.3687H106.639C107.377 93.3687 107.976 92.7703 107.976 92.0321V77.526C107.976 76.7879 107.377 76.1895 106.639 76.1895Z" fill="#D6B556"/>
<path d="M65.9082 112.461H37.7638C37.0256 112.461 36.4272 113.059 36.4272 113.798V128.304C36.4272 129.042 37.0256 129.64 37.7638 129.64H65.9082C66.6464 129.64 67.2448 129.042 67.2448 128.304V113.798C67.2448 113.059 66.6464 112.461 65.9082 112.461Z" fill="#D6B556"/>
<path d="M89.6563 90.0938V109.186" stroke="#263238" stroke-width="0.5" stroke-miterlimit="10"/>
<path d="M89.6563 53.8223V72.9146" stroke="#263238" stroke-width="0.5" stroke-miterlimit="10"/>
<path d="M103.358 36.6428H75.2137C74.4755 36.6428 73.8771 37.2412 73.8771 37.9794V52.4855C73.8771 53.2237 74.4755 53.8221 75.2137 53.8221H103.358C104.096 53.8221 104.695 53.2237 104.695 52.4855V37.9794C104.695 37.2412 104.096 36.6428 103.358 36.6428Z" fill="#407BFF" stroke="#263238" stroke-width="0.5" stroke-miterlimit="10"/>
<path d="M103.358 72.9143H75.2137C74.4755 72.9143 73.8771 73.5127 73.8771 74.2509V88.757C73.8771 89.4952 74.4755 90.0936 75.2137 90.0936H103.358C104.096 90.0936 104.695 89.4952 104.695 88.757V74.2509C104.695 73.5127 104.096 72.9143 103.358 72.9143Z" fill="white" stroke="#263238" stroke-width="0.5" stroke-miterlimit="10"/>
<path d="M91.5631 53.8221C91.5631 54.198 91.4516 54.5654 91.2428 54.8779C91.034 55.1904 90.7372 55.434 90.3899 55.5778C90.0427 55.7217 89.6606 55.7593 89.292 55.686C88.9233 55.6127 88.5847 55.4317 88.3189 55.1659C88.0532 54.9001 87.8722 54.5615 87.7988 54.1929C87.7255 53.8242 87.7632 53.4421 87.907 53.0949C88.0508 52.7477 88.2944 52.4509 88.6069 52.242C88.9194 52.0332 89.2869 51.9218 89.6627 51.9218C90.1667 51.9218 90.6501 52.122 91.0065 52.4784C91.3629 52.8348 91.5631 53.3181 91.5631 53.8221Z" fill="white" stroke="#263238" stroke-width="0.5" stroke-miterlimit="10"/>
<path d="M184.187 29.8649H156.042C155.304 29.8649 154.706 30.4633 154.706 31.2015V45.7076C154.706 46.4457 155.304 47.0441 156.042 47.0441H184.187C184.925 47.0441 185.523 46.4457 185.523 45.7076V31.2015C185.523 30.4633 184.925 29.8649 184.187 29.8649Z" fill="#D6B556"/>
<path d="M180.912 26.5898H152.767C152.029 26.5898 151.431 27.1883 151.431 27.9264V42.4325C151.431 43.1707 152.029 43.7691 152.767 43.7691H180.912C181.65 43.7691 182.248 43.1707 182.248 42.4325V27.9264C182.248 27.1883 181.65 26.5898 180.912 26.5898Z" fill="#BEE9FF" stroke="#263238" stroke-width="0.5" stroke-miterlimit="10"/>
<path d="M169.117 43.769C169.117 44.1449 169.005 44.5123 168.797 44.8248C168.588 45.1373 168.291 45.3809 167.944 45.5247C167.597 45.6686 167.214 45.7062 166.846 45.6329C166.477 45.5596 166.139 45.3786 165.873 45.1128C165.607 44.847 165.426 44.5084 165.353 44.1398C165.279 43.7711 165.317 43.389 165.461 43.0418C165.605 42.6946 165.848 42.3978 166.161 42.1889C166.473 41.9801 166.841 41.8687 167.217 41.8687C167.721 41.8687 168.204 42.0689 168.56 42.4253C168.917 42.7817 169.117 43.265 169.117 43.769Z" fill="white" stroke="#263238" stroke-width="0.5" stroke-miterlimit="10"/>
<path d="M221.991 147.915H193.847C193.109 147.915 192.51 148.514 192.51 149.252V163.758C192.51 164.496 193.109 165.095 193.847 165.095H221.991C222.729 165.095 223.328 164.496 223.328 163.758V149.252C223.328 148.514 222.729 147.915 221.991 147.915Z" fill="#D6B556"/>
<path d="M218.716 144.64H190.572C189.834 144.64 189.235 145.239 189.235 145.977V160.483C189.235 161.221 189.834 161.82 190.572 161.82H218.716C219.455 161.82 220.053 161.221 220.053 160.483V145.977C220.053 145.239 219.455 144.64 218.716 144.64Z" fill="white" stroke="#263238" stroke-width="0.5" stroke-miterlimit="10"/>
<path d="M205.015 163.726C206.068 163.726 206.921 162.873 206.921 161.82C206.921 160.767 206.068 159.913 205.015 159.913C203.962 159.913 203.108 160.767 203.108 161.82C203.108 162.873 203.962 163.726 205.015 163.726Z" fill="white" stroke="#263238" stroke-width="0.5" stroke-miterlimit="10"/>
<path d="M91.5631 72.9143C91.5631 73.2901 91.4516 73.6575 91.2428 73.97C91.034 74.2826 90.7372 74.5262 90.3899 74.67C90.0427 74.8138 89.6606 74.8515 89.292 74.7781C88.9233 74.7048 88.5847 74.5238 88.3189 74.258C88.0532 73.9923 87.8722 73.6537 87.7988 73.285C87.7255 72.9164 87.7632 72.5343 87.907 72.187C88.0508 71.8398 88.2944 71.543 88.6069 71.3342C88.9194 71.1254 89.2869 71.0139 89.6627 71.0139C90.1667 71.0139 90.6501 71.2141 91.0065 71.5705C91.3629 71.9269 91.5631 72.4103 91.5631 72.9143Z" fill="white" stroke="#263238" stroke-width="0.5" stroke-miterlimit="10"/>
<path d="M91.5631 90.0936C91.5631 90.4695 91.4516 90.8369 91.2428 91.1494C91.034 91.4619 90.7372 91.7055 90.3899 91.8493C90.0427 91.9932 89.6606 92.0308 89.292 91.9575C88.9233 91.8841 88.5847 91.7031 88.3189 91.4374C88.0532 91.1716 87.8722 90.833 87.7988 90.4643C87.7255 90.0957 87.7632 89.7136 87.907 89.3664C88.0508 89.0191 88.2944 88.7223 88.6069 88.5135C88.9194 88.3047 89.2869 88.1932 89.6627 88.1932C90.1667 88.1932 90.6501 88.3934 91.0065 88.7498C91.3629 89.1062 91.5631 89.5896 91.5631 90.0936Z" fill="white" stroke="#263238" stroke-width="0.5" stroke-miterlimit="10"/>
<path d="M48.6972 111.334V101.452C48.6972 101.214 48.7441 100.978 48.8351 100.758C48.9262 100.539 49.0596 100.339 49.2278 100.171C49.3961 100.002 49.5958 99.869 49.8156 99.7779C50.0354 99.6869 50.271 99.64 50.5089 99.64H128.196C128.434 99.64 128.669 99.6869 128.889 99.7779C129.109 99.869 129.309 100.002 129.477 100.171C129.645 100.339 129.778 100.539 129.87 100.758C129.961 100.978 130.007 101.214 130.007 101.452V111.334" stroke="#263238" stroke-width="0.5" stroke-miterlimit="10"/>
<path d="M101.869 107.691H73.725C72.9868 107.691 72.3884 108.289 72.3884 109.028V123.534C72.3884 124.272 72.9868 124.87 73.725 124.87H101.869C102.608 124.87 103.206 124.272 103.206 123.534V109.028C103.206 108.289 102.608 107.691 101.869 107.691Z" fill="#E6E6E6" stroke="#263238" stroke-width="0.5" stroke-miterlimit="10"/>
<path d="M144.083 109.186H115.938C115.2 109.186 114.602 109.784 114.602 110.523V125.029C114.602 125.767 115.2 126.365 115.938 126.365H144.083C144.821 126.365 145.419 125.767 145.419 125.029V110.523C145.419 109.784 144.821 109.186 144.083 109.186Z" fill="white" stroke="#263238" stroke-width="0.5" stroke-miterlimit="10"/>
<path d="M217.766 114.469H189.622C188.884 114.469 188.285 115.067 188.285 115.806V130.312C188.285 131.05 188.884 131.648 189.622 131.648H217.766C218.504 131.648 219.103 131.05 219.103 130.312V115.806C219.103 115.067 218.504 114.469 217.766 114.469Z" fill="#E6E6E6" stroke="#263238" stroke-width="0.5" stroke-miterlimit="10"/>
<path d="M166.197 88.2377H138.052C137.314 88.2377 136.716 88.8361 136.716 89.5743V104.08C136.716 104.819 137.314 105.417 138.052 105.417H166.197C166.935 105.417 167.533 104.819 167.533 104.08V89.5743C167.533 88.8361 166.935 88.2377 166.197 88.2377Z" fill="#E6E6E6" stroke="#263238" stroke-width="0.5" stroke-miterlimit="10"/>
<path d="M151.539 65.8134H123.394C122.656 65.8134 122.058 66.4118 122.058 67.1499V81.656C122.058 82.3942 122.656 82.9926 123.394 82.9926H151.539C152.277 82.9926 152.875 82.3942 152.875 81.656V67.1499C152.875 66.4118 152.277 65.8134 151.539 65.8134Z" fill="white" stroke="#263238" stroke-width="0.5" stroke-miterlimit="10"/>
<path d="M62.6332 109.186H34.4889C33.7507 109.186 33.1523 109.784 33.1523 110.523V125.029C33.1523 125.767 33.7507 126.365 34.4889 126.365H62.6332C63.3714 126.365 63.9698 125.767 63.9698 125.029V110.523C63.9698 109.784 63.3714 109.186 62.6332 109.186Z" fill="#BEE9FF" stroke="#263238" stroke-width="0.5" stroke-miterlimit="10"/>
<path d="M130.014 111.093C131.067 111.093 131.92 110.239 131.92 109.186C131.92 108.133 131.067 107.279 130.014 107.279C128.961 107.279 128.107 108.133 128.107 109.186C128.107 110.239 128.961 111.093 130.014 111.093Z" fill="white" stroke="#263238" stroke-width="0.5" stroke-miterlimit="10"/>
<path d="M50.4645 109.186C50.4645 109.562 50.3531 109.929 50.1442 110.242C49.9354 110.554 49.6387 110.798 49.2914 110.942C48.9442 111.086 48.5621 111.123 48.1934 111.05C47.8248 110.977 47.4862 110.796 47.2204 110.53C46.9546 110.264 46.7736 109.926 46.7003 109.557C46.627 109.188 46.6646 108.806 46.8084 108.459C46.9523 108.112 47.1959 107.815 47.5084 107.606C47.8209 107.397 48.1883 107.286 48.5642 107.286C49.0682 107.286 49.5516 107.486 49.9079 107.842C50.2643 108.199 50.4645 108.682 50.4645 109.186Z" fill="white" stroke="#263238" stroke-width="0.5" stroke-miterlimit="10"/>
<path d="M91.5631 109.186C91.5631 109.562 91.4516 109.929 91.2428 110.242C91.034 110.554 90.7372 110.798 90.3899 110.942C90.0427 111.086 89.6606 111.123 89.292 111.05C88.9233 110.977 88.5847 110.796 88.3189 110.53C88.0532 110.264 87.8722 109.926 87.7988 109.557C87.7255 109.188 87.7632 108.806 87.907 108.459C88.0508 108.112 88.2944 107.815 88.6069 107.606C88.9194 107.397 89.2869 107.286 89.6627 107.286C90.1667 107.286 90.6501 107.486 91.0065 107.842C91.3629 108.199 91.5631 108.682 91.5631 109.186Z" fill="white" stroke="#263238" stroke-width="0.5" stroke-miterlimit="10"/>
<path d="M29.0939 189.844H289.937" stroke="#263238" stroke-width="0.5" stroke-miterlimit="10"/>
<path d="M198.376 170.2H91.6834C90.618 170.228 89.5852 169.832 88.8112 169.099C88.0371 168.367 87.5848 167.357 87.5533 166.292L87.4013 101.255C87.4136 100.726 87.5301 100.205 87.744 99.7205C87.958 99.2364 88.2652 98.7992 88.6482 98.4339C89.0311 98.0686 89.4823 97.7823 89.9759 97.5914C90.4696 97.4006 90.996 97.3088 91.5251 97.3215H198.534C199.064 97.3088 199.59 97.4006 200.084 97.5914C200.577 97.7823 201.028 98.0686 201.411 98.4339C201.794 98.7992 202.102 99.2364 202.316 99.7205C202.529 100.205 202.646 100.726 202.658 101.255L202.506 166.273C202.493 166.802 202.376 167.323 202.161 167.807C201.946 168.291 201.638 168.728 201.255 169.092C200.871 169.457 200.42 169.743 199.926 169.933C199.432 170.123 198.905 170.214 198.376 170.2Z" fill="white" stroke="#263238" stroke-width="0.5" stroke-miterlimit="10"/>
<path d="M173.526 189.014H122.887C126.992 184.809 130.3 179.894 132.649 174.508C133.378 172.807 133.971 171.051 134.423 169.256C135.62 164.474 160.762 164.474 161.965 169.256C162.42 171.046 163.002 172.801 163.707 174.508C165.974 179.953 169.313 184.886 173.526 189.014Z" fill="#263238"/>
<path d="M176.117 191.206H120.297C119.685 191.226 119.088 191.009 118.632 190.601C118.175 190.193 117.894 189.624 117.845 189.014C117.849 188.715 117.913 188.419 118.034 188.145C118.154 187.871 118.329 187.624 118.547 187.419C118.765 187.214 119.023 187.054 119.303 186.951C119.584 186.847 119.883 186.801 120.183 186.816H176.224C176.524 186.801 176.823 186.846 177.104 186.949C177.386 187.052 177.643 187.211 177.862 187.417C178.08 187.622 178.254 187.869 178.375 188.144C178.495 188.418 178.559 188.714 178.562 189.014C178.516 189.624 178.236 190.194 177.78 190.602C177.325 191.011 176.728 191.227 176.117 191.206Z" fill="#D6B556"/>
<path d="M201.961 171.841H94.4453C93.3721 171.868 92.332 171.469 91.553 170.73C90.7739 169.992 90.3197 168.974 90.2898 167.901L90.1315 102.364C90.158 101.287 90.6104 100.265 91.3894 99.522C92.1684 98.7786 93.2104 98.3745 94.2869 98.3984H202.126C202.659 98.3857 203.189 98.4784 203.686 98.6709C204.184 98.8635 204.638 99.1522 205.023 99.5205C205.409 99.8888 205.718 100.33 205.932 100.817C206.147 101.305 206.264 101.831 206.275 102.364L206.123 167.901C206.092 168.975 205.636 169.992 204.856 170.731C204.076 171.469 203.035 171.868 201.961 171.841Z" fill="#263238"/>
<path d="M170.156 187.24H119.904C123.979 183.057 127.263 178.17 129.596 172.816C130.316 171.127 130.902 169.384 131.35 167.603C132.541 162.859 157.493 162.859 158.684 167.603C159.133 169.381 159.711 171.123 160.413 172.816C162.657 178.231 165.971 183.137 170.156 187.24V187.24Z" stroke="#263238" stroke-width="0.5" stroke-miterlimit="10"/>
<g style="mix-blend-mode:soft-light" opacity="0.25">
<path d="M160.445 172.816H129.621C130.341 171.127 130.928 169.384 131.376 167.603C132.567 162.859 157.518 162.859 158.709 167.603C159.161 169.381 159.741 171.123 160.445 172.816Z" fill="#263238"/>
</g>
<path d="M172.728 189.413H117.332C116.726 189.433 116.135 189.218 115.683 188.813C115.231 188.408 114.953 187.845 114.906 187.24V187.24C114.909 186.943 114.972 186.649 115.091 186.376C115.211 186.104 115.384 185.858 115.6 185.654C115.817 185.45 116.072 185.292 116.351 185.189C116.63 185.086 116.927 185.04 117.224 185.055H172.835C173.132 185.041 173.429 185.087 173.707 185.191C173.986 185.294 174.241 185.452 174.458 185.656C174.674 185.86 174.847 186.105 174.967 186.377C175.086 186.65 175.15 186.943 175.154 187.24V187.24C175.107 187.845 174.828 188.408 174.376 188.813C173.924 189.218 173.334 189.433 172.728 189.413V189.413Z" stroke="#263238" stroke-width="0.5" stroke-miterlimit="10"/>
<path d="M198.376 170.2H91.6834C90.618 170.228 89.5852 169.832 88.8112 169.099C88.0371 168.367 87.5848 167.357 87.5533 166.292L87.4013 101.255C87.4136 100.726 87.5301 100.205 87.744 99.7205C87.958 99.2364 88.2652 98.7992 88.6482 98.4339C89.0311 98.0686 89.4823 97.7823 89.9759 97.5914C90.4696 97.4006 90.996 97.3088 91.5251 97.3215H198.534C199.064 97.3088 199.59 97.4006 200.084 97.5914C200.577 97.7823 201.028 98.0686 201.411 98.4339C201.794 98.7992 202.102 99.2364 202.316 99.7205C202.529 100.205 202.646 100.726 202.658 101.255L202.506 166.273C202.493 166.802 202.376 167.323 202.161 167.807C201.946 168.291 201.638 168.728 201.255 169.092C200.871 169.457 200.42 169.743 199.926 169.933C199.432 170.123 198.905 170.214 198.376 170.2V170.2Z" stroke="#263238" stroke-width="0.5" stroke-miterlimit="10"/>
<path d="M198.889 156.043C198.891 156.281 198.799 156.51 198.633 156.68C198.467 156.851 198.24 156.95 198.002 156.955H92.0318C91.7938 156.95 91.5673 156.851 91.4013 156.68C91.2353 156.51 91.1433 156.281 91.145 156.043L90.5115 101.223C90.5073 101.105 90.5266 100.986 90.5684 100.875C90.6101 100.764 90.6734 100.662 90.7547 100.576C90.8359 100.489 90.9335 100.42 91.0418 100.371C91.1501 100.322 91.267 100.296 91.3857 100.292H198.649H198.763C198.98 100.326 199.177 100.438 199.317 100.607C199.457 100.777 199.53 100.991 199.523 101.211V101.47L199.415 110.618L199.25 124.775L198.889 156.043Z" fill="white" stroke="#263238" stroke-width="0.5" stroke-miterlimit="10"/>
<path d="M148.523 150.221C150.549 150.221 152.191 149.393 152.191 148.372C152.191 147.35 150.549 146.522 148.523 146.522C146.498 146.522 144.856 147.35 144.856 148.372C144.856 149.393 146.498 150.221 148.523 150.221Z" fill="#D6B556"/>
<path d="M189.78 154.871L148.542 149.467V113.962L189.78 117.839V154.871Z" fill="#D6B556"/>
<path d="M107.304 154.871L148.542 149.467V113.962L107.304 117.839V154.871Z" fill="#D6B556"/>
<path d="M186.277 115.47V152.21L148.903 147.307C148.542 148.131 147.092 148.739 145.362 148.739C143.633 148.739 142.195 148.106 141.815 147.307L104.441 152.21V115.47L145.369 111.619L186.277 115.47Z" stroke="#263238" stroke-width="0.5" stroke-miterlimit="10"/>
<path d="M183.984 147.409C171.106 154.218 158.234 139.351 145.343 146.142V110.035C158.215 103.225 171.087 118.086 183.984 111.302V147.409Z" fill="white" stroke="#263238" stroke-width="0.5" stroke-miterlimit="10"/>
<path d="M182.882 145.743C170.377 152.939 157.867 138.464 145.356 145.667V109.56C157.867 102.364 170.377 116.838 182.882 109.636V145.743Z" fill="#E6E6E6" stroke="#263238" stroke-width="0.5" stroke-miterlimit="10"/>
<path d="M181.235 143.646C169.275 151.336 157.309 137.356 145.35 145.046V108.939C157.309 101.249 169.275 115.236 181.235 107.539V143.646Z" fill="white" stroke="#263238" stroke-width="0.5" stroke-miterlimit="10"/>
<path d="M106.734 147.409C119.612 154.218 132.484 139.351 145.375 146.142V110.035C132.503 103.225 119.631 118.086 106.734 111.302V147.409Z" fill="white" stroke="#263238" stroke-width="0.5" stroke-miterlimit="10"/>
<path d="M107.868 145.743C120.373 152.939 132.883 138.464 145.394 145.667V109.56C132.883 102.364 120.373 116.838 107.868 109.636V145.743Z" fill="#E6E6E6" stroke="#263238" stroke-width="0.5" stroke-miterlimit="10"/>
<path d="M109.483 143.646C121.449 151.336 133.409 137.356 145.369 145.046V108.939C133.409 101.249 121.449 115.236 109.483 107.539V143.646Z" fill="white" stroke="#263238" stroke-width="0.5" stroke-miterlimit="10"/>
<path d="M99.9753 79.7431V128.304C99.9622 128.415 99.9195 128.522 99.8517 128.611C99.7839 128.701 99.6935 128.771 99.5896 128.814C99.4858 128.858 99.3723 128.872 99.2608 128.857C99.1494 128.842 99.044 128.798 98.9555 128.728L88.8646 118.65C88.6057 118.396 88.258 118.253 87.8953 118.251H46.4801C46.1369 118.251 45.797 118.183 45.4799 118.052C45.1629 117.92 44.8749 117.727 44.6324 117.484C44.39 117.241 44.1979 116.953 44.0671 116.635C43.9364 116.318 43.8694 115.978 43.8703 115.635V79.7431C43.8694 79.3999 43.9364 79.0598 44.0671 78.7424C44.1979 78.425 44.39 78.1366 44.6324 77.8936C44.8749 77.6506 45.1629 77.4578 45.4799 77.3262C45.797 77.1947 46.1369 77.127 46.4801 77.127H97.3529C97.6969 77.1261 98.0378 77.1932 98.356 77.3243C98.6741 77.4554 98.9633 77.648 99.2069 77.891C99.4505 78.134 99.6437 78.4227 99.7756 78.7405C99.9075 79.0583 99.9753 79.399 99.9753 79.7431Z" fill="#407BFF" stroke="#263238" stroke-width="0.5" stroke-miterlimit="10"/>
<path d="M88.3768 64.0335C88.2821 68.129 86.8569 72.0825 84.3163 75.2963C80.8807 79.6491 78.6776 84.8451 77.9374 90.3408L77.8741 90.8603C77.831 91.1945 77.6678 91.5016 77.4148 91.7242C77.1618 91.9469 76.8365 92.0698 76.4995 92.0702H67.3271C66.989 92.0714 66.6621 91.9491 66.4078 91.7263C66.1536 91.5035 65.9894 91.1956 65.9462 90.8603L65.8828 90.3282C65.1436 84.839 62.9427 79.6495 59.5102 75.3026C56.967 72.0875 55.5395 68.1318 55.4435 64.0335C55.4435 55.4375 62.8106 47.7727 71.9133 47.7727C81.016 47.7727 88.3768 55.4185 88.3768 64.0335Z" fill="white" stroke="#263238" stroke-width="0.5" stroke-miterlimit="10"/>
<path d="M91.5567 65.8261C91.4626 69.9229 90.0348 73.8771 87.49 77.089C84.0546 81.451 81.8538 86.6555 81.1174 92.1588L81.0541 92.6783C81.011 93.0125 80.8477 93.3196 80.5948 93.5422C80.3418 93.7649 80.0165 93.8878 79.6795 93.8881H70.4944C70.1574 93.8878 69.832 93.7649 69.5791 93.5422C69.3261 93.3196 69.1629 93.0125 69.1198 92.6783L69.0564 92.1462C68.3146 86.6578 66.1139 81.4689 62.6839 77.1206C60.1406 73.9055 58.7131 69.9498 58.6171 65.8515C58.6171 57.2555 65.9842 49.5907 75.0869 49.5907C84.1897 49.5907 91.5567 57.2302 91.5567 65.8261Z" fill="#D6B556"/>
<path d="M88.3768 64.0335C88.2821 68.129 86.8569 72.0825 84.3163 75.2963C80.8807 79.6491 78.6776 84.8451 77.9374 90.3408L77.8741 90.8603C77.831 91.1945 77.6678 91.5016 77.4148 91.7242C77.1618 91.9469 76.8365 92.0698 76.4995 92.0702H67.3271C66.989 92.0714 66.6621 91.9491 66.4078 91.7263C66.1536 91.5035 65.9894 91.1956 65.9462 90.8603L65.8828 90.3282C65.1436 84.839 62.9427 79.6495 59.5102 75.3026C56.967 72.0875 55.5395 68.1318 55.4435 64.0335C55.4435 55.4375 62.8106 47.7727 71.9133 47.7727C81.016 47.7727 88.3768 55.4185 88.3768 64.0335Z" stroke="#263238" stroke-width="0.5" stroke-miterlimit="10"/>
<path d="M78.8813 77.4689C77.9979 77.2275 77.1784 76.795 76.4805 76.202C76.006 75.8214 75.636 75.3264 75.4055 74.7634C75.175 74.2005 75.0915 73.5881 75.1629 72.984C75.4353 71.1977 76.7529 70.2348 78.1592 70.4945C79.5654 70.7542 80.2369 72.0845 79.4894 73.7822C79.1846 74.3732 78.7594 74.8938 78.2411 75.3106C77.7229 75.7273 77.1232 76.031 76.4805 76.202C76.0899 76.3027 75.6916 76.3705 75.2896 76.4047C74.2089 76.5519 73.1087 76.3824 72.1224 75.9169L71.8817 75.7902C72.4475 75.508 72.9404 75.0986 73.3217 74.5942C73.703 74.0898 73.9625 73.504 74.0797 72.8827C74.3268 71.0963 73.3133 69.9244 71.888 69.9244C70.4627 69.9244 69.4555 71.0963 69.6962 72.8827C69.8108 73.5033 70.0677 74.089 70.4469 74.5935C70.8262 75.098 71.3173 75.5076 71.8817 75.7902C71.5522 75.9736 71.2066 76.1263 70.8491 76.2463C70.0792 76.4956 69.2631 76.5692 68.461 76.4617C68.0718 76.4129 67.6879 76.3281 67.3144 76.2083C66.6789 76.034 66.0868 75.7286 65.5763 75.3119C65.0657 74.8952 64.648 74.3763 64.3499 73.7885C63.5961 72.0908 64.2675 70.7606 65.6738 70.5009C67.0801 70.2411 68.3976 71.204 68.67 72.9903C68.7394 73.5958 68.6544 74.209 68.4229 74.7728C68.1914 75.3366 67.821 75.8326 67.3461 76.2146C66.6524 76.8066 65.8371 77.239 64.958 77.4815" stroke="#263238" stroke-width="0.5" stroke-miterlimit="10" stroke-linecap="round"/>
<path d="M67.5488 92.9506H75.7837C76.1198 92.9506 76.442 93.0841 76.6796 93.3217C76.9172 93.5593 77.0507 93.8815 77.0507 94.2175V101.509C77.0498 102.214 76.9095 102.912 76.6377 103.563C76.3658 104.214 75.9679 104.804 75.4668 105.301C74.9658 105.797 74.3714 106.189 73.7181 106.455C73.0647 106.721 72.3652 106.854 71.66 106.849C70.242 106.849 68.8821 106.285 67.8795 105.283C66.8769 104.28 66.3136 102.92 66.3136 101.502V94.1795C66.3136 93.8435 66.4471 93.5213 66.6847 93.2837C66.9223 93.0461 67.2445 92.9126 67.5805 92.9126L67.5488 92.9506Z" fill="#E6E6E6" stroke="#263238" stroke-width="0.5" stroke-miterlimit="10"/>
<path d="M77.8614 95.5859H65.7054C65.5374 95.5859 65.3763 95.5192 65.2575 95.4004C65.1387 95.2816 65.072 95.1204 65.072 94.9524C65.072 94.7844 65.1387 94.6233 65.2575 94.5045C65.3763 94.3857 65.5374 94.319 65.7054 94.319H77.8614C78.0294 94.319 78.1905 94.3857 78.3093 94.5045C78.4281 94.6233 78.4949 94.7844 78.4949 94.9524C78.4949 95.1204 78.4281 95.2816 78.3093 95.4004C78.1905 95.5192 78.0294 95.5859 77.8614 95.5859Z" fill="#263238"/>
<path d="M77.8614 98.6644H65.7054C65.5374 98.6644 65.3763 98.5976 65.2575 98.4788C65.1387 98.36 65.072 98.1989 65.072 98.0309C65.072 97.8629 65.1387 97.7018 65.2575 97.583C65.3763 97.4642 65.5374 97.3975 65.7054 97.3975H77.8614C78.0294 97.3975 78.1905 97.4642 78.3093 97.583C78.4281 97.7018 78.4949 97.8629 78.4949 98.0309C78.4949 98.1989 78.4281 98.36 78.3093 98.4788C78.1905 98.5976 78.0294 98.6644 77.8614 98.6644Z" fill="#263238"/>
<path d="M77.8614 101.737H65.7054C65.5374 101.737 65.3763 101.67 65.2575 101.551C65.1387 101.432 65.072 101.271 65.072 101.103C65.072 100.935 65.1387 100.774 65.2575 100.655C65.3763 100.536 65.5374 100.47 65.7054 100.47H77.8614C78.0294 100.47 78.1905 100.536 78.3093 100.655C78.4281 100.774 78.4949 100.935 78.4949 101.103C78.4949 101.271 78.4281 101.432 78.3093 101.551C78.1905 101.67 78.0294 101.737 77.8614 101.737Z" fill="#263238"/>
<path d="M76.7085 104.828H66.8583C66.6903 104.828 66.5292 104.761 66.4104 104.642C66.2916 104.523 66.2249 104.362 66.2249 104.194C66.2249 104.026 66.2916 103.865 66.4104 103.746C66.5292 103.628 66.6903 103.561 66.8583 103.561H76.7085C76.8765 103.561 77.0376 103.628 77.1564 103.746C77.2752 103.865 77.342 104.026 77.342 104.194C77.342 104.362 77.2752 104.523 77.1564 104.642C77.0376 104.761 76.8765 104.828 76.7085 104.828Z" fill="#263238"/>
<path d="M188.051 14.4275H169.864C169.862 13.1621 170.111 11.9088 170.595 10.74C171.08 9.57114 171.792 8.51001 172.69 7.61786C172.791 7.51018 172.892 7.41515 173 7.3138C174.597 5.75721 176.725 4.86321 178.954 4.81165C184.028 4.81165 188.051 9.29018 188.051 14.4275Z" fill="#D6B556"/>
<path d="M184.871 12.6413H166.684C166.682 11.3749 166.93 10.1205 167.415 8.9506C167.9 7.78069 168.612 6.71848 169.51 5.82537C169.617 5.72402 169.712 5.62266 169.826 5.52765C171.421 3.96784 173.55 3.0733 175.781 3.02551C180.848 3.02551 184.871 7.4977 184.871 12.6413Z" stroke="#263238" stroke-width="0.5" stroke-miterlimit="10"/>
<path d="M175.781 3.02536C173.323 3.16141 171.01 4.23385 169.318 6.0223C167.626 7.81074 166.684 10.1793 166.684 12.6412V64.9645C166.684 67.5198 165.669 69.9705 163.862 71.7774C162.056 73.5842 159.605 74.5994 157.05 74.5994H118.003V12.6412C118.005 10.0858 119.021 7.63547 120.827 5.82794C122.633 4.02041 125.083 3.00337 127.638 3.00001H175.255C175.431 2.99962 175.606 3.00808 175.781 3.02536Z" fill="white" stroke="#263238" stroke-width="0.5" stroke-miterlimit="10"/>
<path d="M157.113 74.5804C156.936 74.5804 156.752 74.5804 156.568 74.5804H109.465C106.91 74.5787 104.46 73.5631 102.653 71.7566C100.847 69.9501 99.8313 67.5004 99.8297 64.9456H148.017C148.011 67.4107 148.951 69.7841 150.644 71.5766C152.336 73.3691 154.652 74.4442 157.113 74.5804Z" fill="#E6E6E6" stroke="#263238" stroke-width="0.5" stroke-miterlimit="10"/>
<path d="M142.98 22.2316C145.136 22.2316 146.883 20.4846 146.883 18.3296C146.883 16.1745 145.136 14.4275 142.98 14.4275C140.825 14.4275 139.078 16.1745 139.078 18.3296C139.078 20.4846 140.825 22.2316 142.98 22.2316Z" fill="#D6B556"/>
<path d="M147.307 22.7828L145.66 22.5104C145.607 22.5017 145.552 22.5058 145.5 22.5224C145.448 22.5391 145.401 22.5678 145.363 22.6061C145.325 22.6445 145.296 22.6914 145.279 22.7431C145.263 22.7947 145.259 22.8496 145.267 22.9032L145.533 24.5502C145.547 24.6211 145.537 24.6945 145.506 24.7595C145.475 24.8245 145.423 24.8777 145.359 24.9111C145.295 24.9445 145.222 24.9565 145.151 24.9451C145.079 24.9337 145.014 24.8996 144.963 24.8479L141.574 21.4589C142.245 21.4268 142.895 21.2207 143.462 20.8608C144.028 20.5009 144.491 19.9997 144.805 19.4065L147.605 22.2064C147.655 22.2578 147.687 22.3236 147.698 22.3946C147.708 22.4656 147.696 22.538 147.663 22.6018C147.631 22.6655 147.578 22.7173 147.514 22.7497C147.451 22.7822 147.378 22.7938 147.307 22.7828Z" stroke="#263238" stroke-width="0.5" stroke-miterlimit="10"/>
<path d="M141.277 21.4652L137.9 24.8478C137.849 24.8978 137.783 24.9304 137.712 24.9409C137.641 24.9514 137.569 24.9394 137.505 24.9064C137.441 24.8735 137.389 24.8214 137.357 24.7574C137.324 24.6935 137.313 24.621 137.324 24.5501L137.596 22.9031C137.603 22.8498 137.598 22.7955 137.581 22.7445C137.564 22.6935 137.535 22.6472 137.497 22.6091C137.459 22.5711 137.413 22.5424 137.362 22.5252C137.311 22.5081 137.257 22.503 137.203 22.5103L135.556 22.7827C135.486 22.7937 135.413 22.7822 135.349 22.7497C135.285 22.7172 135.233 22.6654 135.2 22.6017C135.167 22.538 135.155 22.4655 135.166 22.3945C135.176 22.3236 135.209 22.2577 135.259 22.2063L137.97 19.4951C138.301 20.0838 138.78 20.5755 139.36 20.9211C139.941 21.2668 140.601 21.4544 141.277 21.4652V21.4652Z" stroke="#263238" stroke-width="0.5" stroke-miterlimit="10"/>
<path d="M145.242 17.5758C145.244 18.2152 145.085 18.8449 144.78 19.4065C144.466 19.9997 144.003 20.5009 143.436 20.8608C142.87 21.2207 142.219 21.4268 141.549 21.4589C141.48 21.4686 141.409 21.4686 141.34 21.4589C141.311 21.4651 141.28 21.4651 141.251 21.4589C140.485 21.4402 139.741 21.1958 139.113 20.7562C138.485 20.3167 138 19.7015 137.72 18.9879C137.44 18.2742 137.376 17.4937 137.538 16.7442C137.699 15.9947 138.078 15.3095 138.627 14.7744C139.176 14.2393 139.871 13.8781 140.624 13.736C141.378 13.594 142.156 13.6774 142.863 13.9758C143.569 14.2742 144.171 14.7744 144.595 15.4136C145.018 16.0529 145.243 16.8028 145.242 17.5695V17.5758Z" stroke="#263238" stroke-width="0.5" stroke-miterlimit="10"/>
<path d="M122.868 32.196H161.338" stroke="#263238" stroke-width="0.5" stroke-miterlimit="10" stroke-linecap="round"/>
<path d="M122.868 35.2745H161.338" stroke="#263238" stroke-width="0.5" stroke-miterlimit="10" stroke-linecap="round"/>
<path d="M122.868 38.353H161.338" stroke="#263238" stroke-width="0.5" stroke-miterlimit="10" stroke-linecap="round"/>
<path d="M122.868 41.4318H132.655" stroke="#263238" stroke-width="0.5" stroke-miterlimit="10" stroke-linecap="round"/>
<path d="M122.868 47.2278H161.338" stroke="#263238" stroke-width="0.5" stroke-miterlimit="10" stroke-linecap="round"/>
<path d="M122.868 50.3064H161.338" stroke="#263238" stroke-width="0.5" stroke-miterlimit="10" stroke-linecap="round"/>
<path d="M122.868 53.385H161.338" stroke="#263238" stroke-width="0.5" stroke-miterlimit="10" stroke-linecap="round"/>
<path d="M122.868 56.4636H144.235" stroke="#263238" stroke-width="0.5" stroke-miterlimit="10" stroke-linecap="round"/>
<path d="M206.472 92.7922C206.472 103.84 195.177 112.797 181.235 112.797C177.787 112.81 174.361 112.245 171.1 111.124L159.577 117.459C159.474 117.515 159.355 117.538 159.239 117.523C159.122 117.509 159.013 117.458 158.926 117.379C158.84 117.299 158.78 117.194 158.756 117.079C158.732 116.964 158.744 116.844 158.792 116.737L163.276 106.849C158.779 103.213 156.011 98.2463 156.011 92.7922C156.011 81.7448 167.312 72.7941 181.254 72.7941C195.196 72.7941 206.472 81.7131 206.472 92.7922Z" fill="white" stroke="#263238" stroke-width="0.5" stroke-miterlimit="10"/>
<path d="M205.072 40.469L204.356 42.553L203.634 44.6624L202.918 46.7465L185.441 97.6319L178.897 95.3831L196.368 44.4977L197.084 42.401L197.806 40.3043L198.528 38.2202L205.072 40.469Z" fill="#D6B556"/>
<path d="M204.749 36.2374L203.691 39.335L197.185 37.0989L198.243 34.0076C198.462 33.3642 198.868 32.8004 199.408 32.3877C199.948 31.9749 200.598 31.7318 201.277 31.689C201.955 31.6463 202.631 31.8059 203.219 32.1476C203.806 32.4893 204.279 32.9978 204.578 33.6085C204.78 34.0132 204.899 34.4542 204.928 34.9057C204.958 35.3571 204.897 35.8099 204.749 36.2374Z" fill="#263238" stroke="#263238" stroke-width="0.5" stroke-miterlimit="10"/>
<path d="M203.691 39.3288L202.981 41.4065L202.266 43.4906L201.55 45.5619L184.212 96.0546L177.713 93.8248L195.05 43.3322L195.766 41.2545L196.482 39.1704L197.198 37.099L203.691 39.3288Z" stroke="#263238" stroke-width="0.5" stroke-miterlimit="10"/>
<path d="M184.212 96.0546L179.594 101.756L178.505 103.105C178.459 103.163 178.397 103.205 178.327 103.226C178.256 103.247 178.181 103.245 178.112 103.221C178.042 103.198 177.982 103.153 177.939 103.094C177.896 103.034 177.872 102.963 177.871 102.89V101.16L177.738 93.8185L184.212 96.0546Z" fill="white" stroke="#263238" stroke-width="0.5" stroke-miterlimit="10"/>
<path d="M179.594 101.762L178.505 103.111C178.459 103.169 178.397 103.211 178.327 103.232C178.256 103.253 178.181 103.251 178.112 103.228C178.042 103.204 177.982 103.159 177.939 103.1C177.896 103.041 177.872 102.969 177.871 102.896V101.167L179.594 101.762Z" fill="#263238"/>
<path d="M203.697 39.3288L202.981 41.4065L196.482 39.1704L197.198 37.099L203.691 39.3288H203.697Z" fill="white" stroke="#263238" stroke-width="0.5" stroke-miterlimit="10"/>
<path d="M196.46 39.1576L195.746 41.2366L202.246 43.4685L202.96 41.3896L196.46 39.1576Z" fill="#263238"/>
<path d="M195.749 41.232L195.036 43.3109L201.536 45.5429L202.25 43.4639L195.749 41.232Z" fill="white" stroke="#263238" stroke-width="0.5" stroke-miterlimit="10"/>
<path d="M195.83 51.6175C195.704 51.5768 195.588 51.5115 195.488 51.4255C195.389 51.3395 195.307 51.2345 195.248 51.1166C195.189 50.9987 195.154 50.8703 195.145 50.7388C195.136 50.6073 195.154 50.4754 195.196 50.3506L196.336 47.025C196.377 46.8997 196.442 46.7837 196.528 46.6838C196.614 46.584 196.719 46.5022 196.837 46.4432C196.955 46.3843 197.084 46.3494 197.215 46.3405C197.347 46.3316 197.479 46.349 197.603 46.3915C197.729 46.4316 197.846 46.4964 197.946 46.5823C198.046 46.6681 198.128 46.7732 198.187 46.8913C198.247 47.0094 198.281 47.1381 198.29 47.2699C198.298 47.4017 198.28 47.5338 198.237 47.6585L197.097 50.9841C197.056 51.1094 196.99 51.2254 196.904 51.3253C196.818 51.4251 196.714 51.5069 196.596 51.5659C196.478 51.6248 196.349 51.6597 196.218 51.6686C196.086 51.6775 195.954 51.6601 195.83 51.6175Z" fill="#263238"/>
<path d="M152.501 152.242L159.97 158.766C159.982 158.778 159.991 158.793 159.995 158.809C159.999 158.826 159.998 158.843 159.993 158.859C159.987 158.874 159.978 158.889 159.965 158.899C159.952 158.91 159.936 158.916 159.919 158.919L156.289 159.109C156.275 159.11 156.262 159.115 156.25 159.123C156.238 159.131 156.229 159.141 156.222 159.154C156.215 159.166 156.211 159.18 156.211 159.194C156.211 159.208 156.214 159.223 156.22 159.235L157.658 162.048C157.663 162.058 157.666 162.069 157.667 162.08C157.668 162.091 157.667 162.102 157.663 162.113C157.66 162.124 157.654 162.134 157.647 162.142C157.639 162.15 157.63 162.157 157.62 162.162L156.682 162.593C156.661 162.601 156.638 162.601 156.616 162.593C156.595 162.585 156.578 162.569 156.568 162.548L155.099 159.736C155.09 159.725 155.08 159.717 155.068 159.711C155.056 159.705 155.042 159.702 155.029 159.702C155.015 159.702 155.002 159.705 154.99 159.711C154.978 159.717 154.968 159.725 154.959 159.736L152.565 162.225C152.553 162.237 152.537 162.246 152.521 162.25C152.504 162.254 152.486 162.252 152.47 162.246C152.454 162.24 152.44 162.23 152.43 162.216C152.42 162.202 152.414 162.185 152.413 162.168L152.362 152.337C152.356 152.328 152.351 152.317 152.349 152.307C152.347 152.296 152.347 152.285 152.349 152.274C152.351 152.263 152.355 152.252 152.361 152.243C152.367 152.234 152.375 152.226 152.384 152.22C152.393 152.213 152.404 152.209 152.415 152.207C152.425 152.205 152.437 152.204 152.447 152.207C152.458 152.209 152.469 152.213 152.478 152.219C152.487 152.225 152.495 152.233 152.501 152.242Z" fill="#D6B556"/>
<path d="M43.1588 42.0128H18.2344C17.5807 42.0128 17.0507 42.5428 17.0507 43.1965V56.043C17.0507 56.6967 17.5807 57.2266 18.2344 57.2266H43.1588C43.8125 57.2266 44.3425 56.6967 44.3425 56.043V43.1965C44.3425 42.5428 43.8125 42.0128 43.1588 42.0128Z" fill="#00DC9A" stroke="#00DC9A" stroke-width="0.5" stroke-miterlimit="10"/>
<path d="M37.7499 171.033H12.8255C12.1718 171.033 11.6418 171.563 11.6418 172.217V185.063C11.6418 185.717 12.1718 186.247 12.8255 186.247H37.7499C38.4036 186.247 38.9336 185.717 38.9336 185.063V172.217C38.9336 171.563 38.4036 171.033 37.7499 171.033Z" fill="#BFBFBF"/>
<path d="M40.7568 166.871H15.8324C15.1786 166.871 14.6487 167.401 14.6487 168.054V180.901C14.6487 181.554 15.1786 182.084 15.8324 182.084H40.7568C41.4105 182.084 41.9404 181.554 41.9404 180.901V168.054C41.9404 167.401 41.4105 166.871 40.7568 166.871Z" fill="#407BFF" stroke="#263238" stroke-width="0.5" stroke-miterlimit="10"/>
<path d="M27.1081 175.583H2.18367C1.52995 175.583 1 176.113 1 176.766V189.613C1 190.266 1.52995 190.796 2.18367 190.796H27.1081C27.7618 190.796 28.2917 190.266 28.2917 189.613V176.766C28.2917 176.113 27.7618 175.583 27.1081 175.583Z" fill="#00DC9A" stroke="#00DC9A" stroke-width="0.5" stroke-miterlimit="10"/>
<path d="M36.9656 37.8167H12.0412C11.3874 37.8167 10.8575 38.3466 10.8575 39.0003V51.8468C10.8575 52.5005 11.3874 53.0305 12.0412 53.0305H36.9656C37.6193 53.0305 38.1492 52.5005 38.1492 51.8468V39.0003C38.1492 38.3466 37.6193 37.8167 36.9656 37.8167Z" fill="#263238"/>
<path d="M236.72 0H211.795C211.142 0 210.612 0.529948 210.612 1.18367V14.0301C210.612 14.6839 211.142 15.2138 211.795 15.2138H236.72C237.374 15.2138 237.904 14.6839 237.904 14.0301V1.18367C237.904 0.529948 237.374 0 236.72 0Z" fill="#263238"/>
<path d="M30.4301 33.1101H5.50571C4.85198 33.1101 4.32204 33.6401 4.32204 34.2938V47.1403C4.32204 47.794 4.85198 48.3239 5.50571 48.3239H30.4301C31.0838 48.3239 31.6138 47.794 31.6138 47.1403V34.2938C31.6138 33.6401 31.0838 33.1101 30.4301 33.1101Z" stroke="#263238" stroke-width="0.5" stroke-miterlimit="10"/>
<path d="M252.288 128.095H227.364C226.71 128.095 226.18 128.625 226.18 129.279V142.126C226.18 142.779 226.71 143.309 227.364 143.309H252.288C252.942 143.309 253.472 142.779 253.472 142.126V129.279C253.472 128.625 252.942 128.095 252.288 128.095Z" fill="#407BFF" stroke="#263238" stroke-width="0.5" stroke-miterlimit="10"/>
<path d="M259.816 137.655H234.892C234.238 137.655 233.708 138.184 233.708 138.838V151.685C233.708 152.338 234.238 152.868 234.892 152.868H259.816C260.47 152.868 261 152.338 261 151.685V138.838C261 138.184 260.47 137.655 259.816 137.655Z" fill="#00DC9A" stroke="#00DC9A" stroke-width="0.5" stroke-miterlimit="10"/>
</svg>
