<svg width="260" height="214" viewBox="0 0 260 214" fill="none" xmlns="http://www.w3.org/2000/svg">
<path d="M127.67 214C143.104 214 155.617 208.16 155.617 200.956C155.617 193.752 143.104 187.912 127.67 187.912C112.235 187.912 99.7229 193.752 99.7229 200.956C99.7229 208.16 112.235 214 127.67 214Z" fill="#D6B556"/>
<path d="M75.4493 100.994L12.5951 119.834V31.769L75.4493 12.9282V100.994Z" fill="#263238" stroke="#263238" stroke-linecap="round" stroke-linejoin="round"/>
<path d="M78.6428 97.8002L15.7885 116.641V28.5756L78.6428 9.73474V97.8002Z" fill="white" stroke="#263238" stroke-linecap="round" stroke-linejoin="round"/>
<path d="M78.6428 14.4394L15.7885 33.2803V28.5756L78.6428 9.73474V14.4394Z" fill="#407BFF" stroke="#263238" stroke-linecap="round" stroke-linejoin="round"/>
<path d="M26.2072 36.5234C26.1513 37.5054 25.801 38.4478 25.2019 39.2279C24.6028 40.008 23.7827 40.5897 22.8483 40.8971C20.9951 41.4487 19.4894 40.4062 19.4894 38.553C19.5461 37.5712 19.8967 36.6292 20.4957 35.8492C21.0947 35.0692 21.9144 34.4874 22.8483 34.1793C24.7126 33.6112 26.2072 34.6702 26.2072 36.5234Z" fill="#0169EE"/>
<path d="M46.984 70.6807C46.984 70.6807 22.1093 83.6476 20.7635 85.9586C19.4177 88.2695 17.2722 116.095 17.2722 116.095L77.6996 97.894C77.6996 97.894 76.5579 72.1754 75.2618 71.1164C73.9657 70.0575 52.4167 68.1932 46.984 70.6807Z" fill="#407BFF" stroke="#263238" stroke-linecap="round" stroke-linejoin="round"/>
<path d="M29.5165 83.1291C31.8771 87.5966 30.0184 104.149 28.8767 112.565L43.7188 108.153L39.8194 74.5084C36.2068 76.4554 31.833 78.8491 28.1818 80.9781C28.6777 81.6621 29.1238 82.381 29.5165 83.1291Z" fill="#00DC9A" stroke="#263238" stroke-linecap="round" stroke-linejoin="round"/>
<path d="M41.6009 89.869L41.1431 85.9475L30.6196 89.3616C30.6693 90.6191 30.6693 91.9925 30.6196 93.4265L41.6009 89.869Z" fill="#263238" stroke="#263238" stroke-linecap="round" stroke-linejoin="round"/>
<path d="M40.1559 77.415L28.3748 81.2317C28.7962 81.8387 29.1776 82.4725 29.5165 83.1291C29.7671 83.6426 29.9524 84.1855 30.0681 84.7451L40.5916 81.3365L40.1559 77.415Z" fill="#263238" stroke="#263238" stroke-linecap="round" stroke-linejoin="round"/>
<path d="M43.5424 106.641L43.0901 102.72L29.5607 107.105C29.3897 108.627 29.2077 110.056 29.0422 111.346L43.5424 106.641Z" fill="#263238" stroke="#263238" stroke-linecap="round" stroke-linejoin="round"/>
<path d="M30.1398 101.479L42.4834 97.4748L42.0256 93.5533L30.4431 97.3094C30.3714 98.6938 30.2611 100.089 30.1398 101.479Z" fill="#263238" stroke="#263238" stroke-linecap="round" stroke-linejoin="round"/>
<path d="M42.2352 62.7825C42.2352 62.7825 42.1414 74.7731 42.4227 75.6776C42.704 76.5822 45.5555 80.272 49.6314 80.2444C53.7074 80.2169 55.9246 76.3836 56.8015 73.8961C57.6785 71.4087 58.1418 62.8652 58.1418 62.8652C58.1418 62.8652 46.4821 66.1524 42.2352 62.7825Z" fill="#DA958A" stroke="#263238" stroke-linecap="round" stroke-linejoin="round"/>
<path d="M45.7651 64.1227C44.4926 63.9877 43.2766 63.526 42.2352 62.7825C42.2352 62.7825 42.18 69.6272 42.2793 73.3666C47.4142 72.3297 53.9776 69.1528 53.9776 69.1528L45.7651 64.1227Z" fill="#263238" stroke="#263238" stroke-linecap="round" stroke-linejoin="round"/>
<path d="M60.0943 47.7584C60.0943 47.7584 62.6259 44.5595 63.2822 46.9973C63.9385 49.4351 62.8299 52.6948 62.1791 53.9854C61.6055 54.964 60.8578 55.8294 59.9729 56.5391L60.0943 47.7584Z" fill="#DA958A" stroke="#263238" stroke-linecap="round" stroke-linejoin="round"/>
<path d="M38.8432 43.8866C38.8432 43.8866 37.7401 59.2637 40.4978 64.2001C43.2556 69.1364 48.9586 72.7104 53.4923 70.6807C58.026 68.6511 60.2928 65.3473 61.0871 60.7529C61.8813 56.1585 62.4659 43.4454 61.8041 41.0075C61.1422 38.5697 59.7303 34.56 50.7732 35.7568C41.816 36.9537 39.7146 40.627 38.8432 43.8866Z" fill="#FFCEC7" stroke="#263238" stroke-linecap="round" stroke-linejoin="round"/>
<path d="M38.0048 52.3031C38.2539 50.9666 38.8819 49.7298 39.8139 48.7401C41.4024 46.9807 43.5148 45.7893 42.4282 43.3901C41.3417 40.9909 44.7999 40.0312 46.0188 39.7113C47.2377 39.3914 49.7197 41.6693 53.1889 40.5276C56.6581 39.3859 58.5058 37.279 60.1329 38.4262C61.7599 39.5734 61.2635 43.7376 61.1974 44.2781C61.1312 44.8186 61.6055 48.4809 61.6055 48.4809C61.6055 48.4809 63.5525 41.1012 63.751 39.4741C63.9496 37.8471 60.6624 30.8204 55.2627 29.8882C49.8631 28.9561 42.5496 30.8645 39.0803 35.0948C35.6111 39.3252 36.2289 42.4304 36.7252 44.8076C37.0168 46.4901 37.0168 48.2103 36.7252 49.8928C36.7252 49.8928 37.2161 53.9081 38.0048 52.3031Z" fill="#263238" stroke="#263238" stroke-linecap="round" stroke-linejoin="round"/>
<path d="M39.1741 52.8161C39.1741 52.8161 35.8648 47.1462 34.3205 50.8636C32.7762 54.581 35.8262 60.0193 36.99 60.284C38.1538 60.5488 39.3837 59.2581 39.3837 59.2581" fill="#FFCEC7"/>
<path d="M39.1741 52.8161C39.1741 52.8161 35.8648 47.1462 34.3205 50.8636C32.7762 54.581 35.8262 60.0193 36.99 60.284C38.1538 60.5488 39.3837 59.2581 39.3837 59.2581" stroke="#263238" stroke-linecap="round" stroke-linejoin="round"/>
<path d="M47.5025 51.8123C47.3591 52.9871 46.8516 53.9247 46.3663 53.9027C45.8809 53.8806 45.6051 52.9209 45.7485 51.7516C45.892 50.5823 46.3939 49.6392 46.8792 49.6613C47.3646 49.6833 47.6403 50.6651 47.5025 51.8123Z" fill="#263238"/>
<path d="M58.0315 50.1576C57.8936 51.3324 57.3862 52.2645 56.9008 52.248C56.4154 52.2314 56.1397 51.2662 56.2831 50.0914C56.4265 48.9166 56.9284 47.9845 57.4137 48.0011C57.8991 48.0176 58.1749 48.9608 58.0315 50.1576Z" fill="#263238"/>
<path d="M55.3013 52.7775C55.5854 53.6231 55.5679 54.5411 55.2517 55.3753C54.9042 56.0943 54.3461 56.6905 53.6515 57.0846C52.9569 57.4787 52.1588 57.652 51.3633 57.5814C49.3612 57.5042 48.2802 55.3753 48.2802 55.3753" stroke="#263238" stroke-linecap="round" stroke-linejoin="round"/>
<path d="M46.6035 60.3668C46.6035 60.3668 50.2492 63.4775 57.0167 58.5356" stroke="#263238" stroke-linecap="round" stroke-linejoin="round"/>
<path d="M43.6416 47.9515C43.6416 47.9515 44.9929 46.5505 47.9327 46.6609" stroke="#263238" stroke-linecap="round" stroke-linejoin="round"/>
<path d="M54.9649 45.497C55.607 44.9102 56.4359 44.5695 57.305 44.5352C58.1742 44.5009 59.0274 44.7752 59.7137 45.3095" stroke="#263238" stroke-linecap="round" stroke-linejoin="round"/>
<path d="M71.5223 79.1193C70.3806 74.9662 69.4926 71.9492 68.8969 69.9967C66.0068 69.7099 62.488 69.4948 59.0684 69.4452C59.7689 70.9619 60.7616 74.2712 61.4511 81.4137C62.0422 88.4738 62.2779 95.5591 62.1571 102.643L73.3921 99.2894C73.3314 93.5147 72.9784 84.4252 71.5223 79.1193Z" fill="#00DC9A" stroke="#263238" stroke-linecap="round" stroke-linejoin="round"/>
<path d="M60.5631 74.8669L69.4816 71.9768C69.261 71.2267 69.0624 70.5648 68.8859 69.9967C67.4409 69.8533 65.8303 69.7265 64.1592 69.6327L59.6806 71.1164C60.0492 72.3478 60.3439 73.6002 60.5631 74.8669Z" fill="#263238" stroke="#263238" stroke-linecap="round" stroke-linejoin="round"/>
<path d="M61.6221 83.3718L71.765 80.0625C71.6878 79.7316 71.605 79.4062 71.5223 79.0973C71.252 78.1045 70.9708 77.1835 70.7501 76.3396L61.2415 79.4227C61.3132 80.0515 61.3849 80.7078 61.4511 81.4083C61.5172 82.1088 61.5724 82.6989 61.6221 83.3718Z" fill="#263238" stroke="#263238" stroke-linecap="round" stroke-linejoin="round"/>
<path d="M72.8626 87.6296C72.7467 86.2839 72.5978 84.9602 72.4213 83.7026L61.8758 87.1112C61.9456 88.457 62.0026 89.7954 62.0467 91.1264L72.8626 87.6296Z" fill="#263238" stroke="#263238" stroke-linecap="round" stroke-linejoin="round"/>
<path d="M73.3534 96.9784C73.3259 95.7154 73.2817 94.3531 73.2156 92.9576L62.1846 96.5427C62.1846 97.9767 62.1846 99.3445 62.1846 100.608L73.3534 96.9784Z" fill="#263238" stroke="#263238" stroke-linecap="round" stroke-linejoin="round"/>
<path d="M162.334 10.7H93.0933V98.7598H162.334V10.7Z" fill="#263238" stroke="#263238" stroke-linecap="round" stroke-linejoin="round"/>
<path d="M162.334 8.72546H93.0933V96.7854H162.334V8.72546Z" fill="white" stroke="#263238" stroke-linecap="round" stroke-linejoin="round"/>
<path d="M162.334 8.72546H93.0933V13.4302H162.334V8.72546Z" fill="#407BFF" stroke="#263238" stroke-linecap="round" stroke-linejoin="round"/>
<path d="M103.518 19.8226C103.518 20.488 103.32 21.1385 102.95 21.6917C102.581 22.245 102.055 22.6762 101.441 22.9309C100.826 23.1855 100.149 23.2522 99.4967 23.1223C98.8441 22.9925 98.2446 22.6721 97.7741 22.2016C97.3035 21.7311 96.9831 21.1316 96.8533 20.4789C96.7235 19.8263 96.7901 19.1498 97.0447 18.5351C97.2994 17.9203 97.7306 17.3948 98.2839 17.0251C98.8372 16.6554 99.4876 16.4581 100.153 16.4581C101.045 16.4581 101.901 16.8126 102.532 17.4435C103.163 18.0745 103.518 18.9303 103.518 19.8226Z" fill="#0169EE"/>
<path d="M129.981 27.3623C129.981 27.3623 122.292 21.0857 115.227 23.9096C108.162 26.7335 102.828 48.0839 104.24 54.3605C105.652 60.6371 113.032 65.0494 113.032 65.0494C113.032 65.0494 111.614 68.8165 110.362 66.9302C109.11 65.0439 107.533 65.0494 108.156 70.5428C108.779 76.0362 115.381 76.3506 120.4 77.1338C125.419 77.917 137.041 79.4889 142.534 77.2938C148.027 75.0986 149.152 70.0685 148.502 68.6566C147.851 67.2446 145.832 70.2285 143.946 69.2853C142.06 68.3422 143.791 67.559 146.93 64.5751C150.068 61.5912 151.171 51.3932 149.599 44.7967C148.027 38.2002 144.42 31.6092 138.767 28.8018C133.113 25.9944 131.398 25.3381 129.981 27.3623Z" fill="#532708" stroke="#263238" stroke-linecap="round" stroke-linejoin="round"/>
<path d="M161.866 96.7082L157.536 84.2543L157.746 96.7082H161.866Z" fill="#9736AF" stroke="#263238" stroke-linecap="round" stroke-linejoin="round"/>
<path d="M96.3805 96.7082L97.627 84.2598L93.2312 96.7082H96.3805Z" fill="#9736AF" stroke="#263238" stroke-linecap="round" stroke-linejoin="round"/>
<path d="M157.746 96.7081L157.536 84.2542L136.787 74.558L120.185 71.8389L97.627 84.2597L95.4649 96.7081H157.746Z" fill="#C064D7" stroke="#263238" stroke-linecap="round" stroke-linejoin="round"/>
<path d="M123.175 68.3586C123.175 68.3586 121.178 65.3693 119.689 66.533C118.2 67.6968 112.05 72.3408 113.379 75.9976C114.708 79.6543 123.009 84.1329 128.486 84.1329C133.963 84.1329 139.942 76.8249 140.107 75.9976C140.273 75.1702 135.954 68.8274 135.292 68.5241C134.63 68.2207 127.99 69.1804 123.175 68.3586Z" fill="#9736AF" stroke="#263238" stroke-linecap="round" stroke-linejoin="round"/>
<path d="M122.336 73.1626C122.336 73.1626 125.331 82.7485 133.075 82.2466L122.336 73.1626Z" fill="white"/>
<path d="M122.336 73.1626C122.336 73.1626 125.331 82.7485 133.075 82.2466" stroke="#263238" stroke-linecap="round" stroke-linejoin="round"/>
<path d="M122.336 63.5326V73.1626C124.154 74.4199 126.276 75.1648 128.481 75.3191C129.501 75.3617 130.516 75.1579 131.44 74.7249C132.365 74.2919 133.172 73.6425 133.792 72.8317V63.5326C133.792 63.5326 124.835 65.3582 122.336 63.5326Z" fill="#DA958A" stroke="#263238" stroke-linecap="round" stroke-linejoin="round"/>
<path d="M117.295 51.9171C117.295 51.9171 116.12 48.8891 115.282 51.9171C114.444 54.9451 118.977 59.4788 118.977 57.6311C118.977 55.7834 117.295 51.9171 117.295 51.9171Z" fill="#DA958A" stroke="#263238" stroke-linecap="round" stroke-linejoin="round"/>
<path d="M138.37 51.9171C138.37 51.9171 139.545 48.8891 140.388 51.9171C141.232 54.9451 136.676 59.4788 136.676 57.6311C136.676 55.7834 138.37 51.9171 138.37 51.9171Z" fill="#DA958A" stroke="#263238" stroke-linecap="round" stroke-linejoin="round"/>
<path d="M127.99 35.4755C127.99 35.4755 116.699 45.6018 116.198 48.0948C115.696 50.5878 119.187 61.707 120.516 63.3672C121.845 65.0273 124.669 67.5203 127.99 67.5203C131.31 67.5203 132.805 66.3565 134.796 63.3672C136.787 60.3778 138.447 52.2425 138.281 48.9222C138.116 45.6018 127.99 35.4755 127.99 35.4755Z" fill="#FFCEC7" stroke="#263238" stroke-linecap="round" stroke-linejoin="round"/>
<path d="M119.689 48.2603C119.689 48.2603 122.998 47.764 124.498 50.086" stroke="#263238" stroke-linecap="round" stroke-linejoin="round"/>
<path d="M130.477 50.4169C131.028 49.7362 131.746 49.2101 132.561 48.8901C133.376 48.57 134.26 48.4671 135.127 48.5913" stroke="#263238" stroke-linecap="round" stroke-linejoin="round"/>
<path d="M123.539 50.0694C123.539 49.8687 123.479 49.6725 123.368 49.5056C123.256 49.3387 123.098 49.2086 122.912 49.1318C122.727 49.055 122.523 49.0349 122.326 49.0741C122.129 49.1132 121.948 49.2099 121.806 49.3518C121.664 49.4937 121.568 49.6746 121.528 49.8714C121.489 50.0683 121.509 50.2723 121.586 50.4578C121.663 50.6432 121.793 50.8017 121.96 50.9132C122.127 51.0247 122.323 51.0843 122.524 51.0843C122.793 51.0843 123.051 50.9773 123.241 50.787C123.432 50.5967 123.539 50.3386 123.539 50.0694Z" fill="#263238"/>
<path d="M133.262 50.0694C133.262 49.8687 133.203 49.6725 133.091 49.5056C132.98 49.3387 132.821 49.2086 132.636 49.1318C132.45 49.055 132.246 49.0349 132.05 49.0741C131.853 49.1132 131.672 49.2099 131.53 49.3518C131.388 49.4937 131.291 49.6746 131.252 49.8714C131.213 50.0683 131.233 50.2723 131.31 50.4578C131.387 50.6432 131.517 50.8017 131.684 50.9132C131.851 51.0247 132.047 51.0843 132.248 51.0843C132.381 51.0843 132.513 51.058 132.636 51.007C132.759 50.956 132.871 50.8813 132.965 50.787C133.059 50.6928 133.134 50.5809 133.185 50.4578C133.236 50.3347 133.262 50.2027 133.262 50.0694Z" fill="#263238"/>
<path d="M124.989 57.1071C124.989 57.1071 125.976 58.3205 127.118 58.3205C128.26 58.3205 130.003 57.256 130.157 56.8037" stroke="#263238" stroke-linecap="round" stroke-linejoin="round"/>
<path d="M123.015 58.9824C124.266 59.7934 125.707 60.2648 127.195 60.3503C128.576 60.4861 129.963 60.1665 131.144 59.4402" stroke="#263238" stroke-linecap="round" stroke-linejoin="round"/>
<path d="M119.827 46.0155C120.472 45.5911 121.209 45.3279 121.977 45.2482C122.745 45.1686 123.521 45.2747 124.239 45.5578" stroke="#263238" stroke-linecap="round" stroke-linejoin="round"/>
<path d="M130.003 45.8611C130.817 45.4295 131.745 45.2633 132.658 45.386C133.571 45.5086 134.423 45.9139 135.094 46.545" stroke="#263238" stroke-linecap="round" stroke-linejoin="round"/>
<path d="M180.773 101.749L243.627 120.59V32.5302L180.773 13.6893V101.749Z" fill="#263238" stroke="#263238" stroke-linecap="round" stroke-linejoin="round"/>
<path d="M178.467 97.8002L241.321 116.641V28.5756L178.467 9.73474V97.8002Z" fill="white" stroke="#263238" stroke-linecap="round" stroke-linejoin="round"/>
<path d="M178.467 14.4394L241.321 33.2803V28.5756L178.467 9.73474V14.4394Z" fill="#407BFF" stroke="#263238" stroke-linecap="round" stroke-linejoin="round"/>
<path d="M182.278 21.7916C182.337 22.773 182.688 23.7143 183.286 24.494C183.885 25.2737 184.704 25.8559 185.637 26.1653C187.496 26.7169 189.002 25.6745 189.002 23.8158C188.945 22.8333 188.593 21.8907 187.993 21.1107C187.393 20.3306 186.572 19.7492 185.637 19.442C183.784 18.8794 182.278 19.9329 182.278 21.7916Z" fill="#0169EE"/>
<path d="M221.35 36.7165C221.35 36.7165 221.234 36.4573 221.013 36.0326C220.103 34.2676 217.45 29.5685 214.13 27.8476C210.032 25.7076 204.517 24.7866 205.228 26.3254C205.682 27.2838 206.357 28.1211 207.197 28.7687C207.197 28.7687 198.472 27.7042 195.615 29.7008C192.758 31.6974 191.445 33.5286 192.995 33.5286H194.545C194.545 33.5286 187.297 41.3329 187 45.0118C186.702 48.6906 190.309 49.6006 190.309 49.6006C190.309 49.6006 191.892 57.2506 193.227 59.3906C194.561 61.5306 195.3 60.615 195.3 60.615C195.3 60.615 199.542 65.3583 203.342 67.1894C207.142 69.0206 211.786 68.8441 217.655 68.4028C223.523 67.9616 226.148 67.6252 227.5 63.1852C228.34 60.3915 228.894 57.5198 229.154 54.6142C229.154 54.6142 230.809 57.5208 230.859 54.6142C230.908 51.7075 230.428 44.9732 228.619 42.6787C227.392 41.179 225.978 39.8426 224.411 38.7021C224.411 38.7021 227.847 39.3143 225.591 37.3232C225.564 37.3232 223.021 35.9499 221.35 36.7165Z" fill="#534F2B" stroke="#263238" stroke-linecap="round" stroke-linejoin="round"/>
<path d="M185.99 74.3981L179.686 97.9491L186.498 100.089L185.99 74.3981Z" fill="#407BFF" stroke="#263238" stroke-linecap="round" stroke-linejoin="round"/>
<path d="M229.833 80.7905L237.472 115.268L229.094 112.775L229.833 80.7905Z" fill="#407BFF" stroke="#263238" stroke-linecap="round" stroke-linejoin="round"/>
<path d="M205.03 66.886L185.99 74.398L186.498 100.089L229.094 112.775L229.833 80.7905L214.389 68.2538L205.03 66.886Z" fill="#407BFF" stroke="#263238" stroke-linecap="round" stroke-linejoin="round"/>
<path d="M201.389 104.154L208.692 106.426L215.691 69.3128L214.389 68.2538L205.03 66.886L202.823 67.7519L201.389 104.154Z" fill="white" stroke="#263238" stroke-linecap="round" stroke-linejoin="round"/>
<path d="M203.965 64.2828C203.965 64.2828 204.296 75.1482 205.62 77.4427C206.943 79.7371 214.604 70.3939 215.162 69.015C215.719 67.6362 217.037 62.4296 217.037 62.4296C217.037 62.4296 208.973 65.805 207.401 65.3472C205.829 64.8895 203.965 64.2828 203.965 64.2828Z" fill="#DA958A" stroke="#263238" stroke-linecap="round" stroke-linejoin="round"/>
<path d="M217.075 62.4296C217.075 62.4296 214.367 63.5657 211.786 64.4262L208.83 67.6417H215.658C216.276 65.601 217.075 62.4296 217.075 62.4296Z" fill="#263238" stroke="#263238" stroke-linecap="round" stroke-linejoin="round"/>
<path d="M213.148 40.5497L199.994 47.9073C199.994 47.9073 200.485 55.4083 200.772 58.315C201.059 61.2216 204.478 68.4138 206.662 68.7172C208.846 69.0205 217.434 63.505 218.449 61.9717C219.464 60.4384 220.043 55.9985 220.043 55.9985C220.043 55.9985 213.375 45.6018 213.148 40.5497Z" fill="#FFCEC7" stroke="#263238" stroke-linecap="round" stroke-linejoin="round"/>
<path d="M206.866 52.4907L206.508 54.9396C206.508 54.9396 204.963 55.094 205.322 56.1695C205.68 57.2451 207.291 58.6129 209.376 56.6218" stroke="#263238" stroke-linecap="round" stroke-linejoin="round"/>
<path d="M204.362 58.9218C204.362 58.9218 204.914 60.7584 207.396 60.9128C208.808 61.0304 210.217 60.6499 211.378 59.8373" stroke="#263238" stroke-linecap="round" stroke-linejoin="round"/>
<path d="M213.441 54.0184C213.38 54.9009 213.06 55.5848 212.718 55.5517C212.376 55.5187 212.167 54.7685 212.2 53.8971C212.233 53.0257 212.58 52.3307 212.922 52.3638C213.264 52.3969 213.496 53.1249 213.441 54.0184Z" fill="#263238"/>
<path d="M204.969 51.7185C204.908 52.601 204.583 53.2849 204.241 53.2518C203.899 53.2187 203.689 52.4686 203.728 51.5972C203.767 50.7257 204.109 50.0308 204.451 50.0694C204.792 50.108 205.024 50.8361 204.969 51.7185Z" fill="#263238"/>
<path d="M202.939 47.9073C202.939 47.9073 205.212 46.6774 206.833 48.3596" stroke="#263238" stroke-linecap="round" stroke-linejoin="round"/>
<path d="M210.291 49.4296C210.291 49.4296 214.152 49.2697 215.2 51.7185" stroke="#263238" stroke-linecap="round" stroke-linejoin="round"/>
<path d="M119.816 85.6938C119.816 85.6938 118.641 85.5284 118.641 87.0396C118.641 88.5508 119.397 90.2331 120.66 90.6522C121.923 91.0714 121.669 89.141 121.332 88.3854C120.996 87.6297 119.816 85.6938 119.816 85.6938Z" fill="white" stroke="#263238" stroke-miterlimit="10"/>
<path d="M133.704 85.6938C133.704 85.6938 134.878 85.5284 134.878 87.0396C134.878 88.5508 134.123 90.2331 132.865 90.6522C131.608 91.0714 131.856 89.141 132.192 88.3854C132.529 87.6297 133.704 85.6938 133.704 85.6938Z" fill="white" stroke="#263238" stroke-miterlimit="10"/>
<path d="M115.447 147.119L116.33 192.346L115.447 193.482L115.828 196.003C115.828 196.003 114.565 194.492 113.181 195.121C111.796 195.749 113.809 199.279 115.828 200.542C117.847 201.805 118.586 202.682 119.733 201.673C120.88 200.664 120.742 197.261 120.742 197.261C121.094 196.192 121.347 195.094 121.498 193.979V191.354C121.498 191.354 122.888 190.471 122.888 188.199C122.888 185.926 126.793 149.629 126.793 149.629L114.946 145.217L115.447 147.119Z" fill="#263238" stroke="#263238" stroke-linecap="round" stroke-linejoin="round"/>
<path d="M141.712 147.119L140.83 192.346L141.712 193.482L141.332 196.003C141.332 196.003 142.595 194.492 143.979 195.121C145.363 195.749 143.35 199.279 141.332 200.542C139.313 201.805 138.574 202.682 137.427 201.673C136.279 200.664 136.417 197.261 136.417 197.261C136.066 196.192 135.813 195.094 135.662 193.979V191.354C135.662 191.354 134.277 190.471 134.277 188.199C134.277 185.926 130.367 149.629 130.367 149.629L142.214 145.217L141.712 147.119Z" fill="#263238" stroke="#263238" stroke-linecap="round" stroke-linejoin="round"/>
<path d="M121.878 98.2139C121.878 98.2139 111.543 104.391 111.399 105.147C111.256 105.902 115.183 130.485 115.183 130.485L113.528 145.735C113.528 145.735 117.814 152.287 128.028 151.802C138.243 151.317 143.654 146.634 143.654 146.634L141.006 128.61L142.898 104.281L131.933 98.4841L121.878 98.2139Z" fill="#407BFF" stroke="#263238" stroke-linecap="round" stroke-linejoin="round"/>
<path d="M134.696 125.482C131.911 128.825 128.144 132.868 124.697 134.958" stroke="#263238" stroke-linecap="round" stroke-linejoin="round"/>
<path d="M138.883 120.094C138.883 120.094 138.21 121.053 137.085 122.515" stroke="#263238" stroke-linecap="round" stroke-linejoin="round"/>
<path d="M130.505 133.099C130.505 133.099 123.77 139.833 120.053 141.714" stroke="#263238" stroke-linecap="round" stroke-linejoin="round"/>
<path d="M122.844 92.759V97.7119H130.659V92.9245L122.844 92.759Z" fill="#DA958A" stroke="#263238" stroke-miterlimit="10"/>
<path d="M126.71 73.3226C124.335 73.513 122.09 74.4825 120.323 76.0804C117.632 78.6837 118.222 81.7061 118.895 84.144C119.568 86.5818 122.005 93.2169 123.009 93.7243C124.013 94.2318 129.231 94.7337 130.576 93.8898C131.922 93.0459 134.525 86.4108 134.691 81.8771C134.856 77.3434 132.341 72.9255 126.71 73.3226Z" fill="#263238" stroke="#263238" stroke-miterlimit="10"/>
<path d="M133.091 99.477H120.323L120.825 96.118H132.59L133.091 99.477Z" fill="#0169EE" stroke="#263238" stroke-miterlimit="10"/>
<path d="M99.1713 109.173C98.5919 107.987 98.0872 106.766 97.6601 105.516C97.0313 103.625 95.7683 102.869 95.2664 102.24C94.7645 101.611 93.7551 100.85 93.3746 100.221C92.994 99.5927 92.2384 100.723 92.619 101.485L92.994 102.24C92.994 102.24 91.6096 101.606 91.6096 101.231C91.6096 100.856 92.3652 98.7102 91.2346 99.2121C90.1039 99.714 90.0984 102.996 90.3521 104.126C90.6058 105.257 96.1489 108.164 96.1489 108.164L97.2795 110.431L99.1713 109.173Z" fill="#FFCEC7" stroke="#263238" stroke-linecap="round" stroke-linejoin="round"/>
<path d="M93.0106 102.251L94.9024 104.143" stroke="#263238" stroke-linecap="round" stroke-linejoin="round"/>
<path d="M111.416 105.147L108.515 118.257L98.9397 107.921L95.7848 109.576C95.7848 109.576 107.632 131.13 109.27 131.003C110.908 130.876 114.565 125.207 114.565 125.207L111.416 105.147Z" fill="#407BFF" stroke="#263238" stroke-linecap="round" stroke-linejoin="round"/>
<path d="M156.405 109.173C156.985 107.987 157.489 106.766 157.917 105.516C158.545 103.625 159.808 102.869 160.31 102.24C160.812 101.611 161.821 100.85 162.202 100.221C162.583 99.5927 163.338 100.723 162.958 101.485L162.577 102.24C162.577 102.24 163.967 101.606 163.967 101.231C163.967 100.856 163.211 98.7102 164.342 99.2121C165.473 99.714 165.478 102.996 165.225 104.126C164.971 105.257 159.428 108.164 159.428 108.164L158.292 110.431L156.405 109.173Z" fill="#FFCEC7" stroke="#263238" stroke-linecap="round" stroke-linejoin="round"/>
<path d="M162.577 102.251L160.685 104.143" stroke="#263238" stroke-linecap="round" stroke-linejoin="round"/>
<path d="M142.926 104.264L147.079 118.257L156.653 107.921L159.808 109.576C159.808 109.576 147.961 131.13 146.318 131.003C144.674 130.876 141.028 125.168 141.028 125.168L142.926 104.264Z" fill="#407BFF" stroke="#263238" stroke-linecap="round" stroke-linejoin="round"/>
<path d="M37.5746 134.732H30.9616V150.247H37.5746V134.732Z" fill="#D6B556"/>
<path d="M45.9416 127.716H39.3286V150.247H45.9416V127.716Z" fill="#D6B556"/>
<path d="M54.303 131.224H47.69V150.247H54.303V131.224Z" fill="#D6B556"/>
<path d="M62.8355 141.108H56.2224V150.247H62.8355V141.108Z" fill="#D6B556"/>
<path d="M71.3679 122.824H64.7548V150.241H71.3679V122.824Z" fill="#D6B556"/>
<path d="M79.8948 137.181H73.2817V150.247H79.8948V137.181Z" fill="#D6B556"/>
<path d="M28.6451 128.549V150.247H82.0237" stroke="#263238" stroke-linecap="round" stroke-linejoin="round"/>
<path d="M179.482 125.273C176.392 125.273 173.372 126.189 170.804 127.905C168.235 129.622 166.233 132.062 165.051 134.916C163.869 137.771 163.56 140.912 164.163 143.942C164.766 146.972 166.254 149.755 168.439 151.939C170.624 154.124 173.408 155.611 176.438 156.213C179.468 156.815 182.609 156.505 185.463 155.322C188.317 154.139 190.756 152.136 192.472 149.566C194.188 146.997 195.103 143.977 195.102 140.887C195.1 136.745 193.454 132.774 190.525 129.846C187.596 126.918 183.624 125.273 179.482 125.273ZM179.482 145.856C178.5 145.856 177.541 145.565 176.724 145.02C175.908 144.474 175.272 143.699 174.896 142.792C174.52 141.885 174.422 140.887 174.613 139.924C174.805 138.961 175.278 138.077 175.972 137.382C176.666 136.688 177.551 136.215 178.514 136.024C179.476 135.832 180.475 135.931 181.382 136.306C182.289 136.682 183.064 137.318 183.609 138.135C184.155 138.951 184.446 139.911 184.446 140.893C184.446 142.209 183.923 143.472 182.992 144.403C182.061 145.333 180.799 145.856 179.482 145.856Z" fill="#407BFF" stroke="#263238" stroke-linecap="round" stroke-linejoin="round"/>
<path d="M190.281 129.613L182.521 136.965C183.5 137.731 184.156 138.835 184.36 140.06C184.564 141.286 184.302 142.543 183.624 143.584L192.112 150.026C194.328 146.972 195.361 143.219 195.022 139.462C194.682 135.705 192.992 132.198 190.265 129.591L190.281 129.613Z" fill="#D6B556" stroke="#263238" stroke-linecap="round" stroke-linejoin="round"/>
<path d="M226.634 151.929C228.82 149.746 230.31 146.964 230.915 143.935C231.52 140.905 231.212 137.764 230.031 134.909C228.85 132.054 226.849 129.614 224.281 127.897C221.712 126.18 218.692 125.264 215.603 125.264C212.513 125.264 209.493 126.18 206.925 127.897C204.357 129.614 202.355 132.054 201.174 134.909C199.993 137.764 199.686 140.905 200.291 143.935C200.895 146.964 202.385 149.746 204.572 151.929C207.498 154.854 211.466 156.497 215.603 156.497C219.74 156.497 223.708 154.854 226.634 151.929ZM212.084 137.374C212.778 136.68 213.663 136.209 214.626 136.018C215.588 135.827 216.586 135.926 217.492 136.302C218.399 136.678 219.174 137.314 219.719 138.13C220.264 138.946 220.555 139.906 220.555 140.887C220.555 141.868 220.264 142.828 219.719 143.644C219.174 144.46 218.399 145.096 217.492 145.472C216.586 145.848 215.588 145.947 214.626 145.756C213.663 145.565 212.778 145.094 212.084 144.4C211.622 143.939 211.255 143.392 211.005 142.789C210.755 142.186 210.627 141.54 210.627 140.887C210.627 140.234 210.755 139.588 211.005 138.985C211.255 138.382 211.622 137.835 212.084 137.374Z" fill="#0169EE"/>
<path d="M215.934 156.496L216.22 145.812C214.978 145.978 213.719 145.668 212.696 144.943C211.673 144.219 210.961 143.134 210.705 141.907L200.176 143.369C200.776 147.09 202.701 150.469 205.598 152.882C208.494 155.295 212.165 156.578 215.934 156.496Z" fill="#D6B556"/>
<path d="M164.188 182.043L174.595 174.085L187.292 181.701L203.16 168.707L219.431 180.317L227.516 171.217" stroke="#263238" stroke-linecap="round" stroke-linejoin="round"/>
<path d="M229.038 173.643L230.147 168.26L224.924 169.992L229.038 173.643Z" fill="#263238"/>
<path d="M176.653 174.079C176.653 173.672 176.532 173.274 176.306 172.936C176.08 172.598 175.759 172.334 175.383 172.178C175.007 172.023 174.593 171.982 174.194 172.061C173.795 172.141 173.428 172.337 173.141 172.624C172.853 172.912 172.657 173.279 172.578 173.678C172.498 174.077 172.539 174.49 172.695 174.866C172.85 175.242 173.114 175.563 173.452 175.79C173.791 176.016 174.188 176.136 174.595 176.136C175.141 176.136 175.664 175.92 176.05 175.534C176.436 175.148 176.653 174.625 176.653 174.079Z" fill="white" stroke="#263238" stroke-linecap="round" stroke-linejoin="round"/>
<path d="M189.377 181.635C189.377 181.228 189.256 180.831 189.03 180.492C188.804 180.154 188.483 179.89 188.107 179.735C187.731 179.579 187.317 179.538 186.918 179.618C186.519 179.697 186.152 179.893 185.865 180.181C185.577 180.468 185.381 180.835 185.302 181.234C185.222 181.633 185.263 182.047 185.419 182.423C185.575 182.798 185.838 183.12 186.177 183.346C186.515 183.572 186.913 183.693 187.319 183.693C187.865 183.693 188.388 183.476 188.774 183.09C189.16 182.704 189.377 182.181 189.377 181.635Z" fill="white" stroke="#263238" stroke-linecap="round" stroke-linejoin="round"/>
<path d="M203.165 170.764C204.302 170.764 205.223 169.843 205.223 168.707C205.223 167.571 204.302 166.65 203.165 166.65C202.029 166.65 201.108 167.571 201.108 168.707C201.108 169.843 202.029 170.764 203.165 170.764Z" fill="white" stroke="#263238" stroke-linecap="round" stroke-linejoin="round"/>
<path d="M221.526 179.975C221.527 179.568 221.408 179.17 221.182 178.831C220.957 178.492 220.636 178.227 220.26 178.071C219.884 177.914 219.471 177.872 219.071 177.951C218.672 178.03 218.305 178.225 218.016 178.513C217.728 178.8 217.532 179.167 217.452 179.566C217.372 179.965 217.412 180.379 217.568 180.756C217.723 181.132 217.987 181.453 218.326 181.68C218.664 181.906 219.062 182.027 219.469 182.027C220.014 182.027 220.536 181.811 220.922 181.426C221.308 181.042 221.525 180.52 221.526 179.975Z" fill="white" stroke="#263238" stroke-linecap="round" stroke-linejoin="round"/>
<path d="M28.6451 161.162V182.86H83.4853" stroke="#263238" stroke-linecap="round" stroke-linejoin="round"/>
<path d="M74.7985 182.86L54.7332 163.693L45.2852 178.867L38.4295 167.687L29.1139 182.86H74.7985Z" fill="#0169EE"/>
<path d="M79.3046 182.86L65.9186 163.693L52.345 178.867L42.4944 167.687L29.1139 182.86H79.3046Z" stroke="#263238" stroke-linecap="round" stroke-linejoin="round"/>
<path d="M35.043 183.124V185.253" stroke="#263238" stroke-linecap="round" stroke-linejoin="round"/>
<path d="M42.9963 183.124V185.253" stroke="#263238" stroke-linecap="round" stroke-linejoin="round"/>
<path d="M50.9441 183.124V185.253" stroke="#263238" stroke-linecap="round" stroke-linejoin="round"/>
<path d="M58.8974 183.124V185.253" stroke="#263238" stroke-linecap="round" stroke-linejoin="round"/>
<path d="M66.8507 183.124V185.253" stroke="#263238" stroke-linecap="round" stroke-linejoin="round"/>
<path d="M74.804 183.124V185.253" stroke="#263238" stroke-linecap="round" stroke-linejoin="round"/>
<path d="M242.882 0H211.996C210.796 0 209.646 0.476496 208.798 1.32466C207.949 2.17283 207.473 3.32319 207.473 4.52268V18.361C207.473 19.561 207.949 20.7119 208.797 21.5609C209.645 22.41 210.796 22.8877 211.996 22.8892H238.768L237.703 27.1471L242.993 22.8837C244.172 22.8535 245.294 22.3639 246.118 21.5191C246.942 20.6743 247.404 19.5412 247.405 18.361V4.52268C247.403 3.32364 246.927 2.17413 246.079 1.32627C245.231 0.478424 244.081 0.00145958 242.882 0Z" fill="#D6B556"/>
<path d="M217.009 13.546C218.142 13.546 219.061 12.6274 219.061 11.4943C219.061 10.3611 218.142 9.4425 217.009 9.4425C215.876 9.4425 214.957 10.3611 214.957 11.4943C214.957 12.6274 215.876 13.546 217.009 13.546Z" fill="#263238"/>
<path d="M229.496 11.4943C229.497 11.0882 229.378 10.691 229.153 10.3529C228.928 10.0148 228.608 9.75092 228.233 9.59478C227.859 9.43864 227.446 9.39722 227.048 9.47577C226.649 9.55431 226.283 9.74928 225.996 10.036C225.708 10.3227 225.512 10.6883 225.433 11.0865C225.353 11.4846 225.393 11.8974 225.548 12.2727C225.703 12.6479 225.966 12.9687 226.304 13.1943C226.642 13.42 227.038 13.5405 227.444 13.5405C227.714 13.5412 227.98 13.4889 228.229 13.3863C228.478 13.2838 228.704 13.1332 228.895 12.9431C229.086 12.7531 229.237 12.5272 229.34 12.2786C229.443 12.03 229.496 11.7635 229.496 11.4943Z" fill="#263238"/>
<path d="M237.88 13.546C239.013 13.546 239.931 12.6274 239.931 11.4943C239.931 10.3611 239.013 9.4425 237.88 9.4425C236.747 9.4425 235.828 10.3611 235.828 11.4943C235.828 12.6274 236.747 13.546 237.88 13.546Z" fill="#263238"/>
<path d="M71.3513 28.0406H96.0937C97.0562 28.0406 97.9793 28.423 98.6599 29.1036C99.3405 29.7842 99.7229 30.7073 99.7229 31.6698V42.7614C99.7229 43.2378 99.629 43.7094 99.4465 44.1494C99.2641 44.5894 98.9966 44.9891 98.6596 45.3257C98.3225 45.6623 97.9224 45.9291 97.4821 46.1108C97.0418 46.2926 96.57 46.3858 96.0937 46.3851H74.6441L69.1286 49.7992L71.2796 46.3851C70.3354 46.3592 69.4384 45.9663 68.7793 45.2896C68.1202 44.613 67.7508 43.706 67.7497 42.7614V31.6698C67.7497 30.7121 68.1283 29.7931 68.8029 29.1133C69.4776 28.4335 70.3936 28.0479 71.3513 28.0406Z" fill="white" stroke="#263238" stroke-linecap="round" stroke-linejoin="round"/>
<path d="M90.4459 37.2569C90.4459 36.9297 90.5429 36.6098 90.7247 36.3377C90.9065 36.0656 91.165 35.8535 91.4673 35.7282C91.7696 35.603 92.1023 35.5702 92.4233 35.6341C92.7443 35.6979 93.0391 35.8555 93.2705 36.0869C93.5019 36.3183 93.6595 36.6132 93.7233 36.9341C93.7872 37.2551 93.7544 37.5878 93.6292 37.8901C93.504 38.1925 93.2919 38.4509 93.0198 38.6327C92.7477 38.8145 92.4278 38.9116 92.1005 38.9116C91.6617 38.9116 91.2408 38.7372 90.9305 38.4269C90.6202 38.1166 90.4459 37.6958 90.4459 37.2569Z" fill="#263238"/>
<path d="M82.0734 37.2569C82.0734 36.9297 82.1704 36.6098 82.3522 36.3377C82.5341 36.0656 82.7925 35.8535 83.0948 35.7282C83.3972 35.603 83.7299 35.5702 84.0508 35.6341C84.3718 35.6979 84.6666 35.8555 84.898 36.0869C85.1294 36.3183 85.287 36.6132 85.3509 36.9341C85.4147 37.2551 85.382 37.5878 85.2567 37.8901C85.1315 38.1925 84.9194 38.4509 84.6473 38.6327C84.3752 38.8145 84.0553 38.9116 83.728 38.9116C83.2892 38.9116 82.8683 38.7372 82.558 38.4269C82.2477 38.1166 82.0734 37.6958 82.0734 37.2569Z" fill="#263238"/>
<path d="M73.7175 37.2569C73.7175 36.9297 73.8145 36.6098 73.9963 36.3377C74.1781 36.0656 74.4365 35.8535 74.7389 35.7282C75.0412 35.603 75.3739 35.5702 75.6949 35.6341C76.0159 35.6979 76.3107 35.8555 76.5421 36.0869C76.7735 36.3183 76.9311 36.6132 76.995 36.9341C77.0588 37.2551 77.026 37.5878 76.9008 37.8901C76.7756 38.1925 76.5635 38.4509 76.2914 38.6327C76.0193 38.8145 75.6994 38.9116 75.3721 38.9116C74.9333 38.9116 74.5124 38.7372 74.2021 38.4269C73.8918 38.1166 73.7175 37.6958 73.7175 37.2569Z" fill="#263238"/>
</svg>
